<svg width="31" height="25" viewBox="0 0 31 25" fill="none" xmlns="http://www.w3.org/2000/svg">
<path d="M10.0453 17.7163C13.6738 11.697 23.4305 4.73661 28.8192 0.91896C28.9658 0.815122 29.1405 0.758124 29.3202 0.755468C29.4998 0.752812 29.6761 0.804623 29.8258 0.90408C29.9412 0.980476 30.0373 1.08272 30.1065 1.20271C30.1756 1.3227 30.2158 1.45714 30.2239 1.59537C30.232 1.7336 30.2078 1.87182 30.1532 1.99908C30.0987 2.12634 30.0152 2.23913 29.9095 2.32853C23.445 7.78949 15.7518 14.3227 13.4286 21.5197C13.3876 21.6482 13.3184 21.766 13.2261 21.8643C13.1337 21.9626 13.0205 22.039 12.8948 22.0879C11.7162 22.5467 9.91786 23.4712 8.85394 24.1147C8.74856 24.1787 8.63107 24.2203 8.50886 24.2367C8.38665 24.2531 8.26236 24.2441 8.14381 24.2102C8.02525 24.1763 7.915 24.1182 7.81997 24.0396C7.72494 23.961 7.6472 23.8636 7.59162 23.7536C5.94335 20.515 3.29348 16.5194 1.09527 14.7093C0.999502 14.6299 0.921572 14.5311 0.866561 14.4195C0.811551 14.3079 0.780698 14.186 0.776017 14.0616C0.771336 13.9373 0.792933 13.8134 0.839396 13.698C0.88586 13.5825 0.956146 13.4782 1.04567 13.3918C5.43836 9.19255 8.67787 14.9434 10.045 17.716L10.0453 17.7163Z" fill="#08A935"/>
</svg>
