<svg width="26" height="26" viewBox="0 0 26 26" fill="none" xmlns="http://www.w3.org/2000/svg">
<path d="M24.4763 0H4.26546C3.42544 0 2.74202 0.683411 2.74202 1.52343V9.95309C2.74202 10.7931 3.42544 11.4765 4.26546 11.4765H5.17951C5.45998 11.4765 5.68733 11.2491 5.68733 10.9687C5.68733 10.6883 5.45998 10.4609 5.17951 10.4609H4.26546C3.98545 10.4609 3.75765 10.2331 3.75765 9.95309V1.52343C3.75765 1.24342 3.98545 1.01562 4.26546 1.01562H24.4763C24.7563 1.01562 24.9841 1.24342 24.9841 1.52343V9.95309C24.9841 10.2331 24.7563 10.4609 24.4763 10.4609H21.0797C20.945 10.4609 20.8159 10.5144 20.7206 10.6096L19.0485 12.2818L17.3763 10.6096C17.2811 10.5144 17.1519 10.4609 17.0172 10.4609H13.0571C13.0196 10.3643 12.9771 10.2697 12.9298 10.1776C12.5662 9.47117 11.9473 8.95488 11.1872 8.72378L10.453 8.50054C10.1945 8.42183 9.91967 8.55955 9.82776 8.81361L8.67411 12.0021C8.35468 12.8858 7.7225 13.6218 6.89713 14.0709L5.81418 14.6606C5.54803 14.3375 5.14509 14.1312 4.69481 14.1312H1.4499C0.650404 14.1312 1.18918e-08 14.7817 1.18918e-08 15.5812V24.5499C-0.00010155 25.3494 0.650353 25.9999 1.44985 25.9999H4.69476C5.20023 25.9999 5.64584 25.7397 5.90543 25.3464L6.4236 25.5497C7.18215 25.8479 7.99006 26.0007 8.80513 26H15.6569C16.685 26 17.5213 25.1636 17.5213 24.1356C17.5216 23.8074 17.4347 23.485 17.2694 23.2014C18.0257 22.9637 18.5759 22.2561 18.5759 21.4223C18.5762 21.0859 18.485 20.7557 18.3119 20.4672C19.036 20.211 19.5563 19.5198 19.5563 18.7091C19.5563 17.8646 18.9917 17.1498 18.2203 16.9214C18.3825 16.6399 18.4677 16.3206 18.4674 15.9957C18.4674 14.9677 17.631 14.1313 16.603 14.1313H12.5309L13.1004 12.4406C13.2053 12.1301 13.2571 11.8042 13.2538 11.4766H16.8069L18.6894 13.3591C18.7886 13.4582 18.9185 13.5078 19.0485 13.5078C19.1784 13.5078 19.3084 13.4582 19.4076 13.3591L21.2901 11.4765H24.4763C25.3163 11.4765 25.9997 10.7931 25.9997 9.95309V1.52343C25.9997 0.683411 25.3163 0 24.4763 0ZM5.12909 24.5499C5.12904 24.7894 4.93424 24.9843 4.69476 24.9843H1.44985C1.21037 24.9843 1.01557 24.7894 1.01557 24.5499V15.5812C1.01557 15.3417 1.21037 15.1469 1.44985 15.1469H2.56449V21.3991C2.56449 21.6795 2.79184 21.9069 3.0723 21.9069C3.35277 21.9069 3.58011 21.6795 3.58011 21.3991V15.1469H4.69476C4.88443 15.1469 5.04566 15.2693 5.10471 15.4391C5.10893 15.4637 5.11502 15.4881 5.12305 15.5122C5.12665 15.5347 5.12909 15.5576 5.12909 15.5812V24.5499ZM16.603 15.1468V15.1469C17.0711 15.1469 17.4518 15.5276 17.4518 15.9957C17.4518 16.4637 17.0711 16.8445 16.603 16.8445H13.8481C13.5676 16.8445 13.3403 17.0719 13.3403 17.3523C13.3403 17.6328 13.5676 17.8602 13.8481 17.8602L17.6919 17.8603C18.16 17.8603 18.5407 18.241 18.5407 18.7091C18.5407 19.1771 18.16 19.5579 17.6919 19.5579H13.8481C13.5676 19.5579 13.3403 19.7853 13.3403 20.0657C13.3403 20.3461 13.5676 20.5735 13.8481 20.5735H16.7115C17.1796 20.5735 17.5603 20.9543 17.5603 21.4223C17.5603 21.8904 17.1796 22.2711 16.7115 22.2711H13.8481C13.5676 22.2711 13.3403 22.4985 13.3403 22.779C13.3403 23.0594 13.5676 23.2868 13.8481 23.2868H15.657C16.125 23.2868 16.5058 23.6676 16.5058 24.1356C16.5058 24.6037 16.125 24.9844 15.657 24.9844H8.80513C8.11415 24.9844 7.43765 24.8565 6.7944 24.6042L6.14466 24.3494V15.6371L7.38275 14.9629C8.42614 14.3952 9.2253 13.4648 9.62905 12.3477L10.6187 9.6125L10.8917 9.69547C11.3868 9.84604 11.7899 10.1823 12.0268 10.6424C12.2636 11.1025 12.3031 11.626 12.1379 12.1164L11.3428 14.4769C11.3171 14.5533 11.3099 14.6347 11.3219 14.7144C11.3338 14.7941 11.3646 14.8698 11.4116 14.9353C11.4587 15.0007 11.5206 15.0541 11.5923 15.0909C11.664 15.1276 11.7435 15.1468 11.8241 15.1468H16.603Z" fill="white"/>
</svg>
