<svg width="27" height="27" viewBox="0 0 27 27" fill="none" xmlns="http://www.w3.org/2000/svg">
<path d="M8.19691 11.1097C8.10246 11.0153 7.97145 10.9609 7.83789 10.9609C7.70434 10.9609 7.57337 11.0152 7.47887 11.1097C7.38441 11.2042 7.33008 11.3352 7.33008 11.4688C7.33008 11.6023 7.38441 11.7333 7.47887 11.8277C7.57332 11.9222 7.70434 11.9766 7.83789 11.9766C7.97145 11.9766 8.10246 11.9222 8.19691 11.8277C8.29137 11.7333 8.3457 11.6023 8.3457 11.4688C8.3457 11.3352 8.29137 11.2042 8.19691 11.1097Z" fill="#4A148C"/>
<path d="M24.9763 0.5H4.76546C3.92544 0.5 3.24202 1.18341 3.24202 2.02343V10.4531C3.24202 11.2931 3.92544 11.9765 4.76546 11.9765H5.67951C5.95998 11.9765 6.18733 11.7491 6.18733 11.4687C6.18733 11.1883 5.95998 10.9609 5.67951 10.9609H4.76546C4.48545 10.9609 4.25765 10.7331 4.25765 10.4531V2.02343C4.25765 1.74342 4.48545 1.51562 4.76546 1.51562H24.9763C25.2563 1.51562 25.4841 1.74342 25.4841 2.02343V10.4531C25.4841 10.7331 25.2563 10.9609 24.9763 10.9609H21.5797C21.445 10.9609 21.3159 11.0144 21.2206 11.1096L19.5485 12.7818L17.8763 11.1096C17.7811 11.0144 17.6519 10.9609 17.5172 10.9609H13.5571C13.5196 10.8643 13.4771 10.7697 13.4298 10.6776C13.0662 9.97117 12.4473 9.45488 11.6872 9.22378L10.953 9.00054C10.6945 8.92183 10.4197 9.05955 10.3278 9.31361L9.17411 12.5021C8.85468 13.3858 8.2225 14.1218 7.39713 14.5709L6.31418 15.1606C6.04803 14.8375 5.64509 14.6312 5.19481 14.6312H1.9499C1.1504 14.6312 0.5 15.2817 0.5 16.0812V25.0499C0.499898 25.8494 1.15035 26.4999 1.94985 26.4999H5.19476C5.70023 26.4999 6.14584 26.2397 6.40543 25.8464L6.9236 26.0497C7.68215 26.3479 8.49006 26.5007 9.30513 26.5H16.1569C17.185 26.5 18.0213 25.6636 18.0213 24.6356C18.0216 24.3074 17.9347 23.985 17.7694 23.7014C18.5257 23.4637 19.0759 22.7561 19.0759 21.9223C19.0762 21.5859 18.985 21.2557 18.8119 20.9672C19.536 20.711 20.0563 20.0198 20.0563 19.2091C20.0563 18.3646 19.4917 17.6498 18.7203 17.4214C18.8825 17.1399 18.9677 16.8206 18.9674 16.4957C18.9674 15.4677 18.131 14.6313 17.103 14.6313H13.0309L13.6004 12.9406C13.7053 12.6301 13.7571 12.3042 13.7538 11.9766H17.3069L19.1894 13.8591C19.2886 13.9582 19.4185 14.0078 19.5485 14.0078C19.6784 14.0078 19.8084 13.9582 19.9076 13.8591L21.7901 11.9765H24.9763C25.8163 11.9765 26.4997 11.2931 26.4997 10.4531V2.02343C26.4997 1.18341 25.8163 0.5 24.9763 0.5ZM5.62909 25.0499C5.62904 25.2894 5.43424 25.4843 5.19476 25.4843H1.94985C1.71037 25.4843 1.51557 25.2894 1.51557 25.0499V16.0812C1.51557 15.8417 1.71037 15.6469 1.94985 15.6469H3.06449V21.8991C3.06449 22.1795 3.29184 22.4069 3.5723 22.4069C3.85277 22.4069 4.08011 22.1795 4.08011 21.8991V15.6469H5.19476C5.38443 15.6469 5.54566 15.7693 5.60471 15.9391C5.60893 15.9637 5.61502 15.9881 5.62305 16.0122C5.62665 16.0347 5.62909 16.0576 5.62909 16.0812V25.0499ZM17.103 15.6468V15.6469C17.5711 15.6469 17.9518 16.0276 17.9518 16.4957C17.9518 16.9637 17.5711 17.3445 17.103 17.3445H14.3481C14.0676 17.3445 13.8403 17.5719 13.8403 17.8523C13.8403 18.1328 14.0676 18.3602 14.3481 18.3602L18.1919 18.3603C18.66 18.3603 19.0407 18.741 19.0407 19.2091C19.0407 19.6771 18.66 20.0579 18.1919 20.0579H14.3481C14.0676 20.0579 13.8403 20.2853 13.8403 20.5657C13.8403 20.8461 14.0676 21.0735 14.3481 21.0735H17.2115C17.6796 21.0735 18.0603 21.4543 18.0603 21.9223C18.0603 22.3904 17.6796 22.7711 17.2115 22.7711H14.3481C14.0676 22.7711 13.8403 22.9985 13.8403 23.279C13.8403 23.5594 14.0676 23.7868 14.3481 23.7868H16.157C16.625 23.7868 17.0058 24.1676 17.0058 24.6356C17.0058 25.1037 16.625 25.4844 16.157 25.4844H9.30513C8.61415 25.4844 7.93765 25.3565 7.2944 25.1042L6.64466 24.8494V16.1371L7.88275 15.4629C8.92614 14.8952 9.7253 13.9648 10.1291 12.8477L11.1187 10.1125L11.3917 10.1955C11.8868 10.346 12.2899 10.6823 12.5268 11.1424C12.7636 11.6025 12.8031 12.126 12.6379 12.6164L11.8428 14.9769C11.8171 15.0533 11.8099 15.1347 11.8219 15.2144C11.8338 15.2941 11.8646 15.3698 11.9116 15.4353C11.9587 15.5007 12.0206 15.5541 12.0923 15.5909C12.164 15.6276 12.2435 15.6468 12.3241 15.6468H17.103Z" fill="#4A148C"/>
<path d="M24.174 5.42447C24.0778 5.12872 23.8268 4.91722 23.519 4.87258L22.6208 4.74233L22.2189 3.92856C22.0811 3.64973 21.8025 3.47656 21.4915 3.47656H21.4913C21.1803 3.47666 20.9016 3.64998 20.764 3.92892L20.3626 4.74294L19.4643 4.8737C19.1566 4.91854 18.9057 5.13015 18.8097 5.426C18.7136 5.7218 18.7924 6.04045 19.0152 6.25754L19.6653 6.89088L19.5121 7.78549C19.4596 8.0921 19.5833 8.39603 19.835 8.57884C19.9732 8.67979 20.1398 8.73428 20.3109 8.73448C20.4399 8.73448 20.5696 8.70335 20.6894 8.64034L21.4927 8.21773L22.2962 8.63988C22.5715 8.7845 22.8989 8.76079 23.1505 8.57787C23.4021 8.39496 23.5256 8.09093 23.4729 7.78437L23.3193 6.88986L23.9691 6.25611C24.1916 6.03887 24.2702 5.72022 24.174 5.42447ZM22.5331 6.23783C22.4389 6.32966 22.3685 6.443 22.3279 6.5681C22.2873 6.69321 22.2777 6.8263 22.3 6.95593L22.4017 7.54814L21.8696 7.26854C21.7532 7.20742 21.6236 7.17551 21.4921 7.17557C21.3607 7.17562 21.2312 7.20763 21.1148 7.26884L20.5829 7.54864L20.6844 6.95638C20.7066 6.82674 20.697 6.69363 20.6563 6.56853C20.6156 6.44344 20.5451 6.33012 20.4509 6.23834L20.0204 5.81899L20.6151 5.73241C20.7452 5.7135 20.8688 5.66321 20.9752 5.58588C21.0816 5.50855 21.1676 5.4065 21.2257 5.28853L21.4916 4.74959L21.7577 5.28838C21.8159 5.4063 21.9019 5.5083 22.0084 5.58557C22.1148 5.66285 22.2384 5.71308 22.3686 5.73195L22.9633 5.81818L22.5331 6.23783ZM17.714 5.42447C17.6177 5.12872 17.3668 4.91727 17.059 4.87258L16.1608 4.74233L15.7589 3.92856C15.6211 3.64973 15.3425 3.47656 15.0315 3.47656H15.0313C14.7203 3.47666 14.4415 3.64998 14.304 3.92897L13.9026 4.74294L13.0043 4.8737C12.6966 4.91854 12.4457 5.13015 12.3497 5.426C12.2536 5.7218 12.3323 6.04045 12.5552 6.25754L13.2053 6.89088L13.0521 7.78549C12.9996 8.0921 13.1233 8.39608 13.375 8.57884C13.5131 8.67979 13.6798 8.73428 13.8509 8.73448C13.9798 8.73448 14.1095 8.70335 14.2293 8.64034L15.0326 8.21773L15.8361 8.63988C16.1115 8.7845 16.4388 8.76079 16.6904 8.57787C16.942 8.39496 17.0656 8.09093 17.0129 7.78437L16.8592 6.88986L17.5091 6.25611C17.7316 6.03887 17.8102 5.72027 17.714 5.42447ZM16.0731 6.23783C15.9789 6.32966 15.9085 6.443 15.8679 6.5681C15.8273 6.69321 15.8177 6.8263 15.84 6.95593L15.9417 7.54814L15.4096 7.26859C15.2932 7.20744 15.1636 7.17551 15.0321 7.17556C14.9006 7.1756 14.7711 7.20762 14.6547 7.26884L14.1229 7.54864L14.2243 6.95638C14.2465 6.82674 14.2369 6.69363 14.1962 6.56853C14.1555 6.44344 14.085 6.33012 13.9908 6.23834L13.5603 5.81899L14.155 5.73241C14.2852 5.71348 14.4088 5.66318 14.5152 5.58585C14.6216 5.50851 14.7076 5.40645 14.7657 5.28848L15.0315 4.74954L15.2976 5.28828C15.3558 5.40623 15.4418 5.50825 15.5483 5.58555C15.6547 5.66284 15.7783 5.71309 15.9085 5.73195L16.5032 5.81818L16.0731 6.23783ZM11.254 5.42447C11.1578 5.12872 10.9068 4.91722 10.599 4.87258L9.70083 4.74233L9.29889 3.92856C9.16117 3.64973 8.88254 3.47656 8.57156 3.47656H8.57135C8.26032 3.47666 7.98158 3.64998 7.84402 3.92897L7.44259 4.74294L6.54438 4.8737C6.23654 4.91854 5.98573 5.1302 5.88966 5.42605C5.79363 5.72185 5.87239 6.0405 6.09517 6.25754L6.74527 6.89088L6.59206 7.78549C6.53955 8.0921 6.66331 8.39608 6.91498 8.57884C7.05313 8.67979 7.21975 8.73428 7.39085 8.73448C7.51983 8.73448 7.64947 8.70335 7.76927 8.64034L8.57257 8.21773L9.37608 8.63988C9.65142 8.7845 9.97875 8.76079 10.2304 8.57787C10.4819 8.39496 10.6055 8.09093 10.5528 7.78437L10.3992 6.88986L11.049 6.25611C11.2717 6.03887 11.3502 5.72027 11.254 5.42447ZM9.61313 6.23783C9.51896 6.32966 9.44854 6.443 9.40793 6.5681C9.36732 6.69321 9.35775 6.8263 9.38004 6.95593L9.48176 7.54814L8.94962 7.26859C8.8332 7.20744 8.70366 7.17551 8.57216 7.17556C8.44066 7.1756 8.31114 7.20762 8.19476 7.26884L7.66293 7.54864L7.76439 6.95623C7.78656 6.8266 7.77689 6.69353 7.7362 6.56847C7.69552 6.44341 7.62504 6.33011 7.53085 6.23834L7.10038 5.81899L7.69502 5.73241C7.82519 5.71348 7.9488 5.66318 8.0552 5.58585C8.1616 5.50851 8.24759 5.40645 8.30577 5.28848L8.57156 4.74954L8.8376 5.28828C8.89582 5.40623 8.98186 5.50825 9.08829 5.58555C9.19473 5.66284 9.31837 5.71309 9.44854 5.73195L10.0433 5.81818L9.61313 6.23783ZM3.57226 23.2173C3.2918 23.2173 3.06445 23.4447 3.06445 23.7251V23.733C3.06445 24.0134 3.2918 24.2408 3.57226 24.2408C3.85273 24.2408 4.08007 24.0134 4.08007 23.733V23.7251C4.08007 23.4447 3.85273 23.2173 3.57226 23.2173Z" fill="#4A148C"/>
</svg>
