<svg width="27" height="27" viewBox="0 0 27 27" fill="none" xmlns="http://www.w3.org/2000/svg">
<g clip-path="url(#clip0_4654_10939)">
<path d="M6.94365 14.1177H8.86128C9.02564 14.1177 9.16013 13.9832 9.16013 13.8189V11.8963C9.16013 11.7319 9.02564 11.5974 8.86128 11.5974H6.94365C6.77928 11.5974 6.6448 11.7319 6.6448 11.8963V13.8189C6.6448 13.9832 6.77928 14.1177 6.94365 14.1177ZM7.2425 12.1951H8.56243V13.52H7.2425V12.1951ZM10.505 14.1177H12.4226C12.5869 14.1177 12.7214 13.9832 12.7214 13.8189V11.8963C12.7214 11.7319 12.5869 11.5974 12.4226 11.5974H10.505C10.3406 11.5974 10.2061 11.7319 10.2061 11.8963V13.8189C10.2061 13.9832 10.3406 14.1177 10.505 14.1177ZM10.8038 12.1951H12.1237V13.52H10.8038V12.1951ZM14.1161 14.1177H16.0337C16.1981 14.1177 16.3325 13.9832 16.3325 13.8189V11.8963C16.3325 11.7319 16.1981 11.5974 16.0337 11.5974H14.1161C13.9517 11.5974 13.8172 11.7319 13.8172 11.8963V13.8189C13.8172 13.9832 13.9517 14.1177 14.1161 14.1177ZM14.4149 12.1951H15.7348V13.52H14.4149V12.1951ZM17.6375 14.1177H19.5551C19.7195 14.1177 19.854 13.9832 19.854 13.8189V11.8963C19.854 11.7319 19.7195 11.5974 19.5551 11.5974H17.6375C17.4732 11.5974 17.3387 11.7319 17.3387 11.8963V13.8189C17.3387 13.9832 17.4732 14.1177 17.6375 14.1177ZM17.9364 12.1951H19.2563V13.52H17.9364V12.1951ZM3.48197 17.7637H5.39959C5.56396 17.7637 5.69844 17.6292 5.69844 17.4648V15.5472C5.69844 15.3829 5.56396 15.2484 5.39959 15.2484H3.48197C3.3176 15.2484 3.18311 15.3829 3.18311 15.5472V17.4648C3.18311 17.6292 3.3176 17.7637 3.48197 17.7637ZM3.78082 15.8461H5.10074V17.166H3.78082V15.8461ZM7.09308 15.2484C6.92871 15.2484 6.79423 15.3829 6.79423 15.5472V17.4648C6.78925 17.6292 6.91875 17.7587 7.08311 17.7637H9.0107C9.17507 17.7637 9.30955 17.6292 9.30955 17.4648V15.5472C9.30955 15.3829 9.17507 15.2484 9.0107 15.2484H7.09308ZM8.71185 17.166H7.39193V15.8461H8.71185V17.166ZM10.6494 15.2484C10.485 15.2484 10.3505 15.3829 10.3505 15.5472V17.4648C10.3505 17.6292 10.485 17.7637 10.6494 17.7637H12.567C12.7314 17.7687 12.8609 17.6392 12.8659 17.4748V15.5472C12.8659 15.3829 12.7314 15.2484 12.567 15.2484H10.6494ZM12.2682 17.166H10.9482V15.8461H12.2682V17.166ZM3.35744 21.4147H5.27507C5.43944 21.4196 5.56894 21.2901 5.57392 21.1258V19.1982C5.57392 19.0338 5.43944 18.8993 5.27507 18.8993H3.35744C3.19308 18.8993 3.05859 19.0338 3.05859 19.1982V21.1158C3.05859 21.2802 3.19308 21.4147 3.35744 21.4147ZM3.65629 19.497H4.97622V20.817H3.65629V19.497ZM8.88618 18.8993H6.96856C6.80419 18.8993 6.6697 19.0338 6.6697 19.1982V21.1158C6.6697 21.2802 6.80419 21.4147 6.96856 21.4147H8.88618C9.05055 21.4147 9.18503 21.2802 9.18503 21.1158V19.1982C9.18503 19.0338 9.05055 18.8993 8.88618 18.8993ZM8.58733 20.817H7.26741V19.497H8.58733V20.817ZM12.4475 18.8993H10.5299C10.3655 18.8993 10.231 19.0338 10.231 19.1982V21.1158C10.231 21.2802 10.3655 21.4147 10.5299 21.4147H12.4475C12.6119 21.4147 12.7463 21.2802 12.7463 21.1158V19.1982C12.7463 19.0338 12.6119 18.8993 12.4475 18.8993ZM12.1486 20.817H10.8287V19.497H12.1486V20.817ZM14.2605 15.2484C14.0961 15.2484 13.9617 15.3829 13.9617 15.5472V17.4648C13.9617 17.6292 14.0961 17.7637 14.2605 17.7637H16.1781C16.3425 17.7637 16.477 17.6292 16.477 17.4648V15.5472C16.477 15.3829 16.3425 15.2484 16.1781 15.2484H14.2605ZM15.8793 17.166H14.5594V15.8461H15.8793V17.166ZM17.782 15.2484C17.6176 15.2484 17.4831 15.3829 17.4831 15.5472V17.4648C17.4831 17.6292 17.6176 17.7637 17.782 17.7637H19.6996C19.864 17.7687 19.9935 17.6392 19.9984 17.4748V15.5472C19.9984 15.3829 19.864 15.2484 19.6996 15.2484H17.782ZM19.4007 17.166H18.0808V15.8461H19.4007V17.166Z" fill="white"/>
<path d="M26.4079 5.66511C26.4527 5.54557 26.4179 5.41109 26.3182 5.33139L20.6102 0.679287C20.5554 0.634459 20.4956 0.614536 20.4259 0.609555L13.0642 0.499977C12.9347 0.494996 12.8202 0.574689 12.7753 0.69423C12.7555 0.75368 12.7539 0.817715 12.7707 0.878081C12.7876 0.938448 12.8222 0.99238 12.87 1.03293L14.6481 2.48235L13.6719 5.15706C13.632 5.26166 13.6569 5.38618 13.7366 5.46588C13.8213 5.56051 13.9159 5.65017 14.0056 5.73982H11.4604V5.15706C11.4604 4.9927 11.3259 4.85821 11.1615 4.85821C10.9972 4.85821 10.8627 4.9927 10.8627 5.15706V5.73982H7.78453V5.16703C7.78951 5.00266 7.66001 4.87316 7.49564 4.86818H7.48568C7.32131 4.86818 7.18683 5.00266 7.18683 5.16703V5.73982H4.25809V5.18197C4.25809 5.0176 4.12361 4.88312 3.95924 4.88312C3.79487 4.88312 3.66039 5.0176 3.66039 5.18197V5.73982H0.572266V22.7245C0.572266 22.8889 0.706748 23.0233 0.871116 23.0233H13.4477C13.7018 25.185 15.6642 26.7291 17.8259 26.4701C19.634 26.2559 21.0585 24.8314 21.2726 23.0233H22.0198C22.1841 23.0233 22.3186 22.8889 22.3186 22.7245V10.1379C22.3386 10.2425 22.4133 10.3272 22.5129 10.362L25.8102 11.5624C25.8401 11.5774 25.8749 11.5824 25.9098 11.5824C25.9795 11.5824 26.0443 11.5574 26.0991 11.5176C26.1788 11.4479 26.2186 11.3483 26.2087 11.2437L25.7355 7.513L26.4079 5.66511ZM13.9159 1.11262L20.3113 1.20726L25.2723 5.2517L23.7681 5.23178L23.0907 5.22182L18.8719 5.15706L15.6044 2.49231L14.8623 1.88465L13.9159 1.11262ZM14.2945 5.18695L15.1363 2.88082L18.578 5.68503C18.6278 5.72986 18.6926 5.74978 18.7623 5.74978L22.9163 5.81454L22.3186 7.45821L22.0696 8.13561C21.955 8.14557 21.8355 8.14557 21.7209 8.15055C20.4508 8.17048 19.1907 7.95132 18.0002 7.513C17.1834 7.21913 16.4064 6.82565 15.6891 6.33752C15.4152 6.14825 15.1512 5.94902 14.8972 5.73982C14.688 5.56051 14.4887 5.37622 14.2945 5.18695ZM14.8374 7.93638C15.0018 7.93638 15.1363 7.80189 15.1363 7.63753V7.33867C15.4251 7.50304 15.5248 7.87162 15.3604 8.16051C15.196 8.4494 14.8274 8.54902 14.5385 8.38465C14.2497 8.22028 14.15 7.8517 14.3144 7.56281C14.3692 7.46818 14.4439 7.39346 14.5385 7.33867V7.63753C14.5385 7.80189 14.673 7.93638 14.8374 7.93638ZM15.1363 6.70113V6.67622L15.1861 6.71607L15.1363 6.70113ZM1.16997 6.33752H3.66039V6.70113C3.02284 6.86549 2.63433 7.51798 2.80368 8.15553C2.97303 8.79308 3.62054 9.18159 4.25809 9.01722C4.89564 8.85285 5.28414 8.20036 5.11479 7.56281C5.00522 7.13944 4.67648 6.8107 4.25809 6.70611V6.34251H7.18683V6.68618C6.5443 6.85055 6.15579 7.50802 6.32514 8.14557C6.48951 8.7881 7.14698 9.17661 7.78453 9.00726C8.42207 8.83791 8.81556 8.18542 8.64621 7.54787C8.53663 7.1245 8.2079 6.79078 7.78453 6.68618V6.34251H10.8627V6.6812C10.2251 6.84557 9.83663 7.49806 10.006 8.13561C10.1753 8.77316 10.8228 9.16166 11.4604 8.99231C12.0979 8.82297 12.4864 8.17546 12.3171 7.53791C12.2075 7.11454 11.8788 6.7858 11.4604 6.6812V6.34251H14.5385V6.70611C13.901 6.87047 13.5125 7.52297 13.6818 8.16051C13.8512 8.79806 14.4987 9.18657 15.1363 9.01722C15.6642 8.88274 16.0328 8.40457 16.0328 7.86166C16.0328 7.57775 15.9332 7.29883 15.7489 7.08465C16.3964 7.48312 17.0838 7.81684 17.796 8.07584C18.9914 8.51415 20.2516 8.74327 21.5267 8.74825H21.7209V9.86894H1.16997V6.33752ZM3.95924 7.93638C4.12361 7.93638 4.25809 7.80189 4.25809 7.63753V7.33867C4.54698 7.50304 4.6466 7.87162 4.48223 8.16051C4.31786 8.4494 3.94928 8.54902 3.66039 8.38465C3.3715 8.22028 3.27188 7.8517 3.43625 7.56281C3.49104 7.46818 3.56575 7.39346 3.66039 7.33867V7.63753C3.66039 7.80189 3.79487 7.93638 3.95924 7.93638ZM7.48568 7.91645C7.65004 7.92143 7.77955 7.79193 7.78453 7.62756V7.32373C8.06843 7.4881 8.16805 7.85668 8.00368 8.14059C7.83932 8.4245 7.47073 8.52411 7.18683 8.35975C6.90292 8.19538 6.8033 7.8268 6.96767 7.54289C7.02246 7.45323 7.09717 7.37852 7.18683 7.32373V7.6176C7.18683 7.78197 7.32131 7.91645 7.48568 7.91645ZM11.1615 7.91147C11.3259 7.91147 11.4604 7.77699 11.4604 7.61262V7.31377C11.7443 7.47814 11.8439 7.84672 11.6795 8.13063C11.5152 8.41454 11.1466 8.51415 10.8627 8.34979C10.5788 8.18542 10.4792 7.81683 10.6435 7.53293C10.6983 7.44327 10.773 7.36856 10.8627 7.31377V7.61262C10.8627 7.77699 10.9972 7.91147 11.1615 7.91147ZM17.3577 25.9023C15.6941 25.8973 14.2845 24.672 14.0504 23.0233C14.0305 22.8689 14.0156 22.7145 14.0156 22.5601C14.0156 22.5153 14.0156 22.4705 14.0205 22.4256C14.0903 20.5827 15.6443 19.1433 17.4872 19.213C19.2305 19.2827 20.6301 20.6774 20.6999 22.4256V22.5601C20.6999 22.7145 20.6899 22.8689 20.67 23.0233C20.4359 24.672 19.0263 25.9023 17.3577 25.9023ZM21.7209 22.4256H21.2976C21.2179 20.249 19.3949 18.5506 17.2182 18.6302C15.1512 18.705 13.4926 20.3636 13.4228 22.4256H1.16997V10.4666H21.7209V22.4256ZM22.4133 9.85898C22.3585 9.90879 22.3236 9.9835 22.3186 10.0582V8.71837C22.4282 8.70343 22.5228 8.62871 22.5627 8.52411L23.5489 5.8245L25.7056 5.85936L25.1726 7.30879L22.4133 9.85898ZM23.1753 9.96856L25.2075 8.09576L25.5512 10.8352L23.1753 9.96856Z" fill="white"/>
<path d="M19.957 22.3013L16.042 20.045C15.9474 19.9902 15.8378 19.9902 15.7432 20.045C15.6485 20.0998 15.5938 20.1994 15.5938 20.304V24.8216C15.5938 24.9262 15.6535 25.0258 15.7432 25.0806C15.788 25.1055 15.8428 25.1205 15.8926 25.1205C15.9474 25.1205 15.9972 25.1055 16.042 25.0806L19.957 22.8193C20.0516 22.7645 20.1064 22.6699 20.1064 22.5603C20.1064 22.4557 20.0516 22.3561 19.957 22.3013ZM16.1915 24.3036V20.817L19.2098 22.5603L16.1915 24.3036Z" fill="white"/>
</g>
<defs>
<clipPath id="clip0_4654_10939">
<rect width="26" height="26" fill="white" transform="translate(0.5 0.5)"/>
</clipPath>
</defs>
</svg>
