<svg width="26" height="26" viewBox="0 0 26 26" fill="none" xmlns="http://www.w3.org/2000/svg">
<path d="M6.37139 13.6187H8.28901C8.45338 13.6187 8.58786 13.4842 8.58786 13.3198V11.3972C8.58786 11.2329 8.45338 11.0984 8.28901 11.0984H6.37139C6.20702 11.0984 6.07254 11.2329 6.07254 11.3972V13.3198C6.07254 13.4842 6.20702 13.6187 6.37139 13.6187ZM6.67024 11.6961H7.99016V13.021H6.67024V11.6961ZM9.93269 13.6187H11.8503C12.0147 13.6187 12.1492 13.4842 12.1492 13.3198V11.3972C12.1492 11.2329 12.0147 11.0984 11.8503 11.0984H9.93269C9.76832 11.0984 9.63384 11.2329 9.63384 11.3972V13.3198C9.63384 13.4842 9.76832 13.6187 9.93269 13.6187ZM10.2315 11.6961H11.5515V13.021H10.2315V11.6961ZM13.5438 13.6187H15.4614C15.6258 13.6187 15.7603 13.4842 15.7603 13.3198V11.3972C15.7603 11.2329 15.6258 11.0984 15.4614 11.0984H13.5438C13.3794 11.0984 13.2449 11.2329 13.2449 11.3972V13.3198C13.2449 13.4842 13.3794 13.6187 13.5438 13.6187ZM13.8427 11.6961H15.1626V13.021H13.8427V11.6961ZM17.0653 13.6187H18.9829C19.1472 13.6187 19.2817 13.4842 19.2817 13.3198V11.3972C19.2817 11.2329 19.1472 11.0984 18.9829 11.0984H17.0653C16.9009 11.0984 16.7664 11.2329 16.7664 11.3972V13.3198C16.7664 13.4842 16.9009 13.6187 17.0653 13.6187ZM17.3641 11.6961H18.684V13.021H17.3641V11.6961ZM2.9097 17.2647H4.82732C4.99169 17.2647 5.12617 17.1302 5.12617 16.9658V15.0482C5.12617 14.8838 4.99169 14.7493 4.82732 14.7493H2.9097C2.74533 14.7493 2.61085 14.8838 2.61085 15.0482V16.9658C2.61085 17.1302 2.74533 17.2647 2.9097 17.2647ZM3.20855 15.347H4.52847V16.667H3.20855V15.347ZM6.52081 14.7493C6.35644 14.7493 6.22196 14.8838 6.22196 15.0482V16.9658C6.21698 17.1302 6.34648 17.2597 6.51085 17.2647H8.43844C8.6028 17.2647 8.73729 17.1302 8.73729 16.9658V15.0482C8.73729 14.8838 8.6028 14.7493 8.43844 14.7493H6.52081ZM8.13958 16.667H6.81966V15.347H8.13958V16.667ZM10.0771 14.7493C9.91277 14.7493 9.77828 14.8838 9.77828 15.0482V16.9658C9.77828 17.1302 9.91277 17.2647 10.0771 17.2647H11.9948C12.1591 17.2697 12.2886 17.1402 12.2936 16.9758V15.0482C12.2936 14.8838 12.1591 14.7493 11.9948 14.7493H10.0771ZM11.6959 16.667H10.376V15.347H11.6959V16.667ZM2.78518 20.9156H4.7028C4.86717 20.9206 4.99667 20.7911 5.00165 20.6267V18.6992C5.00165 18.5348 4.86717 18.4003 4.7028 18.4003H2.78518C2.62081 18.4003 2.48633 18.5348 2.48633 18.6992V20.6168C2.48633 20.7811 2.62081 20.9156 2.78518 20.9156ZM3.08403 18.998H4.40395V20.3179H3.08403V18.998ZM8.31391 18.4003H6.39629C6.23192 18.4003 6.09744 18.5348 6.09744 18.6992V20.6168C6.09744 20.7811 6.23192 20.9156 6.39629 20.9156H8.31391C8.47828 20.9156 8.61276 20.7811 8.61276 20.6168V18.6992C8.61276 18.5348 8.47828 18.4003 8.31391 18.4003ZM8.01506 20.3179H6.69514V18.998H8.01506V20.3179ZM11.8752 18.4003H9.95759C9.79322 18.4003 9.65874 18.5348 9.65874 18.6992V20.6168C9.65874 20.7811 9.79322 20.9156 9.95759 20.9156H11.8752C12.0396 20.9156 12.1741 20.7811 12.1741 20.6168V18.6992C12.1741 18.5348 12.0396 18.4003 11.8752 18.4003ZM11.5764 20.3179H10.2564V18.998H11.5764V20.3179ZM13.6882 14.7493C13.5239 14.7493 13.3894 14.8838 13.3894 15.0482V16.9658C13.3894 17.1302 13.5239 17.2647 13.6882 17.2647H15.6059C15.7702 17.2647 15.9047 17.1302 15.9047 16.9658V15.0482C15.9047 14.8838 15.7702 14.7493 15.6059 14.7493H13.6882ZM15.307 16.667H13.9871V15.347H15.307V16.667ZM17.2097 14.7493C17.0453 14.7493 16.9109 14.8838 16.9109 15.0482V16.9658C16.9109 17.1302 17.0453 17.2647 17.2097 17.2647H19.1273C19.2917 17.2697 19.4212 17.1402 19.4262 16.9758V15.0482C19.4262 14.8838 19.2917 14.7493 19.1273 14.7493H17.2097ZM18.8285 16.667H17.5086V15.347H18.8285V16.667Z" fill="#4A148C"/>
<path d="M25.8356 5.16609C25.8805 5.04655 25.8456 4.91206 25.746 4.83237L20.0379 0.180264C19.9831 0.135436 19.9234 0.115513 19.8536 0.110532L12.492 0.000953319C12.3625 -0.00402752 12.2479 0.075666 12.2031 0.195206C12.1832 0.254657 12.1816 0.318691 12.1985 0.379058C12.2153 0.439424 12.2499 0.493356 12.2977 0.533903L14.0759 1.98333L13.0996 4.65804C13.0598 4.76264 13.0847 4.88716 13.1644 4.96685C13.249 5.06149 13.3437 5.15114 13.4333 5.2408H10.8881V4.65804C10.8881 4.49367 10.7536 4.35919 10.5893 4.35919C10.4249 4.35919 10.2904 4.49367 10.2904 4.65804V5.2408H7.21226V4.668C7.21724 4.50363 7.08774 4.37413 6.92337 4.36915H6.91341C6.74904 4.36915 6.61456 4.50363 6.61456 4.668V5.2408H3.68582V4.68295C3.68582 4.51858 3.55134 4.38409 3.38697 4.38409C3.22261 4.38409 3.08812 4.51858 3.08812 4.68295V5.2408H0V22.2255C0 22.3898 0.134483 22.5243 0.298851 22.5243H12.8755C13.1295 24.686 15.092 26.2301 17.2536 25.9711C19.0617 25.7569 20.4862 24.3324 20.7004 22.5243H21.4475C21.6119 22.5243 21.7464 22.3898 21.7464 22.2255V9.63888C21.7663 9.74348 21.841 9.82816 21.9406 9.86302L25.2379 11.0634C25.2678 11.0783 25.3027 11.0833 25.3375 11.0833C25.4073 11.0833 25.472 11.0584 25.5268 11.0186C25.6065 10.9488 25.6464 10.8492 25.6364 10.7446L25.1632 7.01398L25.8356 5.16609ZM13.3437 0.613597L19.7391 0.708233L24.7 4.75268L23.1958 4.73275L22.5184 4.72279L18.2996 4.65804L15.0322 1.99329L14.29 1.38563L13.3437 0.613597ZM13.7222 4.68793L14.564 2.3818L18.0057 5.18601C18.0556 5.23084 18.1203 5.25076 18.19 5.25076L22.3441 5.31551L21.7464 6.95919L21.4973 7.63659C21.3828 7.64655 21.2632 7.64655 21.1487 7.65153C19.8785 7.67145 18.6184 7.45229 17.428 7.01398C16.6111 6.72011 15.8341 6.32662 15.1169 5.8385C14.8429 5.64923 14.5789 5.45 14.3249 5.2408C14.1157 5.06149 13.9165 4.8772 13.7222 4.68793ZM14.2651 7.43735C14.4295 7.43735 14.564 7.30287 14.564 7.1385V6.83965C14.8529 7.00402 14.9525 7.3726 14.7881 7.66149C14.6238 7.95038 14.2552 8.05 13.9663 7.88563C13.6774 7.72126 13.5778 7.35268 13.7421 7.06379C13.7969 6.96915 13.8716 6.89444 13.9663 6.83965V7.1385C13.9663 7.30287 14.1008 7.43735 14.2651 7.43735ZM14.564 6.2021V6.1772L14.6138 6.21705L14.564 6.2021ZM0.597701 5.8385H3.08812V6.2021C2.45057 6.36647 2.06207 7.01896 2.23142 7.65651C2.40077 8.29406 3.04828 8.68256 3.68582 8.5182C4.32337 8.35383 4.71188 7.70134 4.54253 7.06379C4.43295 6.64042 4.10421 6.31168 3.68582 6.20708V5.84348H6.61456V6.18716C5.97203 6.35153 5.58353 7.009 5.75287 7.64655C5.91724 8.28908 6.57471 8.67758 7.21226 8.50823C7.84981 8.33888 8.2433 7.68639 8.07395 7.04885C7.96437 6.62547 7.63563 6.29176 7.21226 6.18716V5.84348H10.2904V6.18218C9.65287 6.34655 9.26437 6.99904 9.43372 7.63659C9.60307 8.27413 10.2506 8.66264 10.8881 8.49329C11.5257 8.32394 11.9142 7.67643 11.7448 7.03888C11.6353 6.61551 11.3065 6.28678 10.8881 6.18218V5.84348H13.9663V6.20708C13.3287 6.37145 12.9402 7.02394 13.1096 7.66149C13.2789 8.29904 13.9264 8.68754 14.564 8.5182C15.092 8.38371 15.4605 7.90555 15.4605 7.36264C15.4605 7.07873 15.3609 6.7998 15.1766 6.58563C15.8241 6.9841 16.5115 7.31781 17.2238 7.57682C18.4192 8.01513 19.6793 8.24425 20.9544 8.24923H21.1487V9.36992H0.597701V5.8385ZM3.38697 7.43735C3.55134 7.43735 3.68582 7.30287 3.68582 7.1385V6.83965C3.97471 7.00402 4.07433 7.3726 3.90996 7.66149C3.74559 7.95038 3.37701 8.05 3.08812 7.88563C2.79923 7.72126 2.69962 7.35268 2.86398 7.06379C2.91877 6.96915 2.99349 6.89444 3.08812 6.83965V7.1385C3.08812 7.30287 3.22261 7.43735 3.38697 7.43735ZM6.91341 7.41743C7.07778 7.42241 7.20728 7.29291 7.21226 7.12854V6.82471C7.49617 6.98908 7.59579 7.35766 7.43142 7.64157C7.26705 7.92547 6.89847 8.02509 6.61456 7.86072C6.33065 7.69636 6.23103 7.32777 6.3954 7.04386C6.45019 6.95421 6.5249 6.8795 6.61456 6.82471V7.11858C6.61456 7.28295 6.74904 7.41743 6.91341 7.41743ZM10.5893 7.41245C10.7536 7.41245 10.8881 7.27797 10.8881 7.1136V6.81475C11.172 6.97911 11.2716 7.3477 11.1073 7.6316C10.9429 7.91551 10.5743 8.01513 10.2904 7.85076C10.0065 7.68639 9.9069 7.31781 10.0713 7.0339C10.1261 6.94425 10.2008 6.86954 10.2904 6.81475V7.1136C10.2904 7.27797 10.4249 7.41245 10.5893 7.41245ZM16.7854 25.4033C15.1218 25.3983 13.7123 24.173 13.4782 22.5243C13.4582 22.3699 13.4433 22.2155 13.4433 22.0611C13.4433 22.0163 13.4433 21.9715 13.4483 21.9266C13.518 20.0837 15.072 18.6442 16.9149 18.714C18.6582 18.7837 20.0579 20.1783 20.1276 21.9266V22.0611C20.1276 22.2155 20.1176 22.3699 20.0977 22.5243C19.8636 24.173 18.454 25.4033 16.7854 25.4033ZM21.1487 21.9266H20.7253C20.6456 19.75 18.8226 18.0515 16.646 18.1312C14.5789 18.2059 12.9203 19.8646 12.8506 21.9266H0.597701V9.96762H21.1487V21.9266ZM21.841 9.35996C21.7862 9.40977 21.7513 9.48448 21.7464 9.55919V8.21934C21.8559 8.2044 21.9506 8.12969 21.9904 8.02509L22.9766 5.32547L25.1333 5.36034L24.6004 6.80977L21.841 9.35996ZM22.6031 9.46954L24.6353 7.59674L24.9789 10.3362L22.6031 9.46954Z" fill="#4A148C"/>
<path d="M19.3847 21.8022L15.4698 19.5459C15.3751 19.4911 15.2655 19.4911 15.1709 19.5459C15.0763 19.6006 15.0215 19.7003 15.0215 19.8049V24.3225C15.0215 24.4271 15.0813 24.5267 15.1709 24.5815C15.2157 24.6064 15.2705 24.6213 15.3203 24.6213C15.3751 24.6213 15.4249 24.6064 15.4698 24.5815L19.3847 22.3202C19.4793 22.2654 19.5341 22.1708 19.5341 22.0612C19.5341 21.9566 19.4793 21.857 19.3847 21.8022ZM15.6192 23.8045V20.3179L18.6376 22.0612L15.6192 23.8045Z" fill="#4A148C"/>
</svg>
