<svg width="121" height="28" viewBox="0 0 121 28" fill="none" xmlns="http://www.w3.org/2000/svg">
<path d="M13.4928 0.203857L16.5221 9.71081H26.3252L18.3944 15.5864L21.4237 25.0934L13.4928 19.2178L5.56193 25.0934L8.59126 15.5864L0.660385 9.71081H10.4635L13.4928 0.203857Z" fill="#FFD700"/>
<path d="M36.9967 0.203857L40.026 9.71081H49.8291L41.8983 15.5864L44.9276 25.0934L36.9967 19.2178L29.0658 25.0934L32.0952 15.5864L24.1643 9.71081H33.9674L36.9967 0.203857Z" fill="#FFD700"/>
<path d="M60.4996 0.203857L63.529 9.71081H73.3321L65.4012 15.5864L68.4305 25.0934L60.4996 19.2178L52.5688 25.0934L55.5981 15.5864L47.6672 9.71081H57.4703L60.4996 0.203857Z" fill="#FFD700"/>
<path d="M84.0035 0.203857L87.0329 9.71081H96.836L88.9051 15.5864L91.9344 25.0934L84.0035 19.2178L76.0727 25.0934L79.102 15.5864L71.1711 9.71081H80.9742L84.0035 0.203857Z" fill="#FFD700"/>
<path d="M107.507 0.203857L110.537 9.71081H120.34L112.409 15.5864L115.438 25.0934L107.507 19.2178L99.5766 25.0934L102.606 15.5864L94.675 9.71081H104.478L107.507 0.203857Z" fill="#FFD700"/>
</svg>
