<svg width="81" height="87" viewBox="0 0 81 87" fill="none" xmlns="http://www.w3.org/2000/svg">
<path d="M40.4998 82.3878C60.6306 82.3878 76.9498 65.1163 76.9498 43.8109C76.9498 22.5054 60.6306 5.23389 40.4998 5.23389C20.369 5.23389 4.0498 22.5054 4.0498 43.8109C4.0498 65.1163 20.369 82.3878 40.4998 82.3878Z" stroke="#4A148C" stroke-width="5" stroke-linecap="round" stroke-linejoin="round"/>
<path fill-rule="evenodd" clip-rule="evenodd" d="M32.392 28.4977L54.6355 41.95C55.6065 42.5372 55.9438 43.8464 55.389 44.8741C55.2096 45.2063 54.9494 45.4817 54.6355 45.6716L32.392 59.1238C31.421 59.7111 30.184 59.354 29.6291 58.3263C29.4543 58.0025 29.3623 57.636 29.3623 57.263V30.3585C29.3623 29.1749 30.2689 28.2153 31.3873 28.2153C31.7397 28.2153 32.086 28.3127 32.392 28.4977Z" fill="#4A148C"/>
</svg>
