<svg width="27" height="28" viewBox="0 0 27 28" fill="none" xmlns="http://www.w3.org/2000/svg">
<path d="M14.0285 27.0001H1.89505C1.12459 27.0001 0.5 26.4146 0.5 25.6923V4.7472C0.5 4.02496 1.12459 3.43945 1.89505 3.43945H4.77757M19.5669 13.3189V15.5736M15.2893 3.43945H18.1718C18.9423 3.43945 19.5669 4.02496 19.5669 4.7472V11.4881" stroke="#08A935" stroke-width="0.7" stroke-miterlimit="10" stroke-linecap="round" stroke-linejoin="round"/>
<path d="M12.5797 25.3734H2.51436C2.44036 25.3734 2.3694 25.3459 2.31707 25.2968C2.26475 25.2478 2.23535 25.1812 2.23535 25.1119V5.32405C2.23535 5.25468 2.26475 5.18816 2.31707 5.13911C2.3694 5.09006 2.44036 5.0625 2.51436 5.0625H4.77959M15.2913 5.0625H17.5565C17.6305 5.0625 17.7015 5.09006 17.7538 5.13911C17.8061 5.18816 17.8355 5.25468 17.8355 5.32405V15.6241" stroke="#08A935" stroke-width="0.7" stroke-miterlimit="10" stroke-linecap="round" stroke-linejoin="round"/>
<path d="M8.55223 6.65928H14.3964C14.8587 6.65928 15.2334 6.30797 15.2334 5.87464V2.88639C15.2334 2.81703 15.204 2.7505 15.1517 2.70145C15.0994 2.6524 15.0284 2.62484 14.9544 2.62484H11.7667C11.7667 1.72747 10.9907 1 10.0334 1C9.07611 1 8.30001 1.72747 8.30001 2.62484H5.11231C5.03832 2.62484 4.96735 2.6524 4.91502 2.70145C4.8627 2.7505 4.8333 2.81703 4.8333 2.88639V5.87459C4.8333 6.30792 5.20807 6.65923 5.67034 6.65923H6.59916M5.67028 9.17664V25.3731M2.28906 9.12433H17.7776M2.28906 12.3741H17.7776M2.28906 15.6238H17.8334M2.28906 18.8736H12.5776M2.28906 22.1233H12.5776M12.6334 18.0611V25.6902C12.6334 26.4124 13.258 26.9979 14.0284 26.9979H25.1051C25.8756 26.9979 26.5002 26.4124 26.5002 25.6902V18.0611M16.5789 18.0611H26.5001V16.9316C26.5001 16.2093 25.8755 15.6238 25.1051 15.6238H14.0284C13.2579 15.6238 12.6333 16.2093 12.6333 16.9316V18.0611H14.6258M17.8334 16.4363V14.8114M21.3001 16.4363V14.8114M14.3667 16.4363V14.8114M24.7668 16.4363V14.8114" stroke="#08A935" stroke-width="0.7" stroke-miterlimit="10" stroke-linecap="round" stroke-linejoin="round"/>
<path d="M16.9672 19.6895V24.564M19.5673 19.6895V24.564M22.1673 19.6895V24.564M14.3672 22.1267H24.7673M14.3672 19.951V24.3025C14.3672 24.3719 14.3966 24.4384 14.4489 24.4875C14.5012 24.5365 14.5722 24.5641 14.6462 24.5641H24.4883C24.5623 24.5641 24.6333 24.5365 24.6856 24.4875C24.7379 24.4384 24.7673 24.3719 24.7673 24.3025V19.951C24.7673 19.8816 24.7379 19.8151 24.6856 19.7661C24.6333 19.717 24.5623 19.6895 24.4883 19.6895H14.6462C14.5722 19.6895 14.5012 19.717 14.4489 19.7661C14.3966 19.8151 14.3672 19.8816 14.3672 19.951Z" stroke="#08A935" stroke-width="0.7" stroke-miterlimit="10" stroke-linecap="round" stroke-linejoin="round"/>
</svg>
