<svg width="20" height="20" viewBox="0 0 20 20" fill="none" xmlns="http://www.w3.org/2000/svg">
<path d="M15.5051 7.92309L15.9763 8.46172C16.3037 8.83555 16.9198 8.60412 16.9198 8.10729V7.20098H17.1549C18.1286 7.20098 18.9181 6.41144 18.9181 5.43766V3.14839C18.9181 2.17461 18.1286 1.38507 17.1549 1.38507H12.5679C11.5942 1.38507 10.8047 2.17461 10.8047 3.14839V5.00577" stroke="#7A7A7A" stroke-miterlimit="10" stroke-linecap="round" stroke-linejoin="round"/>
<path d="M4.02996 9.35115H3.24907C2.00717 9.35115 1 10.3584 1 11.6006V14.5216C1 15.7638 2.00717 16.771 3.24907 16.771H3.54971V17.9275C3.54971 18.5613 4.3356 18.8564 4.75286 18.3794L6.161 16.771H7.46229" stroke="#7A7A7A" stroke-miterlimit="10" stroke-linecap="round" stroke-linejoin="round"/>
<path d="M8.5332 16.7715H9.10113C10.1898 16.7715 11.0981 15.9979 11.3061 14.9711" stroke="#7A7A7A" stroke-miterlimit="10" stroke-linecap="round" stroke-linejoin="round"/>
<path d="M15.5047 10.7655H17.555C18.3531 10.7655 19.0003 11.4126 19.0003 12.2111V14.088C19.0003 14.8862 18.3531 15.5333 17.555 15.5333H15.6652L14.7606 16.5673C14.4924 16.8737 13.9873 16.6841 13.9873 16.2767V15.5333H13.7944C13.289 15.5333 12.8441 15.2737 12.5859 14.8808" stroke="#7A7A7A" stroke-miterlimit="10" stroke-linecap="round" stroke-linejoin="round"/>
<path d="M14.1212 5.26553C14.9415 5.6737 15.5051 6.52046 15.5051 7.4987V10.7369C15.5051 10.7467 15.5051 10.7561 15.5047 10.7659C15.4895 12.1298 14.3787 13.2308 13.0115 13.2308H12.6783V14.5126C12.6783 14.6517 12.6442 14.7755 12.5859 14.8813C12.3505 15.3112 11.716 15.4387 11.3444 15.0138L11.3067 14.9711L9.78375 13.2308H6.52381C5.1465 13.2308 4.03027 12.1143 4.03027 10.7369V7.4987C4.03027 6.92936 4.2211 6.40421 4.54271 5.98408" stroke="#7A7A7A" stroke-miterlimit="10" stroke-linecap="round" stroke-linejoin="round"/>
<path d="M7.76465 5.006H13.0115C13.0415 5.006 13.0716 5.00636 13.1013 5.00781" stroke="#7A7A7A" stroke-miterlimit="10" stroke-linecap="round" stroke-linejoin="round"/>
<path d="M6.43338 1.38398H2.80558C2.03545 1.38398 1.41113 2.0083 1.41113 2.77843V4.58916C1.41113 5.35929 2.03545 5.98361 2.80558 5.98361H4.62859L5.50125 6.98075C5.76006 7.27654 6.24722 7.09346 6.24722 6.70042V5.98361H6.43338C7.20351 5.98361 7.82783 5.35929 7.82783 4.58916V2.77843C7.82783 2.0083 7.20351 1.38398 6.43338 1.38398Z" stroke="#7A7A7A" stroke-miterlimit="10" stroke-linecap="round" stroke-linejoin="round"/>
<path d="M7.64746 10.7227L8.77202 7.77006C8.79501 7.71389 8.87451 7.71378 8.89762 7.76991L10.0119 10.7227" stroke="#7A7A7A" stroke-miterlimit="10" stroke-linecap="round" stroke-linejoin="round"/>
<path d="M7.99805 9.98633H9.66673" stroke="#7A7A7A" stroke-miterlimit="10" stroke-linecap="round" stroke-linejoin="round"/>
<path d="M7.09457 7.76544H5.88965V10.7383" stroke="#7A7A7A" stroke-miterlimit="10" stroke-linecap="round" stroke-linejoin="round"/>
<path d="M5.88965 9.22461H6.99885" stroke="#7A7A7A" stroke-miterlimit="10" stroke-linecap="round" stroke-linejoin="round"/>
<path d="M12.6865 9.78022L13.6445 10.7383" stroke="#7A7A7A" stroke-miterlimit="10" stroke-linecap="round" stroke-linejoin="round"/>
<path d="M13.6325 9.25262C13.6325 10.0796 12.9621 10.75 12.1351 10.75C11.3081 10.75 10.6377 10.0796 10.6377 9.25262C10.6377 8.42563 11.3081 7.75521 12.1351 7.75521C12.9621 7.75521 13.6325 8.42563 13.6325 9.25262Z" stroke="#7A7A7A" stroke-miterlimit="10" stroke-linecap="round" stroke-linejoin="round"/>
</svg>
