<svg width="18" height="18" viewBox="0 0 18 18" fill="none" xmlns="http://www.w3.org/2000/svg">
<path fill-rule="evenodd" clip-rule="evenodd" d="M4.94046 4.08247V1.67635C4.94049 1.60007 4.9708 1.52692 5.02474 1.47299C5.07868 1.41906 5.15183 1.38875 5.22811 1.38873H17.1439C17.2203 1.38873 17.2934 1.41905 17.3472 1.47305C17.3739 1.49972 17.3952 1.5314 17.4096 1.56629C17.4241 1.60118 17.4315 1.63858 17.4315 1.67635V10.7734C17.4315 10.8497 17.4012 10.9229 17.3472 10.9767C17.3205 11.0034 17.2888 11.0246 17.254 11.0391C17.2191 11.0536 17.1817 11.061 17.1439 11.061H11.198C11.0411 11.061 10.9138 11.1883 10.9138 11.3452C10.9138 11.5021 11.0412 11.6294 11.198 11.6294H17.1439C17.3709 11.6293 17.5887 11.5392 17.7493 11.3787C17.9097 11.2181 17.9999 11.0004 17.9999 10.7733V1.67635C17.9999 1.44931 17.9097 1.23158 17.7493 1.07098C17.5887 0.910507 17.3709 0.820348 17.1439 0.820312H5.22811C5.00107 0.820325 4.78332 0.910488 4.62274 1.07098C4.46226 1.23158 4.37211 1.44931 4.37207 1.67635V4.08247C4.37207 4.23934 4.4994 4.36667 4.65627 4.36667C4.81314 4.36667 4.94046 4.23937 4.94046 4.08247ZM11.0527 12.8574V16.8956C11.0527 17.0525 11.1802 17.1798 11.3369 17.1798C11.4938 17.1798 11.6211 17.0525 11.6211 16.8956V12.8574C11.6211 12.7005 11.4938 12.5732 11.3369 12.5732C11.1802 12.5732 11.0527 12.7005 11.0527 12.8574Z" fill="#666666"/>
<path fill-rule="evenodd" clip-rule="evenodd" d="M17.7158 9.4001H14.5224C14.1548 9.4001 13.8569 9.69793 13.8569 10.0655V11.3445C13.8569 11.5014 13.9843 11.6287 14.1411 11.6287C14.298 11.6287 14.4253 11.5013 14.4253 11.3445V10.0655C14.4253 10.0528 14.4278 10.0402 14.4327 10.0284C14.4376 10.0166 14.4447 10.0059 14.4537 9.99691C14.4627 9.9879 14.4734 9.98076 14.4852 9.97588C14.497 9.97101 14.5096 9.96851 14.5223 9.96852H17.7157C17.8726 9.96852 17.9999 9.84119 17.9999 9.68432C17.9999 9.52745 17.8727 9.4001 17.7158 9.4001ZM6.63572 3.30472H10.5601C10.7168 3.30472 10.8443 3.17739 10.8443 3.02052C10.8443 2.86362 10.7168 2.73633 10.5601 2.73633H6.63572C6.47885 2.73633 6.35152 2.86365 6.35152 3.02052C6.35149 3.17739 6.47882 3.30472 6.63572 3.30472ZM6.63572 4.77334H16.0383C16.1952 4.77334 16.3225 4.64601 16.3225 4.48915C16.3225 4.33245 16.1952 4.20495 16.0383 4.20495H6.63572C6.47885 4.20495 6.35152 4.33245 6.35152 4.48915C6.35149 4.64601 6.47882 4.77334 6.63572 4.77334ZM8.35575 6.24214H10.2103C10.3672 6.24214 10.4945 6.11482 10.4945 5.95795C10.4945 5.80105 10.3672 5.67375 10.2103 5.67375H8.35575C8.19906 5.67375 8.07156 5.80108 8.07156 5.95795C8.07156 6.11482 8.19906 6.24214 8.35575 6.24214ZM12.9097 8.24848H15.8432C16.0001 8.24848 16.1274 8.12116 16.1274 7.96429C16.1274 7.80759 16.0001 7.68009 15.8432 7.68009H12.9097C12.7528 7.68009 12.6256 7.80759 12.6256 7.96429C12.6256 8.12116 12.7529 8.24848 12.9097 8.24848ZM13.6118 6.24214H15.9929C16.1498 6.24214 16.2771 6.11482 16.2771 5.95795C16.2771 5.80105 16.1498 5.67375 15.9929 5.67375H13.6118C13.4551 5.67375 13.3276 5.80108 13.3276 5.95795C13.3275 6.11482 13.4551 6.24214 13.6118 6.24214ZM4.53349 4.69318C3.09064 4.69318 1.91932 5.8645 1.91932 7.30735C1.91932 8.75021 3.09064 9.92153 4.53349 9.92153C5.97614 9.92153 7.14767 8.75021 7.14767 7.30735C7.14767 5.8645 5.97617 4.69318 4.53349 4.69318ZM4.53349 5.2616C5.66258 5.2616 6.57925 6.17827 6.57925 7.30735C6.57925 8.43644 5.66258 9.35311 4.53349 9.35311C3.40441 9.35311 2.48774 8.43644 2.48774 7.30735C2.48774 6.17827 3.40444 5.2616 4.53349 5.2616ZM9.2855 9.68697L8.22236 10.7069C8.16878 10.7583 8.09743 10.7869 8.02323 10.7869H3.10241C1.84469 10.7869 0.770562 11.6946 0.560818 12.9349C0.371731 14.0524 0.144927 15.3939 0.0119243 16.1804C-0.00876965 16.3031 -0.00247255 16.4289 0.0303774 16.549C0.0632274 16.669 0.121841 16.7805 0.202141 16.8756C0.282505 16.9707 0.382642 17.0471 0.495572 17.0995C0.608501 17.152 0.731506 17.1791 0.856011 17.1791H6.12338C6.59631 17.1791 6.97962 16.7958 6.97962 16.3231V13.6335C6.97962 13.6077 6.98967 13.5831 7.00786 13.5649C7.02613 13.5467 7.05086 13.5365 7.07663 13.5365H8.33929C8.92014 13.5365 9.47852 13.312 9.8977 12.9099C10.2749 12.548 10.7744 12.069 11.189 11.6711C11.3193 11.5462 11.4237 11.3968 11.4962 11.2315C11.5687 11.0661 11.608 10.8881 11.6117 10.7077C11.6155 10.5252 11.5829 10.3439 11.5159 10.1742C11.4489 10.0045 11.3488 9.8498 11.2214 9.71918C10.9695 9.46096 10.6263 9.312 10.2657 9.30442C9.90117 9.29692 9.54858 9.43452 9.2855 9.68697ZM8.6159 11.1169L9.67904 10.097C9.75543 10.0237 9.84553 9.96615 9.94417 9.92769C10.0428 9.88923 10.1481 9.87058 10.2539 9.87281C10.4654 9.87715 10.6667 9.96446 10.8144 10.1159C10.8159 10.1176 10.8221 10.124 10.8236 10.1257C10.9697 10.2804 11.0486 10.4865 11.0433 10.6991C11.038 10.9118 10.9489 11.1137 10.7954 11.2609C10.3808 11.6588 9.88138 12.1378 9.50413 12.4997C9.1908 12.8003 8.77341 12.9681 8.33923 12.9681H7.07657C6.98919 12.9681 6.90266 12.9853 6.82192 13.0187C6.74119 13.0522 6.66783 13.1012 6.60604 13.163C6.54425 13.2247 6.49524 13.2981 6.46179 13.3788C6.42835 13.4596 6.41114 13.5461 6.41114 13.6335V16.3231C6.41096 16.4818 6.2823 16.6107 6.12353 16.6107H0.855981C0.814164 16.6107 0.772848 16.6016 0.734918 16.584C0.696988 16.5663 0.663356 16.5407 0.63637 16.5087C0.609369 16.4768 0.589652 16.4393 0.578591 16.399C0.56753 16.3586 0.56539 16.3164 0.572321 16.2751L1.12121 13.0296C1.28474 12.063 2.12202 11.3553 3.10235 11.3553H8.02317C8.24409 11.3552 8.45646 11.2698 8.6159 11.1169Z" fill="#666666"/>
<path fill-rule="evenodd" clip-rule="evenodd" d="M2.55276 16.9432L3.04976 14.0035C3.07591 13.8489 2.97168 13.702 2.81689 13.6759C2.66228 13.6497 2.51543 13.7541 2.4893 13.9088L1.9923 16.8484C1.96615 17.003 2.07035 17.1499 2.22517 17.176C2.37978 17.2022 2.52663 17.0978 2.55276 16.9432Z" fill="#666666"/>
<path fill-rule="evenodd" clip-rule="evenodd" d="M2.56548 15.4456H4.27529C4.28803 15.4456 4.30065 15.4481 4.31242 15.453C4.32419 15.4579 4.33489 15.465 4.3439 15.474C4.35291 15.483 4.36006 15.4937 4.36493 15.5055C4.3698 15.5173 4.3723 15.5299 4.3723 15.5427V16.8951C4.3723 17.052 4.49962 17.1793 4.65649 17.1793C4.81339 17.1793 4.94069 17.052 4.94069 16.8951V15.5427C4.94069 15.1751 4.64264 14.8772 4.27526 14.8772H2.56545C2.40858 14.8772 2.28125 15.0045 2.28125 15.1614C2.28125 15.3183 2.40858 15.4456 2.56548 15.4456ZM10.8309 9.7241L12.0081 6.04471C12.0558 5.89522 11.9734 5.73532 11.8239 5.68737C11.6746 5.63964 11.5145 5.72206 11.4665 5.87156L10.2895 9.55094C10.2418 9.70023 10.3242 9.86034 10.4735 9.90828C10.623 9.95602 10.7831 9.87339 10.8309 9.7241Z" fill="#666666"/>
</svg>
