<svg width="16" height="18" viewBox="0 0 16 18" fill="none" xmlns="http://www.w3.org/2000/svg">
<path d="M3.78125 4.21875H9.96875C10.0433 4.21875 10.1149 4.18912 10.1676 4.13637C10.2204 4.08363 10.25 4.01209 10.25 3.9375C10.25 3.86291 10.2204 3.79137 10.1676 3.73863C10.1149 3.68588 10.0433 3.65625 9.96875 3.65625H3.78125C3.70666 3.65625 3.63512 3.68588 3.58238 3.73863C3.52963 3.79137 3.5 3.86291 3.5 3.9375C3.5 4.01209 3.52963 4.08363 3.58238 4.13637C3.63512 4.18912 3.70666 4.21875 3.78125 4.21875ZM3.78125 5.90625H9.96875C10.0433 5.90625 10.1149 5.87662 10.1676 5.82387C10.2204 5.77113 10.25 5.69959 10.25 5.625C10.25 5.55041 10.2204 5.47887 10.1676 5.42613C10.1149 5.37338 10.0433 5.34375 9.96875 5.34375H3.78125C3.70666 5.34375 3.63512 5.37338 3.58238 5.42613C3.52963 5.47887 3.5 5.55041 3.5 5.625C3.5 5.69959 3.52963 5.77113 3.58238 5.82387C3.63512 5.87662 3.70666 5.90625 3.78125 5.90625ZM3.78125 7.59375H9.96875C10.0433 7.59375 10.1149 7.56412 10.1676 7.51137C10.2204 7.45863 10.25 7.38709 10.25 7.3125C10.25 7.23791 10.2204 7.16637 10.1676 7.11363C10.1149 7.06088 10.0433 7.03125 9.96875 7.03125H3.78125C3.70666 7.03125 3.63512 7.06088 3.58238 7.11363C3.52963 7.16637 3.5 7.23791 3.5 7.3125C3.5 7.38709 3.52963 7.45863 3.58238 7.51137C3.63512 7.56412 3.70666 7.59375 3.78125 7.59375ZM3.78125 9.28125H9.96875C10.0433 9.28125 10.1149 9.25162 10.1676 9.19887C10.2204 9.14613 10.25 9.07459 10.25 9C10.25 8.92541 10.2204 8.85387 10.1676 8.80113C10.1149 8.74838 10.0433 8.71875 9.96875 8.71875H3.78125C3.70666 8.71875 3.63512 8.74838 3.58238 8.80113C3.52963 8.85387 3.5 8.92541 3.5 9C3.5 9.07459 3.52963 9.14613 3.58238 9.19887C3.63512 9.25162 3.70666 9.28125 3.78125 9.28125ZM3.78125 10.9688H6.03125C6.10584 10.9688 6.17738 10.9391 6.23012 10.8864C6.28287 10.8336 6.3125 10.7621 6.3125 10.6875C6.3125 10.6129 6.28287 10.5414 6.23012 10.4886C6.17738 10.4359 6.10584 10.4062 6.03125 10.4062H3.78125C3.70666 10.4062 3.63512 10.4359 3.58238 10.4886C3.52963 10.5414 3.5 10.6129 3.5 10.6875C3.5 10.7621 3.52963 10.8336 3.58238 10.8864C3.63512 10.9391 3.70666 10.9688 3.78125 10.9688Z" fill="#7A7A7A"/>
<path d="M14.8957 7.20756C14.7026 7.09464 14.4725 7.06295 14.2561 7.11944C14.0396 7.17593 13.8544 7.31599 13.7411 7.50888L13.0629 8.66602V1.6875C13.0629 1.61291 13.0333 1.54137 12.9806 1.48863C12.9278 1.43588 12.8563 1.40625 12.7817 1.40625H10.6482C10.6482 1.40625 9.8031 0.545625 9.76928 0.574594C9.7429 0.566586 9.71549 0.562511 9.68793 0.5625H1.53168C1.45708 0.5625 1.38555 0.592132 1.3328 0.644876C1.28006 0.697621 1.25043 0.769158 1.25043 0.84375V1.72311C1.00884 1.78539 0.79481 1.9262 0.641994 2.12341C0.489179 2.32061 0.40625 2.56302 0.40625 2.8125C0.40625 3.06198 0.489179 3.30439 0.641994 3.50159C0.79481 3.6988 1.00884 3.83961 1.25043 3.90189V4.53561C1.00884 4.59789 0.79481 4.7387 0.641994 4.93591C0.489179 5.13311 0.40625 5.37552 0.40625 5.625C0.40625 5.87448 0.489179 6.11689 0.641994 6.31409C0.79481 6.5113 1.00884 6.65211 1.25043 6.71439V7.34811C1.00884 7.41039 0.79481 7.5512 0.641994 7.74841C0.489179 7.94561 0.40625 8.18802 0.40625 8.4375C0.40625 8.68698 0.489179 8.92939 0.641994 9.12659C0.79481 9.3238 1.00884 9.46461 1.25043 9.52689V9.87936C1.00884 9.94164 0.79481 10.0825 0.641994 10.2797C0.489179 10.4769 0.40625 10.7193 0.40625 10.9688C0.40625 11.2182 0.489179 11.4606 0.641994 11.6578C0.79481 11.855 1.00884 11.9959 1.25043 12.0581V13.7812C1.25043 13.8558 1.28006 13.9274 1.3328 13.9801C1.38555 14.0329 1.45708 14.0625 1.53168 14.0625H1.81293V14.9062C1.81293 14.9808 1.84256 15.0524 1.8953 15.1051C1.94805 15.1579 2.01958 15.1875 2.09418 15.1875H9.24116L9.04844 15.5164C9.03118 15.5459 9.01949 15.5783 9.01395 15.612C9.01367 15.6136 9.01321 15.615 9.01296 15.6167L9.01226 15.6213V15.6223L8.78726 17.1143C8.77888 17.1699 8.78735 17.2267 8.81158 17.2775C8.8358 17.3282 8.87467 17.3705 8.92317 17.3989C8.97167 17.4273 9.02757 17.4406 9.08366 17.4369C9.13975 17.4333 9.19346 17.4129 9.23786 17.3784L10.4342 16.4496C10.5108 16.3901 10.5482 16.3537 10.5423 16.3048L11.197 15.1875H12.7817C12.8563 15.1875 12.9278 15.1579 12.9806 15.1051C13.0333 15.0524 13.0629 14.9808 13.0629 14.9062V12.0037L15.1969 8.36209C15.3098 8.16898 15.3415 7.93898 15.285 7.72254C15.2285 7.50611 15.0885 7.3209 14.8957 7.20756ZM14.3981 7.66336C14.4519 7.64931 14.5087 7.65154 14.5612 7.66977C14.6138 7.68799 14.6597 7.72139 14.6933 7.76574C14.7269 7.81009 14.7466 7.86341 14.7498 7.91894C14.7531 7.97447 14.7398 8.02972 14.7117 8.07771L14.5695 8.32029L14.0844 8.03588L14.2266 7.7933C14.2452 7.76138 14.2699 7.73346 14.2993 7.71116C14.3287 7.68885 14.3623 7.67261 14.3981 7.66336ZM10.1612 15.8425L9.67604 15.5581L13.3732 9.24922L13.8584 9.53364L10.1612 15.8425ZM9.96918 1.52276L10.9777 2.53125H9.96918V1.52276ZM13.6576 8.76389L13.7998 8.52131L14.2851 8.80573L14.1429 9.0483L13.6576 8.76389ZM12.5004 1.96875V9.5625C12.5005 9.58075 12.5022 9.59895 12.5058 9.61685L11.9379 10.5858V2.8125C11.938 2.77562 11.9307 2.7391 11.9166 2.70502C11.9025 2.67095 11.8819 2.63998 11.8558 2.6139L11.8556 2.61362L11.2107 1.96875H12.5004ZM1.81293 1.125H9.40668V2.8125C9.40668 2.88709 9.43631 2.95863 9.48905 3.01137C9.5418 3.06412 9.61333 3.09375 9.68793 3.09375H11.3754V11.5457L10.2301 13.5H1.81293V12.0582C2.00764 12.008 2.18533 11.9066 2.3275 11.7644C2.46966 11.6222 2.57109 11.4445 2.6212 11.2498C2.6398 11.1775 2.62892 11.1008 2.59097 11.0366C2.55302 10.9724 2.49111 10.9258 2.41884 10.9072C2.38306 10.898 2.34582 10.896 2.30924 10.9011C2.27266 10.9063 2.23746 10.9187 2.20565 10.9375C2.14141 10.9754 2.09487 11.0373 2.07628 11.1096C2.05765 11.1819 2.02475 11.2498 1.97953 11.3092C1.9343 11.3686 1.87766 11.4184 1.81293 11.4557V9.52692C2.00764 9.47678 2.18533 9.37533 2.3275 9.23315C2.46966 9.09097 2.57109 8.91326 2.6212 8.71854C2.6398 8.64628 2.62892 8.56959 2.59097 8.50535C2.55302 8.4411 2.49111 8.39457 2.41884 8.37598C2.34658 8.35738 2.2699 8.36826 2.20565 8.40621C2.14141 8.44416 2.09487 8.50607 2.07628 8.57834C2.05765 8.65065 2.02475 8.71852 1.97953 8.77795C1.9343 8.83738 1.87766 8.88718 1.81293 8.92441V6.71442C2.00764 6.66428 2.18533 6.56283 2.3275 6.42065C2.46966 6.27847 2.57109 6.10076 2.6212 5.90604C2.6398 5.83378 2.62892 5.75709 2.59097 5.69285C2.55302 5.6286 2.49111 5.58207 2.41884 5.56348C2.34658 5.54488 2.2699 5.55576 2.20565 5.59371C2.14141 5.63166 2.09487 5.69357 2.07628 5.76584C2.05765 5.83815 2.02475 5.90602 1.97953 5.96545C1.9343 6.02488 1.87766 6.07468 1.81293 6.11191V3.90192C2.00764 3.85178 2.18533 3.75033 2.3275 3.60815C2.46966 3.46597 2.57109 3.28826 2.6212 3.09354C2.6398 3.02128 2.62892 2.94459 2.59097 2.88035C2.55302 2.8161 2.49111 2.76957 2.41884 2.75098C2.34658 2.73238 2.2699 2.74326 2.20565 2.78121C2.14141 2.81916 2.09487 2.88107 2.07628 2.95334C2.05765 3.02565 2.02475 3.09352 1.97953 3.15295C1.9343 3.21238 1.87766 3.26217 1.81293 3.29941V1.125ZM0.969177 2.8125C0.969309 2.71389 0.995363 2.61704 1.04473 2.53168C1.09409 2.44631 1.16503 2.37542 1.25043 2.32611V3.29889C1.16503 3.24958 1.09409 3.17869 1.04473 3.09332C0.995363 3.00796 0.969309 2.91111 0.969177 2.8125ZM0.969177 5.625C0.969309 5.52639 0.995363 5.42954 1.04473 5.34418C1.09409 5.25881 1.16503 5.18792 1.25043 5.13861V6.11139C1.16503 6.06208 1.09409 5.99119 1.04473 5.90582C0.995363 5.82046 0.969309 5.72361 0.969177 5.625ZM0.969177 8.4375C0.969309 8.33889 0.995363 8.24204 1.04473 8.15668C1.09409 8.07131 1.16503 8.00042 1.25043 7.95111V8.92389C1.16503 8.87458 1.09409 8.80369 1.04473 8.71832C0.995363 8.63296 0.969309 8.53611 0.969177 8.4375ZM0.969177 10.9688C0.969309 10.8701 0.995363 10.7733 1.04473 10.6879C1.09409 10.6026 1.16503 10.5317 1.25043 10.4824V11.4551C1.16503 11.4058 1.09409 11.3349 1.04473 11.2496C0.995363 11.1642 0.969309 11.0674 0.969177 10.9688ZM2.37543 14.625V14.0625H9.90045L9.57079 14.625H2.37543ZM9.50726 16.1113L9.76105 16.26L9.44816 16.5029L9.50726 16.1113ZM12.5004 14.625H11.5266L12.5004 12.9635V14.625Z" fill="#7A7A7A"/>
</svg>
