<svg width="26" height="26" viewBox="0 0 26 26" fill="none" xmlns="http://www.w3.org/2000/svg">
<path d="M13.4064 0.814453C13.1561 0.816289 12.9123 0.895057 12.7083 1.04008C12.5042 1.1851 12.3496 1.38936 12.2656 1.62518H2.03171C1.70887 1.62679 1.39971 1.75576 1.17142 1.98404C0.943132 2.21233 0.814167 2.52149 0.812553 2.84434V6.90717C0.804876 7.45533 1.63249 7.45533 1.62635 6.90717V2.84434C1.62635 2.61248 1.79986 2.43744 2.03171 2.43744H12.1903V3.25123H2.84397C2.73632 3.25123 2.63306 3.29389 2.55679 3.36987C2.48053 3.44584 2.43748 3.54895 2.43707 3.6566V15.0313C2.43707 15.2555 2.61979 15.4382 2.84397 15.4382H21.5306C21.6385 15.4382 21.742 15.3953 21.8183 15.319C21.8946 15.2427 21.9375 15.1392 21.9375 15.0313V9.75085H22.7513V15.8436C22.7527 15.8974 22.7432 15.951 22.7233 16.001C22.7034 16.0511 22.6735 16.0965 22.6354 16.1346C22.5973 16.1727 22.5518 16.2026 22.5018 16.2225C22.4518 16.2424 22.3982 16.2519 22.3444 16.2505H2.03018C1.97647 16.2517 1.92306 16.2421 1.8732 16.222C1.82335 16.202 1.77808 16.1721 1.74016 16.134C1.70225 16.096 1.67247 16.0506 1.65264 16.0006C1.63281 15.9507 1.62334 15.8973 1.62481 15.8436V10.5616C1.63249 10.0134 0.804876 10.0134 0.812553 10.5616V15.8436C0.812553 16.513 1.36378 17.0627 2.03171 17.0627H22.3459C22.6685 17.0607 22.9772 16.9316 23.2052 16.7033C23.4332 16.4751 23.5619 16.1661 23.5635 15.8436V9.75085H23.9689C24.292 9.74884 24.6013 9.61958 24.8298 9.39109C25.0583 9.1626 25.1876 8.85328 25.1896 8.53016V2.03208C25.1876 1.70923 25.0582 1.40024 24.8296 1.17224C24.601 0.944236 24.2917 0.815661 23.9689 0.814453H13.4064ZM13.4064 1.62364H23.9689C24.0229 1.62238 24.0765 1.63208 24.1267 1.65216C24.1768 1.67224 24.2223 1.70228 24.2605 1.74046C24.2987 1.77864 24.3287 1.82417 24.3488 1.8743C24.3689 1.92442 24.3786 1.97809 24.3773 2.03208V8.53016C24.3784 8.58408 24.3685 8.63766 24.3483 8.68768C24.3282 8.73771 24.2981 8.78315 24.26 8.82129C24.2219 8.85942 24.1764 8.88947 24.1264 8.90963C24.0764 8.92978 24.0228 8.93963 23.9689 8.93859H17.0624C16.9658 8.93799 16.8722 8.97173 16.7983 9.03379L14.624 10.8994V9.34395C14.6236 9.23657 14.5808 9.1337 14.5049 9.05777C14.4289 8.98183 14.3261 8.93899 14.2187 8.93859H13.4064C13.3528 8.93944 13.2995 8.92942 13.2498 8.90913C13.2001 8.88885 13.1551 8.85872 13.1173 8.82056C13.0796 8.7824 13.05 8.737 13.0303 8.68709C13.0106 8.63718 13.0011 8.5838 13.0026 8.53016V2.03208C13.0026 1.79869 13.1746 1.62364 13.4064 1.62364ZM16.657 3.2497V7.31253C16.657 7.63191 17.0071 7.82538 17.2789 7.65801L20.5294 5.62813C20.5882 5.5916 20.6366 5.54071 20.6702 5.48026C20.7038 5.41981 20.7214 5.3518 20.7214 5.28265C20.7214 5.2135 20.7038 5.14549 20.6702 5.08504C20.6366 5.0246 20.5882 4.9737 20.5294 4.93717L17.2789 2.90422C17.0332 2.75067 16.657 2.88886 16.657 3.2497ZM17.4708 3.98365L19.5452 5.28265L17.4708 6.57858V3.98365ZM3.25087 4.06349H12.1903V8.53016C12.1903 9.19808 12.7385 9.75085 13.4064 9.75085H13.8118V11.7807C13.8117 11.8585 13.8339 11.9347 13.8757 12.0003C13.9176 12.0659 13.9773 12.1181 14.048 12.1507C14.1186 12.1833 14.1971 12.1951 14.2741 12.1845C14.3512 12.1739 14.4236 12.1414 14.4828 12.0909L17.2128 9.75085H21.1252V14.6259H13.0011C13.0011 13.2824 11.9063 12.1907 10.5627 12.1907H10.1574V11.1558C10.6549 10.709 10.9712 10.0625 10.9712 9.34395V8.94012C11.1954 8.93859 11.3765 8.75587 11.375 8.53169V7.31407C11.3742 6.66764 11.117 6.04791 10.6599 5.59082C10.2028 5.13372 9.58312 4.87657 8.93669 4.87575H8.12443C6.7809 4.87575 5.68918 5.97054 5.68918 7.31407V8.53169C5.68918 8.75587 5.87037 8.93859 6.09455 8.94012V9.34395C6.09455 10.0625 6.40778 10.709 6.90527 11.1558V12.1907H6.49837C5.15484 12.1907 4.06313 13.2809 4.06313 14.6259H3.24933L3.25087 4.06349ZM8.12289 5.68801H8.93669C9.84261 5.68801 10.5612 6.40661 10.5612 7.31407V7.95896L10.0361 7.43384C9.96974 7.36723 9.8823 7.32576 9.78875 7.31651C9.69519 7.30727 9.60133 7.33083 9.52324 7.38316C9.52324 7.38316 8.34861 8.12633 7.3091 8.12633H6.49684V7.31253C6.49684 6.40661 7.2139 5.68801 8.12289 5.68801ZM1.21331 8.12019C1.16007 8.12099 1.10752 8.13227 1.05864 8.15338C1.00977 8.1745 0.965532 8.20503 0.92846 8.24324C0.891387 8.28146 0.862206 8.3266 0.842582 8.37609C0.822958 8.42558 0.813276 8.47846 0.814089 8.53169V8.93859C0.804876 9.48675 1.63249 9.48675 1.62481 8.93859V8.53169C1.62543 8.47748 1.61521 8.42369 1.59475 8.37349C1.57429 8.32328 1.544 8.27767 1.50566 8.23934C1.46733 8.201 1.42172 8.17072 1.37151 8.15025C1.32131 8.12979 1.26752 8.11957 1.21331 8.12019ZM9.686 8.22767L10.1574 8.70213V9.34395C10.159 9.55774 10.1181 9.76972 10.0371 9.96756C9.95599 10.1654 9.8364 10.3451 9.68522 10.4963C9.53404 10.6475 9.3543 10.7671 9.15647 10.8481C8.95864 10.9292 8.74665 10.9701 8.53286 10.9685C7.6254 10.9685 6.90527 10.2514 6.90527 9.34395V8.94012H7.31063C8.35321 8.94012 9.41422 8.40271 9.686 8.22921V8.22767ZM7.7206 11.6395C7.97395 11.7301 8.24727 11.7823 8.53286 11.7823C8.81846 11.7823 9.09024 11.7301 9.34512 11.6395V12.5178C9.34512 12.5178 9.20693 12.9999 8.53133 12.9999C7.85726 12.9999 7.7206 12.5239 7.7206 12.5239V11.6395ZM6.49837 12.9999H7.04961C7.04961 12.9999 7.39969 13.8122 8.53286 13.8122C9.6645 13.8122 10.0146 12.9984 10.0146 12.9984H10.5627C11.4687 12.9984 12.1873 13.7185 12.1873 14.6259H4.87692C4.87692 13.7185 5.59092 12.9999 6.49837 12.9999ZM4.47003 17.8735C3.35221 17.8735 2.43554 18.7855 2.43554 19.9033V20.3118C2.43554 20.7847 2.60751 21.2146 2.88082 21.5601C2.30546 21.6488 1.78082 21.9405 1.40176 22.3823C1.02271 22.8242 0.814254 23.3871 0.814089 23.9692V24.783C0.814089 25.0057 0.995273 25.1884 1.21945 25.1899H7.71753C7.77123 25.1901 7.82443 25.1797 7.87407 25.1593C7.92372 25.1388 7.96882 25.1087 8.00679 25.0708C8.04476 25.0328 8.07484 24.9877 8.09529 24.938C8.11574 24.8884 8.12617 24.8352 8.12597 24.7815V23.9677C8.12438 23.386 7.91516 22.824 7.53597 22.3829C7.15679 21.9418 6.63256 21.6505 6.0577 21.5616C6.33101 21.2162 6.49991 20.7862 6.49991 20.3133V19.9049C6.49991 18.7871 5.58784 17.8735 4.47003 17.8735ZM13.0026 17.8735C11.8832 17.8735 10.9681 18.7855 10.9681 19.9033V20.3118C10.9681 20.7847 11.1385 21.2146 11.4134 21.5601C10.838 21.6487 10.3132 21.94 9.93367 22.3815C9.55414 22.823 9.34486 23.3855 9.34359 23.9677V24.7815C9.34359 25.0057 9.52631 25.1884 9.75202 25.1884H16.2501C16.3037 25.1884 16.3567 25.1778 16.4062 25.1573C16.4556 25.1367 16.5006 25.1066 16.5384 25.0687C16.5762 25.0307 16.6061 24.9857 16.6265 24.9361C16.6468 24.8866 16.6572 24.8335 16.657 24.78V23.9662C16.6555 23.3847 16.4465 22.8229 16.0676 22.3818C15.6887 21.9407 15.1648 21.6493 14.5903 21.5601C14.862 21.2146 15.0325 20.7847 15.0325 20.3118V19.9033C15.0325 18.7855 14.1204 17.8735 13.0026 17.8735ZM21.5306 17.8735C20.4127 17.8735 19.5007 18.7855 19.5007 19.9033V20.3118C19.5007 20.7847 19.6696 21.2146 19.9429 21.5601C19.3678 21.649 18.8433 21.9405 18.4641 22.3819C18.0849 22.8234 17.8758 23.3857 17.8746 23.9677V24.7815C17.8746 25.0057 18.0589 25.1899 18.2831 25.1884H24.7827C24.8362 25.1884 24.8893 25.1778 24.9387 25.1573C24.9882 25.1367 25.0331 25.1066 25.0709 25.0687C25.1087 25.0307 25.1387 24.9857 25.159 24.9361C25.1794 24.8866 25.1898 24.8335 25.1896 24.78V23.9662C25.1879 23.3843 24.9785 22.8221 24.599 22.3809C24.2195 21.9398 23.6949 21.6487 23.1198 21.5601C23.3946 21.2146 23.5651 20.7847 23.5651 20.3118V19.9033C23.5651 18.7855 22.6499 17.8735 21.5306 17.8735ZM4.47003 18.6872C5.15177 18.6872 5.68765 19.2216 5.68765 19.9033V20.3118C5.68765 20.9935 5.15177 21.5294 4.47003 21.5294C3.78828 21.5294 3.24933 20.9935 3.24933 20.3118V19.9033C3.24933 19.2216 3.78675 18.6857 4.47003 18.6857V18.6872ZM13.0026 18.6872C13.6843 18.6872 14.2187 19.2216 14.2187 19.9033V20.3118C14.2203 20.472 14.19 20.6309 14.1295 20.7793C14.069 20.9277 13.9795 21.0625 13.8663 21.1759C13.753 21.2892 13.6183 21.3789 13.47 21.4396C13.3217 21.5003 13.1628 21.5308 13.0026 21.5294C12.842 21.5312 12.6826 21.501 12.5338 21.4405C12.385 21.3801 12.2497 21.2905 12.1359 21.1771C12.0221 21.0638 11.932 20.9288 11.871 20.7803C11.8099 20.6317 11.7791 20.4724 11.7804 20.3118V19.9033C11.7804 19.2216 12.3193 18.6857 13.0026 18.6857V18.6872ZM21.5306 18.6872C22.2138 18.6872 22.7513 19.2216 22.7513 19.9033V20.3118C22.7513 20.9935 22.2138 21.5294 21.5306 21.5294C21.3702 21.531 21.2111 21.5007 21.0627 21.44C20.9142 21.3794 20.7793 21.2898 20.6659 21.1764C20.5525 21.063 20.4629 20.9281 20.4023 20.7797C20.3417 20.6312 20.3113 20.4721 20.3129 20.3118V19.9033C20.3129 19.2216 20.8504 18.6857 21.5306 18.6857V18.6872ZM3.24933 22.3417H5.68765C6.59357 22.3417 7.31217 23.0602 7.31217 23.9677V24.3761H1.62328V23.9677C1.62328 23.0602 2.34187 22.3417 3.25087 22.3417H3.24933ZM11.7804 22.3417H14.2187C15.1261 22.3417 15.8463 23.0602 15.8463 23.9677V24.3761H10.1543V23.9677C10.1543 23.0602 10.8744 22.3417 11.7804 22.3417ZM20.3129 22.3417H22.7513C23.6587 22.3417 24.3773 23.0602 24.3773 23.9677V24.3761H18.6884V23.9677C18.6884 23.0602 19.4055 22.3417 20.3129 22.3417Z" fill="#DD5D00"/>
</svg>
