<svg width="70" height="79" viewBox="0 0 70 79" fill="none" xmlns="http://www.w3.org/2000/svg">
<path fill-rule="evenodd" clip-rule="evenodd" d="M26.1957 6.57031H62.718C62.9079 6.57189 63.0896 6.64913 63.2238 6.78532C63.358 6.92152 63.4339 7.10573 63.4351 7.29813V14.6936H30.4363C30.2991 14.6976 30.1638 14.6599 30.0479 14.5854C29.932 14.511 29.8406 14.4031 29.7857 14.2757L26.1957 6.57031ZM14.9277 56.5498C14.9277 51.1686 17.0384 46.0077 20.7953 42.2026C24.5523 38.3975 29.6478 36.2598 34.9609 36.2598C40.2741 36.2598 45.3696 38.3975 49.1265 42.2026C52.8835 46.0077 54.9941 51.1686 54.9941 56.5498C54.9941 67.739 46.0078 76.8399 34.9609 76.8399C29.6495 76.8342 24.5573 74.6946 20.8016 70.8908C17.0458 67.0869 14.9334 61.9293 14.9277 56.5498ZM34.0984 43.5659L25.2764 52.5025C25.0587 52.736 24.9394 53.0463 24.944 53.3675C24.9485 53.6887 25.0764 53.9954 25.3006 54.2226C25.5249 54.4498 25.8277 54.5795 26.1448 54.5842C26.4619 54.5889 26.7683 54.4682 26.999 54.2477L33.7422 47.4199V68.6603C33.7422 68.9877 33.8706 69.3016 34.0991 69.5331C34.3277 69.7646 34.6377 69.8947 34.9609 69.8947C35.2842 69.8947 35.5942 69.7646 35.8227 69.5331C36.0513 69.3016 36.1797 68.9877 36.1797 68.6603V47.4199L42.9211 54.2477C43.1496 54.4794 43.4596 54.6096 43.7829 54.6097C44.1062 54.6099 44.4163 54.4799 44.645 54.2485C44.8737 54.0171 45.0022 53.7031 45.0024 53.3757C45.0025 53.0482 44.8742 52.7341 44.6457 52.5025L35.8232 43.5661C35.5943 43.3346 35.2841 43.2046 34.9607 43.2046C34.6373 43.2046 34.3271 43.3346 34.0982 43.5661L34.0984 43.5659Z" fill="black"/>
<path fill-rule="evenodd" clip-rule="evenodd" d="M67.4851 53.1816C67.4847 53.7676 67.2548 54.3296 66.8458 54.7441C66.4367 55.1587 65.882 55.3919 65.3034 55.3926H57.0981C56.5009 43.5487 46.7997 34.0997 34.9611 34.0997C23.1224 34.0997 13.4218 43.5487 12.8238 55.3926H4.61861C4.04008 55.3918 3.48554 55.1584 3.07667 54.7439C2.66779 54.3294 2.43797 53.7675 2.43765 53.1816V4.68005C2.43793 4.09409 2.66773 3.53217 3.07661 3.11761C3.48549 2.70305 4.04006 2.46972 4.61861 2.46883H20.5433C20.9589 2.45963 21.3681 2.57488 21.7193 2.80014C22.0706 3.0254 22.3485 3.35065 22.5181 3.73514L27.8574 15.1994C28.0858 15.6963 28.4503 16.1164 28.9076 16.4097C29.3648 16.703 29.8956 16.8572 30.4368 16.8539H65.3034C65.882 16.8547 66.4367 17.0879 66.8458 17.5024C67.2548 17.917 67.4847 18.4789 67.4851 19.065V53.1816ZM34.9614 76.5313C38.8633 76.5313 42.6776 75.3594 45.9219 73.1638C49.1663 70.9682 51.6949 67.8476 53.1881 64.1964C54.6813 60.5453 55.072 56.5277 54.3108 52.6517C53.5496 48.7757 51.6706 45.2153 48.9115 42.4209C46.1525 39.6264 42.6372 37.7234 38.8102 36.9524C34.9833 36.1814 31.0165 36.5771 27.4116 38.0894C23.8067 39.6018 20.7255 42.1628 18.5577 45.4488C16.3899 48.7347 15.2329 52.5979 15.2329 56.5499C15.2385 61.8475 17.3189 66.9265 21.0175 70.6725C24.7161 74.4185 29.7308 76.5256 34.9614 76.5313ZM62.7184 6.87894H26.6768L30.0614 14.1442C30.0917 14.2186 30.1441 14.2818 30.2113 14.3249C30.2785 14.368 30.3572 14.389 30.4366 14.385H63.1309V7.29832C63.1298 7.18776 63.086 7.08203 63.009 7.0037C62.9319 6.92537 62.8277 6.88066 62.7186 6.87909L62.7184 6.87894ZM65.5685 14.3932V7.29832C65.5677 6.53282 65.2673 5.79885 64.733 5.2574C64.1987 4.71595 63.4742 4.41122 62.7184 4.41003H25.5263L24.722 2.68361C24.3524 1.87791 23.7621 1.19668 23.0213 0.720953C22.2805 0.245223 21.4204 -0.00498961 20.5433 7.54009e-05H4.61861C3.39384 0.00183176 2.21976 0.495532 1.35392 1.37288C0.488078 2.25023 0.00116868 3.43958 0 4.68005V53.1816C0.00120899 54.422 0.488136 55.6113 1.35397 56.4886C2.21981 57.366 3.39386 57.8596 4.61861 57.8614H12.8331C13.5065 69.6327 23.1727 79.0001 34.9611 79.0001C46.7494 79.0001 56.4155 69.6329 57.0873 57.8614H65.3034C66.5282 57.8598 67.7025 57.3662 68.5685 56.4889C69.4344 55.6115 69.9215 54.4221 69.9227 53.1816V19.065C69.9215 17.8709 69.4701 16.7224 68.6609 15.8541C67.8516 14.9858 66.7455 14.4632 65.5686 14.393L65.5685 14.3932Z" fill="#4A148C"/>
</svg>
