<svg width="282" height="173" viewBox="0 0 282 173" fill="none" xmlns="http://www.w3.org/2000/svg">
<ellipse opacity="0.8" cx="19.3199" cy="62.4543" rx="3.13926" ry="3.32006" fill="#828282"/>
<ellipse opacity="0.8" cx="84.1988" cy="17.449" rx="3.13926" ry="3.32006" fill="#828282"/>
<ellipse opacity="0.8" cx="220.235" cy="42.5339" rx="3.13926" ry="3.32006" fill="#828282"/>
<ellipse opacity="0.8" cx="195.816" cy="114.837" rx="3.13926" ry="3.32006" fill="#828282"/>
<ellipse opacity="0.8" cx="111.315" cy="166.275" rx="3.13926" ry="3.32006" fill="#828282"/>
<ellipse opacity="0.8" cx="71.6393" cy="114.837" rx="3.13926" ry="3.32006" fill="#828282"/>
<ellipse opacity="0.8" cx="22.11" cy="141.398" rx="3.13926" ry="3.32006" fill="#828282"/>
<ellipse opacity="0.8" cx="247.439" cy="141.398" rx="3.13926" ry="3.32006" fill="#828282"/>
<ellipse opacity="0.8" cx="278.833" cy="49.1736" rx="3.13926" ry="3.32006" fill="#828282"/>
<ellipse opacity="0.8" cx="202.093" cy="3.4309" rx="3.13926" ry="3.32006" fill="#828282"/>
<ellipse opacity="0.8" cx="13.0406" cy="6.38207" rx="3.13926" ry="3.32006" fill="#828282"/>
<line x1="19.3799" y1="79.5479" x2="28.1007" y2="79.5479" stroke="#D9D9D9" stroke-width="2"/>
<line x1="222.864" y1="124.25" x2="231.585" y2="124.25" stroke="#D9D9D9" stroke-width="2"/>
<line x1="28.1006" y1="172" x2="37.7903" y2="172" stroke="#D9D9D9" stroke-width="2"/>
<line x1="215.112" y1="30.7817" x2="223.833" y2="30.7817" stroke="#D9D9D9" stroke-width="2"/>
<line y1="31.7979" x2="10.6587" y2="31.7979" stroke="#D9D9D9" stroke-width="2"/>
<line x1="203.484" y1="75.4839" x2="214.143" y2="75.4839" stroke="#D9D9D9" stroke-width="2"/>
<line x1="8.7207" y1="124.25" x2="19.3794" y2="124.25" stroke="#D9D9D9" stroke-width="2"/>
<line x1="33.9141" y1="79.5479" x2="72.673" y2="79.5479" stroke="#D9D9D9" stroke-width="2"/>
<line x1="237.398" y1="124.25" x2="275.188" y2="124.25" stroke="#D9D9D9" stroke-width="2"/>
<line x1="43.6045" y1="172" x2="80.4255" y2="172" stroke="#D9D9D9" stroke-width="2"/>
<line x1="230.616" y1="30.7817" x2="268.406" y2="30.7817" stroke="#D9D9D9" stroke-width="2"/>
<line x1="14.5342" y1="31.7979" x2="52.3242" y2="31.7979" stroke="#D9D9D9" stroke-width="2"/>
<line x1="218.988" y1="75.4839" x2="256.778" y2="75.4839" stroke="#D9D9D9" stroke-width="2"/>
<line x1="24.2246" y1="124.25" x2="61.0456" y2="124.25" stroke="#D9D9D9" stroke-width="2"/>
</svg>
