<svg width="556" height="556" viewBox="0 0 556 556" fill="none" xmlns="http://www.w3.org/2000/svg">
<path d="M278 544.09C399.016 544.09 497.12 488.36 497.12 419.613C497.12 350.866 399.016 295.136 278 295.136C156.984 295.136 58.8804 350.866 58.8804 419.613C58.8804 488.36 156.984 544.09 278 544.09Z" fill="#F5F5F5"/>
<path d="M369.184 498.098L205.62 403.656C204.181 402.827 202.986 401.633 202.155 400.196C201.324 398.758 200.887 397.127 200.887 395.466C200.887 393.805 201.324 392.174 202.155 390.736C202.986 389.299 204.181 388.105 205.62 387.276L221.755 377.101C224.54 375.497 227.698 374.653 230.912 374.653C234.127 374.653 237.284 375.497 240.07 377.101L403.656 471.555C405.095 472.384 406.29 473.577 407.121 475.015C407.952 476.453 408.389 478.084 408.389 479.745C408.389 481.405 407.952 483.036 407.121 484.474C406.29 485.912 405.095 487.105 403.656 487.934L387.521 498.098C384.734 499.711 381.572 500.56 378.352 500.56C375.133 500.56 371.97 499.711 369.184 498.098Z" fill="#E0E0E0"/>
<path d="M120.485 411.996C140.089 411.996 155.98 402.87 155.98 391.613C155.98 380.356 140.089 371.23 120.485 371.23C100.882 371.23 84.9901 380.356 84.9901 391.613C84.9901 402.87 100.882 411.996 120.485 411.996Z" fill="#E6E6E6"/>
<path d="M427.186 416.666L442.754 425.618C442.754 425.618 434.803 400.631 439.04 375.444C440.641 365.926 444.077 361.2 445.278 358.653C446.479 356.107 455.787 340.372 447.502 333.166C439.218 325.96 419.947 340.45 420.992 379.225C421.467 391.917 423.548 404.497 427.186 416.666Z" fill="#4A148C"/>
<path opacity="0.5" d="M427.186 416.666L442.754 425.618C442.754 425.618 434.803 400.631 439.04 375.444C440.641 365.926 444.077 361.2 445.278 358.653C446.479 356.107 455.787 340.372 447.502 333.166C439.218 325.96 419.947 340.45 420.992 379.225C421.467 391.917 423.548 404.497 427.186 416.666Z" fill="black"/>
<path d="M434.425 421.381C434.312 421.384 434.201 421.351 434.107 421.287C434.013 421.223 433.942 421.132 433.902 421.025C433.847 420.859 427.898 404.601 428.087 378.469C428.276 352.337 442.009 338.148 442.142 338.015C442.194 337.962 442.255 337.921 442.323 337.893C442.391 337.865 442.464 337.85 442.537 337.85C442.61 337.85 442.683 337.865 442.751 337.893C442.819 337.921 442.88 337.962 442.932 338.015C442.984 338.066 443.025 338.128 443.054 338.195C443.082 338.263 443.096 338.336 443.096 338.409C443.096 338.483 443.082 338.555 443.054 338.623C443.025 338.691 442.984 338.752 442.932 338.804C442.798 338.937 429.388 352.704 429.199 378.48C429.01 404.256 434.881 420.492 434.948 420.647C434.998 420.786 434.991 420.939 434.928 421.072C434.866 421.206 434.753 421.309 434.614 421.359C434.553 421.378 434.489 421.385 434.425 421.381Z" fill="white"/>
<path d="M433.68 420.491L454.964 432.723C457.181 434.034 459.812 434.461 462.33 433.919C464.849 433.377 467.07 431.906 468.552 429.799C469.961 427.607 470.555 424.989 470.231 422.404C469.208 411.351 464.405 408.804 470.287 403.878C476.17 398.952 477.704 398.607 477.37 393.87C477.037 389.133 473.801 387.064 472.266 385.196C470.732 383.328 466.484 379.414 469.375 373.632C472.266 367.849 476.214 362.256 470.231 359.698C466.662 358.164 460.713 360.21 456.798 364.458C452.884 368.705 449.659 371.763 445.912 372.786C442.165 373.809 434.358 373.976 434.692 380.437C435.025 386.898 436.738 389.111 435.203 391.991C432.312 397.373 419.735 400.431 433.68 420.491Z" fill="#4A148C"/>
<path d="M444.199 427.074C444.061 427.07 443.928 427.016 443.826 426.922C443.724 426.828 443.659 426.701 443.643 426.563C443.643 426.185 440.374 388.021 466.617 362.623C466.726 362.533 466.864 362.488 467.004 362.497C467.144 362.505 467.276 362.566 467.373 362.667C467.47 362.768 467.525 362.902 467.527 363.043C467.529 363.183 467.479 363.319 467.385 363.423C441.52 388.455 444.722 426.085 444.755 426.463C444.768 426.608 444.722 426.753 444.629 426.866C444.535 426.978 444.401 427.049 444.255 427.063L444.199 427.074Z" fill="white"/>
<path d="M448.414 394.226C448.274 394.226 448.139 394.174 448.036 394.079C447.933 393.984 447.869 393.854 447.858 393.714C447.625 390.757 446.792 387.878 445.41 385.253C444.028 382.628 442.125 380.312 439.818 378.447C439.758 378.404 439.707 378.351 439.668 378.289C439.628 378.227 439.602 378.158 439.589 378.085C439.577 378.013 439.579 377.939 439.595 377.867C439.612 377.796 439.642 377.728 439.685 377.668C439.726 377.608 439.778 377.558 439.84 377.518C439.901 377.479 439.969 377.453 440.04 377.44C440.112 377.428 440.185 377.43 440.256 377.446C440.326 377.462 440.393 377.492 440.452 377.535C442.91 379.484 444.937 381.923 446.403 384.697C447.869 387.47 448.743 390.518 448.97 393.648C448.982 393.796 448.936 393.944 448.84 394.059C448.744 394.173 448.607 394.245 448.458 394.259L448.414 394.226Z" fill="white"/>
<path d="M446.601 400.776C446.467 400.777 446.337 400.73 446.234 400.642C446.124 400.544 446.057 400.406 446.046 400.259C446.036 400.111 446.083 399.966 446.179 399.853C446.446 399.541 453.018 392.291 468.419 394.215C468.565 394.234 468.697 394.311 468.787 394.427C468.876 394.544 468.916 394.692 468.897 394.838C468.878 394.984 468.802 395.118 468.685 395.209C468.569 395.3 468.421 395.343 468.274 395.327C453.485 393.47 447.068 400.52 447.002 400.587C446.951 400.643 446.89 400.689 446.821 400.722C446.752 400.754 446.677 400.773 446.601 400.776Z" fill="white"/>
<path d="M364.202 486.811L220.354 403.756C210.201 397.896 201.973 382.172 201.973 368.639V60.6151C201.973 47.0821 210.201 40.866 220.354 46.7262L364.202 129.782C374.355 135.642 382.584 151.365 382.584 164.898V472.922C382.584 486.444 374.355 492.672 364.202 486.811Z" fill="#495A62"/>
<path d="M380.771 120.096L236.912 37.0406C232.575 34.5386 228.594 34.2495 225.447 35.784C225.062 35.977 224.69 36.1962 224.335 36.4401L208.211 45.8143C211.458 43.8683 215.706 44.0128 220.365 46.7039L364.213 129.759C374.366 135.619 382.595 151.343 382.595 164.876V472.9C382.595 480.061 380.293 485.132 376.623 487.534L392.536 478.271C396.595 476.114 399.208 470.832 399.208 463.259V155.235C399.208 141.68 390.924 125.956 380.771 120.096Z" fill="#37474F"/>
<path d="M382.584 164.876V472.9C382.584 480.061 380.282 485.132 376.612 487.534L392.536 478.271C396.595 476.114 399.208 470.832 399.208 463.259V155.235L382.639 164.854L382.584 164.876Z" fill="#263238"/>
<path d="M399.152 179.132L382.583 188.695V196.168L399.152 186.593V179.132Z" fill="#37474F"/>
<path d="M391.891 228.827C390.412 229.683 389.211 228.771 389.211 226.803V210.735C389.226 209.73 389.476 208.743 389.942 207.853C390.407 206.963 391.075 206.194 391.891 205.608C393.37 204.752 394.571 205.608 394.571 207.632V223.701C394.556 224.705 394.306 225.692 393.84 226.582C393.375 227.473 392.707 228.241 391.891 228.827Z" fill="#37474F"/>
<path d="M389.2 226.848V210.735C389.215 209.73 389.465 208.743 389.931 207.853C390.396 206.963 391.064 206.194 391.88 205.608C392.124 205.438 392.408 205.334 392.704 205.307C393.001 205.279 393.299 205.33 393.57 205.453L391.557 204.419C391.282 204.286 390.977 204.229 390.672 204.252C390.368 204.276 390.075 204.379 389.823 204.552C389.006 205.138 388.337 205.906 387.87 206.796C387.402 207.686 387.15 208.673 387.132 209.678V225.736C387.09 226.141 387.152 226.551 387.311 226.926C387.471 227.302 387.723 227.63 388.044 227.882L390.145 228.994C389.811 228.753 389.547 228.427 389.38 228.049C389.214 227.672 389.152 227.257 389.2 226.848Z" fill="#495A62"/>
<path d="M391.891 267.714C390.412 268.57 389.211 267.714 389.211 265.69V249.622C389.227 248.618 389.478 247.631 389.943 246.741C390.408 245.851 391.075 245.082 391.891 244.495C393.37 243.639 394.571 244.495 394.571 246.53V262.588C394.558 263.593 394.308 264.58 393.843 265.471C393.377 266.361 392.708 267.13 391.891 267.714Z" fill="#37474F"/>
<path d="M389.2 265.69V249.621C389.216 248.617 389.466 247.631 389.932 246.74C390.397 245.85 391.064 245.081 391.88 244.495C392.125 244.328 392.409 244.225 392.705 244.198C393.001 244.171 393.298 244.22 393.57 244.339L391.557 243.294C391.284 243.156 390.977 243.095 390.671 243.119C390.366 243.142 390.072 243.249 389.823 243.428C389.004 244.011 388.334 244.78 387.866 245.67C387.399 246.56 387.147 247.548 387.132 248.554V264.656C387.089 265.061 387.15 265.471 387.31 265.847C387.469 266.222 387.722 266.551 388.043 266.802L390.145 267.914C389.797 267.667 389.524 267.329 389.357 266.936C389.19 266.543 389.136 266.112 389.2 265.69Z" fill="#495A62"/>
<path d="M359.176 138.422L217.818 56.7787C217.229 56.4393 216.56 56.2601 215.879 56.2588C215.199 56.2575 214.53 56.4343 213.938 56.7715C213.347 57.1087 212.855 57.5946 212.509 58.1811C212.164 58.7675 211.978 59.4341 211.969 60.1147V368.639C211.969 378.936 219.275 391.58 228.193 396.728L366.081 476.381C366.735 476.757 367.477 476.955 368.231 476.954C368.986 476.953 369.727 476.754 370.38 476.377C371.033 476 371.576 475.457 371.953 474.804C372.331 474.151 372.53 473.41 372.531 472.655V161.585C372.587 153.089 366.56 142.67 359.176 138.422Z" fill="#4A148C"/>
<path opacity="0.9" d="M359.176 138.422L217.818 56.7787C217.229 56.4393 216.56 56.2601 215.879 56.2588C215.199 56.2575 214.53 56.4343 213.938 56.7715C213.347 57.1087 212.855 57.5946 212.509 58.1811C212.164 58.7675 211.978 59.4341 211.969 60.1147V368.639C211.969 378.936 219.275 391.58 228.193 396.728L366.081 476.381C366.735 476.757 367.477 476.955 368.231 476.954C368.986 476.953 369.727 476.754 370.38 476.377C371.033 476 371.576 475.457 371.953 474.804C372.331 474.151 372.53 473.41 372.531 472.655V161.585C372.587 153.089 366.56 142.67 359.176 138.422Z" fill="white"/>
<path d="M260.097 78.0957L262.287 87.3142L309.147 114.336L317.242 110.021L260.097 78.0957Z" fill="#495A62"/>
<path d="M273.874 87.0029C273.874 88.5375 272.762 89.1491 271.473 88.3929C270.78 87.9331 270.205 87.3174 269.794 86.5951C269.382 85.8728 269.146 85.0642 269.104 84.234C269.104 82.7106 270.216 82.0879 271.506 82.8551C272.198 83.3125 272.773 83.9262 273.185 84.6467C273.596 85.3672 273.832 86.1743 273.874 87.0029Z" fill="#263238"/>
<path d="M305.444 106.518C305.188 106.516 304.936 106.451 304.71 106.329L280.78 92.9851C280.442 92.7867 280.195 92.464 280.092 92.086C279.989 91.708 280.037 91.3047 280.228 90.9621C280.418 90.6195 280.734 90.3648 281.11 90.2525C281.485 90.1401 281.89 90.179 282.237 90.3608L306.178 103.705C306.469 103.867 306.698 104.12 306.829 104.427C306.96 104.733 306.985 105.074 306.901 105.396C306.817 105.718 306.628 106.003 306.365 106.206C306.101 106.409 305.777 106.519 305.444 106.518Z" fill="#263238"/>
<path d="M241.615 120.986C240.159 120.141 239.102 120.875 239.102 122.732C239.102 123.66 239.332 124.574 239.77 125.393C240.208 126.212 240.842 126.909 241.615 127.424C242.029 127.675 242.504 127.808 242.989 127.808C243.473 127.808 243.948 127.675 244.362 127.424L246.686 131.628C245.868 132.079 244.942 132.294 244.009 132.249C243.076 132.203 242.174 131.9 241.404 131.372C239.516 130.217 237.942 128.614 236.821 126.705C235.7 124.797 235.066 122.641 234.977 120.43C234.977 116.304 237.746 114.87 241.56 117.094C243.714 118.481 245.478 120.394 246.686 122.654L244.362 124.5C243.789 123.097 242.838 121.881 241.615 120.986Z" fill="#4A148C"/>
<path d="M260.063 134.919C260.063 139.078 257.25 140.479 253.391 138.255C251.449 137.094 249.824 135.472 248.66 133.532C247.496 131.592 246.829 129.395 246.719 127.135C246.719 122.976 249.533 121.575 253.391 123.799C255.338 124.954 256.967 126.575 258.132 128.516C259.296 130.457 259.96 132.658 260.063 134.919ZM250.845 129.615C250.864 130.569 251.11 131.506 251.563 132.347C252.015 133.188 252.661 133.909 253.447 134.452C254.826 135.252 255.938 134.452 255.938 132.561C255.934 131.628 255.706 130.71 255.272 129.883C254.839 129.057 254.213 128.347 253.447 127.813C252.046 127.001 250.845 127.691 250.845 129.615Z" fill="#4A148C"/>
<path d="M264.545 130.504L269.349 140.512V133.306L272.985 135.408V149.43L269.649 147.496L264.867 137.577V144.738L261.209 142.625V128.569L264.545 130.504Z" fill="#4A148C"/>
<path d="M284.872 142.236V145.905L281.403 143.904V154.268L277.388 151.943V141.58L273.941 139.589V135.931L284.872 142.236Z" fill="#4A148C"/>
<path d="M292.701 158.805L288.141 156.169L287.519 157.793L283.404 155.413L288.531 144.349L292.656 146.728L297.593 163.608L293.312 161.14L292.701 158.805ZM291.711 154.913L290.465 150.12L289.187 153.456L291.711 154.913Z" fill="#4A148C"/>
<path d="M303.965 156.981C302.508 156.147 301.452 156.87 301.452 158.738C301.454 159.666 301.684 160.58 302.123 161.398C302.561 162.216 303.194 162.914 303.965 163.43C304.382 163.679 304.859 163.811 305.344 163.811C305.83 163.811 306.306 163.679 306.723 163.43L309.047 167.634C308.226 168.08 307.298 168.292 306.365 168.247C305.431 168.202 304.528 167.901 303.754 167.378C301.864 166.222 300.289 164.617 299.168 162.707C298.047 160.796 297.414 158.638 297.327 156.425C297.327 152.299 300.107 150.865 303.91 153.089C306.061 154.483 307.827 156.394 309.047 158.649L306.723 160.484C306.137 159.088 305.184 157.878 303.965 156.981Z" fill="#4A148C"/>
<path d="M320.011 162.53V166.188L316.542 164.187V174.584L312.527 172.26V161.896L309.08 159.906V156.247L320.011 162.53Z" fill="#4A148C"/>
<path d="M331.876 179.744C332.866 180.311 333.622 179.866 333.622 178.476V170.392L337.648 172.705V180.789C337.648 184.514 335.424 185.626 331.865 183.591C330.151 182.639 328.71 181.263 327.68 179.594C326.65 177.926 326.066 176.02 325.983 174.061V165.977L330.008 168.301V176.385C330.024 177.055 330.202 177.71 330.527 178.295C330.853 178.88 331.316 179.377 331.876 179.744Z" fill="#4A148C"/>
<path d="M344.131 179.788C343.675 179.532 343.386 179.521 343.386 179.944C343.386 181.701 349.668 184.236 349.668 189.318C349.668 192.431 347.3 192.442 344.564 190.863C342.16 189.39 340.088 187.432 338.482 185.114L339.972 182.49C341.194 184.383 342.764 186.028 344.598 187.338C345.187 187.683 345.565 187.683 345.565 187.183C345.565 185.359 339.271 182.935 339.271 178.009C339.271 175.206 341.317 174.673 344.475 176.452C346.51 177.682 348.3 179.277 349.757 181.156L348.301 183.847C347.097 182.314 345.695 180.949 344.131 179.788Z" fill="#4A148C"/>
<path d="M221.388 190.085C225.9 184.544 228.171 177.512 227.754 170.379C227.336 163.245 224.26 156.527 219.132 151.55C214.004 146.572 207.198 143.698 200.054 143.493C192.911 143.288 185.951 145.767 180.546 150.442C175.142 155.117 171.685 161.648 170.859 168.746C170.033 175.844 171.898 182.994 176.084 188.785C180.271 194.576 186.476 198.588 193.475 200.029C200.475 201.47 207.76 200.235 213.893 196.568L227.815 202.618L221.388 190.085Z" fill="#4A148C"/>
<path opacity="0.4" d="M221.388 190.085C225.9 184.544 228.171 177.512 227.754 170.379C227.336 163.245 224.26 156.527 219.132 151.55C214.004 146.572 207.198 143.698 200.054 143.493C192.911 143.288 185.951 145.767 180.546 150.442C175.142 155.117 171.685 161.648 170.859 168.746C170.033 175.844 171.898 182.994 176.084 188.785C180.271 194.576 186.476 198.588 193.475 200.029C200.475 201.47 207.76 200.235 213.893 196.568L227.815 202.618L221.388 190.085Z" fill="black"/>
<path d="M188.651 170.514C188.651 170.08 188.339 169.835 187.772 169.835C186.457 170.008 185.228 170.587 184.258 171.492L182.679 168.423C184.341 167.173 186.349 166.466 188.428 166.399C191.097 166.399 193.121 167.801 193.121 169.891C193.121 171.381 192.009 172.816 190.586 174.25L188.595 176.218H193.299V179.488H183.191V176.808L187.694 172.148C188.179 171.719 188.514 171.147 188.651 170.514Z" fill="white"/>
<path d="M201.528 166.589L198.459 173.95H199.715V171.471H203.585V173.95H205.053V176.986H203.585V179.488H199.715V176.986H194.211V174.228L197.547 166.589H201.528Z" fill="white"/>
<path d="M216.996 173.072V179.488H212.859V174.262C212.883 174.092 212.87 173.918 212.821 173.753C212.772 173.589 212.689 173.436 212.576 173.307C212.463 173.177 212.324 173.073 212.167 173.002C212.011 172.931 211.841 172.894 211.669 172.894C210.857 172.894 210.346 173.528 210.346 174.506V179.488H206.209V165.855H210.346V170.87C210.669 170.359 211.12 169.94 211.655 169.655C212.189 169.371 212.788 169.23 213.393 169.247C213.889 169.234 214.381 169.326 214.839 169.517C215.297 169.707 215.71 169.993 216.05 170.354C216.39 170.715 216.65 171.143 216.813 171.612C216.976 172.08 217.038 172.578 216.996 173.072Z" fill="white"/>
<path d="M351.881 276.399V414.565C351.884 416.127 351.474 417.663 350.694 419.017C349.915 420.371 348.792 421.496 347.439 422.279C346.086 423.061 344.551 423.473 342.989 423.474C341.426 423.474 339.891 423.063 338.537 422.282L264.122 379.314L250.934 371.708C246.393 369.082 242.62 365.31 239.993 360.769C237.367 356.229 235.978 351.078 235.966 345.832V207.655C235.964 206.092 236.374 204.556 237.153 203.202C237.933 201.848 239.056 200.723 240.409 199.941C241.762 199.158 243.296 198.746 244.859 198.746C246.422 198.745 247.957 199.156 249.31 199.937L336.936 250.522C341.479 253.144 345.252 256.916 347.876 261.458C350.499 266 351.881 271.153 351.881 276.399Z" fill="#4A148C"/>
<path opacity="0.5" d="M351.881 276.399V414.565C351.884 416.127 351.474 417.663 350.694 419.017C349.915 420.371 348.792 421.496 347.439 422.279C346.086 423.061 344.551 423.473 342.989 423.474C341.426 423.474 339.891 423.063 338.537 422.282L264.122 379.314L250.934 371.708C246.393 369.082 242.62 365.31 239.993 360.769C237.367 356.229 235.978 351.078 235.966 345.832V207.655C235.964 206.092 236.374 204.556 237.153 203.202C237.933 201.848 239.056 200.723 240.409 199.941C241.762 199.158 243.296 198.746 244.859 198.746C246.422 198.745 247.957 199.156 249.31 199.937L336.936 250.522C341.479 253.144 345.252 256.916 347.876 261.458C350.499 266 351.881 271.153 351.881 276.399Z" fill="white"/>
<path d="M309.014 358.153C309.014 358.153 322.947 381.26 312.883 407.314L264.089 379.314L309.014 358.153Z" fill="#263238"/>
<path d="M331.234 254.333C332.289 245.769 326.201 237.972 317.637 236.917C309.073 235.863 301.276 241.951 300.221 250.514C299.167 259.078 305.254 266.876 313.818 267.93C322.382 268.985 330.18 262.897 331.234 254.333Z" fill="#263238"/>
<path d="M315.808 208.6C315.808 208.6 320.601 200.816 322.069 201.383C323.536 201.95 321.112 209.367 321.112 209.367C321.112 209.367 328.362 210.88 327.017 212.703C325.671 214.527 316.809 214.093 316.809 214.093L315.808 208.6Z" fill="#263238"/>
<path d="M319.144 228.661C315.808 253.725 294.68 253.725 294.68 253.725L250.422 234.243C250.422 234.243 247.086 231.318 246.063 224.602C245.671 221.851 245.671 219.058 246.063 216.306C246.063 216.306 246.063 216.251 246.063 216.229C247.476 205.687 255.36 194.356 272.529 190.875C276.292 190.115 280.122 189.743 283.96 189.763C285.817 189.756 287.673 189.849 289.52 190.041C302.864 191.353 312.216 197.58 316.675 207.266C317.678 209.452 318.425 211.747 318.899 214.105C319.804 218.908 319.887 223.83 319.144 228.661Z" fill="#263238"/>
<path d="M212.892 277.144C212.892 277.144 197.18 276.599 191.131 291.911C191.131 291.911 197.803 296.414 206.554 291.911C215.305 287.407 212.892 277.144 212.892 277.144Z" fill="#4A148C"/>
<path opacity="0.5" d="M212.892 277.144C212.892 277.144 197.18 276.599 191.131 291.911C191.131 291.911 197.803 296.414 206.554 291.911C215.305 287.407 212.892 277.144 212.892 277.144Z" fill="black"/>
<path d="M212.448 284.516C212.448 284.516 208 265.19 205.653 264.956C203.307 264.723 202.851 270.85 203.04 274.308L197.48 262.343C197.304 261.971 197.053 261.639 196.744 261.368C196.434 261.097 196.072 260.892 195.681 260.766C195.289 260.64 194.875 260.595 194.466 260.635C194.056 260.675 193.659 260.798 193.299 260.998C187.739 264.056 177.987 273.352 198.548 296.337L212.448 284.516Z" fill="#DEB0B0"/>
<path d="M269.382 271.15L266.046 270.717C262.684 270.271 259.264 270.728 256.137 272.041C253.01 273.355 250.289 275.476 248.254 278.189L228.405 304.61L212.837 277.144C212.837 277.144 210.969 295.826 191.075 291.911L212.436 327.862C213.788 330.138 215.67 332.054 217.921 333.446C220.173 334.839 222.727 335.667 225.367 335.86C228.007 336.054 230.655 335.606 233.085 334.556C235.515 333.507 237.656 331.885 239.325 329.83L257.606 307.357L269.382 271.15Z" fill="#4A148C"/>
<path d="M311.749 332.811C307.301 344.086 306.812 346.288 309.525 351.926C311.415 356.09 312.904 360.424 313.973 364.87C313.973 364.87 293.357 387.977 264.011 379.326L250.823 371.719C248.08 370.138 245.61 368.125 243.506 365.759L247.52 335.824C247.722 334.248 247.562 332.647 247.053 331.143L242.839 318.788C240.782 312.754 240.476 306.261 241.956 300.06C243.436 293.859 246.641 288.204 251.201 283.749L265.368 269.905L302.575 274.664L308.135 276.254C311.775 277.307 314.913 279.638 316.972 282.819C319.031 285.999 319.874 289.816 319.344 293.568C317.52 306.69 314.54 325.727 311.749 332.811Z" fill="#4A148C"/>
<path opacity="0.5" d="M311.749 332.811C307.301 344.086 306.812 346.288 309.525 351.926C311.415 356.09 312.904 360.424 313.973 364.87C313.973 364.87 293.357 387.977 264.011 379.326L250.823 371.719C248.08 370.138 245.61 368.125 243.506 365.759L247.52 335.824C247.722 334.248 247.562 332.647 247.053 331.143L242.839 318.788C240.782 312.754 240.476 306.261 241.956 300.06C243.436 293.859 246.641 288.204 251.201 283.749L265.368 269.905L302.575 274.664L308.135 276.254C311.775 277.307 314.913 279.638 316.972 282.819C319.031 285.999 319.874 289.816 319.344 293.568C317.52 306.69 314.54 325.727 311.749 332.811Z" fill="black"/>
<path d="M289.309 299.128L281.859 292.778C281.07 292.103 280.118 291.646 279.098 291.451C278.078 291.256 277.025 291.33 276.043 291.666L267.036 294.769L265.824 289.72C265.634 288.935 265.288 288.196 264.806 287.548C264.323 286.9 263.714 286.356 263.016 285.95C262.318 285.544 261.544 285.283 260.743 285.184C259.941 285.085 259.127 285.149 258.351 285.372L254.448 286.484L261.053 273.83C263.21 269.708 266.532 266.313 270.605 264.066L273.196 262.643L294.602 263.755C294.602 263.755 302.575 267.091 302.575 274.597L289.309 299.061" fill="#4A148C"/>
<path d="M294.691 273.241L273.23 289.965V236.711H294.691V273.241Z" fill="#DEB0B0"/>
<path d="M273.563 268.848L267.036 294.813L294.602 273.241L273.563 268.848Z" fill="#DEB0B0"/>
<path d="M273.23 264.99C278.002 263.218 282.364 260.494 286.052 256.984C289.739 253.475 292.675 249.252 294.68 244.573V236.711H273.218L273.23 264.99Z" fill="#703838"/>
<path d="M277.855 197.247C269.716 197.247 252.413 201.784 250.411 223.089C248.41 244.395 250.345 260.897 261.331 262.499C272.318 264.1 297.849 256.127 301.274 228.549C304.699 200.972 285.784 197.247 277.855 197.247Z" fill="#DEB0B0"/>
<path d="M265.045 232.108V244.662L257.684 242.405L265.045 232.108Z" fill="#703838"/>
<path d="M273.23 236.834C274.642 236.834 275.787 235.689 275.787 234.276C275.787 232.864 274.642 231.719 273.23 231.719C271.817 231.719 270.672 232.864 270.672 234.276C270.672 235.689 271.817 236.834 273.23 236.834Z" fill="#263238"/>
<path d="M258.951 232.497C258.949 233.002 258.797 233.496 258.515 233.915C258.233 234.334 257.832 234.66 257.365 234.852C256.897 235.044 256.384 235.093 255.888 234.993C255.393 234.893 254.938 234.649 254.581 234.29C254.225 233.932 253.982 233.477 253.885 232.981C253.787 232.485 253.838 231.971 254.032 231.505C254.226 231.038 254.554 230.639 254.974 230.358C255.394 230.078 255.889 229.928 256.394 229.928C256.731 229.928 257.064 229.995 257.375 230.124C257.686 230.253 257.969 230.443 258.206 230.681C258.444 230.92 258.632 231.203 258.76 231.515C258.888 231.826 258.953 232.16 258.951 232.497Z" fill="#263238"/>
<path d="M253.269 227.159L258.273 224.19C258.273 224.19 256.36 222.2 254.448 223.389C252.535 224.579 253.269 227.159 253.269 227.159Z" fill="#263238"/>
<path d="M261.587 249.755C264.024 249.933 266.449 249.283 268.47 247.909C268.47 247.909 268.948 251.545 265.901 252.235C262.855 252.924 261.587 249.755 261.587 249.755Z" fill="#703838"/>
<path d="M257.217 204.497C257.217 204.497 260.275 233.909 300.273 234.832C300.273 234.832 312.361 205.598 288.475 196.101C264.589 186.605 257.217 204.497 257.217 204.497Z" fill="#263238"/>
<path d="M312.049 230.429L307.134 227.582C305.266 226.47 302.686 226.626 299.829 228.271C294.157 231.541 289.554 239.514 289.554 246.063C289.554 249.344 290.666 251.623 292.578 252.735L297.404 255.515L297.682 255.671L297.849 255.771C299.673 256.661 302.108 256.449 304.788 254.904C310.459 251.568 315.063 243.661 315.063 237.112C315.03 233.798 313.884 231.507 312.049 230.429Z" fill="#4A148C"/>
<path d="M312.011 247.178C316.021 240.231 316.021 232.724 312.011 230.408C308.001 228.093 301.499 231.847 297.488 238.793C293.478 245.739 293.478 253.247 297.488 255.562C301.498 257.878 308 254.124 312.011 247.178Z" fill="#4A148C"/>
<path opacity="0.5" d="M312.011 247.178C316.021 240.231 316.021 232.724 312.011 230.408C308.001 228.093 301.499 231.847 297.488 238.793C293.478 245.739 293.478 253.247 297.488 255.562C301.498 257.878 308 254.124 312.011 247.178Z" fill="black"/>
<path d="M314.018 236.6L310.682 234.654C309.414 233.898 307.646 233.998 305.689 235.121C303.644 236.457 301.943 238.256 300.722 240.371C299.501 242.486 298.795 244.859 298.661 247.298C298.661 249.522 299.451 251.112 300.729 251.846L304.065 253.747C304.125 253.791 304.188 253.828 304.254 253.859L304.366 253.925C305.148 254.222 305.99 254.322 306.82 254.218C307.65 254.113 308.441 253.806 309.125 253.325C311.168 251.99 312.868 250.193 314.089 248.08C315.31 245.967 316.017 243.596 316.153 241.16C316.064 238.902 315.285 237.334 314.018 236.6Z" fill="#4A148C"/>
<path d="M316.064 241.137C315.928 243.574 315.221 245.945 314 248.058C312.779 250.171 311.079 251.968 309.036 253.303C305.144 255.527 301.997 253.725 301.997 249.244C302.129 246.805 302.835 244.432 304.058 242.318C305.282 240.204 306.987 238.408 309.036 237.079C312.917 234.832 316.064 236.645 316.064 241.137Z" fill="#4A148C"/>
<path opacity="0.3" d="M316.064 241.137C315.928 243.574 315.221 245.945 314 248.058C312.779 250.171 311.079 251.968 309.036 253.303C305.144 255.527 301.997 253.725 301.997 249.244C302.129 246.805 302.835 244.432 304.058 242.318C305.282 240.204 306.987 238.408 309.036 237.079C312.917 234.832 316.064 236.645 316.064 241.137Z" fill="black"/>
<path d="M296.782 191.509C293.594 189.046 289.69 187.692 285.662 187.65H284.672C280.593 187.606 276.521 187.979 272.518 188.762C273.252 188.762 273.986 188.762 274.742 188.762H272.518V190.83H274.586C281.714 191.073 288.469 194.077 293.422 199.209C298.376 204.341 301.139 211.198 301.13 218.33V227.081C301.129 227.427 301.202 227.77 301.342 228.086C301.483 228.402 301.688 228.685 301.945 228.917C302.202 229.148 302.504 229.324 302.833 229.431C303.162 229.538 303.51 229.575 303.854 229.539H304.11L306.334 228.85C306.186 228.896 306.033 228.926 305.878 228.939C306.541 228.849 307.148 228.518 307.582 228.009C308.017 227.501 308.25 226.85 308.235 226.181V218.063C308.213 203.374 301.864 195.478 296.782 191.509Z" fill="#4A148C"/>
<path d="M282.782 261.887C281.865 261.887 280.958 261.69 280.124 261.309L273.174 258.095C273.065 258.056 272.966 257.995 272.882 257.916C272.798 257.837 272.731 257.741 272.687 257.634C272.642 257.528 272.619 257.413 272.621 257.298C272.622 257.183 272.648 257.069 272.696 256.964C272.744 256.859 272.813 256.765 272.899 256.688C272.985 256.611 273.086 256.553 273.196 256.517C273.306 256.481 273.422 256.468 273.537 256.48C273.652 256.491 273.763 256.526 273.863 256.583L280.813 259.796C281.7 260.209 282.693 260.334 283.654 260.154C284.615 259.975 285.495 259.5 286.173 258.796L292.845 251.901C293.002 251.745 293.214 251.657 293.435 251.657C293.656 251.657 293.868 251.745 294.024 251.901C294.178 252.059 294.263 252.27 294.263 252.49C294.263 252.711 294.178 252.922 294.024 253.08L287.352 259.974C286.758 260.584 286.047 261.068 285.262 261.397C284.477 261.725 283.633 261.892 282.782 261.887Z" fill="#4A148C"/>
<path opacity="0.5" d="M282.782 261.887C281.865 261.887 280.958 261.69 280.124 261.309L273.174 258.095C273.065 258.056 272.966 257.995 272.882 257.916C272.798 257.837 272.731 257.741 272.687 257.634C272.642 257.528 272.619 257.413 272.621 257.298C272.622 257.183 272.648 257.069 272.696 256.964C272.744 256.859 272.813 256.765 272.899 256.688C272.985 256.611 273.086 256.553 273.196 256.517C273.306 256.481 273.422 256.468 273.537 256.48C273.652 256.491 273.763 256.526 273.863 256.583L280.813 259.796C281.7 260.209 282.693 260.334 283.654 260.154C284.615 259.975 285.495 259.5 286.173 258.796L292.845 251.901C293.002 251.745 293.214 251.657 293.435 251.657C293.656 251.657 293.868 251.745 294.024 251.901C294.178 252.059 294.263 252.27 294.263 252.49C294.263 252.711 294.178 252.922 294.024 253.08L287.352 259.974C286.758 260.584 286.047 261.068 285.262 261.397C284.477 261.725 283.633 261.892 282.782 261.887Z" fill="black"/>
<path d="M274.998 255.76C274.998 256.402 274.807 257.03 274.45 257.564C274.094 258.098 273.586 258.514 272.993 258.76C272.4 259.005 271.747 259.07 271.117 258.944C270.487 258.819 269.909 258.51 269.455 258.056C269 257.602 268.691 257.023 268.566 256.393C268.441 255.763 268.505 255.11 268.751 254.517C268.996 253.924 269.413 253.417 269.947 253.06C270.481 252.703 271.108 252.513 271.751 252.513C272.612 252.513 273.438 252.855 274.047 253.464C274.656 254.073 274.998 254.899 274.998 255.76Z" fill="#4A148C"/>
<path opacity="0.5" d="M274.998 255.76C274.998 256.402 274.807 257.03 274.45 257.564C274.094 258.098 273.586 258.514 272.993 258.76C272.4 259.005 271.747 259.07 271.117 258.944C270.487 258.819 269.909 258.51 269.455 258.056C269 257.602 268.691 257.023 268.566 256.393C268.441 255.763 268.505 255.11 268.751 254.517C268.996 253.924 269.413 253.417 269.947 253.06C270.481 252.703 271.108 252.513 271.751 252.513C272.612 252.513 273.438 252.855 274.047 253.464C274.656 254.073 274.998 254.899 274.998 255.76Z" fill="black"/>
<path d="M308.213 218.063V226.181C308.227 226.85 307.995 227.5 307.56 228.009C307.125 228.518 306.519 228.849 305.856 228.938C305.489 228.978 305.119 228.939 304.769 228.825C304.418 228.712 304.095 228.526 303.822 228.279C303.548 228.033 303.329 227.731 303.18 227.395C303.03 227.058 302.953 226.694 302.953 226.325V218.063C302.96 214.12 302.168 210.216 300.626 206.587C299.085 202.958 296.825 199.678 293.983 196.944C291.14 194.211 287.774 192.081 284.088 190.683C280.401 189.284 276.469 188.646 272.529 188.806C276.532 188.023 280.605 187.65 284.683 187.694H285.651C289.679 187.736 293.583 189.091 296.771 191.553C301.864 195.478 308.213 203.374 308.213 218.063Z" fill="#4A148C"/>
<path opacity="0.5" d="M308.213 218.063V226.181C308.227 226.85 307.995 227.5 307.56 228.009C307.125 228.518 306.519 228.849 305.856 228.938C305.489 228.978 305.119 228.939 304.769 228.825C304.418 228.712 304.095 228.526 303.822 228.279C303.548 228.033 303.329 227.731 303.18 227.395C303.03 227.058 302.953 226.694 302.953 226.325V218.063C302.96 214.12 302.168 210.216 300.626 206.587C299.085 202.958 296.825 199.678 293.983 196.944C291.14 194.211 287.774 192.081 284.088 190.683C280.401 189.284 276.469 188.646 272.529 188.806C276.532 188.023 280.605 187.65 284.683 187.694H285.651C289.679 187.736 293.583 189.091 296.771 191.553C301.864 195.478 308.213 203.374 308.213 218.063Z" fill="black"/>
<path d="M295.714 371.041C295.714 371.041 290.332 385.864 309.57 392.536C309.57 392.536 315.853 383.307 309.57 375.756C303.287 368.206 295.714 371.041 295.714 371.041Z" fill="#4A148C"/>
<path opacity="0.7" d="M295.714 371.041C295.714 371.041 290.332 385.864 309.57 392.536C309.57 392.536 315.853 383.307 309.57 375.756C303.287 368.206 295.714 371.041 295.714 371.041Z" fill="black"/>
<path d="M302.464 371.719C302.464 371.719 283.671 378.603 283.771 381.271C283.871 383.94 291.756 382.116 291.756 382.116L288.875 384.007C285.843 385.986 283.493 388.851 282.148 392.213C281.855 392.955 281.844 393.778 282.119 394.527C282.394 395.275 282.935 395.897 283.638 396.272L290.777 400.053C291.18 400.267 291.622 400.398 292.077 400.438C292.531 400.478 292.989 400.427 293.424 400.287C293.858 400.147 294.26 399.921 294.606 399.623C294.951 399.325 295.234 398.961 295.436 398.552C295.834 397.766 296.384 397.066 297.054 396.493C297.724 395.921 298.501 395.487 299.339 395.216C303.22 393.926 310.459 390.212 313.362 380.048L302.464 371.719Z" fill="#DEB0B0"/>
<path d="M308.102 276.232C308.102 276.232 298.094 281.792 303.409 298.672C308.725 315.552 318.699 341.74 318.699 341.74L295.714 371.041C298.17 371.337 300.535 372.148 302.657 373.42C304.778 374.692 306.607 376.398 308.024 378.425C309.382 380.486 310.23 382.84 310.499 385.294C310.768 387.747 310.449 390.23 309.57 392.536L338.104 355.84C340.742 352.449 342.494 348.453 343.201 344.215C343.908 339.977 343.547 335.629 342.151 331.565L329.919 295.848C328.424 291.485 325.939 287.527 322.66 284.284C319.38 281.041 315.395 278.601 311.015 277.155L308.102 276.232Z" fill="#4A148C"/>
<path d="M139.167 176.519L94.9426 150.943C94.4337 150.59 93.8448 150.37 93.2294 150.302C92.6139 150.234 91.9912 150.32 91.4175 150.554C91.2966 150.609 91.1812 150.676 91.0728 150.754L81.454 156.392H81.5207C80.3087 157.081 79.5414 158.682 79.5414 160.973V210.168C79.5414 214.327 82.0656 219.164 85.1903 220.965L129.415 246.541C129.976 246.947 130.644 247.179 131.336 247.209C132.027 247.239 132.713 247.065 133.307 246.708C133.277 246.72 133.25 246.739 133.229 246.764L142.781 241.204C144.026 240.537 144.816 238.913 144.816 236.589V187.316C144.816 183.157 142.336 178.32 139.167 176.519Z" fill="#4A148C"/>
<path d="M143.237 181.178C142.342 179.275 140.932 177.661 139.167 176.519L94.9425 150.943C94.4336 150.59 93.8448 150.37 93.2293 150.302C92.6138 150.234 91.9911 150.32 91.4175 150.554C91.2966 150.609 91.1812 150.676 91.0728 150.754L81.454 156.392C82.0424 156.091 82.7021 155.958 83.3611 156.007C84.0201 156.056 84.6529 156.285 85.1903 156.67L129.415 182.246C131.24 183.439 132.687 185.129 133.585 187.116L143.237 181.178Z" fill="#4A148C"/>
<path d="M135.064 242.216C135.064 244.44 134.352 245.986 133.229 246.664L142.781 241.104C144.026 240.437 144.816 238.813 144.816 236.489V187.316C144.769 185.176 144.228 183.076 143.237 181.178L133.585 187.116C134.511 188.958 135.017 190.982 135.064 193.043V242.216Z" fill="#4A148C"/>
<path opacity="0.3" d="M143.237 181.178C142.342 179.275 140.932 177.661 139.167 176.519L94.9425 150.943C94.4336 150.59 93.8448 150.37 93.2293 150.302C92.6138 150.234 91.9911 150.32 91.4175 150.554C91.2966 150.609 91.1812 150.676 91.0728 150.754L81.454 156.392C82.0424 156.091 82.7021 155.958 83.3611 156.007C84.0201 156.056 84.6529 156.285 85.1903 156.67L129.415 182.246C131.24 183.439 132.687 185.129 133.585 187.116L143.237 181.178Z" fill="black"/>
<path opacity="0.6" d="M135.064 242.216C135.064 244.44 134.352 245.986 133.229 246.664L142.781 241.104C144.026 240.437 144.816 238.813 144.816 236.489V187.316C144.769 185.176 144.228 183.076 143.237 181.178L133.585 187.116C134.511 188.958 135.017 190.982 135.064 193.043V242.216Z" fill="black"/>
<path d="M122.098 207.132C122.098 213.504 119.573 215.672 115.793 213.482C114.75 212.888 113.838 212.089 113.111 211.134C112.385 210.178 111.86 209.086 111.567 207.922C110.455 209.289 108.731 209.378 106.307 207.977C102.326 205.675 99.1904 200.193 99.1904 194.867C99.1904 189.54 102.293 187.706 106.307 190.018C108.344 191.219 109.99 192.984 111.044 195.1V192.999L115.237 195.423V206.943C115.174 207.549 115.279 208.161 115.54 208.712C115.8 209.263 116.207 209.732 116.716 210.068C118.128 210.891 118.995 209.501 118.995 205.375C118.995 198.158 114.369 190.508 107.53 186.56C100.692 182.613 96.0768 185.359 96.0768 192.787C96.1664 196.729 97.2525 200.584 99.2339 203.992C101.215 207.401 104.027 210.252 107.408 212.281C109.244 213.411 111.328 214.076 113.48 214.216L114.469 218.052C111.964 217.85 109.544 217.053 107.408 215.728C98.5121 210.579 92.6296 200.216 92.6296 190.83C92.6296 181.445 98.5677 178.042 107.53 183.224C116.193 188.217 122.098 198.214 122.098 207.132ZM111.111 201.783C111.133 200.373 110.789 198.982 110.112 197.744C109.436 196.507 108.451 195.466 107.252 194.722C105.028 193.421 103.438 194.333 103.438 197.358C103.41 198.77 103.746 200.166 104.414 201.411C105.082 202.655 106.06 203.707 107.252 204.463C109.476 205.72 111.111 204.908 111.111 201.783Z" fill="#4A148C"/>
<g opacity="0.9">
<path d="M122.098 207.132C122.098 213.504 119.573 215.672 115.793 213.482C114.75 212.888 113.838 212.089 113.111 211.134C112.385 210.178 111.86 209.086 111.567 207.922C110.455 209.289 108.731 209.378 106.307 207.977C102.326 205.675 99.1904 200.193 99.1904 194.867C99.1904 189.54 102.293 187.706 106.307 190.018C108.344 191.219 109.99 192.984 111.044 195.1V192.999L115.237 195.423V206.943C115.174 207.549 115.279 208.161 115.54 208.712C115.8 209.263 116.207 209.732 116.716 210.068C118.128 210.891 118.995 209.501 118.995 205.375C118.995 198.158 114.369 190.508 107.53 186.56C100.692 182.613 96.0768 185.359 96.0768 192.787C96.1664 196.729 97.2525 200.584 99.2339 203.992C101.215 207.401 104.027 210.252 107.408 212.281C109.244 213.411 111.328 214.076 113.48 214.216L114.469 218.052C111.964 217.85 109.544 217.053 107.408 215.728C98.5121 210.579 92.6296 200.216 92.6296 190.83C92.6296 181.445 98.5677 178.042 107.53 183.224C116.193 188.217 122.098 198.214 122.098 207.132ZM111.111 201.783C111.133 200.373 110.789 198.982 110.112 197.744C109.436 196.507 108.451 195.466 107.252 194.722C105.028 193.421 103.438 194.333 103.438 197.358C103.41 198.77 103.746 200.166 104.414 201.411C105.082 202.655 106.06 203.707 107.252 204.463C109.476 205.72 111.111 204.908 111.111 201.783Z" fill="white"/>
</g>
<path d="M139.167 264.122L94.9426 238.546C94.4344 238.192 93.8448 237.971 93.2286 237.905C92.6124 237.839 91.9894 237.929 91.4175 238.168C91.2966 238.224 91.1812 238.291 91.0728 238.368L81.454 244.006H81.5207C80.3087 244.696 79.5414 246.297 79.5414 248.576V297.749C79.5414 301.919 82.0656 306.745 85.1903 308.547L129.415 334.123C129.975 334.531 130.643 334.765 131.335 334.795C132.028 334.824 132.714 334.649 133.307 334.289L133.229 334.356L142.781 328.741C144.026 328.084 144.816 326.517 144.816 324.126V274.909C144.816 270.75 142.336 265.924 139.167 264.122Z" fill="#4A148C"/>
<path d="M143.237 268.781C142.345 266.877 140.934 265.262 139.167 264.122L94.9425 238.546C94.4343 238.192 93.8448 237.971 93.2285 237.905C92.6123 237.839 91.9894 237.929 91.4175 238.168C91.2966 238.224 91.1812 238.291 91.0728 238.368L81.454 244.006C82.041 243.703 82.7005 243.567 83.3597 243.614C84.0189 243.661 84.6524 243.889 85.1903 244.273L129.415 269.849C131.243 271.044 132.69 272.738 133.585 274.731L143.237 268.781Z" fill="#4A148C"/>
<path d="M135.064 329.808C135.064 332.032 134.352 333.578 133.229 334.312L142.781 328.696C144.026 328.04 144.816 326.472 144.816 324.081V274.909C144.769 272.772 144.228 270.675 143.237 268.782L133.585 274.72C134.511 276.557 135.016 278.578 135.064 280.636V329.808Z" fill="#4A148C"/>
<path opacity="0.3" d="M143.237 268.781C142.345 266.877 140.934 265.262 139.167 264.122L94.9425 238.546C94.4343 238.192 93.8448 237.971 93.2285 237.905C92.6123 237.839 91.9894 237.929 91.4175 238.168C91.2966 238.224 91.1812 238.291 91.0728 238.368L81.454 244.006C82.041 243.703 82.7005 243.567 83.3597 243.614C84.0189 243.661 84.6524 243.889 85.1903 244.273L129.415 269.849C131.243 271.044 132.69 272.738 133.585 274.731L143.237 268.781Z" fill="black"/>
<path opacity="0.6" d="M135.064 329.808C135.064 332.032 134.352 333.578 133.229 334.312L142.781 328.696C144.026 328.04 144.816 326.472 144.816 324.081V274.909C144.769 272.772 144.228 270.675 143.237 268.782L133.585 274.72C134.511 276.557 135.016 278.578 135.064 280.636V329.808Z" fill="black"/>
<path d="M102.36 286.107L91.6956 268.782V292.256L102.36 286.107Z" fill="#4A148C"/>
<path d="M112.268 291.1L122.909 309.525V286.084L112.268 291.1Z" fill="#4A148C"/>
<path d="M93.308 267.992L104.261 285.784C104.308 285.823 104.349 285.868 104.384 285.918C104.393 285.962 104.393 286.007 104.384 286.051L107.642 291.344L110.399 290.043C110.442 289.997 110.491 289.955 110.544 289.921C110.653 289.857 110.774 289.819 110.9 289.81L122.02 284.594L93.308 267.992Z" fill="#4A148C"/>
<path d="M110.655 291.855L107.675 293.257C107.56 293.31 107.435 293.337 107.308 293.334C107.155 293.336 107.003 293.298 106.869 293.224C106.734 293.15 106.621 293.042 106.541 292.912L103.283 287.619L92.5852 293.801L121.375 310.415L110.655 291.855Z" fill="#4A148C"/>
<g opacity="0.9">
<path d="M102.36 286.107L91.6956 268.782V292.256L102.36 286.107Z" fill="white"/>
<path d="M112.268 291.1L122.909 309.525V286.084L112.268 291.1Z" fill="white"/>
<path d="M93.308 267.992L104.261 285.784C104.308 285.823 104.349 285.868 104.384 285.918C104.393 285.962 104.393 286.007 104.384 286.051L107.642 291.344L110.399 290.043C110.442 289.997 110.491 289.955 110.544 289.921C110.653 289.857 110.774 289.819 110.9 289.81L122.02 284.594L93.308 267.992Z" fill="white"/>
<path d="M110.655 291.856L107.675 293.257C107.56 293.31 107.435 293.337 107.308 293.335C107.155 293.337 107.003 293.299 106.869 293.225C106.734 293.15 106.621 293.043 106.541 292.912L103.283 287.619L92.5852 293.802L121.375 310.415L110.655 291.856Z" fill="white"/>
</g>
<path d="M139.167 88.9601L94.9426 63.3841C94.4344 63.0294 93.8448 62.8088 93.2286 62.7427C92.6124 62.6766 91.9894 62.7672 91.4175 63.006C91.2966 63.0618 91.1812 63.1288 91.0728 63.2062L81.454 68.844H81.5207C80.3087 69.5223 79.5414 71.1347 79.5414 73.4143V122.587C79.5414 126.746 82.0656 131.583 85.1903 133.384L129.415 158.96C129.975 159.369 130.643 159.603 131.335 159.633C132.028 159.662 132.714 159.486 133.307 159.127L133.229 159.183L142.781 153.623C144.026 152.967 144.816 151.399 144.816 149.008V99.7131C144.816 95.5542 142.336 90.717 139.167 88.9601Z" fill="#4A148C"/>
<path d="M143.237 93.586C142.345 91.6781 140.935 90.0596 139.167 88.9156L94.9425 63.3841C94.4343 63.0294 93.8448 62.8088 93.2285 62.7427C92.6123 62.6766 91.9894 62.7672 91.4175 63.006C91.2966 63.0618 91.1812 63.1288 91.0728 63.2062L81.454 68.844C82.041 68.5404 82.7005 68.4047 83.3597 68.4518C84.0189 68.4989 84.6524 68.727 85.1903 69.1109L129.415 94.6869C131.243 95.8819 132.69 97.5761 133.585 99.5686L143.237 93.586Z" fill="#4A148C"/>
<path d="M135.064 154.568C135.064 156.792 134.352 158.338 133.229 159.016L142.781 153.456C144.026 152.8 144.816 151.232 144.816 148.841V99.7131C144.769 97.5763 144.228 95.4793 143.237 93.5859L133.585 99.524C134.511 101.362 135.016 103.382 135.064 105.44V154.568Z" fill="#4A148C"/>
<path opacity="0.3" d="M143.237 93.586C142.345 91.6781 140.935 90.0596 139.167 88.9156L94.9425 63.3841C94.4343 63.0294 93.8448 62.8088 93.2285 62.7427C92.6123 62.6766 91.9894 62.7672 91.4175 63.006C91.2966 63.0618 91.1812 63.1288 91.0728 63.2062L81.454 68.844C82.041 68.5404 82.7005 68.4047 83.3597 68.4518C84.0189 68.4989 84.6524 68.727 85.1903 69.1109L129.415 94.6869C131.243 95.8819 132.69 97.5761 133.585 99.5686L143.237 93.586Z" fill="black"/>
<path opacity="0.6" d="M135.064 154.568C135.064 156.792 134.352 158.338 133.229 159.016L142.781 153.456C144.026 152.8 144.816 151.232 144.816 148.841V99.7131C144.769 97.5763 144.228 95.4793 143.237 93.5859L133.585 99.524C134.511 101.362 135.016 103.382 135.064 105.44V154.568Z" fill="black"/>
<path d="M120.596 133.44C118.895 130.638 117.183 127.88 115.481 125.056C115.211 124.521 114.834 124.047 114.373 123.664C113.912 123.282 113.377 122.998 112.801 122.832C111.978 122.665 111.155 122.476 110.31 122.231C110.009 122.106 109.756 121.887 109.588 121.608C106.804 116.844 104.59 111.768 102.993 106.485C102.959 106.372 102.95 106.253 102.965 106.136C102.98 106.019 103.02 105.907 103.082 105.807C103.605 105.284 104.194 104.806 104.728 104.339C105.262 103.872 105.54 102.793 105.151 101.392C104.328 98.4231 103.538 95.4541 102.715 92.4962C102.556 91.6557 102.178 90.872 101.62 90.2239C101.062 89.5758 100.343 89.0862 99.5351 88.8043C97.7419 88.3058 95.8381 88.3757 94.0863 89.0045C93.408 89.2602 93.0521 89.8718 93.041 90.9282C93.3301 92.9632 93.5192 94.9759 93.9084 97.0442C96.6513 111.96 103.249 125.675 113.702 138.188C113.975 138.603 114.341 138.948 114.772 139.195C115.203 139.443 115.686 139.585 116.182 139.612C117.912 139.57 119.575 138.93 120.885 137.799C121.875 136.909 121.775 135.33 120.596 133.44Z" fill="#4A148C"/>
<path d="M120.463 118.283C120.23 115.085 119.349 111.967 117.872 109.121C116.769 106.897 115.366 104.835 113.702 102.993C113.268 102.504 112.901 102.349 112.679 102.715C112.457 103.082 112.679 103.605 113.102 104.083L113.535 104.584C116.609 108.132 118.546 112.521 119.095 117.183C119.09 117.523 119.123 117.862 119.195 118.195C119.335 118.577 119.559 118.923 119.851 119.206C120.085 119.373 120.352 119.206 120.541 119.206C120.474 118.751 120.485 118.517 120.463 118.283Z" fill="#4A148C"/>
<path d="M110.388 109.154C111.785 110.69 112.633 112.645 112.801 114.714C112.874 115.029 112.99 115.332 113.146 115.615C113.824 116.171 114.158 115.982 114.158 115.281C113.92 112.628 112.823 110.126 111.033 108.153C110.611 107.72 110.266 107.586 110.066 107.953C109.994 108.163 109.986 108.389 110.043 108.603C110.101 108.817 110.221 109.009 110.388 109.154Z" fill="#4A148C"/>
<g opacity="0.9">
<path d="M120.596 133.44C118.895 130.638 117.183 127.88 115.481 125.056C115.211 124.521 114.834 124.047 114.373 123.664C113.912 123.282 113.377 122.998 112.801 122.832C111.978 122.665 111.155 122.476 110.31 122.231C110.009 122.106 109.756 121.887 109.588 121.608C106.804 116.844 104.59 111.768 102.993 106.485C102.959 106.372 102.95 106.253 102.965 106.136C102.98 106.019 103.02 105.907 103.082 105.807C103.605 105.284 104.194 104.806 104.728 104.339C105.262 103.872 105.54 102.793 105.151 101.392C104.328 98.4231 103.538 95.4541 102.715 92.4962C102.556 91.6557 102.178 90.872 101.62 90.2239C101.062 89.5758 100.343 89.0862 99.5351 88.8043C97.7419 88.3058 95.8381 88.3757 94.0863 89.0045C93.408 89.2602 93.0521 89.8718 93.041 90.9282C93.3301 92.9632 93.5192 94.9759 93.9084 97.0442C96.6513 111.96 103.249 125.675 113.702 138.188C113.975 138.603 114.341 138.948 114.772 139.195C115.203 139.443 115.686 139.585 116.182 139.612C117.912 139.57 119.575 138.93 120.885 137.799C121.875 136.909 121.775 135.33 120.596 133.44Z" fill="white"/>
<path d="M120.463 118.283C120.23 115.085 119.349 111.967 117.872 109.121C116.769 106.897 115.366 104.835 113.702 102.993C113.268 102.504 112.901 102.349 112.679 102.715C112.457 103.082 112.679 103.605 113.102 104.083L113.535 104.584C116.609 108.132 118.546 112.521 119.095 117.183C119.09 117.523 119.123 117.862 119.195 118.195C119.335 118.577 119.559 118.923 119.851 119.206C120.085 119.373 120.352 119.206 120.541 119.206C120.474 118.751 120.485 118.517 120.463 118.283Z" fill="white"/>
<path d="M110.388 109.154C111.785 110.69 112.633 112.645 112.801 114.714C112.874 115.029 112.99 115.332 113.146 115.615C113.824 116.171 114.158 115.982 114.158 115.281C113.92 112.628 112.823 110.126 111.033 108.153C110.611 107.72 110.266 107.586 110.066 107.953C109.994 108.163 109.986 108.389 110.043 108.603C110.101 108.817 110.221 109.009 110.388 109.154Z" fill="white"/>
</g>
<path d="M366.07 59.4698L376.49 65.3968V61.7049C376.49 61.4492 376.49 61.1823 376.49 60.9265C376.49 60.6708 376.49 60.4261 376.49 60.1815V60.0481C376.868 55.1664 380.571 53.2871 385.086 55.9003C387.13 57.1575 388.881 58.837 390.223 60.8265C391.235 54.1545 396.65 51.797 403.2 55.5667C410.473 59.7701 416.366 70.0227 416.366 78.3849V86.2801C416.356 86.9117 416.512 87.5349 416.818 88.0872C417.125 88.6395 417.571 89.1016 418.112 89.4271L424.25 93.0189C425.575 93.8043 426.673 94.9202 427.437 96.2573C428.201 97.5945 428.605 99.1071 428.609 100.647C428.61 101.286 428.441 101.914 428.122 102.467C427.802 103.02 427.343 103.48 426.789 103.799C426.235 104.118 425.608 104.285 424.969 104.285C424.33 104.284 423.702 104.115 423.149 103.794L366.226 70.8901C364.716 70.0131 363.462 68.7562 362.588 67.2444C361.714 65.7325 361.251 64.0183 361.244 62.2721C361.244 61.7068 361.392 61.1514 361.674 60.6614C361.955 60.1714 362.361 59.764 362.85 59.4802C363.339 59.1964 363.894 59.046 364.459 59.0442C365.024 59.0424 365.58 59.1891 366.07 59.4698Z" fill="#E6E6E6"/>
<path d="M445.501 57.924L453.073 62.2719V59.5586C453.073 59.3696 453.073 59.1805 453.073 58.9915C453.073 58.8025 453.073 58.6245 453.073 58.4466V58.3799C453.351 54.8326 456.042 53.4649 459.323 55.3664C460.808 56.2766 462.082 57.4936 463.059 58.9359C463.804 54.1098 467.741 52.364 472.5 55.1106C477.793 58.1686 482.074 65.5968 482.074 71.7017V77.4507C482.078 77.9014 482.199 78.3433 482.425 78.7331C482.652 79.123 482.975 79.4475 483.364 79.6747L487.812 82.2879C488.78 82.8571 489.582 83.6699 490.138 84.6454C490.694 85.6209 490.985 86.7251 490.981 87.8479C490.981 88.3078 490.86 88.7596 490.632 89.1587C490.403 89.5578 490.075 89.8905 489.678 90.1239C489.282 90.3574 488.832 90.4836 488.372 90.4901C487.912 90.4965 487.459 90.3831 487.056 90.1609L445.612 66.2306C444.514 65.5953 443.602 64.6825 442.967 63.5837C442.333 62.485 441.999 61.2388 441.998 59.9701C441.997 59.5594 442.104 59.1558 442.308 58.7995C442.512 58.4431 442.806 58.1466 443.161 57.9395C443.515 57.7324 443.918 57.6219 444.329 57.6192C444.739 57.6165 445.143 57.7216 445.501 57.924Z" fill="#E6E6E6"/>
</svg>
