<svg width="47" height="49" viewBox="0 0 47 49" fill="none" xmlns="http://www.w3.org/2000/svg">
<path d="M22.9583 48.217H31.4948V44.5831L33.4869 37.4887C34.206 34.9279 34.2329 32.2221 33.5649 29.6475L32.6857 26.261C32.5829 25.865 32.3516 25.5142 32.0279 25.2639C31.7043 25.0136 31.3066 24.8778 30.8975 24.8779H30.8683C30.4511 24.877 30.046 25.0181 29.7197 25.278C29.4109 25.5228 29.1885 25.8599 29.0851 26.2401C29.0489 26.3958 29.0245 26.476 29.0201 26.7244V26.0224C29.0201 25.5122 28.8133 25.0506 28.479 24.7165C28.3077 24.5448 28.1042 24.4086 27.8801 24.3158C27.656 24.223 27.4158 24.1754 27.1733 24.1757H26.8819C25.8617 24.1757 25.0354 25.002 25.0353 26.0222V24.9429C25.0353 24.3439 24.75 23.8117 24.3082 23.4741C24.005 23.2178 23.4431 23.0565 22.8972 23.0953C21.926 23.0953 21.1311 23.8451 21.0568 24.7973C21.0476 24.8052 21.0513 25.6818 21.0506 25.726C21.0506 25.6794 21.0483 25.6335 21.0449 25.5879V16.5695C21.0449 15.5505 20.2189 14.7245 19.1998 14.7245C18.1809 14.7245 17.355 15.5505 17.355 16.5695V29.8697C17.355 29.5943 17.2844 29.0976 16.895 28.6529C16.6159 28.3345 16.1142 28.0249 15.5099 28.0249C14.5723 28.0249 13.7834 28.727 13.6762 29.6581L12.7394 37.7695C12.7163 37.9701 12.7055 38.172 12.7072 38.374L12.7073 38.3775C12.7137 39.0759 12.8692 39.7649 13.1635 40.3983C13.4577 41.0317 13.8838 41.595 14.4133 42.0504L17.355 44.5831V48.217H19.5473" stroke="white" stroke-miterlimit="10" stroke-linecap="round" stroke-linejoin="round"/>
<path d="M17.3555 29.8697V35.8766" stroke="white" stroke-miterlimit="10" stroke-linecap="round" stroke-linejoin="round"/>
<path d="M11.0644 22.0649H1V3.36794H11.0644" stroke="white" stroke-miterlimit="10" stroke-linecap="round" stroke-linejoin="round"/>
<path d="M38.9455 22.0649H45.9993V3.36794H35.5957" stroke="white" stroke-miterlimit="10" stroke-linecap="round" stroke-linejoin="round"/>
<path d="M33.1329 27.9796H35.5964V1.00019H11.0645V27.9796H17.356" stroke="white" stroke-miterlimit="10" stroke-linecap="round" stroke-linejoin="round"/>
<path d="M21.0449 16.5691H28.2396C29.0138 16.5691 29.642 17.1973 29.642 17.9724V19.3412C29.642 20.1152 29.0138 20.7434 28.2396 20.7434H24.3397" stroke="white" stroke-miterlimit="10" stroke-linecap="round" stroke-linejoin="round"/>
<path d="M17.3555 19.3412V17.9725" stroke="white" stroke-miterlimit="10" stroke-linecap="round" stroke-linejoin="round"/>
<path d="M11.065 6.25769H1V3.36797H11.065V6.25769ZM11.065 6.25769H35.5961M11.065 6.25769V1.00057H35.5961V6.25769M35.5961 6.25769H46V3.36797H35.5961V6.25769Z" stroke="white" stroke-miterlimit="10" stroke-linecap="round" stroke-linejoin="round"/>
<path d="M19.1992 3.6637H27.4616" stroke="white" stroke-miterlimit="10" stroke-linecap="round" stroke-linejoin="round"/>
<path d="M20.3956 12.3044H14.7695V9.05019H20.3956V12.3044Z" stroke="white" stroke-miterlimit="10" stroke-linecap="round" stroke-linejoin="round"/>
<path d="M38.4492 11.4247H42.6819" stroke="white" stroke-miterlimit="10" stroke-linecap="round" stroke-linejoin="round"/>
<path d="M38.4492 14.4899H42.6819" stroke="white" stroke-miterlimit="10" stroke-linecap="round" stroke-linejoin="round"/>
<path d="M3.87695 11.4247H8.10956" stroke="white" stroke-miterlimit="10" stroke-linecap="round" stroke-linejoin="round"/>
<path d="M3.87695 14.4899H8.10956" stroke="white" stroke-miterlimit="10" stroke-linecap="round" stroke-linejoin="round"/>
<path d="M23.9375 10.6772H31.4964" stroke="white" stroke-miterlimit="10" stroke-linecap="round" stroke-linejoin="round"/>
</svg>
