<svg width="45" height="45" viewBox="0 0 45 45" fill="none" xmlns="http://www.w3.org/2000/svg">
<path d="M22.5 0C10.0904 0 0 10.0904 0 22.5C0 34.9096 10.0904 45 22.5 45C34.9096 45 45 34.9096 45 22.5C45 10.0904 34.9039 0 22.5 0ZM36.0836 35.8545C35.6541 33.5353 34.6405 31.3419 33.1172 29.5094C32.9732 29.3359 32.7963 29.1926 32.5967 29.0877C32.3971 28.9828 32.1787 28.9184 31.9541 28.8982C31.7295 28.878 31.5032 28.9023 31.2881 28.9699C31.0729 29.0374 30.8733 29.1468 30.7006 29.2918C30.5271 29.4358 30.3838 29.6127 30.2789 29.8123C30.174 30.0119 30.1096 30.2303 30.0893 30.4549C30.0691 30.6795 30.0935 30.9058 30.161 31.121C30.2286 31.3361 30.338 31.5357 30.4829 31.7085C32.0291 33.5696 32.8824 35.9233 32.8824 38.3456C32.8824 38.3857 32.8939 38.4258 32.8939 38.4659C29.9046 40.4187 26.3369 41.5583 22.5 41.5583C18.6631 41.5583 15.1012 40.4187 12.1061 38.4659C12.1061 38.4258 12.1176 38.3914 12.1176 38.3456C12.1176 32.6247 16.7734 27.9632 22.5 27.9632C27.8487 27.9632 32.2009 23.611 32.2009 18.2623C32.2009 12.9136 27.8487 8.56134 22.5 8.56134C17.1513 8.56134 12.7991 12.9136 12.7991 18.2623C12.7991 21.3604 14.2594 24.1149 16.5271 25.8902C12.6158 27.7742 9.72385 31.4508 8.91639 35.8488C5.52622 32.4128 3.43599 27.6941 3.43599 22.5C3.43599 11.9859 11.9859 3.43599 22.5 3.43599C33.0141 3.43599 41.564 11.9859 41.564 22.5C41.5583 27.6941 39.4681 32.4128 36.0836 35.8545ZM16.2293 18.268C16.2293 14.8148 19.0411 12.0031 22.4943 12.0031C25.9474 12.0031 28.7592 14.8148 28.7592 18.268C28.7592 21.7269 25.9474 24.533 22.4943 24.533C19.0411 24.533 16.2293 21.7212 16.2293 18.268Z" fill="#7A7A7A"/>
</svg>
