<svg width="500" height="500" viewBox="0 0 500 500" fill="none" xmlns="http://www.w3.org/2000/svg">
<path d="M47.8415 366.847L61.1972 366.569L67.7764 366.457C69.9642 366.409 72.1402 366.419 74.322 366.402L73.8764 366.847L73.8227 355.657L74.322 356.156L61.082 356.094C56.6686 356.089 52.2552 355.981 47.842 355.93L48.1148 355.657C48.0961 357.488 48.029 359.33 47.9839 361.193L47.8415 366.847ZM47.8415 366.847L47.6995 361.311C47.6544 359.444 47.5873 357.556 47.5686 355.658L47.5659 355.388L47.8416 355.384C52.255 355.333 56.6684 355.226 61.0816 355.221L74.3216 355.158L74.8235 355.155L74.8211 355.657L74.7674 366.847L74.7652 367.297L74.3216 367.293C72.09 367.276 69.8526 367.285 67.6269 367.238L60.9659 367.126L47.8415 366.847Z" fill="#EBEBEB"/>
<path d="M62.6133 380.957H89.0939V369.767H62.6133V380.957Z" fill="#EBEBEB"/>
<path d="M116.451 157.862L129.806 157.583L136.386 157.471C138.573 157.424 140.749 157.433 142.931 157.416L142.486 157.861L142.432 146.671L142.931 147.171L129.691 147.108C125.278 147.103 120.864 146.996 116.451 146.944L116.724 146.671C116.705 148.503 116.638 150.345 116.593 152.208L116.451 157.862ZM116.451 157.862L116.309 152.326C116.264 150.459 116.196 148.571 116.178 146.672L116.175 146.402L116.451 146.399C120.864 146.347 125.278 146.24 129.691 146.235L142.931 146.172L143.433 146.17L143.43 146.672L143.377 157.862L143.374 158.311L142.931 158.307C140.699 158.29 138.462 158.3 136.236 158.253L129.575 158.141L116.451 157.862Z" fill="#EBEBEB"/>
<path d="M87.227 119.401C87.7259 119.098 88.2989 118.941 88.8821 118.945C89.4654 118.949 90.0361 119.115 90.5308 119.424C90.808 119.591 91.0904 119.752 91.3782 119.906C91.6688 120.062 91.9611 120.209 92.2553 120.348C92.7845 120.589 93.2366 120.971 93.5616 121.453C93.8865 121.935 94.0714 122.498 94.0959 123.078L94.222 127.141L107.456 126.73L107.331 122.669C107.316 122.086 107.464 121.51 107.757 121.006C108.051 120.502 108.479 120.089 108.993 119.814C109.571 119.499 110.131 119.153 110.671 118.778C111.146 118.443 111.704 118.245 112.284 118.208C112.864 118.171 113.443 118.296 113.957 118.568L117.53 120.484L123.79 108.812L120.217 106.896C119.706 106.618 119.282 106.205 118.992 105.701C118.702 105.197 118.558 104.623 118.574 104.042C118.588 103.384 118.566 102.726 118.509 102.071C118.454 101.49 118.561 100.905 118.819 100.382C119.076 99.8586 119.474 99.4171 119.968 99.1067L123.42 96.9641L116.44 85.712L112.969 87.862C112.472 88.1621 111.902 88.3187 111.322 88.3143C110.742 88.31 110.174 88.145 109.682 87.8376C109.405 87.6701 109.123 87.5093 108.835 87.3552C108.547 87.2012 108.257 87.0549 107.964 86.9164C107.433 86.6753 106.979 86.2916 106.654 85.808C106.328 85.3244 106.143 84.7599 106.119 84.1772L105.996 80.1108L92.7618 80.5221L92.8903 84.5739C92.9054 85.1568 92.7583 85.7324 92.4655 86.2366C92.1726 86.7407 91.7454 87.1536 91.2316 87.4292C90.6521 87.7465 90.0902 88.0946 89.5481 88.4721C89.0732 88.8082 88.5143 89.0059 87.9337 89.0433C87.3532 89.0807 86.7736 88.9563 86.2595 88.6839L82.6882 86.7686L76.4282 98.4409L80 100.356C80.5112 100.634 80.9355 101.048 81.2255 101.552C81.5154 102.057 81.6598 102.632 81.6426 103.213C81.6281 103.874 81.649 104.534 81.7053 105.193C81.76 105.773 81.6524 106.357 81.3944 106.88C81.1365 107.403 80.7383 107.844 80.2444 108.154L76.7985 110.289L83.7781 121.54L87.227 119.401ZM90.5439 98.5023C91.5567 96.6114 93.1076 95.0634 95.0003 94.0539C96.893 93.0444 99.0425 92.6188 101.177 92.8309C103.312 93.0431 105.336 93.8835 106.992 95.2458C108.649 96.6081 109.865 98.4311 110.486 100.484C111.107 102.538 111.105 104.729 110.48 106.781C109.856 108.833 108.637 110.654 106.978 112.013C105.318 113.373 103.293 114.21 101.158 114.418C99.0228 114.626 96.8741 114.197 94.9832 113.184C92.4495 111.824 90.559 109.514 89.7267 106.761C88.8944 104.009 89.1883 101.038 90.5439 98.5023Z" fill="#EBEBEB"/>
<path d="M49.3831 137.668C49.7347 137.876 50.0217 138.178 50.2123 138.539C50.4029 138.9 50.4895 139.308 50.4626 139.715C50.4511 139.942 50.4455 140.17 50.4456 140.398C50.4456 140.629 50.4513 140.858 50.4626 141.086C50.4894 141.492 50.403 141.898 50.2131 142.258C50.0231 142.618 49.7371 142.919 49.3867 143.126L46.9203 144.549L51.5559 152.583L54.0216 151.161C54.3768 150.959 54.7811 150.86 55.1895 150.874C55.5979 150.888 55.9943 151.016 56.3344 151.242C56.7202 151.495 57.1192 151.726 57.5299 151.935C57.8941 152.117 58.2007 152.397 58.4156 152.742C58.6306 153.088 58.7455 153.487 58.7477 153.894V156.734H68.0263V153.894C68.0285 153.487 68.1434 153.088 68.3584 152.742C68.5734 152.397 68.88 152.117 69.2442 151.935C69.6549 151.726 70.0541 151.494 70.4401 151.242C70.7801 151.016 71.1764 150.888 71.5847 150.874C71.993 150.86 72.3973 150.959 72.7524 151.161L75.2183 152.583L79.8539 144.549L77.3774 143.118C77.0276 142.911 76.7422 142.611 76.5527 142.251C76.3632 141.891 76.2771 141.486 76.304 141.08C76.3156 140.854 76.3213 140.626 76.3212 140.398C76.321 140.169 76.3153 139.942 76.304 139.715C76.277 139.307 76.3637 138.9 76.5544 138.539C76.7451 138.178 77.0322 137.876 77.384 137.669L79.854 136.247L75.2184 128.213L72.7593 129.633C72.4045 129.836 72.0005 129.935 71.5923 129.922C71.1841 129.908 70.7877 129.781 70.4475 129.555C70.0598 129.302 69.6588 129.07 69.2461 128.861C68.8813 128.679 68.5742 128.399 68.3588 128.053C68.1434 127.707 68.0283 127.308 68.0261 126.901V124.061H58.7477V126.901C58.7455 127.308 58.6303 127.707 58.415 128.053C58.1996 128.399 57.8924 128.679 57.5277 128.861C57.115 129.07 56.714 129.302 56.3263 129.555C55.986 129.781 55.5896 129.908 55.1813 129.922C54.7731 129.935 54.369 129.836 54.0142 129.633L51.5556 128.213L46.9199 136.247L49.3831 137.668ZM63.3831 132.796C64.8858 132.796 66.355 133.241 67.6048 134.075C68.8547 134.909 69.8291 136.095 70.4048 137.484C70.9805 138.872 71.1317 140.399 70.8392 141.873C70.5467 143.347 69.8237 144.701 68.7616 145.764C67.6995 146.828 66.346 147.552 64.8723 147.846C63.3986 148.14 61.8708 147.99 60.4822 147.415C59.0936 146.841 57.9065 145.868 57.071 144.619C56.2355 143.37 55.7892 141.901 55.7885 140.398C55.7893 138.383 56.5896 136.451 58.0135 135.026C59.4374 133.601 61.3684 132.799 63.3831 132.796Z" fill="#EBEBEB"/>
<path d="M131.956 472.971C172.055 472.971 204.561 468.32 204.561 462.582C204.561 456.844 172.055 452.193 131.956 452.193C91.8574 452.193 59.3511 456.844 59.3511 462.582C59.3511 468.32 91.8574 472.971 131.956 472.971Z" fill="#EBEBEB"/>
<path d="M396.163 351.232C388.762 336.018 375.809 328.205 361.212 332.523C346.614 336.84 344.353 357.194 355.25 362.334C366.147 367.474 377.043 352.465 382.8 349.382C388.557 346.298 396.163 351.232 396.163 351.232Z" fill="#4A148C"/>
<path d="M403.328 391.73C403.29 389.896 403.219 388.063 403.155 386.23C403.025 382.568 402.895 378.906 402.765 375.245C402.516 368.548 401.795 361.972 399.021 355.799C396.569 350.203 392.474 345.484 387.279 342.267C385.353 341.103 383.276 340.207 381.107 339.605C379.141 337.615 376.638 336.24 373.904 335.647C370.523 334.96 367.047 334.873 363.636 335.39C363.513 335.404 363.517 335.598 363.641 335.583C366.893 335.167 370.195 335.402 373.355 336.275C374.709 336.647 376.02 337.157 377.269 337.797C378.057 338.221 378.813 338.701 379.533 339.233C376.587 338.622 373.545 338.651 370.612 339.319C369.554 339.575 368.519 339.917 367.517 340.341C366.719 340.163 365.901 340.094 365.084 340.134C364.017 340.167 362.957 340.318 361.923 340.585C359.81 341.179 357.789 342.062 355.918 343.208C355.81 343.27 355.911 343.432 356.019 343.372C357.859 342.365 359.832 341.622 361.879 341.164C362.87 340.938 363.877 340.791 364.891 340.722C365.451 340.695 366.011 340.7 366.57 340.736C362.409 342.654 359.064 345.987 357.13 350.141C357.079 350.254 357.249 350.348 357.299 350.234C358.45 347.826 360.129 345.708 362.211 344.038C364.294 342.369 366.726 341.191 369.327 340.592C369.649 340.51 369.978 340.466 370.303 340.402C370.226 340.89 370.174 341.381 370.148 341.875C370.05 342.615 369.926 343.351 369.777 344.083C369.473 345.59 369.076 347.078 368.589 348.536C368.096 350.013 367.505 351.456 366.82 352.855C366.165 354.336 365.336 355.734 364.353 357.021C364.344 357.031 364.337 357.043 364.333 357.056C364.329 357.068 364.328 357.082 364.329 357.095C364.331 357.108 364.335 357.121 364.342 357.133C364.348 357.144 364.357 357.154 364.368 357.162C364.379 357.17 364.391 357.176 364.404 357.179C364.417 357.182 364.431 357.182 364.444 357.179C364.457 357.176 364.469 357.171 364.48 357.164C364.491 357.156 364.5 357.146 364.507 357.135C365.383 355.76 366.405 354.495 367.205 353.067C367.972 351.704 368.634 350.284 369.184 348.82C369.742 347.338 370.177 345.813 370.485 344.26C370.645 343.44 370.773 342.616 370.869 341.785C370.966 341.288 370.997 340.78 370.961 340.275C372.677 340.015 374.42 339.979 376.145 340.169C375.497 343.797 374.801 347.58 372.768 350.732C372.701 350.836 372.878 350.936 372.937 350.826C373.889 349.154 374.727 347.42 375.445 345.635C376.115 343.901 376.536 342.081 376.696 340.228C379.71 340.633 382.618 341.609 385.266 343.103C390.253 346.004 394.234 350.359 396.676 355.585C399.251 361.212 400.689 367.293 400.906 373.477C401.392 381.253 401.493 389.077 402.27 396.83C402.321 397.337 403.124 397.507 403.222 396.935C403.422 395.208 403.458 393.465 403.328 391.73Z" fill="#263238"/>
<path d="M386.222 341.047C385.733 340.456 385.168 339.934 384.54 339.494C383.934 338.992 383.312 338.507 382.661 338.065C381.377 337.186 379.956 336.527 378.456 336.115C378.431 336.11 378.406 336.115 378.384 336.128C378.363 336.141 378.348 336.162 378.342 336.187C378.336 336.211 378.34 336.236 378.352 336.258C378.364 336.28 378.385 336.296 378.409 336.303C379.92 336.685 381.334 337.38 382.559 338.343C383.178 338.797 383.772 339.284 384.35 339.788C384.864 340.326 385.433 340.81 386.048 341.23C386.073 341.243 386.102 341.248 386.13 341.243C386.159 341.239 386.184 341.225 386.204 341.204C386.224 341.183 386.236 341.157 386.239 341.128C386.243 341.1 386.236 341.071 386.222 341.047Z" fill="#263238"/>
<path d="M362.599 346.561C361.374 347.986 360.24 349.486 359.204 351.053C358.193 352.63 357.347 354.308 356.679 356.059C356.66 356.111 356.742 356.14 356.768 356.094C358.462 352.782 360.461 349.635 362.739 346.695C362.818 346.599 362.678 346.465 362.599 346.561Z" fill="#263238"/>
<path d="M378.523 345.055C378.366 346.006 378.085 346.931 377.686 347.808C377.28 348.656 376.809 349.471 376.277 350.247C376.244 350.298 376.322 350.352 376.362 350.309C377.64 348.842 378.457 347.031 378.711 345.102C378.73 344.98 378.543 344.932 378.523 345.055Z" fill="#263238"/>
<path d="M402.295 351.606C402.295 351.606 412.775 338.435 433.004 343.103C452.231 347.541 461.104 382.797 441.675 387.014C422.247 391.232 425.672 358.607 418.592 353.071C413.397 349.009 405.926 349.881 402.295 351.606Z" fill="#4A148C"/>
<path d="M448.627 362.357C447.311 361.201 445.919 360.134 444.46 359.163C443.087 358.223 441.592 357.477 440.016 356.945C439.229 355.745 438.347 354.611 437.379 353.553C435.597 351.633 433.537 349.991 431.267 348.685C431.467 348.673 431.668 348.651 431.869 348.645C432.94 348.601 434.014 348.611 435.085 348.677C437.242 348.815 439.356 349.342 441.327 350.231C441.44 350.283 441.524 350.105 441.409 350.056C439.41 349.194 437.319 348.564 435.176 348.178C434.133 347.993 433.076 347.902 432.017 347.907C431.45 347.912 430.881 347.951 430.317 348.006C430.212 348.016 430.102 348.022 429.993 348.031C428.138 347.096 426.181 346.376 424.162 345.887C424.35 345.837 424.535 345.778 424.725 345.734C425.715 345.516 426.716 345.352 427.723 345.242C429.736 345.012 431.771 345.043 433.776 345.335C433.899 345.352 433.934 345.16 433.811 345.145C431.781 344.899 429.735 344.816 427.693 344.898C425.979 344.948 424.274 345.169 422.604 345.557C421.386 345.332 420.154 345.191 418.916 345.136C411.863 344.838 404.174 347.475 399.832 353.27C395.476 359.085 394.639 366.814 393.872 373.815C392.688 383.569 392.429 393.414 393.098 403.217C393.144 403.795 393.956 403.69 393.974 403.14C394.239 394.827 394.532 386.512 395.327 378.228C395.696 374.393 396.105 370.542 396.743 366.741C397.205 363.468 398.145 360.281 399.531 357.28C401.033 354.214 403.408 351.66 406.358 349.94C409.321 348.245 412.625 347.228 416.029 346.966C419.08 346.713 422.152 347.001 425.104 347.815C424.997 348.406 424.979 349.01 425.052 349.606C425.117 350.356 425.266 351.098 425.496 351.815C425.717 352.494 426 353.151 426.342 353.778C426.716 354.473 427.187 355.092 427.605 355.757C427.671 355.863 427.84 355.743 427.763 355.646C426.933 354.458 426.396 353.092 426.194 351.658C426.069 350.977 425.988 350.288 425.952 349.596C425.925 349.075 425.97 348.55 425.947 348.031C429.157 349.017 432.153 350.599 434.777 352.694C435.27 353.087 435.744 353.505 436.207 353.933C435.541 354.552 434.964 355.261 434.493 356.039C433.799 357.052 433.197 358.124 432.694 359.243C431.758 361.494 431.129 363.861 430.823 366.28C430.805 366.403 430.996 366.438 431.013 366.315C431.387 363.975 432.166 361.718 433.315 359.646C433.848 358.621 434.447 357.632 435.107 356.684C435.449 356.197 435.802 355.716 436.17 355.249C436.368 354.999 436.585 354.744 436.773 354.474C439.152 356.803 441.095 359.539 442.51 362.552C442.497 362.56 442.484 362.559 442.472 362.57C441.514 363.579 440.715 364.728 440.102 365.977C439.376 367.28 438.743 368.633 438.207 370.025C437.23 372.721 436.423 375.476 435.794 378.273C435.764 378.393 435.96 378.431 435.984 378.308C436.598 375.491 437.562 372.762 438.853 370.185C439.456 368.916 440.094 367.667 440.767 366.436C441.469 365.295 442.103 364.115 442.668 362.9C444.016 365.852 444.799 369.03 444.976 372.27C444.982 372.394 445.178 372.377 445.168 372.253C444.796 367.172 443.241 362.248 440.627 357.874C441.864 358.401 443.106 358.909 444.296 359.551C445.816 360.356 447.229 361.349 448.502 362.506C448.595 362.59 448.722 362.439 448.627 362.357Z" fill="#263238"/>
<path d="M433.792 363.104C433.186 365.101 432.422 367.04 431.875 369.058C431.317 370.992 431.016 372.992 430.981 375.005C430.981 375.06 431.069 375.063 431.077 375.009C431.622 370.969 432.594 366.998 433.975 363.163C433.98 363.15 433.982 363.137 433.982 363.124C433.982 363.111 433.979 363.097 433.973 363.085C433.968 363.073 433.96 363.062 433.95 363.054C433.94 363.045 433.928 363.038 433.915 363.034C433.903 363.03 433.889 363.029 433.876 363.03C433.863 363.031 433.85 363.035 433.838 363.042C433.827 363.049 433.817 363.058 433.809 363.068C433.801 363.079 433.795 363.091 433.792 363.104Z" fill="#263238"/>
<path d="M446.606 358.15C445.812 357.384 444.91 356.739 443.928 356.236C442.927 355.783 441.89 355.416 440.827 355.139C440.71 355.104 440.669 355.302 440.792 355.329C441.837 355.604 442.841 356.017 443.776 356.558C444.732 357.054 445.651 357.618 446.526 358.246C446.539 358.255 446.555 358.259 446.57 358.257C446.586 358.255 446.6 358.247 446.61 358.235C446.621 358.223 446.626 358.207 446.625 358.192C446.624 358.176 446.617 358.161 446.606 358.15Z" fill="#263238"/>
<path d="M412.257 334.014C412.257 334.014 414.19 310.351 431.783 302.681C446.474 296.276 454.884 312.784 444.498 322.889C436.097 331.063 422.625 327.374 412.257 334.014Z" fill="#4A148C"/>
<path d="M441.245 307.264C438.567 308.346 435.955 309.582 433.421 310.969C431.315 312.185 429.286 313.532 427.347 315C427.639 314.402 427.893 313.776 428.187 313.191C428.647 312.278 429.138 311.383 429.682 310.516C430.763 308.726 432.065 307.078 433.556 305.612C433.646 305.526 433.504 305.389 433.416 305.478C431.931 306.948 430.567 308.536 429.337 310.227C428.731 311.087 428.172 311.981 427.666 312.904C427.147 313.753 426.749 314.67 426.483 315.629C426.42 315.678 426.352 315.721 426.289 315.77C423.216 318.218 420.401 320.973 417.887 323.991C417.936 323.759 417.984 323.527 418.045 323.313C418.375 322.159 418.73 321.012 419.111 319.875C419.867 317.446 420.935 315.126 422.289 312.973C422.357 312.87 422.185 312.773 422.12 312.88C420.738 315.035 419.507 317.284 418.438 319.61C417.949 320.745 417.543 321.914 417.223 323.108C416.967 323.883 416.776 324.678 416.65 325.485C415.883 326.455 415.13 327.436 414.42 328.447C406.868 339.198 403.076 352.203 402.167 365.215C401.901 369.094 401.836 372.985 401.971 376.872C401.999 380.793 402.344 384.705 403.002 388.57C403.05 388.815 403.433 388.742 403.427 388.502C403.339 385.084 402.985 381.679 402.919 378.257C402.854 374.832 402.974 371.399 403.25 367.984C403.803 361.154 405.089 354.403 407.086 347.848C409.131 341.137 412.145 334.76 416.033 328.92C416.774 328.773 417.509 328.572 418.237 328.384C419.116 328.158 419.995 327.933 420.869 327.688C422.56 327.253 424.203 326.65 425.774 325.89C425.884 325.834 425.781 325.662 425.673 325.725C424.122 326.571 422.441 327.151 420.698 327.441C419.322 327.716 417.891 327.895 416.512 328.211C417.784 326.351 419.149 324.557 420.603 322.835C423.958 323.14 427.339 322.887 430.612 322.088C432.353 321.67 434.064 321.138 435.734 320.493C437.497 319.814 439.164 318.942 440.903 318.215C441.033 318.161 440.943 317.968 440.825 318.04C437.674 319.758 434.235 320.883 430.679 321.361C427.539 321.862 424.367 322.125 421.188 322.145C422.438 320.712 423.729 319.314 425.106 318.002C429.727 313.602 435.216 309.557 441.301 307.45C441.42 307.408 441.358 307.216 441.245 307.264Z" fill="#263238"/>
<path d="M426.929 307.337C426.135 308.335 425.414 309.389 424.772 310.491C424.114 311.65 423.594 312.882 423.22 314.161C423.218 314.17 423.219 314.18 423.224 314.188C423.228 314.196 423.235 314.202 423.244 314.206C423.252 314.209 423.262 314.209 423.271 314.206C423.279 314.203 423.287 314.197 423.291 314.189C423.878 313.029 424.374 311.825 424.968 310.669C425.55 309.53 426.254 308.457 427.069 307.471C427.148 307.374 427.005 307.24 426.929 307.337Z" fill="#263238"/>
<path d="M443.287 315.214C442.142 315.844 440.933 316.349 439.68 316.72C438.475 317.119 437.249 317.448 436.006 317.706C435.948 317.718 435.964 317.817 436.023 317.81C437.317 317.672 438.593 317.393 439.827 316.977C441.045 316.517 442.235 315.984 443.388 315.379C443.498 315.325 443.396 315.151 443.287 315.214Z" fill="#263238"/>
<path d="M398.581 329.756C398.47 330.778 395.919 321.165 381.045 312.63C367.536 304.878 351.412 284.72 364.658 271.983C375.348 261.704 403.515 284.114 398.581 329.756Z" fill="#4A148C"/>
<path d="M408.82 384.872C408.602 374.866 407.814 364.88 406.46 354.963C405.284 345.848 403.178 336.878 400.175 328.192C399.068 325.064 397.804 321.986 396.432 318.956C396.51 317.777 396.489 316.593 396.371 315.417C396.298 313.902 396.161 312.39 396.022 310.881C395.883 309.371 395.729 307.86 395.548 306.354C395.368 304.859 395.05 303.346 394.987 301.842C394.987 301.829 394.983 301.816 394.977 301.804C394.971 301.792 394.962 301.782 394.952 301.774C394.941 301.765 394.929 301.759 394.916 301.756C394.903 301.752 394.89 301.752 394.876 301.754C394.863 301.756 394.851 301.761 394.839 301.768C394.828 301.775 394.818 301.785 394.811 301.796C394.804 301.807 394.799 301.82 394.797 301.833C394.794 301.846 394.795 301.86 394.798 301.872C395.097 303.453 395.275 305.054 395.332 306.661C395.446 308.12 395.529 309.58 395.574 311.043C395.619 312.506 395.612 313.971 395.613 315.435C395.613 315.963 395.585 316.524 395.565 317.088C394.166 314.132 392.666 311.222 391.044 308.388C392.051 302.22 390.744 295.774 389.483 289.744C389.457 289.622 389.273 289.679 389.298 289.8C389.916 292.949 390.245 296.149 390.279 299.358C390.336 301.891 390.217 304.424 390.208 306.955C389.85 306.349 389.496 305.741 389.129 305.141C387.201 301.991 385.139 298.904 382.95 295.909C383.127 294.446 383.078 292.965 382.806 291.517C382.563 289.891 382.203 288.286 381.728 286.712C381.254 285.136 380.705 283.588 380.081 282.068C379.437 280.504 378.578 279.024 377.957 277.455C377.905 277.324 377.711 277.414 377.782 277.534C378.574 279.015 379.199 280.58 379.645 282.2C380.137 283.718 380.544 285.263 380.862 286.827C381.176 288.394 381.434 289.963 381.653 291.545C381.799 292.591 381.891 293.676 382.072 294.734C378.888 290.455 375.407 286.404 371.656 282.613C371.567 282.523 371.442 282.661 371.523 282.753C377.193 289.125 382.256 296.013 386.646 303.325C386.809 303.6 386.964 303.879 387.124 304.154C386.305 303.64 385.364 303.232 384.594 302.804C383.152 302.003 381.706 301.209 380.256 300.423C378.847 299.662 377.442 298.893 376.042 298.116C375.32 297.716 374.609 297.3 373.875 296.924C372.998 296.529 372.155 296.062 371.354 295.527C371.241 295.442 371.12 295.615 371.241 295.681C372.672 296.468 373.938 297.638 375.32 298.52C376.714 299.409 378.124 300.262 379.567 301.067C382.212 302.543 385.084 303.603 387.687 305.129C389.495 308.289 391.157 311.534 392.693 314.836C391.113 313.823 389.503 312.858 387.862 311.944C386.807 311.352 385.751 310.771 384.681 310.209C383.618 309.72 382.613 309.112 381.685 308.399C381.666 308.383 381.642 308.374 381.617 308.375C381.592 308.376 381.569 308.387 381.552 308.405C381.535 308.423 381.525 308.447 381.525 308.472C381.525 308.497 381.535 308.521 381.552 308.539C383.285 310.096 385.204 311.431 387.267 312.515C389.178 313.632 391.109 314.71 393.096 315.684C394.686 319.168 396.121 322.717 397.401 326.329C403.661 344.057 405.962 362.877 407.061 381.568C407.388 387.142 407.558 392.71 407.627 398.291C407.696 403.866 407.402 409.43 407.413 415.001C407.413 415.165 407.685 415.204 407.708 415.033C408.377 410.092 408.494 405.066 408.71 400.09C408.929 395.027 408.932 389.937 408.82 384.872Z" fill="#263238"/>
<path d="M381.795 304.614C379.077 303.417 376.437 302.051 373.89 300.526C371.305 299.072 368.8 297.482 366.385 295.761C366.345 295.733 366.295 295.8 366.334 295.831C368.616 297.677 371.024 299.361 373.541 300.871C376.176 302.345 378.902 303.652 381.701 304.784C381.815 304.833 381.909 304.661 381.795 304.614Z" fill="#263238"/>
<path d="M386.104 284.574C385.883 283.709 385.611 282.859 385.319 282.016C385.337 282.007 385.351 281.992 385.358 281.974C385.365 281.956 385.364 281.935 385.357 281.917C385.17 281.437 384.971 280.963 384.776 280.486C384.753 280.421 384.728 280.36 384.706 280.314C384.669 280.223 384.632 280.133 384.595 280.041C384.583 280.011 384.536 280.024 384.547 280.056C384.6 280.219 384.64 280.386 384.692 280.549C384.713 280.642 384.74 280.733 384.772 280.823C385.753 284.131 386.49 287.507 386.977 290.923C386.993 291.03 387.157 291.033 387.15 290.918C387.003 288.775 386.653 286.651 386.104 284.574Z" fill="#263238"/>
<path d="M424.536 388.467L423.476 401.048L420.226 439.418H385.42L382.171 401.048L381.11 388.467H424.536Z" fill="#37474F"/>
<path d="M424.536 388.467L423.476 401.048H382.171L381.11 388.467H424.536Z" fill="#263238"/>
<path d="M427.952 383.418H377.695V395.488H427.952V383.418Z" fill="#37474F"/>
<path d="M47.4429 439.418L98.0819 439.175L148.721 439.086L250 438.919L351.279 439.085L401.918 439.173L452.557 439.418L401.918 439.662L351.279 439.75L250 439.917L148.721 439.749L98.0819 439.661L47.4429 439.418Z" fill="#263238"/>
<path d="M334.515 56.5677H165.465C163.198 56.5886 160.958 57.0557 158.872 57.9424C156.786 58.8291 154.895 60.1181 153.307 61.7358C151.719 63.3534 150.465 65.268 149.617 67.3702C148.769 69.4724 148.344 71.7211 148.365 73.9878V421.998C148.326 426.575 150.104 430.98 153.31 434.246C156.517 437.512 160.888 439.372 165.465 439.418H334.515C339.094 439.375 343.469 437.516 346.679 434.25C349.889 430.984 351.672 426.577 351.635 421.998V73.9879C351.655 71.7199 351.228 69.4702 350.378 67.3674C349.528 65.2645 348.273 63.3496 346.683 61.7319C345.093 60.1143 343.2 58.8257 341.113 57.9396C339.025 57.0535 336.783 56.5874 334.515 56.5677ZM340.945 411.238C340.945 420.398 334.085 427.808 325.625 427.808H174.385C165.905 427.808 159.045 420.398 159.045 411.238V87.1777C159.045 68.5177 165.905 67.6077 174.385 67.6077H204.675C206.435 67.6077 207.875 69.6077 207.875 72.0877V73.1577C207.875 78.9677 211.055 78.9878 214.965 78.9878H285.025C288.965 78.9878 292.115 78.9677 292.115 73.1577V72.0877C292.115 69.6077 293.535 67.6077 295.325 67.6077H325.625C334.085 67.6077 340.945 70.0877 340.945 87.1777V411.238Z" fill="#263238"/>
<path d="M259.551 71.7309H240.441C240.128 71.7309 239.828 71.6065 239.607 71.3852C239.386 71.1639 239.261 70.8638 239.261 70.5508C239.261 70.2379 239.386 69.9378 239.607 69.7165C239.828 69.4952 240.128 69.3708 240.441 69.3708H259.551C259.864 69.3708 260.164 69.4952 260.386 69.7165C260.607 69.9378 260.731 70.2379 260.731 70.5508C260.731 70.8638 260.607 71.1639 260.386 71.3852C260.164 71.6065 259.864 71.7309 259.551 71.7309Z" fill="white"/>
<path d="M340.948 87.1778V411.238C340.948 420.398 334.088 427.808 325.628 427.808H174.388C165.908 427.808 159.048 420.398 159.048 411.238V87.1778C159.048 68.5178 165.908 67.6078 174.388 67.6078H204.678C206.438 67.6078 207.878 69.6078 207.878 72.0878V73.1578C207.878 78.9678 211.058 78.9878 214.968 78.9878H285.028C288.968 78.9878 292.118 78.9678 292.118 73.1578V72.0878C292.118 69.6078 293.538 67.6078 295.328 67.6078H325.628C334.088 67.6079 340.948 70.088 340.948 87.1778Z" fill="white"/>
<path d="M177.457 99.553L172.083 94.517L177.457 89.483L178.291 90.371L173.865 94.517L178.291 98.665L177.457 99.553Z" fill="#C7C7C7"/>
<path d="M326.86 91.3818C326.86 91.5909 326.798 91.7953 326.682 91.9692C326.566 92.1431 326.401 92.2786 326.207 92.3586C326.014 92.4386 325.802 92.4596 325.597 92.4188C325.392 92.378 325.203 92.2773 325.055 92.1295C324.907 91.9816 324.807 91.7933 324.766 91.5882C324.725 91.3831 324.746 91.1705 324.826 90.9774C324.906 90.7842 325.042 90.6191 325.215 90.5029C325.389 90.3867 325.594 90.3247 325.803 90.3247C326.083 90.3247 326.352 90.4361 326.55 90.6343C326.749 90.8326 326.86 91.1014 326.86 91.3818Z" fill="#C7C7C7"/>
<path d="M326.86 95.1417C326.86 95.3508 326.798 95.5552 326.682 95.7291C326.566 95.9029 326.401 96.0385 326.207 96.1185C326.014 96.1985 325.802 96.2195 325.597 96.1787C325.392 96.1379 325.203 96.0372 325.055 95.8894C324.907 95.7415 324.807 95.5532 324.766 95.3481C324.725 95.143 324.746 94.9304 324.826 94.7372C324.906 94.5441 325.042 94.3789 325.215 94.2628C325.389 94.1466 325.594 94.0846 325.803 94.0846C326.083 94.0846 326.352 94.196 326.55 94.3942C326.749 94.5924 326.86 94.8613 326.86 95.1417Z" fill="#C7C7C7"/>
<path d="M326.86 98.9018C326.86 99.1109 326.798 99.3153 326.682 99.4892C326.566 99.663 326.401 99.7985 326.207 99.8785C326.014 99.9585 325.802 99.9795 325.597 99.9387C325.392 99.8979 325.203 99.7972 325.055 99.6494C324.907 99.5015 324.807 99.3131 324.766 99.1081C324.725 98.903 324.746 98.6904 324.826 98.4972C324.906 98.3041 325.042 98.1389 325.215 98.0228C325.389 97.9066 325.594 97.8446 325.803 97.8446C326.083 97.8446 326.352 97.956 326.55 98.1543C326.749 98.3525 326.86 98.6214 326.86 98.9018Z" fill="#C7C7C7"/>
<path d="M199.451 74.8863C199.353 74.9831 199.256 75.08 199.158 75.1769C199.103 75.2321 199.048 75.2879 198.992 75.3436C198.622 74.9723 198.182 74.6778 197.698 74.477C197.213 74.2761 196.694 74.1728 196.17 74.1731C195.646 74.1734 195.126 74.2772 194.642 74.4786C194.158 74.68 193.719 74.975 193.349 75.3467C193.297 75.2923 193.245 75.2367 193.191 75.1817C193.095 75.0843 192.999 74.9879 192.902 74.8912L192.893 74.8863V74.8791L192.915 74.8616C193.038 74.7521 193.158 74.6388 193.285 74.534C193.863 74.0674 194.546 73.7492 195.275 73.6071C195.462 73.5726 195.652 73.5549 195.842 73.5318C195.906 73.5239 196.325 73.5218 196.338 73.5232C196.467 73.5332 196.596 73.5387 196.724 73.5525C197.08 73.5926 197.43 73.6761 197.765 73.801C198.009 73.8905 198.244 74.0008 198.469 74.1305C198.707 74.2663 198.932 74.4238 199.141 74.601C199.246 74.691 199.347 74.7861 199.45 74.8791L199.451 74.8863Z" fill="#C7C7C7"/>
<path d="M194.278 76.2633C194.123 76.11 193.971 75.9594 193.815 75.8045C194.32 75.29 194.982 74.9578 195.697 74.8598C196.209 74.7829 196.732 74.8277 197.224 74.9908C197.716 75.1538 198.162 75.4304 198.527 75.7981L198.063 76.2604C197.56 75.7591 196.879 75.4777 196.17 75.4783C195.46 75.4788 194.779 75.7612 194.278 76.2633Z" fill="#C7C7C7"/>
<path d="M197.601 76.7251C197.448 76.8777 197.296 77.0301 197.141 77.1851C197.014 77.0575 196.862 76.9563 196.696 76.8873C196.529 76.8184 196.351 76.783 196.171 76.7833C195.99 76.7835 195.812 76.8193 195.646 76.8887C195.479 76.9581 195.328 77.0597 195.201 77.1877C195.047 77.0336 194.895 76.8809 194.742 76.7283C194.929 76.5389 195.151 76.3884 195.396 76.2856C195.642 76.1828 195.905 76.1297 196.171 76.1294C196.437 76.1291 196.7 76.1816 196.945 76.2838C197.191 76.3861 197.414 76.5361 197.601 76.7251Z" fill="#C7C7C7"/>
<path d="M196.587 77.6029C196.587 77.6851 196.563 77.7655 196.517 77.8339C196.471 77.9022 196.406 77.9556 196.33 77.9871C196.255 78.0186 196.171 78.0268 196.09 78.0108C196.01 77.9948 195.936 77.9553 195.877 77.8972C195.819 77.8391 195.78 77.765 195.764 77.6844C195.747 77.6037 195.756 77.5202 195.787 77.4442C195.819 77.3682 195.872 77.3033 195.94 77.2575C196.008 77.2118 196.089 77.1874 196.171 77.1874C196.226 77.1874 196.28 77.1981 196.33 77.2189C196.381 77.2398 196.426 77.2704 196.465 77.309C196.504 77.3476 196.534 77.3934 196.555 77.4438C196.576 77.4942 196.587 77.5483 196.587 77.6029Z" fill="#C7C7C7"/>
<path d="M170.907 75.7708C170.907 75.5324 170.978 75.2993 171.11 75.101C171.243 74.9028 171.431 74.7482 171.651 74.657C171.872 74.5657 172.114 74.5418 172.348 74.5883C172.582 74.6348 172.797 74.7497 172.965 74.9182C173.134 75.0868 173.249 75.3016 173.295 75.5355C173.342 75.7693 173.318 76.0117 173.227 76.232C173.135 76.4523 172.981 76.6406 172.783 76.773C172.584 76.9055 172.351 76.9762 172.113 76.9762C171.793 76.9762 171.487 76.8492 171.26 76.6231C171.034 76.3971 170.907 76.0905 170.907 75.7708Z" fill="#C7C7C7"/>
<path d="M174.704 75.7709C174.704 75.5325 174.775 75.2994 174.908 75.1012C175.04 74.9029 175.228 74.7484 175.449 74.6571C175.669 74.5659 175.911 74.542 176.145 74.5885C176.379 74.6349 176.594 74.7497 176.762 74.9183C176.931 75.0869 177.046 75.3017 177.092 75.5355C177.139 75.7694 177.115 76.0118 177.024 76.232C176.932 76.4523 176.778 76.6406 176.58 76.7731C176.382 76.9056 176.148 76.9763 175.91 76.9763C175.59 76.9763 175.284 76.8493 175.058 76.6233C174.832 76.3972 174.704 76.0906 174.704 75.7709Z" fill="#C7C7C7"/>
<path d="M178.501 75.7708C178.501 75.5324 178.572 75.2993 178.705 75.101C178.837 74.9028 179.025 74.7482 179.246 74.657C179.466 74.5657 179.708 74.5418 179.942 74.5883C180.176 74.6348 180.391 74.7497 180.559 74.9182C180.728 75.0868 180.843 75.3016 180.889 75.5355C180.936 75.7693 180.912 76.0117 180.821 76.232C180.729 76.4523 180.575 76.6406 180.377 76.773C180.178 76.9055 179.945 76.9762 179.707 76.9762C179.387 76.9762 179.081 76.8492 178.855 76.6231C178.628 76.3971 178.501 76.0905 178.501 75.7708Z" fill="#C7C7C7"/>
<path d="M182.299 75.7709C182.298 75.5325 182.369 75.2994 182.502 75.1011C182.634 74.9029 182.822 74.7483 183.043 74.6571C183.263 74.5658 183.505 74.542 183.739 74.5885C183.973 74.635 184.188 74.7498 184.356 74.9184C184.525 75.087 184.64 75.3018 184.686 75.5357C184.733 75.7695 184.709 76.0119 184.618 76.2322C184.526 76.4525 184.372 76.6407 184.174 76.7732C183.975 76.9056 183.742 76.9763 183.504 76.9763C183.184 76.9763 182.878 76.8493 182.652 76.6232C182.426 76.3972 182.299 76.0906 182.299 75.7709Z" fill="#C7C7C7"/>
<path d="M186.095 75.7709C186.095 75.5324 186.166 75.2993 186.298 75.101C186.431 74.9027 186.619 74.7482 186.839 74.6569C187.06 74.5656 187.302 74.5417 187.536 74.5882C187.77 74.6347 187.985 74.7495 188.153 74.918C188.322 75.0866 188.437 75.3014 188.483 75.5353C188.53 75.7691 188.506 76.0115 188.415 76.2318C188.324 76.4522 188.169 76.6405 187.971 76.773C187.773 76.9055 187.54 76.9762 187.301 76.9763C186.981 76.9763 186.675 76.8493 186.449 76.6233C186.222 76.3972 186.095 76.0906 186.095 75.7709Z" fill="#C7C7C7"/>
<path d="M327.307 78.4094H317.48V73.8494H327.307V78.4094ZM317.994 77.8954H326.793V74.3632H317.994V77.8954Z" fill="#C7C7C7"/>
<path d="M324.627 74.6284H318.301V77.6301H324.627V74.6284Z" fill="#C7C7C7"/>
<path d="M328.179 74.9135H327.306V77.3451H328.179V74.9135Z" fill="#C7C7C7"/>
<path d="M186.686 407.997H185.303V414.348H182.719V411.112H178.143V414.348H175.559V407.997H174.176L180.431 401.533L186.686 407.997Z" fill="#EBEBEB"/>
<path d="M325.83 401.533H310.753V403.688H325.83V401.533Z" fill="#EBEBEB"/>
<path d="M325.83 406.864H310.753V409.018H325.83V406.864Z" fill="#EBEBEB"/>
<path d="M325.83 412.194H310.753V414.348H325.83V412.194Z" fill="#EBEBEB"/>
<path d="M254.287 407.085L250 411.661L245.713 407.085L246.469 406.375L250 410.143L253.531 406.375L254.287 407.085Z" fill="#EBEBEB"/>
<path d="M250 416.387C248.46 416.387 246.954 415.93 245.674 415.075C244.393 414.219 243.395 413.003 242.806 411.58C242.216 410.157 242.062 408.591 242.362 407.08C242.663 405.57 243.405 404.182 244.494 403.093C245.583 402.004 246.97 401.263 248.481 400.962C249.991 400.662 251.557 400.816 252.98 401.405C254.403 401.995 255.619 402.993 256.475 404.273C257.331 405.554 257.787 407.06 257.787 408.6C257.785 410.664 256.964 412.644 255.504 414.103C254.044 415.563 252.065 416.385 250 416.387ZM250 401.84C248.663 401.84 247.356 402.237 246.245 402.98C245.133 403.722 244.267 404.778 243.755 406.013C243.244 407.248 243.11 408.607 243.371 409.918C243.632 411.23 244.275 412.434 245.221 413.379C246.166 414.324 247.37 414.968 248.681 415.229C249.993 415.49 251.352 415.356 252.587 414.844C253.822 414.333 254.877 413.466 255.62 412.355C256.363 411.243 256.759 409.937 256.759 408.6C256.757 406.808 256.045 405.089 254.777 403.822C253.51 402.555 251.792 401.842 250 401.84Z" fill="#EBEBEB"/>
<path d="M238.373 380.609C238.373 381.124 238.221 381.627 237.935 382.055C237.648 382.483 237.242 382.817 236.766 383.014C236.29 383.211 235.767 383.263 235.262 383.162C234.757 383.062 234.293 382.814 233.929 382.45C233.565 382.086 233.317 381.622 233.217 381.117C233.116 380.612 233.168 380.088 233.365 379.612C233.562 379.137 233.895 378.73 234.324 378.444C234.752 378.158 235.255 378.005 235.77 378.005C236.112 378.005 236.45 378.073 236.766 378.204C237.082 378.334 237.369 378.526 237.611 378.768C237.853 379.01 238.044 379.297 238.175 379.612C238.306 379.928 238.373 380.267 238.373 380.609Z" fill="#DBDBDB"/>
<path d="M254.218 380.609C254.218 381.388 253.987 382.149 253.554 382.797C253.122 383.444 252.507 383.949 251.787 384.247C251.067 384.545 250.276 384.623 249.512 384.471C248.748 384.319 248.046 383.944 247.496 383.393C246.945 382.842 246.57 382.141 246.418 381.377C246.266 380.613 246.344 379.821 246.642 379.102C246.94 378.382 247.445 377.767 248.092 377.334C248.74 376.902 249.501 376.671 250.28 376.671C250.797 376.671 251.309 376.773 251.787 376.971C252.265 377.168 252.699 377.459 253.065 377.824C253.43 378.19 253.72 378.624 253.918 379.102C254.116 379.58 254.218 380.092 254.218 380.609Z" fill="#4A148C"/>
<path d="M267.394 380.609C267.394 381.124 267.241 381.627 266.955 382.055C266.669 382.483 266.263 382.817 265.787 383.014C265.311 383.211 264.788 383.262 264.283 383.162C263.778 383.061 263.314 382.814 262.95 382.449C262.586 382.085 262.338 381.622 262.237 381.117C262.137 380.612 262.188 380.088 262.385 379.612C262.582 379.137 262.916 378.73 263.344 378.444C263.772 378.158 264.276 378.005 264.791 378.005C265.132 378.005 265.471 378.073 265.787 378.203C266.103 378.334 266.39 378.526 266.631 378.768C266.873 379.01 267.065 379.297 267.196 379.612C267.327 379.928 267.394 380.267 267.394 380.609Z" fill="#DBDBDB"/>
<path d="M284.532 308.172H214.349V330.489H284.532V308.172Z" fill="#4A148C"/>
<path d="M233.947 322.455V316.41C233.946 316.336 233.961 316.263 233.989 316.194C234.017 316.126 234.059 316.063 234.111 316.011C234.164 315.959 234.226 315.917 234.294 315.889C234.363 315.861 234.436 315.847 234.51 315.847C234.661 315.846 234.806 315.905 234.914 316.01C235.021 316.116 235.083 316.259 235.084 316.41V321.881H237.86C238.01 321.883 238.152 321.944 238.257 322.05C238.362 322.157 238.421 322.3 238.421 322.45C238.421 322.6 238.362 322.743 238.257 322.85C238.152 322.956 238.01 323.017 237.86 323.019H234.51C234.436 323.019 234.363 323.004 234.294 322.976C234.226 322.948 234.164 322.906 234.111 322.854C234.059 322.802 234.018 322.74 233.989 322.671C233.961 322.603 233.947 322.529 233.947 322.455Z" fill="white"/>
<path d="M244.964 316.738C245.629 317.437 245.999 318.365 245.999 319.33C245.999 320.295 245.629 321.223 244.964 321.922C244.653 322.264 244.275 322.537 243.854 322.726C243.433 322.915 242.977 323.014 242.515 323.019C242.044 323.017 241.579 322.918 241.147 322.73C240.715 322.541 240.327 322.267 240.005 321.922C239.353 321.217 238.99 320.291 238.99 319.33C238.99 318.369 239.353 317.443 240.005 316.738C240.325 316.392 240.714 316.116 241.146 315.927C241.577 315.739 242.044 315.641 242.515 315.642C242.977 315.644 243.434 315.742 243.855 315.931C244.277 316.12 244.655 316.395 244.964 316.738ZM244.831 319.33C244.831 318.666 244.583 318.027 244.135 317.538C243.927 317.308 243.675 317.125 243.392 316.999C243.11 316.874 242.804 316.809 242.495 316.809C242.186 316.809 241.881 316.874 241.598 316.999C241.316 317.125 241.063 317.308 240.856 317.538C240.403 318.024 240.154 318.665 240.159 319.33C240.152 319.992 240.402 320.631 240.856 321.113C241.061 321.345 241.314 321.531 241.596 321.658C241.879 321.785 242.185 321.851 242.495 321.851C242.805 321.851 243.112 321.785 243.394 321.658C243.677 321.531 243.929 321.345 244.135 321.113C244.584 320.628 244.833 319.991 244.831 319.33Z" fill="white"/>
<path d="M247.704 319.341C247.709 318.849 247.811 318.364 248.003 317.912C248.196 317.46 248.476 317.05 248.827 316.707C249.178 316.363 249.594 316.092 250.05 315.909C250.506 315.727 250.994 315.636 251.485 315.642C252.332 315.639 253.154 315.921 253.822 316.442C253.884 316.488 253.936 316.547 253.976 316.614C254.015 316.681 254.041 316.756 254.051 316.833C254.062 316.91 254.057 316.989 254.037 317.064C254.017 317.139 253.982 317.21 253.934 317.272C253.835 317.392 253.693 317.47 253.538 317.487C253.383 317.504 253.227 317.459 253.104 317.363C252.64 317.006 252.071 316.811 251.485 316.81C251.143 316.804 250.803 316.867 250.486 316.996C250.169 317.124 249.882 317.316 249.64 317.558C249.398 317.785 249.205 318.06 249.072 318.365C248.94 318.67 248.872 318.998 248.872 319.331C248.872 319.663 248.94 319.992 249.072 320.297C249.205 320.602 249.398 320.876 249.64 321.103C249.882 321.346 250.169 321.537 250.486 321.666C250.803 321.794 251.143 321.858 251.485 321.852C251.979 321.847 252.463 321.713 252.889 321.463V320.058H251.424C251.27 320.057 251.122 319.995 251.013 319.885C250.903 319.776 250.841 319.629 250.84 319.474C250.84 319.398 250.855 319.323 250.885 319.252C250.914 319.182 250.957 319.119 251.012 319.065C251.066 319.012 251.131 318.97 251.201 318.942C251.272 318.914 251.348 318.9 251.424 318.901H253.463C253.54 318.899 253.616 318.912 253.688 318.939C253.76 318.967 253.825 319.009 253.88 319.062C253.936 319.116 253.98 319.18 254.01 319.25C254.041 319.321 254.056 319.397 254.057 319.474V321.739C254.053 321.798 254.043 321.856 254.027 321.913C254.016 321.933 254.016 321.943 254.006 321.964V321.974C253.97 322.076 253.902 322.162 253.812 322.22C253.147 322.739 252.328 323.02 251.485 323.02C250.995 323.027 250.509 322.938 250.053 322.757C249.598 322.576 249.182 322.307 248.831 321.965C248.48 321.623 248.2 321.216 248.006 320.765C247.813 320.315 247.71 319.831 247.704 319.341Z" fill="white"/>
<path d="M256.44 316.41C256.439 316.336 256.453 316.262 256.481 316.193C256.508 316.124 256.55 316.062 256.602 316.009C256.655 315.957 256.717 315.915 256.786 315.888C256.855 315.86 256.929 315.846 257.003 315.847C257.154 315.846 257.299 315.904 257.406 316.01C257.514 316.115 257.576 316.259 257.577 316.41V322.456C257.576 322.606 257.514 322.75 257.407 322.856C257.299 322.961 257.154 323.02 257.003 323.019C256.929 323.02 256.855 323.006 256.786 322.978C256.717 322.95 256.655 322.909 256.602 322.856C256.55 322.804 256.508 322.741 256.48 322.672C256.453 322.604 256.439 322.53 256.44 322.456V316.41Z" fill="white"/>
<path d="M260.621 322.455C260.621 322.603 260.562 322.745 260.457 322.85C260.352 322.955 260.211 323.014 260.063 323.014C259.914 323.014 259.773 322.955 259.668 322.85C259.563 322.745 259.504 322.603 259.504 322.455V316.492C259.5 316.401 259.519 316.311 259.558 316.228C259.597 316.146 259.656 316.075 259.73 316.021C259.85 315.936 259.998 315.901 260.144 315.924C260.289 315.947 260.42 316.026 260.508 316.143L263.818 320.723V316.502C263.819 316.356 263.877 316.216 263.981 316.112C264.085 316.009 264.225 315.95 264.371 315.949C264.519 315.95 264.66 316.008 264.765 316.111C264.87 316.215 264.931 316.355 264.934 316.502V322.455C264.933 322.604 264.873 322.746 264.768 322.852C264.662 322.957 264.52 323.017 264.371 323.018C264.29 323.017 264.211 322.997 264.138 322.962C264.066 322.927 264.002 322.876 263.951 322.813C263.93 322.796 263.913 322.775 263.9 322.752L260.621 318.203V322.455Z" fill="white"/>
<path d="M266.957 135.394V142.704H261.786V135.394C261.786 128.434 256.5 122.776 249.998 122.776C243.495 122.776 238.209 128.434 238.209 135.394V153.694H233.038V135.394C233.038 125.427 240.646 117.322 249.998 117.322C259.35 117.322 266.957 125.427 266.957 135.394Z" fill="#C7C7C7"/>
<path d="M233.038 142.721L238.209 142.929V153.694H233.038V142.721Z" fill="#A6A6A6"/>
<path d="M273.585 147.559H226.41V190.359H273.585V147.559Z" fill="#4A148C"/>
<path opacity="0.1" d="M273.585 147.559H249.998V190.359H273.585V147.559Z" fill="black"/>
<path d="M251.993 170.526L253.968 179.894H245.587L247.562 170.526C246.789 170.045 246.194 169.325 245.867 168.475C245.54 167.626 245.498 166.693 245.749 165.818C245.999 164.942 246.528 164.172 247.254 163.624C247.981 163.076 248.867 162.78 249.777 162.78C250.688 162.78 251.573 163.076 252.3 163.624C253.027 164.172 253.555 164.942 253.806 165.818C254.056 166.693 254.014 167.626 253.687 168.475C253.36 169.325 252.765 170.045 251.993 170.526Z" fill="white"/>
<path d="M310.753 237.593H189.248V258.392H310.753V237.593Z" fill="white"/>
<path d="M311.253 258.893H188.748V237.093H311.253V258.893ZM189.748 257.893H310.253V238.093H189.748V257.893Z" fill="#EBEBEB"/>
<path d="M201.86 243.331H200.86V252.218H201.86V243.331Z" fill="#37474F"/>
<path d="M205.804 247.274H196.917V248.274H205.804V247.274Z" fill="#37474F"/>
<path d="M204.15 244.28L197.863 250.562L198.57 251.27L204.857 244.987L204.15 244.28Z" fill="#37474F"/>
<path d="M198.571 244.279L197.864 244.986L204.149 251.271L204.856 250.564L198.571 244.279Z" fill="#37474F"/>
<path d="M216.942 243.331H215.942V252.218H216.942V243.331Z" fill="#37474F"/>
<path d="M220.886 247.274H211.999V248.274H220.886V247.274Z" fill="#37474F"/>
<path d="M219.232 244.28L212.945 250.562L213.652 251.27L219.939 244.987L219.232 244.28Z" fill="#37474F"/>
<path d="M213.653 244.279L212.946 244.986L219.23 251.27L219.938 250.563L213.653 244.279Z" fill="#37474F"/>
<path d="M232.024 243.331H231.024V252.218H232.024V243.331Z" fill="#37474F"/>
<path d="M235.967 247.274H227.08V248.274H235.967V247.274Z" fill="#37474F"/>
<path d="M234.313 244.28L228.027 250.562L228.734 251.27L235.02 244.987L234.313 244.28Z" fill="#37474F"/>
<path d="M228.736 244.279L228.028 244.986L234.312 251.27L235.02 250.563L228.736 244.279Z" fill="#37474F"/>
<path d="M247.106 243.331H246.106V252.218H247.106V243.331Z" fill="#37474F"/>
<path d="M251.05 247.274H242.162V248.274H251.05V247.274Z" fill="#37474F"/>
<path d="M249.396 244.28L243.109 250.562L243.816 251.27L250.103 244.987L249.396 244.28Z" fill="#37474F"/>
<path d="M243.817 244.279L243.11 244.986L249.394 251.271L250.102 250.564L243.817 244.279Z" fill="#37474F"/>
<path d="M262.188 243.331H261.188V252.218H262.188V243.331Z" fill="#37474F"/>
<path d="M266.131 247.274H257.244V248.274H266.131V247.274Z" fill="#37474F"/>
<path d="M264.478 244.28L258.191 250.562L258.898 251.27L265.185 244.987L264.478 244.28Z" fill="#37474F"/>
<path d="M258.9 244.279L258.192 244.986L264.476 251.271L265.184 250.563L258.9 244.279Z" fill="#37474F"/>
<path d="M277.27 243.331H276.27V252.218H277.27V243.331Z" fill="#37474F"/>
<path d="M281.213 247.274H272.326V248.274H281.213V247.274Z" fill="#37474F"/>
<path d="M279.558 244.28L273.272 250.562L273.979 251.27L280.265 244.987L279.558 244.28Z" fill="#37474F"/>
<path d="M273.981 244.279L273.273 244.986L279.558 251.271L280.265 250.563L273.981 244.279Z" fill="#37474F"/>
<path d="M300.377 251.204C299.295 251.142 298.239 250.844 297.284 250.331C296.328 249.819 295.496 249.104 294.846 248.237L294.634 247.944L294.846 247.651C295.451 246.738 296.272 245.99 297.236 245.472C298.201 244.954 299.279 244.684 300.373 244.684C301.468 244.684 302.546 244.955 303.51 245.473C304.475 245.991 305.296 246.739 305.9 247.652L306.11 247.944L305.9 248.236C305.252 249.104 304.422 249.819 303.467 250.332C302.513 250.845 301.458 251.142 300.377 251.204ZM295.898 247.944C296.415 248.645 297.089 249.215 297.866 249.608C298.644 250 299.502 250.205 300.373 250.205C301.244 250.205 302.103 250 302.88 249.608C303.657 249.215 304.331 248.645 304.848 247.944C304.331 247.243 303.657 246.674 302.88 246.281C302.102 245.888 301.244 245.684 300.373 245.684C299.502 245.684 298.644 245.888 297.867 246.281C297.089 246.674 296.415 247.243 295.898 247.944Z" fill="#EBEBEB"/>
<path d="M300.373 250.196C301.617 250.196 302.625 249.188 302.625 247.944C302.625 246.7 301.617 245.692 300.373 245.692C299.129 245.692 298.121 246.7 298.121 247.944C298.121 249.188 299.129 250.196 300.373 250.196Z" fill="#EBEBEB"/>
<path d="M304.085 243.425L296.095 251.416L296.802 252.123L304.792 244.132L304.085 243.425Z" fill="#EBEBEB"/>
<path d="M217.327 215.926H215.733V218.739C215.728 218.927 215.65 219.105 215.515 219.236C215.381 219.367 215.2 219.44 215.013 219.44C214.825 219.44 214.645 219.367 214.51 219.236C214.376 219.105 214.298 218.927 214.293 218.739V211.089C214.293 210.996 214.311 210.903 214.347 210.816C214.383 210.73 214.435 210.651 214.501 210.585C214.568 210.518 214.646 210.466 214.733 210.43C214.82 210.394 214.912 210.376 215.006 210.376H217.327C218.063 210.376 218.769 210.669 219.289 211.189C219.81 211.71 220.102 212.415 220.102 213.151C220.102 213.887 219.81 214.593 219.289 215.114C218.769 215.634 218.063 215.926 217.327 215.926ZM215.733 214.487H217.327C217.504 214.488 217.678 214.455 217.842 214.389C218.005 214.322 218.154 214.224 218.279 214.1C218.404 213.976 218.504 213.828 218.572 213.665C218.639 213.502 218.674 213.328 218.674 213.151C218.674 212.975 218.639 212.8 218.572 212.638C218.504 212.475 218.404 212.327 218.279 212.203C218.154 212.079 218.005 211.981 217.842 211.914C217.678 211.848 217.504 211.814 217.327 211.816H215.733V214.487Z" fill="#4A148C"/>
<path d="M225.578 217.313H222.427L221.792 218.999C221.738 219.133 221.644 219.248 221.524 219.329C221.404 219.409 221.262 219.453 221.117 219.453C221.034 219.453 220.951 219.44 220.871 219.414C220.692 219.345 220.547 219.209 220.467 219.034C220.387 218.86 220.378 218.661 220.443 218.48L223.308 210.843C223.363 210.707 223.458 210.59 223.581 210.509C223.704 210.428 223.848 210.387 223.995 210.389C224.143 210.385 224.288 210.426 224.411 210.507C224.535 210.588 224.629 210.706 224.683 210.843L227.548 218.48C227.613 218.661 227.604 218.86 227.524 219.034C227.444 219.208 227.299 219.344 227.121 219.414C226.945 219.474 226.753 219.464 226.584 219.387C226.415 219.31 226.282 219.171 226.213 218.999L225.578 217.313ZM225.046 215.887L223.996 213.099L222.947 215.887H225.046Z" fill="#4A148C"/>
<path d="M228.824 217.196C228.938 217.06 229.101 216.974 229.278 216.957C229.456 216.94 229.632 216.993 229.771 217.106C230.466 217.697 231.335 218.048 232.246 218.104C232.823 218.115 233.389 217.948 233.867 217.625C234.029 217.526 234.164 217.389 234.262 217.227C234.359 217.064 234.415 216.88 234.425 216.691C234.428 216.544 234.388 216.399 234.308 216.276C234.21 216.119 234.077 215.986 233.92 215.887C233.369 215.578 232.767 215.371 232.143 215.278H232.116C231.54 215.179 230.978 215.009 230.444 214.772C229.953 214.557 229.535 214.206 229.238 213.76C229.041 213.441 228.938 213.073 228.941 212.697C228.953 212.323 229.054 211.956 229.234 211.627C229.414 211.299 229.668 211.017 229.977 210.804C230.635 210.346 231.42 210.106 232.221 210.117C233.246 210.169 234.232 210.531 235.047 211.154C235.193 211.253 235.293 211.405 235.327 211.577C235.361 211.75 235.326 211.928 235.229 212.075C235.182 212.149 235.121 212.213 235.049 212.264C234.977 212.314 234.896 212.349 234.81 212.367C234.724 212.385 234.635 212.386 234.549 212.369C234.463 212.352 234.381 212.318 234.308 212.269C233.713 211.786 232.985 211.497 232.221 211.439C231.703 211.431 231.194 211.585 230.768 211.88C230.627 211.967 230.508 212.086 230.422 212.228C230.337 212.371 230.287 212.532 230.276 212.697C230.269 212.825 230.3 212.951 230.367 213.06C230.46 213.195 230.579 213.309 230.716 213.397C231.215 213.69 231.765 213.884 232.337 213.968H232.363C232.98 214.075 233.581 214.258 234.153 214.513C234.678 214.742 235.128 215.115 235.45 215.588C235.653 215.92 235.761 216.302 235.761 216.691C235.749 217.09 235.641 217.481 235.447 217.831C235.253 218.181 234.978 218.479 234.645 218.701C233.944 219.195 233.104 219.454 232.247 219.44C231.028 219.382 229.863 218.926 228.927 218.143C228.792 218.029 228.705 217.867 228.686 217.691C228.667 217.514 228.716 217.337 228.824 217.196Z" fill="#4A148C"/>
<path d="M237.347 217.196C237.461 217.06 237.624 216.974 237.802 216.957C237.979 216.94 238.156 216.993 238.294 217.106C238.989 217.697 239.858 218.047 240.769 218.104C241.346 218.115 241.912 217.948 242.39 217.625C242.552 217.526 242.687 217.389 242.785 217.227C242.882 217.064 242.938 216.88 242.949 216.691C242.952 216.544 242.911 216.399 242.831 216.276C242.733 216.119 242.6 215.986 242.443 215.887C241.892 215.578 241.29 215.371 240.666 215.278H240.641C240.064 215.179 239.502 215.01 238.967 214.772C238.477 214.557 238.058 214.206 237.762 213.76C237.564 213.441 237.461 213.073 237.464 212.697C237.476 212.323 237.577 211.956 237.757 211.627C237.937 211.299 238.192 211.017 238.501 210.804C239.158 210.346 239.943 210.106 240.744 210.117C241.769 210.169 242.755 210.531 243.57 211.154C243.716 211.253 243.817 211.405 243.851 211.577C243.885 211.75 243.849 211.929 243.752 212.075C243.705 212.149 243.644 212.213 243.572 212.264C243.5 212.314 243.419 212.349 243.333 212.367C243.247 212.385 243.158 212.386 243.072 212.369C242.986 212.352 242.904 212.318 242.831 212.269C242.236 211.786 241.508 211.497 240.744 211.439C240.226 211.431 239.718 211.585 239.291 211.88C239.15 211.967 239.031 212.086 238.945 212.228C238.86 212.371 238.81 212.532 238.799 212.697C238.792 212.825 238.824 212.951 238.89 213.06C238.983 213.195 239.102 213.309 239.24 213.397C239.738 213.69 240.288 213.884 240.86 213.968H240.887C241.503 214.075 242.105 214.258 242.677 214.513C243.202 214.742 243.651 215.115 243.973 215.588C244.177 215.92 244.285 216.302 244.285 216.691C244.272 217.09 244.164 217.481 243.97 217.831C243.776 218.181 243.501 218.479 243.169 218.701C242.467 219.195 241.627 219.454 240.77 219.44C239.552 219.381 238.386 218.926 237.451 218.143C237.315 218.029 237.228 217.867 237.209 217.691C237.19 217.514 237.239 217.337 237.347 217.196Z" fill="#4A148C"/>
<path d="M257.916 211.453L254.739 219.012C254.725 219.055 254.703 219.094 254.674 219.129L254.661 219.142C254.644 219.171 254.622 219.197 254.597 219.219C254.597 219.245 254.583 219.245 254.583 219.258C254.55 219.276 254.52 219.297 254.492 219.323H254.48C254.441 219.349 254.416 219.388 254.364 219.401H254.35C254.348 219.401 254.347 219.401 254.345 219.402C254.345 219.402 254.342 219.403 254.341 219.405C254.341 219.405 254.339 219.407 254.338 219.409C254.338 219.409 254.337 219.412 254.337 219.414C254.302 219.418 254.267 219.426 254.234 219.439H254.207C254.165 219.451 254.121 219.456 254.077 219.453C254.038 219.455 253.999 219.45 253.961 219.439H253.922C253.893 219.427 253.863 219.418 253.831 219.414C253.819 219.401 253.819 219.401 253.805 219.401C253.76 219.386 253.72 219.359 253.689 219.323H253.676C253.637 219.297 253.611 219.271 253.585 219.258C253.573 219.248 253.564 219.234 253.559 219.219C253.546 219.193 253.52 219.168 253.507 219.142C253.481 219.142 253.481 219.129 253.481 219.129C253.456 219.093 253.439 219.054 253.429 219.012L251.73 214.993L250.033 219.012C250.018 219.052 250 219.091 249.98 219.129C249.978 219.129 249.977 219.129 249.975 219.13C249.973 219.13 249.972 219.131 249.971 219.133C249.971 219.133 249.969 219.135 249.968 219.137C249.968 219.137 249.967 219.14 249.967 219.142C249.942 219.168 249.916 219.193 249.889 219.219C249.889 219.245 249.877 219.245 249.877 219.258C249.848 219.276 249.821 219.298 249.798 219.323H249.773C249.734 219.349 249.695 219.388 249.67 219.401H249.656C249.654 219.401 249.651 219.402 249.651 219.402C249.649 219.402 249.648 219.403 249.647 219.405C249.647 219.405 249.645 219.407 249.644 219.409C249.644 219.409 249.643 219.412 249.643 219.414C249.607 219.413 249.571 219.422 249.54 219.439H249.501C249.463 219.45 249.424 219.455 249.385 219.453C249.341 219.455 249.297 219.45 249.255 219.439H249.216C249.187 219.427 249.156 219.418 249.125 219.414C249.112 219.401 249.112 219.401 249.098 219.401C249.055 219.383 249.015 219.356 248.982 219.323H248.968C248.93 219.297 248.917 219.271 248.878 219.258C248.866 219.248 248.857 219.234 248.852 219.219C248.826 219.193 248.813 219.168 248.788 219.142V219.129C248.763 219.091 248.741 219.052 248.722 219.012L245.533 211.453C245.463 211.279 245.464 211.085 245.536 210.913C245.608 210.741 245.745 210.604 245.917 210.532C246.09 210.46 246.284 210.459 246.457 210.53C246.63 210.6 246.768 210.736 246.842 210.908L249.384 216.911L251.056 212.931C251.111 212.798 251.205 212.685 251.325 212.606C251.445 212.528 251.586 212.487 251.73 212.49C251.873 212.491 252.013 212.533 252.132 212.611C252.252 212.689 252.347 212.8 252.405 212.931L254.077 216.911L256.606 210.908C256.643 210.821 256.697 210.742 256.765 210.676C256.833 210.61 256.913 210.558 257.001 210.524C257.089 210.489 257.183 210.471 257.278 210.473C257.372 210.474 257.466 210.494 257.553 210.532C257.723 210.606 257.857 210.745 257.925 210.917C257.993 211.09 257.99 211.282 257.916 211.453Z" fill="#4A148C"/>
<path d="M266.961 211.504C267.801 212.39 268.27 213.564 268.27 214.785C268.27 216.006 267.801 217.18 266.961 218.065C266.567 218.497 266.089 218.843 265.556 219.082C265.022 219.321 264.445 219.447 263.861 219.453C263.265 219.45 262.676 219.325 262.129 219.087C261.583 218.848 261.091 218.501 260.684 218.065C259.859 217.172 259.401 216.001 259.401 214.785C259.401 213.569 259.859 212.398 260.684 211.504C261.089 211.067 261.581 210.718 262.128 210.479C262.674 210.24 263.264 210.117 263.861 210.117C264.446 210.12 265.024 210.245 265.557 210.483C266.091 210.722 266.569 211.07 266.961 211.504ZM266.792 214.784C266.792 213.945 266.477 213.135 265.91 212.516C265.648 212.226 265.328 211.994 264.971 211.835C264.613 211.677 264.227 211.595 263.836 211.595C263.445 211.595 263.058 211.677 262.701 211.835C262.344 211.994 262.023 212.226 261.761 212.516C261.189 213.132 260.873 213.943 260.88 214.784C260.871 215.622 261.187 216.431 261.761 217.041C262.021 217.334 262.341 217.569 262.698 217.73C263.056 217.891 263.444 217.974 263.836 217.974C264.228 217.974 264.616 217.891 264.973 217.73C265.331 217.569 265.65 217.334 265.91 217.041C266.479 216.427 266.794 215.621 266.792 214.784Z" fill="#4A148C"/>
<path d="M276.833 218.376C276.863 218.466 276.876 218.56 276.869 218.654C276.863 218.748 276.838 218.84 276.796 218.924C276.754 219.009 276.695 219.084 276.624 219.146C276.553 219.207 276.47 219.255 276.38 219.284C276.287 219.309 276.191 219.322 276.094 219.323H276.082C275.903 219.324 275.728 219.275 275.576 219.18C275.403 219.065 275.26 218.909 275.161 218.727C274.952 218.236 274.859 217.703 274.889 217.171C274.888 216.974 274.834 216.782 274.733 216.613C274.634 216.46 274.501 216.331 274.344 216.237C274.12 216.095 273.875 215.99 273.619 215.926H272.089V218.739C272.086 218.93 272.008 219.112 271.872 219.246C271.736 219.379 271.553 219.454 271.362 219.453C271.268 219.453 271.176 219.435 271.089 219.399C271.002 219.363 270.923 219.311 270.857 219.244C270.791 219.178 270.738 219.099 270.702 219.013C270.667 218.926 270.648 218.833 270.649 218.739V211.089C270.647 210.995 270.665 210.902 270.7 210.815C270.736 210.728 270.788 210.649 270.855 210.582C270.921 210.516 271 210.463 271.088 210.428C271.175 210.392 271.268 210.375 271.362 210.376H273.683C274.254 210.376 274.812 210.552 275.279 210.881C275.747 211.209 276.101 211.675 276.294 212.213C276.487 212.75 276.51 213.335 276.358 213.886C276.206 214.437 275.887 214.927 275.446 215.29C275.623 215.424 275.776 215.586 275.9 215.77C276.182 216.183 276.331 216.671 276.327 217.17C276.315 217.426 276.332 217.683 276.38 217.935C276.485 217.968 276.581 218.025 276.66 218.101C276.738 218.178 276.798 218.272 276.833 218.376ZM275.019 213.164C275.02 212.987 274.987 212.813 274.92 212.649C274.854 212.486 274.756 212.337 274.632 212.212C274.507 212.086 274.36 211.987 274.197 211.919C274.034 211.851 273.859 211.816 273.683 211.816H272.089V214.487H273.683C274.035 214.488 274.374 214.349 274.624 214.101C274.875 213.853 275.016 213.516 275.019 213.164Z" fill="#4A148C"/>
<path d="M278.939 218.739V211.089C278.937 210.995 278.955 210.902 278.99 210.815C279.026 210.728 279.078 210.649 279.145 210.582C279.211 210.516 279.29 210.463 279.378 210.428C279.465 210.392 279.558 210.375 279.652 210.376H281.182C282.386 210.376 283.54 210.854 284.391 211.706C285.242 212.557 285.72 213.711 285.72 214.915C285.72 216.118 285.242 217.272 284.391 218.123C283.54 218.975 282.386 219.453 281.182 219.453H279.652C279.558 219.453 279.466 219.435 279.379 219.399C279.292 219.363 279.213 219.311 279.147 219.244C279.081 219.178 279.028 219.099 278.992 219.013C278.957 218.926 278.938 218.833 278.939 218.739ZM280.378 218.014H281.182C282.001 218.009 282.785 217.68 283.362 217.1C283.939 216.519 284.263 215.734 284.263 214.915C284.263 214.096 283.939 213.31 283.362 212.73C282.785 212.149 282.001 211.82 281.182 211.816H280.378V218.014Z" fill="#4A148C"/>
<path d="M434.056 100.277C434.056 100.277 426.43 161.336 413.895 175.076C398.848 191.558 387.928 189.149 381.853 197.646L381.848 197.647L381.844 197.65L381.841 197.654L381.84 197.659C375.765 189.149 364.845 191.571 349.785 175.075C337.25 161.336 329.637 100.277 329.637 100.277C362.666 84.2432 381.84 66.2742 381.84 66.2742L381.853 66.287C382.442 66.8381 401.539 84.5 434.056 100.277Z" fill="#37474F"/>
<path d="M381.853 66.287V197.646L381.848 197.647L381.844 197.65L381.841 197.654L381.84 197.659C375.765 189.149 364.845 191.571 349.785 175.076C337.25 161.336 329.637 100.277 329.637 100.277C362.666 84.2432 381.84 66.2742 381.84 66.2742L381.853 66.287Z" fill="#455A64"/>
<path d="M425.954 105.196C425.954 105.196 419.513 156.776 408.926 168.387C396.204 182.331 386.974 180.282 381.84 187.464C376.707 180.282 367.477 182.331 354.755 168.387C344.167 156.775 337.738 105.196 337.738 105.196C365.638 91.6468 381.84 76.4691 381.84 76.4691C381.84 76.4691 398.055 91.6468 425.954 105.196Z" fill="#455A64"/>
<path d="M337.752 105.198C337.752 105.198 344.193 156.773 354.783 168.389C367.493 182.322 376.714 180.287 381.853 187.448V76.4843C381.358 76.9488 365.22 91.8589 337.752 105.198Z" fill="#37474F"/>
<path d="M396.309 146.429C404.297 138.442 404.297 125.492 396.309 117.504C388.322 109.516 375.371 109.516 367.384 117.504C359.396 125.492 359.396 138.442 367.384 146.429C375.371 154.417 388.322 154.417 396.309 146.429Z" fill="#4A148C"/>
<path d="M379.516 145.255L370.406 135.782L373.786 132.533L378.808 137.755L389.633 121.148L393.561 123.709L379.516 145.255Z" fill="white"/>
<path d="M80.3628 247.084H150.526V232.55H80.3628V247.084Z" fill="#C7C7C7"/>
<path d="M131.697 246.964L133.664 265.533L157.916 439.366H164.855L145.712 265.533L144.155 246.964H131.697Z" fill="#C7C7C7"/>
<path d="M66.0259 439.366H72.9749L97.2269 265.533L99.1939 246.964H86.7349L85.1789 265.533L66.0259 439.366Z" fill="#C7C7C7"/>
<path d="M77.7388 382.579H155.131V378.217H77.7388V382.579Z" fill="#C7C7C7"/>
<path d="M145.712 264.875H133.664L131.697 246.964H144.155L145.712 264.875Z" fill="#A6A6A6"/>
<path d="M85.1792 264.875H97.2272L99.1942 246.964H86.7352L85.1792 264.875Z" fill="#A6A6A6"/>
<path d="M89.7312 162.718C92.6812 164.256 93.247 169.565 102.591 169.279C103.924 169.239 105.008 168.709 106.232 169.157C108.016 169.814 109.432 171.24 111.022 172.281C112.298 173.14 113.752 173.701 115.276 173.922C118.203 174.265 121.158 173.583 123.638 171.993C125.168 171.051 126.454 169.747 127.933 168.73C129.331 167.769 138.345 165.555 139.849 160.529C140.803 157.342 140.656 153.709 136.869 149.047C135.992 148.216 135.394 147.134 135.158 145.95C135.159 144.912 135.396 143.888 135.85 142.954C136.374 141.889 136.564 140.69 136.396 139.515C135.972 138.398 135.293 137.396 134.412 136.589C133.012 134.904 133.272 132.459 134.424 129.455C134.875 128.183 135.027 126.825 134.871 125.485C134.715 124.145 134.253 122.858 133.522 121.724C132.604 120.42 131.521 119.242 130.298 118.219C128.593 116.602 128.278 115.097 127.528 112.813C126.081 108.408 123.814 106.436 121.137 105.085C118.728 103.869 118.81 104.332 116.226 104.725C113.614 103.124 110.537 102.458 107.497 102.836C104.679 103.196 102.35 105.09 100.22 106.9C98.3177 108.519 96.5816 110.26 96.4771 112.987C96.4154 114.56 96.8007 116.123 96.7257 117.693C96.6318 119.689 95.519 120.958 94.1857 122.221C92.2059 123.909 90.8394 126.204 90.2988 128.749C89.954 130.882 92.048 134.186 89.5946 137.337C87.429 140.119 83.621 143.319 82.617 146.822C79.5028 157.687 86.904 161.244 89.7312 162.718Z" fill="#263238"/>
<path d="M125.899 168.581C130.188 167.931 136.785 168.737 139.062 163.962C139.965 163.226 140.679 162.286 141.146 161.219C141.613 160.152 141.818 158.989 141.746 157.826C141.452 155.348 140.306 153.048 138.505 151.321C137.453 150.339 136.537 149.22 135.783 147.995C135.537 147.039 135.359 146.067 135.249 145.086C135.43 143.834 135.774 142.611 136.274 141.448C136.276 141.442 136.275 141.435 136.272 141.43C136.27 141.424 136.265 141.419 136.259 141.417C136.253 141.414 136.246 141.414 136.24 141.416C136.234 141.418 136.229 141.422 136.225 141.427C135.295 143.398 134.422 145.594 135.292 147.79C135.418 148.104 135.569 148.407 135.744 148.697C136.052 149.856 136.479 150.98 137.019 152.051C138.432 154.854 139.721 157.382 139.533 160.654C139.495 161.746 139.232 162.818 138.762 163.804C136.904 165.428 134.586 166.432 132.131 166.676C132.068 166.685 132.068 166.788 132.133 166.781C134.352 166.553 136.481 165.78 138.33 164.531C135.837 168.097 130.048 167.614 125.859 168.437C125.767 168.455 125.811 168.595 125.899 168.581ZM139.387 163.153C139.398 163.12 139.411 163.091 139.421 163.058C140.153 160.421 139.963 157.613 138.883 155.098C138.196 153.428 137.181 151.933 136.512 150.25C136.398 149.962 136.293 149.669 136.194 149.375C137.152 150.68 138.448 151.775 139.386 153.049C141.429 155.827 142.028 159.141 140.123 162.155C139.902 162.505 139.656 162.838 139.387 163.153Z" fill="#263238"/>
<path d="M80.4893 157.516C80.5011 157.533 80.5188 157.545 80.5389 157.549C80.5589 157.553 80.5798 157.549 80.5971 157.538C80.6145 157.527 80.627 157.51 80.6321 157.49C80.6372 157.47 80.6346 157.449 80.6247 157.431C78.811 154.288 79.3255 151.056 80.7784 148.166C80.082 152.482 80.9292 157.315 84.8693 159.628C84.9351 159.667 84.9914 159.562 84.9262 159.523C80.8468 157.08 80.2331 151.505 81.3362 147.146C82.2388 145.657 83.2966 144.268 84.492 143.003C86.3671 140.984 88.6962 138.995 90.0797 136.513C89.7913 137.971 88.9651 139.267 87.7651 140.143C87.6968 140.198 87.7633 140.321 87.8366 140.267C89.1387 139.391 90.0665 138.06 90.4377 136.536C90.5035 136.22 90.5379 135.898 90.5405 135.576C90.8967 134.769 91.1278 133.912 91.2257 133.035C91.229 133.004 91.1778 132.998 91.1737 133.028C91.066 133.81 90.8514 134.574 90.536 135.297C90.3782 133.942 90.0701 132.609 89.6175 131.323C88.6121 127.582 90.4975 125.376 92.8148 123.367C93.002 123.249 93.1926 123.131 93.3868 123.013C94.6508 122.353 95.7162 121.368 96.4738 120.16C96.6346 119.993 96.7919 119.824 96.9414 119.65C96.9482 119.643 96.9372 119.631 96.93 119.639C96.8093 119.765 96.6819 119.886 96.5542 120.007C96.7248 119.663 96.8533 119.3 96.937 118.925C96.9403 118.91 96.9184 118.9 96.9127 118.915C96.6667 119.543 96.3102 120.123 95.8603 120.626C94.9395 121.395 93.9158 122.101 92.9404 122.854C91.1225 123.963 89.2768 125.027 88.5721 127.253C87.903 129.366 88.4181 131.65 88.5878 133.806C88.8502 137.142 87.6422 139.928 84.6247 141.253C84.573 141.276 84.5661 141.328 84.6218 141.308C84.8518 141.241 85.0779 141.16 85.299 141.068C83.4321 142.421 82.0058 144.295 81.199 146.455C79.1232 149.762 78.2282 153.986 80.4893 157.516ZM88.2611 138.762C87.9195 139.032 87.5782 139.295 87.2393 139.554C87.725 138.987 88.1029 138.336 88.3543 137.633C89.1943 135.273 88.4972 132.701 88.4398 130.27C88.3614 129.254 88.5279 128.234 88.9254 127.296C89.3229 126.357 89.9397 125.528 90.7241 124.877C90.0273 125.655 89.5067 126.575 89.198 127.573C88.6637 129.365 89.2221 131.034 89.7381 132.762C90.0939 133.845 90.2289 134.989 90.1355 136.125C89.6081 137.069 88.9796 137.954 88.2611 138.762ZM81.9889 145.318C83.0477 143.408 84.5098 141.751 86.2735 140.464C86.3954 140.372 86.512 140.274 86.6268 140.173C87.1068 139.78 87.5893 139.389 88.0601 138.989C86.1021 141.191 83.6599 143.14 81.9889 145.318Z" fill="#263238"/>
<path d="M86.5766 160.273C86.581 160.273 86.5851 160.275 86.5881 160.279C86.5911 160.282 86.5928 160.286 86.5928 160.29C86.5929 160.295 86.5914 160.299 86.5885 160.302C86.5856 160.306 86.5816 160.308 86.5772 160.308C86.5728 160.308 86.5687 160.306 86.5657 160.303C86.5627 160.3 86.561 160.295 86.561 160.291C86.5609 160.287 86.5624 160.282 86.5653 160.279C86.5682 160.276 86.5722 160.273 86.5766 160.273Z" fill="#263238"/>
<path d="M129.703 117.574C131.305 118.965 132.831 120.441 134.274 121.995C135.278 123.013 135.88 124.359 135.968 125.787C136.005 127.224 135.551 128.631 134.68 129.775C134.355 130.257 134.033 130.752 133.741 131.255C133.671 132.186 133.818 133.12 134.17 133.984C134.865 135.633 136.424 136.646 137.145 138.318C138.309 141.018 137.016 143.237 135.878 145.65C135.87 145.666 135.848 145.652 135.855 145.636C136.676 143.657 137.827 141.706 137.191 139.474C136.668 137.636 135.329 136.653 134.323 135.162C133.711 134.216 133.372 133.12 133.343 131.994C132.444 133.808 132.125 135.725 133.716 137.641C133.786 137.726 133.678 137.848 133.598 137.767C131.587 135.729 132.117 133.261 133.346 131.105C133.428 129.839 133.71 128.593 134.181 127.414C134.231 127.288 134.408 127.38 134.385 127.502C134.208 128.443 133.972 129.378 133.837 130.311C133.907 130.206 133.978 130.101 134.05 129.997C135.653 127.71 136.276 125.044 134.437 122.597C133.06 120.767 131.176 119.329 129.64 117.641C129.631 117.632 129.626 117.621 129.626 117.609C129.625 117.596 129.63 117.585 129.638 117.576C129.647 117.567 129.658 117.562 129.67 117.561C129.682 117.561 129.694 117.565 129.703 117.574Z" fill="#263238"/>
<path d="M141.729 306.389C141.729 306.389 123.816 346.17 123.802 346.197C120.336 353.787 117.433 360.502 116.256 364.117C116.245 364.135 116.239 364.155 116.238 364.176C115.87 364.992 115.696 365.881 115.727 366.776C115.731 366.799 115.739 366.822 115.75 366.844C117.31 369.405 177.155 398.87 179.587 399.195C182.025 399.533 183.138 392.611 181.727 389.615C180.299 386.609 162.441 365.085 162.441 365.085L179.97 325.151L141.729 306.389Z" fill="#F3CEC6"/>
<path d="M127.481 338.03C127.481 338.03 123.816 346.17 123.802 346.197C120.336 353.787 117.433 360.502 116.256 364.117C116.245 364.135 116.239 364.155 116.238 364.175C115.967 365.019 115.795 365.892 115.727 366.775C115.731 366.799 115.739 366.822 115.75 366.843C117.31 369.405 177.155 398.87 179.587 399.194C182.025 399.533 183.138 392.611 181.727 389.614C180.299 386.609 162.441 365.085 162.441 365.085L166.287 356.848L127.481 338.03Z" fill="#EBEBEB"/>
<path d="M179.572 399.112C177.135 398.79 117.267 369.386 115.701 366.818C115.089 365.853 118.865 356.88 123.738 346.168L123.894 345.834L162.73 364.373L162.393 365.021C162.393 365.021 180.275 386.526 181.701 389.531C183.112 392.52 182.006 399.444 179.572 399.112Z" fill="#263238"/>
<path d="M181.54 397.414C182.409 398.354 180.41 401.838 179.495 401.747C178.58 401.656 113.445 369.308 112.457 368.514C111.469 367.72 113.833 363.94 115.221 364.368C116.61 364.797 181.54 397.414 181.54 397.414Z" fill="#4A148C"/>
<path d="M165.581 366.731C161.974 364.04 156.818 362.264 152.394 363.603C152.222 363.655 152.298 363.897 152.447 363.92C156.844 364.559 161.159 365.667 165.319 367.225C165.383 367.247 165.453 367.246 165.516 367.221C165.579 367.197 165.631 367.15 165.662 367.091C165.694 367.031 165.703 366.962 165.688 366.896C165.674 366.83 165.636 366.772 165.581 366.731Z" fill="white"/>
<path d="M167.6 369.867C163.993 367.175 158.836 365.399 154.412 366.738C154.24 366.79 154.317 367.033 154.465 367.056C158.862 367.694 163.177 368.802 167.338 370.361C167.402 370.383 167.471 370.381 167.534 370.357C167.597 370.332 167.649 370.286 167.681 370.226C167.712 370.166 167.721 370.097 167.707 370.032C167.692 369.966 167.654 369.907 167.6 369.867Z" fill="white"/>
<path d="M169.618 373.002C166.011 370.31 160.854 368.535 156.43 369.874C156.258 369.926 156.334 370.168 156.483 370.191C160.88 370.83 165.195 371.938 169.355 373.496C169.419 373.518 169.489 373.517 169.552 373.492C169.615 373.468 169.667 373.421 169.698 373.362C169.73 373.302 169.739 373.233 169.724 373.167C169.71 373.101 169.672 373.043 169.618 373.002Z" fill="white"/>
<path d="M130.486 357.394C127.211 353.092 120.52 358.174 123.8 362.483C127.075 366.785 133.766 361.703 130.486 357.394Z" fill="white"/>
<path d="M152.289 271.806C151.892 283.375 129.587 333.353 129.587 333.353L168.702 351.356C168.702 351.356 200.271 295.793 197.339 270.194C194.842 248.474 140.194 208.305 131.42 196.981C130.121 195.304 130.565 188.539 130.565 188.539H95.0757V196.981C108.632 225.739 149.162 260.241 152.163 270.367C152.278 270.831 152.32 271.31 152.288 271.787L152.289 271.806Z" fill="#37474F"/>
<path d="M168.479 342.996C162.042 339.911 163.934 340.702 157.461 337.692C154.294 336.219 138.392 328.773 135.188 327.936C135.172 327.935 135.155 327.939 135.141 327.947C135.126 327.955 135.115 327.968 135.108 327.983C135.101 327.998 135.099 328.015 135.103 328.031C135.106 328.048 135.114 328.062 135.126 328.074C137.868 329.931 153.94 336.999 157.137 338.409C163.668 341.29 161.826 340.389 168.39 343.193C168.416 343.203 168.444 343.202 168.469 343.192C168.495 343.181 168.515 343.161 168.526 343.136C168.538 343.111 168.539 343.083 168.53 343.057C168.522 343.031 168.503 343.009 168.479 342.996Z" fill="#263238"/>
<path d="M104.039 203.047C114.75 219.37 126.724 234.827 139.854 249.277C143.067 252.788 146.377 256.204 149.689 259.621C152.494 262.515 155.346 265.723 156.044 269.833C156.821 274.407 155.027 278.973 153.607 283.236C152.04 287.937 150.463 292.635 148.792 297.3C146.991 302.332 139.634 320.487 138.417 322.936C137.808 324.16 148.157 297.983 149.835 293.1C151.492 288.278 153.223 283.448 154.648 278.552C155.487 276.057 155.838 273.425 155.682 270.797C155.357 268.268 154.346 265.876 152.757 263.881C149.884 260.041 146.137 256.785 142.869 253.283C136.091 246.02 129.627 238.481 123.476 230.665C116.487 221.826 109.96 212.632 103.921 203.119C103.873 203.043 103.99 202.972 104.039 203.047Z" fill="#263238"/>
<path d="M82.9694 393.118C82.9694 393.118 81.2256 436.728 81.2251 436.758C81.4216 445.1 81.7425 452.408 82.2615 456.175C82.2595 456.195 82.2626 456.216 82.2707 456.235C82.2964 457.13 82.5278 458.007 82.9468 458.797C82.9668 458.817 82.9768 458.838 82.9968 458.849C85.5188 460.472 152.223 460.847 154.553 460.076C156.893 459.316 154.872 452.603 152.295 450.523C149.698 448.443 124.233 436.878 124.233 436.878L125.564 393.298L82.9694 393.118Z" fill="#F3CEC6"/>
<path d="M81.5702 428.129C81.5702 428.129 81.2261 436.728 81.2256 436.759C81.4221 445.1 81.743 452.409 82.262 456.175C82.26 456.195 82.2632 456.216 82.2712 456.236C82.3959 457.113 82.6228 457.973 82.9473 458.798C82.9673 458.818 82.9773 458.838 82.9973 458.849C85.5193 460.472 152.223 460.847 154.553 460.076C156.893 459.316 154.873 452.603 152.296 450.523C149.698 448.443 124.234 436.878 124.234 436.878L124.503 428.057L81.5702 428.129Z" fill="#EBEBEB"/>
<path d="M154.503 460.008C152.17 460.783 85.4714 460.474 82.9415 458.848C81.9692 458.246 81.4479 448.525 81.155 436.761C81.1531 436.638 81.1513 436.515 81.1494 436.392L124.183 436.111L124.163 436.841C124.163 436.841 149.64 448.379 152.235 450.46C154.809 452.533 156.838 459.244 154.503 460.008Z" fill="#263238"/>
<path d="M155.532 457.622C156.725 458.088 156.448 462.095 155.585 462.413C154.721 462.73 81.9996 462.072 80.7648 461.789C79.53 461.506 80.0048 457.074 81.4414 456.853C82.878 456.632 155.532 457.622 155.532 457.622Z" fill="#4A148C"/>
<path d="M127.777 436.988C123.357 436.141 117.942 436.795 114.547 439.932C114.415 440.053 114.59 440.238 114.734 440.194C118.968 438.849 123.334 437.961 127.757 437.546C127.825 437.539 127.887 437.507 127.933 437.457C127.978 437.408 128.005 437.343 128.007 437.276C128.01 437.208 127.988 437.142 127.946 437.089C127.903 437.036 127.844 437 127.777 436.988Z" fill="white"/>
<path d="M130.962 438.927C126.541 438.081 121.127 438.735 117.732 441.871C117.6 441.993 117.775 442.178 117.919 442.134C122.153 440.788 126.519 439.901 130.942 439.486C131.009 439.478 131.071 439.446 131.117 439.397C131.163 439.347 131.189 439.283 131.192 439.215C131.194 439.148 131.172 439.081 131.13 439.029C131.088 438.976 131.028 438.94 130.962 438.927Z" fill="white"/>
<path d="M134.147 440.867C129.726 440.02 124.312 440.674 120.916 443.811C120.785 443.932 120.959 444.118 121.103 444.073C125.337 442.728 129.703 441.84 134.126 441.425C134.193 441.418 134.256 441.386 134.301 441.336C134.347 441.287 134.374 441.222 134.376 441.155C134.379 441.087 134.357 441.021 134.315 440.968C134.273 440.915 134.213 440.879 134.147 440.867Z" fill="white"/>
<path d="M92.1273 443.913C87.3032 441.473 83.5027 448.966 88.3347 451.411C93.1592 453.851 96.9601 446.358 92.1273 443.913Z" fill="white"/>
<path d="M125.399 422.857L81.8044 423.215C81.8044 423.215 89.0621 245.146 84.2031 239.334C72.6382 225.499 74.4831 207.059 82.2692 188.539H122.018C122.018 188.539 120.114 216.662 120.3 217.477C132.499 270.783 125.399 422.857 125.399 422.857Z" fill="#37474F"/>
<path d="M122.998 413.929C113.492 413.189 88.4436 414.004 85.2825 414.485C85.267 414.49 85.2536 414.5 85.2439 414.513C85.2343 414.527 85.2289 414.543 85.2285 414.559C85.2281 414.575 85.2327 414.591 85.2417 414.605C85.2507 414.619 85.2637 414.629 85.2789 414.636C88.4123 415.275 117.134 414.367 122.993 414.145C123.019 414.142 123.044 414.13 123.062 414.111C123.081 414.091 123.091 414.066 123.092 414.039C123.092 414.012 123.083 413.986 123.066 413.966C123.049 413.946 123.024 413.932 122.998 413.929Z" fill="#263238"/>
<path d="M122.936 199.467C122.539 204.501 122.739 213.088 119.827 213.223C117.008 213.353 117.426 202.847 117.346 200.433C117.273 198.243 116.52 198.542 116.439 201.125C116.216 208.13 116.394 214.31 120.121 214.025C123.917 213.734 123.81 202.877 123.72 200.397C123.673 199.118 123.062 197.879 122.936 199.467Z" fill="#263238"/>
<path d="M120.018 213.555C119.838 215.32 119.875 217.101 120.129 218.857C120.178 219 120.74 218.89 120.796 218.773C121.143 218.044 120.866 214.599 120.963 213.675C120.975 213.552 120.938 213.429 120.861 213.332C120.784 213.235 120.672 213.173 120.549 213.157C120.426 213.141 120.302 213.174 120.203 213.248C120.104 213.322 120.038 213.432 120.018 213.555Z" fill="#263238"/>
<path d="M121.25 219.749C122.491 224.154 123.762 232.57 123.463 234.789C123.436 234.989 123.135 235.058 123.099 234.846C122.7 232.486 120.941 221.139 120.763 219.948C120.574 218.679 120.904 218.522 121.25 219.749Z" fill="#263238"/>
<path d="M113.605 223.221C114.18 222.649 114.8 222.124 115.46 221.651C116.109 221.139 116.763 220.64 117.44 220.164C118.819 219.192 120.245 218.301 121.694 217.438C123.111 216.594 124.565 215.826 126.036 215.081C127.578 214.299 129.219 213.713 130.764 212.937C130.851 212.893 130.932 213.02 130.844 213.069C129.376 213.879 128.024 214.893 126.602 215.779C125.173 216.669 123.761 217.586 122.332 218.477C120.937 219.348 119.555 220.239 118.152 221.099C117.417 221.549 116.677 221.986 115.933 222.421C115.259 222.856 114.556 223.247 113.831 223.591C113.612 223.683 113.466 223.374 113.605 223.221Z" fill="#263238"/>
<path d="M88.3699 330.21C89.0136 315.935 90.0359 300.037 90.2448 285.749C90.3493 278.605 90.4006 271.461 90.3986 264.316C90.3967 257.227 90.4486 247.76 90.0765 240.679C89.8875 237.08 83.5494 234.304 82.2595 223.818C81.3721 217.854 81.847 211.767 83.6485 206.012C84.1003 204.612 84.6305 203.239 85.2365 201.898C85.2774 201.807 85.4093 201.886 85.3702 201.976C82.8295 207.863 81.7744 214.283 82.2978 220.674C82.4722 223.891 83.1345 227.064 84.2619 230.083C85.9644 234.306 90.154 237.741 90.3728 239.985C90.7003 243.342 90.7522 246.243 90.7951 249.606C90.8395 253.108 90.8707 256.61 90.8887 260.112C90.9253 267.256 90.9056 274.401 90.8294 281.545C90.6744 295.763 90.3001 309.976 89.7065 324.185C89.1074 338.391 85.4275 409.537 85.1895 411.151C85.1636 411.327 84.8664 411.288 84.8782 411.11C85.3571 403.992 87.7262 344.484 88.3699 330.21Z" fill="#263238"/>
<path d="M111.918 155.716C121.378 175.239 133.39 196.378 144.633 199.696C155.327 202.853 176.072 176.581 182.577 169.666C184.923 167.171 165.911 152.872 162.962 155.043C157.404 159.135 147.409 170.274 145.731 169.881C143.984 169.465 130.07 156.196 117.432 144.999C109.772 138.212 105.366 142.192 111.918 155.716Z" fill="#F3CEC6"/>
<path d="M199.081 157.331C201.679 156.241 221.704 155.603 221.696 151.263C221.688 146.923 196.214 148.136 196.214 148.136L199.081 157.331Z" fill="#F3CEC6"/>
<path d="M160.681 157.836C164.181 153.488 167.257 148.798 170.3 147.939C172.407 147.344 195.074 148.323 198.617 148.107C202.159 147.892 214.794 148.218 215.085 151.323C215.497 155.713 200.543 155.673 198.947 157.916C193.436 165.663 172.486 177.116 172.486 177.116L160.681 157.836Z" fill="#F3CEC6"/>
<path d="M215.418 151.386C215.192 150.579 214.676 149.884 213.969 149.434C212.421 148.345 210.383 148.254 208.561 148.107C205.799 147.853 203.021 147.831 200.255 148.041C200.243 148.042 200.231 148.048 200.223 148.057C200.215 148.066 200.21 148.078 200.21 148.09C200.211 148.103 200.216 148.114 200.225 148.123C200.233 148.132 200.245 148.137 200.257 148.137C202.332 148.167 204.399 148.19 206.467 148.365C208.365 148.44 210.248 148.728 212.082 149.223C212.91 149.445 213.658 149.894 214.243 150.52C214.449 150.74 214.596 151.009 214.67 151.301C214.745 151.593 214.744 151.9 214.668 152.191C214.065 154.103 210.293 154.671 208.553 155.06C206.276 155.569 203.916 156.016 201.631 156.484C201.531 156.504 201.578 156.656 201.677 156.636C204.052 156.166 206.557 155.984 208.94 155.553C210.872 155.203 212.941 154.811 214.502 153.53C214.84 153.295 215.106 152.969 215.268 152.59C215.43 152.211 215.482 151.793 215.418 151.386Z" fill="#263238"/>
<path d="M180.167 141.934L180.825 138.562L220.22 146.249C220.576 146.319 220.889 146.526 221.092 146.827C221.294 147.128 221.369 147.496 221.299 147.852L221.165 148.542C221.095 148.897 220.888 149.211 220.587 149.413C220.286 149.616 219.918 149.69 219.562 149.621L180.167 141.934Z" fill="#4A148C"/>
<path opacity="0.1" d="M180.824 138.56L180.166 141.933L184.92 142.861L185.579 139.488L180.824 138.56Z" fill="black"/>
<path d="M165.775 134.265L164.607 140.247C164.411 141.252 164.415 142.286 164.618 143.289C164.821 144.293 165.22 145.246 165.792 146.096C166.364 146.945 167.098 147.673 167.951 148.239C168.804 148.805 169.761 149.197 170.766 149.393C171.771 149.59 172.804 149.586 173.808 149.383C174.811 149.179 175.765 148.78 176.614 148.209C177.464 147.637 178.192 146.903 178.758 146.05C179.324 145.196 179.716 144.24 179.912 143.235L181.08 137.253C181.476 135.224 181.05 133.12 179.895 131.405C178.74 129.689 176.951 128.503 174.921 128.107C172.892 127.711 170.788 128.137 169.073 129.292C167.357 130.447 166.171 132.236 165.775 134.265ZM178.634 135.765C178.42 136.651 177.939 137.451 177.254 138.053C176.57 138.656 175.717 139.034 174.81 139.134C175.612 139.568 176.261 140.239 176.668 141.055C177.075 141.871 177.221 142.792 177.086 143.694C176.621 146.072 173.996 147.568 171.226 147.027C168.455 146.486 166.589 144.114 167.053 141.735C167.267 140.849 167.748 140.049 168.432 139.446C169.117 138.843 169.97 138.466 170.876 138.365C170.074 137.931 169.426 137.261 169.018 136.445C168.611 135.629 168.466 134.707 168.601 133.805C169.066 131.424 171.686 129.935 174.457 130.475C177.228 131.016 179.099 133.383 178.634 135.765Z" fill="#4A148C"/>
<path d="M179.869 143.46L181.124 137.032C181.156 136.868 181.251 136.724 181.39 136.63C181.529 136.537 181.699 136.503 181.863 136.535L182.181 136.597C182.345 136.629 182.489 136.725 182.583 136.863C182.676 137.002 182.711 137.172 182.679 137.336L181.424 143.763C181.392 143.927 181.296 144.072 181.157 144.165C181.019 144.258 180.849 144.293 180.685 144.261L180.366 144.198C180.202 144.166 180.058 144.071 179.965 143.932C179.871 143.793 179.837 143.624 179.869 143.46Z" fill="#4A148C"/>
<path d="M181.426 143.757L182.681 137.329C182.713 137.165 182.808 137.02 182.947 136.927C183.086 136.833 183.256 136.799 183.42 136.831L183.738 136.893C183.902 136.925 184.046 137.021 184.14 137.16C184.233 137.298 184.267 137.468 184.235 137.632L182.98 144.06C182.948 144.224 182.853 144.369 182.714 144.462C182.575 144.555 182.405 144.59 182.241 144.558L181.923 144.496C181.759 144.464 181.615 144.368 181.521 144.229C181.428 144.09 181.394 143.921 181.426 143.757Z" fill="#4A148C"/>
<path d="M210.797 142.973L211.97 143.202L212.635 139.795L213.637 139.99L213.29 141.766L214.46 141.995L214.807 140.219L215.695 140.392L215.147 143.201L216.32 143.43L216.869 140.622L218.128 140.867L217.396 144.619L218.57 144.848L219.302 141.096L220.493 141.329L219.557 146.123L209.077 144.077L210.013 139.283L211.462 139.566L210.797 142.973Z" fill="#4A148C"/>
<path d="M76.5591 194.56L132.381 195.477L128.006 178.763C129.465 176.665 130.445 174.273 130.88 171.755C131.314 169.237 131.191 166.655 130.519 164.189C129.184 159.274 122.828 151.896 118.934 147.216C109.449 135.816 101.207 140.969 98.5777 143.902C88.5367 155.101 76.5591 194.56 76.5591 194.56Z" fill="#4A148C"/>
<path d="M104.045 150.373L104.089 147.185L106.202 149.55L108.484 148.839L107.368 150.868L108.441 151.995L106.782 152.162L106.753 154.315L104.927 152.799L103.442 154.033L103.609 152.213L101.445 151.213L104.045 150.373ZM127.828 186.099L126.069 187.708L124.455 186.85L125.019 188.697L122.915 189.794L124.89 190.654L124.403 192.249L125.857 191.695L127.296 193.508L127.523 191.129L130.521 190.094L127.598 188.822L127.828 186.099ZM107.422 174.231L109.127 177.63L110.817 174.381L114.042 174.936L112.326 171.518L114.722 169.237L111.332 169.358L110.654 166.039L108.865 169.477L104.354 169.135L107.014 171.881L104.55 173.766L107.422 174.231ZM120.729 154.578L121.547 153.203L120.012 153.34L119.477 152.07L118.654 153.454L117.302 153.121L118.113 154.296L117.09 155.289L118.715 155.144L119.617 156.822L119.988 155.256L121.215 155.702L120.729 154.578ZM94.5527 190.962L95.3715 189.586L93.8357 189.723L93.3013 188.453L92.4782 189.837L91.1258 189.505L91.9373 190.68L90.9139 191.673L92.5392 191.528L93.4408 193.206L93.8117 191.639L95.039 192.086L94.5527 190.962ZM103.73 166.171L104.549 164.795L103.013 164.933L102.479 163.663L101.656 165.046L100.303 164.714L101.115 165.889L100.091 166.882L101.716 166.737L102.618 168.415L102.989 166.848L104.216 167.295L103.73 166.171ZM93.7936 169.886L93.5094 168.985L92.9668 169.715L92.1979 169.452L92.4839 170.358L91.8066 170.823L92.6425 170.927L92.6779 171.767L93.2521 170.995L94.3447 171.257L93.8009 170.478L94.4793 170.113L93.7936 169.886ZM119.702 191.339L119.417 190.439L118.875 191.169L118.106 190.905L118.392 191.811L117.715 192.276L118.55 192.38L118.586 193.22L119.16 192.448L120.253 192.71L119.709 191.931L120.387 191.566L119.702 191.339ZM127.453 165.2L128.157 164.57L127.268 164.376L127.191 163.567L126.484 164.201L125.781 163.775L126.031 164.579L125.279 164.958L126.22 165.163L126.431 166.266L126.916 165.45L127.528 165.918L127.453 165.2ZM113.436 182.091L114.14 181.461L113.251 181.267L113.175 180.458L112.467 181.092L111.765 180.666L112.014 181.47L111.263 181.849L112.203 182.054L112.414 183.158L112.9 182.341L113.512 182.809L113.436 182.091ZM84.6171 187.387L85.3209 186.757L84.4322 186.563L84.3555 185.754L83.6479 186.387L82.9454 185.961L83.1948 186.766L82.4434 187.144L83.3834 187.35L83.5947 188.453L84.08 187.637L84.692 188.105L84.6171 187.387Z" fill="white"/>
<path d="M113.071 177.779C115.458 177.561 117.858 177.521 120.251 177.659C121.44 177.743 122.616 177.882 123.796 178.047C124.384 178.129 124.971 178.191 125.561 178.25C126.178 178.33 126.801 178.334 127.419 178.262C127.43 178.261 127.441 178.264 127.45 178.27C127.459 178.277 127.465 178.287 127.467 178.298C127.468 178.309 127.466 178.32 127.46 178.329C127.453 178.338 127.444 178.344 127.433 178.347C126.861 178.48 126.281 178.574 125.697 178.629C125.129 178.664 124.559 178.66 123.992 178.618C122.786 178.543 121.583 178.413 120.378 178.326C117.947 178.151 115.516 177.977 113.077 177.978C112.965 177.977 112.958 177.787 113.071 177.779Z" fill="#263238"/>
<path d="M107.646 180.913C109.543 180.359 111.471 179.912 113.419 179.575C114.395 179.41 115.372 179.302 116.358 179.22C116.829 179.181 117.301 179.15 117.772 179.125C118.291 179.097 118.814 179.139 119.332 179.104C119.386 179.101 119.401 179.183 119.346 179.189C118.858 179.236 118.376 179.365 117.892 179.442C117.405 179.518 116.918 179.591 116.432 179.667C115.458 179.819 114.486 179.983 113.51 180.126C111.556 180.413 109.614 180.719 107.672 181.073C107.567 181.093 107.548 180.942 107.646 180.913Z" fill="#263238"/>
<path d="M104.045 143.237C104.279 144.233 109.042 150.688 113.592 150.468C115.074 150.393 115.03 142.286 115.03 142.286L115.163 141.687L117.026 133.298L107.165 126.992L105.74 126.158C105.74 126.158 105.381 128.487 104.965 131.391C104.945 131.526 104.925 131.66 104.905 131.805C104.877 131.968 104.848 132.123 104.829 132.276C104.761 132.709 104.694 133.152 104.636 133.594C104.591 133.93 104.545 134.257 104.51 134.612C104.466 134.967 104.43 135.313 104.386 135.668C104.099 138.18 103.985 140.709 104.045 143.237Z" fill="#F3CEC6"/>
<path d="M104.965 131.391C105.815 133.745 107.168 135.885 108.929 137.663C110.691 139.441 112.818 140.814 115.163 141.687L117.026 133.298L107.165 126.992L105.74 126.158C105.74 126.158 105.381 128.487 104.965 131.391Z" fill="#263238"/>
<path d="M128.833 119.612C131.756 134.409 123.224 137.83 120.033 138.457C117.136 139.026 107.199 140.595 102.763 126.18C98.3263 111.765 104.282 105.729 110.839 104.077C117.396 102.425 125.91 104.816 128.833 119.612Z" fill="#F3CEC6"/>
<path d="M124.506 117.353C124.167 117.428 123.824 117.485 123.479 117.523C123.125 117.634 122.745 117.624 122.397 117.497C122.296 117.435 122.218 117.342 122.175 117.232C122.132 117.122 122.127 117 122.16 116.887C122.26 116.672 122.416 116.487 122.611 116.353C122.806 116.218 123.033 116.138 123.269 116.121C123.743 116.011 124.239 116.082 124.663 116.319C124.757 116.379 124.831 116.464 124.876 116.565C124.922 116.666 124.937 116.778 124.921 116.887C124.904 116.997 124.856 117.099 124.782 117.182C124.709 117.264 124.613 117.324 124.506 117.353Z" fill="#263238"/>
<path d="M113.998 120.379C114.341 120.328 114.682 120.258 115.019 120.172C115.388 120.149 115.74 120.005 116.019 119.762C116.092 119.668 116.132 119.553 116.133 119.435C116.134 119.316 116.095 119.201 116.023 119.107C115.854 118.941 115.643 118.824 115.413 118.768C115.183 118.711 114.942 118.718 114.715 118.786C114.233 118.852 113.794 119.095 113.482 119.467C113.416 119.556 113.377 119.662 113.37 119.773C113.363 119.884 113.389 119.994 113.443 120.091C113.498 120.187 113.579 120.266 113.678 120.317C113.776 120.368 113.887 120.39 113.998 120.379Z" fill="#263238"/>
<path d="M116.224 122.275C116.211 122.237 116.152 122.335 116.16 122.377C116.344 123.387 116.384 124.576 115.516 125.05C115.489 125.065 115.5 125.116 115.533 125.106C116.631 124.781 116.561 123.203 116.224 122.275Z" fill="#263238"/>
<path d="M115.159 121.35C113.507 121.47 113.869 124.766 115.4 124.654C116.906 124.545 116.544 121.249 115.159 121.35Z" fill="#263238"/>
<path d="M114.531 121.595C114.264 121.813 114.018 122.173 113.675 122.245C113.278 122.329 112.937 122.018 112.638 121.715C112.607 121.683 112.582 121.715 112.586 121.759C112.646 122.391 112.959 123.012 113.647 123.032C114.274 123.05 114.655 122.442 114.743 121.79C114.76 121.67 114.639 121.507 114.531 121.595Z" fill="#263238"/>
<path d="M122.486 121.32C122.49 121.28 122.571 121.36 122.574 121.402C122.646 122.427 122.9 123.589 123.859 123.834C123.889 123.841 123.891 123.893 123.857 123.892C122.713 123.848 122.39 122.303 122.486 121.32Z" fill="#263238"/>
<path d="M123.289 120.16C124.919 119.868 125.385 123.15 123.874 123.421C122.388 123.688 121.923 120.406 123.289 120.16Z" fill="#263238"/>
<path d="M124.004 120.279C124.288 120.416 124.59 120.696 124.902 120.673C125.265 120.645 125.48 120.253 125.661 119.88C125.68 119.841 125.71 119.865 125.717 119.908C125.823 120.533 125.708 121.216 125.123 121.422C124.589 121.61 124.109 121.129 123.871 120.525C123.826 120.413 123.89 120.224 124.004 120.279Z" fill="#263238"/>
<path d="M118.081 130.901C118.341 131.125 118.607 131.44 118.981 131.447C119.362 131.416 119.732 131.304 120.066 131.119C120.073 131.115 120.081 131.114 120.089 131.115C120.097 131.116 120.104 131.12 120.109 131.126C120.115 131.131 120.118 131.139 120.119 131.147C120.12 131.154 120.118 131.162 120.114 131.169C119.981 131.38 119.793 131.551 119.57 131.663C119.347 131.776 119.098 131.826 118.849 131.809C118.637 131.768 118.441 131.665 118.287 131.513C118.134 131.361 118.028 131.166 117.985 130.954C117.965 130.896 118.043 130.868 118.081 130.901Z" fill="#263238"/>
<path d="M121.894 126.697C121.894 126.697 122.289 128.194 122.377 128.912C122.385 128.98 122.215 129.032 121.973 129.077C121.962 129.082 121.956 129.087 121.945 129.081C121.342 129.268 120.7 129.286 120.087 129.132C119.475 128.979 118.917 128.66 118.474 128.21C118.416 128.146 118.498 128.06 118.569 128.097C119.561 128.612 120.693 128.792 121.795 128.611C121.822 128.406 121.032 126.07 121.145 126.047C121.708 126.029 122.272 126.087 122.82 126.218C122.086 123.076 120.855 120.078 120.17 116.938C120.166 116.915 120.169 116.891 120.18 116.871C120.192 116.85 120.21 116.834 120.232 116.826C120.254 116.818 120.278 116.818 120.3 116.825C120.322 116.833 120.34 116.849 120.352 116.869C121.771 120.043 122.869 123.351 123.631 126.743C123.74 127.144 122.196 126.785 121.894 126.697Z" fill="#263238"/>
<path d="M121.868 128.82C121.542 129.456 121.057 129.997 120.461 130.391C120.13 130.595 119.743 130.691 119.355 130.666C118.506 130.601 118.35 129.862 118.382 129.199C118.403 128.846 118.465 128.497 118.567 128.159C119.569 128.726 120.726 128.958 121.868 128.82Z" fill="#263238"/>
<path d="M120.461 130.391C120.13 130.595 119.743 130.691 119.355 130.665C118.506 130.601 118.35 129.862 118.382 129.199C118.813 129.135 119.252 129.218 119.629 129.434C120.006 129.651 120.299 129.988 120.461 130.391Z" fill="#8B55CC"/>
<path d="M104.412 127.485C107.241 127.442 107.052 120.978 107.052 120.978C107.052 120.978 118.608 117.295 118.247 107.516C120.296 111.227 123.696 114.005 127.741 115.272C127.741 115.272 125.831 104.766 117.162 103.901C117.162 103.901 106.228 101.591 101.551 110.667C96.873 119.743 102.514 127.514 104.412 127.485Z" fill="#263238"/>
<path d="M118.188 106.797C118.538 108.265 118.57 109.79 118.282 111.271C118.019 112.775 117.445 114.208 116.599 115.479C116.389 115.797 116.16 116.102 115.913 116.392L115.557 116.839C115.427 116.977 115.29 117.109 115.153 117.241C114.877 117.502 114.611 117.774 114.326 118.023C114.026 118.253 113.72 118.477 113.413 118.696C113.259 118.805 113.109 118.921 112.952 119.023L112.458 119.299L111.474 119.846C110.787 120.146 110.086 120.411 109.389 120.662C110.027 120.269 110.692 119.948 111.314 119.555L112.227 118.94L112.681 118.634C112.826 118.522 112.96 118.398 113.1 118.28C113.375 118.041 113.652 117.806 113.934 117.578C114.197 117.328 114.438 117.057 114.69 116.798L115.066 116.408L115.396 115.979C115.626 115.701 115.839 115.41 116.034 115.107C116.836 113.902 117.425 112.567 117.776 111.162C117.959 110.455 118.083 109.735 118.147 109.008C118.224 108.273 118.238 107.534 118.188 106.797Z" fill="#263238"/>
<path d="M100.008 118.586L99.3101 120.006L103.987 123.433L105.493 120.236L100.008 118.586ZM103.664 121.966L100.425 119.871L100.58 119.537L104.214 120.847L103.664 121.966Z" fill="#4A148C"/>
<path d="M100.204 116.077L100.093 117.655L105.716 119.066L105.906 115.538L100.204 116.077ZM104.864 117.83L101.075 117.11L101.092 116.741L104.952 116.586L104.864 117.83Z" fill="#4A148C"/>
<path d="M106.576 126.207C106.576 126.207 102.794 121.884 100.797 123.282C98.8005 124.68 102 131.196 104.595 131.853C104.922 131.96 105.267 132 105.61 131.97C105.952 131.94 106.285 131.841 106.589 131.679C106.892 131.517 107.16 131.296 107.376 131.028C107.591 130.76 107.751 130.451 107.844 130.12L106.576 126.207Z" fill="#F3CEC6"/>
<path d="M101.761 125.127C101.753 125.128 101.745 125.131 101.74 125.137C101.734 125.143 101.73 125.15 101.729 125.158C101.729 125.167 101.731 125.175 101.736 125.181C101.74 125.188 101.747 125.193 101.755 125.195C103.581 125.713 104.677 127.233 105.505 128.844C105.384 128.68 105.229 128.544 105.051 128.446C104.873 128.347 104.675 128.289 104.472 128.274C104.269 128.259 104.066 128.289 103.875 128.361C103.685 128.432 103.512 128.544 103.369 128.689C103.327 128.727 103.378 128.793 103.426 128.778C103.723 128.646 104.053 128.61 104.371 128.674C104.689 128.738 104.979 128.899 105.202 129.135C105.572 129.532 105.898 129.967 106.175 130.434C106.274 130.581 106.547 130.467 106.468 130.293L106.449 130.255C106.251 128.021 104.178 125.091 101.761 125.127Z" fill="#263238"/>
<path d="M95.2498 147.196C82.5334 169.141 63.5166 219.498 60.0828 226.701C57.752 231.59 83.3099 244.476 84.395 240.921C85.785 236.368 103.523 177.713 104.68 151.545C105.216 139.415 99.3175 140.178 95.2498 147.196Z" fill="#F3CEC6"/>
<path d="M74.0032 252.117C75.3471 250.942 75.9732 251.639 75.3871 254.758C74.8015 257.915 69.8353 269.727 74.1153 271.11C78.4077 272.506 85.161 255.674 85.7385 250.405C86.3285 245.136 85.4042 236.409 85.4042 236.409C83.4312 239.419 77.9493 246.263 74.0032 252.117Z" fill="#F3CEC6"/>
<path d="M81.5044 270.462L49.4494 264.704C48.4905 264.618 47.8439 263.955 48.0078 263.224L50.9417 250.142C51.095 249.743 51.3811 249.409 51.7518 249.196C52.1226 248.983 52.5553 248.904 52.9772 248.973L85.0322 254.732C85.9934 254.818 86.6378 255.481 86.4739 256.211L83.54 269.293C83.387 269.692 83.101 270.027 82.7302 270.24C82.3594 270.453 81.9264 270.532 81.5044 270.462Z" fill="#A6A6A6"/>
<path d="M81.8691 268.916L49.8142 263.158C48.855 263.072 48.2086 262.409 48.3726 261.678L51.3062 248.595C51.4596 248.196 51.7457 247.862 52.1165 247.649C52.4873 247.436 52.92 247.358 53.342 247.426L85.3967 253.185C86.358 253.271 87.0026 253.934 86.8388 254.664L83.9049 267.747C83.752 268.146 83.4659 268.48 83.0951 268.694C82.7242 268.907 82.2912 268.985 81.8691 268.916Z" fill="#C7C7C7"/>
<path d="M81.2742 264.774C80.5297 264.494 79.8281 264.769 79.7068 265.389C79.6859 265.748 79.7856 266.104 79.99 266.399C80.1945 266.695 80.4919 266.913 80.835 267.02C81.5793 267.301 82.281 267.026 82.4023 266.405C82.4232 266.046 82.3235 265.691 82.1191 265.396C81.9147 265.1 81.6172 264.881 81.2742 264.774Z" fill="#263238"/>
<path d="M61.7851 224.398C55.2556 233.198 49.4776 243.565 49.3428 255.008C49.2955 256.279 49.6772 257.529 50.4263 258.556C50.2751 263.684 52.6507 265.295 52.6507 265.295C53.9719 270.115 56.6284 271.428 56.6284 271.428C56.6284 271.428 57.0131 275.556 59.9196 275.498C62.7396 275.442 64.4251 268.674 66.9685 263.727C72.7961 252.39 83.3985 239.512 85.4044 236.41L61.7851 224.398Z" fill="#F3CEC6"/>
<path d="M63.8745 249.161C62.1309 252.458 60.6142 255.871 59.3352 259.375C58.1747 263.295 57.3078 267.295 56.7418 271.343C56.7368 271.367 56.723 271.389 56.7031 271.403C56.6833 271.418 56.6587 271.425 56.6341 271.422C56.6096 271.42 56.5868 271.408 56.5701 271.39C56.5535 271.372 56.5441 271.348 56.5439 271.324C56.8551 263.393 59.3383 255.7 63.7227 249.084C63.824 248.932 63.9575 248.991 63.8745 249.161Z" fill="#263238"/>
<path d="M57.5434 244.649C56.1211 248.018 53.6598 253.954 52.7725 265.306C52.7694 265.343 52.7058 265.35 52.7036 265.309C52.3093 258.099 53.9296 250.922 57.383 244.581C57.4896 244.378 57.6377 244.425 57.5434 244.649Z" fill="#263238"/>
<path d="M54.0954 242.288C51.8954 248.108 51.2454 252.056 50.4554 258.534C50.4511 258.571 50.3859 258.573 50.3867 258.532C50.511 251.075 51.4012 248.384 53.9061 242.184C53.9922 241.971 54.1813 242.061 54.0954 242.288Z" fill="#263238"/>
</svg>
