<svg width="1210" height="593" viewBox="0 0 1210 593" fill="none" xmlns="http://www.w3.org/2000/svg">
<g opacity="0.35">
<path d="M1187.47 26.0669C1187.22 26.0669 1186.97 26.1927 1186.85 26.4443C1174.52 24.6829 1163.7 34.3695 1162.19 46.5723C1160.55 59.4039 1169.74 71.732 1182.57 73.6193C1194.9 75.5065 1207.85 66.9517 1209.74 54.3719C1211.75 41.5403 1201.82 24.8089 1187.47 26.0669ZM1207.23 56.1331C1204.33 66.9519 1192 73.7453 1181.31 71.2289C1170.74 68.8387 1163.32 59.1521 1163.7 48.3333C1164.2 35.7535 1174.77 27.1989 1186.85 27.0733C1186.97 27.1991 1187.1 27.3249 1187.47 27.3249C1200.94 27.8281 1210.62 43.5531 1207.23 56.1331Z" fill="#DD5D00"/>
<path d="M1187.47 32.1052C1187.22 32.1052 1187.1 32.1052 1186.97 32.231C1165.84 29.0861 1163.07 65.8196 1184.33 69.342C1207.98 73.2416 1208.73 32.9856 1187.47 32.1052ZM1181.81 66.3226C1174.77 63.6808 1170.74 56.5104 1171.25 49.0882C1171.5 45.3142 1173.13 41.037 1175.65 38.2694C1178.67 34.9984 1182.44 34.118 1186.59 33.7406C1186.72 33.9922 1186.97 34.118 1187.35 34.2438C1197.04 35.1244 1201.19 46.5722 1200.43 55.1266C1199.8 64.0582 1190.37 69.5934 1181.81 66.3226Z" fill="#DD5D00"/>
<rect x="208.5" y="63.5" width="31" height="32" rx="5.5" stroke="#1FB096" stroke-width="3" stroke-linejoin="round"/>
<rect x="300.5" y="1.5" width="24" height="25" rx="5.5" stroke="#1C64F0" stroke-width="3" stroke-linejoin="round"/>
<rect x="844.5" y="308.5" width="29" height="25" rx="5.5" stroke="#F8BE30" stroke-width="3" stroke-linejoin="round"/>
<circle cx="130.5" cy="493.5" r="11" stroke="#1EB852" stroke-width="3"/>
<circle cx="28.5" cy="443.5" r="27" stroke="#F8BE30" stroke-width="3"/>
<path d="M1104.87 570.471C1104.59 571.305 1104.27 572.124 1103.91 572.922C1101.29 578.626 1096.61 582.971 1090.72 585.154C1084.84 587.337 1078.45 587.097 1072.75 584.48C1067.04 581.863 1062.7 577.181 1060.52 571.296C1058.33 565.412 1058.57 559.029 1061.19 553.324C1062.59 550.281 1064.56 547.629 1067.06 545.442C1069.48 543.329 1072.26 541.755 1075.32 540.764C1076.19 540.483 1077.13 540.487 1077.98 540.762C1078.24 540.844 1078.49 540.951 1078.73 541.081C1079.78 541.653 1080.52 542.602 1080.83 543.755C1081.41 545.982 1080.17 548.276 1078 548.977C1073.47 550.437 1069.88 554.006 1068.41 558.53C1068.28 558.965 1068.13 559.489 1068.04 559.903C1067 564.346 1067.67 568.99 1069.93 572.979C1072.19 576.99 1075.85 579.973 1080.24 581.379C1089.74 584.421 1099.94 579.27 1103.12 569.878C1104.38 566.041 1104.54 561.875 1103.57 557.917C1103.45 557.424 1103.75 556.925 1104.24 556.804C1104.73 556.683 1105.23 556.984 1105.35 557.477C1106.38 561.632 1106.24 565.997 1105 570.047C1104.97 570.165 1104.93 570.274 1104.87 570.471ZM1079.68 583.13C1074.85 581.583 1070.82 578.299 1068.32 573.883C1065.85 569.492 1065.11 564.378 1066.25 559.491C1066.34 559.065 1066.5 558.456 1066.66 557.964C1067.49 555.41 1068.94 553.073 1070.84 551.205C1072.69 549.396 1074.97 548.021 1077.43 547.226C1078.68 546.825 1079.39 545.507 1079.05 544.224C1078.87 543.565 1078.45 543.023 1077.85 542.696C1077.24 542.365 1076.55 542.301 1075.89 542.514C1073.06 543.428 1070.5 544.879 1068.27 546.827C1065.97 548.842 1064.15 551.286 1062.86 554.091C1060.45 559.35 1060.23 565.233 1062.24 570.656C1064.25 576.081 1068.26 580.396 1073.52 582.808C1074.32 583.177 1075.14 583.497 1075.99 583.766C1080.13 585.094 1084.55 585.137 1088.75 583.876C1085.8 584.313 1082.71 584.099 1079.68 583.13Z" fill="#08A935"/>
<path d="M1103.4 552.921C1103.89 553.076 1104.15 553.594 1104 554.078C1103.84 554.562 1103.33 554.828 1102.84 554.673C1102.36 554.518 1102.09 554.001 1102.25 553.517C1102.4 553.033 1102.92 552.767 1103.4 552.921Z" fill="#08A935"/>
<path d="M1190.48 227.502L1151.85 199.283C1150.88 198.574 1149.4 198.949 1148.55 200.12C1147.69 201.29 1147.79 202.814 1148.76 203.522L1187.38 231.741C1188.35 232.449 1189.83 232.075 1190.68 230.904C1191.54 229.733 1191.45 228.21 1190.48 227.502Z" fill="#F8BE30"/>
</g>
</svg>
