<svg width="21" height="22" viewBox="0 0 21 22" fill="none" xmlns="http://www.w3.org/2000/svg">
<g clip-path="url(#clip0_2749_5407)">
<path d="M10.5 21.5C4.71007 21.5 0 16.7899 0 11C0 5.21007 4.71007 0.5 10.5 0.5C16.2899 0.5 21 5.21007 21 11C21 16.7899 16.2899 21.5 10.5 21.5ZM10.5 1.8125C5.43375 1.8125 1.3125 5.93375 1.3125 11C1.3125 16.0662 5.43375 20.1875 10.5 20.1875C15.5662 20.1875 19.6875 16.0662 19.6875 11C19.6875 5.93375 15.5662 1.8125 10.5 1.8125Z" fill="#7A7A7A"/>
<path d="M7.25185 14.9042C7.08377 14.9042 6.91569 14.8404 6.78796 14.7118C6.53162 14.4554 6.53162 14.0398 6.78796 13.7835L13.2848 7.2865C13.5413 7.03015 13.9569 7.03015 14.2133 7.2865C14.4696 7.54285 14.4696 7.95846 14.2133 8.21497L7.71631 14.7118C7.65532 14.7728 7.5829 14.8212 7.5032 14.8542C7.4235 14.8872 7.33808 14.9042 7.25181 14.9042H7.25185Z" fill="#7A7A7A"/>
<path d="M13.7476 14.9042C13.5797 14.9042 13.4116 14.8404 13.2839 14.7117L6.78711 8.21572C6.5306 7.95937 6.5306 7.54376 6.78711 7.28742C7.04346 7.0309 7.45907 7.0309 7.71542 7.28742L14.2123 13.7842C14.4688 14.0406 14.4688 14.4562 14.2123 14.7126C14.1512 14.7735 14.0787 14.8217 13.999 14.8546C13.9193 14.8875 13.8339 14.9043 13.7476 14.9042Z" fill="#7A7A7A"/>
</g>
<defs>
<clipPath id="clip0_2749_5407">
<rect width="21" height="21" fill="white" transform="translate(0 0.5)"/>
</clipPath>
</defs>
</svg>
