<svg width="11" height="11" viewBox="0 0 11 11" fill="none" xmlns="http://www.w3.org/2000/svg">
<g clip-path="url(#clip0_2746_4704)">
<path d="M5.41773 1.94699C5.90731 1.94699 6.3042 1.55011 6.3042 1.06052C6.3042 0.570931 5.90731 0.174042 5.41773 0.174042C4.92814 0.174042 4.53125 0.570931 4.53125 1.06052C4.53125 1.55011 4.92814 1.94699 5.41773 1.94699Z" fill="white"/>
<path d="M5.67932 2.86168L5.52112 2.57397L5.66149 2.31869C5.6824 2.28064 5.65483 2.23392 5.61135 2.23392H5.22569C5.18227 2.23392 5.15462 2.2806 5.17557 2.31869L5.31624 2.57451L5.15776 2.86276C5.13938 2.89622 5.13337 2.9351 5.1408 2.97254L5.16791 3.10908L5.41855 3.17798L5.66698 3.10969L5.69589 2.97357C5.70394 2.9355 5.69808 2.8958 5.67932 2.86168Z" fill="white"/>
<path d="M5.03711 8.3604V9.37751C5.03711 9.66099 5.26691 9.89077 5.55039 9.89077C5.83387 9.89077 6.06368 9.66097 6.06368 9.37751V7.15674L5.03711 8.3604Z" fill="white"/>
<path d="M3.60667 8.59471C3.43418 8.44759 3.32829 8.2514 3.29199 8.04428V8.97874C3.29199 9.12746 3.41255 9.24804 3.56129 9.24804C3.71003 9.24804 3.83059 9.12746 3.83059 8.97874V8.73648C3.7515 8.70089 3.67601 8.65382 3.60667 8.59471Z" fill="white"/>
<path d="M3.83059 6.12909H3.29199V7.72013C3.31982 7.56064 3.38917 7.40627 3.50185 7.27416L3.83061 6.88871V6.12909H3.83059Z" fill="white"/>
<path d="M6.96777 6.12909V8.97873C6.96777 9.12745 7.08833 9.24803 7.23707 9.24803C7.38581 9.24803 7.50637 9.12745 7.50637 8.97873V6.12909H6.96777Z" fill="white"/>
<path d="M5.03488 6.12909L3.82392 7.54891C3.63997 7.7646 3.66571 8.08856 3.88137 8.27251C4.09725 8.4566 4.42118 8.43059 4.60497 8.21506L6.38406 6.12909H5.03488Z" fill="white"/>
<path d="M4.66001 3.96973C4.55442 3.96999 3.79648 3.97189 3.69206 3.97214C3.88689 3.56005 3.84269 3.65349 4.03486 3.24701C4.07992 3.15166 4.17558 3.0892 4.28048 3.08539V3.57877L4.56657 3.57804V3.085C4.56657 3.06157 4.56343 3.02196 4.60308 2.99173C4.62609 2.97419 4.65598 2.96838 4.68391 2.97605C4.74274 2.99222 5.05564 3.07824 5.08968 3.0876C5.08793 3.08306 4.75982 2.23213 4.75881 2.22952H4.29057C3.85257 2.22952 3.44863 2.48537 3.26142 2.88138C3.1991 3.01321 2.68927 4.09166 2.62921 4.21871C2.49076 4.51171 2.72051 4.83913 3.01702 4.82925C3.20123 4.8288 4.49212 4.82558 4.66217 4.82517C4.89841 4.82457 5.08943 4.63259 5.08884 4.39636C5.0882 4.146 4.87503 3.96302 4.66001 3.96973Z" fill="white"/>
<path d="M9.64013 5.21973C9.60911 5.21973 1.41455 5.21973 1.16661 5.21973C1.02336 5.21973 0.907227 5.33586 0.907227 5.47911C0.907227 5.62238 1.02336 5.7385 1.16661 5.7385H1.44583V9.88677C1.44583 10.1066 1.62407 10.2849 1.84392 10.2849C2.06377 10.2849 2.24202 10.1066 2.24202 9.88677V5.7385C2.52593 5.7385 8.29478 5.7385 8.58815 5.7385V9.88679C8.58815 10.1066 8.76639 10.2849 8.98625 10.2849C9.2061 10.2849 9.38434 10.1066 9.38434 9.88679V5.7385H9.64013C9.78338 5.7385 9.89952 5.62236 9.89952 5.47911C9.89954 5.33586 9.7834 5.21973 9.64013 5.21973Z" fill="white"/>
<path d="M8.20175 4.2188C8.14181 4.09204 7.63177 3.01309 7.56955 2.88147C7.38234 2.48549 6.9784 2.22961 6.54039 2.22961H6.07853C6.07681 2.23412 5.74947 3.08309 5.74772 3.08765C5.78309 3.07794 6.09498 2.99219 6.15349 2.9761C6.1814 2.96844 6.21128 2.97422 6.23432 2.99178C6.27397 3.02199 6.27083 3.06163 6.27083 3.08505V3.58198H6.54675V3.08528C6.65315 3.08769 6.75057 3.15053 6.79616 3.24704C6.98847 3.65386 6.94668 3.56543 7.13976 3.97385C6.78161 3.97385 6.52961 3.97385 6.16992 3.97385C5.93368 3.97385 5.74219 4.16535 5.74219 4.40159C5.74219 4.63783 5.93368 4.82933 6.16992 4.82933C6.34315 4.82933 7.63945 4.82933 7.81507 4.82933C8.12756 4.82933 8.33615 4.50299 8.20175 4.2188Z" fill="white"/>
</g>
<defs>
<clipPath id="clip0_2746_4704">
<rect width="10.1108" height="10.1108" fill="white" transform="translate(0.347656 0.174042)"/>
</clipPath>
</defs>
</svg>
