<svg width="11" height="11" viewBox="0 0 11 11" fill="none" xmlns="http://www.w3.org/2000/svg">
<g clip-path="url(#clip0_2742_5403)">
<path d="M5.24741 6.16712C6.00106 6.16712 6.61201 5.55617 6.61201 4.80253C6.61201 4.04888 6.00106 3.43793 5.24741 3.43793C4.49376 3.43793 3.88281 4.04888 3.88281 4.80253C3.88281 5.55617 4.49376 6.16712 5.24741 6.16712Z" fill="white"/>
<path d="M7.40788 8.81575C7.38418 7.51213 6.42685 6.46317 5.2474 6.46317C4.06795 6.46317 3.11029 7.51244 3.08691 8.81575H7.40788Z" fill="white"/>
<path d="M1.8153 4.23477C2.38154 4.23477 2.84057 3.77574 2.84057 3.2095C2.84057 2.64326 2.38154 2.18423 1.8153 2.18423C1.24907 2.18423 0.790039 2.64326 0.790039 3.2095C0.790039 3.77574 1.24907 4.23477 1.8153 4.23477Z" fill="white"/>
<path d="M3.43879 6.22462C3.4211 5.24549 2.70199 4.45718 1.81543 4.45718C0.928868 4.45718 0.210076 5.24549 0.192383 6.22462H3.43879Z" fill="white"/>
<path d="M8.67956 4.23477C9.2458 4.23477 9.70483 3.77574 9.70483 3.2095C9.70483 2.64326 9.2458 2.18423 8.67956 2.18423C8.11332 2.18423 7.6543 2.64326 7.6543 3.2095C7.6543 3.77574 8.11332 4.23477 8.67956 4.23477Z" fill="white"/>
<path d="M10.3024 6.22462C10.2847 5.24549 9.56559 4.45718 8.67903 4.45718C7.79246 4.45718 7.07367 5.24549 7.05566 6.22462H10.3024Z" fill="white"/>
</g>
<defs>
<clipPath id="clip0_2742_5403">
<rect width="10.1105" height="10.1105" fill="white" transform="translate(0.192383 0.444763)"/>
</clipPath>
</defs>
</svg>
