<svg width="10" height="12" viewBox="0 0 10 12" fill="none" xmlns="http://www.w3.org/2000/svg">
<path d="M5.68717 2.41583C5.6264 2.41583 5.56811 2.39169 5.52513 2.34871C5.48215 2.30573 5.45801 2.24745 5.45801 2.18667V1.41667C5.45801 1.16413 5.25222 0.958333 4.99967 0.958333C4.74713 0.958333 4.54134 1.16413 4.54134 1.41667V2.18667C4.54134 2.24745 4.5172 2.30573 4.47422 2.34871C4.43124 2.39169 4.37295 2.41583 4.31217 2.41583C4.2514 2.41583 4.19311 2.39169 4.15013 2.34871C4.10715 2.30573 4.08301 2.24745 4.08301 2.18667V1.41667C4.08301 0.911125 4.49413 0.5 4.99967 0.5C5.50522 0.5 5.91634 0.911125 5.91634 1.41667V2.18667C5.91634 2.24745 5.8922 2.30573 5.84922 2.34871C5.80624 2.39169 5.74795 2.41583 5.68717 2.41583ZM4.99967 11.5C4.11509 11.5 3.39551 10.7804 3.39551 9.89583C3.39551 9.83505 3.41965 9.77676 3.46263 9.73379C3.50561 9.69081 3.5639 9.66667 3.62467 9.66667C3.68545 9.66667 3.74374 9.69081 3.78672 9.73379C3.8297 9.77676 3.85384 9.83505 3.85384 9.89583C3.85384 10.5274 4.36809 11.0417 4.99967 11.0417C5.63126 11.0417 6.14551 10.5274 6.14551 9.89583C6.14551 9.83505 6.16965 9.77676 6.21263 9.73379C6.25561 9.69081 6.3139 9.66667 6.37467 9.66667C6.43545 9.66667 6.49374 9.69081 6.53672 9.73379C6.5797 9.77676 6.60384 9.83505 6.60384 9.89583C6.60384 10.7804 5.88426 11.5 4.99967 11.5Z" fill="black"/>
<path d="M8.89563 10.125H1.10397C0.963658 10.1245 0.826849 10.0812 0.711865 10.0007C0.596881 9.92033 0.509213 9.80671 0.460603 9.67509C0.411993 9.54347 0.404762 9.40013 0.439879 9.26429C0.474997 9.12844 0.550785 9.00657 0.657093 8.915C1.01261 8.61574 1.29836 8.24233 1.49432 7.82096C1.69028 7.39959 1.7917 6.94046 1.79147 6.47575V5.08333C1.79147 3.31417 3.23063 1.875 4.9998 1.875C6.76897 1.875 8.20813 3.31417 8.20813 5.08333V6.47575C8.20813 7.41671 8.62018 8.3045 9.33884 8.91179C9.44639 9.00276 9.52341 9.12455 9.55952 9.2607C9.59563 9.39685 9.58907 9.5408 9.54074 9.67311C9.4924 9.80541 9.40462 9.91969 9.28925 10.0005C9.17389 10.0813 9.03649 10.1248 8.89563 10.125ZM4.9998 2.33333C3.48318 2.33333 2.2498 3.56671 2.2498 5.08333V6.47575C2.25031 7.00632 2.13485 7.5306 1.91151 8.01187C1.68817 8.49315 1.36235 8.9198 0.956843 9.26196C0.920832 9.29218 0.894987 9.33274 0.882812 9.37815C0.870637 9.42356 0.872722 9.47161 0.888784 9.5158C0.904846 9.55998 0.934108 9.59815 0.972601 9.62514C1.01109 9.65213 1.05696 9.66663 1.10397 9.66667H8.89563C8.94248 9.66667 8.98821 9.65232 9.02665 9.62554C9.06509 9.59876 9.0944 9.56084 9.11063 9.51689C9.12686 9.47295 9.12923 9.42508 9.11742 9.37975C9.10562 9.33441 9.0802 9.29378 9.04459 9.26333C8.63872 8.92108 8.31254 8.49426 8.08889 8.01275C7.86523 7.53124 7.74951 7.00667 7.7498 6.47575V5.08333C7.7498 3.56671 6.51643 2.33333 4.9998 2.33333Z" fill="black"/>
</svg>
