<svg width="18" height="15" viewBox="0 0 18 15" fill="none" xmlns="http://www.w3.org/2000/svg">
<path d="M15.6154 3.81508C15.2179 3.81553 14.8369 3.97361 14.5559 4.25464C14.2748 4.53567 14.1168 4.91671 14.1163 5.31415C14.1163 5.49752 14.154 5.67133 14.2147 5.8339L12.2297 6.96002C12.1766 6.99006 12.1181 7.0092 12.0575 7.01631C11.997 7.02342 11.9356 7.01837 11.877 7.00145C11.8185 6.98452 11.7638 6.95607 11.7164 6.91776C11.669 6.87944 11.6297 6.83204 11.6008 6.77833L9.86999 3.58671C10.0641 3.4487 10.2224 3.26635 10.3317 3.05483C10.4411 2.8433 10.4984 2.60872 10.4989 2.37058C10.4989 1.54371 9.82668 0.871521 8.9998 0.871521C8.17293 0.871521 7.50074 1.54371 7.50074 2.37058C7.50074 2.87233 7.75049 3.31446 8.12962 3.58671L6.3988 6.77833C6.37005 6.832 6.33085 6.87938 6.28352 6.91768C6.23619 6.95598 6.18167 6.98443 6.12319 7.00136C6.0647 7.01829 6.00342 7.02335 5.94295 7.01625C5.88247 7.00915 5.82403 6.99003 5.77105 6.96002L3.78543 5.8339C3.8492 5.66797 3.88255 5.4919 3.88387 5.31415C3.88387 4.48727 3.21168 3.81508 2.3848 3.81508C1.55793 3.81508 0.885742 4.48727 0.885742 5.31415C0.885742 6.14102 1.55793 6.81321 2.3848 6.81321C2.44105 6.81321 2.49449 6.80252 2.54905 6.7969L3.73537 11.0837C3.41729 11.0908 3.11463 11.2221 2.89224 11.4497C2.66986 11.6772 2.54545 11.9828 2.54568 12.301C2.54568 12.8623 2.93662 13.3624 3.47493 13.489C7.10881 14.3418 10.8908 14.3418 14.5247 13.489C15.0636 13.3618 15.4539 12.8623 15.4539 12.301C15.4546 11.9827 15.3303 11.6768 15.1078 11.4492C14.8854 11.2216 14.5825 11.0903 14.2642 11.0837L15.4506 6.79746C15.5051 6.80365 15.5586 6.81377 15.6148 6.81377C16.4417 6.81377 17.1139 6.14158 17.1139 5.31471C17.1139 4.48783 16.4417 3.81508 15.6154 3.81508ZM9.00037 1.34965C9.56343 1.34965 10.0213 1.80752 10.0213 2.37058C10.0213 2.93365 9.56343 3.39208 9.00037 3.39208C8.4373 3.39208 7.97943 2.93421 7.97943 2.37115C7.97943 1.80808 8.4373 1.34965 9.00037 1.34965ZM1.36443 5.31415C1.36443 4.75108 1.8223 4.29321 2.38537 4.29321C2.94787 4.29321 3.4063 4.75108 3.4063 5.31415C3.4063 5.87721 2.94843 6.33565 2.38537 6.33565C1.8223 6.33565 1.36443 5.87721 1.36443 5.31415ZM14.9769 12.301C14.9774 12.4667 14.9225 12.6278 14.8209 12.7587C14.7193 12.8895 14.5768 12.9827 14.4161 13.0232C10.8537 13.8551 7.14757 13.8551 3.58518 13.0232C3.42451 12.9827 3.28203 12.8895 3.1804 12.7587C3.07877 12.6278 3.02385 12.4667 3.02437 12.301C3.02437 12.0754 3.12562 11.8645 3.30112 11.7221C3.38434 11.6543 3.48173 11.6061 3.5861 11.581C3.69047 11.5559 3.79915 11.5545 3.90412 11.577C7.26341 12.2976 10.7373 12.2976 14.0966 11.577C14.3081 11.5326 14.5292 11.5843 14.6996 11.7221C14.8757 11.8645 14.9769 12.0754 14.9769 12.301ZM13.7484 11.1563C10.615 11.7925 7.38571 11.7925 4.2523 11.1563L3.01143 6.67202C3.22237 6.57415 3.40405 6.4279 3.54862 6.24846L5.53537 7.37627C5.64337 7.43792 5.7627 7.47717 5.88621 7.49167C6.00973 7.50616 6.1349 7.49561 6.25424 7.46065C6.37416 7.42672 6.48601 7.36899 6.58314 7.29091C6.68026 7.21282 6.76067 7.11598 6.81955 7.00615L8.55993 3.79652C8.70055 3.83983 8.84624 3.87021 9.00037 3.87021C9.15449 3.87021 9.30018 3.83983 9.44024 3.79652L11.1806 7.00615C11.301 7.2289 11.5018 7.39033 11.7459 7.46065C11.8653 7.49585 11.9905 7.50648 12.1141 7.49188C12.2376 7.47728 12.357 7.43776 12.4648 7.37571L14.4516 6.2479C14.5961 6.42733 14.7778 6.57415 14.9887 6.67146L13.7484 11.1563ZM15.6154 6.33565C15.0529 6.33565 14.5944 5.87777 14.5944 5.31471C14.5944 4.75165 15.0523 4.29377 15.6154 4.29377C16.1784 4.29377 16.6363 4.75165 16.6363 5.31471C16.6363 5.87777 16.1784 6.33565 15.6154 6.33565Z" fill="#7A7A7A"/>
<path d="M9.00069 7.383C8.216 7.383 7.57812 8.13168 7.57812 9.05193C7.57812 9.97218 8.216 10.7209 9.00069 10.7209C9.78538 10.7209 10.4232 9.97218 10.4232 9.05193C10.4232 8.13168 9.78538 7.383 9.00069 7.383ZM9.00069 10.2427C8.47981 10.2427 8.05625 9.70837 8.05625 9.05193C8.05625 8.3955 8.47981 7.86112 9.00069 7.86112C9.52156 7.86112 9.94513 8.3955 9.94513 9.05193C9.94513 9.70837 9.52156 10.2427 9.00069 10.2427Z" fill="#7A7A7A"/>
</svg>
