<svg width="18" height="18" viewBox="0 0 18 18" fill="none" xmlns="http://www.w3.org/2000/svg">
<path d="M16.794 2.80603H13.7819V1.76254C13.7819 1.34209 13.4272 1 12.9913 1H11.7536C11.3177 1 10.963 1.34209 10.963 1.76254V2.80603H7.62409V1.76254C7.62409 1.34209 7.26946 1 6.83356 1H5.59577C5.15988 1 4.80525 1.34209 4.80525 1.76254V2.80603H1.79313C1.35581 2.80603 1 3.1481 1 3.56857V5.959V16.2709C1 16.6913 1.35581 17.0334 1.79313 17.0334H16.794C17.2313 17.0334 17.5872 16.6913 17.5872 16.2709V5.95899V3.56856C17.5872 3.1481 17.2313 2.80603 16.794 2.80603ZM11.5455 3.3679V2.80603V1.76254C11.5455 1.6519 11.6388 1.56188 11.7535 1.56188H12.9913C13.106 1.56188 13.1994 1.65191 13.1994 1.76254V2.80603V3.3679V4.3311C13.1994 4.44175 13.106 4.53177 12.9913 4.53177H11.7536C11.6388 4.53177 11.5455 4.44174 11.5455 4.3311L11.5455 3.3679ZM5.38774 3.3679V2.80603V1.76254C5.38774 1.6519 5.48107 1.56188 5.59577 1.56188H6.83357C6.94828 1.56188 7.0416 1.65191 7.0416 1.76254V2.80603V3.3679V4.3311C7.0416 4.44175 6.94827 4.53177 6.83357 4.53177H5.59577C5.48107 4.53177 5.38774 4.44174 5.38774 4.3311V3.3679ZM17.0047 16.2709C17.0047 16.3815 16.9102 16.4715 16.794 16.4715H1.79313C1.677 16.4715 1.5825 16.3815 1.5825 16.2709V6.23992H17.0047V16.2709ZM17.0047 5.67805H1.5825V3.56856C1.5825 3.45792 1.677 3.36789 1.79313 3.36789H4.80525V4.33109C4.80525 4.75155 5.15988 5.09364 5.59577 5.09364H6.83357C7.26947 5.09364 7.6241 4.75155 7.6241 4.33109V3.3679H10.963V4.3311C10.963 4.75156 11.3177 5.09365 11.7536 5.09365H12.9914C13.4273 5.09365 13.7819 4.75156 13.7819 4.3311V3.3679H16.794C16.9102 3.3679 17.0047 3.45792 17.0047 3.56857V5.67805Z" fill="#8228BB" stroke="#8228BB" stroke-width="0.444444"/>
<path d="M4.43758 9.1491H5.61003C5.93744 9.1491 6.20382 8.89213 6.20382 8.57632V7.44535C6.20382 7.1295 5.93744 6.87256 5.61003 6.87256H4.43758C4.11013 6.87256 3.84375 7.1295 3.84375 7.44535V8.57632C3.84375 8.89213 4.11013 9.1491 4.43758 9.1491ZM4.42625 7.44535C4.42625 7.43933 4.43132 7.43443 4.43758 7.43443H5.61003C5.61625 7.43443 5.62132 7.43932 5.62132 7.44535V8.57632C5.62132 8.58233 5.61625 8.58721 5.61003 8.58721H4.43758C4.43132 8.58721 4.42625 8.58233 4.42625 8.57632V7.44535Z" fill="#8228BB" stroke="#8228BB" stroke-width="0.444444"/>
<path d="M8.71492 9.1491H9.8874C10.2148 9.1491 10.4812 8.89213 10.4812 8.57632V7.44535C10.4812 7.1295 10.2148 6.87256 9.8874 6.87256H8.71492C8.38747 6.87256 8.12109 7.1295 8.12109 7.44535V8.57632C8.12109 8.89213 8.38748 9.1491 8.71492 9.1491ZM8.70359 7.44535C8.70359 7.43933 8.70867 7.43443 8.71492 7.43443H9.8874C9.89365 7.43443 9.8987 7.43932 9.8987 7.44535V8.57632C9.8987 8.58233 9.89365 8.58721 9.8874 8.58721H8.71492C8.70867 8.58721 8.70359 8.58233 8.70359 8.57632V7.44535Z" fill="#8228BB" stroke="#8228BB" stroke-width="0.444444"/>
<path d="M12.9727 9.1491H14.1452C14.4726 9.1491 14.739 8.89213 14.739 8.57632V7.44535C14.739 7.1295 14.4726 6.87256 14.1452 6.87256H12.9727C12.6453 6.87256 12.3789 7.1295 12.3789 7.44535V8.57632C12.3789 8.89213 12.6453 9.1491 12.9727 9.1491ZM12.9614 7.44535C12.9614 7.43933 12.9664 7.43443 12.9727 7.43443H14.1452C14.1514 7.43443 14.1565 7.43932 14.1565 7.44535V8.57632C14.1565 8.58233 14.1514 8.58721 14.1452 8.58721H12.9727C12.9666 8.58721 12.9614 8.58221 12.9614 8.57632V7.44535Z" fill="#8228BB" stroke="#8228BB" stroke-width="0.444444"/>
<path d="M4.43758 12.4216H5.61003C5.93744 12.4216 6.20382 12.1646 6.20382 11.8488V10.7179C6.20382 10.402 5.93744 10.145 5.61003 10.145H4.43758C4.11013 10.145 3.84375 10.402 3.84375 10.7179V11.8488C3.84375 12.1646 4.11013 12.4216 4.43758 12.4216ZM4.42625 10.7179C4.42625 10.7118 4.43132 10.7069 4.43758 10.7069H5.61003C5.61625 10.7069 5.62132 10.7118 5.62132 10.7179V11.8488C5.62132 11.8548 5.61625 11.8597 5.61003 11.8597H4.43758C4.43144 11.8597 4.42625 11.8547 4.42625 11.8488V10.7179Z" fill="#8228BB" stroke="#8228BB" stroke-width="0.444444"/>
<path d="M8.71492 12.4216H9.8874C10.2148 12.4216 10.4812 12.1646 10.4812 11.8488V10.7179C10.4812 10.402 10.2148 10.145 9.8874 10.145H8.71492C8.38747 10.145 8.12109 10.402 8.12109 10.7179V11.8488C8.12109 12.1646 8.38748 12.4216 8.71492 12.4216ZM8.70359 10.7179C8.70359 10.7118 8.70867 10.7069 8.71492 10.7069H9.8874C9.89365 10.7069 9.8987 10.7118 9.8987 10.7179V11.8488C9.8987 11.8547 9.8935 11.8597 9.8874 11.8597H8.71492C8.70879 11.8597 8.70359 11.8547 8.70359 11.8488V10.7179Z" fill="#8228BB" stroke="#8228BB" stroke-width="0.444444"/>
<path d="M12.9727 12.4216H14.1452C14.4726 12.4216 14.739 12.1646 14.739 11.8488V10.7179C14.739 10.402 14.4726 10.145 14.1452 10.145H12.9727C12.6453 10.145 12.3789 10.402 12.3789 10.7179V11.8488C12.3789 12.1646 12.6453 12.4216 12.9727 12.4216ZM12.9614 10.7179C12.9614 10.7118 12.9664 10.7069 12.9727 10.7069H14.1452C14.1514 10.7069 14.1565 10.7118 14.1565 10.7179V11.8488C14.1565 11.8547 14.1513 11.8597 14.1452 11.8597H12.9727C12.9666 11.8597 12.9614 11.8547 12.9614 11.8488V10.7179Z" fill="#8228BB" stroke="#8228BB" stroke-width="0.444444"/>
<path d="M4.43758 15.6942H5.61003C5.93744 15.6942 6.20382 15.4373 6.20382 15.1214V13.9905C6.20382 13.6747 5.93744 13.4177 5.61003 13.4177H4.43758C4.11013 13.4177 3.84375 13.6747 3.84375 13.9905V15.1214C3.84375 15.4373 4.11013 15.6942 4.43758 15.6942ZM4.42625 13.9905C4.42625 13.9845 4.43132 13.9796 4.43758 13.9796H5.61003C5.61625 13.9796 5.62132 13.9845 5.62132 13.9905V15.1214C5.62132 15.1275 5.61625 15.1323 5.61003 15.1323H4.43758C4.43132 15.1323 4.42625 15.1275 4.42625 15.1214V13.9905Z" fill="#8228BB" stroke="#8228BB" stroke-width="0.444444"/>
<path d="M8.71492 15.6942H9.8874C10.2148 15.6942 10.4812 15.4373 10.4812 15.1214V13.9905C10.4812 13.6747 10.2148 13.4177 9.8874 13.4177H8.71492C8.38747 13.4177 8.12109 13.6747 8.12109 13.9905V15.1214C8.12109 15.4373 8.38748 15.6942 8.71492 15.6942ZM8.70359 13.9905C8.70359 13.9845 8.70867 13.9796 8.71492 13.9796H9.8874C9.89365 13.9796 9.8987 13.9845 9.8987 13.9905V15.1214C9.8987 15.1275 9.89365 15.1323 9.8874 15.1323H8.71492C8.70867 15.1323 8.70359 15.1275 8.70359 15.1214V13.9905Z" fill="#8228BB" stroke="#8228BB" stroke-width="0.444444"/>
<path d="M12.9727 15.6942H14.1452C14.4726 15.6942 14.739 15.4373 14.739 15.1214V13.9905C14.739 13.6747 14.4726 13.4177 14.1452 13.4177H12.9727C12.6453 13.4177 12.3789 13.6747 12.3789 13.9905V15.1214C12.3789 15.4373 12.6453 15.6942 12.9727 15.6942ZM12.9614 13.9905C12.9614 13.9845 12.9664 13.9796 12.9727 13.9796H14.1452C14.1514 13.9796 14.1565 13.9845 14.1565 13.9905V15.1214C14.1565 15.1275 14.1514 15.1323 14.1452 15.1323H12.9727C12.9666 15.1323 12.9614 15.1274 12.9614 15.1214V13.9905Z" fill="#8228BB" stroke="#8228BB" stroke-width="0.444444"/>
</svg>
