<svg width="18" height="18" viewBox="0 0 18 18" fill="none" xmlns="http://www.w3.org/2000/svg">
<path d="M16.794 2.80603H13.7819V1.76254C13.7819 1.34209 13.4272 1 12.9913 1H11.7536C11.3177 1 10.963 1.34209 10.963 1.76254V2.80603H7.62409V1.76254C7.62409 1.34209 7.26946 1 6.83356 1H5.59577C5.15988 1 4.80525 1.34209 4.80525 1.76254V2.80603H1.79313C1.35581 2.80603 1 3.1481 1 3.56857V5.959V16.2709C1 16.6913 1.35581 17.0334 1.79313 17.0334H16.794C17.2313 17.0334 17.5872 16.6913 17.5872 16.2709V5.95899V3.56856C17.5872 3.1481 17.2313 2.80603 16.794 2.80603ZM11.5455 3.3679V2.80603V1.76254C11.5455 1.6519 11.6388 1.56188 11.7535 1.56188H12.9913C13.106 1.56188 13.1994 1.65191 13.1994 1.76254V2.80603V3.3679V4.3311C13.1994 4.44175 13.106 4.53177 12.9913 4.53177H11.7536C11.6388 4.53177 11.5455 4.44174 11.5455 4.3311L11.5455 3.3679ZM5.38774 3.3679V2.80603V1.76254C5.38774 1.6519 5.48107 1.56188 5.59577 1.56188H6.83357C6.94828 1.56188 7.0416 1.65191 7.0416 1.76254V2.80603V3.3679V4.3311C7.0416 4.44175 6.94827 4.53177 6.83357 4.53177H5.59577C5.48107 4.53177 5.38774 4.44174 5.38774 4.3311V3.3679ZM17.0047 16.2709C17.0047 16.3815 16.9102 16.4715 16.794 16.4715H1.79313C1.677 16.4715 1.5825 16.3815 1.5825 16.2709V6.23992H17.0047V16.2709ZM17.0047 5.67805H1.5825V3.56856C1.5825 3.45792 1.677 3.36789 1.79313 3.36789H4.80525V4.33109C4.80525 4.75155 5.15988 5.09364 5.59577 5.09364H6.83357C7.26947 5.09364 7.6241 4.75155 7.6241 4.33109V3.3679H10.963V4.3311C10.963 4.75156 11.3177 5.09365 11.7536 5.09365H12.9914C13.4273 5.09365 13.7819 4.75156 13.7819 4.3311V3.3679H16.794C16.9102 3.3679 17.0047 3.45792 17.0047 3.56857V5.67805Z" fill="white" stroke="white" stroke-width="0.444444"/>
<path d="M4.43758 9.14898H5.61003C5.93744 9.14898 6.20382 8.89201 6.20382 8.57619V7.44522C6.20382 7.12938 5.93744 6.87244 5.61003 6.87244H4.43758C4.11013 6.87244 3.84375 7.12938 3.84375 7.44522V8.57619C3.84375 8.89201 4.11013 9.14898 4.43758 9.14898ZM4.42625 7.44522C4.42625 7.43921 4.43132 7.4343 4.43758 7.4343H5.61003C5.61625 7.4343 5.62132 7.4392 5.62132 7.44522V8.57619C5.62132 8.58221 5.61625 8.58709 5.61003 8.58709H4.43758C4.43132 8.58709 4.42625 8.58221 4.42625 8.57619V7.44522Z" fill="white" stroke="white" stroke-width="0.444444"/>
<path d="M8.71492 9.14898H9.8874C10.2148 9.14898 10.4812 8.89201 10.4812 8.57619V7.44522C10.4812 7.12938 10.2148 6.87244 9.8874 6.87244H8.71492C8.38747 6.87244 8.12109 7.12938 8.12109 7.44522V8.57619C8.12109 8.89201 8.38748 9.14898 8.71492 9.14898ZM8.70359 7.44522C8.70359 7.43921 8.70867 7.4343 8.71492 7.4343H9.8874C9.89365 7.4343 9.8987 7.4392 9.8987 7.44522V8.57619C9.8987 8.58221 9.89365 8.58709 9.8874 8.58709H8.71492C8.70867 8.58709 8.70359 8.58221 8.70359 8.57619V7.44522Z" fill="white" stroke="white" stroke-width="0.444444"/>
<path d="M12.9727 9.14898H14.1452C14.4726 9.14898 14.739 8.89201 14.739 8.57619V7.44522C14.739 7.12938 14.4726 6.87244 14.1452 6.87244H12.9727C12.6453 6.87244 12.3789 7.12938 12.3789 7.44522V8.57619C12.3789 8.89201 12.6453 9.14898 12.9727 9.14898ZM12.9614 7.44522C12.9614 7.43921 12.9664 7.4343 12.9727 7.4343H14.1452C14.1514 7.4343 14.1565 7.4392 14.1565 7.44522V8.57619C14.1565 8.58221 14.1514 8.58709 14.1452 8.58709H12.9727C12.9666 8.58709 12.9614 8.58209 12.9614 8.57619V7.44522Z" fill="white" stroke="white" stroke-width="0.444444"/>
<path d="M4.43758 12.4215H5.61003C5.93744 12.4215 6.20382 12.1645 6.20382 11.8487V10.7177C6.20382 10.4019 5.93744 10.1449 5.61003 10.1449H4.43758C4.11013 10.1449 3.84375 10.4019 3.84375 10.7177V11.8487C3.84375 12.1645 4.11013 12.4215 4.43758 12.4215ZM4.42625 10.7177C4.42625 10.7117 4.43132 10.7068 4.43758 10.7068H5.61003C5.61625 10.7068 5.62132 10.7117 5.62132 10.7177V11.8487C5.62132 11.8547 5.61625 11.8596 5.61003 11.8596H4.43758C4.43144 11.8596 4.42625 11.8546 4.42625 11.8487V10.7177Z" fill="white" stroke="white" stroke-width="0.444444"/>
<path d="M8.71492 12.4215H9.8874C10.2148 12.4215 10.4812 12.1645 10.4812 11.8487V10.7177C10.4812 10.4019 10.2148 10.1449 9.8874 10.1449H8.71492C8.38747 10.1449 8.12109 10.4019 8.12109 10.7177V11.8487C8.12109 12.1645 8.38748 12.4215 8.71492 12.4215ZM8.70359 10.7177C8.70359 10.7117 8.70867 10.7068 8.71492 10.7068H9.8874C9.89365 10.7068 9.8987 10.7117 9.8987 10.7177V11.8487C9.8987 11.8546 9.8935 11.8596 9.8874 11.8596H8.71492C8.70879 11.8596 8.70359 11.8546 8.70359 11.8487V10.7177Z" fill="white" stroke="white" stroke-width="0.444444"/>
<path d="M12.9727 12.4215H14.1452C14.4726 12.4215 14.739 12.1645 14.739 11.8487V10.7177C14.739 10.4019 14.4726 10.1449 14.1452 10.1449H12.9727C12.6453 10.1449 12.3789 10.4019 12.3789 10.7177V11.8487C12.3789 12.1645 12.6453 12.4215 12.9727 12.4215ZM12.9614 10.7177C12.9614 10.7117 12.9664 10.7068 12.9727 10.7068H14.1452C14.1514 10.7068 14.1565 10.7117 14.1565 10.7177V11.8487C14.1565 11.8546 14.1513 11.8596 14.1452 11.8596H12.9727C12.9666 11.8596 12.9614 11.8546 12.9614 11.8487V10.7177Z" fill="white" stroke="white" stroke-width="0.444444"/>
<path d="M4.43758 15.6942H5.61003C5.93744 15.6942 6.20382 15.4373 6.20382 15.1214V13.9905C6.20382 13.6747 5.93744 13.4177 5.61003 13.4177H4.43758C4.11013 13.4177 3.84375 13.6747 3.84375 13.9905V15.1214C3.84375 15.4373 4.11013 15.6942 4.43758 15.6942ZM4.42625 13.9905C4.42625 13.9845 4.43132 13.9796 4.43758 13.9796H5.61003C5.61625 13.9796 5.62132 13.9845 5.62132 13.9905V15.1214C5.62132 15.1275 5.61625 15.1323 5.61003 15.1323H4.43758C4.43132 15.1323 4.42625 15.1275 4.42625 15.1214V13.9905Z" fill="white" stroke="white" stroke-width="0.444444"/>
<path d="M8.71492 15.6942H9.8874C10.2148 15.6942 10.4812 15.4373 10.4812 15.1214V13.9905C10.4812 13.6747 10.2148 13.4177 9.8874 13.4177H8.71492C8.38747 13.4177 8.12109 13.6747 8.12109 13.9905V15.1214C8.12109 15.4373 8.38748 15.6942 8.71492 15.6942ZM8.70359 13.9905C8.70359 13.9845 8.70867 13.9796 8.71492 13.9796H9.8874C9.89365 13.9796 9.8987 13.9845 9.8987 13.9905V15.1214C9.8987 15.1275 9.89365 15.1323 9.8874 15.1323H8.71492C8.70867 15.1323 8.70359 15.1275 8.70359 15.1214V13.9905Z" fill="white" stroke="white" stroke-width="0.444444"/>
<path d="M12.9727 15.6942H14.1452C14.4726 15.6942 14.739 15.4373 14.739 15.1214V13.9905C14.739 13.6747 14.4726 13.4177 14.1452 13.4177H12.9727C12.6453 13.4177 12.3789 13.6747 12.3789 13.9905V15.1214C12.3789 15.4373 12.6453 15.6942 12.9727 15.6942ZM12.9614 13.9905C12.9614 13.9845 12.9664 13.9796 12.9727 13.9796H14.1452C14.1514 13.9796 14.1565 13.9845 14.1565 13.9905V15.1214C14.1565 15.1275 14.1514 15.1323 14.1452 15.1323H12.9727C12.9666 15.1323 12.9614 15.1274 12.9614 15.1214V13.9905Z" fill="white" stroke="white" stroke-width="0.444444"/>
</svg>
