<svg width="113" height="99" viewBox="0 0 113 99" fill="none" xmlns="http://www.w3.org/2000/svg">
<path d="M92.3052 47.0398C93.729 45.3804 94.1085 43.3813 93.3747 41.4108C92.6411 39.4396 90.9872 38.0169 88.7179 37.4052L73.245 33.2335C72.5182 33.0376 71.9987 32.7083 71.5608 32.1657L62.2335 20.6121L62.2332 20.6119C60.8654 18.9176 58.8041 17.9846 56.4294 17.9846C54.0546 17.9846 51.9935 18.9178 50.6257 20.6121L41.2978 32.1659C40.8599 32.708 40.3407 33.0373 39.6136 33.2335L24.1413 37.4052C21.8722 38.0171 20.2185 39.4396 19.4847 41.4106C18.7506 43.3815 19.1304 45.3808 20.5542 47.0398L30.2623 58.3521C30.7183 58.8834 30.9169 59.4165 30.9058 60.0802L30.6704 74.212C30.636 76.2845 31.675 78.0965 33.5962 79.3148C34.8493 80.1095 36.2615 80.5145 37.7161 80.5145C38.4918 80.5145 39.2794 80.3993 40.0612 80.1666L55.3885 75.6043C56.109 75.39 56.7508 75.39 57.4709 75.6043L72.7982 80.1666C75.0447 80.8354 77.3414 80.5329 79.2629 79.315C81.1842 78.0967 82.2231 76.2847 82.1887 74.2122L81.9533 60.0804C81.9422 59.4167 82.1408 58.8837 82.5968 58.3523L92.3052 47.0398ZM79.4954 56.3247C78.5186 57.4631 78.0553 58.7074 78.0788 60.1292L78.3142 74.2611C78.33 75.216 77.8705 76.0175 76.9854 76.5787C76.0873 77.1481 75.0999 77.2783 74.0488 76.9657L58.7215 72.4034C57.9504 72.1738 57.1902 72.0591 56.4297 72.0591C55.6692 72.0591 54.909 72.1738 54.1379 72.4034L38.8105 76.9657C37.7747 77.2732 36.7592 77.1401 35.874 76.5789C34.9888 76.0175 34.5292 75.216 34.5451 74.2611L34.7805 60.1292C34.8043 58.7074 34.341 57.4631 33.364 56.3247L23.6557 45.0124C22.9998 44.2481 22.832 43.364 23.1701 42.4555C23.5082 41.5473 24.2396 40.9183 25.2849 40.6363L40.7577 36.4646C42.315 36.0449 43.5279 35.2757 44.4661 34.1134L53.794 22.5598C54.4241 21.7792 55.3355 21.3664 56.4299 21.3664C57.5241 21.3664 58.4357 21.779 59.0661 22.5598L68.3935 34.1134C69.332 35.2759 70.5451 36.0451 72.1019 36.4646L87.5748 40.6363C88.6203 40.9183 89.3517 41.5475 89.6898 42.4558C90.0279 43.3638 89.86 44.2479 89.2039 45.0124L79.4954 56.3247ZM12.8195 49.248C12.8195 49.6964 12.6153 50.1265 12.252 50.4436C11.8886 50.7607 11.3958 50.9389 10.882 50.9389H1.9375C1.42364 50.9389 0.930832 50.7607 0.567481 50.4436C0.204129 50.1265 0 49.6964 0 49.248C0 48.7995 0.204129 48.3694 0.567481 48.0523C0.930832 47.7352 1.42364 47.557 1.9375 47.557H10.882C11.952 47.557 12.8195 48.3144 12.8195 49.248ZM54.4922 9.49704V1.69092C54.4922 1.24246 54.6963 0.812367 55.0597 0.495258C55.423 0.17815 55.9158 0 56.4297 0C56.9435 0 57.4364 0.17815 57.7997 0.495258C58.1631 0.812367 58.3672 1.24246 58.3672 1.69092V9.49704C58.3672 9.94549 58.1631 10.3756 57.7997 10.6927C57.4364 11.0098 56.9435 11.188 56.4297 11.188C55.9158 11.188 55.423 11.0098 55.0597 10.6927C54.6963 10.3756 54.4922 9.94549 54.4922 9.49704ZM16.5276 16.816C16.1642 16.4988 15.9601 16.0687 15.9601 15.6203C15.9601 15.1718 16.1642 14.7417 16.5276 14.4246C16.891 14.1075 17.3838 13.9293 17.8977 13.9293C18.4115 13.9293 18.9044 14.1075 19.2677 14.4246L25.5924 19.9444C25.9558 20.2615 26.1599 20.6916 26.1599 21.1401C26.1599 21.5885 25.9558 22.0186 25.5924 22.3357C25.2291 22.6529 24.7363 22.831 24.2224 22.831C23.7085 22.831 23.2157 22.6529 22.8523 22.3357L16.5276 16.816ZM87.2664 22.3355C87.0865 22.1785 86.9438 21.9921 86.8464 21.787C86.7491 21.5818 86.6989 21.3619 86.6989 21.1398C86.6989 20.9178 86.7491 20.6979 86.8464 20.4927C86.9438 20.2876 87.0865 20.1012 87.2664 19.9442L93.5912 14.4244C93.9545 14.1073 94.4474 13.9291 94.9612 13.9291C95.4751 13.9291 95.9679 14.1073 96.3313 14.4244C96.6946 14.7415 96.8988 15.1716 96.8988 15.6201C96.8988 16.0685 96.6946 16.4986 96.3313 16.8157L90.0066 22.3355C89.628 22.6657 89.1325 22.8308 88.6365 22.8308C88.1405 22.8308 87.645 22.6657 87.2664 22.3355ZM96.3318 81.6802C96.6951 81.9973 96.8993 82.4274 96.8993 82.8759C96.8993 83.3243 96.6951 83.7544 96.3318 84.0716C95.9684 84.3887 95.4756 84.5668 94.9617 84.5668C94.4479 84.5668 93.955 84.3887 93.5917 84.0716L87.2669 78.5518C87.087 78.3947 86.9443 78.2083 86.8469 78.0032C86.7496 77.798 86.6994 77.5781 86.6994 77.3561C86.6994 77.134 86.7496 76.9141 86.8469 76.709C86.9443 76.5038 87.087 76.3174 87.2669 76.1604C87.4469 76.0034 87.6605 75.8788 87.8955 75.7938C88.1306 75.7089 88.3825 75.6651 88.637 75.6651C88.8914 75.6651 89.1434 75.7089 89.3785 75.7938C89.6135 75.8788 89.8271 76.0034 90.007 76.1604L96.3318 81.6802ZM25.5929 76.1608C25.7728 76.3178 25.9155 76.5042 26.0129 76.7094C26.1102 76.9145 26.1603 77.1344 26.1603 77.3564C26.1603 77.5785 26.1101 77.7983 26.0127 78.0035C25.9153 78.2086 25.7726 78.395 25.5927 78.552L19.268 84.0716C19.0883 84.2288 18.8748 84.3535 18.6397 84.4385C18.4046 84.5235 18.1526 84.5671 17.8981 84.5668C17.6436 84.5671 17.3916 84.5235 17.1564 84.4385C16.9213 84.3534 16.7078 84.2287 16.5281 84.0713C16.1648 83.7542 15.9607 83.3242 15.9607 82.8758C15.9607 82.4273 16.1648 81.9973 16.5281 81.6802L22.8531 76.1606C23.2165 75.8436 23.7092 75.6656 24.223 75.6656C24.7368 75.6656 25.2296 75.8438 25.5929 76.1608ZM112.859 49.248C112.859 49.6964 112.655 50.1265 112.292 50.4436C111.929 50.7607 111.436 50.9389 110.922 50.9389H101.977C101.464 50.9389 100.971 50.7607 100.607 50.4436C100.244 50.1265 100.04 49.6964 100.04 49.248C100.04 48.7995 100.244 48.3694 100.607 48.0523C100.971 47.7352 101.464 47.557 101.977 47.557H110.922C111.436 47.557 111.929 47.7352 112.292 48.0523C112.655 48.3694 112.859 48.7995 112.859 49.248ZM58.3672 88.9989V96.805C58.3672 97.2535 58.1631 97.6836 57.7997 98.0007C57.4364 98.3178 56.9435 98.4959 56.4297 98.4959C55.9158 98.4959 55.423 98.3178 55.0597 98.0007C54.6963 97.6836 54.4922 97.2535 54.4922 96.805V88.9989C54.4922 88.5504 54.6963 88.1203 55.0597 87.8032C55.423 87.4861 55.9158 87.308 56.4297 87.308C56.9435 87.308 57.4364 87.4861 57.7997 87.8032C58.1631 88.1203 58.3672 88.5504 58.3672 88.9989Z" fill="white"/>
</svg>
