<svg width="112" height="118" viewBox="0 0 112 118" fill="none" xmlns="http://www.w3.org/2000/svg">
<path fill-rule="evenodd" clip-rule="evenodd" d="M71.1813 107.578C66.7798 108.566 62.1063 106.055 60.7581 101.978L60.4687 101.102C60.2656 100.488 60.642 99.8634 61.3053 99.7145L74.8318 96.6779C75.495 96.529 76.2039 96.9099 76.4071 97.5244L76.6964 98.3995C78.0647 102.473 75.5829 106.59 71.1813 107.578ZM63.2702 101.674C64.3097 104.361 67.4681 106.012 70.4425 105.344C73.4172 104.676 75.1288 101.952 74.3646 99.183L63.2702 101.674ZM59.3144 86.9001C58.7315 87.0309 58.1059 86.7713 57.8208 86.2353L46.4376 65.3887C46.2279 65.0157 46.2532 64.57 46.5087 64.2326C46.7642 63.8952 47.208 63.7356 47.6531 63.7757L57.0778 64.9202L64.4957 59.9946C64.8482 59.7555 65.3353 59.7261 65.7632 59.9101C66.1909 60.0943 66.4873 60.4676 66.5362 60.8767L69.5242 83.628C69.6068 84.2695 69.1128 84.8004 68.4126 84.8376C67.7124 84.8748 67.0995 84.3923 67.0169 83.7508L64.2934 63.0403L58.2585 67.0554C58.0079 67.2116 57.6863 67.2838 57.3942 67.2494L49.7218 66.3116L60.0828 85.3074C60.4066 85.8948 60.1553 86.5713 59.5289 86.8319C59.4549 86.8685 59.3946 86.8821 59.3144 86.9001Z" fill="#FEC107"/>
<path fill-rule="evenodd" clip-rule="evenodd" d="M77.4213 84.121L53.0787 89.367C52.4137 89.5104 51.6932 89.1154 51.4776 88.4893L51.0463 87.2371C48.9619 81.1848 44.425 75.7425 38.3113 71.9445C31.9308 68.0001 27.3106 62.1274 25.3194 55.403C21.3358 42.0764 29.0565 28.8565 42.9053 25.3217C50.283 23.426 58.2251 24.4251 65.2848 28.1416C72.338 31.8392 77.561 37.7652 79.9787 44.7851C82.1024 50.9515 81.7763 57.4211 79.085 62.9945C76.2161 68.9322 75.8072 75.6645 77.9635 81.9255L78.238 82.7223C78.4538 83.3484 78.0864 83.9779 77.4214 84.1212L77.4213 84.121ZM53.5036 86.8298L75.4281 82.1048C73.2223 75.3857 73.6753 68.2159 76.7354 61.8905C79.1875 56.8171 79.4752 50.9264 77.541 45.3105L77.5408 45.3105C75.3388 38.9167 70.5868 33.5412 64.161 30.1569C57.7352 26.7726 50.4962 25.8666 43.777 27.5999C31.1645 30.8276 24.1447 42.8774 27.757 55C29.5794 61.1088 33.7819 66.4598 39.589 70.0592C46.2495 74.1878 51.1643 80.0989 53.4447 86.7202L53.4839 86.834L53.5036 86.8298Z" fill="black"/>
<path fill-rule="evenodd" clip-rule="evenodd" d="M81.4702 87.482L49.8619 94.4864C48.484 94.7917 47.0119 93.9455 46.5719 92.6317L45.6105 89.7616C45.1637 88.4276 45.9323 87.1065 47.2894 86.8058L78.8768 79.806C80.2547 79.5007 81.7268 80.3469 82.1668 81.6607L83.1282 84.5308C83.5959 85.8602 82.8273 87.1813 81.4702 87.482ZM79.6824 82.2113L48.102 89.2312L49.0842 92.0967L80.6648 85.0767L79.6824 82.2113Z" fill="black"/>
<path fill-rule="evenodd" clip-rule="evenodd" d="M80.906 92.7374L53.4239 98.8036C52.0477 99.1074 50.5774 98.2655 50.1379 96.9584L49.1778 94.1031C48.7315 92.7759 49.4992 91.4617 50.8545 91.1625L78.3158 85.1008C79.6921 84.7971 81.1623 85.639 81.6018 86.946L82.5619 89.8014C83.029 91.1239 82.2823 92.4336 80.906 92.7374ZM79.1204 87.4937L51.6655 93.5756L52.6467 96.4263L80.1014 90.3445L79.1204 87.4937Z" fill="black"/>
<path fill-rule="evenodd" clip-rule="evenodd" d="M80.9701 99.2801L59.6937 103.866C58.3639 104.152 56.9432 103.358 56.5185 102.125L55.5908 99.431C55.1596 98.1789 55.9013 96.939 57.211 96.6567L78.4875 92.0713C79.8172 91.7847 81.2379 92.5789 81.6626 93.812L82.5903 96.5059C83.0417 97.7536 82.2999 98.9936 80.9701 99.2801ZM79.2649 94.3288L57.995 98.9332L58.9429 101.623L80.213 97.0182L79.2649 94.3288ZM42.6924 21.6942C42.0277 21.8375 41.3073 21.4425 41.0917 20.8164L38.4523 13.1523C38.2367 12.5262 38.6043 11.8968 39.269 11.7535C39.9339 11.6102 40.6543 12.0052 40.8699 12.6312L43.5093 20.2954C43.7249 20.9214 43.3573 21.5509 42.6924 21.6942ZM66.7915 25.3041C66.4893 25.3692 66.1277 25.3249 65.8277 25.145C65.214 24.8085 64.9657 24.0876 65.2724 23.5325L69.1662 16.8647C69.4793 16.3285 70.245 16.1635 70.8788 16.4956C71.4925 16.8321 71.7407 17.553 71.4341 18.1081L67.5402 24.7757C67.3848 25.0417 67.1159 25.2316 66.7915 25.3041ZM90.6965 41.611L82.5566 43.3653C81.8917 43.5086 81.1713 43.1137 80.9557 42.4876C80.7401 41.8616 81.1077 41.2321 81.7726 41.0888L89.9125 39.3345C90.5774 39.1912 91.2978 39.5862 91.5134 40.2122C91.729 40.8383 91.3614 41.4677 90.6965 41.611ZM22.5528 56.5418L14.4128 58.2961C13.7479 58.4394 13.0275 58.0444 12.8119 57.4184C12.5963 56.7923 12.9639 56.1629 13.6288 56.0196L21.7688 54.2653C22.4337 54.122 23.1541 54.517 23.3697 55.143C23.5853 55.769 23.2177 56.3985 22.5528 56.5418ZM24.3576 34.6328C24.0554 34.6979 23.6938 34.6535 23.3938 34.4737L15.7628 30.2899C15.1491 29.9535 14.9008 29.2324 15.2074 28.6772C15.5206 28.141 16.2862 27.976 16.92 28.3081L24.551 32.4918C25.1647 32.8283 25.413 33.5492 25.1063 34.1044C24.943 34.3841 24.68 34.5633 24.3576 34.6328Z" fill="black"/>
</svg>
