<svg width="340" height="340" viewBox="0 0 340 340" fill="none" xmlns="http://www.w3.org/2000/svg">
<path d="M252.088 112.987L252.882 128.467C252.882 128.467 236.903 142.163 217.748 135.017L216.241 125.808C222.814 126.92 229.562 126.325 235.839 124.08C242.116 121.835 247.711 118.015 252.088 112.987ZM127.647 139.688L128.839 151.208C125.79 149.469 122.999 147.312 120.548 144.8C119.777 142.465 119.554 139.985 119.896 137.55C120.237 135.116 121.134 132.793 122.517 130.76L127.647 139.688Z" fill="#00E4E0"/>
<path d="M141.741 130.76C139.558 129.426 134.53 126.821 128.639 127.982C126.945 128.315 122.285 129.242 121.619 132.153C121.059 134.59 123.404 137.893 127.651 139.693C128.41 138.433 129.235 137.933 129.834 137.713C133.087 136.491 136.172 141.036 144.92 142.278L141.741 130.76Z" fill="#00C1D7"/>
<path d="M88.3295 309.766L70.1675 339.816L27.5904 312.722C27.5904 312.722 34.2899 304.874 47.8368 309.766C61.3835 314.659 70.7633 301.706 70.7633 301.706L88.3295 309.766ZM287.842 209.512L313.814 195.042L339.827 236.661C339.827 236.661 327.994 239.791 320.256 230.055C312.518 220.319 299.606 226.365 299.606 226.365L287.842 209.512Z" fill="#8F00CD"/>
<path d="M174.906 77.4796C174.717 77.8198 173.149 80.5216 169.803 81.0796C166.397 81.6394 164.018 79.4992 163.744 79.2436L163.672 64.6096L170.478 63.5386L174.906 77.4796Z" fill="#FF59CF"/>
<path d="M170.831 66.0155L170.689 64.1885L163.669 65.2919C163.682 67.6427 163.693 69.9923 163.703 72.3407C164.853 72.4811 166.019 72.2998 167.072 71.8169C170.356 70.2797 170.804 66.2945 170.831 66.0155Z" fill="#FF17B6"/>
<path d="M165.629 65.6682C161.108 65.6682 157.442 62.003 157.442 57.4818C157.442 52.9606 161.108 49.2954 165.629 49.2954C170.15 49.2954 173.815 52.9606 173.815 57.4818C173.815 62.003 170.15 65.6682 165.629 65.6682Z" fill="#FF59CF"/>
<path d="M157.459 57.8236C157.547 59.1546 157.654 60.4843 157.779 61.8124C158.067 64.8724 158.24 65.668 158.666 66.5536C158.944 67.1296 159.478 68.2402 160.528 69.0088C163.013 70.8286 167.045 69.7288 169.456 68.0386C172.066 66.208 172.996 63.5296 173.309 62.4118C173.309 62.4118 173.489 61.7224 173.799 57.1504C163.98 57.5482 167.74 57.3934 157.459 57.8236Z" fill="#FF59CF"/>
<path d="M163.744 79.2293C146.692 79.1292 129.769 76.2555 113.639 70.7207C104.139 59.0807 94.6379 47.4443 85.1363 35.8115L71.8937 52.7981C74.9463 60.2162 78.6564 67.3462 82.9799 74.1029C89.6399 84.5213 92.9735 89.7305 99.3905 94.1135C105.691 98.4155 114.077 99.8825 130.592 102.642C139.275 104.093 146.455 104.95 151.249 105.45C153.409 104.48 156.87 102.556 163.744 79.2293Z" fill="#8F00CD"/>
<path d="M204.408 153.865C207.121 159.468 210.49 168.843 207.256 178.071C204.586 185.687 198.603 189.877 195.863 191.836C183.024 201.016 165.726 215.263 142.817 235.16C125.495 264.475 108.173 293.788 90.8514 323.101L61.632 302.84C75.636 276.778 86.7636 255.354 94.5828 240.115C103.531 222.675 104.267 220.886 107.683 215.502C126.389 186.027 152.433 163.826 152.433 163.826L204.408 153.865Z" fill="#570B7F"/>
<path d="M194.44 166.206L228.24 226.047L292.68 206.551L312.518 232.471C299.246 238.879 279.851 247.668 255.65 256.591C219.677 269.848 212.314 268.935 206.82 267.011C194.593 262.727 185.006 247.918 166.32 218.479C160.331 209.04 155.7 201.054 152.653 195.619L194.44 166.206Z" fill="#570B7F"/>
<path d="M196.061 96.9071C197.846 118.88 201.65 140.641 207.427 161.916C189.821 168.452 170.861 169.092 152.433 163.833C142.123 135.621 145.465 104.449 163.744 79.2329L174.904 77.4761L196.061 96.9071Z" fill="#FFF3FF"/>
<path d="M163.744 79.2295C163.744 79.2295 154.98 107.72 152.671 125.691C150.361 143.662 152.433 163.833 152.433 163.833L139.473 176.143C132.88 149.663 135.389 122.267 146.39 96.3133L163.744 79.2295Z" fill="#8F00CD"/>
<path d="M152.433 163.833L151.826 155.042C151.826 155.042 175.511 157.859 189.959 155.863L192.539 168.367L170.831 175.314L152.433 163.833Z" fill="#570B7F"/>
<path d="M174.906 77.48C192.879 80.1944 208.948 90.7802 218.826 109.012C222.534 115.869 230.103 129.86 224.197 139.891C222.534 142.717 220.365 144.274 219.231 145.074C203.69 155.998 168.851 145.074 163.519 143.346L163.676 123.006L200.61 124.437L186.84 107.349C186.84 107.349 170.798 93.6368 174.906 77.48Z" fill="#8F00CD"/>
<path d="M174.906 77.48C170.406 93.68 170.257 106.608 170.977 115.476C172.057 128.762 175.214 134.612 174.577 146.242C174.31 150.98 173.484 155.669 172.116 160.213C168.601 171.971 177.628 183.82 189.896 183.568C202.714 183.304 214.879 178.687 224.597 171.253C224.597 171.253 212.985 152.97 209.511 129.012C206.037 105.054 187.081 87.0902 187.081 87.0902L174.906 77.48Z" fill="#8F00CD"/>
<path d="M176.387 77.431L174.364 73.426C174.296 73.2886 174.2 73.1672 174.081 73.0701C173.962 72.9729 173.824 72.9021 173.676 72.8624C173.528 72.8228 173.373 72.8151 173.222 72.84C173.07 72.8648 172.926 72.9216 172.798 73.0066L168.349 75.919L164.417 74.398C164.253 74.3345 164.076 74.3072 163.9 74.318C163.724 74.3288 163.552 74.3775 163.397 74.4607C163.241 74.5439 163.105 74.6596 162.998 74.8001C162.892 74.9406 162.816 75.1024 162.778 75.2746L161.897 79.2346L164.93 84.8596L171.673 82.8256L176.387 77.431Z" fill="#FFF3FF"/>
<path d="M168.323 77.4313C168.323 77.4313 171.104 81.2275 170.831 82.5685C170.557 83.9095 167.252 85.2469 167.252 85.2469C165.861 95.7628 165.085 106.351 164.93 116.957C164.777 128.312 165.364 139.416 159.817 148.727C156.672 154.005 152.892 156.467 151.753 157.164C148.794 158.937 145.469 160.008 142.033 160.296C140.461 160.427 134.411 160.937 133.393 158.568C132.898 157.416 134.006 156.539 135.659 151.874C136.719 148.882 136.465 148.675 136.962 147.655C139.122 143.207 145.319 144.391 149.589 141.535C151.886 139.999 152.804 137.845 155.417 119.481C157.594 104.181 157.937 98.8099 160.817 92.9851C162.257 90.0763 164.938 84.8473 164.918 84.8473C164.898 84.8473 164.093 82.9609 164.291 81.5713C164.489 80.1817 166.984 76.1641 168.323 77.4313Z" fill="#FF9100"/>
<path d="M165.748 216.017C166.675 215.695 196.036 191.897 201.913 187.136C201.987 187.076 202.035 186.988 202.045 186.893C202.055 186.798 202.026 186.703 201.966 186.629C201.906 186.555 201.819 186.508 201.724 186.498C201.629 186.488 201.534 186.516 201.46 186.576C191.833 194.383 166.64 214.744 165.494 215.342C165.404 215.375 165.332 215.443 165.292 215.53C165.253 215.617 165.25 215.717 165.283 215.806C165.317 215.896 165.385 215.968 165.472 216.008C165.559 216.047 165.658 216.05 165.748 216.017Z" fill="#FFF3FF"/>
<path d="M170.977 59.6996C171 59.588 169.997 58.6466 170.132 55.2716C170.267 51.8966 168.811 50.9264 166.732 51.3314C164.653 51.7364 163.953 53.1224 161.897 52.4114C159.842 51.7004 158.193 53.5994 157.442 56.7314C157.442 56.7314 155.126 50.6114 160.578 47.771C166.03 44.9306 175.489 45.125 177.75 51.3602C180.011 57.5954 172.231 69.047 172.231 69.047C172.231 69.047 169.582 66.77 170.977 59.6996Z" fill="#570B7F"/>
<path d="M171.092 63.7637C169.574 63.2291 168.906 61.1957 169.602 59.2219C170.297 57.2481 172.091 56.0814 173.609 56.616C175.127 57.1506 175.794 59.1841 175.099 61.1579C174.404 63.1317 172.61 64.2983 171.092 63.7637Z" fill="#FF59CF"/>
<path d="M171.488 62.3596C172.323 62.3596 173.124 61.1248 172.852 60.3904C172.712 60.0124 172.37 59.782 171.86 59.8324C172.141 59.2222 172.503 58.7038 172.76 58.693C172.793 58.688 172.827 58.6911 172.858 58.7021C172.89 58.7131 172.918 58.7316 172.94 58.756C173.12 58.936 173.149 59.4382 173.137 59.656C173.134 59.7033 173.14 59.7507 173.155 59.7956C173.17 59.8404 173.194 59.8818 173.225 59.9174C173.289 59.9893 173.378 60.0332 173.473 60.0394C173.52 60.0425 173.568 60.0362 173.613 60.021C173.658 60.0057 173.699 59.9818 173.735 59.9505C173.806 59.8874 173.85 59.7983 173.857 59.7028C173.914 58.8532 173.597 57.955 172.744 57.9802C171.711 58.018 171.049 59.9098 170.926 60.2896C170.904 60.3578 170.903 60.4309 170.923 60.4997C170.943 60.5685 170.983 60.6298 171.038 60.6758C171.093 60.7218 171.16 60.7504 171.231 60.7579C171.302 60.7654 171.374 60.7515 171.437 60.718C171.628 60.6172 171.977 60.5092 172.125 60.5668C172.354 60.655 172.046 61.411 171.625 61.6126C171.518 61.663 171.427 61.6846 171.304 61.4758C171.253 61.4012 171.175 61.3487 171.087 61.3289C170.998 61.309 170.906 61.3232 170.827 61.3687C170.749 61.4141 170.69 61.4875 170.664 61.574C170.637 61.6606 170.644 61.7541 170.683 61.8358C170.759 61.9862 170.874 62.1139 171.015 62.2058C171.156 62.2978 171.319 62.3508 171.488 62.3596ZM170.831 56.5996C170.831 56.5996 167.872 57.8416 167.558 61.1338C167.245 64.426 164.464 61.2418 162.495 62.4298C160.526 63.6178 158.989 64.9498 157.894 62.9698C157.894 62.9698 157.124 67.6102 158.769 69.6622C160.414 71.7142 166.462 70.1752 168.541 68.9062C170.62 67.6372 169.592 60.781 170.105 59.1862C170.618 57.5914 170.831 56.5996 170.831 56.5996Z" fill="#570B7F"/>
<path d="M161.46 65.1858L165.647 64.4028C165.362 64.8492 164.709 65.7222 163.591 66.084C163.21 66.2082 162.691 66.3738 162.198 66.12C161.839 65.9169 161.575 65.5816 161.46 65.1858Z" fill="#FFF3FF"/>
<path d="M171.308 123.308L154.883 122.408C154.883 122.408 145.652 119.697 142.79 120.669C139.928 121.641 137.689 125.374 137.329 127.853C136.969 130.331 138.589 130.515 138.589 130.515C138.589 130.515 136.699 132.221 138.697 133.733C138.697 133.733 136.861 136.165 139.561 137.081C139.561 137.081 137.941 138.268 140.209 139.994C142.477 141.72 152.894 142.856 156.296 139.024L168.176 140.975L171.308 123.308Z" fill="#FF59CF"/>
<path d="M194.947 124.219L157.617 122.559L155.459 144.137L179.932 147.592L183.658 133.341L194.947 124.219Z" fill="#8F00CD"/>
<path d="M173.484 123.75C173.664 123.75 174.024 123.732 199.111 122.919C199.184 122.917 199.255 122.892 199.314 122.848C199.373 122.804 199.417 122.744 199.44 122.674C199.464 122.605 199.466 122.53 199.445 122.459C199.425 122.389 199.383 122.326 199.327 122.28C193.556 117.575 186.226 110.209 184.073 101.843C182.792 96.862 183.978 93.8471 183.991 93.8165C184.022 93.7291 184.018 93.6331 183.98 93.5483C183.943 93.4636 183.874 93.3967 183.788 93.3617C183.702 93.3266 183.606 93.3261 183.519 93.3601C183.433 93.3942 183.363 93.4603 183.325 93.5447C183.271 93.6725 182.041 96.7631 183.357 101.952C185.447 110.18 192.388 117.432 198.135 122.231L173.475 123.03C173.379 123.032 173.288 123.071 173.222 123.14C173.155 123.208 173.119 123.3 173.12 123.396C173.122 123.491 173.161 123.582 173.23 123.649C173.298 123.715 173.39 123.752 173.486 123.75H173.484ZM214.036 147.937C214.082 147.924 214.124 147.901 214.161 147.871C214.197 147.842 214.228 147.805 214.25 147.763C214.296 147.679 214.306 147.581 214.279 147.489C214.252 147.397 214.189 147.32 214.105 147.275C214.021 147.229 213.923 147.219 213.831 147.246C197.595 152.055 174.899 145.95 174.67 145.887C174.581 145.871 174.489 145.89 174.413 145.939C174.337 145.988 174.282 146.063 174.259 146.151C174.237 146.239 174.248 146.332 174.291 146.412C174.333 146.491 174.405 146.552 174.49 146.582C178.942 147.714 183.462 148.556 188.023 149.102C196.267 150.115 206.026 150.309 214.036 147.937Z" fill="#570B7F"/>
<path d="M213.933 130.878C214.002 130.878 214.07 130.859 214.127 130.822C214.185 130.784 214.232 130.732 214.26 130.669C214.289 130.607 214.299 130.537 214.29 130.469C214.28 130.401 214.252 130.337 214.207 130.284C208.238 123.264 199.227 122.211 199.137 122.202C199.09 122.197 199.042 122.202 198.997 122.215C198.951 122.228 198.908 122.251 198.871 122.28C198.834 122.31 198.804 122.347 198.781 122.389C198.758 122.431 198.744 122.476 198.739 122.524C198.734 122.571 198.738 122.619 198.751 122.664C198.765 122.71 198.787 122.753 198.817 122.79C198.847 122.827 198.883 122.857 198.925 122.88C198.967 122.903 199.013 122.917 199.06 122.922C199.146 122.933 207.88 123.956 213.658 130.756C213.692 130.795 213.735 130.826 213.782 130.847C213.83 130.869 213.881 130.879 213.933 130.878ZM138.58 130.878C138.654 130.879 138.726 130.856 138.786 130.814C138.847 130.772 138.893 130.712 138.918 130.643C138.918 130.616 139.68 128.632 141.937 126.819C141.974 126.789 142.004 126.752 142.027 126.711C142.049 126.669 142.063 126.623 142.068 126.576C142.073 126.529 142.068 126.481 142.054 126.435C142.041 126.39 142.018 126.348 141.988 126.311C141.958 126.274 141.921 126.244 141.879 126.221C141.838 126.199 141.792 126.185 141.745 126.18C141.697 126.175 141.65 126.18 141.604 126.193C141.559 126.207 141.516 126.23 141.48 126.26C139.053 128.209 138.269 130.308 138.24 130.4C138.221 130.454 138.215 130.512 138.223 130.569C138.231 130.626 138.253 130.68 138.286 130.727C138.319 130.774 138.363 130.812 138.415 130.838C138.466 130.865 138.522 130.878 138.58 130.878ZM138.688 134.097C138.782 134.097 138.873 134.06 138.94 133.994L141.991 131.013C142.059 130.947 142.099 130.856 142.1 130.76C142.101 130.665 142.065 130.573 141.998 130.504C141.932 130.436 141.84 130.396 141.745 130.395C141.649 130.394 141.557 130.43 141.489 130.497L138.429 133.479C138.377 133.53 138.342 133.595 138.327 133.665C138.313 133.736 138.32 133.81 138.348 133.876C138.376 133.943 138.424 133.999 138.484 134.039C138.545 134.078 138.616 134.098 138.688 134.097ZM139.552 137.445C139.625 137.444 139.696 137.422 139.755 137.38L142.671 135.371C142.712 135.345 142.747 135.311 142.775 135.271C142.802 135.232 142.821 135.186 142.831 135.139C142.841 135.092 142.841 135.043 142.831 134.995C142.821 134.948 142.802 134.903 142.775 134.863C142.747 134.823 142.712 134.789 142.671 134.763C142.63 134.737 142.584 134.72 142.536 134.712C142.489 134.704 142.44 134.706 142.393 134.718C142.346 134.729 142.301 134.75 142.263 134.779L139.347 136.788C139.283 136.831 139.235 136.894 139.21 136.967C139.185 137.04 139.184 137.119 139.207 137.192C139.229 137.266 139.275 137.33 139.338 137.375C139.4 137.421 139.475 137.445 139.552 137.445ZM143.46 104.168C143.536 104.168 143.61 104.144 143.671 104.099C143.733 104.054 143.778 103.991 143.802 103.918C146.705 94.756 155.624 85.198 155.714 85.0972C155.78 85.0275 155.815 84.9347 155.812 84.8392C155.808 84.7436 155.768 84.6532 155.698 84.5878C155.628 84.5224 155.535 84.4874 155.44 84.4904C155.344 84.4935 155.254 84.5343 155.189 84.604C155.099 84.7012 146.07 94.3816 143.116 103.7C143.099 103.754 143.095 103.811 143.104 103.867C143.113 103.923 143.136 103.976 143.169 104.021C143.203 104.067 143.246 104.104 143.297 104.129C143.347 104.155 143.403 104.168 143.46 104.168Z" fill="#570B7F"/>
<path d="M75.168 23.9714C75.168 23.9714 73.512 21.041 71.7858 21.3902C70.0596 21.7394 69.8418 25.8416 69.8418 25.8416C69.8418 25.8416 65.5596 23.5754 66.4218 29.6216C66.4218 29.6216 62.919 28.2878 63.8298 32.6618C63.8298 32.6618 61.0164 31.6466 60.966 34.3052C60.9156 36.9638 64.3338 45.9296 69.48 47.474L73.3662 55.3526L82.9404 42.6194L75.168 23.9714Z" fill="#FF59CF"/>
<path d="M30.294 40.38L45.1674 42.468C49.0051 43.007 52.9048 42.0772 56.0864 39.8645C59.2679 37.6518 61.4967 34.3194 62.3268 30.534L67.4874 7.0026L18.7686 0.162598L17.2386 24.3708C16.9973 28.1933 18.208 31.966 20.6286 34.9342C23.0492 37.9024 26.5011 39.8474 30.294 40.38Z" fill="#FFC700"/>
<path d="M44.0593 22.7063L36.9974 21.7075L31.2152 62.5956L38.2774 63.5942L44.0593 22.7063Z" fill="#FFC700"/>
<path d="M16.4088 66.5376L51.4728 71.4624L52.2864 51.864L21.0258 47.4738L16.4088 66.5376ZM67.4874 39.1092C70.6663 39.103 73.7363 37.951 76.1346 35.8645C78.5329 33.778 80.0986 30.8968 80.5446 27.7494L80.6616 26.9142C81.1437 23.4495 80.232 19.9351 78.1263 17.1417C76.0207 14.3484 72.8931 12.5043 69.4296 12.0138L15.5196 4.44302C12.0549 3.9609 8.54045 4.87265 5.74712 6.97829C2.95377 9.08392 1.10962 12.2115 0.619179 15.675L0.502197 16.5102C0.260551 18.2262 0.359451 19.973 0.793243 21.6507C1.22704 23.3285 1.98721 24.9043 3.03033 26.2881C4.07344 27.6719 5.37905 28.8365 6.87251 29.7155C8.36597 30.5944 10.018 31.1705 11.7342 31.4106C70.7796 39.7014 66.1698 39.1092 67.4874 39.1092ZM13.68 7.91522C14.6628 7.91522 10.98 7.44182 68.94 15.5796C71.4586 15.9357 73.7329 17.2765 75.264 19.3077C76.7951 21.3389 77.4578 23.8946 77.1066 26.4138L76.9896 27.249C76.633 29.7674 75.2921 32.0415 73.2611 33.5724C71.23 35.1034 68.6746 35.7663 66.1554 35.4156L12.24 27.8448C10.992 27.6705 9.79064 27.2519 8.70459 26.6129C7.61854 25.9739 6.6691 25.127 5.91061 24.1208C5.15212 23.1145 4.59944 21.9686 4.28419 20.7486C3.96895 19.5286 3.89732 18.2584 4.07339 17.0106L4.19039 16.1754C4.51425 13.8875 5.65194 11.7929 7.39489 10.2758C9.13783 8.75862 11.3692 7.92055 13.68 7.91522Z" fill="#FFC700"/>
<path d="M40.4694 37.6223C32.1218 37.6223 25.3548 30.8552 25.3548 22.5077C25.3548 14.1601 32.1218 7.39307 40.4694 7.39307C48.8169 7.39307 55.584 14.1601 55.584 22.5077C55.584 30.8552 48.8169 37.6223 40.4694 37.6223Z" fill="#FFF3FF"/>
<path d="M43.6716 28.3739C43.8268 28.2417 43.923 28.0532 43.9392 27.85C43.9554 27.6468 43.8902 27.4455 43.758 27.2903C43.6258 27.1352 43.4373 27.0389 43.2341 27.0227C43.0309 27.0065 42.8295 27.0717 42.6744 27.2039C40.5288 29.0309 37.5084 29.0039 37.7748 26.1113C37.881 24.9593 38.1024 24.2501 38.4354 24.0053C38.916 23.6453 40.2732 23.9945 41.2884 24.2051C45.0918 24.9899 46.08 17.0447 41.8284 15.4373C40.3884 14.8973 39.4128 15.2177 38.8476 15.5867C37.2942 16.5965 37.125 18.9221 37.1106 19.1867C37.0992 19.3903 37.169 19.5902 37.3049 19.7422C37.4408 19.8943 37.6315 19.9862 37.8351 19.9976C38.0387 20.0091 38.2385 19.9392 38.3906 19.8033C38.5427 19.6675 38.6345 19.4767 38.646 19.2731C38.6748 18.7745 38.9214 17.3741 39.69 16.8773C40.0824 16.6217 40.6044 16.6217 41.283 16.8773C43.956 17.8889 43.2306 23.0657 41.5962 22.7021C40.167 22.4033 38.5866 21.9821 37.5138 22.7705C36.7938 23.3105 36.3924 24.2969 36.2376 25.9727C35.8596 30.1559 40.2894 31.2575 43.6716 28.3739Z" fill="#570B7F"/>
<path d="M90.2106 42.6193L84.4164 31.9993C83.9457 30.0845 83.1156 28.2764 81.9702 26.6713C80.6796 24.8713 79.2396 22.8661 77.148 22.5691C72.8604 21.9607 68.067 28.8529 69.228 30.9193C69.7194 31.7923 71.3502 31.9381 72.396 31.7113C72.396 31.7113 73.5228 31.4647 76.4982 28.3993C73.5624 32.2315 73.2276 37.2769 74.9862 40.9993C74.9862 40.9993 75.3552 41.7805 78.3342 45.7855C78.3162 45.7801 78.4296 45.7549 90.2106 42.6193Z" fill="#FF59CF"/>
<path d="M76.446 26.5792C76.446 26.5792 80.2513 33.0592 78.0121 35.3254C76.5721 36.7744 75.0186 35.2246 74.196 33.3634C74.736 36.0256 74.5561 37.975 73.6921 38.3566C73.3321 38.515 72.9379 38.3656 72.6121 38.2396C72.6121 38.2396 71.4565 37.7986 69.7519 34.5694C69.7519 34.5694 72.3708 38.6176 70.1298 39.3736C67.8888 40.1296 66.4057 37.624 66.4057 37.624C67.1257 38.7328 67.2085 39.9406 66.6469 40.6156C65.9683 41.4274 64.6092 41.1682 64.5426 41.1556C62.6958 40.7776 61.3656 37.9984 60.9678 34.3048C62.9712 34.5154 64.3879 34.1248 65.3257 33.7054C67.2517 32.8396 69.2298 30.9172 69.2298 30.9172C69.2298 30.9172 69.21 30.946 72.72 25.771L76.446 26.5792Z" fill="#FF59CF"/>
<path d="M75.2579 40.3278C75.3211 40.3277 75.3831 40.3111 75.4378 40.2794C75.4925 40.2478 75.5379 40.2024 75.5694 40.1477C75.601 40.0929 75.6176 40.0309 75.6176 39.9677C75.6175 39.9046 75.6009 39.8425 75.5693 39.7878C73.7333 36.6252 76.059 30.0678 76.0824 29.9958C76.1093 29.9204 76.1102 29.8381 76.0851 29.7621C76.0601 29.686 76.0103 29.6205 75.9438 29.5759C75.8773 29.5313 75.7978 29.5101 75.7179 29.5158C75.6381 29.5214 75.5623 29.5535 75.5027 29.607C73.4507 31.4682 71.0513 32.073 69.7427 31.7112C69.3701 31.6068 69.1289 31.4322 69.0641 31.2198C69.0461 31.155 68.9579 30.4872 71.5841 27.0042C72.9647 25.1682 74.4101 23.4654 74.4245 23.4474C74.472 23.3744 74.4914 23.2867 74.4792 23.2005C74.467 23.1143 74.4239 23.0355 74.358 22.9786C74.2921 22.9217 74.2078 22.8906 74.1208 22.8911C74.0337 22.8916 73.9498 22.9236 73.8845 22.9812C73.8701 22.9992 72.4103 24.7182 71.0153 26.5812C68.0993 30.462 68.3045 31.1424 68.3909 31.4412C68.8553 32.9838 72.1709 32.9928 75.0509 30.921C74.4407 33.0342 73.4309 37.5324 74.9591 40.164C74.9915 40.2139 75.0358 40.2549 75.0879 40.2835C75.1401 40.3121 75.1985 40.3273 75.2579 40.3278Z" fill="#570B7F"/>
<path d="M74.6875 34.505C74.7359 34.4968 74.7821 34.4788 74.8233 34.4521C74.8645 34.4254 74.8998 34.3906 74.9271 34.3497C74.9543 34.3089 74.9729 34.2629 74.9817 34.2146C74.9905 34.1663 74.9893 34.1167 74.9783 34.0689C74.9672 34.021 74.9465 33.976 74.9174 33.9364C74.8882 33.8969 74.8513 33.8638 74.8089 33.839C74.7665 33.8143 74.7195 33.7985 74.6707 33.7926C74.622 33.7867 74.5725 33.7909 74.5254 33.8048C74.1042 33.8984 73.2402 32.6996 72.7254 31.5602C72.6861 31.4731 72.6137 31.4052 72.5242 31.3714C72.4348 31.3376 72.3356 31.3408 72.2484 31.3802C72.1613 31.4196 72.0934 31.492 72.0597 31.5814C72.0259 31.6709 72.0291 31.7701 72.0684 31.8572C72.5238 32.867 73.6021 34.757 74.6875 34.505ZM73.4796 38.0042C74.3058 37.6298 74.6154 36.719 74.628 36.6812C74.6429 36.6363 74.6488 36.5889 74.6454 36.5417C74.642 36.4945 74.6293 36.4484 74.6081 36.4061C74.5868 36.3639 74.5575 36.3262 74.5217 36.2952C74.4859 36.2643 74.4443 36.2407 74.3994 36.2258C74.3545 36.2109 74.3071 36.205 74.2599 36.2084C74.2127 36.2119 74.1667 36.2245 74.1244 36.2458C74.0821 36.267 74.0444 36.2963 74.0135 36.3321C73.9825 36.3679 73.9589 36.4095 73.9441 36.4544C73.9441 36.4544 73.7155 37.1096 73.1791 37.3544C73.0049 37.4204 72.8189 37.4494 72.633 37.4395C72.447 37.4295 72.2652 37.381 72.0991 37.2968C70.9128 36.7964 68.2488 32.3342 66.7476 29.4578C66.7258 29.4158 66.6959 29.3786 66.6596 29.3482C66.6234 29.3178 66.5814 29.2948 66.5363 29.2806C66.4912 29.2664 66.4437 29.2612 66.3966 29.2654C66.3494 29.2695 66.3036 29.2829 66.2616 29.3048C66.2197 29.3266 66.1824 29.3566 66.152 29.3928C66.1216 29.4291 66.0987 29.471 66.0845 29.5161C66.0703 29.5612 66.0651 29.6087 66.0692 29.6558C66.0734 29.703 66.0868 29.7488 66.1086 29.7908C66.5028 30.5468 70.0146 37.1996 71.82 37.9592C72.0778 38.0836 72.3589 38.152 72.645 38.1598C72.9311 38.1675 73.2156 38.1145 73.4796 38.0042ZM70.713 27.9296C70.7748 27.9299 70.8356 27.9142 70.8896 27.8842C70.9436 27.8542 70.9889 27.8108 71.0213 27.7582C71.0537 27.7056 71.0719 27.6455 71.0744 27.5838C71.0768 27.5221 71.0633 27.4608 71.0352 27.4058L70.1641 25.6796C70.1208 25.5941 70.0454 25.5293 69.9545 25.4995C69.8635 25.4696 69.7644 25.4771 69.6789 25.5203C69.5935 25.5635 69.5287 25.6389 69.4988 25.7298C69.469 25.8208 69.4764 25.9199 69.5196 26.0054L70.3909 27.7316C70.4209 27.7912 70.467 27.8413 70.5239 27.8763C70.5808 27.9113 70.6463 27.9297 70.713 27.9296Z" fill="#570B7F"/>
<path d="M71.3411 36.7999C71.3347 36.7044 71.2906 36.6154 71.2185 36.5525C71.1464 36.4895 71.0523 36.4577 70.9568 36.4642C70.8613 36.4706 70.7723 36.5147 70.7094 36.5868C70.6464 36.6589 70.6147 36.753 70.6211 36.8485C70.6751 37.6369 70.5293 38.7223 69.9497 39.1885C69.6581 39.4225 69.2819 39.4693 68.8013 39.3289C68.1173 39.1309 66.3155 37.1509 64.1573 32.5141C64.1396 32.468 64.1127 32.4261 64.0781 32.3909C64.0435 32.3557 64.0021 32.328 63.9564 32.3095C63.9107 32.291 63.8616 32.2821 63.8123 32.2833C63.763 32.2845 63.7145 32.2959 63.6697 32.3167C63.625 32.3374 63.585 32.3672 63.5522 32.404C63.5194 32.4409 63.4946 32.4841 63.4792 32.531C63.4638 32.5778 63.4583 32.6274 63.4628 32.6765C63.4674 32.7256 63.482 32.7733 63.5057 32.8165C63.5057 32.8327 64.2761 34.4689 65.2589 36.1501C66.6323 38.5009 67.7267 39.7663 68.6015 40.0201C70.5599 40.5799 71.4725 38.7979 71.3411 36.7999Z" fill="#570B7F"/>
<path d="M65.5038 41.5034C66.1374 41.5034 66.7134 41.2388 67.0068 40.6718C67.5882 39.5378 66.8267 37.6892 66.7349 37.4822C66.6944 37.399 66.6234 37.3345 66.5366 37.3023C66.4498 37.2701 66.354 37.2725 66.2689 37.3091C66.1839 37.3457 66.1162 37.4137 66.08 37.4989C66.0438 37.5841 66.0417 37.6799 66.0743 37.7666C66.2777 38.2436 66.7295 39.6368 66.3659 40.3424C66.3103 40.45 66.2301 40.543 66.132 40.614C66.0338 40.6849 65.9204 40.7319 65.8008 40.751C64.2528 41.0912 62.9873 38.591 62.9747 38.5658C62.9305 38.4833 62.856 38.4213 62.7668 38.3929C62.6777 38.3645 62.581 38.3719 62.4972 38.4136C62.4134 38.4552 62.3492 38.5279 62.318 38.6161C62.2869 38.7043 62.2913 38.8012 62.3304 38.8862C62.388 39.0014 63.6498 41.5034 65.5038 41.5034Z" fill="#570B7F"/>
<path d="M101.979 57.1505C101.651 56.0363 86.499 35.8115 86.499 35.8115L68.7042 53.0141L93.4938 88.9997L97.0848 72.3461L101.979 57.1505Z" fill="#8F00CD"/>
<path d="M111.839 82.813C111.903 82.8132 111.965 82.7967 112.02 82.7651C112.075 82.7335 112.121 82.6879 112.153 82.633C115.717 76.4518 114.057 70.852 113.983 70.6162C113.952 70.5293 113.888 70.4577 113.806 70.4164C113.723 70.3751 113.627 70.3671 113.539 70.3942C113.451 70.4213 113.376 70.4813 113.331 70.5618C113.286 70.6423 113.273 70.7372 113.296 70.8268C113.312 70.8826 114.93 76.3744 111.528 82.2748C111.497 82.3294 111.481 82.3913 111.481 82.4542C111.481 82.5171 111.498 82.5788 111.529 82.6333C111.561 82.6877 111.606 82.733 111.66 82.7645C111.715 82.796 111.776 82.8127 111.839 82.813ZM77.4 327.86C77.4 327.86 67.9464 323.72 57.96 327.86L30.3029 310.58C30.3029 310.58 26.9981 309.806 27.5904 312.729L70.1675 339.822L77.4 327.86ZM300.154 202.653C300.154 202.653 308.106 212.251 317.642 209.384L335.569 237.14C335.569 237.14 337.849 240.709 339.827 236.663L313.814 195.043L300.154 202.653Z" fill="#570B7F"/>
<path d="M223.643 240.432C223.719 240.432 223.793 240.408 223.854 240.363C223.916 240.319 223.961 240.256 223.985 240.184L228.587 226.16C228.602 226.115 228.608 226.068 228.604 226.021C228.601 225.973 228.588 225.927 228.567 225.885C228.546 225.843 228.516 225.805 228.48 225.775C228.444 225.744 228.403 225.72 228.358 225.706C228.313 225.691 228.266 225.685 228.218 225.689C228.171 225.692 228.125 225.705 228.083 225.726C228.041 225.747 228.003 225.777 227.973 225.813C227.942 225.849 227.918 225.89 227.903 225.935L223.301 239.959C223.283 240.013 223.278 240.071 223.287 240.127C223.295 240.183 223.317 240.237 223.351 240.283C223.384 240.329 223.428 240.367 223.479 240.393C223.53 240.419 223.586 240.432 223.643 240.432Z" fill="#FFF3FF"/>
<path d="M299.428 146.691C299.428 146.691 280.67 159.534 263.104 158.931C245.538 158.328 255.078 148.236 236.903 146.691C218.729 145.147 213.084 163.923 159.491 146.691L161.46 158.958C184.1 164.439 202.14 165.356 210.686 164.193C214.7 163.655 218.681 162.894 222.611 161.916C229.694 160.042 230.891 158.762 233.926 158.541C241.999 157.952 247.541 165.971 251.987 169.458C259.033 174.984 273.395 177.041 305.582 161.518C303.53 156.578 301.479 151.635 299.428 146.691Z" fill="#00E4E0"/>
</svg>
