<svg width="135" height="123" viewBox="0 0 135 123" fill="none" xmlns="http://www.w3.org/2000/svg">
<path d="M8.14502 60.9699L13.4527 55.6649C14.6181 54.4995 16.5087 54.4995 17.6741 55.6649L20.7221 58.7129C22.1644 34.1309 42.5567 14.6403 67.5 14.6403C89.2011 14.6403 107.456 29.3922 112.784 49.4148C113.183 50.9119 112.058 52.3822 110.509 52.3822H108.321C106.125 52.3822 105.028 55.0347 106.579 56.5877L114.278 64.2869L117.326 67.335C118.491 68.5004 120.382 68.5004 121.547 67.335L126.855 62.0299L132.297 56.5877C133.847 55.0347 132.748 52.3822 130.554 52.3822H128.145C127.008 52.3822 126.041 51.5674 125.831 50.4495C120.652 22.9462 96.5056 2.14233 67.5 2.14233C34.8944 2.14233 8.42978 28.433 8.14502 60.9699Z" fill="#008080"/>
<path d="M132.297 56.5877L126.855 62.0299L121.547 67.335C120.382 68.5004 118.491 68.5004 117.326 67.335L115.483 65.4919L124.387 56.5877C125.937 55.0347 124.838 52.3822 122.644 52.3822H120.234C119.098 52.3822 118.13 51.5674 117.922 50.4495C112.978 24.2089 90.7742 4.06713 63.5529 2.27153C64.858 2.18716 66.1737 2.14233 67.5 2.14233C96.5064 2.14233 120.651 22.946 125.832 50.4495C126.04 51.5674 127.008 52.3822 128.144 52.3822H130.554C132.748 52.3822 133.848 55.0347 132.297 56.5877Z" fill="#07838E"/>
<path d="M78.2552 32.6569V37.1973C78.2552 43.1378 73.4405 47.9525 67.5 47.9525C66.1025 47.9525 64.7684 47.6862 63.5449 47.201C59.5582 45.6269 56.7422 41.7404 56.7422 37.1973V32.6569C56.7422 28.0453 60.3308 24.2695 64.8686 23.9715C65.061 23.9557 65.2535 23.9504 65.4486 23.9504H69.5487C74.3581 23.9504 78.2552 27.8501 78.2552 32.6569Z" fill="#FFDFCF"/>
<path d="M78.2552 32.6569V37.1973C78.2552 43.1378 73.4405 47.9525 67.5 47.9525C66.1025 47.9525 64.7684 47.6862 63.5449 47.201C67.529 45.6243 70.345 41.7404 70.345 37.1973V29.8883C70.345 26.7638 67.9324 24.2036 64.8686 23.9715C65.061 23.9557 65.2535 23.9504 65.4486 23.9504H69.5487C74.3581 23.9504 78.2552 27.8501 78.2552 32.6569Z" fill="#FFCEBF"/>
<path d="M93.6091 56.44L86.8931 63.1536C86.3 63.7466 85.8295 64.4507 85.5084 65.2255C85.1874 66.0003 85.0222 66.8308 85.0221 67.6695V95.4004H49.978V67.6688C49.9781 66.8302 49.8129 65.9999 49.492 65.2252C49.1711 64.4505 48.7008 63.7466 48.1078 63.1536L41.3939 56.4398L51.1474 46.6863L54.4067 49.9455C57.879 53.4182 62.5886 55.3693 67.4994 55.3697C72.4103 55.3702 77.1202 53.4199 80.5932 49.9479L83.8556 46.6865L93.6091 56.44Z" fill="#08A935"/>
<path d="M93.6088 56.4402L86.8931 63.1533C85.696 64.3503 85.021 65.9746 85.021 67.67V95.4003H77.1108V67.67C77.1108 65.9746 77.7858 64.3503 78.9829 63.1533L89.6537 52.4851L93.6088 56.4402Z" fill="#08A935"/>
<path d="M114.588 35.4583L93.6087 56.4403L83.8552 46.6868L104.834 25.7048C107.527 23.0125 111.892 23.0125 114.588 25.7048C117.28 28.3974 117.28 32.7659 114.588 35.4583Z" fill="#FFDFCF"/>
<path d="M114.589 35.4572L93.6086 56.4403L89.6536 52.4852L106.679 35.4572C109.371 32.7652 109.371 28.3961 106.679 25.704C106.389 25.4166 106.08 25.1582 105.756 24.9315C108.445 23.0436 112.182 23.302 114.589 25.704C117.281 28.3961 117.281 32.7652 114.589 35.4572Z" fill="#FFCEBF"/>
<path d="M51.1475 46.6868L41.394 56.4403L20.4121 35.4583C17.7197 32.7659 17.7197 28.3974 20.4121 25.7048C23.1076 23.0125 27.473 23.0125 30.1656 25.7048L51.1475 46.6868Z" fill="#FFDFCF"/>
<path d="M49.978 95.4004V107.65L67.5017 113.218L85.0221 108.838V95.4004H49.978Z" fill="#60B7FF"/>
<path d="M85.021 95.4001V108.837L67.5026 113.219L64.0195 112.112L77.1108 108.837V95.4001H85.021Z" fill="#26A6FE"/>
<path d="M66.4999 66.2431C55.9177 73.7024 67.499 83.9674 67.499 83.9674C67.499 83.9674 79.0803 73.7024 68.4981 66.2431C68.2054 66.0377 67.8565 65.9275 67.499 65.9275C67.1415 65.9275 66.7926 66.0377 66.4999 66.2431Z" fill="#4A148C"/>
<path d="M67.4988 83.9672C67.4988 83.9672 64.9768 74.0996 54.3154 75.5242C52.5346 75.7623 51.5464 77.7053 52.3706 79.3018C53.4862 81.4631 55.4577 83.9672 58.6041 83.9672H67.4988Z" fill="#DD5D00"/>
<path d="M67.4987 83.9672C67.4987 83.9672 70.0207 74.0996 80.682 75.5242C82.4628 75.7623 83.4511 77.7053 82.6268 79.3018C81.5112 81.4631 79.5398 83.9672 76.3934 83.9672H67.4987Z" fill="#DD5D00"/>
<path d="M4.44577 70.6176H6.85466C7.99214 70.6176 8.95902 71.4324 9.16943 72.5503C14.3482 100.054 38.4944 120.857 67.5 120.857C100.106 120.857 126.57 94.5668 126.855 62.0299L121.547 67.3349C120.382 68.5003 118.491 68.5003 117.326 67.3349L114.278 64.2869C112.836 88.8689 92.4433 108.359 67.5 108.359C45.7988 108.359 27.5444 93.6076 22.2156 73.585C21.8172 72.0878 22.9415 70.6176 24.4908 70.6176H26.6785C28.8749 70.6176 29.9717 67.9651 28.4214 66.4121L20.7222 58.7129L17.6741 55.6648C16.5087 54.4994 14.6182 54.4994 13.4528 55.6648L8.14507 60.9699L2.7029 66.4121C1.15252 67.9651 2.25203 70.6176 4.44577 70.6176Z" fill="#25A36F"/>
<path d="M126.855 62.0298C126.57 94.5669 100.106 120.858 67.5 120.858C66.1684 120.858 64.8474 120.813 63.537 120.728C92.2904 118.841 115.451 96.4812 118.586 68.0863C119.602 68.3869 120.746 68.1364 121.547 67.3349L126.855 62.0298Z" fill="#008080"/>
<path d="M104.094 90.7719C95.5061 101.494 82.3046 108.36 67.5 108.36C45.7988 108.36 27.5444 93.6077 22.2156 73.585C21.8172 72.0879 22.9415 70.6177 24.4908 70.6177H26.6785C28.8749 70.6177 29.9717 67.9652 28.4214 66.4122L20.7222 58.713L17.6741 55.6649C16.5087 54.4995 14.6182 54.4995 13.4528 55.6649L8.14507 60.97L2.7029 66.4122C1.15252 67.9652 2.25203 70.6177 4.44577 70.6177H6.85466C7.99214 70.6177 8.95902 71.4324 9.16943 72.5504C14.3482 100.054 38.4944 120.858 67.5 120.858C100.106 120.858 126.57 94.5669 126.855 62.0299L121.547 67.335C120.382 68.5004 118.491 68.5004 117.326 67.335L114.278 64.287C113.877 71.1139 112.015 77.5483 109 83.2815M33.6049 29.1441C42.1378 20.2078 54.1688 14.6404 67.5 14.6404C80.8302 14.6404 92.8599 20.2065 101.392 29.1412" stroke="black" stroke-width="3" stroke-miterlimit="10" stroke-linecap="round" stroke-linejoin="round"/>
<path d="M109.449 40.5977C110.857 43.4163 111.974 46.3706 112.784 49.4151C113.183 50.9122 112.058 52.3824 110.509 52.3824H108.321C106.125 52.3824 105.028 55.0349 106.579 56.588L114.278 64.2872L117.326 67.3352C118.491 68.5006 120.382 68.5006 121.547 67.3352L126.855 62.0301L132.297 56.588C133.847 55.0349 132.748 52.3824 130.554 52.3824H128.145C127.008 52.3824 126.041 51.5677 125.831 50.4497C120.652 22.9465 96.5056 2.14258 67.5 2.14258C34.8944 2.14258 8.42978 28.4332 8.14502 60.9702L13.4527 55.6651C14.6181 54.4997 16.5087 54.4997 17.6741 55.6651L20.7221 58.7132C20.8969 55.7169 21.3596 52.7443 22.1038 49.8367" stroke="black" stroke-width="3" stroke-miterlimit="10" stroke-linecap="round" stroke-linejoin="round"/>
<path d="M93.6091 56.44L86.8931 63.1536C86.3 63.7466 85.8295 64.4507 85.5084 65.2255C85.1874 66.0003 85.0222 66.8308 85.0221 67.6695V95.4004H49.978V67.6688C49.978 66.8302 49.8129 65.9999 49.492 65.2252C49.1711 64.4505 48.7008 63.7466 48.1078 63.1536L41.3939 56.4398L51.1474 46.6863L54.4067 49.9455C57.8795 53.4184 62.5897 55.3695 67.5011 55.3695C72.4114 55.3696 77.1206 53.4194 80.5932 49.9479L83.8556 46.6865L93.6091 56.44Z" stroke="black" stroke-width="3" stroke-miterlimit="10" stroke-linecap="round" stroke-linejoin="round"/>
<path d="M85.022 104.973V95.4004H49.978V104.973M114.588 35.4583L93.6087 56.4401L83.8552 46.6867L104.834 25.7048C107.527 23.0125 111.892 23.0125 114.588 25.7048C117.28 28.3974 117.28 32.7659 114.588 35.4583ZM51.1474 46.6867L41.394 56.4401L20.4121 35.4583C17.7197 32.7659 17.7197 28.3974 20.4121 25.7048C23.1076 23.0125 27.4729 23.0125 30.1655 25.7048L51.1474 46.6867ZM67.4987 83.9674C67.4987 83.9674 64.9767 74.0997 54.3154 75.5244C52.5346 75.7624 51.5463 77.7054 52.3706 79.302C53.4862 81.4633 55.4576 83.9674 58.604 83.9674H67.4987Z" stroke="black" stroke-width="3" stroke-miterlimit="10" stroke-linecap="round" stroke-linejoin="round"/>
<path d="M67.4987 83.9672C67.4987 83.9672 70.0207 74.0996 80.682 75.5242C82.4628 75.7623 83.4511 77.7053 82.6268 79.3018C81.5112 81.4631 79.5398 83.9672 76.3934 83.9672H67.4987Z" stroke="black" stroke-width="3" stroke-miterlimit="10" stroke-linecap="round" stroke-linejoin="round"/>
<path d="M72.2282 77.2791C73.5492 73.8878 73.479 69.7545 68.4977 66.2431C68.2051 66.0377 67.8563 65.9275 67.4988 65.9275C67.1413 65.9275 66.7925 66.0377 66.4999 66.2431C61.5394 69.7397 61.449 73.8527 62.7528 77.2359M78.2552 32.6569V37.1973C78.2552 43.1378 73.4405 47.9525 67.5 47.9525C66.1025 47.9525 64.7684 47.6862 63.5449 47.201C59.5582 45.6269 56.7422 41.7404 56.7422 37.1973V32.6569C56.7422 28.0453 60.3308 24.2695 64.8686 23.9715C65.061 23.9557 65.2535 23.9504 65.4486 23.9504H69.5487C74.3581 23.9504 78.2552 27.8501 78.2552 32.6569Z" stroke="black" stroke-width="3" stroke-miterlimit="10" stroke-linecap="round" stroke-linejoin="round"/>
</svg>
