<svg width="113" height="113" viewBox="0 0 113 113" fill="none" xmlns="http://www.w3.org/2000/svg">
<path d="M49.4488 24.9489C47.515 26.2094 45.112 26.9427 42.6266 26.9427C35.8389 26.9427 30.3363 21.474 30.3363 14.7277C30.3363 7.98168 35.8387 2.5127 42.6266 2.5127C45.1356 2.5127 47.4692 3.25988 49.4141 4.54265M29.1224 72.7925C29.1224 76.5147 26.0863 79.5321 22.3411 79.5321C18.5959 79.5321 15.5601 76.5147 15.5601 72.7925V51.2251C15.5601 44.7197 20.8661 39.4463 27.4116 39.4463H40.8797" stroke="#DD5D00" stroke-width="4" stroke-miterlimit="10" stroke-linecap="round" stroke-linejoin="round"/>
<path d="M35.8805 24.9489C33.9467 26.2094 31.5517 26.9427 29.0663 26.9427C22.2786 26.9427 16.776 21.474 16.776 14.7277C16.776 7.98168 22.2784 2.5127 29.0663 2.5127C31.5754 2.5127 33.9089 3.25988 35.8538 4.54265M15.5623 72.7925C15.5623 76.5147 12.5263 79.5321 8.78128 79.5321C5.03607 79.5321 2 76.5147 2 72.7925V51.2251C2 44.7197 7.306 39.4463 13.8515 39.4463H27.3197M83.485 110.513L83.4969 72.9047M56.366 110.513H29.122V57.1067" stroke="#DD5D00" stroke-width="4" stroke-miterlimit="10" stroke-linecap="round" stroke-linejoin="round"/>
<path d="M42.8057 110.513H15.5616V57.1067M62.9223 24.9489C64.8559 26.2094 67.1692 26.9427 69.6543 26.9427C76.442 26.9427 81.9447 21.474 81.9447 14.7277C81.9447 7.98168 76.4422 2.5127 69.6543 2.5127C67.1453 2.5127 64.8117 3.25988 62.8669 4.54265M83.4969 72.7925C83.4969 76.5147 86.1948 79.5321 89.9398 79.5321C93.685 79.5321 96.7209 76.5147 96.7209 72.7925V51.2251C96.7209 44.7197 91.4149 39.4463 84.8694 39.4463H71.4012" stroke="#DD5D00" stroke-width="4" stroke-miterlimit="10" stroke-linecap="round" stroke-linejoin="round"/>
<path d="M76.4827 24.9489C78.4163 26.2094 80.7295 26.9427 83.2147 26.9427C90.0024 26.9427 95.5051 21.474 95.5051 14.7277C95.5051 7.98168 90.0026 2.5127 83.2147 2.5127C80.7057 2.5127 78.3721 3.25988 76.4272 4.54265M96.7189 72.7925C96.7189 76.5147 99.755 79.5321 103.5 79.5321C107.245 79.5321 110.281 76.5147 110.281 72.7925V51.2251C110.281 44.7197 104.975 39.4463 98.4298 39.4463H84.9616" stroke="#DD5D00" stroke-width="4" stroke-miterlimit="10" stroke-linecap="round" stroke-linejoin="round"/>
<path d="M55.9152 110.513H83.4849" stroke="#037777" stroke-width="4" stroke-miterlimit="10" stroke-linecap="round" stroke-linejoin="round"/>
<path d="M69.4756 110.513H96.7194V57.1067" stroke="#DD5D00" stroke-width="4" stroke-miterlimit="10" stroke-linecap="round" stroke-linejoin="round"/>
<path d="M69.9259 57.1067V110.513H42.6819V57.1067M56.1866 110.513V74.9141" stroke="#037777" stroke-width="4" stroke-miterlimit="10" stroke-linecap="round" stroke-linejoin="round"/>
<path d="M56.1866 26.9427C62.9744 26.9427 68.477 21.4739 68.477 14.7277C68.477 7.98154 62.9744 2.5127 56.1866 2.5127C49.3988 2.5127 43.8962 7.98154 43.8962 14.7277C43.8962 21.4739 49.3988 26.9427 56.1866 26.9427Z" stroke="#037777" stroke-width="4" stroke-miterlimit="10" stroke-linecap="round" stroke-linejoin="round"/>
<path d="M42.6826 72.7925C42.6826 76.5147 39.6465 79.5321 35.9013 79.5321C32.1561 79.5321 29.1202 76.5147 29.1202 72.7925V51.2251C29.1202 44.7198 34.4262 39.4463 40.9717 39.4463H71.6454C78.1909 39.4463 83.4969 44.7198 83.4969 51.2251V72.7927C83.4969 76.515 80.4608 79.5324 76.7158 79.5324C72.9706 79.5324 69.9345 76.515 69.9345 72.7927" stroke="#037777" stroke-width="4" stroke-miterlimit="10" stroke-linecap="round" stroke-linejoin="round"/>
</svg>
