<svg width="28" height="29" viewBox="0 0 28 29" fill="none" xmlns="http://www.w3.org/2000/svg">
<path d="M16.2593 27.625H0.875V4.875H3.9375C4.05353 4.875 4.16481 4.82891 4.24686 4.74686C4.32891 4.66481 4.375 4.55353 4.375 4.4375V1.375H21V9.68712C21 9.80315 21.0461 9.91443 21.1281 9.99648C21.2102 10.0785 21.3215 10.1246 21.4375 10.1246C21.5535 10.1246 21.6648 10.0785 21.7469 9.99648C21.8289 9.91443 21.875 9.80315 21.875 9.68712V0.9375C21.875 0.821468 21.8289 0.710188 21.7469 0.628141C21.6648 0.546094 21.5535 0.5 21.4375 0.5H3.9375C3.82147 0.500008 3.71019 0.546097 3.62813 0.628133L0.128133 4.12813C0.0875077 4.16876 0.0552826 4.21699 0.0332975 4.27007C0.0113124 4.32315 -2.09319e-06 4.38005 2.90458e-10 4.4375V28.0625C2.90458e-10 28.1785 0.0460936 28.2898 0.128141 28.3719C0.210188 28.4539 0.321468 28.5 0.4375 28.5H16.2593C16.3753 28.5 16.4866 28.4539 16.5686 28.3719C16.6507 28.2898 16.6968 28.1785 16.6968 28.0625C16.6968 27.9465 16.6507 27.8352 16.5686 27.7531C16.4866 27.6711 16.3753 27.625 16.2593 27.625ZM1.49368 4L3.5 1.99368V4H1.49368Z" fill="#4A148C"/>
<path d="M26.3879 10.5571C25.6421 10.1266 24.7734 10.0121 23.9417 10.235C23.11 10.4578 22.4148 10.9913 21.9843 11.737C21.735 12.1686 21.592 12.6381 21.559 13.1323C21.5588 13.136 21.5586 13.1398 21.5584 13.1435C21.5576 13.1637 21.4627 15.1823 20.4807 16.8832C19.7521 18.1452 18.5051 18.8681 18.0777 19.0884C17.7154 18.9604 17.3667 18.8564 17.0389 18.7799C16.1558 18.5738 15.0156 18.4797 14.5992 19.2008L12.9507 22.0561C12.5345 22.7772 13.1861 23.7175 13.806 24.3794C14.568 25.1928 15.6999 26.0521 16.9933 26.7988C18.2867 27.5456 19.5968 28.0963 20.6822 28.3494C21.0399 28.4328 21.4398 28.4979 21.8167 28.4979C22.3425 28.4979 22.8231 28.3707 23.0822 27.9903C23.0921 27.977 23.1017 27.9634 23.1101 27.9487L23.1217 27.9286L23.1218 27.9285L23.122 27.9283L24.7704 25.0731C25.1867 24.3521 24.5351 23.4118 23.9151 22.7499C23.692 22.5117 23.4364 22.2696 23.1551 22.0276C23.1317 21.5547 23.1304 20.1047 23.8628 18.836C24.8449 17.135 26.5461 16.0432 26.5629 16.0326C26.5662 16.0305 26.5695 16.0284 26.5728 16.0262C26.984 15.7506 27.3188 15.3921 27.5678 14.9608C28.4566 13.4214 27.9273 11.4459 26.3879 10.5571ZM22.3641 27.491C22.3175 27.5715 21.9455 27.7454 20.8809 27.4973C19.877 27.2632 18.6517 26.746 17.4307 26.0411C16.2098 25.3361 15.1493 24.5336 14.4446 23.7813C13.6974 22.9835 13.6619 22.5742 13.7084 22.4936C13.737 22.444 13.8892 22.359 14.2508 22.359C14.4761 22.359 14.7828 22.392 15.1916 22.4874C16.1955 22.7215 17.4208 23.2386 18.6417 23.9435C19.8627 24.6485 20.9232 25.451 21.6279 26.2034C22.3751 27.0011 22.4106 27.4104 22.3641 27.491ZM24.0126 24.6356L22.9452 26.4845C22.7585 26.1686 22.5102 25.8653 22.2666 25.6052C21.5047 24.7918 20.3728 23.9325 19.0793 23.1858C17.7859 22.439 16.4758 21.8883 15.3904 21.6352C15.0432 21.5543 14.6565 21.4909 14.2895 21.4872L15.357 19.6382C15.4036 19.5577 15.7756 19.3837 16.8402 19.632C17.844 19.8661 19.0693 20.3832 20.2903 21.0881C21.5113 21.7931 22.5718 22.5956 23.2765 23.348C24.0237 24.1457 24.0592 24.555 24.0127 24.6356L24.0126 24.6356ZM26.81 14.5232C26.6293 14.8362 26.3871 15.0964 26.0898 15.2964C25.9548 15.3826 24.1787 16.5389 23.1051 18.3984C22.5003 19.446 22.3235 20.5696 22.2826 21.3384C21.8047 20.9901 21.2812 20.6499 20.7278 20.3304C20.1844 20.0166 19.6381 19.738 19.1067 19.501C19.7519 19.0809 20.6347 18.3666 21.2385 17.3207C22.3123 15.4608 22.4254 13.3447 22.4325 13.1853C22.4571 12.8277 22.5612 12.4877 22.7421 12.1744C23.0557 11.6311 23.5622 11.2425 24.1682 11.0801C24.7742 10.9177 25.4071 11.0011 25.9504 11.3148C27.072 11.9624 27.4577 13.4016 26.8101 14.5232H26.81Z" fill="#4A148C"/>
<path d="M19.3344 15.9916C19.3344 15.8755 19.2884 15.7643 19.2063 15.6822C19.1243 15.6002 19.013 15.5541 18.8969 15.5541H3.18408C3.06805 15.5541 2.95677 15.6002 2.87472 15.6822C2.79268 15.7643 2.74658 15.8755 2.74658 15.9916C2.74658 16.1076 2.79268 16.2189 2.87472 16.3009C2.95677 16.383 3.06805 16.4291 3.18408 16.4291H18.8969C19.013 16.4291 19.1243 16.383 19.2063 16.3009C19.2884 16.2189 19.3344 16.1076 19.3344 15.9916ZM12.8524 18.8781C12.8524 18.7621 12.8064 18.6508 12.7243 18.5688C12.6423 18.4867 12.531 18.4406 12.4149 18.4406H3.18408C3.06805 18.4406 2.95677 18.4867 2.87472 18.5688C2.79268 18.6508 2.74658 18.7621 2.74658 18.8781C2.74658 18.9942 2.79268 19.1054 2.87472 19.1875C2.95677 19.2695 3.06805 19.3156 3.18408 19.3156H12.4149C12.531 19.3156 12.6423 19.2695 12.7243 19.1875C12.8064 19.1054 12.8524 18.9942 12.8524 18.8781ZM3.18408 22.2022H11.0405C11.1566 22.2022 11.2679 22.1561 11.3499 22.074C11.4319 21.992 11.478 21.8807 11.478 21.7647C11.478 21.6486 11.4319 21.5373 11.3499 21.4553C11.2679 21.3732 11.1566 21.3272 11.0405 21.3272H3.18408C3.06805 21.3272 2.95677 21.3732 2.87472 21.4553C2.79268 21.5373 2.74658 21.6486 2.74658 21.7647C2.74658 21.8807 2.79268 21.992 2.87472 22.074C2.95677 22.1561 3.06805 22.2022 3.18408 22.2022ZM3.18408 25.1873H11.8836C11.9996 25.1873 12.1109 25.1412 12.193 25.0592C12.275 24.9771 12.3211 24.8659 12.3211 24.7498C12.3211 24.6338 12.275 24.5225 12.193 24.4405C12.1109 24.3584 11.9996 24.3123 11.8836 24.3123H3.18408C3.06805 24.3123 2.95677 24.3584 2.87472 24.4405C2.79268 24.5225 2.74658 24.6338 2.74658 24.7498C2.74658 24.8659 2.79268 24.9771 2.87472 25.0592C2.95677 25.1412 3.06805 25.1873 3.18408 25.1873ZM15.8078 8.77533C15.8078 6.14667 13.6693 4.00806 11.0405 4.00806C8.41182 4.00806 6.27327 6.14661 6.27327 8.77533C6.27327 11.404 8.41182 13.5426 11.0405 13.5426C13.6693 13.5426 15.8078 11.404 15.8078 8.77533ZM7.14827 8.77533C7.14827 6.62912 8.89433 4.88306 11.0405 4.88306C13.1868 4.88306 14.9328 6.62912 14.9328 8.77533C14.9328 10.9215 13.1868 12.6676 11.0405 12.6676C8.89433 12.6676 7.14827 10.9215 7.14827 8.77533Z" fill="#4A148C"/>
<path d="M13.3423 7.4994C13.2544 7.42367 13.14 7.38594 13.0243 7.39451C12.9087 7.40307 12.8011 7.45722 12.7253 7.54506L10.5072 10.1177L9.45789 9.37797C9.41097 9.34425 9.35782 9.32017 9.30154 9.30711C9.24525 9.29404 9.18693 9.29226 9.12995 9.30186C9.07297 9.31146 9.01846 9.33225 8.96956 9.36304C8.92066 9.39382 8.87834 9.43399 8.84505 9.48122C8.81176 9.52845 8.78815 9.5818 8.77559 9.6382C8.76304 9.69461 8.76178 9.75294 8.77189 9.80983C8.782 9.86672 8.80328 9.92105 8.8345 9.96967C8.86572 10.0183 8.90626 10.0602 8.95379 10.0931L10.3275 11.0615C10.4011 11.1135 10.4891 11.1415 10.5793 11.1414C10.6422 11.1415 10.7044 11.1279 10.7617 11.1017C10.8189 11.0755 10.8698 11.0373 10.9108 10.9896L13.388 8.11649C13.4255 8.07298 13.4541 8.0225 13.4721 7.96794C13.4901 7.91338 13.4972 7.85581 13.4929 7.79851C13.4887 7.74121 13.4732 7.68531 13.4474 7.634C13.4215 7.58268 13.3858 7.53691 13.3423 7.4994Z" fill="#4A148C"/>
</svg>
