<svg width="45" height="45" viewBox="0 0 45 45" fill="none" xmlns="http://www.w3.org/2000/svg">
<mask id="path-1-inside-1_2731_5556" fill="white">
<path d="M42.3534 38.2061C42.3608 38.2985 42.35 38.3915 42.3214 38.4797C42.2929 38.5679 42.2473 38.6496 42.1873 38.7202C42.1272 38.7908 42.0538 38.8488 41.9712 38.8911C41.8887 38.9333 41.7987 38.9588 41.7063 38.9662L37.2584 39.3231C37.1565 39.3313 37.0541 39.3172 36.9581 39.2819C36.8622 39.2466 36.7751 39.1909 36.7028 39.1186C36.6306 39.0463 36.5749 38.9592 36.5396 38.8633C36.5043 38.7673 36.4902 38.6649 36.4984 38.563L36.8553 34.1152C36.8618 34.0221 36.8867 33.9313 36.9286 33.8479C36.9704 33.7646 37.0284 33.6903 37.0991 33.6295C37.1698 33.5686 37.2519 33.5224 37.3406 33.4935C37.4293 33.4646 37.5229 33.4535 37.6158 33.461C37.7088 33.4685 37.7994 33.4943 37.8824 33.537C37.9653 33.5796 38.039 33.6383 38.0991 33.7097C38.1593 33.781 38.2046 33.8635 38.2327 33.9525C38.2607 34.0415 38.2708 34.1351 38.2624 34.2281L38.0618 36.7299C41.6297 32.8334 43.5882 27.8023 43.5882 22.5C43.5882 18.1778 42.2887 14.0226 39.8302 10.4837C39.7773 10.4075 39.7399 10.3217 39.7202 10.2312C39.7005 10.1406 39.6988 10.047 39.7152 9.95577C39.7317 9.86454 39.7659 9.77743 39.816 9.69943C39.8661 9.62143 39.9311 9.55407 40.0072 9.50118C40.0833 9.44829 40.1691 9.41091 40.2597 9.39118C40.3503 9.37145 40.4439 9.36976 40.5351 9.38619C40.6263 9.40263 40.7135 9.43687 40.7915 9.48697C40.8694 9.53707 40.9368 9.60204 40.9897 9.67818C43.6132 13.4546 45 17.8884 45 22.5C45 28.1947 42.8824 33.5959 39.0277 37.7648L41.5934 37.5589C41.9824 37.5273 42.3222 37.8176 42.3534 38.2061ZM1.41176 22.5C1.41176 17.1976 3.37032 12.1667 6.93829 8.27012L6.73756 10.7719C6.72259 10.9585 6.78236 11.1434 6.90372 11.2859C7.02508 11.4285 7.19809 11.5169 7.38468 11.5319C7.57127 11.5469 7.75616 11.4871 7.89868 11.3657C8.04121 11.2444 8.12968 11.0714 8.14465 10.8848L8.50147 6.43703C8.50964 6.33514 8.4956 6.23269 8.4603 6.13676C8.425 6.04083 8.36929 5.95371 8.29703 5.88141C8.22462 5.80933 8.1375 5.75375 8.04161 5.71846C7.94573 5.68318 7.84336 5.66902 7.7415 5.67697L3.29365 6.03388C3.10705 6.04887 2.93404 6.13736 2.81268 6.2799C2.69133 6.42243 2.63156 6.60734 2.64653 6.79394C2.67776 7.18253 3.01871 7.47282 3.40659 7.44115L5.97238 7.23529C2.11765 11.4041 0 16.8052 0 22.5C0 27.1117 1.38679 31.5454 4.01038 35.3219C4.07537 35.4156 4.16212 35.4922 4.2632 35.545C4.36428 35.5978 4.47666 35.6253 4.59071 35.6252C4.71957 35.625 4.84594 35.5896 4.95612 35.5228C5.0663 35.456 5.15609 35.3602 5.21575 35.246C5.27541 35.1318 5.30268 35.0034 5.2946 34.8748C5.28651 34.7462 5.24338 34.6223 5.16988 34.5164C2.71129 30.9776 1.41176 26.8223 1.41176 22.5ZM10.4836 5.16988C14.0225 2.71129 18.1777 1.41176 22.5 1.41176C27.8023 1.41176 32.8333 3.37041 36.73 6.93829L34.2281 6.73756C33.8395 6.70606 33.4992 6.99618 33.4681 7.38477C33.4607 7.47716 33.4715 7.57012 33.5 7.65832C33.5285 7.74653 33.5741 7.82825 33.6342 7.89883C33.6943 7.96941 33.7677 8.02746 33.8502 8.06967C33.9328 8.11188 34.0228 8.13741 34.1152 8.14482L38.563 8.50165C38.6649 8.50982 38.7673 8.49577 38.8632 8.46046C38.9592 8.42514 39.0463 8.36942 39.1185 8.29713C39.1908 8.22484 39.2465 8.13772 39.2818 8.04178C39.3171 7.94585 39.3311 7.84339 39.3229 7.7415L38.966 3.29374C38.9595 3.20067 38.9346 3.10983 38.8927 3.02646C38.8509 2.94308 38.7929 2.86883 38.7222 2.808C38.6515 2.74716 38.5694 2.70095 38.4807 2.67203C38.392 2.64311 38.2984 2.63206 38.2054 2.63952C38.1125 2.64698 38.0219 2.6728 37.9389 2.71548C37.856 2.75816 37.7823 2.81687 37.7222 2.8882C37.662 2.95952 37.6166 3.04206 37.5886 3.13104C37.5606 3.22002 37.5505 3.31368 37.5589 3.40659L37.7647 5.97229C33.5959 2.11765 28.1947 0 22.5 0C17.8884 0 13.4546 1.38679 9.67818 4.01038C9.52751 4.11843 9.4254 4.2814 9.39389 4.4641C9.36238 4.6468 9.40401 4.83457 9.50977 4.98684C9.61554 5.1391 9.77697 5.24366 9.95917 5.2779C10.1414 5.31215 10.3297 5.27335 10.4836 5.16988ZM34.5163 39.8302C30.9776 42.2887 26.8223 43.5882 22.5 43.5882C17.1976 43.5882 12.1666 41.6296 8.27003 38.0618L10.7719 38.2625C11.1601 38.2945 11.5009 38.0039 11.532 37.6153C11.5394 37.5229 11.5286 37.43 11.5001 37.3418C11.4716 37.2536 11.426 37.1718 11.3659 37.1013C11.3058 37.0307 11.2324 36.9726 11.1498 36.9304C11.0673 36.8882 10.9773 36.8627 10.8849 36.8553L6.43712 36.4984C6.33523 36.4903 6.23278 36.5043 6.13685 36.5396C6.04093 36.5749 5.95381 36.6306 5.88154 36.7029C5.80927 36.7752 5.75356 36.8623 5.71827 36.9582C5.68298 37.0542 5.66895 37.1566 5.67715 37.2585L6.03406 41.7063C6.04147 41.7987 6.067 41.8887 6.10921 41.9712C6.15142 42.0538 6.20947 42.1272 6.28005 42.1873C6.35062 42.2474 6.43235 42.293 6.52055 42.3215C6.60876 42.35 6.70172 42.3609 6.79412 42.3535C6.98072 42.3385 7.15372 42.25 7.27508 42.1075C7.39644 41.9649 7.4562 41.78 7.44124 41.5934L7.23538 39.0278C11.4041 42.8824 16.8053 45 22.5 45C27.1117 45 31.5454 43.6132 35.3218 40.9897C35.4756 40.8829 35.5806 40.7194 35.6138 40.5351C35.647 40.3509 35.6056 40.161 35.4988 40.0072C35.392 39.8534 35.2285 39.7484 35.0442 39.7152C34.86 39.682 34.6701 39.7234 34.5163 39.8302ZM36.926 22.5001C36.926 30.4546 30.4545 36.9261 22.5 36.9261C14.5455 36.9261 8.07388 30.4546 8.07388 22.5001C8.07388 14.5456 14.5454 8.07406 22.5 8.07406C30.4546 8.07406 36.926 14.5456 36.926 22.5001ZM35.5143 22.5001C35.5143 15.324 29.6761 9.48582 22.5 9.48582C15.3239 9.48582 9.48573 15.324 9.48573 22.5001C9.48573 29.6762 15.3238 35.5144 22.5 35.5144C29.6762 35.5144 35.5143 29.6762 35.5143 22.5001ZM30.8336 29.4089C30.8336 29.5961 30.7593 29.7757 30.6269 29.908C30.4945 30.0404 30.315 30.1148 30.1278 30.1148H14.8721C14.6849 30.1148 14.5054 30.0404 14.373 29.908C14.2406 29.7757 14.1663 29.5961 14.1663 29.4089C14.1663 25.8057 16.465 22.7297 19.6729 21.5693C18.4616 20.6911 17.6715 19.2657 17.6715 17.6585C17.6715 14.9961 19.8375 12.83 22.5 12.83C25.1625 12.83 27.3285 14.9961 27.3285 17.6585C27.3285 19.2657 26.5384 20.6911 25.3271 21.5693C28.5349 22.7297 30.8336 25.8057 30.8336 29.4089ZM22.4977 21.0753H22.5023C24.3852 21.074 25.9168 19.5418 25.9168 17.6585C25.9168 15.7745 24.3841 14.2418 22.5001 14.2418C20.6161 14.2418 19.0834 15.7745 19.0834 17.6585C19.0833 19.5418 20.6149 21.074 22.4977 21.0753ZM29.3861 28.703C29.0314 25.2173 26.0794 22.4879 22.5017 22.487H22.4981C18.9205 22.4879 15.9684 25.2172 15.6137 28.703H29.3861Z"/>
</mask>
<path d="M42.3534 38.2061C42.3608 38.2985 42.35 38.3915 42.3214 38.4797C42.2929 38.5679 42.2473 38.6496 42.1873 38.7202C42.1272 38.7908 42.0538 38.8488 41.9712 38.8911C41.8887 38.9333 41.7987 38.9588 41.7063 38.9662L37.2584 39.3231C37.1565 39.3313 37.0541 39.3172 36.9581 39.2819C36.8622 39.2466 36.7751 39.1909 36.7028 39.1186C36.6306 39.0463 36.5749 38.9592 36.5396 38.8633C36.5043 38.7673 36.4902 38.6649 36.4984 38.563L36.8553 34.1152C36.8618 34.0221 36.8867 33.9313 36.9286 33.8479C36.9704 33.7646 37.0284 33.6903 37.0991 33.6295C37.1698 33.5686 37.2519 33.5224 37.3406 33.4935C37.4293 33.4646 37.5229 33.4535 37.6158 33.461C37.7088 33.4685 37.7994 33.4943 37.8824 33.537C37.9653 33.5796 38.039 33.6383 38.0991 33.7097C38.1593 33.781 38.2046 33.8635 38.2327 33.9525C38.2607 34.0415 38.2708 34.1351 38.2624 34.2281L38.0618 36.7299C41.6297 32.8334 43.5882 27.8023 43.5882 22.5C43.5882 18.1778 42.2887 14.0226 39.8302 10.4837C39.7773 10.4075 39.7399 10.3217 39.7202 10.2312C39.7005 10.1406 39.6988 10.047 39.7152 9.95577C39.7317 9.86454 39.7659 9.77743 39.816 9.69943C39.8661 9.62143 39.9311 9.55407 40.0072 9.50118C40.0833 9.44829 40.1691 9.41091 40.2597 9.39118C40.3503 9.37145 40.4439 9.36976 40.5351 9.38619C40.6263 9.40263 40.7135 9.43687 40.7915 9.48697C40.8694 9.53707 40.9368 9.60204 40.9897 9.67818C43.6132 13.4546 45 17.8884 45 22.5C45 28.1947 42.8824 33.5959 39.0277 37.7648L41.5934 37.5589C41.9824 37.5273 42.3222 37.8176 42.3534 38.2061ZM1.41176 22.5C1.41176 17.1976 3.37032 12.1667 6.93829 8.27012L6.73756 10.7719C6.72259 10.9585 6.78236 11.1434 6.90372 11.2859C7.02508 11.4285 7.19809 11.5169 7.38468 11.5319C7.57127 11.5469 7.75616 11.4871 7.89868 11.3657C8.04121 11.2444 8.12968 11.0714 8.14465 10.8848L8.50147 6.43703C8.50964 6.33514 8.4956 6.23269 8.4603 6.13676C8.425 6.04083 8.36929 5.95371 8.29703 5.88141C8.22462 5.80933 8.1375 5.75375 8.04161 5.71846C7.94573 5.68318 7.84336 5.66902 7.7415 5.67697L3.29365 6.03388C3.10705 6.04887 2.93404 6.13736 2.81268 6.2799C2.69133 6.42243 2.63156 6.60734 2.64653 6.79394C2.67776 7.18253 3.01871 7.47282 3.40659 7.44115L5.97238 7.23529C2.11765 11.4041 0 16.8052 0 22.5C0 27.1117 1.38679 31.5454 4.01038 35.3219C4.07537 35.4156 4.16212 35.4922 4.2632 35.545C4.36428 35.5978 4.47666 35.6253 4.59071 35.6252C4.71957 35.625 4.84594 35.5896 4.95612 35.5228C5.0663 35.456 5.15609 35.3602 5.21575 35.246C5.27541 35.1318 5.30268 35.0034 5.2946 34.8748C5.28651 34.7462 5.24338 34.6223 5.16988 34.5164C2.71129 30.9776 1.41176 26.8223 1.41176 22.5ZM10.4836 5.16988C14.0225 2.71129 18.1777 1.41176 22.5 1.41176C27.8023 1.41176 32.8333 3.37041 36.73 6.93829L34.2281 6.73756C33.8395 6.70606 33.4992 6.99618 33.4681 7.38477C33.4607 7.47716 33.4715 7.57012 33.5 7.65832C33.5285 7.74653 33.5741 7.82825 33.6342 7.89883C33.6943 7.96941 33.7677 8.02746 33.8502 8.06967C33.9328 8.11188 34.0228 8.13741 34.1152 8.14482L38.563 8.50165C38.6649 8.50982 38.7673 8.49577 38.8632 8.46046C38.9592 8.42514 39.0463 8.36942 39.1185 8.29713C39.1908 8.22484 39.2465 8.13772 39.2818 8.04178C39.3171 7.94585 39.3311 7.84339 39.3229 7.7415L38.966 3.29374C38.9595 3.20067 38.9346 3.10983 38.8927 3.02646C38.8509 2.94308 38.7929 2.86883 38.7222 2.808C38.6515 2.74716 38.5694 2.70095 38.4807 2.67203C38.392 2.64311 38.2984 2.63206 38.2054 2.63952C38.1125 2.64698 38.0219 2.6728 37.9389 2.71548C37.856 2.75816 37.7823 2.81687 37.7222 2.8882C37.662 2.95952 37.6166 3.04206 37.5886 3.13104C37.5606 3.22002 37.5505 3.31368 37.5589 3.40659L37.7647 5.97229C33.5959 2.11765 28.1947 0 22.5 0C17.8884 0 13.4546 1.38679 9.67818 4.01038C9.52751 4.11843 9.4254 4.2814 9.39389 4.4641C9.36238 4.6468 9.40401 4.83457 9.50977 4.98684C9.61554 5.1391 9.77697 5.24366 9.95917 5.2779C10.1414 5.31215 10.3297 5.27335 10.4836 5.16988ZM34.5163 39.8302C30.9776 42.2887 26.8223 43.5882 22.5 43.5882C17.1976 43.5882 12.1666 41.6296 8.27003 38.0618L10.7719 38.2625C11.1601 38.2945 11.5009 38.0039 11.532 37.6153C11.5394 37.5229 11.5286 37.43 11.5001 37.3418C11.4716 37.2536 11.426 37.1718 11.3659 37.1013C11.3058 37.0307 11.2324 36.9726 11.1498 36.9304C11.0673 36.8882 10.9773 36.8627 10.8849 36.8553L6.43712 36.4984C6.33523 36.4903 6.23278 36.5043 6.13685 36.5396C6.04093 36.5749 5.95381 36.6306 5.88154 36.7029C5.80927 36.7752 5.75356 36.8623 5.71827 36.9582C5.68298 37.0542 5.66895 37.1566 5.67715 37.2585L6.03406 41.7063C6.04147 41.7987 6.067 41.8887 6.10921 41.9712C6.15142 42.0538 6.20947 42.1272 6.28005 42.1873C6.35062 42.2474 6.43235 42.293 6.52055 42.3215C6.60876 42.35 6.70172 42.3609 6.79412 42.3535C6.98072 42.3385 7.15372 42.25 7.27508 42.1075C7.39644 41.9649 7.4562 41.78 7.44124 41.5934L7.23538 39.0278C11.4041 42.8824 16.8053 45 22.5 45C27.1117 45 31.5454 43.6132 35.3218 40.9897C35.4756 40.8829 35.5806 40.7194 35.6138 40.5351C35.647 40.3509 35.6056 40.161 35.4988 40.0072C35.392 39.8534 35.2285 39.7484 35.0442 39.7152C34.86 39.682 34.6701 39.7234 34.5163 39.8302ZM36.926 22.5001C36.926 30.4546 30.4545 36.9261 22.5 36.9261C14.5455 36.9261 8.07388 30.4546 8.07388 22.5001C8.07388 14.5456 14.5454 8.07406 22.5 8.07406C30.4546 8.07406 36.926 14.5456 36.926 22.5001ZM35.5143 22.5001C35.5143 15.324 29.6761 9.48582 22.5 9.48582C15.3239 9.48582 9.48573 15.324 9.48573 22.5001C9.48573 29.6762 15.3238 35.5144 22.5 35.5144C29.6762 35.5144 35.5143 29.6762 35.5143 22.5001ZM30.8336 29.4089C30.8336 29.5961 30.7593 29.7757 30.6269 29.908C30.4945 30.0404 30.315 30.1148 30.1278 30.1148H14.8721C14.6849 30.1148 14.5054 30.0404 14.373 29.908C14.2406 29.7757 14.1663 29.5961 14.1663 29.4089C14.1663 25.8057 16.465 22.7297 19.6729 21.5693C18.4616 20.6911 17.6715 19.2657 17.6715 17.6585C17.6715 14.9961 19.8375 12.83 22.5 12.83C25.1625 12.83 27.3285 14.9961 27.3285 17.6585C27.3285 19.2657 26.5384 20.6911 25.3271 21.5693C28.5349 22.7297 30.8336 25.8057 30.8336 29.4089ZM22.4977 21.0753H22.5023C24.3852 21.074 25.9168 19.5418 25.9168 17.6585C25.9168 15.7745 24.3841 14.2418 22.5001 14.2418C20.6161 14.2418 19.0834 15.7745 19.0834 17.6585C19.0833 19.5418 20.6149 21.074 22.4977 21.0753ZM29.3861 28.703C29.0314 25.2173 26.0794 22.4879 22.5017 22.487H22.4981C18.9205 22.4879 15.9684 25.2172 15.6137 28.703H29.3861Z" fill="#8B0FD9" stroke="white" stroke-width="2" mask="url(#path-1-inside-1_2731_5556)"/>
</svg>
