<svg width="49" height="49" viewBox="0 0 49 49" fill="none" xmlns="http://www.w3.org/2000/svg">
<path d="M19.733 47H11.5339C6.26842 47 2 42.7316 2 37.4661V11.5339C2 6.26845 6.26842 2.00003 11.5339 2.00003H37.4661C42.7316 2.00003 47 6.26845 47 11.5339V21.0678" stroke="#4A148C" stroke-width="4" stroke-miterlimit="10" stroke-linecap="round" stroke-linejoin="round"/>
<path d="M20.4002 13.4409C20.4002 15.5471 18.6929 17.2544 16.5867 17.2544C14.4805 17.2544 12.7732 15.5471 12.7732 13.4409C12.7732 11.3347 14.4805 9.62735 16.5867 9.62735C18.6929 9.62735 20.4002 11.3347 20.4002 13.4409Z" stroke="#4A148C" stroke-width="4" stroke-miterlimit="10" stroke-linecap="round" stroke-linejoin="round"/>
<path d="M27.5508 18.5889H39.3727" stroke="#4A148C" stroke-width="4" stroke-miterlimit="10" stroke-linecap="round" stroke-linejoin="round"/>
<path d="M11.3433 31.9365H25.2626" stroke="#4A148C" stroke-width="4" stroke-miterlimit="10" stroke-linecap="round" stroke-linejoin="round"/>
<path d="M11.3433 38.6099H17.6356" stroke="#4A148C" stroke-width="4" stroke-miterlimit="10" stroke-linecap="round" stroke-linejoin="round"/>
<path d="M45.5198 28.8403C47.4931 30.8136 47.4931 34.013 45.5198 35.9862L38.8358 42.6702C37.1766 44.3294 35.0634 45.4602 32.7624 45.9201L27.3601 47L28.44 41.5977C28.8999 39.2967 30.0307 37.1835 31.6899 35.5243L38.3739 28.8403C40.3472 26.867 43.5465 26.867 45.5198 28.8403Z" stroke="#4A148C" stroke-width="4" stroke-miterlimit="10" stroke-linecap="round" stroke-linejoin="round"/>
<path d="M27.5508 11.915H39.3727" stroke="#4A148C" stroke-width="4" stroke-miterlimit="10" stroke-linecap="round" stroke-linejoin="round"/>
<path d="M21.6398 24.8813C20.4729 23.8193 18.911 23.1653 17.1922 23.1653H15.9815C14.2626 23.1653 12.7008 23.8193 11.5339 24.8813" stroke="#4A148C" stroke-width="4" stroke-miterlimit="10" stroke-linecap="round" stroke-linejoin="round"/>
</svg>
