<svg width="49" height="46" viewBox="0 0 49 46" fill="none" xmlns="http://www.w3.org/2000/svg">
<path d="M12.142 24.0564H15.756C16.0658 24.0564 16.3192 23.8236 16.3192 23.5392V20.2116C16.3192 19.9271 16.0658 19.6943 15.756 19.6943H12.142C11.8323 19.6943 11.5788 19.9271 11.5788 20.2116V23.5392C11.5788 23.8236 11.8323 24.0564 12.142 24.0564ZM12.7052 20.7288H15.1928V23.0219H12.7052V20.7288ZM18.8537 24.0564H22.4677C22.7775 24.0564 23.0309 23.8236 23.0309 23.5392V20.2116C23.0309 19.9271 22.7775 19.6943 22.4677 19.6943H18.8537C18.5439 19.6943 18.2905 19.9271 18.2905 20.2116V23.5392C18.2905 23.8236 18.5439 24.0564 18.8537 24.0564ZM19.4169 20.7288H21.9045V23.0219H19.4169V20.7288ZM25.6593 24.0564H29.2733C29.583 24.0564 29.8365 23.8236 29.8365 23.5392V20.2116C29.8365 19.9271 29.583 19.6943 29.2733 19.6943H25.6593C25.3495 19.6943 25.0961 19.9271 25.0961 20.2116V23.5392C25.0961 23.8236 25.3495 24.0564 25.6593 24.0564ZM26.2225 20.7288H28.71V23.0219H26.2225V20.7288ZM32.2959 24.0564H35.9098C36.2196 24.0564 36.4731 23.8236 36.4731 23.5392V20.2116C36.4731 19.9271 36.2196 19.6943 35.9098 19.6943H32.2959C31.9861 19.6943 31.7326 19.9271 31.7326 20.2116V23.5392C31.7326 23.8236 31.9861 24.0564 32.2959 24.0564ZM32.8591 20.7288H35.3466V23.0219H32.8591V20.7288ZM5.61808 30.3667H9.23207C9.54184 30.3667 9.79529 30.134 9.79529 29.8495V26.5305C9.79529 26.2461 9.54184 26.0133 9.23207 26.0133H5.61808C5.30831 26.0133 5.05486 26.2461 5.05486 26.5305V29.8495C5.05486 30.134 5.30831 30.3667 5.61808 30.3667ZM6.1813 27.0478H8.66885V29.3323H6.1813V27.0478ZM12.4236 26.0133C12.1139 26.0133 11.8604 26.2461 11.8604 26.5305V29.8495C11.851 30.134 12.0951 30.3581 12.4049 30.3667H16.0376C16.3474 30.3667 16.6008 30.134 16.6008 29.8495V26.5305C16.6008 26.2461 16.3474 26.0133 16.0376 26.0133H12.4236ZM15.4744 29.3323H12.9869V27.0478H15.4744V29.3323ZM19.1259 26.0133C18.8162 26.0133 18.5627 26.2461 18.5627 26.5305V29.8495C18.5627 30.134 18.8162 30.3667 19.1259 30.3667H22.7399C23.0497 30.3754 23.2938 30.1512 23.3031 29.8667V26.5305C23.3031 26.2461 23.0497 26.0133 22.7399 26.0133H19.1259ZM22.1767 29.3323H19.6892V27.0478H22.1767V29.3323ZM5.38341 36.6857H8.99739C9.30716 36.6943 9.55123 36.4702 9.56061 36.1857V32.8495C9.56061 32.565 9.30716 32.3323 8.99739 32.3323H5.38341C5.07364 32.3323 4.82019 32.565 4.82019 32.8495V36.1685C4.82019 36.453 5.07364 36.6857 5.38341 36.6857ZM5.94663 33.3667H8.43418V35.6512H5.94663V33.3667ZM15.8029 32.3323H12.189C11.8792 32.3323 11.6257 32.565 11.6257 32.8495V36.1685C11.6257 36.453 11.8792 36.6857 12.189 36.6857H15.8029C16.1127 36.6857 16.3662 36.453 16.3662 36.1685V32.8495C16.3662 32.565 16.1127 32.3323 15.8029 32.3323ZM15.2397 35.6512H12.7522V33.3667H15.2397V35.6512ZM22.5146 32.3323H18.9007C18.5909 32.3323 18.3374 32.565 18.3374 32.8495V36.1685C18.3374 36.453 18.5909 36.6857 18.9007 36.6857H22.5146C22.8244 36.6857 23.0779 36.453 23.0779 36.1685V32.8495C23.0779 32.565 22.8244 32.3323 22.5146 32.3323ZM21.9514 35.6512H19.4639V33.3667H21.9514V35.6512ZM25.9315 26.0133C25.6217 26.0133 25.3683 26.2461 25.3683 26.5305V29.8495C25.3683 30.134 25.6217 30.3667 25.9315 30.3667H29.5455C29.8552 30.3667 30.1087 30.134 30.1087 29.8495V26.5305C30.1087 26.2461 29.8552 26.0133 29.5455 26.0133H25.9315ZM28.9823 29.3323H26.4947V27.0478H28.9823V29.3323ZM32.5681 26.0133C32.2583 26.0133 32.0049 26.2461 32.0049 26.5305V29.8495C32.0049 30.134 32.2583 30.3667 32.5681 30.3667H36.1821C36.4918 30.3754 36.7359 30.1512 36.7453 29.8667V26.5305C36.7453 26.2461 36.4918 26.0133 36.1821 26.0133H32.5681ZM35.6189 29.3323H33.1313V27.0478H35.6189V29.3323Z" fill="#666666"/>
<path d="M48.8263 9.42685C48.9108 9.21996 48.8451 8.9872 48.6574 8.84927L37.8999 0.797544C37.7966 0.719957 37.684 0.685475 37.5526 0.676854L23.6786 0.487199C23.4346 0.478578 23.2187 0.616509 23.1342 0.823406C23.0968 0.9263 23.0938 1.03713 23.1255 1.14161C23.1573 1.24609 23.2225 1.33943 23.3125 1.40961L26.6637 3.91823L24.8238 8.54754C24.7488 8.72858 24.7957 8.94409 24.9459 9.08203C25.1055 9.24582 25.2838 9.40099 25.4528 9.55616H20.656V8.54754C20.656 8.26306 20.4026 8.0303 20.0928 8.0303C19.783 8.0303 19.5296 8.26306 19.5296 8.54754V9.55616H13.7284V8.56479C13.7378 8.2803 13.4938 8.05616 13.184 8.04754H13.1652C12.8555 8.04754 12.602 8.2803 12.602 8.56479V9.55616H7.08247V8.59065C7.08247 8.30616 6.82902 8.07341 6.51925 8.07341C6.20948 8.07341 5.95603 8.30616 5.95603 8.59065V9.55616H0.136108V38.9527C0.136108 39.2372 0.389557 39.47 0.699327 39.47H24.4014C24.8802 43.2113 28.5786 45.8838 32.6526 45.4355C36.0601 45.0648 38.7447 42.5993 39.1484 39.47H40.5564C40.8662 39.47 41.1196 39.2372 41.1196 38.9527V17.1682C41.1572 17.3493 41.298 17.4958 41.4857 17.5562L47.6999 19.6338C47.7562 19.6596 47.8219 19.6682 47.8876 19.6682C48.0191 19.6682 48.1411 19.6251 48.2444 19.5562C48.3945 19.4355 48.4696 19.2631 48.4509 19.082L47.5591 12.6251L48.8263 9.42685ZM25.2838 1.54754L37.3367 1.71134L46.6861 8.71134L43.8512 8.67685L42.5746 8.65961L34.6238 8.54754L28.466 3.93547L27.0673 2.88375L25.2838 1.54754ZM25.9972 8.59927L27.5836 4.60789L34.07 9.46134C34.1639 9.53892 34.2859 9.57341 34.4173 9.57341L42.2461 9.68547L41.1196 12.5303L40.6503 13.7027C40.4344 13.72 40.2091 13.72 39.9932 13.7286C37.5995 13.7631 35.2246 13.3838 32.9811 12.6251C31.4417 12.1165 29.9773 11.4355 28.6256 10.5906C28.1093 10.2631 27.6118 9.91823 27.133 9.55616C26.7388 9.24582 26.3633 8.92685 25.9972 8.59927ZM27.0204 13.3579C27.3302 13.3579 27.5836 13.1251 27.5836 12.8406V12.3234C28.1281 12.6079 28.3158 13.2458 28.006 13.7458C27.6963 14.2458 27.0016 14.4182 26.4572 14.1338C25.9127 13.8493 25.725 13.2113 26.0348 12.7113C26.138 12.5475 26.2788 12.4182 26.4572 12.3234V12.8406C26.4572 13.1251 26.7106 13.3579 27.0204 13.3579ZM27.5836 11.22V11.1769L27.6775 11.2458L27.5836 11.22ZM1.26255 10.5906H5.95603V11.22C4.7545 11.5044 4.02232 12.6338 4.34147 13.7372C4.66063 14.8406 5.88094 15.5131 7.08247 15.2286C8.284 14.9441 9.01619 13.8148 8.69703 12.7113C8.49051 11.9786 7.87098 11.4096 7.08247 11.2286V10.5993H12.602V11.1941C11.3911 11.4786 10.6589 12.6165 10.9781 13.72C11.2878 14.832 12.5269 15.5044 13.7284 15.2113C14.93 14.9182 15.6716 13.7889 15.3524 12.6855C15.1459 11.9527 14.5263 11.3751 13.7284 11.1941V10.5993H19.5296V11.1855C18.3281 11.47 17.5959 12.5993 17.915 13.7027C18.2342 14.8062 19.4545 15.4786 20.656 15.1855C21.8576 14.8924 22.5898 13.7717 22.2706 12.6682C22.0641 11.9355 21.4445 11.3665 20.656 11.1855V10.5993H26.4572V11.2286C25.2556 11.5131 24.5235 12.6424 24.8426 13.7458C25.1618 14.8493 26.3821 15.5217 27.5836 15.2286C28.5786 14.9958 29.2733 14.1682 29.2733 13.2286C29.2733 12.7372 29.0855 12.2544 28.7382 11.8838C29.9585 12.5734 31.2539 13.151 32.5963 13.5993C34.8491 14.3579 37.224 14.7544 39.6271 14.7631H39.9932V16.7027H1.26255V10.5906ZM6.51925 13.3579C6.82902 13.3579 7.08247 13.1251 7.08247 12.8406V12.3234C7.62691 12.6079 7.81465 13.2458 7.50488 13.7458C7.19511 14.2458 6.50048 14.4182 5.95603 14.1338C5.41159 13.8493 5.22385 13.2113 5.53362 12.7113C5.63688 12.5475 5.77768 12.4182 5.95603 12.3234V12.8406C5.95603 13.1251 6.20948 13.3579 6.51925 13.3579ZM13.1652 13.3234C13.475 13.332 13.7191 13.1079 13.7284 12.8234V12.2975C14.2635 12.582 14.4512 13.22 14.1415 13.7113C13.8317 14.2027 13.1371 14.3751 12.602 14.0906C12.067 13.8062 11.8792 13.1682 12.189 12.6769C12.2922 12.5217 12.433 12.3924 12.602 12.2975V12.8062C12.602 13.0906 12.8555 13.3234 13.1652 13.3234ZM20.0928 13.3148C20.4026 13.3148 20.656 13.082 20.656 12.7975V12.2803C21.1911 12.5648 21.3788 13.2027 21.0691 13.6941C20.7593 14.1855 20.0647 14.3579 19.5296 14.0734C18.9945 13.7889 18.8068 13.151 19.1166 12.6596C19.2198 12.5044 19.3606 12.3751 19.5296 12.2803V12.7975C19.5296 13.082 19.783 13.3148 20.0928 13.3148ZM31.7702 44.4527C28.635 44.4441 25.9784 42.3234 25.5373 39.47C25.4997 39.2027 25.4715 38.9355 25.4715 38.6682C25.4715 38.5906 25.4715 38.5131 25.4809 38.4355C25.6124 35.2458 28.5411 32.7544 32.0143 32.8751C35.2997 32.9958 37.9375 35.4096 38.0689 38.4355V38.6682C38.0689 38.9355 38.0501 39.2027 38.0125 39.47C37.5714 42.3234 34.9148 44.4527 31.7702 44.4527ZM39.9932 38.4355H39.1953C39.0451 34.6682 35.6095 31.7286 31.5074 31.8665C27.6118 31.9958 24.4859 34.8665 24.3545 38.4355H1.26255V17.7372H39.9932V38.4355ZM41.298 16.6855C41.1947 16.7717 41.129 16.901 41.1196 17.0303V14.7113C41.3261 14.6855 41.5045 14.5562 41.5796 14.3751L43.4382 9.70272L47.5028 9.76306L46.4984 12.2717L41.298 16.6855ZM42.7342 16.8751L46.5641 13.6338L47.2118 18.3751L42.7342 16.8751Z" fill="#666666"/>
<path d="M36.6703 38.2199L29.2921 34.3148C29.1137 34.2199 28.9072 34.2199 28.7289 34.3148C28.5505 34.4096 28.4473 34.582 28.4473 34.763V42.582C28.4473 42.763 28.5599 42.9355 28.7289 43.0303C28.8134 43.0734 28.9166 43.0993 29.0105 43.0993C29.1137 43.0993 29.2076 43.0734 29.2921 43.0303L36.6703 39.1165C36.8486 39.0217 36.9519 38.8579 36.9519 38.6682C36.9519 38.4872 36.8486 38.3148 36.6703 38.2199ZM29.5737 41.6855V35.651L35.2622 38.6682L29.5737 41.6855Z" fill="#666666"/>
</svg>
