<svg width="52" height="46" viewBox="0 0 52 46" fill="none" xmlns="http://www.w3.org/2000/svg">
<g clip-path="url(#clip0_2731_8177)">
<path d="M12.8853 24.0564H16.7206C17.0493 24.0564 17.3183 23.8236 17.3183 23.5392V20.2116C17.3183 19.9271 17.0493 19.6943 16.7206 19.6943H12.8853C12.5566 19.6943 12.2876 19.9271 12.2876 20.2116V23.5392C12.2876 23.8236 12.5566 24.0564 12.8853 24.0564ZM13.4831 20.7288H16.1229V23.0219H13.4831V20.7288ZM20.008 24.0564H23.8432C24.1719 24.0564 24.4409 23.8236 24.4409 23.5392V20.2116C24.4409 19.9271 24.1719 19.6943 23.8432 19.6943H20.008C19.6792 19.6943 19.4103 19.9271 19.4103 20.2116V23.5392C19.4103 23.8236 19.6792 24.0564 20.008 24.0564ZM20.6057 20.7288H23.2455V23.0219H20.6057V20.7288ZM27.2302 24.0564H31.0654C31.3942 24.0564 31.6631 23.8236 31.6631 23.5392V20.2116C31.6631 19.9271 31.3942 19.6943 31.0654 19.6943H27.2302C26.9014 19.6943 26.6325 19.9271 26.6325 20.2116V23.5392C26.6325 23.8236 26.9014 24.0564 27.2302 24.0564ZM27.8279 20.7288H30.4677V23.0219H27.8279V20.7288ZM34.2731 24.0564H38.1083C38.4371 24.0564 38.706 23.8236 38.706 23.5392V20.2116C38.706 19.9271 38.4371 19.6943 38.1083 19.6943H34.2731C33.9444 19.6943 33.6754 19.9271 33.6754 20.2116V23.5392C33.6754 23.8236 33.9444 24.0564 34.2731 24.0564ZM34.8708 20.7288H37.5106V23.0219H34.8708V20.7288ZM5.96198 30.3667H9.79723C10.126 30.3667 10.3949 30.134 10.3949 29.8495V26.5305C10.3949 26.2461 10.126 26.0133 9.79723 26.0133H5.96198C5.63324 26.0133 5.36428 26.2461 5.36428 26.5305V29.8495C5.36428 30.134 5.63324 30.3667 5.96198 30.3667ZM6.55968 27.0478H9.19953V29.3323H6.55968V27.0478ZM13.1842 26.0133C12.8555 26.0133 12.5865 26.2461 12.5865 26.5305V29.8495C12.5765 30.134 12.8355 30.3581 13.1643 30.3667H17.0194C17.3482 30.3667 17.6172 30.134 17.6172 29.8495V26.5305C17.6172 26.2461 17.3482 26.0133 17.0194 26.0133H13.1842ZM16.4217 29.3323H13.7819V27.0478H16.4217V29.3323ZM20.2968 26.0133C19.9681 26.0133 19.6991 26.2461 19.6991 26.5305V29.8495C19.6991 30.134 19.9681 30.3667 20.2968 30.3667H24.1321C24.4608 30.3754 24.7198 30.1512 24.7298 29.8667V26.5305C24.7298 26.2461 24.4608 26.0133 24.1321 26.0133H20.2968ZM23.5344 29.3323H20.8945V27.0478H23.5344V29.3323ZM5.71294 36.6857H9.54818C9.87692 36.6943 10.1359 36.4702 10.1459 36.1857V32.8495C10.1459 32.565 9.87692 32.3323 9.54818 32.3323H5.71294C5.3842 32.3323 5.11523 32.565 5.11523 32.8495V36.1685C5.11523 36.453 5.3842 36.6857 5.71294 36.6857ZM6.31064 33.3667H8.95048V35.6512H6.31064V33.3667ZM16.7704 32.3323H12.9352C12.6064 32.3323 12.3375 32.565 12.3375 32.8495V36.1685C12.3375 36.453 12.6064 36.6857 12.9352 36.6857H16.7704C17.0991 36.6857 17.3681 36.453 17.3681 36.1685V32.8495C17.3681 32.565 17.0991 32.3323 16.7704 32.3323ZM16.1727 35.6512H13.5329V33.3667H16.1727V35.6512ZM23.893 32.3323H20.0578C19.729 32.3323 19.4601 32.565 19.4601 32.8495V36.1685C19.4601 36.453 19.729 36.6857 20.0578 36.6857H23.893C24.2217 36.6857 24.4907 36.453 24.4907 36.1685V32.8495C24.4907 32.565 24.2217 32.3323 23.893 32.3323ZM23.2953 35.6512H20.6555V33.3667H23.2953V35.6512ZM27.5191 26.0133C27.1903 26.0133 26.9214 26.2461 26.9214 26.5305V29.8495C26.9214 30.134 27.1903 30.3667 27.5191 30.3667H31.3543C31.6831 30.3667 31.952 30.134 31.952 29.8495V26.5305C31.952 26.2461 31.6831 26.0133 31.3543 26.0133H27.5191ZM30.7566 29.3323H28.1168V27.0478H30.7566V29.3323ZM34.562 26.0133C34.2332 26.0133 33.9643 26.2461 33.9643 26.5305V29.8495C33.9643 30.134 34.2332 30.3667 34.562 30.3667H38.3972C38.726 30.3754 38.985 30.1512 38.9949 29.8667V26.5305C38.9949 26.2461 38.726 26.0133 38.3972 26.0133H34.562ZM37.7995 29.3323H35.1597V27.0478H37.7995V29.3323Z" fill="white"/>
<path d="M51.8158 9.42685C51.9055 9.21996 51.8357 8.9872 51.6365 8.84927L40.2204 0.797544C40.1108 0.719957 39.9913 0.685475 39.8518 0.676854L25.1284 0.487199C24.8694 0.478578 24.6403 0.616509 24.5507 0.823406C24.511 0.9263 24.5078 1.03713 24.5415 1.14161C24.5752 1.24609 24.6443 1.33943 24.7399 1.40961L28.2963 3.91823L26.3438 8.54754C26.2641 8.72858 26.3139 8.94409 26.4733 9.08203C26.6426 9.24582 26.8319 9.40099 27.0112 9.55616H21.9208V8.54754C21.9208 8.26306 21.6518 8.0303 21.3231 8.0303C20.9943 8.0303 20.7254 8.26306 20.7254 8.54754V9.55616H14.5691V8.56479C14.579 8.2803 14.32 8.05616 13.9913 8.04754H13.9714C13.6426 8.04754 13.3737 8.2803 13.3737 8.56479V9.55616H7.51618V8.59065C7.51618 8.30616 7.24721 8.07341 6.91848 8.07341C6.58974 8.07341 6.32078 8.30616 6.32078 8.59065V9.55616H0.144531V38.9527C0.144531 39.2372 0.413497 39.47 0.742232 39.47H25.8955C26.4035 43.2113 30.3284 45.8838 34.6518 45.4355C38.2679 45.0648 41.1169 42.5993 41.5453 39.47H43.0396C43.3683 39.47 43.6373 39.2372 43.6373 38.9527V17.1682C43.6771 17.3493 43.8265 17.4958 44.0258 17.5562L50.6204 19.6338C50.6802 19.6596 50.7499 19.6682 50.8196 19.6682C50.9591 19.6682 51.0886 19.6251 51.1982 19.5562C51.3576 19.4355 51.4373 19.2631 51.4173 19.082L50.471 12.6251L51.8158 9.42685ZM26.8319 1.54754L39.6227 1.71134L49.5445 8.71134L46.5361 8.67685L45.1813 8.65961L36.7438 8.54754L30.2089 3.93547L28.7246 2.88375L26.8319 1.54754ZM27.589 8.59927L29.2725 4.60789L36.156 9.46134C36.2556 9.53892 36.3851 9.57341 36.5246 9.57341L44.8327 9.68547L43.6373 12.5303L43.1392 13.7027C42.91 13.72 42.671 13.72 42.4419 13.7286C39.9016 13.7631 37.3813 13.3838 35.0005 12.6251C33.3668 12.1165 31.8127 11.4355 30.3782 10.5906C29.8304 10.2631 29.3024 9.91823 28.7943 9.55616C28.3759 9.24582 27.9775 8.92685 27.589 8.59927ZM28.6748 13.3579C29.0035 13.3579 29.2725 13.1251 29.2725 12.8406V12.3234C29.8503 12.6079 30.0495 13.2458 29.7208 13.7458C29.392 14.2458 28.6549 14.4182 28.0771 14.1338C27.4993 13.8493 27.3001 13.2113 27.6288 12.7113C27.7384 12.5475 27.8878 12.4182 28.0771 12.3234V12.8406C28.0771 13.1251 28.3461 13.3579 28.6748 13.3579ZM29.2725 11.22V11.1769L29.3721 11.2458L29.2725 11.22ZM1.33993 10.5906H6.32078V11.22C5.04568 11.5044 4.26867 12.6338 4.60737 13.7372C4.94606 14.8406 6.24108 15.5131 7.51618 15.2286C8.79128 14.9441 9.56829 13.8148 9.22959 12.7113C9.01043 11.9786 8.35296 11.4096 7.51618 11.2286V10.5993H13.3737V11.1941C12.0886 11.4786 11.3116 12.6165 11.6503 13.72C11.979 14.832 13.294 15.5044 14.5691 15.2113C15.8441 14.9182 16.6311 13.7889 16.2924 12.6855C16.0733 11.9527 15.4158 11.3751 14.5691 11.1941V10.5993H20.7254V11.1855C19.4503 11.47 18.6733 12.5993 19.012 13.7027C19.3507 14.8062 20.6457 15.4786 21.9208 15.1855C23.1959 14.8924 23.9729 13.7717 23.6342 12.6682C23.415 11.9355 22.7576 11.3665 21.9208 11.1855V10.5993H28.0771V11.2286C26.802 11.5131 26.025 12.6424 26.3637 13.7458C26.7024 14.8493 27.9974 15.5217 29.2725 15.2286C30.3284 14.9958 31.0656 14.1682 31.0656 13.2286C31.0656 12.7372 30.8664 12.2544 30.4978 11.8838C31.7928 12.5734 33.1675 13.151 34.592 13.5993C36.9828 14.3579 39.5032 14.7544 42.0533 14.7631H42.4419V16.7027H1.33993V10.5906ZM6.91848 13.3579C7.24721 13.3579 7.51618 13.1251 7.51618 12.8406V12.3234C8.09396 12.6079 8.29319 13.2458 7.96446 13.7458C7.63572 14.2458 6.89855 14.4182 6.32078 14.1338C5.743 13.8493 5.54377 13.2113 5.8725 12.7113C5.98208 12.5475 6.1315 12.4182 6.32078 12.3234V12.8406C6.32078 13.1251 6.58974 13.3579 6.91848 13.3579ZM13.9714 13.3234C14.3001 13.332 14.5591 13.1079 14.5691 12.8234V12.2975C15.1369 12.582 15.3361 13.22 15.0074 13.7113C14.6786 14.2027 13.9415 14.3751 13.3737 14.0906C12.8058 13.8062 12.6066 13.1682 12.9353 12.6769C13.0449 12.5217 13.1943 12.3924 13.3737 12.2975V12.8062C13.3737 13.0906 13.6426 13.3234 13.9714 13.3234ZM21.3231 13.3148C21.6518 13.3148 21.9208 13.082 21.9208 12.7975V12.2803C22.4886 12.5648 22.6878 13.2027 22.3591 13.6941C22.0304 14.1855 21.2932 14.3579 20.7254 14.0734C20.1576 13.7889 19.9583 13.151 20.2871 12.6596C20.3966 12.5044 20.5461 12.3751 20.7254 12.2803V12.7975C20.7254 13.082 20.9943 13.3148 21.3231 13.3148ZM33.7154 44.4527C30.3882 44.4441 27.5691 42.3234 27.1009 39.47C27.061 39.2027 27.0311 38.9355 27.0311 38.6682C27.0311 38.5906 27.0311 38.5131 27.0411 38.4355C27.1805 35.2458 30.2886 32.7544 33.9744 32.8751C37.461 32.9958 40.2602 35.4096 40.3997 38.4355V38.6682C40.3997 38.9355 40.3798 39.2027 40.3399 39.47C39.8717 42.3234 37.0526 44.4527 33.7154 44.4527ZM42.4419 38.4355H41.5951C41.4357 34.6682 37.7897 31.7286 33.4365 31.8665C29.3024 31.9958 25.9851 34.8665 25.8457 38.4355H1.33993V17.7372H42.4419V38.4355ZM43.8265 16.6855C43.7169 16.7717 43.6472 16.901 43.6373 17.0303V14.7113C43.8564 14.6855 44.0457 14.5562 44.1254 14.3751L46.0978 9.70272L50.4112 9.76306L49.3453 12.2717L43.8265 16.6855ZM45.3507 16.8751L49.415 13.6338L50.1024 18.3751L45.3507 16.8751Z" fill="white"/>
<path d="M38.9159 38.2199L31.086 34.3148C30.8967 34.2199 30.6776 34.2199 30.4883 34.3148C30.299 34.4096 30.1895 34.582 30.1895 34.763V42.582C30.1895 42.763 30.309 42.9355 30.4883 43.0303C30.578 43.0734 30.6875 43.0993 30.7872 43.0993C30.8967 43.0993 30.9963 43.0734 31.086 43.0303L38.9159 39.1165C39.1052 39.0217 39.2147 38.8579 39.2147 38.6682C39.2147 38.4872 39.1052 38.3148 38.9159 38.2199ZM31.3849 41.6855V35.651L37.4216 38.6682L31.3849 41.6855Z" fill="white"/>
</g>
<defs>
<clipPath id="clip0_2731_8177">
<rect width="52" height="45" fill="white" transform="translate(0 0.487305)"/>
</clipPath>
</defs>
</svg>
