<svg width="41" height="38" viewBox="0 0 41 38" fill="none" xmlns="http://www.w3.org/2000/svg">
<path d="M36.8169 18.552L36.9461 18.3136C37.7756 16.7839 38.4255 15.2515 38.8755 13.7471L38.8755 13.7471C40.2892 9.0234 39.5697 5.20775 37.0437 2.87114L37.0437 2.87111C34.5028 0.520217 30.3363 -0.151212 25.2 1.16466L25.1999 1.16468C23.5668 1.58274 21.905 2.18648 20.2479 2.95527L20.0374 3.05294L19.8269 2.9552C17.7648 1.99774 15.7068 1.30045 13.7313 0.899724L36.8169 18.552ZM36.8169 18.552L36.9462 18.7903M36.8169 18.552L36.9462 18.7903M36.9462 18.7903C37.979 20.6939 38.7296 22.5913 39.1604 24.4092C40.1617 28.6361 39.357 32.0837 37.0437 34.2235L37.0437 34.2235C35.3661 35.7756 32.9869 36.5947 30.0787 36.5947C28.5784 36.5947 26.9422 36.3763 25.2001 35.9299L25.2 35.9299C23.5682 35.5121 21.9076 34.9092 20.2519 34.141L20.0411 34.0432L19.8305 34.1412C17.0768 35.4224 14.3619 36.2206 11.8356 36.4903C11.2047 36.5575 10.5948 36.5907 10.007 36.5907C7.07811 36.5907 4.70954 35.7675 3.04099 34.2236L3.04096 34.2236C1.55104 32.8452 0.671273 30.8964 0.523202 28.5573C0.389734 26.4465 0.851756 23.9931 1.88331 21.439L2.02909 21.0781L1.71492 20.8482C0.965631 20.3001 0.500001 19.4666 0.500001 18.5473C0.500001 17.628 0.965627 16.7946 1.71498 16.2464L2.02917 16.0166L1.88339 15.6557C0.851838 13.1015 0.389886 10.6484 0.523282 8.53743L0.523283 8.53742C0.671052 6.19825 1.55109 4.24943 3.04095 2.87112L3.04099 2.87109M36.9462 18.7903L3.04099 2.87109M3.04099 2.87109C5.36643 0.719328 9.12997 -0.0332413 13.7313 0.899715L3.04099 2.87109ZM25.076 36.4143C23.4115 35.9881 21.722 35.3743 20.0414 34.5946C17.2474 35.8945 14.4793 36.7109 11.8886 36.9874C11.2412 37.0565 10.6135 37.0907 10.007 37.0907C6.98555 37.0907 4.48423 36.2403 2.70141 34.5906C1.10489 33.1136 0.179253 31.0382 0.024198 28.5888L25.076 36.4143ZM25.076 36.4143C26.8524 36.8694 28.5305 37.0947 30.0787 37.0947M25.076 36.4143L30.0787 37.0947M30.7806 6.94574C30.4103 6.81433 30.0145 6.74581 29.6127 6.74595H29.6125C28.8539 6.74595 28.1597 6.98714 27.6112 7.38546L27.3071 7.6063L27.0104 7.37558C25.1047 5.89347 23.1086 4.61553 21.0964 3.57715L20.1574 3.09262L21.1275 2.67378C22.5091 2.07723 23.8951 1.5959 25.2658 1.24502C30.1348 -0.0022838 34.3073 0.516537 36.8909 2.9068C39.4907 5.31208 40.0557 9.21224 38.6996 13.7433C38.3186 15.0169 37.7965 16.3037 37.1497 17.5853L36.742 18.3929L36.2751 17.6181C35.1551 15.76 33.7755 13.9152 32.1743 12.1532L31.879 11.8284L32.163 11.4936C32.5891 10.9911 32.8384 10.3666 32.8384 9.69329C32.8384 9.19091 32.704 8.70908 32.4419 8.27568L32.3153 8.36675C32.5421 8.77129 32.6619 9.22256 32.6619 9.69329C32.6619 11.3061 31.257 12.5519 29.6126 12.5519C27.9682 12.5519 26.5632 11.3061 26.5632 9.69329C26.5632 8.08065 27.9679 6.83488 29.6122 6.83466C29.6123 6.83466 29.6124 6.83466 29.6126 6.83466V7.33466L30.7806 6.94574ZM30.7806 6.94574L30.7257 7.03121L30.7806 6.94574ZM3.19385 2.90684C0.238399 5.64081 -0.0772972 10.2686 1.99347 15.4901L2.1681 15.9304L2.61722 15.7798C2.97196 15.6608 3.34725 15.5998 3.72597 15.6H3.72636C4.0377 15.5999 4.3472 15.6406 4.64548 15.7207L4.98081 15.8107L5.18232 15.528C6.64755 13.4721 8.39386 11.4999 10.3808 9.66162C13.0608 7.18245 15.9958 5.11561 18.9834 3.57412L19.9209 3.0904L18.9529 2.67099C15.8034 1.30637 12.725 0.585284 10.0084 0.589715C7.29245 0.594145 4.90307 1.32553 3.19385 2.90684ZM3.19385 2.90684L3.53338 3.27388L3.19385 2.90684ZM30.0787 37.0947C33.0792 37.0947 35.5913 36.2485 37.3833 34.5906L30.0787 37.0947ZM10.0375 36.4984H10.5375V36.4903C13.1068 36.4091 15.9859 35.7057 18.95 34.4223L19.9183 34.003L18.9807 33.5191C15.994 31.9776 13.0598 29.9113 10.3807 27.433C8.39315 25.5942 6.64624 23.6214 5.18105 21.5648L4.9788 21.2809L4.64248 21.3725C3.97791 21.5534 3.26764 21.533 2.61713 21.3149L2.16803 21.1643L1.9934 21.6046C-0.0777035 26.8263 0.238341 31.4538 3.19351 34.1879L3.19356 34.1879C4.89256 35.7594 7.29163 36.4984 10.0375 36.4984ZM19.8204 33.8208L20.0391 33.9271L20.2578 33.8206C21.0881 33.4165 21.9234 32.9675 22.7591 32.474L23.1718 32.2303L22.9458 31.8077C22.731 31.4061 22.6206 30.9663 22.621 30.5223L22.621 30.5216C22.6208 30.1525 22.6967 29.7869 22.8443 29.4438L22.989 29.5235C22.8632 29.8405 22.7977 30.1785 22.7977 30.5217C22.7977 32.1345 24.2027 33.3804 25.8472 33.3804C27.4915 33.3804 28.8965 32.1345 28.8965 30.5217C28.8965 28.9093 27.4916 27.6632 25.8472 27.6632L25.8469 27.6632C25.333 27.6634 24.8364 27.7812 24.3907 28.0091L24.3197 27.9248C24.7841 27.6953 25.3026 27.5747 25.8472 27.5747C26.6496 27.5747 27.3798 27.844 27.9421 28.2841L28.2665 28.538L28.5778 28.2681C28.9071 27.9826 29.2332 27.691 29.5508 27.3975L29.5511 27.3973C32.434 24.7294 34.8036 21.7853 36.5012 18.7944L36.6415 18.5473L36.501 18.3003C35.3427 16.2649 33.8527 14.21 32.0518 12.2228L31.7719 11.914L31.4177 12.1337C30.9038 12.4525 30.2835 12.6404 29.6125 12.6404C27.7968 12.6404 26.3863 11.2819 26.3863 9.69337L26.3863 9.69272C26.3856 9.11967 26.5694 8.55579 26.9198 8.0731L27.2044 7.68115L26.8217 7.38429C24.6749 5.71898 22.4566 4.342 20.2607 3.2726L20.042 3.16613L19.8233 3.2724C16.597 4.83973 13.4172 7.02965 10.5337 9.69736C8.59733 11.4889 6.88685 13.4113 5.44241 15.4184L5.13429 15.8465L5.5783 16.1313C5.86159 16.313 6.11243 16.5362 6.32069 16.7945L6.18689 16.8566C5.61288 16.1195 4.70243 15.6887 3.72618 15.6887C2.08181 15.6887 0.676774 16.9345 0.676774 18.5473C0.676774 20.1601 2.08171 21.406 3.7261 21.406C5.28443 21.406 6.62782 20.2871 6.76413 18.7974L6.94174 18.7828C6.86419 19.6715 6.35075 20.4616 5.57542 20.9596L5.13205 21.2444L5.43974 21.6722C6.88455 23.6811 8.59601 25.6044 10.5336 27.3972L10.5337 27.3972C13.4165 30.0642 16.5951 32.2535 19.8204 33.8208ZM21.0987 33.5188L20.1619 34.0036L21.1303 34.4219C22.5112 35.0183 23.896 35.4989 25.2657 35.8498L25.3897 35.3654L25.2657 35.8498C30.1346 37.0968 34.3072 36.5784 36.8907 34.1878C40.3304 31.0054 40.0868 25.3091 37.1529 19.513L36.745 18.7071L36.2786 19.4806C34.6151 22.2398 32.3836 24.9532 29.7035 27.4331C29.3718 27.7398 29.0346 28.0413 28.6921 28.3377L28.3581 28.6267L28.6036 28.9938C28.9126 29.456 29.0738 29.985 29.0733 30.5215V30.522C29.0733 32.1107 27.6627 33.4691 25.8471 33.4691C24.9338 33.4691 24.1143 33.1206 23.5299 32.5689L23.2558 32.3102L22.9316 32.5024C22.3318 32.858 21.7206 33.197 21.0987 33.5188Z" fill="white" stroke="white"/>
<path d="M27.975 24.1717V24.6717H28.475H29.1907L29.1907 24.7601H19.2085V24.6717H24.0037H24.5037V24.1717V23.1839H24.6802V24.1717V24.6717H25.1802H27.2982H27.7982V24.1717V21.429C27.7982 20.4723 27.1237 19.6597 26.2025 19.3912L26.2303 19.2998C27.2814 19.5852 27.975 20.4741 27.975 21.429V24.1717Z" fill="white" stroke="white"/>
<path d="M22.1146 18.3236L21.8353 18.2507L21.6325 18.4561C21.2348 18.8588 20.6644 19.0998 20.0425 19.0998C19.4205 19.0998 18.8503 18.859 18.4521 18.4562L18.2494 18.2511L17.9703 18.3239L13.9459 19.3739L13.9458 19.3739C12.9922 19.6228 12.2864 20.4506 12.2864 21.4292V24.1719V24.6719H12.7864H14.9045H15.4045V24.1719V23.1841H15.581V24.1719V24.6719H16.081H17.0322V24.7603H10.894V24.6719H11.6097H12.1097V24.1719V21.4292C12.1097 20.4669 12.8141 19.5715 13.879 19.2935C13.879 19.2935 13.8791 19.2935 13.8791 19.2935L17.8545 18.2563L18.2283 18.1588V17.7725V16.3269V16.0511L17.9951 15.904C17.0353 15.2983 16.4241 14.294 16.4241 13.1769V11.5802C16.4241 9.79146 18.0105 8.27002 20.0425 8.27002C22.0746 8.27002 23.6608 9.79145 23.6608 11.5801V13.1769C23.6608 14.294 23.0496 15.2983 22.0897 15.904L21.8566 16.0511V16.3269V17.7725V18.1588L22.2303 18.2563L24.1299 18.7519L24.1022 18.8426L22.1146 18.3236ZM22.5968 12.5031L23.484 13.5887V12.1867V11.5805C23.484 9.76766 21.9031 8.35873 20.0425 8.35873C18.5692 8.35873 17.2856 9.23381 16.8025 10.4942L16.5423 11.1732H17.2694H21.5101L22.5968 12.5031ZM17.1009 11.2619H16.6009V11.7619V13.1769C16.6009 14.9895 18.1818 16.3984 20.0425 16.3984C21.6109 16.3984 22.9681 15.4051 23.3671 14.0095L23.439 13.7581L23.2735 13.5556L21.5489 11.4455L21.3989 11.2619H21.1618H17.1009ZM18.4052 18.0087V18.1961L18.5283 18.3373C18.904 18.7682 19.4584 19.0111 20.0425 19.0111C20.6267 19.0111 21.1806 18.7681 21.5564 18.3376L21.6798 18.1963V18.0087V16.8379V16.1866L21.0505 16.3549C20.3922 16.5311 19.6927 16.5311 19.0344 16.3549L18.4052 16.1866V16.8379V18.0087Z" fill="white" stroke="white"/>
<path d="M22.839 20.677L22.8115 20.7674L22.1227 20.5877L22.1502 20.4973L22.839 20.677ZM24.9386 21.2232L25.1026 21.266L25.075 21.3564L24.911 21.3136L24.9386 21.2232ZM29.5244 9.73771L29.5244 9.64893H29.7008V9.73771H29.5244ZM25.759 30.4777H25.9354V30.5661H25.759V30.4777ZM3.6377 18.5029H3.81455V18.5914H3.6377V18.5029Z" fill="white" stroke="white"/>
</svg>
