<svg width="52" height="46" viewBox="0 0 52 46" fill="none" xmlns="http://www.w3.org/2000/svg">
<g clip-path="url(#clip0_2731_7333)">
<path d="M51.1875 13.4541V0.797852H36.5625V7.12598H33.3125V0.797852H18.6875V7.12598H15.4375V0.797852H0.8125V13.4541H15.4375V8.53223H18.6875V12.6082C15.8243 13.6714 13.8125 16.1344 13.8125 18.9975C13.8181 19.9101 14.0304 20.8128 14.4373 21.6546C14.0325 22.131 13.8137 22.7066 13.8125 23.2979C13.8125 24.8489 15.2701 26.1104 17.0625 26.1104H17.3469C17.5783 26.6733 17.9448 27.1874 18.4221 27.6191C18.8995 28.0507 19.477 28.3901 20.1167 28.6149L19.7096 29.6717C13.1698 30.3143 8.125 35.1589 8.125 40.9013V44.3916H34.125V35.2299C39.4842 34.9451 44.0578 31.8556 45.6552 27.3626L46.2418 25.7117L47.3818 24.2323C47.7449 23.7622 47.9383 23.2094 47.9375 22.6439C47.9375 21.5998 47.281 20.6935 46.3125 20.1936V16.9697C46.3125 15.8068 45.2189 14.8604 43.875 14.8604C42.5311 14.8604 41.4375 15.8068 41.4375 16.9697V19.1206C40.0579 19.3175 39 20.3489 39 21.597C39 21.8677 39.0504 22.1356 39.1503 22.3936L39.7637 23.9869C39.0745 25.6392 37.8131 27.0673 36.1516 28.0765C34.49 29.0857 32.5092 29.6268 30.4793 29.626H27.3983L27.0083 28.6149C27.6481 28.3902 28.2256 28.0508 28.703 27.6192C29.1804 27.1875 29.5468 26.6733 29.7781 26.1104H30.0625C31.8549 26.1104 33.3125 24.8489 33.3125 23.2979C33.3125 22.6826 33.0769 22.1173 32.6877 21.6539C33.0949 20.8124 33.3072 19.9099 33.3125 18.9975C33.3125 16.7328 32.0483 14.7239 30.1056 13.4541H33.3125V8.53223H36.5625V13.4541H51.1875ZM13.8125 12.0479H2.4375V2.2041H13.8125V12.0479ZM15.4375 23.2979C15.4375 22.5223 16.1663 21.8916 17.0625 21.8916V24.7041C16.1663 24.7041 15.4375 24.0734 15.4375 23.2979ZM27.1497 31.0322H27.2439L26.4794 34.0107L25.2452 33.5839L25.2387 33.5979L24.7114 33.1416L27.1497 31.0322ZM24.5822 35.0182L23.8249 36.6572H23.3001L22.5428 35.0182L23.5625 34.1358L24.5822 35.0182ZM23.4016 38.0635H23.7226L24.9868 42.9854H22.1382L23.4016 38.0635ZM21.8863 33.5979L21.8798 33.5839L20.6456 34.0107L19.8924 31.08C19.9339 31.0758 19.9745 31.0709 20.0159 31.0674L22.4136 33.1416L21.8863 33.5979ZM9.75 40.9013C9.75 36.3535 13.3656 32.4525 18.2926 31.3311L19.8404 37.3568L21.2924 36.1004L21.9017 37.4194L20.4734 42.9854H14.625V35.9541H13V42.9854H9.75V40.9013ZM43.875 16.2666C44.0905 16.2666 44.2972 16.3407 44.4495 16.4725C44.6019 16.6044 44.6875 16.7832 44.6875 16.9697V19.5312C44.2917 19.2409 43.7902 19.0808 43.2713 19.0791H43.0625V16.9697C43.0625 16.7832 43.1481 16.6044 43.3005 16.4725C43.4528 16.3407 43.6595 16.2666 43.875 16.2666ZM41.9096 20.4854H43.2713C43.4151 20.4849 43.5543 20.5289 43.6639 20.6094C43.7735 20.6899 43.8464 20.8017 43.8693 20.9245C43.8922 21.0473 43.8637 21.1732 43.789 21.2794C43.7142 21.3857 43.598 21.4654 43.4614 21.5042L41.9924 21.9282L42.5068 23.2613L43.9757 22.8373C44.3487 22.7294 44.6819 22.5379 44.9414 22.2822C45.2009 22.0265 45.3774 21.7158 45.4529 21.3818C45.6551 21.4789 45.8317 21.6113 45.9718 21.7705C46.1118 21.9297 46.2121 22.1124 46.2663 22.3069C46.3205 22.5014 46.3275 22.7035 46.2868 22.9005C46.2461 23.0975 46.1585 23.285 46.0298 23.4511L45.1677 24.5698L41.2669 23.4448L40.6908 21.9479C40.6268 21.7808 40.6095 21.6029 40.6403 21.429C40.6712 21.255 40.7493 21.0898 40.8683 20.9471C40.9873 20.8043 41.1437 20.688 41.3247 20.6077C41.5057 20.5275 41.7062 20.4855 41.9096 20.4854ZM41.1125 24.8827L44.4901 25.8572L44.1017 26.9492C43.3998 28.95 41.971 30.7017 40.0273 31.9439C38.0836 33.1861 35.7288 33.8527 33.3125 33.8447H32.5V42.9854H26.6516L25.2224 37.4194L25.8318 36.1004L27.2838 37.3568L28.9088 31.0322H30.4793C32.7562 31.0338 34.9824 30.4502 36.8755 29.3554C38.7685 28.2606 40.2432 26.7038 41.1125 24.8827ZM25.883 30.1393L23.5625 32.1474L21.242 30.1393L21.7141 28.913C21.7888 28.9158 21.8619 28.9229 21.9375 28.9229H25.1875C25.2631 28.9229 25.3362 28.9158 25.4109 28.913L25.883 30.1393ZM28.4375 24.7041C28.4375 26.2552 26.9799 27.5166 25.1875 27.5166H21.9375C20.1451 27.5166 18.6875 26.2552 18.6875 24.7041V20.9107C18.6875 19.6901 19.3204 18.5482 20.4002 17.7861C22.5315 18.6355 24.8496 19.0766 27.196 19.0791C27.5251 19.0795 27.8407 19.1928 28.0734 19.3942C28.3061 19.5956 28.4371 19.8686 28.4375 20.1535V24.7041ZM30.0625 24.7041V21.8916C30.9587 21.8916 31.6875 22.5223 31.6875 23.2979C31.6875 24.0734 30.9587 24.7041 30.0625 24.7041ZM31.6875 18.9975C31.6875 19.5832 31.5705 20.1668 31.3601 20.723C30.9513 20.5667 30.5094 20.4858 30.0625 20.4854V20.1535C30.0616 19.4958 29.7594 18.8653 29.222 18.4002C28.6846 17.9352 27.956 17.6736 27.196 17.6729C24.9446 17.6729 22.6899 17.2123 20.6765 16.3404L20.2548 16.1576L19.8624 16.384C19.0714 16.8408 18.411 17.4474 17.9313 18.1579C17.4515 18.8684 17.165 19.6641 17.0934 20.4846H17.0625C16.6157 20.4852 16.1739 20.5659 15.7649 20.7216C15.5514 20.1655 15.4409 19.5836 15.4375 18.9975C15.4375 15.9411 18.3113 13.4541 21.8433 13.4541H25.2817C28.8137 13.4541 31.6875 15.9411 31.6875 18.9975ZM31.6875 12.0479H20.3125V2.2041H31.6875V12.0479ZM38.1875 2.2041H49.5625V12.0479H38.1875V2.2041Z" fill="white"/>
<path d="M39.8125 3.61035H47.9375V5.0166H39.8125V3.61035ZM39.8125 6.42285H47.9375V7.8291H39.8125V6.42285ZM39.8125 9.23535H47.9375V10.6416H39.8125V9.23535ZM4.0625 3.61035H12.1875V5.0166H4.0625V3.61035ZM4.0625 6.42285H12.1875V7.8291H4.0625V6.42285ZM4.0625 9.23535H12.1875V10.6416H4.0625V9.23535ZM21.9375 3.61035H30.0625V5.0166H21.9375V3.61035ZM21.9375 6.42285H30.0625V7.8291H21.9375V6.42285ZM21.9375 9.23535H30.0625V10.6416H21.9375V9.23535Z" fill="white"/>
</g>
<defs>
<clipPath id="clip0_2731_7333">
<rect width="52" height="45" fill="white" transform="translate(0 0.0947266)"/>
</clipPath>
</defs>
</svg>
