<svg width="35" height="35" viewBox="0 0 35 35" fill="none" xmlns="http://www.w3.org/2000/svg">
<path d="M17.0875 25.75C17.0875 30.3063 13.4862 34 9.04375 34C4.60132 34 1 30.3063 1 25.75C1 21.1937 4.60132 17.5 9.04375 17.5C13.4862 17.5 17.0875 21.1937 17.0875 25.75Z" stroke="#4A148C" stroke-width="1.5" stroke-miterlimit="10" stroke-linecap="round" stroke-linejoin="round"/>
<path d="M8.8374 34H31.5249C32.664 34 33.5874 33.0804 33.5874 31.9461V7.84668L26.7127 0.999998H10.8999C9.76085 0.999998 8.8374 1.91962 8.8374 3.05394V17.5685" stroke="#4A148C" stroke-width="1.5" stroke-miterlimit="10" stroke-linecap="round" stroke-linejoin="round"/>
<path d="M26.5747 0.999951V8.01245H33.5872L26.5747 0.999951Z" stroke="#4A148C" stroke-width="1.5" stroke-miterlimit="10" stroke-linecap="round" stroke-linejoin="round"/>
<path d="M14.6123 19.5625H28.6373" stroke="#4A148C" stroke-width="1.5" stroke-miterlimit="10" stroke-linecap="round" stroke-linejoin="round"/>
<path d="M13.7876 13.375H28.6376" stroke="#4A148C" stroke-width="1.5" stroke-miterlimit="10" stroke-linecap="round" stroke-linejoin="round"/>
<path d="M17.0874 25.75H28.6374" stroke="#4A148C" stroke-width="1.5" stroke-miterlimit="10" stroke-linecap="round" stroke-linejoin="round"/>
<path d="M8.8374 21.625V25.75H11.7249" stroke="#4A148C" stroke-width="1.5" stroke-miterlimit="10" stroke-linecap="round" stroke-linejoin="round"/>
</svg>
