<svg width="47" height="42" viewBox="0 0 47 42" fill="none" xmlns="http://www.w3.org/2000/svg">
<path d="M46 12.7362C45.685 7.57989 42.1424 2.96604 36.8812 1.53335C30.2758 -0.265372 23.4629 3.63113 21.6642 10.2365C20.884 13.1015 21.1758 16.0053 22.2949 18.5224H22.2948L20.0785 23.0748H25.7551C27.1065 24.1801 28.6824 24.9948 30.3672 25.4537C35.6375 26.8888 41.0397 24.6982 43.9219 20.399M38.5229 7.84957L28.8533 19.345M10.4939 3.45699L3.46875 11.6587H7.3335V23.1885H13.6542V11.6587H17.519L10.4939 3.45699Z" stroke="white" stroke-width="1.5" stroke-miterlimit="10" stroke-linecap="round" stroke-linejoin="round"/>
<path d="M29.9728 12.2384C31.284 12.2384 32.3469 11.1852 32.3469 9.88605C32.3469 8.58688 31.284 7.53369 29.9728 7.53369C28.6616 7.53369 27.5986 8.58688 27.5986 9.88605C27.5986 11.1852 28.6616 12.2384 29.9728 12.2384Z" stroke="white" stroke-width="1.5" stroke-miterlimit="10" stroke-linecap="round" stroke-linejoin="round"/>
<path d="M37.2296 19.7023C38.5408 19.7023 39.6037 18.6491 39.6037 17.3499C39.6037 16.0507 38.5408 14.9976 37.2296 14.9976C35.9184 14.9976 34.8555 16.0507 34.8555 17.3499C34.8555 18.6491 35.9184 19.7023 37.2296 19.7023Z" stroke="white" stroke-width="1.5" stroke-miterlimit="10" stroke-linecap="round" stroke-linejoin="round"/>
<path d="M11.3528 40.4869H2.37595C1.61605 40.4869 1 39.8709 1 39.111V37.5737C1 36.8138 1.61605 36.1978 2.37595 36.1978H11.3529C12.1128 36.1978 12.7289 36.8138 12.7289 37.5737V39.111C12.7288 39.871 12.1127 40.4869 11.3528 40.4869Z" stroke="white" stroke-width="1.5" stroke-miterlimit="10" stroke-linecap="round" stroke-linejoin="round"/>
<path d="M23.0229 40.4869H14.1045C13.3446 40.4869 12.7285 39.8709 12.7285 39.111V37.5737C12.7285 36.8138 13.3446 36.1978 14.1045 36.1978H23.0229C23.7828 36.1978 24.3988 36.8138 24.3988 37.5737V39.111C24.3988 39.871 23.7828 40.4869 23.0229 40.4869Z" stroke="white" stroke-width="1.5" stroke-miterlimit="10" stroke-linecap="round" stroke-linejoin="round"/>
<path d="M34.6932 40.4874H25.7748C25.0149 40.4874 24.3989 39.8714 24.3989 39.1115V37.5742C24.3989 36.8143 25.0149 36.1983 25.7748 36.1983H34.6932C35.4531 36.1983 36.0692 36.8143 36.0692 37.5742V39.1115C36.0691 39.8715 35.4531 40.4874 34.6932 40.4874ZM11.3528 36.1984H2.37595C1.61605 36.1984 1 35.5823 1 34.8224V33.2851C1 32.5252 1.61605 31.9092 2.37595 31.9092H11.3529C12.1128 31.9092 12.7289 32.5252 12.7289 33.2851V34.8224C12.7288 35.5824 12.1127 36.1984 11.3528 36.1984Z" stroke="white" stroke-width="1.5" stroke-miterlimit="10" stroke-linecap="round" stroke-linejoin="round"/>
<path d="M23.0229 36.1984H14.1045C13.3446 36.1984 12.7285 35.5823 12.7285 34.8224V33.2851C12.7285 32.5252 13.3446 31.9092 14.1045 31.9092H23.0229C23.7828 31.9092 24.3988 32.5252 24.3988 33.2851V34.8224C24.3988 35.5824 23.7828 36.1984 23.0229 36.1984Z" stroke="white" stroke-width="1.5" stroke-miterlimit="10" stroke-linecap="round" stroke-linejoin="round"/>
<path d="M23.0229 31.9088H14.1045C13.3446 31.9088 12.7285 31.2928 12.7285 30.5329V28.9956C12.7285 28.2357 13.3446 27.6196 14.1045 27.6196H23.0229C23.7828 27.6196 24.3988 28.2357 24.3988 28.9956V30.5329C24.3988 31.2928 23.7828 31.9088 23.0229 31.9088Z" stroke="white" stroke-width="1.5" stroke-miterlimit="10" stroke-linecap="round" stroke-linejoin="round"/>
</svg>
