<svg width="163" height="163" viewBox="0 0 163 163" fill="none" xmlns="http://www.w3.org/2000/svg"><path d="M157.172 71.0626C157.172 70.3705 156.897 69.7068 156.408 69.2174 155.918 68.7281 155.255 68.4532 154.563 68.4532H133.688C132.995 68.4532 132.332 68.7281 131.842 69.2174 131.353 69.7068 131.078 70.3705 131.078 71.0626V157.172H120.641V110.203C120.641 109.511 120.366 108.847 119.876 108.358 119.387 107.869 118.723 107.594 118.031 107.594H97.1563C96.4642 107.594 95.8005 107.869 95.3111 108.358 94.8218 108.847 94.5469 109.511 94.5469 110.203V157.172H84.1094V138.906C84.1094 138.214 83.8345 137.551 83.3451 137.061 82.8558 136.572 82.1921 136.297 81.5 136.297H60.625C59.933 136.297 59.2692 136.572 58.7799 137.061 58.2905 137.551 58.0156 138.214 58.0156 138.906V157.172H52.7969V162.391H162.391V157.172H157.172V71.0626zM78.8906 157.172H63.2344V141.516H78.8906V157.172zM115.422 157.172H99.7656V112.813H115.422V157.172zM151.953 157.172H136.297V73.6719H151.953V157.172zM150.08 29.5109 157.023 33.6493C157.429 33.8914 157.893 34.0188 158.365 34.0178 158.838 34.0168 159.301 33.8875 159.706 33.6437 160.111 33.3999 160.442 33.0508 160.664 32.6336 160.886 32.2164 160.99 31.7467 160.966 31.2748L159.531 3.09355C159.509 2.66468 159.382 2.24781 159.16 1.87992 158.939 1.51203 158.63 1.20449 158.261.984582 157.892.764672 157.475.639189 157.046.619265 156.617.599342 156.19.685592 155.802.870367L130.332 13.0301C129.906 13.2337 129.543 13.549 129.282 13.9425 129.022 14.3359 128.872 14.7928 128.851 15.2643 128.829 15.7359 128.936 16.2045 129.159 16.6203 129.383 17.036 129.715 17.3833 130.12 17.6252L136.847 21.6332C125.547 39.3867 112.618 56.0498 98.2287 71.407L84.1381 56.5492C82.9067 55.2329 81.3522 54.2618 79.6291 53.7326 77.906 53.2034 76.0744 53.1345 74.3164 53.5328L67.0336 55.1219 67.198 49.2717 73.4605 47.3877C76.1064 46.5796 78.3232 44.7542 79.6239 42.3125L85.8864 30.6251C86.1451 30.1426 86.2456 29.5909 86.1735 29.0481 86.1014 28.5053 85.8603 27.999 85.4845 27.6008L80.1092 21.9098C79.8489 21.6343 79.5317 21.4188 79.1796 21.2783 78.8276 21.1378 78.4491 21.0757 78.0707 21.0963 77.6922 21.1169 77.3227 21.2198 76.988 21.3976 76.6533 21.5755 76.3614 21.8242 76.1325 22.1263L68.08 32.7674 62.9891 29.1612C61.8487 28.3613 60.5603 27.7967 59.1991 27.5006 57.838 27.2044 56.4315 27.1826 55.0618 27.4364 56.5206 25.6112 57.3283 23.3512 57.3567 21.0148 57.3851 18.6784 56.6327 16.3994 55.2187 14.5392 53.8046 12.6791 51.8101 11.3443 49.5512 10.7466 47.2924 10.1488 44.8987 10.3224 42.7497 11.2397 40.6007 12.157 38.8195 13.7656 37.6886 15.8102 36.5577 17.8549 36.1419 20.2186 36.507 22.5264 36.8721 24.8343 37.9974 26.9542 39.7042 28.5499 41.4111 30.1456 43.6018 31.1257 45.929 31.3348L45.6681 31.4549C42.597 32.8844 40.0733 35.2726 38.4766 38.2601L28.848 56.2648C28.6863 56.5672 28.5857 56.8984 28.552 57.2397 28.5184 57.5809 28.5524 57.9255 28.652 58.2536 28.7516 58.5818 28.9149 58.887 29.1325 59.152 29.3502 59.417 29.6179 59.6365 29.9205 59.7979L37.2006 63.6859C37.7938 64.0027 38.4864 64.0784 39.1339 63.8971 39.7815 63.7157 40.334 63.2914 40.6763 62.7126L46.6544 52.6091 49.0603 68.0044C49.369 69.3491 50.0308 70.5871 50.9775 71.5907 51.9243 72.5943 53.1216 73.3271 54.446 73.7137L59.1429 86.4422 58.741 100.679C58.7254 101.28 58.9175 101.867 59.285 102.343 59.6525 102.818 60.1728 103.152 60.7581 103.288L63.3048 103.881C49.6108 114.935 35.0731 124.901 19.8248 133.688L1.91407 144C1.51702 144.229 1.18738 144.559.958334 144.956.729291 145.353.608933 145.804.60938 146.262V157.955C.608474 158.413.728384 158.864.957035 159.261 1.18569 159.659 1.51501 159.989 1.91183 160.218 2.30866 160.448 2.75899 160.569 3.21747 160.569 3.67594 160.569 4.12639 160.449 4.52344 160.22L28.8141 146.33C78.2573 117.995 119.918 77.8615 150.08 29.5109zM43.1109 24.587C42.41 23.8466 41.9413 22.9172 41.7626 21.9135 41.584 20.9098 41.7033 19.8757 42.1057 18.939 42.5081 18.0023 43.1761 17.204 44.0271 16.6427 44.8782 16.0813 45.875 15.7815 46.8945 15.7803H47.0563C47.914 15.8041 48.7526 16.039 49.4979 16.4641 50.2432 16.8893 50.8721 17.4917 51.329 18.218 51.786 18.9442 52.0568 19.772 52.1175 20.6278 52.1782 21.4837 52.0269 22.3414 51.6771 23.1249 51.3272 23.9084 50.7896 24.5935 50.1118 25.1196 49.434 25.6458 48.6369 25.9966 47.7912 26.1412 46.9454 26.2858 46.077 26.2196 45.2629 25.9485 44.4488 25.6774 43.7142 25.2098 43.1239 24.587H43.1109zM57.4337 68.7141C57.1293 68.8085 56.809 68.8413 56.4918 68.8107 55.9655 68.7984 55.4569 68.6184 55.0401 68.2968 54.6234 67.9753 54.3201 67.5291 54.1746 67.0232L50.6781 44.6061C50.595 44.075 50.3499 43.5825 49.9762 43.1959 49.6026 42.8094 49.1187 42.5477 48.5907 42.4466 48.0627 42.3455 47.5164 42.41 47.0264 42.6312 46.5364 42.8524 46.1267 43.2195 45.8533 43.6824L37.4459 57.893 34.6722 56.4109 43.0665 40.7129C44.1258 38.7286 45.8006 37.1417 47.8391 36.1909L54.7565 32.9657C55.5913 32.5805 56.5125 32.4209 57.4282 32.5028 58.3439 32.5848 59.2222 32.9054 59.9753 33.4328L67.125 38.4976C67.6781 38.8889 68.3618 39.0497 69.0314 38.946 69.701 38.8422 70.304 38.4821 70.7128 37.9418L78.434 27.7469 80.3988 29.8344 75.0183 39.8779C74.6987 40.4809 74.2635 41.0151 73.7374 41.4498 73.2113 41.8845 72.6047 42.2114 71.9523 42.4116L63.8893 44.8383C63.3652 44.9969 62.9043 45.3163 62.5718 45.7514 62.2393 46.1865 62.0521 46.7151 62.0367 47.2624L61.7209 58.3236C61.7094 58.7198 61.7883 59.1134 61.9516 59.4745 62.1149 59.8357 62.3584 60.1548 62.6635 60.4079 62.9685 60.6609 63.3273 60.8411 63.7124 60.9348 64.0975 61.0285 64.4989 61.0332 64.8861 60.9486L75.4645 58.6419C76.3375 58.444 77.2471 58.4786 78.1024 58.7424 78.9578 59.0061 79.7289 59.4898 80.3388 60.1449L94.6356 75.2062C93.6832 76.1926 92.7412 77.1894 91.7783 78.1627L77.0041 64.1999C76.6694 63.8836 76.2571 63.6615 75.8089 63.5561 75.3607 63.4507 74.8926 63.4657 74.4521 63.5997L57.4337 68.7141zM75.3628 81.7062 71.0625 70.0605 74.533 69.0168 88.073 81.8027C83.5501 86.2474 78.9002 90.5633 74.1233 94.7505L75.5193 82.9169C75.563 82.5101 75.5094 82.0987 75.3628 81.7166V81.7062zM59.8918 73.4214 66.0447 71.5636 70.2484 82.9274 68.2757 99.677 63.9989 98.688 64.3564 86.0795C64.3665 85.747 64.3125 85.4157 64.1972 85.1036L59.8918 73.4214zM26.2126 141.787 5.82813 153.456V147.778L22.429 138.225C71.4164 109.959 112.714 70.0966 142.695 22.1394 142.879 21.8447 143.002 21.5163 143.058 21.1733 143.113 20.8304 143.099 20.4799 143.017 20.1423 142.936 19.8047 142.787 19.4869 142.581 19.2074 142.374 18.928 142.114 18.6926 141.816 18.515L136.981 15.6446 154.518 7.26855 155.505 26.6771 150.547 23.7207C149.957 23.3698 149.253 23.2654 148.587 23.43 147.92 23.5945 147.346 24.0149 146.987 24.6 117.187 73.1702 75.6566 113.471 26.2126 141.798V141.787z" fill="#dd5d00"/><path d="M10.0605 84.566 25.2158 70.2249 28.8037 74.0163 13.6484 88.3574 10.0605 84.566zM28.3966 88.7645 41.6575 76.216 45.2454 80.0074 31.9845 92.5559 28.3966 88.7645z" fill="#08a935"/></svg>