<svg width="99" height="107" viewBox="0 0 99 107" fill="none" xmlns="http://www.w3.org/2000/svg"><path d="M33.0057 32.3636V44H30.5455V34.6989H30.4773L27.8125 36.3693V34.1875L30.6932 32.3636H33.0057zM40.3338 44.2557C39.3565 44.2519 38.5156 44.0114 37.8111 43.5341 37.1103 43.0568 36.5705 42.3655 36.1918 41.4602 35.8168 40.5549 35.6312 39.4659 35.6349 38.1932 35.6349 36.9242 35.8224 35.8428 36.1974 34.9489 36.5762 34.0549 37.116 33.375 37.8168 32.9091 38.5213 32.4394 39.3603 32.2045 40.3338 32.2045 41.3073 32.2045 42.1444 32.4394 42.8452 32.9091 43.5497 33.3788 44.0914 34.0606 44.4702 34.9545 44.849 35.8447 45.0365 36.9242 45.0327 38.1932 45.0327 39.4697 44.8433 40.5606 44.4645 41.4659 44.0895 42.3712 43.5516 43.0625 42.8509 43.5398 42.1501 44.017 41.3111 44.2557 40.3338 44.2557zM40.3338 42.2159C41.0005 42.2159 41.5327 41.8807 41.9304 41.2102 42.3281 40.5398 42.5251 39.5341 42.5213 38.1932 42.5213 37.3106 42.4304 36.5758 42.2486 35.9886 42.0705 35.4015 41.8168 34.9602 41.4872 34.6648 41.1615 34.3693 40.777 34.2216 40.3338 34.2216 39.6709 34.2216 39.1406 34.553 38.7429 35.2159 38.3452 35.8788 38.1444 36.8712 38.1406 38.1932 38.1406 39.0871 38.2296 39.8333 38.4077 40.4318 38.5895 41.0265 38.8452 41.4735 39.1747 41.7727 39.5043 42.0682 39.8906 42.2159 40.3338 42.2159zM51.3494 44.2557C50.3722 44.2519 49.5313 44.0114 48.8267 43.5341 48.1259 43.0568 47.5862 42.3655 47.2074 41.4602 46.8324 40.5549 46.6468 39.4659 46.6506 38.1932 46.6506 36.9242 46.8381 35.8428 47.2131 34.9489 47.5919 34.0549 48.1316 33.375 48.8324 32.9091 49.5369 32.4394 50.3759 32.2045 51.3494 32.2045 52.3229 32.2045 53.16 32.4394 53.8608 32.9091 54.5653 33.3788 55.107 34.0606 55.4858 34.9545 55.8646 35.8447 56.0521 36.9242 56.0483 38.1932 56.0483 39.4697 55.8589 40.5606 55.4801 41.4659 55.1051 42.3712 54.5672 43.0625 53.8665 43.5398 53.1657 44.017 52.3267 44.2557 51.3494 44.2557zM51.3494 42.2159C52.0161 42.2159 52.5483 41.8807 52.946 41.2102 53.3438 40.5398 53.5407 39.5341 53.5369 38.1932 53.5369 37.3106 53.446 36.5758 53.2642 35.9886 53.0862 35.4015 52.8324 34.9602 52.5028 34.6648 52.1771 34.3693 51.7926 34.2216 51.3494 34.2216 50.6866 34.2216 50.1563 34.553 49.7585 35.2159 49.3608 35.8788 49.16 36.8712 49.1562 38.1932 49.1562 39.0871 49.2453 39.8333 49.4233 40.4318 49.6051 41.0265 49.8608 41.4735 50.1903 41.7727 50.5199 42.0682 50.9062 42.2159 51.3494 42.2159zM64.1719 41.8182V41.2045C64.1719 40.7386 64.2704 40.3106 64.4673 39.9205 64.6681 39.5265 64.9579 39.2121 65.3366 38.9773 65.7192 38.7386 66.1851 38.6193 66.7344 38.6193 67.2912 38.6193 67.759 38.7367 68.1378 38.9716 68.5204 39.2064 68.8082 39.5208 69.0014 39.9148 69.1984 40.3049 69.2969 40.7348 69.2969 41.2045V41.8182C69.2969 42.2841 69.1984 42.714 69.0014 43.108 68.8045 43.4981 68.5147 43.8106 68.1321 44.0455 67.7495 44.2841 67.2836 44.4034 66.7344 44.4034 66.1776 44.4034 65.7098 44.2841 65.331 44.0455 64.9522 43.8106 64.6643 43.4981 64.4673 43.108 64.2704 42.714 64.1719 42.2841 64.1719 41.8182zM65.8253 41.2045V41.8182C65.8253 42.0871 65.8897 42.3409 66.0185 42.5795 66.151 42.8182 66.3897 42.9375 66.7344 42.9375 67.0791 42.9375 67.3139 42.8201 67.4389 42.5852 67.5677 42.3504 67.6321 42.0947 67.6321 41.8182V41.2045C67.6321 40.928 67.5715 40.6705 67.4503 40.4318 67.3291 40.1932 67.0904 40.0739 66.7344 40.0739 66.3935 40.0739 66.1567 40.1932 66.0241 40.4318 65.8916 40.6705 65.8253 40.928 65.8253 41.2045zM58.2003 35.1591V34.5455C58.2003 34.0758 58.3007 33.6458 58.5014 33.2557 58.7022 32.8617 58.992 32.5473 59.3707 32.3125 59.7533 32.0777 60.2154 31.9602 60.7571 31.9602 61.3177 31.9602 61.7874 32.0777 62.1662 32.3125 62.545 32.5473 62.8329 32.8617 63.0298 33.2557 63.2268 33.6458 63.3253 34.0758 63.3253 34.5455V35.1591C63.3253 35.6288 63.2249 36.0587 63.0241 36.4489 62.8272 36.839 62.5374 37.1515 62.1548 37.3864 61.776 37.6174 61.3101 37.733 60.7571 37.733 60.2041 37.733 59.7363 37.6155 59.3537 37.3807 58.9749 37.142 58.687 36.8295 58.4901 36.4432 58.2969 36.053 58.2003 35.625 58.2003 35.1591zM59.8651 34.5455V35.1591C59.8651 35.4356 59.9295 35.6913 60.0582 35.9261 60.1908 36.161 60.4238 36.2784 60.7571 36.2784 61.1056 36.2784 61.3423 36.161 61.4673 35.9261 61.5961 35.6913 61.6605 35.4356 61.6605 35.1591V34.5455C61.6605 34.2689 61.5999 34.0114 61.4787 33.7727 61.3575 33.5341 61.117 33.4148 60.7571 33.4148 60.42 33.4148 60.187 33.536 60.0582 33.7784 59.9295 34.0208 59.8651 34.2765 59.8651 34.5455zM58.9503 44 66.9503 32.3636H68.4389L60.4389 44H58.9503z" fill="#08a935"/><path d="M6.53764 89.6172C6.49124 89.183 6.29569 88.8449 5.95099 88.603 5.60961 88.361 5.16548 88.2401 4.61861 88.2401 4.23414 88.2401 3.90436 88.2981 3.62926 88.4141 3.35417 88.5301 3.1437 88.6875 2.99787 88.8864 2.85204 89.0852 2.77746 89.3123 2.77415 89.5675 2.77415 89.7796 2.82221 89.9635 2.91832 90.1193 3.01776 90.2751 3.15199 90.4077 3.32102 90.517 3.49006 90.6231 3.67732 90.7126 3.88281 90.7855 4.08831 90.8584 4.29545 90.9197 4.50426 90.9695L5.45881 91.2081C5.84328 91.2976 6.21283 91.4186 6.56747 91.571 6.92543 91.7235 7.24527 91.9157 7.52699 92.1477 7.81203 92.3797 8.03741 92.6598 8.20312 92.9879 8.36884 93.3161 8.4517 93.7005 8.4517 94.1413 8.4517 94.7379 8.29924 95.2633 7.99432 95.7173 7.68939 96.1681 7.24858 96.5211 6.67188 96.7763 6.09848 97.0282 5.40412 97.1541 4.58878 97.1541 3.79664 97.1541 3.1089 97.0315 2.52557 96.7862 1.94555 96.541 1.49148 96.183 1.16335 95.7124.838542 95.2417.662879 94.6683.636364 93.9922H2.45099C2.47751 94.3468 2.58688 94.6418 2.77912 94.8771 2.97135 95.1125 3.22159 95.2881 3.52983 95.4041 3.84138 95.5201 4.18939 95.5781 4.57386 95.5781 4.97491 95.5781 5.32623 95.5185 5.62784 95.3991 5.93277 95.2765 6.1714 95.1075 6.34375 94.892 6.5161 94.6733 6.60393 94.4181 6.60724 94.1264 6.60393 93.8613 6.52604 93.6425 6.37358 93.4702 6.22112 93.2945 6.00734 93.1487 5.73224 93.0327 5.46046 92.9134 5.14228 92.8073 4.7777 92.7145L3.61932 92.4162C2.78078 92.2008 2.1179 91.8743 1.63068 91.4368 1.14678 90.996.90483 90.411.90483 89.6818.90483 89.0819 1.06723 88.5566 1.39205 88.1058 1.72017 87.6551 2.16596 87.3054 2.7294 87.0568 3.29285 86.8049 3.93087 86.679 4.64347 86.679 5.366 86.679 5.99905 86.8049 6.54261 87.0568 7.08949 87.3054 7.5187 87.6518 7.83026 88.0959 8.14181 88.5367 8.30256 89.0438 8.3125 89.6172H6.53764zM14.8837 93.7884V89.3636H16.6834V97H14.9384V95.6428H14.8588C14.6865 96.0703 14.4031 96.42 14.0087 96.6918 13.6176 96.9635 13.1354 97.0994 12.562 97.0994 12.0615 97.0994 11.619 96.9884 11.2346 96.7663 10.8534 96.541 10.5551 96.2145 10.3397 95.7869 10.1242 95.3561 10.0165 94.8357 10.0165 94.2259V89.3636H11.8162V93.9474C11.8162 94.4313 11.9488 94.8158 12.214 95.1009 12.4791 95.3859 12.8271 95.5284 13.258 95.5284 13.5231 95.5284 13.78 95.4638 14.0286 95.3345 14.2772 95.2053 14.481 95.013 14.6401 94.7578 14.8025 94.4993 14.8837 94.1761 14.8837 93.7884zM21.8651 97.1491C21.1027 97.1491 20.4482 96.9818 19.9013 96.647 19.3577 96.3123 18.9384 95.8499 18.6435 95.2599 18.3518 94.6667 18.206 93.9839 18.206 93.2116 18.206 92.4361 18.3551 91.7517 18.6534 91.1584 18.9517 90.5618 19.3726 90.0978 19.9162 89.7663 20.4631 89.4316 21.1094 89.2642 21.8551 89.2642 22.4749 89.2642 23.0234 89.3786 23.5007 89.6072 23.9813 89.8326 24.3641 90.1525 24.6491 90.5668 24.9342 90.9777 25.0966 91.4583 25.1364 92.0085H23.4162C23.3466 91.6406 23.1809 91.334 22.919 91.0888 22.6605 90.8402 22.3142 90.7159 21.88 90.7159 21.5121 90.7159 21.1889 90.8153 20.9105 91.0142 20.6321 91.2098 20.415 91.4915 20.2592 91.8594 20.1068 92.2273 20.0305 92.6681 20.0305 93.1818 20.0305 93.7022 20.1068 94.1496 20.2592 94.5241 20.4117 94.8954 20.6255 95.1821 20.9006 95.3842 21.179 95.5831 21.5054 95.6825 21.88 95.6825 22.1451 95.6825 22.3821 95.6328 22.5909 95.5334 22.803 95.4306 22.9804 95.2831 23.1229 95.0909 23.2654 94.8987 23.3632 94.665 23.4162 94.3899H25.1364C25.0933 94.9302 24.9342 95.4091 24.6591 95.8267 24.384 96.241 24.0095 96.5658 23.5355 96.8011 23.0616 97.0331 22.5047 97.1491 21.8651 97.1491zM29.9451 97.1491C29.1828 97.1491 28.5282 96.9818 27.9814 96.647 27.4378 96.3123 27.0185 95.8499 26.7235 95.2599 26.4319 94.6667 26.286 93.9839 26.286 93.2116 26.286 92.4361 26.4352 91.7517 26.7335 91.1584 27.0318 90.5618 27.4527 90.0978 27.9963 89.7663 28.5431 89.4316 29.1895 89.2642 29.9352 89.2642 30.555 89.2642 31.1035 89.3786 31.5808 89.6072 32.0614 89.8326 32.4442 90.1525 32.7292 90.5668 33.0143 90.9777 33.1767 91.4583 33.2164 92.0085H31.4963C31.4267 91.6406 31.2609 91.334 30.9991 91.0888 30.7406 90.8402 30.3942 90.7159 29.96 90.7159 29.5922 90.7159 29.269 90.8153 28.9906 91.0142 28.7122 91.2098 28.4951 91.4915 28.3393 91.8594 28.1868 92.2273 28.1106 92.6681 28.1106 93.1818 28.1106 93.7022 28.1868 94.1496 28.3393 94.5241 28.4918 94.8954 28.7056 95.1821 28.9806 95.3842 29.2591 95.5831 29.5855 95.6825 29.96 95.6825 30.2252 95.6825 30.4622 95.6328 30.671 95.5334 30.8831 95.4306 31.0604 95.2831 31.2029 95.0909 31.3455 94.8987 31.4432 94.665 31.4963 94.3899H33.2164C33.1734 94.9302 33.0143 95.4091 32.7392 95.8267 32.4641 96.241 32.0895 96.5658 31.6156 96.8011 31.1416 97.0331 30.5848 97.1491 29.9451 97.1491zm8.1298.0C37.3093 97.1491 36.6481 96.9901 36.0913 96.6719 35.5378 96.3504 35.1119 95.8963 34.8136 95.3097 34.5153 94.7197 34.3661 94.0253 34.3661 93.2266 34.3661 92.4411 34.5153 91.7517 34.8136 91.1584 35.1152 90.5618 35.5361 90.0978 36.0763 89.7663 36.6166 89.4316 37.2513 89.2642 37.9805 89.2642 38.4511 89.2642 38.8952 89.3404 39.3129 89.4929 39.7338 89.642 40.105 89.8741 40.4265 90.1889 40.7513 90.5038 41.0065 90.9048 41.1921 91.392 41.3777 91.8759 41.4705 92.4527 41.4705 93.1222V93.674H35.2113V92.4609H39.7454C39.7421 92.1162 39.6675 91.8097 39.5217 91.5412 39.3758 91.2694 39.172 91.0556 38.9102 90.8999 38.6516 90.7441 38.35 90.6662 38.0053 90.6662 37.6374 90.6662 37.3143 90.7557 37.0359 90.9347 36.7575 91.1103 36.5404 91.3423 36.3846 91.6307 36.2321 91.9157 36.1542 92.2289 36.1509 92.5703V93.6293C36.1509 94.0734 36.2321 94.4545 36.3945 94.7727 36.5569 95.0876 36.784 95.3295 37.0756 95.4986 37.3673 95.6643 37.7087 95.7472 38.0998 95.7472 38.3616 95.7472 38.5986 95.7107 38.8107 95.6378 39.0228 95.5616 39.2068 95.4505 39.3626 95.3047 39.5183 95.1589 39.636 94.9782 39.7156 94.7628L41.396 94.9517C41.2899 95.3958 41.0877 95.7836 40.7894 96.1151 40.4944 96.4432 40.1166 96.6984 39.6559 96.8807 39.1952 97.0597 38.6682 97.1491 38.0749 97.1491zM49.0286 91.3821 47.388 91.5611C47.3416 91.3954 47.2604 91.2396 47.1444 91.0938 47.0317 90.9479 46.8792 90.8303 46.687 90.7408 46.4947 90.6513 46.2594 90.6065 45.981 90.6065 45.6065 90.6065 45.2916 90.6877 45.0364 90.8501 44.7845 91.0125 44.6602 91.223 44.6635 91.4815 44.6602 91.7036 44.7414 91.8842 44.9071 92.0234 45.0762 92.1626 45.3546 92.277 45.7424 92.3665L47.0449 92.6449C47.7675 92.8007 48.3044 93.0476 48.6557 93.3857 49.0104 93.7237 49.1893 94.1662 49.1926 94.7131 49.1893 95.1937 49.0485 95.6179 48.7701 95.9858 48.495 96.3504 48.1122 96.6354 47.6216 96.8409 47.1311 97.0464 46.5676 97.1491 45.9313 97.1491 44.9966 97.1491 44.2443 96.9536 43.6742 96.5625 43.1041 96.1681 42.7644 95.6196 42.655 94.9169L44.41 94.7479C44.4895 95.0926 44.6586 95.3527 44.9171 95.5284 45.1756 95.7041 45.512 95.7919 45.9263 95.7919 46.3539 95.7919 46.6969 95.7041 46.9554 95.5284 47.2173 95.3527 47.3482 95.1357 47.3482 94.8771 47.3482 94.6584 47.2637 94.4777 47.0946 94.3352 46.9289 94.1927 46.6704 94.0833 46.3191 94.0071L45.0165 93.7337C44.284 93.5812 43.7421 93.3243 43.3908 92.9631 43.0395 92.5985 42.8655 92.1378 42.8688 91.581 42.8655 91.1103 42.9931 90.7027 43.2516 90.358 43.5134 90.0099 43.8764 89.7415 44.3404 89.5526 44.8077 89.3603 45.3463 89.2642 45.9561 89.2642 46.851 89.2642 47.5553 89.4548 48.0691 89.8359 48.5861 90.2171 48.906 90.7325 49.0286 91.3821zM56.7122 91.3821 55.0716 91.5611C55.0252 91.3954 54.944 91.2396 54.8279 91.0938 54.7153 90.9479 54.5628 90.8303 54.3706 90.7408 54.1783 90.6513 53.943 90.6065 53.6646 90.6065 53.2901 90.6065 52.9752 90.6877 52.72 90.8501 52.4681 91.0125 52.3438 91.223 52.3471 91.4815 52.3438 91.7036 52.425 91.8842 52.5907 92.0234 52.7598 92.1626 53.0382 92.277 53.426 92.3665L54.7285 92.6449C55.4511 92.8007 55.988 93.0476 56.3393 93.3857 56.694 93.7237 56.8729 94.1662 56.8762 94.7131 56.8729 95.1937 56.7321 95.6179 56.4537 95.9858 56.1786 96.3504 55.7958 96.6354 55.3052 96.8409 54.8147 97.0464 54.2512 97.1491 53.6149 97.1491 52.6802 97.1491 51.9279 96.9536 51.3578 96.5625 50.7877 96.1681 50.448 95.6196 50.3386 94.9169L52.0936 94.7479C52.1731 95.0926 52.3422 95.3527 52.6007 95.5284 52.8592 95.7041 53.1956 95.7919 53.6099 95.7919 54.0375 95.7919 54.3805 95.7041 54.639 95.5284 54.9009 95.3527 55.0318 95.1357 55.0318 94.8771 55.0318 94.6584 54.9473 94.4777 54.7782 94.3352 54.6125 94.1927 54.354 94.0833 54.0027 94.0071L52.7001 93.7337C51.9676 93.5812 51.4257 93.3243 51.0744 92.9631 50.7231 92.5985 50.5491 92.1378 50.5524 91.581 50.5491 91.1103 50.6767 90.7027 50.9352 90.358 51.197 90.0099 51.56 89.7415 52.024 89.5526 52.4913 89.3603 53.0299 89.2642 53.6397 89.2642 54.5346 89.2642 55.2389 89.4548 55.7527 89.8359 56.2697 90.2171 56.5895 90.7325 56.7122 91.3821zM67.8684 91.3821 66.2278 91.5611C66.1814 91.3954 66.1002 91.2396 65.9842 91.0938 65.8715 90.9479 65.719 90.8303 65.5268 90.7408 65.3346 90.6513 65.0993 90.6065 64.8208 90.6065 64.4463 90.6065 64.1315 90.6877 63.8762 90.8501 63.6243 91.0125 63.5001 91.223 63.5034 91.4815 63.5001 91.7036 63.5813 91.8842 63.747 92.0234 63.916 92.1626 64.1944 92.277 64.5822 92.3665L65.8848 92.6449C66.6073 92.8007 67.1442 93.0476 67.4956 93.3857 67.8502 93.7237 68.0292 94.1662 68.0325 94.7131 68.0292 95.1937 67.8883 95.6179 67.6099 95.9858 67.3348 96.3504 66.952 96.6354 66.4615 96.8409 65.9709 97.0464 65.4075 97.1491 64.7711 97.1491 63.8365 97.1491 63.0841 96.9536 62.514 96.5625 61.944 96.1681 61.6042 95.6196 61.4949 94.9169L63.2498 94.7479C63.3294 95.0926 63.4984 95.3527 63.7569 95.5284 64.0154 95.7041 64.3519 95.7919 64.7662 95.7919 65.1937 95.7919 65.5368 95.7041 65.7953 95.5284 66.0571 95.3527 66.188 95.1357 66.188 94.8771 66.188 94.6584 66.1035 94.4777 65.9345 94.3352 65.7688 94.1927 65.5102 94.0833 65.1589 94.0071L63.8564 93.7337C63.1239 93.5812 62.582 93.3243 62.2306 92.9631 61.8793 92.5985 61.7053 92.1378 61.7086 91.581 61.7053 91.1103 61.8329 90.7027 62.0914 90.358 62.3533 90.0099 62.7162 89.7415 63.1802 89.5526 63.6475 89.3603 64.1861 89.2642 64.796 89.2642 65.6909 89.2642 66.3952 89.4548 66.9089 89.8359 67.426 90.2171 67.7458 90.7325 67.8684 91.3821zM72.8475 97.1491C72.0852 97.1491 71.4306 96.9818 70.8837 96.647 70.3401 96.3123 69.9209 95.8499 69.6259 95.2599 69.3342 94.6667 69.1884 93.9839 69.1884 93.2116 69.1884 92.4361 69.3375 91.7517 69.6358 91.1584 69.9341 90.5618 70.3551 90.0978 70.8986 89.7663 71.4455 89.4316 72.0918 89.2642 72.8375 89.2642 73.4573 89.2642 74.0059 89.3786 74.4831 89.6072 74.9637 89.8326 75.3465 90.1525 75.6316 90.5668 75.9166 90.9777 76.079 91.4583 76.1188 92.0085H74.3986C74.329 91.6406 74.1633 91.334 73.9015 91.0888 73.6429 90.8402 73.2966 90.7159 72.8624 90.7159 72.4945 90.7159 72.1713 90.8153 71.8929 91.0142 71.6145 91.2098 71.3974 91.4915 71.2417 91.8594 71.0892 92.2273 71.013 92.6681 71.013 93.1818 71.013 93.7022 71.0892 94.1496 71.2417 94.5241 71.3941 94.8954 71.6079 95.1821 71.883 95.3842 72.1614 95.5831 72.4879 95.6825 72.8624 95.6825 73.1275 95.6825 73.3645 95.6328 73.5733 95.5334 73.7855 95.4306 73.9628 95.2831 74.1053 95.0909 74.2478 94.8987 74.3456 94.665 74.3986 94.3899H76.1188C76.0757 94.9302 75.9166 95.4091 75.6415 95.8267 75.3664 96.241 74.9919 96.5658 74.5179 96.8011 74.044 97.0331 73.4872 97.1491 72.8475 97.1491zM80.9276 97.1491C80.1818 97.1491 79.5355 96.9851 78.9886 96.657 78.4418 96.3288 78.0175 95.8698 77.7159 95.2798 77.4176 94.6899 77.2685 94.0005 77.2685 93.2116 77.2685 92.4228 77.4176 91.7318 77.7159 91.1385 78.0175 90.5452 78.4418 90.0845 78.9886 89.7564 79.5355 89.4283 80.1818 89.2642 80.9276 89.2642 81.6733 89.2642 82.3196 89.4283 82.8665 89.7564 83.4134 90.0845 83.8359 90.5452 84.1342 91.1385 84.4358 91.7318 84.5866 92.4228 84.5866 93.2116 84.5866 94.0005 84.4358 94.6899 84.1342 95.2798 83.8359 95.8698 83.4134 96.3288 82.8665 96.657 82.3196 96.9851 81.6733 97.1491 80.9276 97.1491zM80.9375 95.7074C81.3419 95.7074 81.6799 95.5964 81.9517 95.3743 82.2235 95.1489 82.4257 94.8473 82.5582 94.4695 82.6941 94.0916 82.7621 93.6707 82.7621 93.2067 82.7621 92.7393 82.6941 92.3168 82.5582 91.9389 82.4257 91.5578 82.2235 91.2545 81.9517 91.0291 81.6799 90.8037 81.3419 90.6911 80.9375 90.6911 80.5232 90.6911 80.1785 90.8037 79.9034 91.0291 79.6316 91.2545 79.4278 91.5578 79.2919 91.9389 79.1593 92.3168 79.093 92.7393 79.093 93.2067 79.093 93.6707 79.1593 94.0916 79.2919 94.4695 79.4278 94.8473 79.6316 95.1489 79.9034 95.3743 80.1785 95.5964 80.5232 95.7074 80.9375 95.7074zM86.1142 97V89.3636H87.8592V90.6364H87.9387C88.0779 90.1955 88.3166 89.8558 88.6547 89.6172 88.996 89.3752 89.3855 89.2543 89.823 89.2543 89.9224 89.2543 90.0334 89.2592 90.1561 89.2692 90.282 89.2758 90.3864 89.2874 90.4693 89.304V90.9595C90.3931 90.933 90.2721 90.9098 90.1064 90.8899 89.944 90.8667 89.7865 90.8551 89.6341 90.8551 89.3059 90.8551 89.0109 90.9264 88.7491 91.0689 88.4906 91.2081 88.2868 91.402 88.1376 91.6506 87.9885 91.8991 87.9139 92.1858 87.9139 92.5107V97H86.1142zM94.7312 97.1491C93.9656 97.1491 93.3043 96.9901 92.7475 96.6719 92.194 96.3504 91.7681 95.8963 91.4698 95.3097 91.1715 94.7197 91.0224 94.0253 91.0224 93.2266 91.0224 92.4411 91.1715 91.7517 91.4698 91.1584 91.7714 90.5618 92.1924 90.0978 92.7326 89.7663 93.2728 89.4316 93.9076 89.2642 94.6367 89.2642 95.1074 89.2642 95.5515 89.3404 95.9691 89.4929 96.39 89.642 96.7612 89.8741 97.0827 90.1889 97.4076 90.5038 97.6628 90.9048 97.8484 91.392 98.034 91.8759 98.1268 92.4527 98.1268 93.1222V93.674H91.8675V92.4609H96.4016C96.3983 92.1162 96.3237 91.8097 96.1779 91.5412 96.0321 91.2694 95.8282 91.0556 95.5664 90.8999 95.3079 90.7441 95.0063 90.6662 94.6616 90.6662 94.2937 90.6662 93.9705 90.7557 93.6921 90.9347 93.4137 91.1103 93.1966 91.3423 93.0408 91.6307 92.8884 91.9157 92.8105 92.2289 92.8072 92.5703V93.6293C92.8072 94.0734 92.8884 94.4545 93.0508 94.7727 93.2132 95.0876 93.4402 95.3295 93.7319 95.4986 94.0236 95.6643 94.3649 95.7472 94.756 95.7472 95.0179 95.7472 95.2549 95.7107 95.467 95.6378 95.6791 95.5616 95.863 95.4505 96.0188 95.3047 96.1746 95.1589 96.2923 94.9782 96.3718 94.7628L98.0522 94.9517C97.9461 95.3958 97.744 95.7836 97.4457 96.1151 97.1507 96.4432 96.7728 96.6984 96.3121 96.8807 95.8514 97.0597 95.3245 97.1491 94.7312 97.1491z" fill="#000"/><path d="M86 38.5C86 59.763 68.763 77 47.5 77 26.237 77 9 59.763 9 38.5 9 17.237 26.237.0 47.5.0 68.763.0 86 17.237 86 38.5zm-67.9514.0C18.0486 54.7656 31.2344 67.9514 47.5 67.9514 63.7656 67.9514 76.9514 54.7656 76.9514 38.5 76.9514 22.2344 63.7656 9.0486 47.5 9.0486c-16.2656.0-29.4514 13.1858-29.4514 29.4514z" fill="#000"/></svg>