<svg width="153" height="154" viewBox="0 0 153 154" fill="none" xmlns="http://www.w3.org/2000/svg"><path d="M76.2615 77.8368 43.8556 52.6733 85.1032 45.157 117.219 69.8477 76.2615 77.8368z" stroke="#000" stroke-miterlimit="10"/><path d="M116.624 69.0965 114.328 68.5465 108.551 92.6561 110.847 93.2062 116.624 69.0965z" stroke="#000" stroke-miterlimit="10"/><path d="M113.126 94.6606C113.298 93.9419 113.252 93.1885 112.996 92.4956 112.739 91.8028 112.283 91.2015 111.685 90.768 111.086 90.3344 110.373 90.0879 109.635 90.0597 108.896 90.0315 108.166 90.2228 107.537 90.6095 106.907 90.9961 106.406 91.5608 106.097 92.232 105.789 92.9033 105.686 93.651 105.802 94.3807 105.918 95.1105 106.247 95.7894 106.749 96.3317 107.251 96.8741 107.902 97.2555 108.621 97.4278 109.098 97.542 109.593 97.561 110.078 97.4838 110.563 97.4065 111.028 97.2345 111.447 96.9775 111.865 96.7206 112.229 96.3837 112.517 95.9862 112.805 95.5886 113.012 95.1382 113.126 94.6606z" fill="#000"/><path d="M107.572 94.5445C107.572 94.5445 103.249 99.8841 102.194 109.341L106.326 110.331 110.177 94.2605C110.177 94.2605 107.454 95.0215 107.572 94.5445z" stroke="#000" stroke-miterlimit="10"/><path d="M111.209 95.4162C111.209 95.4162 112.629 102.132 109.282 111.039L105.18 110.056 109.031 93.9858C109.031 93.9858 111.096 95.8942 111.209 95.4162z" stroke="#000" stroke-miterlimit="10"/><path d="M98.516 76.1388C98.4745 76.3123 78.697 80.3018 74.881 81.0716 71.8261 78.6555 56.0048 66.1362 56.0464 65.9626L50.1897 90.4052C54.465 97.8745 65.5373 101.572 69.1169 102.598L69.1103 102.625C69.1103 102.625 69.319 102.675 69.6855 102.755 70.0471 102.85 70.2559 102.9 70.2559 102.9L70.2624 102.872C73.9204 103.58 85.4638 105.302 92.6593 100.581L98.516 76.1388z" stroke="#000" stroke-miterlimit="10"/></svg>