<svg width="29" height="29" viewBox="0 0 29 29" fill="none" xmlns="http://www.w3.org/2000/svg"><path d="M19.0002 11.4994 13.0001 17.4992 10.0001 14.4993M16.3693 1.68817 18.2008 3.24887C18.6622 3.64206 19.2351 3.87978 19.8394 3.928L22.238 4.11915C23.6483 4.23168 24.7684 5.35106 24.8809 6.76122L25.0716 9.16011C25.1199 9.76439 25.3584 10.3381 25.7516 10.7995L27.3117 12.6304C28.2293 13.7071 28.2295 15.2909 27.3119 16.3676L25.7518 18.1987C25.3586 18.6601 25.1203 19.2341 25.0721 19.8383L24.8802 22.2368C24.7677 23.647 23.6493 24.7671 22.239 24.8796L19.8396 25.0711C19.2353 25.1193 18.6618 25.3564 18.2004 25.7496L16.3693 27.3103C15.2926 28.2279 13.7077 28.228 12.631 27.3105L10.7999 25.7497C10.3385 25.3565 9.76502 25.119 9.1607 25.0708L6.76125 24.8796C5.35103 24.7671 4.23263 23.6473 4.1201 22.2371L3.9282 19.8385C3.87997 19.2342 3.64171 18.6608 3.2485 18.1994L1.68842 16.3677C.770815 15.291.770385 13.7077 1.68799 12.631L3.24947 10.7992C3.64269 10.3378 3.87866 9.7644 3.92688 9.16011L4.11878 6.7615C4.23131 5.35135 5.35294 4.23154 6.76316 4.119L9.15997 3.92785C9.76428 3.87963 10.338 3.64211 10.7994 3.24891L12.6311 1.68817C13.7079.77061 15.2926.77061 16.3693 1.68817z" stroke="#34c759" stroke-width="2" stroke-linecap="round" stroke-linejoin="round"/></svg>