<svg width="75" height="75" viewBox="0 0 75 75" fill="none" xmlns="http://www.w3.org/2000/svg">
<path d="M37.4899 62.4375C51.2997 62.4375 62.4949 51.2424 62.4949 37.4325C62.4949 23.6226 51.2997 12.4275 37.4899 12.4275C23.68 12.4275 12.4849 23.6226 12.4849 37.4325C12.4849 51.2424 23.68 62.4375 37.4899 62.4375Z" fill="#4A148C"/>
<path d="M8.48327 32.4688L9.16702 32.5831L9.39077 31.2454L10.2766 31.3935L10.0529 32.7313L10.808 32.8575L11.0615 31.3414L11.995 31.4975L11.5465 34.179L7.35498 33.478L7.80337 30.7965L8.73685 30.9526L8.48327 32.4688Z" fill="#727373"/>
<path d="M9.59704 24.9944L13.6182 26.3696L13.2359 27.4876L11.0171 26.7287L12.9765 28.2462L12.6566 29.1816L10.1593 29.1812L12.3952 29.9459L12.0129 31.0638L7.9917 29.6886L8.45401 28.3369L11.4116 28.2207L9.13669 26.3405L9.59704 24.9944Z" fill="#727373"/>
<path d="M13.5659 22.1251C13.6958 22.3401 13.7598 22.5884 13.75 22.8394C13.7358 23.1427 13.6473 23.4379 13.4924 23.699L13.2099 24.211L14.466 24.9042L13.8951 25.9387L10.1743 23.8852L11.0277 22.3388C11.1653 22.0714 11.3637 21.8401 11.607 21.6635C11.8113 21.518 12.0549 21.4376 12.3057 21.433C12.5625 21.4335 12.8147 21.5015 13.037 21.63C13.2534 21.7461 13.4357 21.9168 13.5659 22.1251ZM12.4544 22.6855C12.1835 22.5361 11.9675 22.6073 11.8063 22.8993L11.5791 23.311L12.3866 23.7566L12.6138 23.345C12.7749 23.053 12.7218 22.8332 12.4544 22.6855Z" fill="#727373"/>
<path d="M16.0683 21.8316C15.7214 21.9792 15.3411 22.0301 14.9677 21.979C14.5787 21.919 14.2116 21.7605 13.9011 21.5186C13.5907 21.2767 13.3473 20.9595 13.194 20.597C13.0532 20.248 13.0104 19.8672 13.0702 19.4956C13.1341 19.1175 13.291 18.7611 13.5267 18.4586C13.7624 18.1561 14.0696 17.9168 14.4207 17.7624C14.7655 17.6152 15.144 17.5652 15.5152 17.6179C15.9035 17.6798 16.2698 17.839 16.5799 18.0807C16.8901 18.3223 17.134 18.6386 17.2889 19C17.431 19.3484 17.4753 19.729 17.4169 20.1008C17.3552 20.4792 17.1994 20.8361 16.9637 21.1385C16.7281 21.441 16.4201 21.6793 16.0683 21.8316ZM16.3044 19.7192C16.2565 19.4603 16.1026 19.2295 15.8426 19.0269C15.5763 18.8195 15.3126 18.7248 15.0513 18.7429C14.7901 18.761 14.5669 18.8889 14.3817 19.1267C14.1939 19.3676 14.1238 19.6162 14.1714 19.8722C14.219 20.1284 14.3759 20.3602 14.6421 20.5676C14.9053 20.7727 15.1669 20.8669 15.4267 20.8504C15.6867 20.834 15.9105 20.7052 16.0982 20.4642C16.2835 20.2264 16.3522 19.9781 16.3044 19.7192Z" fill="#727373"/>
<path d="M20.261 11.9873L22.2164 15.902L21.1089 16.8423L18.9778 15.2354L20.2082 17.6069L19.1007 18.5471L15.5645 15.9744L16.5387 15.1473L18.7959 17.0425L17.4256 14.3944L18.4137 13.5557L20.7748 15.3309L19.2868 12.8144L20.261 11.9873Z" fill="#727373"/>
<path d="M22.7356 11.7158L23.0833 12.3154L24.2567 11.6351L24.7072 12.4122L23.5338 13.0925L23.9178 13.7548L25.2477 12.9838L25.7224 13.8025L23.3704 15.1662L21.2388 11.4896L23.5907 10.126L24.0654 10.9447L22.7356 11.7158Z" fill="#727373"/>
<path d="M28.109 12.7651L26.7303 11.639L26.6133 11.6874L27.212 13.1359L26.1201 13.5872L24.4966 9.65978L26.218 8.94812C26.4911 8.82553 26.789 8.76828 27.0881 8.78089C27.335 8.79349 27.5725 8.87921 27.7705 9.02714C27.9638 9.1762 28.1135 9.37459 28.2036 9.60147C28.3126 9.85209 28.3376 10.1313 28.2749 10.3973C28.2021 10.6752 28.0384 10.9208 27.8099 11.0949L29.3289 12.2608L28.109 12.7651ZM26.3047 10.9409L26.8451 10.7175C26.9936 10.6561 27.0904 10.5748 27.1355 10.4735C27.1577 10.417 27.1678 10.3564 27.1652 10.2957C27.1626 10.235 27.1473 10.1755 27.1203 10.1211C27.1006 10.065 27.0692 10.0136 27.0283 9.97041C26.9874 9.92719 26.9379 9.89306 26.8829 9.87023C26.7586 9.83027 26.6235 9.84043 26.5065 9.89856L25.9661 10.1219L26.3047 10.9409Z" fill="#727373"/>
<path d="M29.9995 8.67597L30.1762 9.34625L31.4878 9.00043L31.7168 9.86896L30.4052 10.2148L30.6004 10.955L32.0868 10.5631L32.3281 11.4783L29.6992 12.1714L28.6157 8.06207L31.2445 7.3689L31.4859 8.284L29.9995 8.67597Z" fill="#4A148C"/>
<path d="M35.1368 7.07998C35.4798 7.21088 35.7772 7.43909 35.9924 7.7366C36.2149 8.05095 36.3514 8.41796 36.3885 8.80129C36.4391 9.18147 36.3885 9.56829 36.2419 9.92269C36.0978 10.2623 35.86 10.5539 35.5563 10.7634C35.221 10.992 34.8331 11.1319 34.429 11.1698L32.7583 11.3628L32.2705 7.14113L33.9412 6.94808C34.3445 6.89232 34.7553 6.93765 35.1368 7.07998ZM34.9954 9.76935C35.1693 9.55915 35.2364 9.28235 35.1968 8.93897C35.1567 8.59168 35.0278 8.33452 34.8103 8.16748C34.5927 8.00045 34.3123 7.93677 33.969 7.97644L33.5618 8.0235L33.8123 10.1913L34.2195 10.1442C34.5628 10.1045 34.8214 9.97954 34.9954 9.76935Z" fill="#4A148C"/>
<path d="M42.7847 10.558L44.0818 10.8037L43.9136 11.6921L41.4556 11.2267L42.2463 7.05103L43.4072 7.27088L42.7847 10.558Z" fill="#727373"/>
<path d="M46.357 8.97482L46.1509 9.6367L47.4458 10.04L47.1787 10.8976L45.8837 10.4942L45.6561 11.2252L47.1237 11.6824L46.8423 12.5859L44.2466 11.7775L45.5104 7.71985L48.1061 8.52832L47.8247 9.43194L46.357 8.97482Z" fill="#727373"/>
<path d="M49.991 13.2477L48.6319 12.5966L48.1258 13.1227L47.0059 12.5861L50.2395 9.42297L51.4681 10.0117L51.0233 14.5111L49.898 13.9719L49.991 13.2477ZM50.1153 12.3047L50.2961 10.8672L49.2945 11.9113L50.1153 12.3047Z" fill="#727373"/>
<path d="M52.9733 15.8895L53.169 14.1202L53.0648 14.0484L52.1746 15.3383L51.2021 14.6672L53.6161 11.1694L55.1491 12.2275C55.4005 12.3901 55.6105 12.609 55.7626 12.8669C55.8862 13.0809 55.9433 13.3269 55.9268 13.5735C55.9068 13.8168 55.8216 14.0503 55.6801 14.2493C55.5291 14.477 55.3084 14.6497 55.051 14.7416C54.7782 14.8316 54.483 14.8278 54.2126 14.7306L54.0599 16.6394L52.9733 15.8895ZM53.5236 13.3835L54.0049 13.7156C54.1371 13.8069 54.2581 13.8439 54.3676 13.8268C54.4271 13.8146 54.4835 13.7902 54.533 13.755C54.5825 13.7198 54.6241 13.6747 54.6551 13.6224C54.6915 13.5753 54.7175 13.5211 54.7316 13.4633C54.7456 13.4055 54.7473 13.3453 54.7366 13.2868C54.7026 13.1607 54.6206 13.0529 54.5082 12.9863L54.027 12.6542L53.5236 13.3835Z" fill="#727373"/>
<path d="M57.1942 19.5721L56.3389 18.7569L56.8386 15.9521L55.2 17.6715L54.3447 16.8563L57.2768 13.7799L58.132 14.5951L57.6115 17.4217L59.271 15.6805L60.1263 16.4957L57.1942 19.5721Z" fill="#727373"/>
<path d="M61.5411 18.2343L58.2676 20.9445L57.5142 20.0345L60.7877 17.3243L61.5411 18.2343Z" fill="#727373"/>
<path d="M60.7998 24.6532L60.1586 23.6607L61.2996 21.0504L59.3047 22.3393L58.6636 21.3469L62.2331 19.0406L62.8743 20.033L61.7079 22.6598L63.7282 21.3545L64.3694 22.3469L60.7998 24.6532Z" fill="#727373"/>
<path d="M64.729 26.4715C64.8048 26.366 64.849 26.2412 64.8565 26.1116C64.8628 25.9669 64.8346 25.8227 64.7742 25.691C64.6567 25.4178 64.4757 25.2408 64.231 25.16C63.9864 25.0792 63.7145 25.103 63.4155 25.2316C63.0794 25.376 62.8598 25.5699 62.7567 25.8133C62.6534 26.0566 62.6709 26.3389 62.8089 26.6602C62.9723 27.0404 63.2606 27.238 63.6739 27.253L63.205 26.1619L63.9859 25.8263L64.857 27.8534L63.8047 28.3056C63.552 28.3079 63.3008 28.266 63.0625 28.1816C62.798 28.0873 62.5553 27.9405 62.3489 27.7502C62.1127 27.5319 61.9272 27.2644 61.8056 26.9666C61.6427 26.6076 61.5758 26.2125 61.6113 25.8199C61.6468 25.4546 61.7869 25.1073 62.0148 24.8197C62.2645 24.5206 62.5811 24.2845 62.9391 24.1307C63.2971 23.9769 63.6863 23.9096 64.0751 23.9345C64.4399 23.9668 64.7877 24.1031 65.0772 24.3273C65.3862 24.5706 65.6264 24.8902 65.7742 25.2547C65.9853 25.7457 66.0416 26.2026 65.9434 26.6255C65.8481 27.0439 65.5924 27.4083 65.2312 27.6401L64.729 26.4715Z" fill="#727373"/>
<path d="M63.1108 29.4797C63.2589 29.1134 63.542 28.8638 63.96 28.7308L64.2755 29.9506C64.1579 29.9815 64.0568 30.0567 63.9935 30.1605C63.9529 30.2533 63.9426 30.3566 63.9643 30.4556C63.986 30.5545 64.0385 30.6441 64.1142 30.7114C64.1484 30.7382 64.1885 30.7563 64.2313 30.7643C64.274 30.7722 64.318 30.7697 64.3595 30.7569C64.4175 30.7428 64.4704 30.7126 64.5122 30.6699C64.554 30.6272 64.583 30.5736 64.5958 30.5153C64.6425 30.3164 64.6692 30.1134 64.6758 29.9093C64.6892 29.6681 64.7197 29.4282 64.7672 29.1914C64.8109 28.9985 64.8985 28.8181 65.0232 28.6645C65.1529 28.5002 65.3481 28.3844 65.6088 28.3169C65.8489 28.2476 66.1047 28.2555 66.3401 28.3395C66.5686 28.4272 66.7669 28.5793 66.9109 28.7772C67.077 29.0034 67.1964 29.2604 67.2621 29.5332C67.3858 30.0117 67.3728 30.4229 67.2231 30.7667C67.0732 31.1106 66.7985 31.3445 66.399 31.4686L66.0775 30.2255C66.1302 30.2141 66.1797 30.1915 66.223 30.1594C66.2662 30.1273 66.3021 30.0863 66.3283 30.0393C66.3724 29.9449 66.3801 29.8376 66.3499 29.7379C66.333 29.6598 66.2863 29.5915 66.2197 29.5474C66.1843 29.5265 66.1449 29.5133 66.104 29.5089C66.0631 29.5044 66.0218 29.5088 65.9827 29.5216C65.9446 29.5312 65.9089 29.5489 65.8782 29.5735C65.8475 29.5981 65.8225 29.629 65.8047 29.6641C65.7614 29.7462 65.7317 29.8348 65.7169 29.9264C65.6992 30.0265 65.6819 30.1722 65.6649 30.3633C65.649 30.6032 65.616 30.8416 65.5661 31.0768C65.5213 31.2709 65.4344 31.4528 65.3116 31.6097C65.1718 31.7818 64.9776 31.9011 64.7609 31.9482C64.5289 32.0118 64.2834 32.0072 64.0539 31.9349C63.8195 31.857 63.6119 31.7142 63.4555 31.523C63.2709 31.2967 63.1404 31.0313 63.0742 30.7469C62.9505 30.2683 62.9627 29.8459 63.1108 29.4797Z" fill="#727373"/>
<path d="M8.83585 46.0446L9.14157 46.907L8.827 47.0186L8.37842 45.7532L10.8738 44.8687L11.0166 45.2716L8.83585 46.0446Z" fill="#666666"/>
<path d="M10.606 48.7964L9.9784 47.3355C9.78611 47.4263 9.66459 47.5425 9.61384 47.6839C9.56306 47.8263 9.57026 47.983 9.63389 48.1202C9.68114 48.2405 9.76638 48.3422 9.87666 48.4097C9.97763 48.4711 10.0987 48.4902 10.2137 48.4629L10.3943 48.8832C10.2535 48.9161 10.1067 48.9136 9.96701 48.8761C9.82734 48.8386 9.69912 48.7671 9.59373 48.6681C9.4755 48.5583 9.38242 48.4242 9.32087 48.2751C9.2445 48.1067 9.21273 47.9215 9.22858 47.7373C9.24589 47.5626 9.31357 47.3966 9.42341 47.2597C9.55069 47.111 9.71037 46.9936 9.89017 46.9164C10.07 46.8391 10.2651 46.8042 10.4605 46.8142C10.6354 46.8289 10.8024 46.894 10.941 47.0016C11.0826 47.1197 11.1945 47.2694 11.2675 47.4387C11.3406 47.6079 11.3728 47.792 11.3616 47.976C11.3466 48.1422 11.2844 48.3006 11.1823 48.4326C11.077 48.5672 10.9386 48.6724 10.7807 48.7378C10.7244 48.7627 10.6659 48.7823 10.606 48.7964ZM10.9053 48.1393C10.967 48.0612 11.003 47.9658 11.0085 47.8664C11.0133 47.7659 10.9947 47.6656 10.954 47.5735C10.8974 47.4296 10.7874 47.3131 10.647 47.2484C10.5084 47.1854 10.3452 47.1888 10.1576 47.2585L10.6209 48.337C10.7321 48.2987 10.8306 48.2303 10.9053 48.1393Z" fill="#666666"/>
<path d="M12.3175 49.9042C12.2999 50.0613 12.2328 50.2088 12.1259 50.3254L12.5493 50.0992L12.7507 50.4764L10.9282 51.4498L10.7268 51.0728L11.1501 50.8466C10.9938 50.8706 10.8339 50.8444 10.6935 50.7717C10.5428 50.6916 10.4209 50.5665 10.345 50.4137C10.2627 50.2657 10.223 50.0977 10.2304 49.9285C10.2401 49.7603 10.2984 49.5984 10.3982 49.4626C10.5176 49.3092 10.668 49.1826 10.8395 49.0909C11.011 48.9993 11.1999 48.9448 11.3938 48.9309C11.5622 48.9235 11.7291 48.965 11.8743 49.0504C12.019 49.1384 12.1365 49.2647 12.2138 49.4154C12.2985 49.5635 12.3348 49.7344 12.3175 49.9042ZM11.5698 49.3917C11.4092 49.3485 11.2352 49.377 11.0478 49.4771C10.8604 49.5772 10.74 49.706 10.6866 49.8634C10.6605 49.9439 10.6518 50.029 10.6611 50.113C10.6705 50.1971 10.6977 50.2782 10.7409 50.351C10.7926 50.4516 10.8709 50.5363 10.9672 50.5957C11.0625 50.6533 11.172 50.6831 11.2833 50.682C11.4076 50.6772 11.5292 50.6442 11.6389 50.5856C11.7486 50.527 11.8436 50.4443 11.9167 50.3436C11.9804 50.2517 12.017 50.1438 12.0224 50.0321C12.0266 49.919 11.9998 49.8069 11.9449 49.7079C11.9084 49.6316 11.8561 49.5639 11.7914 49.5093C11.7267 49.4548 11.6512 49.4147 11.5698 49.3917Z" fill="#666666"/>
<path d="M13.3221 51.5451C13.4625 51.6178 13.5799 51.7281 13.6611 51.8637L13.2671 52.1106L13.1994 52.0026C13.1202 51.8611 12.9944 51.7514 12.8435 51.6923C12.7057 51.6443 12.5479 51.6761 12.37 51.7876L11.4833 52.3429L11.2563 51.9807L13.0074 50.8838L13.2344 51.2461L12.8911 51.4611C13.0398 51.4481 13.1892 51.4772 13.3221 51.5451Z" fill="#666666"/>
<path d="M14.6428 53.6456C14.6025 53.854 14.466 54.0426 14.2334 54.2115L13.2591 54.9185L13.008 54.5726L13.9458 53.8919C14.0781 53.8083 14.1727 53.6765 14.2096 53.5244C14.2217 53.4533 14.2184 53.3804 14.2001 53.3106C14.1818 53.2408 14.1488 53.1757 14.1034 53.1196C14.0616 53.0563 14.0068 53.0026 13.9427 52.9621C13.8785 52.9215 13.8065 52.8951 13.7313 52.8846C13.5831 52.8656 13.424 52.9177 13.2541 53.041L12.3649 53.6863L12.1138 53.3404L13.786 52.1267L14.0371 52.4727L13.6699 52.7392C13.8185 52.6924 13.9786 52.697 14.1242 52.7524C14.2727 52.8102 14.4006 52.9109 14.4917 53.0417C14.5585 53.1258 14.6065 53.2232 14.6326 53.3273C14.6586 53.4315 14.6621 53.54 14.6428 53.6456Z" fill="#666666"/>
<path d="M15.7427 56.9026L14.985 56.0813L14.4259 56.3215L14.1157 55.9852L16.6924 54.9347L17.0256 55.2958L15.7685 57.7769L15.4583 57.4406L15.7427 56.9026ZM15.9039 56.5908L16.5159 55.4291L15.3089 55.9458L15.9039 56.5908Z" fill="#666666"/>
<path d="M18.6404 57.8792C18.6431 58.0914 18.5477 58.3037 18.3541 58.5163L17.5435 59.4062L17.2275 59.1183L18.0078 58.2617C18.1204 58.153 18.1863 58.0047 18.1917 57.8483C18.189 57.7762 18.171 57.7055 18.139 57.6409C18.1069 57.5762 18.0614 57.5192 18.0056 57.4734C17.9519 57.4199 17.8873 57.3784 17.8163 57.3518C17.7452 57.3251 17.6693 57.3139 17.5936 57.3188C17.4446 57.3301 17.2993 57.4134 17.158 57.5687L16.4181 58.3809L16.1021 58.093L17.4935 56.5656L17.8095 56.8535L17.504 57.1889C17.64 57.1129 17.7977 57.0849 17.9515 57.1096C18.1087 57.1362 18.2543 57.2089 18.3701 57.3184C18.4525 57.3872 18.5192 57.4729 18.5659 57.5696C18.6125 57.6663 18.6379 57.7719 18.6404 57.8792Z" fill="#666666"/>
<path d="M19.4859 58.321L19.0458 59.9008L20.4291 59.0507L20.8057 59.3423L17.9524 60.9892L17.5757 60.6978L18.5597 60.1553L19.1063 58.0272L19.4859 58.321Z" fill="#666666"/>
<path d="M20.9312 61.4618L20.7229 61.769L20.5056 61.6217C20.3236 61.4983 20.2153 61.3607 20.1807 61.2089C20.1462 61.0571 20.1984 60.8788 20.3373 60.674L20.9056 59.8359L20.6604 59.6697L20.8645 59.3687L21.1097 59.5349L21.398 59.1096L21.755 59.3517L21.4667 59.777L21.8794 60.0568L21.6753 60.3578L21.2625 60.078L20.6901 60.9222C20.6241 61.0194 20.5966 61.0989 20.6076 61.1608C20.6184 61.2225 20.6694 61.2843 20.7605 61.3461L20.9312 61.4618Z" fill="#666666"/>
<path d="M23.5837 61.313C23.6306 61.52 23.5815 61.7476 23.4365 61.9958L22.8289 63.0349L22.4598 62.8191L23.0447 61.8189C23.1321 61.6891 23.1657 61.5304 23.1384 61.3763C23.1208 61.3063 23.0885 61.2409 23.0437 61.1843C22.9989 61.1278 22.9425 61.0814 22.8784 61.0483C22.8147 61.0072 22.7429 60.9801 22.6679 60.9688C22.5928 60.9575 22.5163 60.9622 22.4432 60.9828C22.2998 61.0249 22.1751 61.1366 22.0692 61.318L21.5146 62.2664L21.1455 62.0507L22.5462 59.6552L22.9152 59.8708L22.3284 60.8744C22.4457 60.7718 22.5941 60.7117 22.7497 60.7038C22.9089 60.6971 23.0665 60.7378 23.2025 60.8208C23.2974 60.871 23.3806 60.9408 23.4463 61.0257C23.512 61.1106 23.5589 61.2085 23.5837 61.313Z" fill="#666666"/>
<path d="M24.6787 61.6523L23.7413 63.4936L23.3604 63.2997L24.2978 61.4583L24.6787 61.6523ZM24.665 60.77C24.7356 60.7509 24.8109 60.7605 24.8744 60.7967C24.9415 60.8272 24.994 60.8826 25.0209 60.9512C25.0328 60.9828 25.0379 61.0166 25.0356 61.0503C25.0333 61.084 25.0238 61.1168 25.0078 61.1465C24.9936 61.1767 24.973 61.2032 24.9473 61.2244C24.9216 61.2455 24.8916 61.2606 24.8593 61.2687C24.7881 61.2848 24.7134 61.2738 24.6498 61.2378C24.5837 61.2081 24.5314 61.1543 24.5034 61.0875C24.4914 61.0566 24.4864 61.0235 24.4886 60.9905C24.4909 60.9574 24.5004 60.9253 24.5165 60.8964C24.5309 60.866 24.5515 60.839 24.5772 60.8172C24.6028 60.7955 24.6327 60.7794 24.665 60.77Z" fill="#666666"/>
<path d="M26.6198 62.7588C26.6904 62.959 26.6681 63.1908 26.5528 63.4541L26.0699 64.5568L25.6783 64.3851L26.1432 63.3238C26.2149 63.1847 26.2299 63.0232 26.1849 62.8733C26.1593 62.8058 26.1196 62.7446 26.0685 62.6936C26.0174 62.6427 25.9561 62.6032 25.8886 62.5778C25.8205 62.5443 25.746 62.5257 25.6702 62.5232C25.5944 62.5206 25.5189 62.5343 25.4487 62.5631C25.3112 62.6216 25.2003 62.747 25.116 62.9394L24.6752 63.9459L24.2837 63.7744L25.1126 61.8817L25.5042 62.0532L25.3222 62.4688C25.4267 62.3533 25.5671 62.2763 25.7208 62.2503C25.8782 62.2252 26.0394 62.2474 26.1841 62.3141C26.2843 62.3529 26.3749 62.4127 26.4501 62.4894C26.5252 62.566 26.5831 62.6579 26.6198 62.7588Z" fill="#666666"/>
<path d="M28.5324 63.3597C28.6269 63.4865 28.6788 63.6401 28.6805 63.7982L28.8349 63.3437L29.2397 63.4813L28.5676 65.459C28.5137 65.6284 28.4187 65.7818 28.2911 65.9056C28.1707 66.02 28.02 66.0973 27.8569 66.1284C27.6764 66.1603 27.4907 66.1437 27.3188 66.0802C27.0442 65.9868 26.8444 65.8463 26.7194 65.6587C26.5945 65.4714 26.5452 65.2438 26.5814 65.0216L26.9826 65.1579C26.9744 65.2785 27.0097 65.398 27.0821 65.4947C27.1665 65.6003 27.2814 65.6773 27.411 65.7154C27.483 65.7428 27.5597 65.7557 27.6366 65.7532C27.7136 65.7508 27.7893 65.7332 27.8594 65.7014C27.9973 65.6374 28.0984 65.5108 28.1628 65.3214L28.3245 64.8456C28.2268 64.97 28.0922 65.0602 27.94 65.1031C27.7753 65.1477 27.6008 65.1396 27.4409 65.0801C27.2796 65.0282 27.1359 64.9328 27.0256 64.8042C26.9177 64.6748 26.8496 64.5168 26.8297 64.3495C26.8119 64.1558 26.835 63.9606 26.8976 63.7765C26.9602 63.5924 27.0608 63.4235 27.1928 63.2808C27.3106 63.1603 27.4608 63.0765 27.6253 63.0397C27.791 63.0049 27.9632 63.0167 28.1226 63.0739C28.2856 63.1241 28.429 63.224 28.5324 63.3597ZM27.6363 63.4968C27.4895 63.5751 27.382 63.7147 27.3136 63.9159C27.2453 64.1172 27.2454 64.2935 27.3141 64.4448C27.35 64.5214 27.4019 64.5895 27.4662 64.6445C27.5305 64.6994 27.6057 64.7401 27.687 64.7637C27.7936 64.8017 27.9086 64.81 28.0195 64.7875C28.1284 64.7644 28.2287 64.7114 28.3091 64.6344C28.3965 64.546 28.4627 64.4388 28.5028 64.3211C28.5428 64.2033 28.5556 64.078 28.5402 63.9546C28.5239 63.8439 28.4768 63.7401 28.4044 63.6549C28.3301 63.5694 28.2339 63.5059 28.1262 63.4712C28.0474 63.4404 27.963 63.4268 27.8785 63.4312C27.794 63.4356 27.7114 63.458 27.6363 63.4968Z" fill="#666666"/>
<path d="M29.4583 65.7413C29.4302 65.8618 29.3604 65.9685 29.2614 66.0426C29.2094 66.076 29.1505 66.0969 29.0892 66.1038C29.0278 66.1106 28.9657 66.1033 28.9077 66.0822L28.9541 65.9161C28.9778 65.9248 29.0032 65.9285 29.0285 65.9268C29.0538 65.9252 29.0784 65.9182 29.1008 65.9064C29.147 65.8697 29.1781 65.8175 29.1884 65.7595L29.1975 65.727L28.988 65.6686L29.0988 65.2712L29.4889 65.38C29.5015 65.5013 29.4911 65.6239 29.4583 65.7413Z" fill="#666666"/>
<path d="M32.5136 66.0029C32.4261 66.1034 32.311 66.176 32.1827 66.2117C32.026 66.2541 31.8614 66.2575 31.7032 66.2215C31.5395 66.1925 31.3839 66.129 31.2466 66.0352C31.1249 65.9525 31.0271 65.8392 30.9629 65.7068C30.9012 65.5767 30.8778 65.4317 30.8953 65.2887L31.3444 65.3761C31.3342 65.4897 31.3658 65.6032 31.4332 65.6952C31.471 65.7458 31.5185 65.7884 31.5729 65.8206C31.6272 65.8528 31.6874 65.874 31.75 65.883C31.8031 65.8968 31.8584 65.9 31.9128 65.8922C31.9671 65.8844 32.0193 65.8659 32.0664 65.8377C32.1079 65.8099 32.1433 65.7738 32.1702 65.7317C32.1972 65.6896 32.2151 65.6424 32.2229 65.593C32.2425 65.5101 32.2309 65.4229 32.1904 65.3479C32.1497 65.2769 32.0937 65.2157 32.0265 65.1689C31.9572 65.1198 31.8605 65.0602 31.7366 64.9903C31.6089 64.9227 31.4867 64.8452 31.3711 64.7586C31.278 64.6857 31.2039 64.5913 31.1552 64.4836C31.1016 64.3546 31.0906 64.212 31.1237 64.0763C31.1463 63.9456 31.2071 63.8245 31.2985 63.7283C31.3918 63.6338 31.5107 63.5687 31.6406 63.5408C31.7916 63.5079 31.948 63.5077 32.0991 63.5403C32.3642 63.5918 32.5622 63.6966 32.6931 63.8546C32.7572 63.9305 32.8053 64.0186 32.8344 64.1135C32.8635 64.2085 32.8731 64.3084 32.8625 64.4071L32.4098 64.319C32.412 64.2187 32.3807 64.1205 32.3208 64.04C32.2502 63.9499 32.1473 63.8908 32.0339 63.8753C31.9326 63.8502 31.8257 63.8627 31.7329 63.9103C31.6903 63.9356 31.654 63.9702 31.6268 64.0115C31.5995 64.0529 31.5821 64.0999 31.5757 64.149C31.5571 64.2279 31.5682 64.311 31.6066 64.3824C31.646 64.4512 31.7005 64.5102 31.766 64.5547C31.8344 64.6024 31.9293 64.661 32.0508 64.7305C32.1811 64.7987 32.3057 64.8773 32.4234 64.9654C32.5186 65.04 32.5941 65.1367 32.6436 65.247C32.698 65.3798 32.7089 65.5264 32.6748 65.6657C32.6514 65.7903 32.5959 65.9065 32.5136 66.0029Z" fill="#666666"/>
<path d="M35.2158 64.6062L34.982 66.6592L34.5536 66.6104L34.6045 66.1633C34.5406 66.3032 34.4304 66.4166 34.2924 66.4844C34.1479 66.5539 33.9862 66.5794 33.8274 66.5579C33.7203 66.5504 33.616 66.5201 33.5216 66.4689C33.4271 66.4178 33.3447 66.3471 33.2799 66.2615C33.1534 66.0912 33.1064 65.8632 33.1389 65.5775L33.2747 64.3851L33.6994 64.4335L33.5687 65.5811C33.5475 65.7674 33.5784 65.9162 33.6613 66.0276C33.7057 66.0845 33.7616 66.1313 33.8255 66.1649C33.8893 66.1985 33.9596 66.2182 34.0316 66.2225C34.1067 66.2344 34.1835 66.2301 34.2568 66.2098C34.3301 66.1895 34.3981 66.1538 34.4565 66.105C34.5707 66.0072 34.6397 65.854 34.6635 65.6454L34.7874 64.5574L35.2158 64.6062Z" fill="#666666"/>
<path d="M37.2673 64.8743C37.4395 65.0242 37.5493 65.2331 37.5752 65.4599L37.1217 65.4456C37.1057 65.3238 37.0442 65.2126 36.9495 65.1344C36.8472 65.0547 36.721 65.0117 36.5914 65.0124C36.5143 65.0081 36.4371 65.0203 36.3651 65.0481C36.2931 65.0759 36.2278 65.1187 36.1735 65.1737C36.0599 65.2863 35.9995 65.4551 35.9925 65.68C35.9854 65.9049 36.0349 66.0778 36.1412 66.1988C36.1915 66.2576 36.2539 66.3049 36.324 66.3375C36.3942 66.3701 36.4705 66.3873 36.5479 66.388C36.6776 66.3968 36.8064 66.3612 36.9131 66.287C37.0124 66.2139 37.0807 66.1063 37.1046 65.9853L37.5582 65.9997C37.5177 66.2248 37.395 66.4269 37.2138 66.5666C37.0201 66.7078 36.7827 66.776 36.5436 66.7592C36.3587 66.7571 36.1775 66.7075 36.0173 66.6151C35.8664 66.5254 35.7448 66.3938 35.6672 66.2363C35.5864 66.058 35.5477 65.8636 35.5539 65.6681C35.56 65.4725 35.611 65.2809 35.7029 65.1081C35.7902 64.9559 35.9199 64.8323 36.0762 64.7523C36.2419 64.6702 36.4259 64.632 36.6105 64.6416C36.85 64.6399 37.0824 64.7223 37.2673 64.8743Z" fill="#666666"/>
<path d="M39.5666 64.7998C39.7503 64.9354 39.8765 65.1348 39.9205 65.3587L39.4673 65.381C39.4417 65.2609 39.3714 65.1549 39.2708 65.0846C39.1624 65.0133 39.0332 64.9806 38.9039 64.9917C38.8267 64.9936 38.7508 65.0119 38.6813 65.0454C38.6117 65.0789 38.5501 65.1269 38.5004 65.186C38.3962 65.3075 38.3496 65.4806 38.3606 65.7053C38.3716 65.93 38.4349 66.0984 38.5505 66.2104C38.6054 66.2649 38.6713 66.307 38.7439 66.3339C38.8164 66.3608 38.8939 66.3719 38.9711 66.3663C39.1011 66.3647 39.2267 66.3189 39.3271 66.2363C39.4202 66.1555 39.4796 66.0428 39.4937 65.9203L39.9469 65.8981C39.9247 66.1257 39.8186 66.337 39.6492 66.4908C39.4675 66.6471 39.2364 66.7342 38.9967 66.7368C38.8122 66.7495 38.6275 66.7145 38.4605 66.6352C38.3028 66.558 38.171 66.4366 38.0811 66.2859C37.9863 66.1147 37.932 65.924 37.9224 65.7286C37.9129 65.5331 37.9483 65.3381 38.026 65.1585C38.1009 64.9997 38.2202 64.8661 38.3695 64.7738C38.5281 64.6787 38.7084 64.6259 38.8932 64.6205C39.1318 64.5996 39.37 64.6631 39.5666 64.7998Z" fill="#666666"/>
<path d="M42.2911 65.4228L40.7145 65.6283C40.7494 65.838 40.828 65.9866 40.9503 66.0741C41.0735 66.1618 41.2262 66.1975 41.3755 66.1737C41.5042 66.161 41.6252 66.1067 41.7203 66.019C41.8069 65.9386 41.8583 65.8273 41.8633 65.7092L42.317 65.6501C42.3102 65.7946 42.2678 65.9351 42.1936 66.0593C42.1193 66.1834 42.0156 66.2873 41.8916 66.3617C41.7538 66.4455 41.5994 66.4985 41.4392 66.5171C41.2563 66.5447 41.0694 66.5247 40.8965 66.4592C40.7332 66.3949 40.592 66.2846 40.4902 66.1416C40.3819 65.9786 40.3124 65.793 40.2871 65.5989C40.2618 65.4049 40.2814 65.2076 40.3443 65.0223C40.4061 64.858 40.5143 64.7152 40.6557 64.6111C40.8078 64.5071 40.9824 64.4403 41.1651 64.4162C41.3479 64.392 41.5337 64.4111 41.7077 64.472C41.8635 64.5318 41.999 64.6349 42.0982 64.7691C42.2323 64.96 42.3001 65.1896 42.2911 65.4228ZM41.7405 64.9556C41.6821 64.875 41.6003 64.8143 41.5061 64.782C41.4107 64.75 41.3091 64.7405 41.2094 64.7545C41.0555 64.7698 40.9134 64.8438 40.8129 64.9613C40.7145 65.0775 40.6733 65.2353 40.6893 65.4349L41.8532 65.2832C41.8467 65.1657 41.8076 65.0523 41.7405 64.9556Z" fill="#666666"/>
<path d="M44.6277 64.9396L43.0728 65.272C43.1246 65.4782 43.215 65.6199 43.344 65.6972C43.4738 65.7746 43.6289 65.7978 43.7758 65.7621C43.903 65.739 44.0193 65.6751 44.1069 65.5801C44.1867 65.493 44.229 65.3778 44.2244 65.2597L44.6718 65.1642C44.6767 65.3087 44.6458 65.4522 44.5819 65.5819C44.518 65.7116 44.423 65.8236 44.3054 65.9078C44.1748 66.0024 44.0252 66.0678 43.867 66.0992C43.6869 66.1415 43.4991 66.1367 43.3214 66.0854C43.1534 66.0346 43.0038 65.936 42.8907 65.8016C42.7696 65.6479 42.6853 65.4685 42.6444 65.2771C42.6036 65.0858 42.6071 64.8876 42.6549 64.6978C42.7032 64.5291 42.7995 64.378 42.9319 64.2628C43.0752 64.1468 43.2438 64.0661 43.424 64.0273C43.6042 63.9884 43.791 63.9925 43.9694 64.0392C44.1295 64.0862 44.2728 64.1779 44.3825 64.3037C44.5316 64.4831 44.6178 64.7065 44.6277 64.9396ZM44.0411 64.5185C43.9764 64.4429 43.8899 64.389 43.7935 64.3644C43.6958 64.3401 43.5938 64.3389 43.4956 64.3609C43.3434 64.3886 43.2078 64.4739 43.117 64.5991C43.0284 64.7229 43.0001 64.8836 43.0321 65.0813L44.1799 64.836C44.1639 64.7194 44.1159 64.6095 44.0411 64.5185Z" fill="#666666"/>
<path d="M46.0579 63.4769C46.2081 63.5246 46.3387 63.6197 46.4301 63.7481L46.085 62.6105L46.4977 62.4854L47.3034 65.1407L46.8907 65.266L46.7513 64.8066C46.7467 64.9641 46.691 65.1159 46.5925 65.2389C46.4846 65.3711 46.3381 65.4663 46.1735 65.511C46.0123 65.5629 45.8398 65.5691 45.6753 65.5289C45.5122 65.4867 45.3648 65.398 45.251 65.2736C45.1238 65.1266 45.0288 64.9545 44.9724 64.7684C44.9159 64.5823 44.8992 64.3864 44.9233 64.1935C44.9488 64.0269 45.0221 63.8713 45.1342 63.7455C45.2487 63.6207 45.3955 63.53 45.5583 63.4835C45.7201 63.4293 45.8947 63.427 46.0579 63.4769ZM45.4096 64.1106C45.3359 64.2598 45.3299 64.436 45.3916 64.6393C45.4533 64.8426 45.5562 64.9858 45.7003 65.0688C45.7741 65.1101 45.8559 65.1352 45.9402 65.1424C46.0245 65.1496 46.1093 65.1387 46.1891 65.1105C46.2979 65.0794 46.3962 65.0191 46.4732 64.9362C46.5482 64.8539 46.5988 64.7524 46.6194 64.643C46.6388 64.5201 46.6302 64.3945 46.5941 64.2754C46.558 64.1564 46.4953 64.0471 46.4109 63.9558C46.3332 63.8754 46.2344 63.8184 46.1259 63.7914C46.0158 63.7653 45.9006 63.7697 45.7928 63.8043C45.7108 63.8252 45.6342 63.8633 45.5681 63.9162C45.5021 63.969 45.448 64.0353 45.4096 64.1106Z" fill="#666666"/>
<path d="M48.2626 62.3059L48.5756 63.0448L49.4734 62.6644L49.6021 62.9683L48.7044 63.3486L49.0248 64.1049L50.0261 63.6806L50.1621 64.0017L48.7671 64.5927L47.7344 62.1549L49.1294 61.564L49.2639 61.8817L48.2626 62.3059Z" fill="#666666"/>
<path d="M51.1793 63.0101L50.9655 61.2975L51.3735 61.0903L51.6071 63.2892L51.1457 63.5236L49.5078 62.0379L49.9157 61.8308L51.1793 63.0101Z" fill="#666666"/>
<path d="M53.8236 60.9116L52.4661 61.7393C52.5832 61.9168 52.7154 62.0207 52.8626 62.051C53.0108 62.0811 53.1649 62.0518 53.2916 61.9694C53.4041 61.9056 53.4927 61.8069 53.544 61.6882C53.5905 61.5795 53.5922 61.4569 53.5489 61.347L53.9396 61.1089C53.992 61.2436 54.0103 61.3893 53.9928 61.5328C53.9754 61.6764 53.9228 61.8134 53.8397 61.9317C53.7477 62.0643 53.6282 62.1755 53.4892 62.2575C53.3333 62.3569 53.1545 62.4145 52.9699 62.4249C52.7945 62.4324 52.6207 62.3889 52.4696 62.2995C52.3044 62.1946 52.1655 62.0531 52.0636 61.886C51.9618 61.7189 51.8996 61.5307 51.8819 61.3358C51.8717 61.1605 51.9125 60.9861 51.9995 60.8336C52.0964 60.6768 52.2288 60.5449 52.386 60.4486C52.5432 60.3524 52.7209 60.2944 52.9046 60.2795C53.0713 60.2708 53.2369 60.31 53.382 60.3925C53.5821 60.5126 53.7372 60.6949 53.8237 60.9116L53.8236 60.9116ZM53.1308 60.7082C53.0447 60.6581 52.9453 60.6358 52.846 60.6446C52.7458 60.654 52.6492 60.6866 52.5638 60.7398C52.4293 60.8163 52.3296 60.9416 52.2853 61.0898C52.2426 61.2359 52.269 61.397 52.3646 61.5729L53.3668 60.9618C53.3131 60.857 53.2314 60.7692 53.1308 60.7082Z" fill="#666666"/>
<path d="M54.2093 59.3749C54.2742 59.2308 54.378 59.1076 54.5091 59.0192L54.7769 59.3993L54.6727 59.4728C54.5357 59.5595 54.433 59.691 54.3821 59.845C54.3416 59.9851 54.3819 60.141 54.5028 60.3126L55.1053 61.1679L54.7559 61.4141L53.5659 59.7249L53.9154 59.4787L54.1486 59.8098C54.1277 59.662 54.1487 59.5114 54.2093 59.3749Z" fill="#666666"/>
<path d="M54.953 58.7233L56.3873 59.5185L55.882 57.9756L56.2531 57.677L57.1917 60.835L56.8207 61.1336L56.5218 60.0505L54.5791 59.0242L54.953 58.7233Z" fill="#666666"/>
<path d="M58.5175 55.5089L59.5461 57.3906L59.2072 57.7198L57.7281 56.9297L58.4703 58.436L58.1342 58.7626L56.2827 57.6807L56.592 57.3801L58.0399 58.3052L57.2455 56.7451L57.5682 56.4315L59.1103 57.265L58.227 55.7911L58.5175 55.5089Z" fill="#666666"/>
<path d="M59.9372 54.1121C60.1492 54.1015 60.3649 54.189 60.5844 54.3746L61.5036 55.152L61.2275 55.4783L60.3427 54.7301C60.2299 54.6216 60.0794 54.5612 59.9229 54.5616C59.8509 54.5669 59.7809 54.5875 59.7175 54.6219C59.6541 54.6564 59.5987 54.7039 59.5551 54.7613C59.5036 54.8171 59.4645 54.8831 59.4405 54.955C59.4165 55.027 59.408 55.1032 59.4157 55.1787C59.4325 55.3273 59.5211 55.4693 59.6815 55.6048L60.5204 56.3144L60.2444 56.6409L58.1255 54.8489L58.4016 54.5225L59.2892 55.2731C59.2083 55.14 59.1745 54.9834 59.1935 54.8287C59.2143 54.6708 59.2815 54.5225 59.3868 54.4028C59.4525 54.318 59.5356 54.2481 59.6305 54.1979C59.7254 54.1478 59.83 54.1185 59.9372 54.1121Z" fill="#666666"/>
<path d="M62.2224 52.5493L61.2992 53.8439C61.4766 53.9612 61.6389 54.0048 61.7862 53.9747C61.9343 53.9442 62.0645 53.8568 62.1487 53.7312C62.2271 53.6284 62.2698 53.5028 62.2703 53.3735C62.2704 53.2553 62.2239 53.1418 62.1408 53.0577L62.4064 52.6852C62.5076 52.7886 62.5817 52.9154 62.622 53.0542C62.6624 53.1931 62.6678 53.3398 62.6379 53.4813C62.6054 53.6393 62.5391 53.7885 62.4436 53.9184C62.3392 54.0711 62.1974 54.1944 62.0316 54.2765C61.8733 54.3523 61.6964 54.3805 61.5223 54.3577C61.3292 54.326 61.146 54.2505 60.9866 54.1368C60.8273 54.0232 60.6962 53.8746 60.6033 53.7023C60.5251 53.5452 60.4942 53.3687 60.5143 53.1943C60.5417 53.012 60.6116 52.8387 60.7184 52.6884C60.8251 52.5381 60.9658 52.4151 61.1289 52.3292C61.2788 52.2557 61.4465 52.2267 61.6123 52.2456C61.8434 52.2773 62.0577 52.384 62.2224 52.5493ZM61.5053 52.6345C61.4065 52.6223 61.3064 52.6409 61.2186 52.6879C61.1301 52.7359 61.054 52.8039 60.9964 52.8863C60.9027 53.0094 60.8602 53.1639 60.8777 53.3176C60.8958 53.4687 60.9834 53.6064 61.1404 53.7307L61.822 52.775C61.7314 52.6998 61.6218 52.6511 61.5053 52.6345Z" fill="#666666"/>
<path d="M61.9728 50.9854C61.976 50.8274 62.0231 50.6733 62.1089 50.5405L62.5045 50.785L62.4374 50.8934C62.3455 51.027 62.3027 51.1882 62.3163 51.3498C62.3341 51.4946 62.4324 51.6221 62.611 51.7325L63.5009 52.2826L63.2762 52.6462L61.5186 51.5599L61.7433 51.1962L62.0878 51.4091C62.0105 51.2814 61.9707 51.1346 61.9728 50.9854Z" fill="#666666"/>
<path d="M64.1678 49.1522L63.4224 50.5566C63.6137 50.6496 63.7803 50.6715 63.9224 50.6224C64.0652 50.5728 64.1828 50.469 64.2499 50.3334C64.3141 50.2212 64.3399 50.091 64.3235 49.9628C64.308 49.8456 64.247 49.7393 64.1537 49.6668L64.3681 49.2627C64.482 49.3519 64.572 49.4678 64.6303 49.6002C64.6885 49.7326 64.7131 49.8773 64.702 50.0215C64.6905 50.1824 64.6444 50.3389 64.5667 50.4803C64.4833 50.6454 64.3589 50.7862 64.2054 50.8893C64.0583 50.9852 63.8866 51.0364 63.7111 51.0366C63.5155 51.0306 63.3239 50.9797 63.1511 50.888C62.9782 50.7963 62.8287 50.6661 62.7141 50.5076C62.6159 50.362 62.562 50.1911 62.5591 50.0156C62.5624 49.8312 62.609 49.6503 62.6951 49.4873C62.7812 49.3243 62.9045 49.1839 63.0549 49.0773C63.1939 48.9849 63.3563 48.9341 63.5232 48.9309C63.7565 48.9321 63.9829 49.0098 64.1678 49.1522ZM63.4681 49.3306C63.3686 49.3315 63.2717 49.3631 63.1908 49.4211C63.1094 49.4804 63.0429 49.5577 62.9966 49.6471C62.9199 49.7814 62.8981 49.9402 62.9356 50.0902C62.9734 50.2376 63.0782 50.3625 63.2502 50.4652L63.8004 49.4284C63.7008 49.3657 63.5858 49.3318 63.4681 49.3306Z" fill="#666666"/>
<path d="M62.9844 47.4402L64.6914 48.2792L64.5422 48.6069L62.7886 47.8702L62.9844 47.4402ZM65.0436 48.3654L65.4736 48.5612L65.2716 49.0048L64.8415 48.809L65.0436 48.3654Z" fill="#666666"/>
<path d="M37.3656 60.2523C49.9867 60.2523 60.218 50.021 60.218 37.3999C60.218 24.7789 49.9867 14.5475 37.3656 14.5475C24.7446 14.5475 14.5132 24.7789 14.5132 37.3999C14.5132 50.021 24.7446 60.2523 37.3656 60.2523Z" fill="black"/>
<path d="M37.3657 60.4399C31.672 60.4325 26.1841 58.3108 21.9663 54.4861C17.7486 50.6615 15.1017 45.4066 14.5392 39.7408C13.9766 34.0751 15.5385 28.4023 18.9218 23.8229C22.3051 19.2436 27.2687 16.0841 32.8497 14.9573C38.4307 13.8305 44.2313 14.8167 49.1263 17.7247C54.0213 20.6327 57.6617 25.2551 59.3414 30.6953C61.0212 36.1355 60.6204 42.0057 58.217 47.1672C55.8135 52.3286 51.5787 56.4134 46.3339 58.6292C43.4967 59.83 40.4464 60.4459 37.3657 60.4399ZM37.3657 14.7351C24.8682 14.7351 14.7007 24.9025 14.7007 37.4C14.7007 49.8975 24.8682 60.0649 37.3657 60.0649C49.8631 60.0649 60.0306 49.8975 60.0306 37.4C60.0306 24.9025 49.8631 14.7351 37.3657 14.7351Z" fill="white"/>
<mask id="mask0_2301_13934" style="mask-type:luminance" maskUnits="userSpaceOnUse" x="21" y="20" width="33" height="32">
<path d="M53.3127 20.3125H21.7119V51.9133H53.3127V20.3125Z" fill="white"/>
</mask>
<g mask="url(#mask0_2301_13934)">
<path d="M41.2548 46.0326H33.7694C33.2855 46.0326 32.925 45.6475 32.925 45.1389V44.9217C32.925 43.075 32.1597 41.2728 30.7722 39.8409C29.8795 38.9258 29.1848 37.8367 28.7311 36.6415C28.2775 35.4463 28.0748 34.1706 28.1355 32.8936C28.3429 28.0893 32.2683 24.154 37.0677 23.9367C38.956 23.848 40.8271 24.3316 42.4359 25.3241C44.0448 26.3166 45.3165 27.7719 46.0844 29.4993C46.8523 31.2267 47.0806 33.1457 46.7396 35.0051C46.3985 36.8644 45.5039 38.5775 44.1729 39.9199C42.8348 41.2678 42.0942 42.9861 42.0942 44.7538V45.1932C42.0943 45.3035 42.0726 45.4127 42.0305 45.5146C41.9883 45.6165 41.9265 45.709 41.8485 45.787C41.7706 45.865 41.678 45.9268 41.5761 45.9689C41.4742 46.0111 41.3651 46.0327 41.2548 46.0326ZM37.517 24.4058C37.3738 24.4058 37.2356 24.4108 37.0924 24.4157C32.5399 24.6231 28.8219 28.3559 28.6243 32.9084C28.5661 34.1202 28.7583 35.331 29.189 36.4652C29.6198 37.5994 30.2797 38.6325 31.1277 39.5002C32.6041 41.0209 33.4138 42.9466 33.4138 44.9167V45.134C33.4138 45.371 33.5669 45.5438 33.7743 45.5438H41.2597C41.3552 45.5433 41.4465 45.5051 41.514 45.4376C41.5815 45.3702 41.6196 45.2788 41.6202 45.1834V44.7439C41.6202 42.8479 42.4102 41.0111 43.8372 39.5693C45.0753 38.3222 45.9163 36.7364 46.2541 35.0118C46.5919 33.2873 46.4114 31.5013 45.7353 29.8793C45.0592 28.2572 43.9179 26.8718 42.4553 25.8976C40.9927 24.9235 39.2743 24.4044 37.517 24.4058Z" fill="white"/>
<path d="M40.5388 47.5979H34.4853C33.8829 47.5979 33.394 47.1387 33.394 46.5708C33.394 46.008 33.8829 45.5438 34.4853 45.5438C34.5494 45.5438 34.611 45.5693 34.6563 45.6147C34.7017 45.6601 34.7272 45.7216 34.7272 45.7858C34.7272 45.8499 34.7017 45.9115 34.6563 45.9568C34.611 46.0022 34.5494 46.0277 34.4853 46.0277C34.1544 46.0277 33.8779 46.2697 33.8779 46.5659C33.8779 46.8622 34.1495 47.1041 34.4853 47.1041H40.5388C40.8745 47.1041 41.1461 46.8622 41.1461 46.5659C41.1461 46.2697 40.8745 46.0277 40.5388 46.0277C40.4746 46.0277 40.4131 46.0022 40.3677 45.9568C40.3223 45.9115 40.2968 45.8499 40.2968 45.7858C40.2968 45.7216 40.3223 45.6601 40.3677 45.6147C40.4131 45.5693 40.4746 45.5438 40.5388 45.5438C41.1412 45.5438 41.63 46.003 41.63 46.5708C41.63 47.1387 41.1412 47.5979 40.5388 47.5979Z" fill="white"/>
<path d="M40.5388 49.1582H34.4853C33.8829 49.1582 33.394 48.699 33.394 48.1312C33.394 47.5683 33.8829 47.1041 34.4853 47.1041C34.5171 47.104 34.5487 47.1101 34.5782 47.1222C34.6077 47.1343 34.6345 47.1521 34.6571 47.1746C34.6797 47.197 34.6977 47.2238 34.7099 47.2532C34.7221 47.2826 34.7284 47.3142 34.7284 47.3461C34.7284 47.378 34.7221 47.4095 34.7099 47.4389C34.6977 47.4684 34.6797 47.4951 34.6571 47.5176C34.6345 47.5401 34.6077 47.5579 34.5782 47.57C34.5487 47.582 34.5171 47.5882 34.4853 47.588C34.1544 47.588 33.8779 47.83 33.8779 48.1262C33.8779 48.4225 34.1495 48.6644 34.4853 48.6644H40.5388C40.8745 48.6644 41.1461 48.4225 41.1461 48.1262C41.1461 47.83 40.8745 47.588 40.5388 47.588C40.5069 47.5882 40.4753 47.582 40.4458 47.57C40.4163 47.5579 40.3895 47.5401 40.3669 47.5176C40.3443 47.4951 40.3264 47.4684 40.3141 47.4389C40.3019 47.4095 40.2956 47.378 40.2956 47.3461C40.2956 47.3142 40.3019 47.2826 40.3141 47.2532C40.3264 47.2238 40.3443 47.197 40.3669 47.1746C40.3895 47.1521 40.4163 47.1343 40.4458 47.1222C40.4753 47.1101 40.5069 47.104 40.5388 47.1041C41.1412 47.1041 41.63 47.5633 41.63 48.1312C41.63 48.699 41.1412 49.1582 40.5388 49.1582Z" fill="white"/>
<path d="M40.3906 50.6147H34.6334C34.3754 50.6147 34.128 50.5123 33.9455 50.3298C33.7631 50.1474 33.6606 49.9 33.6606 49.642C33.6606 49.384 33.7631 49.1366 33.9455 48.9542C34.128 48.7718 34.3754 48.6693 34.6334 48.6693H40.3906C40.6486 48.6693 40.896 48.7718 41.0784 48.9542C41.2609 49.1366 41.3633 49.384 41.3633 49.642C41.3633 49.9 41.2609 50.1474 41.0784 50.3298C40.896 50.5123 40.6486 50.6147 40.3906 50.6147ZM34.6334 49.1581C34.505 49.1581 34.3819 49.2091 34.2912 49.2999C34.2004 49.3906 34.1495 49.5137 34.1495 49.642C34.1495 49.7704 34.2004 49.8934 34.2912 49.9842C34.3819 50.0749 34.505 50.1259 34.6334 50.1259H40.3906C40.519 50.1259 40.642 50.0749 40.7328 49.9842C40.8235 49.8934 40.8745 49.7704 40.8745 49.642C40.8745 49.5137 40.8235 49.3906 40.7328 49.2999C40.642 49.2091 40.519 49.1581 40.3906 49.1581H34.6334Z" fill="white"/>
<path d="M37.9912 51.9133H37.0382C36.1297 51.9133 35.389 51.222 35.389 50.3728C35.389 50.3086 35.4145 50.247 35.4599 50.2017C35.5053 50.1563 35.5668 50.1308 35.631 50.1308C35.6952 50.1308 35.7567 50.1563 35.8021 50.2017C35.8474 50.247 35.8729 50.3086 35.8729 50.3728C35.8729 50.9554 36.3963 51.4245 37.0382 51.4245H37.9912C38.6331 51.4245 39.1565 50.9505 39.1565 50.3728C39.1565 50.3086 39.1819 50.247 39.2273 50.2017C39.2727 50.1563 39.3342 50.1308 39.3984 50.1308C39.4626 50.1308 39.5241 50.1563 39.5695 50.2017C39.6149 50.247 39.6403 50.3086 39.6403 50.3728C39.6403 51.222 38.8997 51.9133 37.9912 51.9133ZM39.8231 46.0326C39.7913 46.0326 39.7598 46.0263 39.7305 46.0142C39.7011 46.002 39.6744 45.9842 39.652 45.9617C39.6295 45.9393 39.6117 45.9126 39.5995 45.8832C39.5874 45.8539 39.5811 45.8224 39.5811 45.7906V43.702C39.5811 43.3268 39.3392 43.0256 39.0429 43.0256H35.9816C35.6853 43.0256 35.4434 43.3317 35.4434 43.702V45.7906C35.4434 45.8548 35.4179 45.9163 35.3725 45.9617C35.3271 46.0071 35.2656 46.0326 35.2014 46.0326C35.1372 46.0326 35.0757 46.0071 35.0303 45.9617C34.985 45.9163 34.9595 45.8548 34.9595 45.7906V43.702C34.9595 43.0601 35.4187 42.5367 35.9865 42.5367H39.0478C39.6107 42.5367 40.0749 43.0601 40.0749 43.702V45.7906C40.0725 45.8557 40.0449 45.9174 39.9979 45.9626C39.9509 46.0077 39.8882 46.0328 39.8231 46.0326Z" fill="white"/>
<path d="M36.154 43.0256C36.099 43.0259 36.0456 43.0075 36.0026 42.9734C35.9595 42.9393 35.9293 42.8915 35.917 42.838L35.5022 41.0703C35.4878 41.0074 35.499 40.9414 35.5333 40.8868C35.5675 40.8322 35.6221 40.7934 35.6849 40.779C35.7478 40.7646 35.8138 40.7757 35.8684 40.81C35.9231 40.8442 35.9618 40.8988 35.9763 40.9617L36.391 42.7293C36.3982 42.7605 36.3992 42.7927 36.3939 42.8242C36.3886 42.8557 36.3772 42.8859 36.3602 42.913C36.3432 42.94 36.3211 42.9635 36.295 42.982C36.2689 43.0004 36.2395 43.0136 36.2083 43.0207C36.1905 43.0245 36.1722 43.0262 36.154 43.0256ZM38.8697 43.0256C38.8514 43.0266 38.8331 43.025 38.8154 43.0207C38.753 43.0054 38.6991 42.9664 38.665 42.912C38.6309 42.8576 38.6193 42.7921 38.6327 42.7293L39.0474 40.9617C39.062 40.8989 39.1009 40.8445 39.1555 40.8103C39.21 40.7761 39.2759 40.7648 39.3388 40.779C39.4011 40.7942 39.4551 40.8332 39.4892 40.8876C39.5233 40.942 39.5349 41.0075 39.5215 41.0703L39.1067 42.838C39.095 42.8918 39.065 42.94 39.0218 42.9742C38.9785 43.0084 38.9248 43.0266 38.8697 43.0256Z" fill="white"/>
</g>
<path d="M27.7308 27.9214C27.6872 27.9216 27.6444 27.9096 27.6073 27.8868L26.3334 27.1511C26.3055 27.1356 26.281 27.1146 26.2614 27.0894C26.2418 27.0642 26.2274 27.0353 26.2191 27.0045C26.2108 26.9737 26.2088 26.9415 26.2132 26.9098C26.2175 26.8782 26.2282 26.8478 26.2445 26.8203C26.2768 26.7649 26.3297 26.7244 26.3916 26.7078C26.4536 26.6912 26.5196 26.6996 26.5754 26.7314L27.8493 27.4671C27.8771 27.4827 27.9016 27.5037 27.9212 27.5289C27.9408 27.5541 27.9552 27.583 27.9635 27.6138C27.9718 27.6446 27.9738 27.6768 27.9695 27.7085C27.9651 27.7401 27.9544 27.7705 27.9381 27.798C27.9183 27.8356 27.8884 27.8671 27.8518 27.8889C27.8152 27.9107 27.7733 27.9219 27.7308 27.9214Z" fill="#FFD700"/>
<path d="M26.2198 33.5651H24.7434C24.6792 33.5651 24.6177 33.5396 24.5723 33.4942C24.527 33.4488 24.5015 33.3873 24.5015 33.3231C24.5015 33.259 24.527 33.1974 24.5723 33.152C24.6177 33.1067 24.6792 33.0812 24.7434 33.0812H26.2148C26.279 33.0813 26.3404 33.1068 26.3858 33.1522C26.4311 33.1975 26.4567 33.259 26.4568 33.3231C26.4577 33.3547 26.4522 33.3862 26.4407 33.4156C26.4292 33.4451 26.4118 33.4719 26.3897 33.4945C26.3676 33.5171 26.3411 33.535 26.3119 33.5471C26.2827 33.5592 26.2514 33.5653 26.2198 33.5651Z" fill="#FFD700"/>
<path d="M31.8632 23.7836C31.8201 23.7836 31.7777 23.7721 31.7404 23.7505C31.7031 23.7288 31.6723 23.6976 31.6509 23.6602L30.9201 22.3863C30.9042 22.3587 30.8939 22.3283 30.8898 22.2967C30.8856 22.2652 30.8877 22.2331 30.896 22.2024C30.9042 22.1717 30.9184 22.1428 30.9378 22.1176C30.9572 22.0924 30.9814 22.0712 31.0089 22.0553C31.0365 22.0394 31.0669 22.0291 31.0985 22.025C31.13 22.0209 31.1621 22.023 31.1928 22.0313C31.2236 22.0395 31.2523 22.0538 31.2776 22.0732C31.3028 22.0926 31.324 22.1167 31.3398 22.1443L32.0755 23.4182C32.0922 23.4456 32.1031 23.476 32.1076 23.5077C32.1121 23.5394 32.1101 23.5717 32.1018 23.6026C32.0935 23.6336 32.079 23.6625 32.0592 23.6876C32.0394 23.7128 32.0148 23.7337 31.9867 23.749C31.9498 23.7724 31.9069 23.7844 31.8632 23.7836Z" fill="#FFD700"/>
<path d="M37.512 22.2727C37.4802 22.2727 37.4487 22.2665 37.4194 22.2543C37.39 22.2422 37.3633 22.2243 37.3409 22.2019C37.3184 22.1794 37.3006 22.1527 37.2884 22.1234C37.2763 22.094 37.27 22.0626 37.27 22.0308V20.5544C37.27 20.4903 37.2955 20.4287 37.3409 20.3834C37.3863 20.338 37.4478 20.3125 37.512 20.3125C37.5761 20.3125 37.6377 20.338 37.683 20.3834C37.7284 20.4287 37.7539 20.4903 37.7539 20.5544V22.0259C37.7544 22.058 37.7485 22.0899 37.7365 22.1197C37.7246 22.1496 37.7068 22.1767 37.6844 22.1997C37.6619 22.2226 37.6351 22.2409 37.6055 22.2535C37.5759 22.266 37.5441 22.2725 37.512 22.2727Z" fill="#FFD700"/>
<path d="M47.2935 27.9214C47.2504 27.9214 47.2081 27.91 47.1708 27.8883C47.1335 27.8666 47.1026 27.8355 47.0812 27.798C47.0646 27.7706 47.0537 27.7402 47.0492 27.7085C47.0447 27.6768 47.0467 27.6445 47.055 27.6136C47.0633 27.5827 47.0778 27.5538 47.0976 27.5286C47.1173 27.5034 47.142 27.4825 47.1701 27.4672L48.444 26.7315C48.4716 26.7156 48.502 26.7053 48.5335 26.7011C48.5651 26.697 48.5971 26.6991 48.6278 26.7074C48.6585 26.7156 48.6873 26.7299 48.7126 26.7492C48.7378 26.7686 48.7589 26.7928 48.7748 26.8203C48.7907 26.8479 48.801 26.8783 48.8052 26.9099C48.8093 26.9414 48.8072 26.9734 48.7989 27.0042C48.7907 27.0349 48.7764 27.0637 48.7571 27.0889C48.7377 27.1141 48.7135 27.1353 48.686 27.1512L47.412 27.8869C47.376 27.908 47.3353 27.9199 47.2935 27.9214Z" fill="#FFD700"/>
<path d="M50.2808 33.5651H48.8093C48.7452 33.5651 48.6836 33.5396 48.6382 33.4942C48.5929 33.4488 48.5674 33.3873 48.5674 33.3231C48.5674 33.259 48.5929 33.1974 48.6382 33.152C48.6836 33.1067 48.7452 33.0812 48.8093 33.0812H50.2807C50.3449 33.0812 50.4064 33.1067 50.4518 33.152C50.4972 33.1974 50.5227 33.259 50.5227 33.3231C50.5227 33.3873 50.4972 33.4488 50.4518 33.4942C50.4064 33.5396 50.3449 33.5651 50.2808 33.5651Z" fill="#FFD700"/>
<path d="M43.161 23.7837C43.1174 23.7838 43.0747 23.7719 43.0375 23.7491C43.0096 23.7336 42.9852 23.7126 42.9655 23.6874C42.9459 23.6622 42.9315 23.6333 42.9232 23.6025C42.9149 23.5716 42.9129 23.5395 42.9173 23.5078C42.9216 23.4762 42.9323 23.4457 42.9486 23.4183L43.6843 22.1444C43.7166 22.089 43.7695 22.0485 43.8315 22.0319C43.8934 22.0152 43.9594 22.0237 44.0152 22.0555C44.043 22.0711 44.0675 22.0921 44.0871 22.1173C44.1068 22.1425 44.1211 22.1714 44.1294 22.2022C44.1377 22.233 44.1397 22.2652 44.1354 22.2968C44.131 22.3285 44.1204 22.3589 44.104 22.3864L43.3683 23.6602C43.3489 23.6982 43.3191 23.73 43.2824 23.7518C43.2457 23.7736 43.2036 23.7847 43.161 23.7837Z" fill="#FFD700"/>
<path d="M35.5667 41.2629C35.2807 41.2625 35.0002 41.1843 34.7553 41.0367C34.5104 40.8891 34.3102 40.6777 34.1762 40.425C34.0423 40.1723 33.9796 39.888 33.9949 39.6024C34.0103 39.3169 34.103 39.0408 34.2632 38.8039C34.2996 38.7515 34.3552 38.7154 34.418 38.7034C34.4807 38.6914 34.5457 38.7044 34.5989 38.7398C34.6254 38.7574 34.6481 38.7802 34.6656 38.8067C34.6832 38.8332 34.6953 38.863 34.7013 38.8942C34.7073 38.9254 34.707 38.9576 34.7004 38.9887C34.6939 39.0198 34.6812 39.0493 34.6631 39.0755C34.5401 39.2541 34.4747 39.466 34.4755 39.6828C34.4751 39.8264 34.5031 39.9685 34.5578 40.1012C34.6125 40.2339 34.6928 40.3545 34.7942 40.4561C34.8955 40.5577 35.0159 40.6384 35.1485 40.6934C35.2811 40.7484 35.4232 40.7767 35.5667 40.7767C35.7102 40.7767 35.8523 40.7484 35.9849 40.6934C36.1175 40.6384 36.2379 40.5577 36.3392 40.4561C36.4406 40.3545 36.5209 40.2339 36.5756 40.1012C36.6303 39.9685 36.6583 39.8264 36.6579 39.6828V27.1116C36.6575 27.0027 36.6313 26.8954 36.5815 26.7985C36.5316 26.7015 36.4596 26.6178 36.3712 26.554C36.2828 26.4903 36.1806 26.4484 36.0729 26.4317C35.9653 26.4149 35.8552 26.4239 35.7516 26.4579C35.6481 26.4919 35.554 26.5498 35.4772 26.6271C35.4003 26.7043 35.3428 26.7987 35.3094 26.9024C35.276 27.0061 35.2675 27.1162 35.2848 27.2238C35.302 27.3314 35.3445 27.4334 35.4087 27.5215C35.442 27.574 35.4541 27.6373 35.4424 27.6984C35.4307 27.7595 35.3962 27.8138 35.3458 27.8503C35.2955 27.8869 35.2331 27.9028 35.1713 27.8949C35.1096 27.887 35.0533 27.8559 35.0137 27.8079C34.9038 27.6574 34.8311 27.483 34.8015 27.299C34.772 27.115 34.7864 26.9267 34.8437 26.7493C34.9009 26.572 34.9993 26.4107 35.1309 26.2788C35.2624 26.1468 35.4234 26.0478 35.6005 25.99C35.7777 25.9322 35.966 25.9171 36.1501 25.9461C36.3342 25.9751 36.5088 26.0472 36.6596 26.1566C36.8104 26.266 36.9332 26.4096 37.0179 26.5756C37.1026 26.7416 37.1467 26.9253 37.1468 27.1116V39.6878C37.1445 40.1057 36.9772 40.5058 36.6812 40.8008C36.3852 41.0959 35.9846 41.262 35.5667 41.2629Z" fill="#989898"/>
<path d="M39.4574 41.2628C39.0398 41.2625 38.6393 41.0965 38.344 40.8012C38.0487 40.5058 37.8826 40.1054 37.8823 39.6877V27.1116C37.8823 26.9252 37.9265 26.7416 38.0112 26.5755C38.0958 26.4095 38.2186 26.2659 38.3695 26.1565C38.5203 26.0471 38.6949 25.9749 38.879 25.946C39.0631 25.917 39.2514 25.9321 39.4286 25.9899C39.6057 26.0477 39.7667 26.1467 39.8982 26.2786C40.0298 26.4106 40.1282 26.5719 40.1855 26.7492C40.2427 26.9266 40.2571 27.115 40.2276 27.299C40.198 27.4829 40.1253 27.6573 40.0154 27.8078C39.9758 27.8558 39.9194 27.887 39.8577 27.8949C39.796 27.9028 39.7336 27.8868 39.6833 27.8503C39.6329 27.8138 39.5983 27.7594 39.5867 27.6983C39.575 27.6372 39.587 27.5739 39.6204 27.5214C39.6851 27.4333 39.728 27.3312 39.7455 27.2233C39.7631 27.1154 39.7549 27.005 39.7215 26.9009C39.6882 26.7968 39.6306 26.7021 39.5536 26.6246C39.4766 26.547 39.3823 26.4889 39.2785 26.4548C39.1746 26.4207 39.0642 26.4118 38.9562 26.4286C38.8482 26.4455 38.7458 26.4876 38.6573 26.5517C38.5687 26.6158 38.4966 26.7 38.4469 26.7973C38.3972 26.8946 38.3712 27.0023 38.3712 27.1116V39.6877C38.3708 39.8313 38.3988 39.9734 38.4535 40.1061C38.5082 40.2388 38.5885 40.3594 38.6898 40.461C38.7912 40.5626 38.9116 40.6432 39.0442 40.6983C39.1767 40.7533 39.3189 40.7816 39.4624 40.7816C39.6059 40.7816 39.748 40.7533 39.8806 40.6983C40.0131 40.6432 40.1335 40.5626 40.2349 40.461C40.3363 40.3594 40.4166 40.2388 40.4713 40.1061C40.526 39.9734 40.5539 39.8313 40.5536 39.6877C40.5544 39.4709 40.489 39.259 40.366 39.0804C40.3299 39.0274 40.3165 38.9622 40.3285 38.8992C40.3406 38.8363 40.3771 38.7807 40.4301 38.7446C40.4832 38.7086 40.5484 38.6952 40.6113 38.7072C40.6743 38.7192 40.7299 38.7558 40.7659 38.8088C40.9268 39.0456 41.0199 39.3219 41.0352 39.6078C41.0505 39.8937 40.9874 40.1783 40.8527 40.431C40.718 40.6836 40.5168 40.8946 40.2709 41.0412C40.025 41.1878 39.7437 41.2645 39.4574 41.2628Z" fill="#989898"/>
<path d="M41.4719 40.0877C41.2023 40.0875 40.9361 40.0286 40.6917 39.9149C40.6624 39.9019 40.636 39.8832 40.6139 39.8599C40.5919 39.8366 40.5747 39.8091 40.5634 39.7791C40.5521 39.7491 40.5469 39.7172 40.548 39.6852C40.5491 39.6531 40.5566 39.6216 40.57 39.5925C40.5835 39.5634 40.6025 39.5372 40.6261 39.5155C40.6498 39.4938 40.6775 39.4771 40.7076 39.4662C40.7378 39.4553 40.7698 39.4505 40.8018 39.4521C40.8338 39.4537 40.8652 39.4616 40.8941 39.4754C41.0625 39.553 41.2449 39.5958 41.4302 39.6012C41.6155 39.6066 41.8 39.5745 41.9727 39.5069C42.1453 39.4392 42.3025 39.3374 42.4348 39.2075C42.5671 39.0777 42.6719 38.9224 42.7427 38.7511C42.8136 38.5797 42.8491 38.3959 42.8472 38.2105C42.8453 38.0251 42.8059 37.842 42.7315 37.6722C42.6571 37.5023 42.5491 37.3493 42.4141 37.2222C42.2791 37.0951 42.1199 36.9966 41.9459 36.9326C41.9156 36.9221 41.8878 36.9057 41.864 36.8842C41.8403 36.8628 41.8212 36.8367 41.8078 36.8076C41.7944 36.7786 41.7871 36.7471 41.7862 36.7151C41.7853 36.6831 41.7909 36.6513 41.8027 36.6215C41.8134 36.5915 41.83 36.5639 41.8516 36.5403C41.8731 36.5168 41.8991 36.4978 41.9281 36.4845C41.9571 36.4711 41.9884 36.4637 42.0203 36.4627C42.0522 36.4616 42.0839 36.4669 42.1137 36.4783C42.5242 36.629 42.8685 36.9194 43.0863 37.2986C43.3041 37.6777 43.3816 38.1214 43.305 38.5519C43.2284 38.9824 43.0028 39.3722 42.6676 39.6531C42.3324 39.9339 41.9091 40.0878 41.4719 40.0877Z" fill="#989898"/>
<path d="M42.2722 36.0437C41.8229 36.0429 41.3802 35.9357 40.9804 35.7308C40.5806 35.526 40.235 35.2293 39.9719 34.8651C39.7089 34.5008 39.5359 34.0795 39.4671 33.6355C39.3983 33.1915 39.4357 32.7376 39.5763 32.3109C39.5966 32.25 39.6402 32.1996 39.6976 32.1709C39.755 32.1422 39.8215 32.1375 39.8824 32.1578C39.9433 32.1781 39.9936 32.2218 40.0223 32.2792C40.051 32.3366 40.0558 32.403 40.0355 32.4639C39.9155 32.8276 39.8859 33.215 39.9491 33.5927C40.0123 33.9703 40.1665 34.3269 40.3984 34.6317C40.6302 34.9365 40.9327 35.1802 41.2799 35.3419C41.627 35.5036 42.0082 35.5784 42.3907 35.5598C42.4229 35.5577 42.4552 35.5621 42.4857 35.5727C42.5162 35.5833 42.5443 35.5999 42.5682 35.6215C42.5921 35.6432 42.6115 35.6694 42.6251 35.6987C42.6387 35.7279 42.6463 35.7596 42.6475 35.7919C42.6502 35.8566 42.6274 35.9197 42.584 35.9678C42.5405 36.0158 42.48 36.0448 42.4154 36.0487C42.3678 36.0445 42.32 36.0428 42.2722 36.0437ZM42.8499 37.6188C42.7969 37.6194 42.7453 37.6022 42.7032 37.57C42.6611 37.5378 42.6311 37.4924 42.6178 37.4411C42.6014 37.3789 42.6097 37.3128 42.641 37.2566C42.6723 37.2004 42.7242 37.1586 42.7857 37.1399C43.0954 37.0526 43.3762 36.8842 43.5992 36.6522C43.8222 36.4202 43.9793 36.133 44.0542 35.8201C44.1292 35.5071 44.1193 35.1799 44.0257 34.872C43.932 34.5642 43.758 34.2869 43.5214 34.0687C43.4976 34.047 43.4783 34.0209 43.4646 33.9917C43.4509 33.9625 43.4431 33.931 43.4416 33.8988C43.4402 33.8666 43.4451 33.8344 43.4561 33.8042C43.4671 33.7739 43.484 33.7461 43.5058 33.7223C43.5276 33.6986 43.5538 33.6794 43.5831 33.6658C43.6123 33.6523 43.6439 33.6446 43.6761 33.6433C43.7083 33.642 43.7404 33.6471 43.7706 33.6582C43.8009 33.6694 43.8286 33.6864 43.8522 33.7083C44.1528 33.9848 44.374 34.3365 44.4932 34.7271C44.6123 35.1177 44.6249 35.5331 44.5298 35.9302C44.4347 36.3274 44.2352 36.6919 43.952 36.9862C43.6688 37.2804 43.3122 37.4938 42.919 37.6041C42.8972 37.6137 42.8737 37.6187 42.8499 37.6188ZM40.9785 38.5965C40.6619 38.5897 40.3523 38.5026 40.0787 38.3431C39.805 38.1837 39.5765 37.9573 39.4145 37.6852C39.2525 37.4131 39.1624 37.1042 39.1527 36.7877C39.143 36.4712 39.214 36.1574 39.359 35.8759C39.3886 35.8192 39.4395 35.7765 39.5005 35.7572C39.5615 35.7379 39.6276 35.7436 39.6845 35.773C39.7413 35.8024 39.7842 35.8531 39.8037 35.914C39.8232 35.9749 39.8178 36.0411 39.7886 36.0981C39.686 36.295 39.6325 36.5138 39.6327 36.7358C39.6328 36.9578 39.6865 37.1765 39.7893 37.3733C39.8921 37.5701 40.0408 37.7392 40.2229 37.8662C40.4051 37.9932 40.6151 38.0743 40.8353 38.1027C40.8946 38.1077 40.9539 38.1126 41.0082 38.1126C41.0403 38.1097 41.0727 38.1136 41.1032 38.124C41.1338 38.1343 41.1618 38.151 41.1855 38.1728C41.2092 38.1947 41.2281 38.2213 41.2409 38.2509C41.2538 38.2805 41.2603 38.3124 41.26 38.3447C41.2625 38.4088 41.2395 38.4713 41.196 38.5185C41.1525 38.5657 41.092 38.5938 41.0279 38.5965L40.9785 38.5965Z" fill="#989898"/>
<path d="M40.9536 34.1329H40.9437C40.8796 34.1302 40.8191 34.1022 40.7756 34.055C40.7321 34.0078 40.7091 33.9452 40.7117 33.8811C40.7142 33.8013 40.7242 33.722 40.7413 33.6441C40.8697 33.0269 41.4029 32.5775 42.0745 32.5282C42.1384 32.5238 42.2015 32.5446 42.2504 32.5861C42.2993 32.6276 42.33 32.6865 42.3362 32.7504C42.3413 32.8145 42.3207 32.878 42.2791 32.9271C42.2375 32.9761 42.1781 33.0067 42.114 33.0121C41.6646 33.0466 41.3042 33.3429 41.2202 33.7478C41.2104 33.8021 41.2054 33.8564 41.2005 33.9058C41.197 33.9683 41.1692 34.027 41.1231 34.0694C41.077 34.1118 41.0162 34.1346 40.9536 34.1329ZM39.0576 35.6043H39.0477C38.9836 35.6016 38.9231 35.5736 38.8796 35.5264C38.8361 35.4792 38.8131 35.4166 38.8156 35.3525C38.8182 35.2727 38.8281 35.1934 38.8452 35.1155C38.8998 34.8646 39.0221 34.6334 39.1988 34.4471C39.3755 34.2608 39.5999 34.1265 39.8476 34.0588C39.9091 34.0405 39.9754 34.0474 40.0319 34.0779C40.0884 34.1085 40.1304 34.1602 40.1488 34.2218C40.1671 34.2833 40.1602 34.3496 40.1297 34.4061C40.0991 34.4626 40.0474 34.5046 39.9858 34.523C39.8224 34.5658 39.6741 34.6531 39.5573 34.7751C39.4405 34.8971 39.3598 35.0491 39.3242 35.2142C39.3134 35.2663 39.3068 35.3191 39.3044 35.3722C39.3004 35.435 39.2727 35.4939 39.2268 35.537C39.181 35.5801 39.1205 35.6041 39.0576 35.6043ZM43.0867 34.3798C43.0295 34.38 42.9741 34.3597 42.9306 34.3225C42.8871 34.2854 42.8584 34.2339 42.8497 34.1773C42.8391 34.1139 42.8539 34.0488 42.8908 33.9962C42.9277 33.9435 42.9839 33.9075 43.0472 33.8959C43.3089 33.8506 43.5499 33.7247 43.7365 33.5357C43.9231 33.3467 44.046 33.1041 44.0879 32.8418C44.1298 32.5795 44.0886 32.3107 43.9702 32.073C43.8518 31.8353 43.662 31.6405 43.4274 31.516C43.3736 31.4835 43.3345 31.4316 43.318 31.371C43.3015 31.3104 43.3089 31.2459 43.3388 31.1906C43.3686 31.1354 43.4185 31.0938 43.4782 31.0744C43.5379 31.0549 43.6028 31.0593 43.6594 31.0864C43.9834 31.2588 44.2454 31.5282 44.4087 31.8569C44.5721 32.1855 44.6286 32.557 44.5703 32.9194C44.5121 33.2818 44.3421 33.6169 44.084 33.8778C43.826 34.1388 43.4928 34.3126 43.1311 34.3748C43.1163 34.3748 43.1015 34.3798 43.0867 34.3798Z" fill="#989898"/>
<path d="M43.0323 32.2171C42.9964 32.2171 42.961 32.2091 42.9286 32.1937C42.8961 32.1784 42.8675 32.156 42.8447 32.1283C42.8047 32.0786 42.7854 32.0155 42.791 31.9519C42.7965 31.8884 42.8264 31.8295 42.8743 31.7876C43.1354 31.5719 43.3236 31.281 43.4132 30.9545C43.5027 30.6279 43.4894 30.2817 43.3749 29.9631C43.2604 29.6444 43.0503 29.3689 42.7734 29.174C42.4965 28.9792 42.1662 28.8745 41.8276 28.8744C41.5474 28.8728 41.2717 28.9443 41.0277 29.0818C40.9998 29.0973 40.9691 29.1073 40.9374 29.111C40.9057 29.1147 40.8735 29.1121 40.8428 29.1034C40.8121 29.0947 40.7834 29.08 40.7584 29.0602C40.7333 29.0404 40.7124 29.0158 40.6968 28.988C40.6813 28.9601 40.6714 28.9294 40.6677 28.8977C40.664 28.866 40.6665 28.8338 40.6752 28.8031C40.684 28.7724 40.6986 28.7437 40.7184 28.7187C40.7382 28.6936 40.7628 28.6727 40.7907 28.6571C41.2558 28.3996 41.8004 28.3248 42.3177 28.4475C42.8351 28.5702 43.2881 28.8814 43.5882 29.3204C43.8882 29.7593 44.0137 30.2944 43.9402 30.821C43.8666 31.3476 43.5992 31.8279 43.1904 32.1678C43.1431 32.1981 43.0885 32.2152 43.0323 32.2171Z" fill="#989898"/>
<path d="M41.6155 28.8842C41.5635 28.8844 41.5131 28.867 41.4723 28.8348C41.42 28.7968 41.385 28.7395 41.3748 28.6757C41.3646 28.6118 41.3801 28.5465 41.418 28.4941C41.5275 28.3435 41.5863 28.1619 41.5859 27.9757C41.5858 27.7373 41.4912 27.5088 41.3226 27.3403C41.1541 27.1717 40.9255 27.0771 40.6872 27.077C40.4899 27.0749 40.298 27.1412 40.1441 27.2647C40.0937 27.3046 40.0295 27.3229 39.9656 27.3155C39.9017 27.3081 39.8433 27.2756 39.8034 27.2252C39.7635 27.1747 39.7452 27.1105 39.7526 27.0466C39.76 26.9827 39.7925 26.9244 39.8429 26.8845C40.0838 26.6956 40.3811 26.593 40.6872 26.5931C40.942 26.5942 41.1916 26.6654 41.4086 26.799C41.6255 26.9325 41.8016 27.1232 41.9174 27.3501C42.0331 27.5771 42.0842 27.8316 42.0649 28.0856C42.0456 28.3397 41.9568 28.5835 41.8081 28.7904C41.7853 28.8197 41.756 28.8434 41.7227 28.8596C41.6893 28.8759 41.6526 28.8843 41.6155 28.8842Z" fill="#989898"/>
<path d="M38.6575 29.9311C38.616 29.9311 38.5752 29.9207 38.5389 29.9007C38.5026 29.8808 38.4719 29.852 38.4498 29.817C38.4276 29.782 38.4146 29.742 38.4121 29.7006C38.4095 29.6593 38.4175 29.6179 38.4353 29.5805C38.5673 29.3085 38.7841 29.0868 39.053 28.9488C39.322 28.8107 39.6285 28.7638 39.9264 28.8152C39.958 28.8205 39.9881 28.832 40.0152 28.849C40.0423 28.8661 40.0656 28.8884 40.084 28.9146C40.1024 28.9408 40.1154 28.9703 40.1222 29.0016C40.1291 29.0328 40.1297 29.0651 40.1239 29.0966C40.1117 29.1595 40.0755 29.2153 40.023 29.2521C39.9705 29.2889 39.9058 29.304 39.8425 29.2941C39.6538 29.2606 39.4594 29.2886 39.2878 29.3739C39.1162 29.4593 38.9766 29.5974 38.8895 29.7681C38.8719 29.8156 38.8403 29.8566 38.7988 29.8857C38.7574 29.9148 38.7081 29.9306 38.6575 29.9311Z" fill="#989898"/>
<path d="M33.5519 40.0877C33.1144 40.087 32.6912 39.9324 32.3562 39.6511C32.0211 39.3699 31.7957 38.9798 31.7192 38.549C31.6427 38.1183 31.72 37.6744 31.9377 37.295C32.1554 36.9156 32.4996 36.6247 32.91 36.4734C32.9703 36.4511 33.0369 36.4537 33.0952 36.4806C33.1535 36.5074 33.1988 36.5563 33.2211 36.6166C33.2433 36.6768 33.2408 36.7434 33.2139 36.8018C33.1871 36.8601 33.1381 36.9054 33.0779 36.9276C32.9033 36.9912 32.7433 37.0895 32.6077 37.2165C32.472 37.3435 32.3635 37.4967 32.2886 37.6668C32.2137 37.8369 32.174 38.0204 32.1719 38.2062C32.1698 38.392 32.2053 38.5764 32.2764 38.7481C32.3474 38.9198 32.4524 39.0754 32.5852 39.2055C32.7179 39.3355 32.8756 39.4374 33.0488 39.5049C33.2219 39.5724 33.407 39.6041 33.5927 39.5982C33.7785 39.5923 33.9611 39.5489 34.1296 39.4705C34.1584 39.457 34.1896 39.4494 34.2214 39.448C34.2532 39.4467 34.285 39.4517 34.3149 39.4627C34.3447 39.4737 34.3721 39.4906 34.3954 39.5122C34.4187 39.5339 34.4374 39.56 34.4506 39.589C34.4646 39.6178 34.4727 39.649 34.4743 39.681C34.476 39.7129 34.4711 39.7449 34.46 39.7749C34.4489 39.8049 34.4319 39.8323 34.4099 39.8555C34.3879 39.8788 34.3614 39.8973 34.332 39.91C34.0888 40.0275 33.822 40.0882 33.5519 40.0877Z" fill="#989898"/>
<path d="M32.7523 36.0437C32.7045 36.0446 32.6567 36.0429 32.6091 36.0388C32.5445 36.0349 32.484 36.0058 32.4406 35.9578C32.3972 35.9098 32.3743 35.8467 32.377 35.782C32.3781 35.7497 32.3857 35.718 32.3994 35.6888C32.413 35.6595 32.4323 35.6333 32.4563 35.6116C32.4802 35.59 32.5083 35.5734 32.5388 35.5628C32.5693 35.5522 32.6016 35.5478 32.6338 35.5499C33.2137 35.5812 33.7843 35.3945 34.2336 35.0266C34.6053 34.7248 34.8766 34.3172 35.0116 33.8578C35.1465 33.3984 35.1386 32.9089 34.989 32.4541C34.979 32.4239 34.975 32.3921 34.9772 32.3604C34.9795 32.3287 34.988 32.2977 35.0022 32.2693C35.0164 32.2409 35.0361 32.2155 35.0601 32.1947C35.0841 32.1739 35.112 32.158 35.1421 32.1479C35.1723 32.1379 35.2041 32.1339 35.2358 32.1361C35.2675 32.1384 35.2984 32.1468 35.3269 32.1611C35.3553 32.1753 35.3806 32.1949 35.4015 32.2189C35.4223 32.243 35.4382 32.2708 35.4482 32.301C35.6275 32.8496 35.6362 33.4397 35.4731 33.9933C35.31 34.5469 34.9828 35.038 34.5348 35.4018C34.034 35.8178 33.4032 36.0449 32.7523 36.0437ZM32.1746 37.6188C32.1529 37.6179 32.1313 37.6146 32.1104 37.6089C31.7172 37.4986 31.3606 37.2853 31.0774 36.991C30.7942 36.6968 30.5947 36.3323 30.4996 35.9351C30.4045 35.538 30.4171 35.1226 30.5362 34.732C30.6554 34.3414 30.8766 33.9896 31.1772 33.7131C31.225 33.6696 31.2882 33.6468 31.3528 33.6497C31.4174 33.6526 31.4783 33.681 31.522 33.7287C31.5657 33.7763 31.5888 33.8394 31.5862 33.904C31.5836 33.9687 31.5554 34.0296 31.508 34.0736C31.2714 34.2917 31.0974 34.569 31.0037 34.8769C30.91 35.1847 30.9002 35.512 30.9751 35.8249C31.0501 36.1379 31.2072 36.4252 31.4302 36.6572C31.6531 36.8892 31.934 37.0575 32.2437 37.1448C32.2748 37.1531 32.3039 37.1675 32.3292 37.1873C32.3546 37.2071 32.3758 37.2317 32.3914 37.2598C32.4071 37.2879 32.4169 37.3189 32.4204 37.3509C32.4239 37.3828 32.4209 37.4152 32.4116 37.446C32.3948 37.4958 32.363 37.5392 32.3206 37.5701C32.2781 37.6011 32.2271 37.6181 32.1746 37.6188ZM34.0459 38.5964H33.9916C33.9301 38.5915 33.8727 38.5632 33.8313 38.5173C33.7899 38.4715 33.7676 38.4116 33.7688 38.3499C33.7701 38.2881 33.7949 38.2292 33.8381 38.1851C33.8813 38.141 33.9398 38.115 34.0015 38.1126H34.0459C34.2788 38.1056 34.5061 38.0398 34.7066 37.9212C34.9071 37.8027 35.0744 37.6352 35.1927 37.4346C35.311 37.2339 35.3766 37.0065 35.3833 36.7737C35.39 36.5408 35.3376 36.3101 35.231 36.1029C35.2018 36.046 35.1963 35.9798 35.2159 35.9189C35.2354 35.858 35.2782 35.8073 35.3351 35.7779C35.3919 35.7485 35.4581 35.7428 35.5191 35.7621C35.5801 35.7814 35.6309 35.824 35.6605 35.8808C35.7615 36.0732 35.8267 36.2823 35.8531 36.498C35.9161 36.9883 35.782 37.4836 35.4802 37.8752C35.1785 38.2668 34.7337 38.5226 34.2434 38.5866C34.1792 38.5915 34.115 38.5964 34.0459 38.5964Z" fill="#989898"/>
<path d="M36.3663 29.931C36.3168 29.9312 36.2685 29.9161 36.2278 29.8878C36.1872 29.8596 36.1562 29.8195 36.1392 29.773C36.0517 29.6027 35.912 29.4648 35.7405 29.3795C35.5691 29.2943 35.3749 29.266 35.1862 29.299C35.1228 29.3099 35.0575 29.2952 35.0048 29.2582C34.9521 29.2212 34.9161 29.1649 34.9048 29.1015C34.8991 29.07 34.8996 29.0377 34.9065 29.0065C34.9133 28.9752 34.9263 28.9456 34.9447 28.9195C34.9631 28.8933 34.9865 28.871 35.0135 28.8539C35.0406 28.8369 35.0707 28.8253 35.1023 28.82C35.4003 28.7677 35.7072 28.8141 35.9764 28.9522C36.2456 29.0904 36.4623 29.3127 36.5935 29.5854C36.6106 29.6231 36.6182 29.6644 36.6156 29.7057C36.613 29.747 36.6003 29.7871 36.5786 29.8224C36.5537 29.8553 36.5217 29.8822 36.4849 29.901C36.4482 29.9198 36.4076 29.9301 36.3663 29.931Z" fill="#989898"/>
<path d="M33.409 28.8842C33.3707 28.884 33.333 28.8749 33.2988 28.8578C33.2645 28.8407 33.2347 28.8159 33.2115 28.7855C33.0158 28.5156 32.924 28.1842 32.953 27.852C32.9821 27.5199 33.13 27.2095 33.3696 26.9777C33.6092 26.7459 33.9244 26.6083 34.2573 26.5903C34.5902 26.5723 34.9184 26.675 35.1816 26.8795C35.232 26.9195 35.2645 26.9778 35.2719 27.0417C35.2793 27.1056 35.2611 27.1698 35.2211 27.2202C35.1812 27.2706 35.1228 27.3031 35.0589 27.3105C34.9951 27.3179 34.9308 27.2997 34.8804 27.2597C34.7476 27.157 34.5886 27.0936 34.4216 27.0767C34.2545 27.0598 34.0861 27.0901 33.9354 27.1641C33.7847 27.2382 33.6577 27.353 33.5691 27.4956C33.4804 27.6382 33.4335 27.8028 33.4337 27.9707C33.4325 28.1571 33.4914 28.3389 33.6016 28.4892C33.6394 28.5416 33.6549 28.6069 33.6448 28.6708C33.6346 28.7346 33.5995 28.7918 33.5473 28.8299C33.5291 28.8478 33.5074 28.8618 33.4837 28.8712C33.4599 28.8805 33.4345 28.8849 33.409 28.8842Z" fill="#989898"/>
<path d="M31.9916 32.2171C31.936 32.2164 31.8822 32.1973 31.8385 32.1628C31.4303 31.8227 31.1635 31.3426 31.0902 30.8163C31.017 30.29 31.1425 29.7552 31.4424 29.3165C31.7423 28.8779 32.1949 28.5667 32.7119 28.4439C33.2289 28.321 33.7731 28.3953 34.2382 28.6522C34.2945 28.6836 34.3361 28.7361 34.3537 28.7982C34.3713 28.8602 34.3635 28.9267 34.3321 28.983C34.3006 29.0393 34.2481 29.0808 34.1861 29.0984C34.124 29.116 34.0575 29.1082 34.0012 29.0768C33.6427 28.8775 33.2226 28.8193 32.8234 28.9137C32.4242 29.0081 32.0746 29.2483 31.8434 29.5872C31.6121 29.926 31.5158 30.3391 31.5734 30.7452C31.631 31.1514 31.8383 31.5214 32.1546 31.7826C32.1794 31.8027 32.1998 31.8276 32.2148 31.8558C32.2298 31.884 32.2389 31.9149 32.2417 31.9467C32.2444 31.9785 32.2408 32.0105 32.2309 32.0409C32.221 32.0712 32.2051 32.0992 32.1842 32.1233C32.1603 32.1514 32.1309 32.1743 32.0977 32.1904C32.0646 32.2066 32.0285 32.2156 31.9916 32.2171Z" fill="#989898"/>
<path d="M34.0657 34.1329C34.0033 34.1325 33.9435 34.1082 33.8985 34.0651C33.8535 34.0219 33.8267 33.9631 33.8237 33.9008C33.8248 33.8491 33.8181 33.7975 33.804 33.7478C33.7201 33.3379 33.3596 33.0417 32.9103 33.0071C32.8463 33.0017 32.787 32.9711 32.7456 32.9221C32.7041 32.873 32.6837 32.8095 32.6889 32.7455C32.6942 32.6815 32.7245 32.6222 32.7734 32.5805C32.8223 32.5388 32.8857 32.5183 32.9498 32.5233C33.6213 32.5726 34.1546 33.022 34.2829 33.6441C34.298 33.7224 34.3079 33.8015 34.3126 33.8811C34.3151 33.9452 34.2921 34.0078 34.2486 34.055C34.2051 34.1022 34.1446 34.1302 34.0805 34.1329L34.0657 34.1329ZM35.9667 35.6043C35.9043 35.6039 35.8445 35.5796 35.7995 35.5365C35.7545 35.4933 35.7277 35.4345 35.7247 35.3722C35.7258 35.3205 35.7191 35.2689 35.705 35.2192C35.6687 35.0538 35.5878 34.9016 35.4712 34.7788C35.3546 34.6561 35.2066 34.5676 35.0433 34.523C35.0129 34.5139 34.9845 34.4989 34.9598 34.4788C34.9351 34.4588 34.9146 34.4341 34.8995 34.4061C34.8689 34.3496 34.8621 34.2833 34.8804 34.2218C34.8987 34.1602 34.9408 34.1085 34.9972 34.0779C35.0537 34.0474 35.12 34.0405 35.1816 34.0588C35.43 34.1268 35.6548 34.2618 35.8316 34.4491C36.0084 34.6363 36.1303 34.8686 36.1839 35.1204C36.1993 35.1986 36.2092 35.2778 36.2136 35.3574C36.2161 35.4216 36.193 35.4841 36.1495 35.5313C36.106 35.5785 36.0456 35.6065 35.9815 35.6092C35.9795 35.6074 35.9772 35.606 35.9746 35.6051C35.9721 35.6042 35.9694 35.604 35.9667 35.6043ZM31.9376 34.3798C31.9242 34.3809 31.9107 34.3792 31.8981 34.3748C31.5364 34.3126 31.2032 34.1388 30.9451 33.8778C30.6871 33.6169 30.517 33.2818 30.4588 32.9194C30.4006 32.557 30.4571 32.1855 30.6204 31.8569C30.7838 31.5282 31.0457 31.2588 31.3697 31.0864C31.4263 31.0593 31.4912 31.0549 31.5509 31.0744C31.6106 31.0938 31.6606 31.1354 31.6904 31.1906C31.7202 31.2459 31.7277 31.3104 31.7112 31.371C31.6947 31.4316 31.6555 31.4835 31.6018 31.516C31.3672 31.6405 31.1774 31.8353 31.059 32.073C30.9405 32.3107 30.8994 32.5795 30.9413 32.8418C30.9832 33.1041 31.106 33.3467 31.2926 33.5357C31.4793 33.7247 31.7203 33.8506 31.982 33.8959C32.0135 33.9012 32.0437 33.9127 32.0708 33.9298C32.0978 33.9469 32.1212 33.9691 32.1396 33.9953C32.158 34.0215 32.171 34.0511 32.1778 34.0823C32.1847 34.1136 32.1852 34.1459 32.1795 34.1773C32.1683 34.2336 32.1381 34.2843 32.0941 34.3211C32.0502 34.3579 31.9949 34.3786 31.9376 34.3798Z" fill="#989898"/>
<path d="M33.8929 30.8593C33.6618 30.8595 33.4337 30.8071 33.2259 30.7062C33.018 30.6053 32.8358 30.4584 32.693 30.2767C32.6733 30.2517 32.6586 30.2231 32.6499 30.1925C32.6412 30.1618 32.6386 30.1298 32.6422 30.0982C32.6459 30.0665 32.6558 30.0359 32.6712 30.0081C32.6867 29.9803 32.7076 29.9558 32.7325 29.936C32.7575 29.9162 32.7861 29.9015 32.8167 29.8928C32.8474 29.8841 32.8794 29.8815 32.9111 29.8852C32.9427 29.8888 32.9733 29.8987 33.0011 29.9142C33.029 29.9297 33.0535 29.9505 33.0732 29.9755C33.2328 30.1771 33.4614 30.3125 33.715 30.3553C33.9685 30.3982 34.2289 30.3456 34.4459 30.2075C34.5603 30.1342 34.659 30.0388 34.7361 29.9269C34.8133 29.815 34.8673 29.6888 34.8952 29.5558C34.9344 29.3756 34.9248 29.1882 34.8675 29.0129C34.8102 28.8376 34.7073 28.6807 34.5693 28.5584C34.5217 28.5157 34.4928 28.456 34.4891 28.3921C34.4854 28.3283 34.5072 28.2656 34.5496 28.2177C34.5932 28.1699 34.6538 28.1411 34.7184 28.1374C34.783 28.1337 34.8464 28.1554 34.8952 28.1979C35.0712 28.3541 35.2088 28.5489 35.2971 28.767C35.3855 28.9851 35.4222 29.2207 35.4045 29.4554C35.3869 29.6901 35.3152 29.9175 35.1952 30.1199C35.0751 30.3223 34.9099 30.4942 34.7125 30.6223C34.4668 30.7763 34.1829 30.8584 33.8929 30.8593ZM32.2042 33.3133C32.0374 33.3137 31.8724 33.2784 31.7203 33.2096C31.6552 33.1799 31.5925 33.1453 31.5327 33.1059C31.4797 33.0699 31.4431 33.0143 31.4311 32.9514C31.419 32.8884 31.4325 32.8232 31.4685 32.7702C31.5045 32.7171 31.5601 32.6806 31.6231 32.6685C31.6861 32.6565 31.7512 32.67 31.8043 32.706C31.8377 32.7305 31.8742 32.7504 31.9129 32.7652C32.0056 32.8056 32.1056 32.8264 32.2067 32.8264C32.3078 32.8264 32.4078 32.8056 32.5005 32.7652C32.7043 32.6774 32.8669 32.5149 32.9547 32.311C32.9772 32.2582 32.9954 32.2037 33.009 32.148C33.0237 32.0853 33.0625 32.0309 33.1171 31.9967C33.1716 31.9624 33.2375 31.9512 33.3004 31.9653C33.3627 31.9806 33.4167 32.0196 33.4508 32.074C33.4849 32.1284 33.4965 32.1939 33.4831 32.2567C33.464 32.3433 33.4359 32.4277 33.3991 32.5085C33.2605 32.8257 33.0063 33.0782 32.6881 33.2146C32.5349 33.2789 32.3704 33.3125 32.2042 33.3133Z" fill="#989898"/>
</svg>
