<svg width="38" height="37" viewBox="0 0 38 37" fill="none" xmlns="http://www.w3.org/2000/svg">
<path d="M29.2286 32.3499C26.8076 29.646 23.29 27.9444 19.375 27.9444C15.46 27.9444 11.9421 29.646 9.52105 32.3499M19.375 35.5C9.98616 35.5 2.375 27.8888 2.375 18.5C2.375 9.11116 9.98616 1.5 19.375 1.5C28.7638 1.5 36.375 9.11116 36.375 18.5C36.375 27.8888 28.7638 35.5 19.375 35.5ZM19.375 22.2778C16.2454 22.2778 13.7083 19.7407 13.7083 16.6111C13.7083 13.4815 16.2454 10.9444 19.375 10.9444C22.5046 10.9444 25.0417 13.4815 25.0417 16.6111C25.0417 19.7407 22.5046 22.2778 19.375 22.2778Z" stroke="#4A148C" stroke-width="3" stroke-linecap="round" stroke-linejoin="round"/>
</svg>
