<svg width="26" height="26" viewBox="0 0 26 26" fill="none" xmlns="http://www.w3.org/2000/svg">
<path d="M13.0004 14.7156C14.9385 14.7156 16.5096 13.1445 16.5096 11.2065C16.5096 9.26838 14.9385 7.69727 13.0004 7.69727C11.0623 7.69727 9.49121 9.26838 9.49121 11.2065C9.49121 13.1445 11.0623 14.7156 13.0004 14.7156Z" fill="#08A935"/>
<path d="M18.5561 21.5268C18.4951 18.1744 16.0333 15.4769 13.0002 15.4769C9.96715 15.4769 7.50446 18.1752 7.44434 21.5268H18.5561Z" fill="#08A935"/>
<path d="M4.17367 9.74639C5.62981 9.74639 6.81023 8.56596 6.81023 7.10983C6.81023 5.6537 5.62981 4.47327 4.17367 4.47327C2.71754 4.47327 1.53711 5.6537 1.53711 7.10983C1.53711 8.56596 2.71754 9.74639 4.17367 9.74639Z" fill="#08A935"/>
<path d="M8.34844 14.8635C8.30294 12.3455 6.45369 10.3184 4.17381 10.3184C1.89394 10.3184 0.0455 12.3455 0 14.8635H8.34844Z" fill="#08A935"/>
<path d="M21.825 9.74639C23.2812 9.74639 24.4616 8.56596 24.4616 7.10983C24.4616 5.6537 23.2812 4.47327 21.825 4.47327C20.3689 4.47327 19.1885 5.6537 19.1885 7.10983C19.1885 8.56596 20.3689 9.74639 21.825 9.74639Z" fill="#08A935"/>
<path d="M25.9996 14.8635C25.9541 12.3455 24.1049 10.3184 21.825 10.3184C19.5451 10.3184 17.6967 12.3455 17.6504 14.8635H25.9996Z" fill="#08A935"/>
</svg>
