<svg width="18" height="18" viewBox="0 0 18 18" fill="none" xmlns="http://www.w3.org/2000/svg">
<g clip-path="url(#clip0_4607_12089)">
<path d="M17.1706 17.2969H16.3996V6.10087C16.3996 5.57975 15.9756 5.15581 15.4545 5.15581H13.731C13.2099 5.15581 12.7859 5.57979 12.7859 6.10087V17.2969H10.828V11.1735C10.828 10.6524 10.404 10.2285 9.88292 10.2285H8.15942C7.6383 10.2285 7.21435 10.6524 7.21435 11.1735V17.2969H5.25643V14.1256C5.25643 13.6045 4.83244 13.1806 4.31136 13.1806H2.58782C2.0667 13.1806 1.64275 13.6046 1.64275 14.1256V17.2969H0.830078C0.63591 17.2969 0.478516 17.4543 0.478516 17.6484C0.478516 17.8426 0.63591 18 0.830078 18H17.1706C17.3648 18 17.5222 17.8426 17.5222 17.6484C17.5222 17.4543 17.3648 17.2969 17.1706 17.2969ZM4.55323 17.2969H2.34584V14.1256C2.34591 14.0615 2.37143 14 2.41679 13.9546C2.46214 13.9093 2.52364 13.8838 2.58779 13.8837H4.31129C4.37543 13.8838 4.43693 13.9093 4.48228 13.9546C4.52764 14 4.55316 14.0615 4.55323 14.1256V17.2969ZM10.1248 17.2969H7.91744V11.1735C7.91751 11.1094 7.94303 11.0479 7.98838 11.0025C8.03374 10.9572 8.09524 10.9317 8.15938 10.9316H9.88288C9.94703 10.9317 10.0085 10.9572 10.0539 11.0025C10.0992 11.0479 10.1248 11.1094 10.1248 11.1735V17.2969ZM15.6964 17.2969H13.489V6.10087C13.4891 6.03673 13.5146 5.97523 13.56 5.92988C13.6053 5.88452 13.6668 5.859 13.731 5.85893H15.4545C15.5186 5.859 15.5801 5.88452 15.6255 5.92988C15.6708 5.97523 15.6964 6.03673 15.6964 6.10087V17.2969ZM16.3987 0.369703C16.4014 0.320561 16.3937 0.271406 16.3761 0.225442C16.3585 0.179478 16.3314 0.137736 16.2966 0.102936C16.2618 0.0681352 16.2201 0.0410577 16.1741 0.0234673C16.1281 0.00587683 16.079 -0.00183177 16.0298 0.00084375C16.0242 0.000597656 16.0186 0 16.0128 0H13.8859C13.6917 0 13.5343 0.157395 13.5343 0.351562C13.5343 0.54573 13.6917 0.703125 13.8859 0.703125H15.1992L11.7238 4.1786L10.4131 2.86798C10.3472 2.80206 10.2578 2.76502 10.1646 2.76502C10.0713 2.76502 9.9819 2.80206 9.91596 2.86798L3.59596 9.18801C3.45868 9.3253 3.45868 9.54791 3.59596 9.68523C3.66462 9.75382 3.75459 9.78813 3.84455 9.78813C3.93452 9.78813 4.02452 9.75382 4.09314 9.68516L10.1646 3.61371L11.4752 4.92434C11.6125 5.06162 11.8351 5.06162 11.9724 4.92434L15.6964 1.20034V2.38897C15.6964 2.58314 15.8538 2.74054 16.048 2.74054C16.2422 2.74054 16.3996 2.58314 16.3996 2.38897V0.386719C16.3996 0.380988 16.399 0.375398 16.3987 0.369703Z" fill="white"/>
<path d="M2.65918 11.0148C2.85334 11.0148 3.01074 10.8574 3.01074 10.6632C3.01074 10.469 2.85334 10.3116 2.65918 10.3116C2.46502 10.3116 2.30762 10.469 2.30762 10.6632C2.30762 10.8574 2.46502 11.0148 2.65918 11.0148Z" fill="white"/>
</g>
<defs>
<clipPath id="clip0_4607_12089">
<rect width="18" height="18" fill="white"/>
</clipPath>
</defs>
</svg>
