<svg width="11" height="9" viewBox="0 0 11 9" fill="none" xmlns="http://www.w3.org/2000/svg">
<g clip-path="url(#clip0_2868_8640)">
<path d="M8.15469 7.30119H1.54052C1.34982 7.30098 1.16698 7.22513 1.03214 7.09027C0.897304 6.95541 0.821472 6.77257 0.821289 6.58186V2.46923C0.821506 2.27855 0.897351 2.09573 1.03219 1.9609C1.16702 1.82606 1.34984 1.75022 1.54052 1.75H5.43054C5.47225 1.75 5.51226 1.76657 5.54175 1.79607C5.57125 1.82556 5.58782 1.86557 5.58782 1.90728C5.58782 1.94899 5.57125 1.98899 5.54175 2.01849C5.51226 2.04799 5.47225 2.06456 5.43054 2.06456H1.54052C1.43323 2.06467 1.33037 2.10735 1.2545 2.18321C1.17863 2.25908 1.13596 2.36194 1.13584 2.46923V6.58186C1.13594 6.68917 1.1786 6.79206 1.25447 6.86794C1.33034 6.94383 1.43321 6.98652 1.54052 6.98663H8.15469C8.262 6.98652 8.36487 6.94383 8.44074 6.86794C8.51661 6.79206 8.55927 6.68917 8.55936 6.58186V4.14682C8.55936 4.10511 8.57593 4.0651 8.60543 4.03561C8.63493 4.00611 8.67493 3.98954 8.71664 3.98954C8.75836 3.98954 8.79836 4.00611 8.82786 4.03561C8.85735 4.0651 8.87392 4.10511 8.87392 4.14682V6.58186C8.87374 6.77257 8.79791 6.95541 8.66307 7.09027C8.52823 7.22513 8.34539 7.30098 8.15469 7.30119Z" fill="white"/>
<path d="M6.09201 8.71585C6.06561 8.71589 6.03962 8.70928 6.01644 8.69664C5.99327 8.68399 5.97365 8.66572 5.95939 8.6435L5.05347 7.22888C5.03098 7.19375 5.02336 7.15112 5.0323 7.11038C5.04124 7.06963 5.066 7.03411 5.10113 7.01161C5.13626 6.98912 5.17888 6.98151 5.21963 6.99045C5.26037 6.99938 5.2959 7.02414 5.31839 7.05927L6.22415 8.47386C6.2394 8.49762 6.24796 8.52504 6.24896 8.55325C6.24995 8.58146 6.24334 8.60941 6.22981 8.63419C6.21628 8.65896 6.19633 8.67963 6.17205 8.69404C6.14778 8.70845 6.12008 8.71605 6.09185 8.71607L6.09201 8.71585ZM3.60349 8.71585C3.57527 8.71583 3.54756 8.70822 3.52329 8.69382C3.49902 8.67941 3.47907 8.65874 3.46554 8.63397C3.45201 8.60919 3.44539 8.58124 3.44639 8.55303C3.44738 8.52482 3.45595 8.4974 3.47119 8.47364L4.37711 7.05905C4.3996 7.02392 4.43513 6.99916 4.47587 6.99023C4.51662 6.98129 4.55925 6.9889 4.59438 7.01139C4.62951 7.03389 4.65426 7.06941 4.6632 7.11016C4.67214 7.1509 4.66452 7.19353 4.64203 7.22866L3.73611 8.64337C3.72187 8.66562 3.70225 8.68392 3.67908 8.69658C3.6559 8.70925 3.62991 8.71587 3.60349 8.71585Z" fill="white"/>
<path d="M6.7802 8.73234H2.91509C2.87338 8.73234 2.83337 8.71577 2.80388 8.68627C2.77438 8.65678 2.75781 8.61677 2.75781 8.57506C2.75781 8.53335 2.77438 8.49334 2.80388 8.46385C2.83337 8.43435 2.87338 8.41778 2.91509 8.41778H6.7802C6.82191 8.41778 6.86191 8.43435 6.89141 8.46385C6.9209 8.49334 6.93747 8.53335 6.93747 8.57506C6.93747 8.61677 6.9209 8.65678 6.89141 8.68627C6.86191 8.71577 6.82191 8.73234 6.7802 8.73234ZM4.82967 4.64707C4.65648 4.64707 4.48718 4.59572 4.34318 4.4995C4.19917 4.40328 4.08694 4.26652 4.02066 4.10651C3.95438 3.94651 3.93704 3.77044 3.97083 3.60058C4.00462 3.43072 4.08802 3.27469 4.21048 3.15223C4.33294 3.02976 4.48897 2.94637 4.65883 2.91258C4.82869 2.87879 5.00476 2.89613 5.16477 2.96241C5.32477 3.02868 5.46153 3.14092 5.55775 3.28492C5.65397 3.42892 5.70533 3.59822 5.70533 3.77141C5.70507 4.00357 5.61273 4.22615 5.44857 4.39031C5.2844 4.55448 5.06183 4.64682 4.82967 4.64707ZM4.82967 3.21031C4.71869 3.21031 4.61021 3.24322 4.51793 3.30487C4.42566 3.36653 4.35374 3.45416 4.31127 3.55669C4.2688 3.65922 4.25769 3.77204 4.27934 3.88088C4.30099 3.98972 4.35443 4.0897 4.43291 4.16817C4.51138 4.24665 4.61136 4.30009 4.7202 4.32174C4.82904 4.34339 4.94186 4.33228 5.04439 4.28981C5.14692 4.24734 5.23455 4.17542 5.29621 4.08315C5.35786 3.99087 5.39077 3.88239 5.39077 3.77141C5.3906 3.62265 5.33143 3.48003 5.22624 3.37484C5.12105 3.26964 4.97843 3.21047 4.82967 3.21031Z" fill="white"/>
<path d="M5.90712 6.15554H3.752C3.71029 6.15554 3.67029 6.13897 3.64079 6.10948C3.6113 6.07998 3.59473 6.03998 3.59473 5.99826V5.56732C3.59637 5.2409 3.7272 4.92841 3.9586 4.69818C4.18999 4.46795 4.50314 4.3387 4.82956 4.3387C5.15599 4.3387 5.46913 4.46795 5.70053 4.69818C5.93193 4.92841 6.06275 5.2409 6.0644 5.56732V5.99826C6.0644 6.03998 6.04783 6.07998 6.01833 6.10948C5.98884 6.13897 5.94883 6.15554 5.90712 6.15554ZM3.90928 5.84099H5.74984V5.56732C5.74842 5.32418 5.65084 5.09148 5.47841 4.92006C5.30597 4.74863 5.07271 4.65241 4.82956 4.65241C4.58642 4.65241 4.35315 4.74863 4.18072 4.92006C4.00829 5.09148 3.9107 5.32418 3.90928 5.56732V5.84099ZM6.69326 4.32829C6.65155 4.32829 6.61154 4.31172 6.58205 4.28222C6.55255 4.25273 6.53598 4.21272 6.53598 4.17101V3.72056H6.38603C6.25227 3.72041 6.12403 3.66721 6.02945 3.57263C5.93487 3.47805 5.88167 3.34981 5.88152 3.21605V1.71933C5.88167 1.58557 5.93489 1.45733 6.02947 1.36276C6.12406 1.26818 6.2523 1.21499 6.38606 1.21484H8.36931C8.50306 1.21499 8.6313 1.26819 8.72588 1.36277C8.82046 1.45734 8.87367 1.58557 8.87382 1.71933V3.21605C8.87367 3.34981 8.82047 3.47805 8.72589 3.57263C8.63131 3.66721 8.50307 3.72041 8.36931 3.72056H7.36616L6.80449 4.28224C6.78988 4.29684 6.77254 4.30842 6.75345 4.31632C6.73437 4.32423 6.71391 4.32829 6.69326 4.32829ZM6.38606 1.5294C6.33571 1.52946 6.28743 1.54949 6.25182 1.58509C6.21621 1.6207 6.19617 1.66897 6.1961 1.71933V3.21605C6.19616 3.26641 6.21619 3.31469 6.25181 3.35031C6.28742 3.38592 6.3357 3.40595 6.38606 3.40601H6.69329C6.735 3.40601 6.77501 3.42258 6.8045 3.45207C6.834 3.48157 6.85057 3.52157 6.85057 3.56329V3.79131L7.18982 3.45206C7.20443 3.43746 7.22177 3.42587 7.24085 3.41797C7.25993 3.41007 7.28039 3.406 7.30104 3.40601H8.36934C8.4197 3.40594 8.46797 3.38591 8.50358 3.3503C8.53918 3.31468 8.55921 3.26641 8.55927 3.21605V1.71933C8.5592 1.66897 8.53917 1.6207 8.50355 1.58509C8.46794 1.54949 8.41966 1.52946 8.36931 1.5294H6.38606Z" fill="white"/>
</g>
<g clip-path="url(#clip1_2868_8640)">
<path d="M7.45539 0C5.88825 0 4.61328 1.27497 4.61328 2.84211C4.61328 4.40924 5.88825 5.68421 7.45539 5.68421C9.02252 5.68421 10.2975 4.40924 10.2975 2.84211C10.2975 1.27497 9.02252 0 7.45539 0ZM5.71119 4.39342L5.70702 4.39333C5.69389 4.39272 5.68102 4.3894 5.66923 4.38358C5.65745 4.37776 5.64699 4.36956 5.63852 4.3595C5.2827 3.93388 5.0875 3.39688 5.08697 2.84211C5.08697 1.53616 6.14944 0.473684 7.45539 0.473684C8.00865 0.473684 8.54751 0.6696 8.97279 1.02524C8.98289 1.03367 8.99113 1.04411 8.99697 1.05589C9.00281 1.06768 9.00613 1.08056 9.00671 1.0937C9.00729 1.10685 9.00512 1.11997 9.00034 1.13222C8.99555 1.14448 8.98827 1.1556 8.97894 1.16488L5.77817 4.36566C5.7604 4.38343 5.73631 4.39342 5.71119 4.39342ZM7.45539 5.21053C6.92012 5.21053 6.41432 5.03498 5.99274 4.70293C5.98223 4.69464 5.97359 4.68422 5.96739 4.67236C5.96119 4.66049 5.95758 4.64744 5.95679 4.63408C5.95601 4.62071 5.95806 4.60733 5.96282 4.59482C5.96758 4.58231 5.97494 4.57095 5.98441 4.56148L9.17477 1.37113C9.18422 1.36164 9.19558 1.35427 9.20809 1.3495C9.22061 1.34473 9.23399 1.34268 9.24736 1.34346C9.26073 1.34425 9.27378 1.34787 9.28565 1.35407C9.29752 1.36028 9.30793 1.36893 9.31621 1.37946C9.64826 1.80104 9.82381 2.30684 9.82381 2.84211C9.82381 4.14805 8.76133 5.21053 7.45539 5.21053Z" fill="#FF0000"/>
</g>
<defs>
<clipPath id="clip0_2868_8640">
<rect width="8.05263" height="8.05263" fill="white" transform="translate(0.821289 0.947266)"/>
</clipPath>
<clipPath id="clip1_2868_8640">
<rect width="5.68421" height="5.68421" fill="white" transform="translate(4.61035)"/>
</clipPath>
</defs>
</svg>
