<svg width="45" height="45" viewBox="0 0 45 45" fill="none" xmlns="http://www.w3.org/2000/svg">
<path d="M23.9062 20.625C23.9062 20.252 23.7581 19.8944 23.4944 19.6306C23.2306 19.3669 22.873 19.2188 22.5 19.2188C22.127 19.2188 21.7694 19.3669 21.5056 19.6306C21.2419 19.8944 21.0938 20.252 21.0938 20.625V31.875C21.0938 32.248 21.2419 32.6056 21.5056 32.8694C21.7694 33.1331 22.127 33.2812 22.5 33.2812C22.873 33.2812 23.2306 33.1331 23.4944 32.8694C23.7581 32.6056 23.9062 32.248 23.9062 31.875V20.625Z" fill="#4A148C"/>
<path fill-rule="evenodd" clip-rule="evenodd" d="M22.5 2.34375C11.3681 2.34375 2.34375 11.3681 2.34375 22.5C2.34375 33.6319 11.3681 42.6562 22.5 42.6562C33.6319 42.6562 42.6562 33.6319 42.6562 22.5C42.6562 11.3681 33.6319 2.34375 22.5 2.34375ZM5.15625 22.5C5.15625 17.9002 6.98353 13.4887 10.2361 10.2361C13.4887 6.98353 17.9002 5.15625 22.5 5.15625C27.0998 5.15625 31.5113 6.98353 34.7639 10.2361C38.0165 13.4887 39.8438 17.9002 39.8438 22.5C39.8438 27.0998 38.0165 31.5113 34.7639 34.7639C31.5113 38.0165 27.0998 39.8438 22.5 39.8438C17.9002 39.8438 13.4887 38.0165 10.2361 34.7639C6.98353 31.5113 5.15625 27.0998 5.15625 22.5Z" fill="#4A148C"/>
<path d="M24.375 15C24.375 15.4973 24.1775 15.9742 23.8258 16.3258C23.4742 16.6775 22.9973 16.875 22.5 16.875C22.0027 16.875 21.5258 16.6775 21.1742 16.3258C20.8225 15.9742 20.625 15.4973 20.625 15C20.625 14.5027 20.8225 14.0258 21.1742 13.6742C21.5258 13.3225 22.0027 13.125 22.5 13.125C22.9973 13.125 23.4742 13.3225 23.8258 13.6742C24.1775 14.0258 24.375 14.5027 24.375 15Z" fill="#4A148C"/>
</svg>
