<svg width="6" height="6" viewBox="0 0 6 6" fill="none" xmlns="http://www.w3.org/2000/svg">
<path d="M3 6C1.34578 6 0 4.65422 0 3C0 1.34578 1.34578 0 3 0C4.65422 0 6 1.34578 6 3C6 4.65422 4.65422 6 3 6ZM3 0.428555C1.58213 0.428555 0.428555 1.58213 0.428555 3C0.428555 4.41787 1.58213 5.57145 3 5.57145C4.41787 5.57145 5.57145 4.41787 5.57145 3C5.57145 1.58213 4.41787 0.428555 3 0.428555Z" fill="#4A148C"/>
<path d="M4.07102 4.28577C4.01618 4.28577 3.96133 4.26485 3.9195 4.22296L1.77667 2.08012C1.69293 1.99639 1.69293 1.86081 1.77667 1.77714C1.86034 1.69345 1.99597 1.69341 2.07965 1.77714L4.22249 3.91997C4.30622 4.0037 4.30622 4.13928 4.22249 4.22296C4.20263 4.2429 4.17902 4.25871 4.15303 4.26949C4.12703 4.28027 4.09916 4.2858 4.07102 4.28577Z" fill="#4A148C"/>
<path d="M1.92813 4.28566C1.87329 4.28566 1.8185 4.26475 1.77667 4.22285C1.69293 4.13918 1.69293 4.00355 1.77667 3.91986L3.9195 1.77703C4.00323 1.6933 4.13881 1.6933 4.22249 1.77703C4.30617 1.8607 4.30622 1.99634 4.22249 2.08002L2.07965 4.22285C2.05979 4.2428 2.03617 4.25861 2.01017 4.26939C1.98416 4.28017 1.95628 4.2857 1.92813 4.28566Z" fill="#4A148C"/>
</svg>
