<svg width="19" height="19" viewBox="0 0 19 19" fill="none" xmlns="http://www.w3.org/2000/svg">
<path d="M9.4996 0C4.25359 0 0 4.25359 0 9.4996C0 14.7456 4.25359 19 9.4996 19C14.7456 19 19 14.7456 19 9.4996C19 4.25359 14.7456 0 9.4996 0ZM11.4772 14.7231C10.9882 14.9161 10.599 15.0625 10.307 15.1638C9.97958 15.2708 9.63653 15.3221 9.2921 15.3158C8.70019 15.3158 8.23936 15.171 7.91124 14.8823C7.58311 14.5936 7.41985 14.2277 7.41985 13.7829C7.41985 13.61 7.43191 13.4331 7.45604 13.253C7.48587 13.0477 7.52532 12.844 7.57426 12.6425L8.18629 10.4808C8.24017 10.2733 8.28681 10.0762 8.32381 9.89287C8.3608 9.70789 8.3785 9.5382 8.3785 9.38379C8.3785 9.10874 8.3214 8.91572 8.208 8.80715C8.09299 8.69858 7.87666 8.6455 7.55416 8.6455C7.39653 8.6455 7.23407 8.66882 7.0676 8.71788C6.90273 8.76855 6.75958 8.81439 6.64216 8.85943L6.80381 8.19352C7.20432 8.03026 7.58794 7.89033 7.95386 7.77452C8.28848 7.66256 8.6385 7.60341 8.99132 7.5992C9.57922 7.5992 10.0328 7.74235 10.3521 8.02544C10.6698 8.30933 10.8298 8.67847 10.8298 9.13206C10.8298 9.22616 10.8185 9.39183 10.7968 9.62827C10.778 9.84922 10.737 10.0677 10.6746 10.2805L10.0658 12.4359C10.0112 12.6308 9.96638 12.8284 9.93147 13.0278C9.89832 13.1937 9.87869 13.3621 9.87276 13.5312C9.87276 13.8175 9.9363 14.013 10.065 14.1167C10.192 14.2204 10.4148 14.2727 10.7301 14.2727C10.8789 14.2727 11.0453 14.2462 11.2335 14.1947C11.4201 14.1432 11.5552 14.0974 11.6405 14.058L11.4772 14.7231ZM11.3694 5.97464C11.0926 6.23569 10.7245 6.37775 10.344 6.37033C9.94514 6.37033 9.60093 6.23843 9.31462 5.97464C9.17847 5.85488 9.06971 5.70719 8.99574 5.54163C8.92177 5.37607 8.88433 5.19652 8.88597 5.0152C8.88597 4.64123 9.03073 4.31953 9.31462 4.05333C9.59204 3.79021 9.96175 3.64666 10.344 3.65363C10.7437 3.65363 11.0863 3.78633 11.3694 4.05333C11.6533 4.31953 11.7957 4.64123 11.7957 5.0152C11.7957 5.39077 11.6533 5.71086 11.3694 5.97464Z" fill="#030104"/>
</svg>
