<svg width="18" height="20" viewBox="0 0 18 20" fill="none" xmlns="http://www.w3.org/2000/svg">
<path d="M16.1028 8.12407H16.0542V6.93221C16.0542 3.10366 12.9505 0 9.12195 0C5.29335 0 2.18973 3.10366 2.18973 6.93221V8.12407H1.89787C0.827621 8.12407 0.000632371 9.07266 0.000632371 10.1673V13.2077C-0.026324 14.2686 0.811884 15.1505 1.87277 15.1774C1.88115 15.1776 1.88949 15.1778 1.89787 15.1779H3.6978C3.95275 15.1659 4.14973 14.9495 4.13772 14.6945C4.1373 14.6854 4.1366 14.6762 4.13562 14.6671V8.70779C4.13562 8.41593 3.96536 8.12402 3.6978 8.12402H3.16268V6.93217C3.16268 3.64097 5.83075 0.972897 9.12195 0.972897C12.4131 0.972897 15.0812 3.64097 15.0812 6.93217V8.12402H14.5461C14.2785 8.12402 14.1083 8.41588 14.1083 8.70779V14.6671C14.0811 14.9208 14.2648 15.1486 14.5186 15.1757C14.5277 15.1767 14.5369 15.1774 14.5461 15.1778H15.1055L15.0569 15.2508C14.6969 15.7292 14.2302 16.1168 13.6938 16.3829C13.1575 16.6489 12.5665 16.786 11.9678 16.7832C11.702 15.4801 10.4302 14.6391 9.12711 14.9049C8.01278 15.1322 7.20935 16.1081 7.20036 17.2453C7.21368 18.5792 8.29882 19.6534 9.63272 19.6533C10.293 19.6426 10.9224 19.3717 11.384 18.8993C11.6954 18.5804 11.8995 18.1722 11.9678 17.7318C12.7175 17.7346 13.4575 17.5624 14.1289 17.2288C14.8004 16.8952 15.3846 16.4094 15.8352 15.8102L16.2974 15.1291C17.3433 15.0562 18 14.3995 18 13.4508V10.4104C18 9.36457 17.2217 8.12407 16.1028 8.12407ZM3.16268 14.2049H1.89787C1.3741 14.1922 0.959842 13.7573 0.972598 13.2335C0.972831 13.2249 0.973157 13.2163 0.973576 13.2076V10.1672C0.973576 9.60778 1.36274 9.09696 1.89787 9.09696H3.16268V14.2049ZM10.6787 18.2183C10.5453 18.3629 10.3837 18.4786 10.2037 18.5581C10.0238 18.6376 9.82947 18.6792 9.63277 18.6805C8.84139 18.6679 8.19919 18.0364 8.17335 17.2454C8.17303 16.4528 8.81528 15.81 9.60786 15.8097C10.4004 15.8094 11.0432 16.4516 11.0435 17.2442V17.2454C11.0535 17.424 11.0263 17.6027 10.9635 17.7702C10.9006 17.9377 10.8037 18.0903 10.6787 18.2183ZM17.0271 13.4509C17.0271 14.1076 16.3947 14.2049 16.1028 14.2049H15.0812V9.09701H16.1028C16.6379 9.09701 17.0271 9.85104 17.0271 10.4105V13.4509Z" fill="#7A7A7A"/>
</svg>
