<svg width="9" height="9" viewBox="0 0 9 9" fill="none" xmlns="http://www.w3.org/2000/svg">
<g clip-path="url(#clip0_2866_8616)">
<path d="M8.19615 7.10149H0.803848C0.590707 7.10125 0.386365 7.01647 0.235661 6.86575C0.0849579 6.71503 0.000204726 6.51067 0 6.29753L0 1.70106C0.000241928 1.48795 0.0850105 1.28362 0.235709 1.13293C0.386407 0.982227 0.590728 0.897459 0.803848 0.897217H5.15152C5.19814 0.897217 5.24285 0.915737 5.27581 0.948702C5.30878 0.981667 5.3273 1.02638 5.3273 1.073C5.3273 1.11962 5.30878 1.16433 5.27581 1.19729C5.24285 1.23026 5.19814 1.24878 5.15152 1.24878H0.803848C0.683934 1.24891 0.568969 1.2966 0.484178 1.38139C0.399386 1.46619 0.351693 1.58115 0.351562 1.70106V6.29753C0.351665 6.41747 0.399346 6.53246 0.48414 6.61727C0.568935 6.70209 0.683916 6.74979 0.803848 6.74992H8.19615C8.31608 6.74979 8.43106 6.70209 8.51586 6.61727C8.60065 6.53246 8.64834 6.41747 8.64844 6.29753V3.57602C8.64844 3.5294 8.66696 3.48469 8.69992 3.45172C8.73289 3.41876 8.7776 3.40024 8.82422 3.40024C8.87084 3.40024 8.91555 3.41876 8.94851 3.45172C8.98148 3.48469 9 3.5294 9 3.57602V6.29753C8.99979 6.51067 8.91504 6.71503 8.76434 6.86575C8.61364 7.01647 8.40929 7.10125 8.19615 7.10149Z" fill="white"/>
<path d="M5.89057 8.68247C5.86107 8.68252 5.83202 8.67514 5.80612 8.66101C5.78022 8.64687 5.75829 8.62645 5.74236 8.60162L4.72986 7.02057C4.70472 6.98131 4.69621 6.93366 4.7062 6.88813C4.71618 6.84259 4.74385 6.80288 4.78312 6.77774C4.82238 6.75261 4.87002 6.7441 4.91556 6.75408C4.9611 6.76407 5.0008 6.79174 5.02594 6.83101L6.03827 8.41202C6.0553 8.43857 6.06488 8.46922 6.06599 8.50075C6.0671 8.53227 6.05971 8.56352 6.04458 8.59121C6.02946 8.61889 6.00717 8.642 5.98004 8.6581C5.95291 8.6742 5.92195 8.68271 5.8904 8.68272L5.89057 8.68247ZM3.10929 8.68247C3.07775 8.68246 3.04678 8.67396 3.01966 8.65785C2.99253 8.64175 2.97023 8.61865 2.95511 8.59096C2.93998 8.56327 2.93259 8.53203 2.9337 8.5005C2.93481 8.46897 2.94439 8.43832 2.96143 8.41177L3.97393 6.83076C3.99906 6.7915 4.03877 6.76383 4.08431 6.75384C4.12985 6.74385 4.17749 6.75236 4.21675 6.7775C4.25601 6.80264 4.28368 6.84234 4.29367 6.88788C4.30366 6.93342 4.29515 6.98106 4.27001 7.02032L3.25751 8.60147C3.2416 8.62634 3.21967 8.64679 3.19377 8.66094C3.16787 8.6751 3.13881 8.68251 3.10929 8.68247Z" fill="white"/>
<path d="M6.65967 8.70073H2.33984C2.29322 8.70073 2.24851 8.68221 2.21555 8.64925C2.18258 8.61628 2.16406 8.57157 2.16406 8.52495C2.16406 8.47833 2.18258 8.43362 2.21555 8.40066C2.24851 8.36769 2.29322 8.34917 2.33984 8.34917H6.65967C6.70629 8.34917 6.751 8.36769 6.78396 8.40066C6.81693 8.43362 6.83545 8.47833 6.83545 8.52495C6.83545 8.57157 6.81693 8.61628 6.78396 8.64925C6.751 8.68221 6.70629 8.70073 6.65967 8.70073ZM4.47966 4.13485C4.2861 4.13485 4.09688 4.07745 3.93594 3.96991C3.775 3.86237 3.64956 3.70953 3.57548 3.53069C3.50141 3.35186 3.48203 3.15508 3.51979 2.96524C3.55755 2.77539 3.65076 2.60101 3.78763 2.46414C3.9245 2.32727 4.09889 2.23406 4.28873 2.1963C4.47858 2.15853 4.67536 2.17791 4.85419 2.25199C5.03302 2.32606 5.18587 2.4515 5.29341 2.61244C5.40095 2.77339 5.45834 2.96261 5.45834 3.15617C5.45806 3.41564 5.35485 3.66441 5.17138 3.84788C4.9879 4.03136 4.73914 4.13456 4.47966 4.13485ZM4.47966 2.52905C4.35563 2.52905 4.23439 2.56583 4.13126 2.63474C4.02813 2.70365 3.94775 2.80159 3.90028 2.91618C3.85282 3.03077 3.8404 3.15687 3.8646 3.27851C3.88879 3.40016 3.94852 3.51191 4.03623 3.59961C4.12393 3.68731 4.23567 3.74704 4.35732 3.77124C4.47897 3.79544 4.60506 3.78302 4.71965 3.73555C4.83424 3.68809 4.93218 3.60771 5.00109 3.50458C5.07 3.40145 5.10678 3.2802 5.10678 3.15617C5.1066 2.98991 5.04046 2.8305 4.9229 2.71294C4.80533 2.59537 4.64593 2.52924 4.47966 2.52905Z" fill="white"/>
<path d="M5.68405 5.82103H3.27539C3.22877 5.82103 3.18406 5.80251 3.15109 5.76955C3.11813 5.73658 3.09961 5.69187 3.09961 5.64525V5.16361C3.10145 4.79879 3.24767 4.44953 3.50629 4.19222C3.76491 3.9349 4.11489 3.79044 4.47972 3.79044C4.84455 3.79044 5.19453 3.9349 5.45315 4.19222C5.71177 4.44953 5.85799 4.79879 5.85983 5.16361V5.64525C5.85983 5.69187 5.84131 5.73658 5.80835 5.76955C5.77538 5.80251 5.73067 5.82103 5.68405 5.82103ZM3.45117 5.46947H5.50827V5.16361C5.50668 4.89186 5.39762 4.63179 5.2049 4.44019C5.01218 4.2486 4.75147 4.14105 4.47972 4.14105C4.20797 4.14105 3.94726 4.2486 3.75454 4.44019C3.56183 4.63179 3.45276 4.89186 3.45117 5.16361V5.46947ZM6.56268 3.7788C6.51606 3.7788 6.47134 3.76028 6.43838 3.72732C6.40541 3.69435 6.38689 3.64964 6.38689 3.60302V3.09958H6.2193C6.06981 3.09942 5.92648 3.03996 5.82077 2.93425C5.71506 2.82854 5.6556 2.68521 5.65543 2.53571V0.862908C5.65561 0.713412 5.71508 0.57009 5.8208 0.464386C5.92651 0.358683 6.06984 0.29923 6.21934 0.299072H8.43591C8.5854 0.29924 8.72872 0.358696 8.83443 0.464399C8.94014 0.570101 8.9996 0.713418 8.99978 0.862908V2.53571C8.99961 2.68521 8.94015 2.82854 8.83444 2.93425C8.72873 3.03996 8.5854 3.09942 8.43591 3.09958H7.31474L6.68699 3.72733C6.67066 3.74366 6.65128 3.7566 6.62995 3.76543C6.60862 3.77426 6.58576 3.77881 6.56268 3.7788ZM6.21934 0.650635C6.16306 0.6507 6.1091 0.673084 6.0693 0.712878C6.0295 0.752672 6.00711 0.806627 6.00703 0.862908V2.53571C6.0071 2.592 6.02949 2.64596 6.06929 2.68577C6.10909 2.72557 6.16305 2.74796 6.21934 2.74802H6.56271C6.60933 2.74802 6.65404 2.76654 6.68701 2.79951C6.71997 2.83247 6.73849 2.87718 6.73849 2.9238V3.17865L7.11765 2.79949C7.13398 2.78317 7.15336 2.77022 7.17469 2.76139C7.19602 2.75256 7.21888 2.74802 7.24196 2.74802H8.43594C8.49222 2.74795 8.54618 2.72555 8.58597 2.68575C8.62576 2.64595 8.64815 2.59199 8.64821 2.53571V0.862908C8.64814 0.806627 8.62575 0.752672 8.58595 0.712878C8.54615 0.673084 8.49219 0.6507 8.43591 0.650635H6.21934Z" fill="white"/>
</g>
<defs>
<clipPath id="clip0_2866_8616">
<rect width="9" height="9" fill="white"/>
</clipPath>
</defs>
</svg>
