<svg width="18" height="18" viewBox="0 0 18 18" fill="none" xmlns="http://www.w3.org/2000/svg">
<g clip-path="url(#clip0_4607_12093)">
<path d="M10.125 15.75H7.125C7.02554 15.75 6.93016 15.7105 6.85983 15.6402C6.78951 15.5698 6.75 15.4745 6.75 15.375C6.75 15.2755 6.78951 15.1802 6.85983 15.1098C6.93016 15.0395 7.02554 15 7.125 15H10.125C10.7452 15 11.25 14.4953 11.25 13.875V10.125C11.25 10.0255 11.2895 9.93016 11.3598 9.85983C11.4302 9.78951 11.5255 9.75 11.625 9.75C11.7245 9.75 11.8198 9.78951 11.8902 9.85983C11.9605 9.93016 12 10.0255 12 10.125V13.875C12 14.9085 11.1592 15.75 10.125 15.75ZM17.625 8.25H10.125C10.0255 8.25 9.93016 8.21049 9.85983 8.14017C9.78951 8.06984 9.75 7.97446 9.75 7.875C9.75 7.77554 9.78951 7.68016 9.85983 7.60983C9.93016 7.53951 10.0255 7.5 10.125 7.5H17.625C17.7245 7.5 17.8198 7.53951 17.8902 7.60983C17.9605 7.68016 18 7.77554 18 7.875C18 7.97446 17.9605 8.06984 17.8902 8.14017C17.8198 8.21049 17.7245 8.25 17.625 8.25Z" fill="white"/>
<path d="M6 18C5.835 18 5.67375 17.9722 5.5215 17.9183L1.029 16.4205C0.729994 16.3218 0.469657 16.1315 0.284947 15.8765C0.100236 15.6216 0.000535999 15.3149 0 15L0 1.5C0 0.67275 0.67275 0 1.5 0C1.6665 0 1.8285 0.02775 1.97925 0.0825L6.471 1.5795C6.77013 1.67795 7.0306 1.86823 7.21534 2.12326C7.40008 2.37829 7.49969 2.68509 7.5 3V16.5C7.5 17.3272 6.82725 18 6 18ZM1.5 0.75C1.086 0.75 0.75 1.08675 0.75 1.5V15C0.750643 15.1575 0.800828 15.3107 0.893442 15.4381C0.986055 15.5654 1.1164 15.6604 1.266 15.7095L5.766 17.2095C6.258 17.3842 6.75 16.9905 6.75 16.5V3C6.74966 2.84256 6.69957 2.68925 6.60691 2.56197C6.51424 2.43469 6.38373 2.33994 6.234 2.29125L1.734 0.79125C1.65897 0.764072 1.5798 0.750116 1.5 0.75Z" fill="white"/>
<path d="M11.625 6C11.5255 6 11.4302 5.96049 11.3598 5.89016C11.2895 5.81984 11.25 5.72446 11.25 5.625V1.875C11.25 1.25475 10.7453 0.75 10.125 0.75H1.5C1.40054 0.75 1.30516 0.710491 1.23483 0.640165C1.16451 0.569839 1.125 0.474456 1.125 0.375C1.125 0.275544 1.16451 0.180161 1.23483 0.109835C1.30516 0.0395088 1.40054 0 1.5 0L10.125 0C11.1593 0 12 0.8415 12 1.875V5.625C12 5.72446 11.9605 5.81984 11.8902 5.89016C11.8198 5.96049 11.7245 6 11.625 6ZM14.625 11.25C14.5509 11.25 14.4784 11.228 14.4168 11.1868C14.3552 11.1457 14.3071 11.0872 14.2787 11.0187C14.2503 10.9503 14.2428 10.875 14.2572 10.8023C14.2716 10.7295 14.3072 10.6627 14.3595 10.6103L17.094 7.87575L14.3595 5.14125C14.2912 5.07052 14.2534 4.9758 14.2542 4.87747C14.2551 4.77915 14.2945 4.6851 14.3641 4.61557C14.4336 4.54604 14.5277 4.5066 14.626 4.50575C14.7243 4.50489 14.819 4.54269 14.8898 4.611L17.8898 7.611C17.9601 7.68132 17.9995 7.77669 17.9995 7.87613C17.9995 7.97556 17.9601 8.07093 17.8898 8.14125L14.8898 11.1412C14.8193 11.211 14.7241 11.2501 14.625 11.25Z" fill="white"/>
</g>
<defs>
<clipPath id="clip0_4607_12093">
<rect width="18" height="18" fill="white"/>
</clipPath>
</defs>
</svg>
