<svg width="18" height="18" viewBox="0 0 18 18" fill="none" xmlns="http://www.w3.org/2000/svg">
<mask id="mask0_4607_12059" style="mask-type:luminance" maskUnits="userSpaceOnUse" x="0" y="0" width="18" height="18">
<path d="M0 0H18V18H0V0Z" fill="white"/>
</mask>
<g mask="url(#mask0_4607_12059)">
<path d="M14.781 4.77684H16.0115C16.561 4.77684 17.0064 5.22227 17.0064 5.77141V15.5079H0.994141V5.77141C0.994141 5.22227 1.43957 4.77684 1.98906 4.77684H3.21953" stroke="white" stroke-width="0.8" stroke-miterlimit="10" stroke-linecap="round" stroke-linejoin="round"/>
<path d="M3.61645 14.2775H2.22461V6.00731H5.11375" stroke="white" stroke-width="0.8" stroke-miterlimit="10" stroke-linecap="round" stroke-linejoin="round"/>
<path d="M12.8866 6.00731H15.7757V14.2775H4.6709" stroke="white" stroke-width="0.8" stroke-miterlimit="10" stroke-linecap="round" stroke-linejoin="round"/>
<path d="M9.94809 16.5232H8.05299C7.50863 16.5232 7.06738 16.0819 7.06738 15.5376V15.5078H10.9337V15.5376C10.9337 16.0819 10.4924 16.5232 9.94809 16.5232Z" stroke="white" stroke-width="0.8" stroke-miterlimit="10" stroke-linecap="round" stroke-linejoin="round"/>
<path d="M17.7363 15.5078H0.263672V16.0922C0.263672 16.891 0.911215 17.5386 1.71003 17.5386H16.2899C17.0888 17.5386 17.7363 16.891 17.7363 16.0922V15.5078Z" stroke="white" stroke-width="0.8" stroke-miterlimit="10" stroke-linecap="round" stroke-linejoin="round"/>
<path d="M12.8863 5.78019V7.26544C12.8863 8.15267 12.3565 8.95782 11.5372 9.29838C9.91492 9.97264 8.08469 9.97264 6.46244 9.29838C5.64312 8.95782 5.11328 8.15267 5.11328 7.26544V5.78019" stroke="white" stroke-width="0.8" stroke-miterlimit="10" stroke-linecap="round" stroke-linejoin="round"/>
<path d="M11.356 1.51113L14.8037 3.3375C15.3761 3.6409 15.3761 4.46109 14.8037 4.76449L9.70504 7.46555C9.48775 7.58052 9.24564 7.64062 8.9998 7.64062C8.75397 7.64062 8.51186 7.58052 8.29457 7.46555L3.19586 4.76449C2.62352 4.46109 2.62352 3.6409 3.19586 3.3375L8.29457 0.636446C8.51186 0.521473 8.75397 0.461368 8.9998 0.461368C9.24564 0.461368 9.48775 0.521473 9.70504 0.636446L10.4349 1.02316" stroke="white" stroke-width="0.8" stroke-miterlimit="10" stroke-linecap="round" stroke-linejoin="round"/>
<path d="M9 4.05114L11.2681 6.63759V10.1425" stroke="white" stroke-width="0.8" stroke-miterlimit="10" stroke-linecap="round" stroke-linejoin="round"/>
<path d="M11.2679 10.1423L10.6957 11.1333C10.4893 11.491 10.7473 11.938 11.1603 11.938H11.3755C11.7884 11.938 12.0465 11.491 11.84 11.1333L11.2679 10.1423Z" stroke="white" stroke-width="0.8" stroke-miterlimit="10" stroke-linecap="round" stroke-linejoin="round"/>
<path d="M3.53809 13.047H8.81666" stroke="white" stroke-width="0.8" stroke-miterlimit="10" stroke-linecap="round" stroke-linejoin="round"/>
<path d="M3.53809 11.938H7.06742" stroke="white" stroke-width="0.8" stroke-miterlimit="10" stroke-linecap="round" stroke-linejoin="round"/>
</g>
</svg>
