<svg width="18" height="18" viewBox="0 0 18 18" fill="none" xmlns="http://www.w3.org/2000/svg">
<g clip-path="url(#clip0_2727_4834)">
<path d="M15.2186 10.1371C15.0263 10.2503 14.8028 10.3173 14.5632 10.3173H12.4758C11.7634 10.3173 11.1833 9.73724 11.1833 9.02424C11.1833 8.82483 11.23 8.63147 11.3157 8.45791C11.23 8.28431 11.1833 8.09095 11.1833 7.89101C11.1833 7.69161 11.23 7.49825 11.3157 7.32468C11.23 7.15108 11.1833 6.95772 11.1833 6.75835C11.1833 6.55838 11.23 6.36502 11.3157 6.19145C11.2305 6.01785 11.1833 5.82449 11.1833 5.62456C11.1833 5.48502 11.2058 5.35101 11.247 5.22522H9.95504C9.89517 5.88605 9.67435 6.88252 8.94978 7.7499C8.16042 8.69363 6.98486 9.24513 5.45831 9.39566C4.96173 10.3581 4.60742 11.3957 4.60742 12.4411C4.60742 15.5112 7.09638 18.0002 10.1659 18.0002C13.2361 18.0002 15.725 15.5112 15.725 12.4411C15.7251 11.6587 15.5257 10.882 15.2186 10.1371ZM11.3492 12.1938L11.2212 12.1405C11.0113 12.0515 10.7927 12.007 10.5719 12.007C9.93247 12.007 9.34525 12.3772 9.064 12.9453H11.1948L11.0635 13.5814H8.89096C8.88822 13.6176 8.88657 13.6544 8.88657 13.6912C8.88657 13.7824 8.89427 13.8747 8.9102 13.9681H10.985L10.8542 14.6042H9.15798C9.46725 15.0854 9.9935 15.3766 10.5719 15.3766C10.7675 15.3766 10.9641 15.3408 11.1558 15.2689L11.308 15.2123V16.1082L11.2245 16.1302C11.0097 16.1884 10.7905 16.2175 10.5719 16.2175C9.53148 16.2175 8.59544 15.5726 8.21916 14.6042H7.68141V13.9681H8.06265C8.05112 13.8703 8.04563 13.7796 8.04563 13.6912C8.04563 13.655 8.04672 13.6176 8.04838 13.5813H7.68141V12.9452H8.16098C8.48727 11.8927 9.46616 11.1654 10.5719 11.1654C10.8653 11.1654 11.1537 11.2171 11.4294 11.3176L11.5211 11.3511L11.3492 12.1938Z" fill="#7A7A7A"/>
<path d="M11.8073 2.42139C11.8073 2.42139 11.971 1.98302 12.8526 1.42657C13.6986 0.89318 13.0493 0.155988 11.8073 0.427359C10.9498 0.614145 11.241 0 10.0385 0C8.83607 0 9.1272 0.614145 8.2697 0.427359C7.0277 0.155988 6.3784 0.89318 7.22437 1.42657C8.10602 1.98302 8.2697 2.42139 8.2697 2.42139H11.8073Z" fill="#7A7A7A"/>
<path d="M15.1895 7.89091C15.1895 7.63986 15.0406 7.424 14.8264 7.32458C15.0406 7.22459 15.1901 7.00926 15.1901 6.75824C15.1901 6.50667 15.0406 6.29077 14.8264 6.19135C15.0401 6.09193 15.1895 5.8766 15.1895 5.62445C15.1895 5.27894 14.9093 4.99878 14.5632 4.99878H12.4758C12.1303 4.99878 11.8496 5.27894 11.8496 5.62445C11.8496 5.8766 11.999 6.09193 12.2133 6.19135C11.999 6.29077 11.8496 6.50667 11.8496 6.75824C11.8496 7.00929 11.999 7.22463 12.2133 7.32458C11.999 7.424 11.8496 7.63989 11.8496 7.89091C11.8496 8.14249 11.999 8.35838 12.2133 8.45724C11.999 8.55722 11.8496 8.77256 11.8496 9.02414C11.8496 9.37021 12.1303 9.65037 12.4758 9.65037H14.5632C14.9088 9.65037 15.1895 9.37021 15.1895 9.02414C15.1895 8.77256 15.0401 8.55722 14.8264 8.4578C15.0401 8.35838 15.1895 8.14249 15.1895 7.89091Z" fill="#7A7A7A"/>
<path d="M12.1707 3.15149C11.4676 3.15149 8.18927 3.15149 8.18927 3.15149C6.4677 3.15149 5.98652 4.49896 4.65332 4.49896V8.7754L5.23614 8.74847C9.69002 8.40348 9.30108 4.55827 9.30108 4.55827C9.30108 4.55827 10.3931 4.55827 11.8005 4.55827C13.2073 4.55827 13.2814 3.15149 12.1707 3.15149Z" fill="#7A7A7A"/>
<path d="M4.05202 3.99902H2.27441V9.77453H4.05202V3.99902Z" fill="#7A7A7A"/>
</g>
<defs>
<clipPath id="clip0_2727_4834">
<rect width="18" height="18" fill="white"/>
</clipPath>
</defs>
</svg>
