<svg width="18" height="19" viewBox="0 0 18 19" fill="none" xmlns="http://www.w3.org/2000/svg">
<g clip-path="url(#clip0_2727_4813)">
<path d="M9 0.5C4.03614 0.5 0 4.53614 0 9.5C0 14.4639 4.03614 18.5 9 18.5C13.9639 18.5 18 14.4639 18 9.5C18 4.53614 13.9616 0.5 9 0.5ZM14.4334 14.8418C14.2616 13.9141 13.8562 13.0368 13.2469 12.3038C13.1893 12.2344 13.1185 12.177 13.0387 12.1351C12.9588 12.0931 12.8715 12.0674 12.7816 12.0593C12.6918 12.0512 12.6013 12.0609 12.5152 12.088C12.4292 12.115 12.3493 12.1587 12.2802 12.2167C12.2108 12.2743 12.1535 12.3451 12.1115 12.4249C12.0696 12.5048 12.0438 12.5921 12.0357 12.682C12.0276 12.7718 12.0374 12.8623 12.0644 12.9484C12.0914 13.0344 12.1352 13.1143 12.1932 13.1834C12.8117 13.9278 13.153 14.8693 13.153 15.8383C13.153 15.8543 13.1575 15.8703 13.1575 15.8864C11.9618 16.6675 10.5347 17.1233 9 17.1233C7.46526 17.1233 6.04047 16.6675 4.84245 15.8864C4.84245 15.8703 4.84703 15.8566 4.84703 15.8383C4.84703 13.5499 6.70934 11.6853 9 11.6853C11.1395 11.6853 12.8804 9.94439 12.8804 7.80491C12.8804 5.66544 11.1395 3.92454 9 3.92454C6.86052 3.92454 5.11962 5.66544 5.11962 7.80491C5.11962 9.04416 5.70374 10.146 6.61084 10.8561C5.04632 11.6097 3.88954 13.0803 3.56656 14.8395C2.21049 13.4651 1.3744 11.5776 1.3744 9.5C1.3744 5.29435 4.79435 1.8744 9 1.8744C13.2057 1.8744 16.6256 5.29435 16.6256 9.5C16.6233 11.5776 15.7872 13.4651 14.4334 14.8418ZM6.49173 7.8072C6.49173 6.42594 7.61644 5.30122 8.99771 5.30122C10.379 5.30122 11.5037 6.42594 11.5037 7.8072C11.5037 9.19076 10.379 10.3132 8.99771 10.3132C7.61644 10.3132 6.49173 9.18847 6.49173 7.8072Z" fill="white"/>
</g>
<defs>
<clipPath id="clip0_2727_4813">
<rect width="18" height="18" fill="white" transform="translate(0 0.5)"/>
</clipPath>
</defs>
</svg>
