<svg width="18" height="18" viewBox="0 0 18 18" fill="none" xmlns="http://www.w3.org/2000/svg">
<g clip-path="url(#clip0_4607_12055)">
<path d="M9 0C4.03614 0 0 4.03614 0 9C0 13.9639 4.03614 18 9 18C13.9639 18 18 13.9639 18 9C18 4.03614 13.9616 0 9 0ZM14.4334 14.3418C14.2616 13.4141 13.8562 12.5368 13.2469 11.8038C13.1893 11.7344 13.1185 11.677 13.0387 11.6351C12.9588 11.5931 12.8715 11.5674 12.7816 11.5593C12.6918 11.5512 12.6013 11.5609 12.5152 11.588C12.4292 11.615 12.3493 11.6587 12.2802 11.7167C12.2108 11.7743 12.1535 11.8451 12.1115 11.9249C12.0696 12.0048 12.0438 12.0921 12.0357 12.182C12.0276 12.2718 12.0374 12.3623 12.0644 12.4484C12.0914 12.5344 12.1352 12.6143 12.1932 12.6834C12.8117 13.4278 13.153 14.3693 13.153 15.3383C13.153 15.3543 13.1575 15.3703 13.1575 15.3864C11.9618 16.1675 10.5347 16.6233 9 16.6233C7.46526 16.6233 6.04047 16.1675 4.84245 15.3864C4.84245 15.3703 4.84703 15.3566 4.84703 15.3383C4.84703 13.0499 6.70934 11.1853 9 11.1853C11.1395 11.1853 12.8804 9.44439 12.8804 7.30491C12.8804 5.16544 11.1395 3.42454 9 3.42454C6.86052 3.42454 5.11962 5.16544 5.11962 7.30491C5.11962 8.54416 5.70374 9.64597 6.61084 10.3561C5.04632 11.1097 3.88954 12.5803 3.56656 14.3395C2.21049 12.9651 1.3744 11.0776 1.3744 9C1.3744 4.79435 4.79435 1.3744 9 1.3744C13.2057 1.3744 16.6256 4.79435 16.6256 9C16.6233 11.0776 15.7872 12.9651 14.4334 14.3418ZM6.49173 7.3072C6.49173 5.92594 7.61644 4.80122 8.99771 4.80122C10.379 4.80122 11.5037 5.92594 11.5037 7.3072C11.5037 8.69076 10.379 9.81318 8.99771 9.81318C7.61644 9.81318 6.49173 8.68847 6.49173 7.3072Z" fill="#7A7A7A"/>
</g>
<defs>
<clipPath id="clip0_4607_12055">
<rect width="18" height="18" fill="white"/>
</clipPath>
</defs>
</svg>
