<svg width="12" height="11" viewBox="0 0 12 11" fill="none" xmlns="http://www.w3.org/2000/svg">
<path d="M6.55168 8.79728H2.0404C1.46581 8.79728 1 8.33147 1 7.75688V2.6927C1 2.1181 1.46581 1.65229 2.0404 1.65229H9.40017C9.97477 1.65229 10.4406 2.1181 10.4406 2.6927V5.69418M1.94692 3.37397H9.44321M3.54159 2.31593V1M7.89737 2.31593V1" stroke="white" stroke-width="0.5" stroke-miterlimit="10" stroke-linecap="round" stroke-linejoin="round"/>
<path d="M7.77955 6.78954C8.50266 6.02831 9.70594 5.99738 10.4672 6.72047C11.2285 7.44356 11.2594 8.64686 10.5363 9.40811C9.81318 10.1694 8.60988 10.2003 7.84862 9.47718C7.35666 9.00987 7.16972 8.34201 7.29421 7.72251" stroke="white" stroke-width="0.5" stroke-miterlimit="10" stroke-linecap="round" stroke-linejoin="round"/>
<path d="M8.33182 6.89388L7.70215 6.83939L7.75662 6.20972M9.12527 7.00936V8.12528H9.82263" fill="black"/>
<path d="M8.33182 6.89388L7.70215 6.83939L7.75662 6.20972M9.12527 7.00936V8.12528H9.82263" stroke="white" stroke-width="0.5" stroke-miterlimit="10" stroke-linecap="round" stroke-linejoin="round"/>
<path d="M2.59944 4.84C2.59944 4.8796 2.56734 4.9117 2.52775 4.9117C2.48815 4.9117 2.45605 4.8796 2.45605 4.84C2.45605 4.80041 2.48815 4.76831 2.52775 4.76831C2.56734 4.76831 2.59944 4.80041 2.59944 4.84Z" fill="#474747" stroke="white" stroke-width="0.5"/>
<path d="M4.19417 4.84C4.19417 4.8796 4.16207 4.9117 4.12247 4.9117C4.08288 4.9117 4.05078 4.8796 4.05078 4.84C4.05078 4.80041 4.08288 4.76831 4.12247 4.76831C4.16207 4.76831 4.19417 4.80041 4.19417 4.84Z" fill="#474747" stroke="white" stroke-width="0.5"/>
<path d="M5.78889 4.84C5.78889 4.8796 5.7568 4.9117 5.7172 4.9117C5.67761 4.9117 5.64551 4.8796 5.64551 4.84C5.64551 4.80041 5.67761 4.76831 5.7172 4.76831C5.7568 4.76831 5.78889 4.80041 5.78889 4.84Z" fill="#474747" stroke="white" stroke-width="0.5"/>
<path d="M7.38362 4.84C7.38362 4.8796 7.35152 4.9117 7.31193 4.9117C7.27233 4.9117 7.24023 4.8796 7.24023 4.84C7.24023 4.80041 7.27233 4.76831 7.31193 4.76831C7.35152 4.76831 7.38362 4.80041 7.38362 4.84Z" fill="#474747" stroke="white" stroke-width="0.5"/>
<path d="M8.97835 4.84C8.97835 4.8796 8.94625 4.9117 8.90665 4.9117C8.86706 4.9117 8.83496 4.8796 8.83496 4.84C8.83496 4.80041 8.86706 4.76831 8.90665 4.76831C8.94625 4.76831 8.97835 4.80041 8.97835 4.84Z" fill="#474747" stroke="white" stroke-width="0.5"/>
<path d="M2.59944 6.47233C2.59944 6.51192 2.56734 6.54402 2.52775 6.54402C2.48815 6.54402 2.45605 6.51192 2.45605 6.47233C2.45605 6.43273 2.48815 6.40063 2.52775 6.40063C2.56734 6.40063 2.59944 6.43273 2.59944 6.47233Z" fill="#474747" stroke="white" stroke-width="0.5"/>
<path d="M4.19417 6.47233C4.19417 6.51192 4.16207 6.54402 4.12247 6.54402C4.08288 6.54402 4.05078 6.51192 4.05078 6.47233C4.05078 6.43273 4.08288 6.40063 4.12247 6.40063C4.16207 6.40063 4.19417 6.43273 4.19417 6.47233Z" fill="#474747" stroke="white" stroke-width="0.5"/>
<path d="M5.78889 6.47233C5.78889 6.51192 5.7568 6.54402 5.7172 6.54402C5.67761 6.54402 5.64551 6.51192 5.64551 6.47233C5.64551 6.43273 5.67761 6.40063 5.7172 6.40063C5.7568 6.40063 5.78889 6.43273 5.78889 6.47233Z" fill="#474747" stroke="white" stroke-width="0.5"/>
</svg>
