<svg width="18" height="18" viewBox="0 0 18 18" fill="none" xmlns="http://www.w3.org/2000/svg">
<path d="M8.99975 10.1877C10.3415 10.1877 11.4292 9.10004 11.4292 7.75829C11.4292 6.41655 10.3415 5.32886 8.99975 5.32886C7.65801 5.32886 6.57031 6.41655 6.57031 7.75829C6.57031 9.10004 7.65801 10.1877 8.99975 10.1877Z" fill="white"/>
<path d="M12.8461 14.9031C12.8039 12.5822 11.0995 10.7147 8.9997 10.7147C6.89988 10.7147 5.19495 12.5828 5.15332 14.9031H12.8461Z" fill="white"/>
<path d="M2.88977 6.74743C3.89786 6.74743 4.71508 5.93021 4.71508 4.92211C4.71508 3.91402 3.89786 3.0968 2.88977 3.0968C1.88167 3.0968 1.06445 3.91402 1.06445 4.92211C1.06445 5.93021 1.88167 6.74743 2.88977 6.74743Z" fill="white"/>
<path d="M5.77969 10.2901C5.74819 8.54687 4.46794 7.14343 2.88956 7.14343C1.31119 7.14343 0.0315 8.54687 0 10.2901H5.77969Z" fill="white"/>
<path d="M15.1095 6.74743C16.1176 6.74743 16.9348 5.93021 16.9348 4.92211C16.9348 3.91402 16.1176 3.0968 15.1095 3.0968C14.1014 3.0968 13.2842 3.91402 13.2842 4.92211C13.2842 5.93021 14.1014 6.74743 15.1095 6.74743Z" fill="white"/>
<path d="M18 10.2901C17.9685 8.54687 16.6882 7.14343 15.1099 7.14343C13.5315 7.14343 12.2518 8.54687 12.2197 10.2901H18Z" fill="white"/>
</svg>
