<svg width="27" height="27" viewBox="0 0 27 27" fill="none" xmlns="http://www.w3.org/2000/svg">
<path d="M1.94644 26.1626L8.385 19.339C10.3239 21.0499 12.862 22.0728 15.6302 22.0148C21.5518 21.8897 26.2492 16.9116 26.123 10.8945C25.9968 4.87745 21.0948 0.100657 15.1732 0.224841C9.25161 0.349025 4.55417 5.32713 4.68036 11.3442C4.73488 13.944 5.68413 16.3096 7.21838 18.1513L0.754419 25.0013C0.439121 25.3351 0.450255 25.866 0.779269 26.1863C0.856865 26.2625 0.948901 26.3224 1.04997 26.3625C1.15104 26.4027 1.25912 26.4222 1.36784 26.42C1.47657 26.4178 1.58376 26.3939 1.68311 26.3497C1.78247 26.3055 1.872 26.2419 1.94644 26.1626ZM6.3299 11.3096C6.22313 6.21851 10.1981 2.00619 15.2084 1.90112C20.2186 1.79605 24.3667 5.83802 24.4735 10.9291C24.5802 16.0203 20.6052 20.2326 15.595 20.3376C10.5848 20.4427 6.43667 16.4008 6.3299 11.3096Z" fill="white"/>
</svg>
