<svg width="26" height="26" viewBox="0 0 26 26" fill="none" xmlns="http://www.w3.org/2000/svg">
<path d="M13.0384 4.55914C14.2973 4.55914 15.3179 3.53854 15.3179 2.27957C15.3179 1.0206 14.2973 0 13.0384 0C11.7794 0 10.7588 1.0206 10.7588 2.27957C10.7588 3.53854 11.7794 4.55914 13.0384 4.55914Z" fill="#4A148C"/>
<path d="M13.7102 6.91128L13.3034 6.17145L13.6643 5.515C13.7181 5.41715 13.6472 5.297 13.5354 5.297H12.5437C12.432 5.297 12.3609 5.41704 12.4148 5.515L12.7765 6.17282L12.369 6.91408C12.3217 7.0001 12.3063 7.10009 12.3254 7.19637L12.3951 7.54747L13.0396 7.72465L13.6784 7.54904L13.7528 7.19901C13.7735 7.1011 13.7584 6.99903 13.7102 6.91128Z" fill="#4A148C"/>
<path d="M12.0596 21.0513V23.6668C12.0596 24.3957 12.6505 24.9866 13.3795 24.9866C14.1084 24.9866 14.6994 24.3957 14.6994 23.6668V17.9561L12.0596 21.0513Z" fill="#4A148C"/>
<path d="M8.37951 21.6537C7.93594 21.2754 7.66365 20.7709 7.57031 20.2383V22.6413C7.57031 23.0237 7.88033 23.3338 8.26282 23.3338C8.6453 23.3338 8.95532 23.0237 8.95532 22.6413V22.0183C8.75194 21.9268 8.55781 21.8057 8.37951 21.6537Z" fill="#4A148C"/>
<path d="M8.95532 15.3134H7.57031V19.4047C7.64186 18.9946 7.82021 18.5976 8.10996 18.2579L8.95537 17.2667V15.3134H8.95532Z" fill="#4A148C"/>
<path d="M17.0244 15.3134V22.6412C17.0244 23.0236 17.3344 23.3337 17.7169 23.3337C18.0994 23.3337 18.4094 23.0236 18.4094 22.6412V15.3134H17.0244Z" fill="#4A148C"/>
<path d="M12.0527 15.3134L8.93871 18.9644C8.46568 19.5191 8.53185 20.3521 9.08643 20.8252C9.64157 21.2985 10.4745 21.2317 10.9472 20.6774L15.5221 15.3134H12.0527Z" fill="#4A148C"/>
<path d="M11.0902 9.76059C10.8186 9.76125 8.86961 9.76612 8.60108 9.76679C9.10209 8.70708 8.98844 8.94738 9.48259 7.9021C9.59848 7.65693 9.84446 7.4963 10.1142 7.4865V8.75522L10.8499 8.75334V7.48549C10.8499 7.42526 10.8418 7.3234 10.9438 7.24565C11.0029 7.20056 11.0798 7.18563 11.1516 7.20533C11.3029 7.24692 12.1075 7.46812 12.1951 7.49219C12.1906 7.48051 11.3468 5.29235 11.3442 5.28564H10.1402C9.01383 5.28564 7.9751 5.94357 7.49369 6.96188C7.33343 7.3009 6.02241 10.0741 5.86798 10.4008C5.51196 11.1543 6.10275 11.9962 6.86523 11.9708C7.33891 11.9697 10.6584 11.9614 11.0957 11.9603C11.7032 11.9588 12.1944 11.4651 12.1929 10.8577C12.1913 10.2139 11.6431 9.74332 11.0902 9.76059Z" fill="#4A148C"/>
<path d="M23.8951 12.975C23.8153 12.975 2.74305 12.975 2.10549 12.975C1.73712 12.975 1.43848 13.2736 1.43848 13.642C1.43848 14.0104 1.73712 14.309 2.10549 14.309H2.82348V24.9763C2.82348 25.5416 3.28184 26 3.84718 26C4.41253 26 4.87088 25.5416 4.87088 24.9763V14.309C5.60097 14.309 20.4355 14.309 21.1899 14.309V24.9763C21.1899 25.5417 21.6483 26 22.2136 26C22.779 26 23.2373 25.5417 23.2373 24.9763V14.309H23.8951C24.2635 14.309 24.5621 14.0104 24.5621 13.642C24.5622 13.2736 24.2635 12.975 23.8951 12.975Z" fill="#4A148C"/>
<path d="M20.1958 10.4011C20.0417 10.0751 18.7301 7.30058 18.5701 6.96213C18.0887 5.94386 17.05 5.28589 15.9237 5.28589H14.736C14.7316 5.29747 13.8898 7.4806 13.8853 7.49233C13.9763 7.46735 14.7783 7.24686 14.9288 7.20547C15.0005 7.18577 15.0774 7.20065 15.1366 7.24579C15.2386 7.32349 15.2305 7.4254 15.2305 7.48563V8.76349H15.94V7.48624C16.2136 7.49244 16.4641 7.65402 16.5814 7.90219C17.0759 8.94833 16.9684 8.72094 17.4649 9.77119C16.544 9.77119 15.8959 9.77119 14.971 9.77119C14.3635 9.77119 13.8711 10.2636 13.8711 10.8711C13.8711 11.4786 14.3635 11.971 14.971 11.971C15.4165 11.971 18.7499 11.971 19.2015 11.971C20.0051 11.971 20.5415 11.1319 20.1958 10.4011Z" fill="#4A148C"/>
</svg>
