<svg width="14" height="14" viewBox="0 0 14 14" fill="none" xmlns="http://www.w3.org/2000/svg">
<g clip-path="url(#clip0_2868_8651)">
<path d="M7.08719 0C5.41814 3.13829e-05 3.80545 0.603888 2.54685 1.70009C1.28826 2.79629 0.468731 4.31081 0.239577 5.96405C0.0490731 7.36412 0.288418 8.78902 0.925905 10.05L0.0149483 13.4492C-0.00496197 13.5234 -0.00498312 13.6016 0.014887 13.6758C0.0347572 13.75 0.073818 13.8177 0.128141 13.872C0.182464 13.9263 0.250133 13.9654 0.324343 13.9852C0.398553 14.0051 0.476687 14.0051 0.550886 13.9852L3.95012 13.0744C5.21112 13.7118 6.63601 13.9512 8.03607 13.7607C9.68934 13.5315 11.2039 12.7119 12.3001 11.4533C13.3962 10.1947 14.0001 8.58193 14 6.91286C14 5.07946 13.2717 3.32116 11.9753 2.02475C10.6789 0.728345 8.92059 2.17556e-05 7.08719 0ZM11.3566 11.1823C10.2008 12.3382 8.64253 12.9444 7.07114 12.9443C6.0724 12.9458 5.08911 12.6978 4.21055 12.2228C4.11212 12.1694 3.99696 12.1558 3.88879 12.1848L1.05625 12.9438L1.81523 10.1113C1.8442 10.0031 1.83059 9.88793 1.7772 9.7895C0.513233 7.45864 0.941081 4.52011 2.81774 2.64346C5.17187 0.289297 9.00237 0.28916 11.3566 2.64346C13.7108 4.99775 13.7107 8.82812 11.3566 11.1823ZM10.4743 4.83098C10.3825 4.77723 10.278 4.74889 10.1715 4.74889C10.0651 4.74889 9.96059 4.77723 9.86873 4.83098L9.14191 5.25063C9.0773 4.99655 8.92996 4.77122 8.72311 4.61016C8.51625 4.4491 8.26167 4.36149 7.99951 4.36114H4.40108C4.08867 4.36149 3.78916 4.48575 3.56826 4.70666C3.34736 4.92757 3.2231 5.22708 3.22275 5.53949V8.46048C3.2231 8.77289 3.34736 9.0724 3.56826 9.2933C3.78916 9.5142 4.08867 9.63846 4.40108 9.63881H7.99951C8.26167 9.63846 8.51625 9.55085 8.7231 9.3898C8.92995 9.22874 9.0773 9.00341 9.14191 8.74934L9.86871 9.16896C9.96077 9.22213 10.0652 9.25012 10.1715 9.25012C10.2778 9.25013 10.3823 9.22215 10.4744 9.16899C10.5664 9.11584 10.6429 9.03938 10.6961 8.94731C10.7492 8.85524 10.7772 8.7508 10.7772 8.64448V5.35549C10.7778 5.24905 10.7501 5.14436 10.6969 5.05218C10.6436 4.96 10.5668 4.88366 10.4743 4.83098ZM8.30287 8.46048C8.30276 8.5409 8.27077 8.618 8.2139 8.67486C8.15703 8.73173 8.07993 8.76371 7.99951 8.76381H4.40108C4.32066 8.76371 4.24356 8.73173 4.1867 8.67486C4.12983 8.618 4.09785 8.5409 4.09775 8.46048V5.53952C4.09785 5.4591 4.12983 5.382 4.1867 5.32513C4.24356 5.26826 4.32066 5.23627 4.40108 5.23616H7.99951C8.07994 5.23626 8.15704 5.26825 8.21391 5.32512C8.27078 5.38199 8.30277 5.45909 8.30287 5.53952V8.46048ZM9.9022 8.17791L9.17787 7.75972V6.24028L9.9022 5.82192V8.17791Z" fill="#DD5D00"/>
</g>
<defs>
<clipPath id="clip0_2868_8651">
<rect width="14" height="14" fill="white"/>
</clipPath>
</defs>
</svg>
