<svg width="21" height="21" viewBox="0 0 21 21" fill="none" xmlns="http://www.w3.org/2000/svg">
<path d="M6.35842 14.5645L5.52589 14.6051L3.91176 19.2425C3.86032 19.3902 3.98001 19.5413 4.13558 19.525L6.39813 19.2881C6.42934 19.2848 6.46089 19.2884 6.49053 19.2988C6.52017 19.3091 6.54717 19.3258 6.56961 19.3477L8.19609 20.9383C8.3079 21.0476 8.4955 21.0035 8.54689 20.8558L10.1716 16.1881L9.6925 15.7231L6.35842 14.5645Z" fill="#FF4755"/>
<path d="M10.1716 16.1893L10.4998 15.2462L5.85318 13.666L5.52588 14.6064C6.84535 15.5479 8.44299 16.1242 10.1716 16.1893Z" fill="#FC2B3A"/>
<path d="M14.6412 14.5645L15.4738 14.6051L17.0879 19.2425C17.1393 19.3902 17.0196 19.5413 16.8641 19.525L14.6015 19.2881C14.5703 19.2848 14.5388 19.2884 14.5091 19.2988C14.4795 19.3091 14.4525 19.3258 14.4301 19.3477L12.8036 20.9383C12.6918 21.0476 12.5042 21.0035 12.4528 20.8558L10.8281 16.1881L11.3072 15.7231L14.6412 14.5645Z" fill="#FF4755"/>
<path d="M10.828 16.1893L10.4998 15.2462L15.1464 13.666L15.4737 14.6064C14.1542 15.5479 12.5566 16.1242 10.828 16.1893Z" fill="#FC2B3A"/>
<path d="M10.4999 14.7704C2.87707 14.7704 2.88027 7.36587 2.88659 7.2386C3.0867 3.20718 6.41877 0 10.4999 0C14.581 0 17.9131 3.20718 18.1132 7.23864C18.1195 7.36591 18.1227 14.7704 10.4999 14.7704Z" fill="#FFE27A"/>
<path d="M10.4998 14.4769C6.41865 14.4769 3.08671 11.2697 2.88655 7.23828C2.88018 7.36625 2.87698 7.49435 2.87695 7.62247C2.87695 11.8324 6.28982 15.2453 10.4998 15.2453C14.7098 15.2453 18.1226 11.8324 18.1226 7.62247C18.1226 7.4936 18.1193 7.36555 18.113 7.23828C17.9129 11.2697 14.5809 14.4769 10.4998 14.4769Z" fill="#F9CF58"/>
<path d="M10.4997 13.1295C4.50663 13.1295 4.49859 7.23629 4.50663 7.10923C4.70478 3.97169 7.31223 1.48828 10.4997 1.48828C13.6872 1.48828 16.2946 3.97169 16.4928 7.10923C16.5008 7.23625 16.4928 13.1295 10.4997 13.1295Z" fill="#FFBA57"/>
<path d="M10.4998 12.8593C7.31236 12.8593 4.70537 10.3758 4.50722 7.23828C4.49898 7.36618 4.49478 7.49431 4.49463 7.62247C4.49463 10.939 7.18324 13.6277 10.4998 13.6277C13.8164 13.6277 16.505 10.939 16.505 7.62247C16.505 7.49336 16.5004 7.36535 16.4924 7.23828C16.2943 10.3758 13.6873 12.8593 10.4998 12.8593Z" fill="#FFAC3E"/>
<path d="M10.8423 11.1907C10.4254 11.1907 10.0874 10.8528 10.0874 10.4358V6.205C10.0874 6.205 9.63569 6.65802 9.09522 6.3862C8.67383 6.17428 8.67383 5.62881 8.67383 5.62881L9.6046 4.05767C9.67141 3.94489 9.76644 3.85145 9.88032 3.78654C9.99421 3.72164 10.123 3.6875 10.2541 3.6875H10.8423C11.2592 3.6875 11.5973 4.02547 11.5973 4.44243V10.4358C11.5973 10.8528 11.2592 11.1907 10.8423 11.1907Z" fill="#FFE27A"/>
<path d="M9.98365 5.61144C9.78328 5.9497 9.35726 6.09637 9.00194 5.928C8.86491 5.86361 8.75047 5.75941 8.67357 5.629C8.46394 5.98362 8.57743 6.43983 8.92647 6.65537C9.28642 6.87768 9.76741 6.74495 9.98299 6.38094L10.0874 6.20461V5.63978C10.0874 5.5831 10.0126 5.56263 9.98365 5.61144ZM10.8423 10.7911C10.4254 10.7911 10.0874 10.4531 10.0874 10.0362V10.8046C10.0874 11.2216 10.4254 11.5595 10.8423 11.5595C11.2592 11.5595 11.5972 11.2216 11.5972 10.8046V10.0362C11.5972 10.4531 11.2592 10.7911 10.8423 10.7911Z" fill="#F9CF58"/>
</svg>
