<svg width="55" height="54" viewBox="0 0 55 54" fill="none" xmlns="http://www.w3.org/2000/svg">
<path d="M37.2286 40.8499C34.8076 38.146 31.29 36.4444 27.375 36.4444C23.46 36.4444 19.9421 38.146 17.5211 40.8499M27.375 44C17.9862 44 10.375 36.3888 10.375 27C10.375 17.6112 17.9862 10 27.375 10C36.7638 10 44.375 17.6112 44.375 27C44.375 36.3888 36.7638 44 27.375 44ZM27.375 30.7778C24.2454 30.7778 21.7083 28.2407 21.7083 25.1111C21.7083 21.9815 24.2454 19.4444 27.375 19.4444C30.5046 19.4444 33.0417 21.9815 33.0417 25.1111C33.0417 28.2407 30.5046 30.7778 27.375 30.7778Z" stroke="#4A148C" stroke-width="3" stroke-linecap="round" stroke-linejoin="round"/>
</svg>
