<svg width="8" height="8" viewBox="0 0 8 8" fill="none" xmlns="http://www.w3.org/2000/svg">
<path d="M7.33288 3.27844L6.82288 2.68594C6.72538 2.57344 6.64663 2.36344 6.64663 2.21344V1.57594C6.64663 1.17844 6.32038 0.852188 5.92288 0.852188H5.28538C5.13913 0.852188 4.92538 0.773438 4.81288 0.675938L4.22038 0.165937C3.96163 -0.0553125 3.53788 -0.0553125 3.27538 0.165937L2.68663 0.679688C2.57413 0.773438 2.36038 0.852188 2.21413 0.852188H1.56538C1.16788 0.852188 0.841631 1.17844 0.841631 1.57594V2.21719C0.841631 2.36344 0.762881 2.57344 0.669131 2.68594L0.162881 3.28219C-0.0546191 3.54094 -0.0546191 3.96094 0.162881 4.21969L0.669131 4.81594C0.762881 4.92844 0.841631 5.13844 0.841631 5.28469V5.92594C0.841631 6.32344 1.16788 6.64969 1.56538 6.64969H2.21413C2.36038 6.64969 2.57413 6.72844 2.68663 6.82594L3.27913 7.33594C3.53788 7.55719 3.96163 7.55719 4.22413 7.33594L4.81663 6.82594C4.92913 6.72844 5.13913 6.64969 5.28913 6.64969H5.92663C6.32413 6.64969 6.65038 6.32344 6.65038 5.92594V5.28844C6.65038 5.14219 6.72913 4.92844 6.82663 4.81594L7.33663 4.22344C7.55413 3.96469 7.55413 3.53719 7.33288 3.27844ZM5.30788 3.04219L3.49663 4.85344C3.4439 4.90611 3.37241 4.93569 3.29788 4.93569C3.22335 4.93569 3.15187 4.90611 3.09913 4.85344L2.19163 3.94594C2.08288 3.83719 2.08288 3.65719 2.19163 3.54844C2.30038 3.43969 2.48038 3.43969 2.58913 3.54844L3.29788 4.25719L4.91038 2.64469C5.01913 2.53594 5.19913 2.53594 5.30788 2.64469C5.41663 2.75344 5.41663 2.93344 5.30788 3.04219Z" fill="white"/>
</svg>
