<svg width="11" height="12" viewBox="0 0 11 12" fill="none" xmlns="http://www.w3.org/2000/svg">
<path d="M5.76066 11.1109H1.04247C0.742877 11.1109 0.5 10.8832 0.5 10.6024V2.45774C0.5 2.17689 0.742877 1.94922 1.04247 1.94922H2.16336M7.91428 5.79091V6.66767M6.2509 1.94922H7.37178C7.67138 1.94922 7.91426 2.17689 7.91426 2.45774V5.07898" stroke="white" stroke-width="0.3" stroke-miterlimit="10" stroke-linecap="round" stroke-linejoin="round"/>
<path d="M5.19725 10.4781H1.2833C1.25452 10.4781 1.22693 10.4674 1.20658 10.4483C1.18624 10.4292 1.1748 10.4034 1.1748 10.3764V2.68178C1.1748 2.65481 1.18624 2.62894 1.20658 2.60987C1.22693 2.59079 1.25452 2.58008 1.2833 2.58008H2.16415M6.25167 2.58008H7.13252C7.16129 2.58008 7.18889 2.59079 7.20924 2.60987C7.22958 2.62894 7.24101 2.65481 7.24101 2.68178V6.68704" stroke="white" stroke-width="0.3" stroke-miterlimit="10" stroke-linecap="round" stroke-linejoin="round"/>
<path d="M3.63078 3.20065H5.90332C6.08307 3.20065 6.2288 3.06404 6.2288 2.89553V1.73353C6.2288 1.70656 6.21737 1.68069 6.19702 1.66162C6.17668 1.64255 6.14908 1.63183 6.12031 1.63183H4.88075C4.88075 1.28288 4.57899 1 4.20674 1C3.83449 1 3.5327 1.28288 3.5327 1.63183H2.29315C2.26438 1.63183 2.23678 1.64255 2.21643 1.66162C2.19609 1.68069 2.18466 1.70656 2.18466 1.73353V2.89551C2.18466 3.06402 2.33039 3.20063 2.51014 3.20063H2.87132M2.51012 4.17953V10.4776M1.19531 4.15919H7.21812M1.19531 5.42289H7.21812M1.19531 6.68655H7.23982M1.19531 7.95025H5.19606M1.19531 9.21392H5.19606M5.21776 7.63432V10.6009C5.21776 10.8818 5.46064 11.1094 5.76023 11.1094H10.0675C10.3671 11.1094 10.61 10.8818 10.61 10.6009V7.63432M6.75199 7.63432H10.6099V7.19508C10.6099 6.91423 10.3671 6.68655 10.0675 6.68655H5.76021C5.46061 6.68655 5.21774 6.91423 5.21774 7.19508V7.63432H5.99252M7.23982 7.00249V6.37064M8.58787 7.00249V6.37064M5.89177 7.00249V6.37064M9.93592 7.00249V6.37064" stroke="white" stroke-width="0.3" stroke-miterlimit="10" stroke-linecap="round" stroke-linejoin="round"/>
<path d="M6.90362 8.26758V10.1631M7.91466 8.26758V10.1631M8.92568 8.26758V10.1631M5.89258 9.21532H9.93672M5.89258 8.36928V10.0614C5.89258 10.0884 5.90401 10.1142 5.92436 10.1333C5.9447 10.1524 5.9723 10.1631 6.00107 10.1631H9.82823C9.857 10.1631 9.8846 10.1524 9.90495 10.1333C9.92529 10.1142 9.93672 10.0884 9.93672 10.0614V8.36928C9.93672 8.34231 9.92529 8.31644 9.90495 8.29737C9.8846 8.27829 9.857 8.26758 9.82823 8.26758H6.00107C5.9723 8.26758 5.9447 8.27829 5.92436 8.29737C5.90401 8.31644 5.89258 8.34231 5.89258 8.36928Z" stroke="white" stroke-width="0.3" stroke-miterlimit="10" stroke-linecap="round" stroke-linejoin="round"/>
</svg>
