<svg width="11" height="11" viewBox="0 0 11 11" fill="none" xmlns="http://www.w3.org/2000/svg">
<path d="M5.21351 0.316406C5.11616 0.31712 5.02138 0.347749 4.94203 0.40414C4.86268 0.460531 4.80258 0.539957 4.76989 0.631653H0.790492C0.664955 0.632281 0.54474 0.682429 0.455971 0.771197C0.367202 0.859966 0.317055 0.980182 0.316427 1.10572V2.68554C0.313442 2.89869 0.635256 2.89869 0.632868 2.68554V1.10572C0.632868 1.01556 0.700336 0.947498 0.790492 0.947498H4.74063V1.26394H1.10634C1.06448 1.26394 1.02432 1.28053 0.994668 1.31007C0.965013 1.33961 0.948273 1.3797 0.948115 1.42156V5.84458C0.948115 5.93175 1.01917 6.0028 1.10634 6.0028H8.37254C8.41451 6.0028 8.45475 5.98613 8.48442 5.95645C8.5141 5.92678 8.53076 5.88654 8.53076 5.84458V3.79129H8.84721V6.16042C8.84778 6.18135 8.84408 6.20219 8.83634 6.22164C8.82859 6.2411 8.81696 6.25877 8.80215 6.27358C8.78734 6.28839 8.76967 6.30002 8.75021 6.30777C8.73075 6.31552 8.70992 6.31922 8.68899 6.31864H0.789895C0.76901 6.31913 0.748242 6.31537 0.728856 6.30759C0.70947 6.29981 0.691869 6.28816 0.677125 6.27336C0.662381 6.25856 0.650801 6.24092 0.64309 6.2215C0.63538 6.20208 0.631698 6.1813 0.632271 6.16042V4.10654C0.635256 3.89339 0.313442 3.89339 0.316427 4.10654V6.16042C0.316427 6.42074 0.530771 6.63449 0.790492 6.63449H8.68958C8.81502 6.6337 8.93508 6.58348 9.02372 6.49473C9.11236 6.40598 9.16242 6.28585 9.16305 6.16042V3.79129H9.32067C9.44632 3.79051 9.5666 3.74025 9.65545 3.6514C9.74429 3.56255 9.79455 3.44227 9.79534 3.31663V0.789874C9.79455 0.664338 9.74425 0.544186 9.65537 0.455529C9.56649 0.366872 9.44621 0.316876 9.32067 0.316406H5.21351ZM5.21351 0.631056H9.32067C9.34166 0.630566 9.36254 0.634339 9.38203 0.642147C9.40152 0.649955 9.41922 0.661635 9.43407 0.676481C9.44891 0.691328 9.46059 0.709032 9.4684 0.728522C9.47621 0.748012 9.47998 0.768884 9.47949 0.789874V3.31663C9.4799 3.3376 9.47607 3.35843 9.46823 3.37788C9.46039 3.39733 9.44871 3.415 9.43388 3.42983C9.41905 3.44466 9.40138 3.45635 9.38193 3.46418C9.36248 3.47202 9.34164 3.47585 9.32067 3.47545H6.6351C6.59756 3.47521 6.56116 3.48833 6.53241 3.51246L5.68697 4.23789V3.63307C5.68682 3.59131 5.67016 3.55131 5.64063 3.52179C5.61111 3.49226 5.57111 3.4756 5.52935 3.47545H5.21351C5.19264 3.47578 5.17193 3.47188 5.15261 3.46399C5.13329 3.4561 5.11577 3.44439 5.1011 3.42955C5.08642 3.41471 5.07491 3.39706 5.06724 3.37765C5.05957 3.35824 5.05591 3.33749 5.05648 3.31663V0.789874C5.05648 0.699121 5.12335 0.631056 5.21351 0.631056ZM6.47748 1.26334V2.84316C6.47748 2.96735 6.61361 3.04258 6.71929 2.9775L7.98326 2.18819C8.00609 2.17398 8.02493 2.15419 8.03798 2.13069C8.05104 2.10718 8.05789 2.08074 8.05789 2.05385C8.05789 2.02696 8.05104 2.00051 8.03798 1.97701C8.02493 1.9535 8.00609 1.93371 7.98326 1.91951L6.71929 1.129C6.62376 1.0693 6.47748 1.12303 6.47748 1.26334ZM6.79392 1.54874L7.60055 2.05385L6.79392 2.55777V1.54874ZM1.26456 1.57978H4.74063V3.31663C4.74063 3.57635 4.95378 3.79129 5.21351 3.79129H5.37113V4.5806C5.37108 4.61085 5.37971 4.64048 5.39598 4.66598C5.41226 4.69147 5.4355 4.71177 5.46296 4.72446C5.49042 4.73715 5.52094 4.74171 5.55091 4.73759C5.58087 4.73347 5.60903 4.72084 5.63204 4.70121L6.69361 3.79129H8.21492V5.68695H5.05588C5.05588 5.16453 4.63018 4.74002 4.10775 4.74002H3.95013V4.3376C4.14357 4.16385 4.26657 3.91249 4.26657 3.63307V3.47604C4.35374 3.47545 4.42419 3.4044 4.4236 3.31722V2.84376C4.42328 2.59239 4.32329 2.35142 4.14555 2.17368C3.96781 1.99594 3.72683 1.89594 3.47547 1.89563H3.15962C2.6372 1.89563 2.21269 2.32133 2.21269 2.84376V3.31722C2.21269 3.4044 2.28314 3.47545 2.37031 3.47604V3.63307C2.37031 3.91249 2.49211 4.16385 2.68556 4.3376V4.74002H2.52734C2.00491 4.74002 1.5804 5.16393 1.5804 5.68695H1.26396L1.26456 1.57978ZM3.15902 2.21147H3.47547C3.82773 2.21147 4.10715 2.4909 4.10715 2.84376V3.09452L3.90296 2.89033C3.87716 2.86443 3.84316 2.8483 3.80679 2.84471C3.77041 2.84111 3.73391 2.85028 3.70354 2.87062C3.70354 2.87062 3.24679 3.1596 2.84258 3.1596H2.52674V2.84316C2.52674 2.4909 2.80557 2.21147 3.15902 2.21147ZM0.472259 3.15721C0.451559 3.15752 0.431123 3.16191 0.412118 3.17012C0.393113 3.17833 0.375912 3.1902 0.361497 3.20506C0.347081 3.21992 0.335734 3.23748 0.328104 3.25672C0.320473 3.27597 0.316708 3.29652 0.317024 3.31722V3.47545C0.313442 3.6886 0.635256 3.6886 0.632271 3.47545V3.31722C0.632511 3.29615 0.628536 3.27523 0.62058 3.25571C0.612624 3.23619 0.600846 3.21845 0.58594 3.20354C0.571033 3.18864 0.553298 3.17686 0.533776 3.1689C0.514254 3.16095 0.493339 3.15697 0.472259 3.15721ZM3.76683 3.19901L3.95013 3.3835V3.63307C3.95076 3.7162 3.93486 3.79863 3.90334 3.87556C3.87182 3.95248 3.82531 4.02237 3.76653 4.08116C3.70774 4.13994 3.63785 4.18645 3.56093 4.21797C3.484 4.24949 3.40157 4.26539 3.31844 4.26476C2.96558 4.26476 2.68556 3.98593 2.68556 3.63307V3.47604H2.84318C3.24858 3.47604 3.66115 3.26707 3.76683 3.1996V3.19901ZM3.0026 4.52567C3.10111 4.5609 3.20739 4.5812 3.31844 4.5812C3.42949 4.5812 3.53517 4.5609 3.63428 4.52567V4.86719C3.63428 4.86719 3.58055 5.05467 3.31784 5.05467C3.05573 5.05467 3.0026 4.86958 3.0026 4.86958V4.52567ZM2.52734 5.05467H2.74168C2.74168 5.05467 2.87781 5.37051 3.31844 5.37051C3.75847 5.37051 3.8946 5.05407 3.8946 5.05407H4.10775C4.46002 5.05407 4.73944 5.33409 4.73944 5.68695H1.89684C1.89684 5.33409 2.17447 5.05467 2.52734 5.05467ZM1.73862 6.94973C1.30396 6.94973 0.947518 7.30439 0.947518 7.73904V7.89786C0.947518 8.08176 1.01439 8.24893 1.12067 8.38327C0.896936 8.41777 0.692933 8.53118 0.545539 8.70299C0.398145 8.8748 0.317088 9.09368 0.317024 9.32006V9.6365C0.317024 9.72307 0.387477 9.79412 0.474648 9.79472H3.0014C3.02228 9.7948 3.04297 9.79074 3.06227 9.78279C3.08158 9.77484 3.09911 9.76314 3.11388 9.74838C3.12864 9.73361 3.14034 9.71607 3.14829 9.69677C3.15624 9.67747 3.1603 9.65678 3.16022 9.6359V9.31946C3.1596 9.09327 3.07825 8.87473 2.9308 8.70321C2.78336 8.53168 2.57951 8.41844 2.35598 8.38387C2.46226 8.24953 2.52793 8.08235 2.52793 7.89846V7.73964C2.52793 7.30498 2.17328 6.94973 1.73862 6.94973ZM5.05648 6.94973C4.62122 6.94973 4.26538 7.30439 4.26538 7.73904V7.89786C4.26538 8.08176 4.33165 8.24893 4.43852 8.38327C4.21478 8.41773 4.01071 8.531 3.86314 8.70267C3.71556 8.87433 3.63418 9.09308 3.63369 9.31946V9.6359C3.63369 9.72307 3.70474 9.79412 3.7925 9.79412H6.31926C6.34009 9.79412 6.36071 9.79001 6.37995 9.78202C6.39918 9.77403 6.41665 9.76232 6.43135 9.74757C6.44605 9.73281 6.45769 9.7153 6.46561 9.69603C6.47352 9.67677 6.47756 9.65613 6.47748 9.6353V9.31886C6.47689 9.09276 6.39561 8.8743 6.24829 8.70278C6.10096 8.53127 5.89726 8.41797 5.67384 8.38327C5.77952 8.24893 5.84579 8.08176 5.84579 7.89786V7.73904C5.84579 7.30439 5.49114 6.94973 5.05648 6.94973ZM8.37254 6.94973C7.93789 6.94973 7.58323 7.30439 7.58323 7.73904V7.89786C7.58323 8.08176 7.64891 8.24893 7.75519 8.38327C7.53155 8.41785 7.32763 8.53119 7.18017 8.70284C7.03271 8.87449 6.95142 9.09317 6.95095 9.31946V9.6359C6.95095 9.72307 7.02259 9.79472 7.10976 9.79412H9.63712C9.65794 9.79412 9.67857 9.79001 9.6978 9.78202C9.71704 9.77403 9.73451 9.76232 9.74921 9.74757C9.76391 9.73281 9.77555 9.7153 9.78346 9.69603C9.79138 9.67677 9.79541 9.65613 9.79534 9.6353V9.31886C9.7947 9.09259 9.71326 8.87398 9.56569 8.70244C9.41813 8.5309 9.21414 8.41771 8.9905 8.38327C9.09737 8.24893 9.16365 8.08176 9.16365 7.89786V7.73904C9.16365 7.30439 8.8078 6.94973 8.37254 6.94973ZM1.73862 7.26617C2.00372 7.26617 2.21209 7.47395 2.21209 7.73904V7.89786C2.21209 8.16296 2.00372 8.37133 1.73862 8.37133C1.47353 8.37133 1.26396 8.16296 1.26396 7.89786V7.73904C1.26396 7.47395 1.47293 7.26558 1.73862 7.26558V7.26617ZM5.05648 7.26617C5.32157 7.26617 5.52935 7.47395 5.52935 7.73904V7.89786C5.52999 7.96017 5.5182 8.02197 5.49466 8.07966C5.47113 8.13736 5.43634 8.18978 5.39231 8.23386C5.34828 8.27795 5.2959 8.31281 5.23824 8.33642C5.18057 8.36002 5.11878 8.37189 5.05648 8.37133C4.99402 8.37205 4.93204 8.3603 4.87418 8.33678C4.81631 8.31327 4.76371 8.27845 4.71946 8.23436C4.67521 8.19028 4.64019 8.13781 4.61645 8.08003C4.59272 8.02225 4.58074 7.96032 4.58122 7.89786V7.73904C4.58122 7.47395 4.79079 7.26558 5.05648 7.26558V7.26617ZM8.37254 7.26617C8.63824 7.26617 8.84721 7.47395 8.84721 7.73904V7.89786C8.84721 8.16296 8.63824 8.37133 8.37254 8.37133C8.31019 8.37197 8.24834 8.36016 8.1906 8.33659C8.13287 8.31302 8.08042 8.27817 8.03633 8.23408C7.99224 8.18998 7.95738 8.13754 7.93382 8.0798C7.91025 8.02207 7.89844 7.96022 7.89908 7.89786V7.73904C7.89908 7.47395 8.10805 7.26558 8.37254 7.26558V7.26617ZM1.26396 8.68717H2.21209C2.56435 8.68717 2.84378 8.9666 2.84378 9.31946V9.47828H0.631674V9.31946C0.631674 8.9666 0.911098 8.68717 1.26456 8.68717H1.26396ZM4.58122 8.68717H5.52935C5.88221 8.68717 6.16223 8.9666 6.16223 9.31946V9.47828H3.94893V9.31946C3.94893 8.9666 4.22895 8.68717 4.58122 8.68717ZM7.89908 8.68717H8.84721C9.20007 8.68717 9.47949 8.9666 9.47949 9.31946V9.47828H7.26739V9.31946C7.26739 8.9666 7.54621 8.68717 7.89908 8.68717Z" fill="white"/>
</svg>
