<svg width="26" height="27" viewBox="0 0 26 27" fill="none" xmlns="http://www.w3.org/2000/svg">
<path d="M12.9994 0.0810547C5.8207 0.0810547 0 6.05907 0 13.4318C0 20.8046 5.8207 26.7838 12.9994 26.7838C20.1782 26.7838 26 20.8046 26 13.4318C26 6.05907 20.1782 0.0810547 12.9994 0.0810547ZM15.7057 20.773C15.0365 21.0442 14.5039 21.2499 14.1044 21.3924C13.6563 21.5427 13.1868 21.6149 12.7155 21.606C11.9055 21.606 11.2749 21.4025 10.8259 20.9968C10.3769 20.591 10.1535 20.0767 10.1535 19.4517C10.1535 19.2087 10.17 18.96 10.203 18.7068C10.2438 18.4184 10.2978 18.1321 10.3648 17.8489L11.2023 14.8108C11.276 14.5192 11.3399 14.2422 11.3905 13.9845C11.4411 13.7246 11.4653 13.4861 11.4653 13.2691C11.4653 12.8825 11.3872 12.6113 11.232 12.4587C11.0746 12.3061 10.7786 12.2315 10.3373 12.2315C10.1216 12.2315 9.89926 12.2643 9.67145 12.3332C9.44584 12.4044 9.24995 12.4688 9.08927 12.5321L9.31048 11.5963C9.85854 11.3668 10.3835 11.1702 10.8842 11.0074C11.3421 10.8501 11.8211 10.7669 12.3039 10.761C13.1084 10.761 13.7291 10.9622 14.166 11.36C14.6007 11.759 14.8197 12.2778 14.8197 12.9153C14.8197 13.0475 14.8043 13.2804 14.7746 13.6127C14.7488 13.9232 14.6927 14.2303 14.6073 14.5293L13.7742 17.5585C13.6996 17.8325 13.6382 18.1101 13.5904 18.3903C13.5451 18.6236 13.5182 18.8602 13.5101 19.0979C13.5101 19.5003 13.597 19.7749 13.7731 19.9207C13.947 20.0665 14.2519 20.14 14.6833 20.14C14.8869 20.14 15.1147 20.1027 15.3722 20.0304C15.6275 19.958 15.8124 19.8936 15.9291 19.8382L15.7057 20.773ZM15.5582 8.47785C15.1794 8.84472 14.6756 9.04438 14.155 9.03395C13.6091 9.03395 13.1381 8.84858 12.7463 8.47785C12.56 8.30953 12.4112 8.10198 12.31 7.8693C12.2087 7.63661 12.1575 7.38427 12.1597 7.12944C12.1597 6.60386 12.3578 6.15175 12.7463 5.77763C13.1259 5.40784 13.6319 5.20609 14.155 5.21589C14.702 5.21589 15.1708 5.40238 15.5582 5.77763C15.9467 6.15175 16.1415 6.60386 16.1415 7.12944C16.1415 7.65727 15.9467 8.10712 15.5582 8.47785Z" fill="#4A148C"/>
</svg>
