<svg width="25" height="25" viewBox="0 0 25 25" fill="none" xmlns="http://www.w3.org/2000/svg">
<path d="M22.8027 3.71094H2.19727C0.983252 3.71094 0 4.70029 0 5.9082V19.0918C0 20.3069 0.990479 21.2891 2.19727 21.2891H22.8027C24.0066 21.2891 25 20.311 25 19.0918V5.9082C25 4.70244 24.0207 3.71094 22.8027 3.71094ZM22.495 5.17578L14.0537 13.5726C13.6387 13.9876 13.0869 14.2162 12.5 14.2162C11.9131 14.2162 11.3613 13.9876 10.9449 13.5712L2.50498 5.17578H22.495ZM1.46484 18.7937V6.20728L7.79482 12.5039L1.46484 18.7937ZM2.50591 19.8242L8.8334 13.537L9.9105 14.6084C10.6022 15.3001 11.5218 15.681 12.5 15.681C13.4782 15.681 14.3978 15.3001 15.0881 14.6098L16.1666 13.537L22.4941 19.8242H2.50591ZM23.5352 18.7937L17.2052 12.5039L23.5352 6.20728V18.7937Z" fill="#999999"/>
</svg>
