<svg width="59" height="59" viewBox="0 0 59 59" fill="none" xmlns="http://www.w3.org/2000/svg">
<path d="M29.4924 49.1176C40.3561 49.1176 49.163 40.3107 49.163 29.447C49.163 18.5832 40.3561 9.77637 29.4924 9.77637C18.6286 9.77637 9.82178 18.5832 9.82178 29.447C9.82178 40.3107 18.6286 49.1176 29.4924 49.1176Z" fill="#7C4DFF"/>
<path d="M6.67324 25.5421L7.21112 25.632L7.38714 24.5797L8.08401 24.6962L7.908 25.7486L8.50201 25.8479L8.70146 24.6552L9.43579 24.778L9.08301 26.8874L5.78564 26.336L6.13838 24.2266L6.87271 24.3494L6.67324 25.5421Z" fill="#CDCDCD"/>
<path d="M7.54949 19.6621L10.7128 20.7439L10.4121 21.6234L8.66664 21.0264L10.208 22.2202L9.95633 22.956L7.9918 22.9558L9.75069 23.5573L9.44995 24.4367L6.28662 23.3549L6.65031 22.2915L8.97693 22.2001L7.18734 20.7211L7.54949 19.6621Z" fill="#CDCDCD"/>
<path d="M10.672 17.4048C10.7741 17.5739 10.8245 17.7693 10.8168 17.9668C10.8056 18.2054 10.736 18.4376 10.6142 18.643L10.3919 19.0457L11.3801 19.5911L10.931 20.4048L8.00391 18.7894L8.67526 17.5729C8.78345 17.3626 8.93953 17.1806 9.13092 17.0417C9.29167 16.9272 9.48328 16.864 9.6806 16.8604C9.88261 16.8608 10.081 16.9142 10.2559 17.0153C10.4261 17.1067 10.5696 17.2409 10.672 17.4048ZM9.79757 17.8457C9.58449 17.7281 9.41453 17.7842 9.28772 18.0139L9.10898 18.3377L9.74421 18.6883L9.92295 18.3644C10.0497 18.1347 10.0079 17.9618 9.79757 17.8457Z" fill="#CDCDCD"/>
<path d="M12.6404 17.1741C12.3675 17.2902 12.0683 17.3302 11.7745 17.29C11.4686 17.2428 11.1798 17.1181 10.9356 16.9278C10.6913 16.7376 10.4998 16.488 10.3793 16.2028C10.2685 15.9283 10.2348 15.6287 10.2819 15.3364C10.3322 15.039 10.4556 14.7586 10.641 14.5206C10.8265 14.2826 11.0681 14.0945 11.3443 13.973C11.6155 13.8571 11.9133 13.8178 12.2053 13.8593C12.5108 13.908 12.7989 14.0332 13.0429 14.2233C13.2869 14.4134 13.4787 14.6622 13.6006 14.9465C13.7124 15.2206 13.7472 15.52 13.7013 15.8125C13.6528 16.1102 13.5302 16.3909 13.3448 16.6288C13.1594 16.8668 12.9172 17.0542 12.6404 17.1741ZM12.8261 15.5123C12.7884 15.3086 12.6674 15.1271 12.4628 14.9677C12.2534 14.8045 12.0459 14.73 11.8404 14.7443C11.6349 14.7585 11.4593 14.8591 11.3136 15.0462C11.1659 15.2357 11.1107 15.4312 11.1482 15.6327C11.1856 15.8342 11.309 16.0165 11.5185 16.1797C11.7255 16.341 11.9313 16.4152 12.1357 16.4022C12.3402 16.3892 12.5163 16.288 12.6639 16.0984C12.8097 15.9113 12.8638 15.716 12.8261 15.5123Z" fill="#CDCDCD"/>
<path d="M15.9388 9.43018L17.477 12.5098L16.6058 13.2494L14.9293 11.9854L15.8972 13.8509L15.026 14.5906L12.2441 12.5667L13.0106 11.9161L14.7862 13.4069L13.7082 11.3238L14.4855 10.6639L16.3429 12.0605L15.1724 10.0808L15.9388 9.43018Z" fill="#CDCDCD"/>
<path d="M17.8855 9.21645L18.1591 9.68819L19.0821 9.15302L19.4365 9.76429L18.5135 10.2995L18.8155 10.8205L19.8617 10.2139L20.2351 10.858L18.3849 11.9308L16.708 9.03856L18.5582 7.96582L18.9316 8.6099L17.8855 9.21645Z" fill="#CDCDCD"/>
<path d="M22.1127 10.0419L21.0282 9.15601L20.9361 9.19403L21.4071 10.3335L20.5482 10.6886L19.271 7.599L20.6251 7.03916C20.84 6.94272 21.0744 6.89768 21.3097 6.9076C21.5039 6.91751 21.6907 6.98494 21.8465 7.10131C21.9986 7.21857 22.1163 7.37465 22.1872 7.55312C22.273 7.75027 22.2926 7.96989 22.2432 8.17914C22.186 8.39779 22.0572 8.591 21.8774 8.72799L23.0724 9.64511L22.1127 10.0419ZM20.6934 8.60682L21.1185 8.43109C21.2353 8.38278 21.3115 8.31879 21.347 8.23913C21.3644 8.19463 21.3724 8.14699 21.3703 8.09924C21.3682 8.0515 21.3562 8.00471 21.335 7.96189C21.3195 7.91774 21.2948 7.87736 21.2626 7.84336C21.2304 7.80936 21.1915 7.78251 21.1483 7.76455C21.0504 7.73311 20.9442 7.74111 20.8521 7.78683L20.4271 7.96256L20.6934 8.60682Z" fill="#CDCDCD"/>
<path d="M23.5993 6.8251L23.7383 7.3524L24.7701 7.08035L24.9502 7.76359L23.9185 8.03564L24.072 8.61796L25.2413 8.30968L25.4311 9.02961L23.3631 9.57488L22.5107 6.34217L24.5787 5.79688L24.7686 6.51675L23.5993 6.8251Z" fill="#7C4DFF"/>
<path d="M27.641 5.56973C27.9109 5.6727 28.1448 5.85223 28.3141 6.08627C28.4891 6.33356 28.5965 6.62227 28.6257 6.92383C28.6655 7.2229 28.6258 7.5272 28.5104 7.80599C28.397 8.07317 28.2099 8.30256 27.971 8.46739C27.7072 8.64722 27.4021 8.75721 27.0843 8.78707L25.77 8.93889L25.3862 5.61784L26.7005 5.46597C27.0178 5.42211 27.341 5.45776 27.641 5.56973ZM27.5298 7.68537C27.6666 7.52001 27.7194 7.30226 27.6883 7.03213C27.6567 6.75893 27.5553 6.55663 27.3842 6.42523C27.213 6.29383 26.9924 6.24374 26.7224 6.27494L26.4021 6.31197L26.5991 8.01729L26.9194 7.98022C27.1895 7.94903 27.393 7.85072 27.5298 7.68537Z" fill="#7C4DFF"/>
<path d="M33.6574 8.30568L34.6778 8.49894L34.5454 9.19783L32.6118 8.83173L33.2338 5.54688L34.1471 5.71982L33.6574 8.30568Z" fill="#CDCDCD"/>
<path d="M36.4673 7.06L36.3052 7.58068L37.3239 7.89795L37.1138 8.57255L36.095 8.25528L35.9159 8.8303L37.0705 9.18993L36.8491 9.90073L34.8071 9.26475L35.8013 6.07275L37.8433 6.70875L37.6219 7.4196L36.4673 7.06Z" fill="#CDCDCD"/>
<path d="M39.3263 10.4214L38.2572 9.90915L37.859 10.323L36.978 9.90089L39.5218 7.4126L40.4883 7.87569L40.1384 11.4153L39.2532 10.9911L39.3263 10.4214ZM39.4241 9.67955L39.5663 8.54876L38.7784 9.3701L39.4241 9.67955Z" fill="#CDCDCD"/>
<path d="M41.6721 12.4998L41.8261 11.1079L41.7441 11.0514L41.0438 12.0661L40.2788 11.5382L42.1778 8.78662L43.3838 9.61897C43.5815 9.74688 43.7467 9.91909 43.8663 10.1219C43.9636 10.2903 44.0085 10.4838 43.9955 10.6778C43.9798 10.8692 43.9128 11.0529 43.8015 11.2094C43.6827 11.3886 43.509 11.5244 43.3066 11.5967C43.0919 11.6675 42.8598 11.6645 42.6471 11.5881L42.5269 13.0897L41.6721 12.4998ZM42.105 10.5284L42.4836 10.7896C42.5877 10.8614 42.6828 10.8906 42.769 10.8771C42.8158 10.8675 42.8601 10.8483 42.8991 10.8206C42.938 10.7929 42.9708 10.7574 42.9952 10.7163C43.0238 10.6793 43.0443 10.6366 43.0553 10.5911C43.0663 10.5456 43.0677 10.4983 43.0593 10.4523C43.0325 10.3531 42.968 10.2683 42.8796 10.2159L42.501 9.95462L42.105 10.5284Z" fill="#CDCDCD"/>
<path d="M44.9926 15.3968L44.3197 14.7556L44.7128 12.5491L43.4238 13.9017L42.751 13.2604L45.0575 10.8403L45.7303 11.4816L45.3209 13.7052L46.6263 12.3355L47.2991 12.9767L44.9926 15.3968Z" fill="#CDCDCD"/>
<path d="M48.4125 14.3443L45.8374 16.4763L45.2446 15.7604L47.8198 13.6284L48.4125 14.3443Z" fill="#CDCDCD"/>
<path d="M47.8289 19.3937L47.3245 18.613L48.2221 16.5595L46.6528 17.5734L46.1484 16.7928L48.9565 14.9785L49.4609 15.7592L48.5433 17.8256L50.1326 16.7987L50.637 17.5795L47.8289 19.3937Z" fill="#CDCDCD"/>
<path d="M50.9203 20.8244C50.9799 20.7415 51.0147 20.6433 51.0206 20.5413C51.0256 20.4275 51.0034 20.3141 50.9558 20.2105C50.8635 19.9955 50.7211 19.8563 50.5286 19.7928C50.3361 19.7292 50.1223 19.7479 49.887 19.8491C49.6227 19.9627 49.4499 20.1152 49.3688 20.3066C49.2875 20.4981 49.3012 20.7202 49.4099 20.9729C49.5384 21.272 49.7652 21.4274 50.0903 21.4392L49.7214 20.5809L50.3358 20.3169L51.021 21.9116L50.1932 22.2673C49.9944 22.2691 49.7968 22.2361 49.6093 22.1698C49.4013 22.0956 49.2103 21.9801 49.048 21.8303C48.8621 21.6586 48.7162 21.4482 48.6206 21.214C48.4924 20.9315 48.4398 20.6207 48.4677 20.3118C48.4956 20.0245 48.6059 19.7513 48.7852 19.5251C48.9815 19.2897 49.2306 19.104 49.5123 18.983C49.7939 18.862 50.1001 18.8091 50.4059 18.8287C50.6929 18.8541 50.9665 18.9614 51.1942 19.1377C51.4373 19.3291 51.6263 19.5805 51.7426 19.8672C51.9086 20.2535 51.9529 20.6129 51.8756 20.9456C51.8007 21.2748 51.5995 21.5614 51.3154 21.7438L50.9203 20.8244Z" fill="#CDCDCD"/>
<path d="M49.6475 23.1908C49.764 22.9026 49.9867 22.7062 50.3155 22.6017L50.5637 23.5612C50.4712 23.5855 50.3917 23.6447 50.3419 23.7263C50.3099 23.7993 50.3019 23.8806 50.3189 23.9585C50.336 24.0363 50.3772 24.1068 50.4368 24.1597C50.4637 24.1808 50.4953 24.1951 50.5289 24.2013C50.5625 24.2075 50.5971 24.2056 50.6298 24.1955C50.6754 24.1844 50.7171 24.1607 50.7499 24.1271C50.7828 24.0935 50.8056 24.0513 50.8157 24.0054C50.8524 23.849 50.8734 23.6893 50.8786 23.5287C50.8891 23.339 50.9132 23.1503 50.9505 22.964C50.9849 22.8122 51.0538 22.6703 51.1519 22.5495C51.2539 22.4203 51.4075 22.3291 51.6126 22.276C51.8015 22.2215 52.0027 22.2277 52.1879 22.2938C52.3676 22.3628 52.5236 22.4824 52.6369 22.6381C52.7675 22.8161 52.8614 23.0182 52.9132 23.2328C53.0105 23.6093 53.0003 23.9327 52.8825 24.2032C52.7646 24.4737 52.5485 24.6578 52.2342 24.7554L51.9813 23.7775C52.0227 23.7685 52.0617 23.7508 52.0957 23.7255C52.1297 23.7002 52.158 23.668 52.1785 23.631C52.2132 23.5567 52.2193 23.4723 52.1956 23.3939C52.1823 23.3325 52.1455 23.2787 52.0932 23.244C52.0653 23.2276 52.0343 23.2172 52.0021 23.2137C51.97 23.2102 51.9374 23.2136 51.9067 23.2237C51.8767 23.2313 51.8487 23.2452 51.8245 23.2646C51.8004 23.2839 51.7807 23.3082 51.7667 23.3358C51.7326 23.4004 51.7093 23.4701 51.6976 23.5422C51.6837 23.621 51.67 23.7355 51.6567 23.8859C51.6442 24.0746 51.6182 24.2622 51.579 24.4472C51.5437 24.5999 51.4754 24.743 51.3788 24.8663C51.2688 25.0017 51.116 25.0956 50.9456 25.1326C50.763 25.1827 50.5699 25.1791 50.3894 25.1222C50.205 25.0609 50.0417 24.9486 49.9187 24.7982C49.7734 24.6202 49.6708 24.4113 49.6187 24.1876C49.5214 23.8111 49.531 23.4788 49.6475 23.1908Z" fill="#CDCDCD"/>
<path d="M6.95067 36.222L7.19117 36.9004L6.9437 36.9881L6.59082 35.9927L8.55384 35.2969L8.66619 35.6139L6.95067 36.222Z" fill="#DBD5D5"/>
<path d="M8.3435 38.3864L7.84982 37.2371C7.69855 37.3086 7.60295 37.3999 7.56303 37.5112C7.52308 37.6232 7.52875 37.7465 7.5788 37.8544C7.61597 37.9491 7.68303 38.029 7.76978 38.0822C7.84921 38.1305 7.94449 38.1455 8.03494 38.124L8.17699 38.4546C8.0662 38.4805 7.95073 38.4786 7.84086 38.4491C7.73099 38.4195 7.63011 38.3633 7.54721 38.2854C7.4542 38.199 7.38098 38.0936 7.33256 37.9763C7.27249 37.8438 7.24749 37.6981 7.25996 37.5532C7.27358 37.4157 7.32682 37.2852 7.41322 37.1775C7.51335 37.0605 7.63897 36.9681 7.78041 36.9074C7.92185 36.8466 8.07535 36.8191 8.22909 36.827C8.36669 36.8385 8.498 36.8898 8.60707 36.9745C8.71847 37.0673 8.80646 37.1851 8.86394 37.3183C8.92142 37.4514 8.94678 37.5962 8.93797 37.741C8.92616 37.8717 8.8772 37.9964 8.79686 38.1002C8.71403 38.2061 8.60521 38.2888 8.48097 38.3402C8.43667 38.3598 8.39065 38.3753 8.3435 38.3864ZM8.57897 37.8695C8.62752 37.808 8.65587 37.733 8.66013 37.6547C8.66393 37.5757 8.64928 37.4968 8.61733 37.4244C8.5728 37.3112 8.48627 37.2195 8.37579 37.1686C8.26673 37.119 8.13839 37.1217 7.99076 37.1766L8.35522 38.0249C8.44274 37.9948 8.52019 37.941 8.57897 37.8695Z" fill="#DBD5D5"/>
<path d="M9.68948 39.258C9.6756 39.3816 9.6228 39.4977 9.53871 39.5894L9.87179 39.4115L10.0303 39.7081L8.59651 40.4739L8.43806 40.1773L8.77111 39.9994C8.64815 40.0183 8.52235 39.9976 8.41187 39.9404C8.29334 39.8775 8.19747 39.779 8.13771 39.6588C8.07296 39.5424 8.04176 39.4103 8.04756 39.2772C8.0552 39.1448 8.10106 39.0175 8.17958 38.9107C8.27352 38.79 8.3918 38.6903 8.52673 38.6183C8.66165 38.5462 8.81023 38.5033 8.9628 38.4924C9.09524 38.4865 9.22653 38.5192 9.34079 38.5864C9.45462 38.6556 9.54705 38.755 9.60785 38.8735C9.67452 38.99 9.70306 39.1245 9.68948 39.258ZM9.10123 38.8548C8.97491 38.8209 8.83804 38.8433 8.69061 38.922C8.54316 39.0008 8.44845 39.1021 8.40647 39.2259C8.3859 39.2892 8.37907 39.3562 8.38643 39.4223C8.39379 39.4885 8.41518 39.5523 8.44915 39.6095C8.48987 39.6887 8.55144 39.7553 8.62724 39.802C8.7022 39.8473 8.78829 39.8708 8.87585 39.8699C8.97363 39.8661 9.06927 39.8402 9.15558 39.7941C9.24189 39.748 9.31662 39.6829 9.37415 39.6037C9.42426 39.5314 9.45307 39.4465 9.45729 39.3587C9.4606 39.2697 9.43952 39.1815 9.39632 39.1036C9.36763 39.0436 9.32648 38.9903 9.27559 38.9474C9.22471 38.9045 9.16527 38.873 9.10123 38.8548Z" fill="#DBD5D5"/>
<path d="M10.48 40.5485C10.5905 40.6057 10.6828 40.6925 10.7467 40.7992L10.4367 40.9934L10.3835 40.9084C10.3212 40.7971 10.2223 40.7109 10.1035 40.6643C9.99515 40.6266 9.87098 40.6516 9.73102 40.7393L9.03352 41.1762L8.85498 40.8912L10.2325 40.0283L10.4111 40.3133L10.141 40.4824C10.258 40.4723 10.3755 40.4952 10.48 40.5485Z" fill="#DBD5D5"/>
<path d="M11.5193 42.2012C11.4876 42.3652 11.3802 42.5135 11.1972 42.6464L10.4308 43.2026L10.2332 42.9304L10.971 42.395C11.075 42.3292 11.1494 42.2255 11.1785 42.1059C11.188 42.0499 11.1854 41.9926 11.171 41.9377C11.1566 41.8828 11.1307 41.8315 11.095 41.7874C11.0621 41.7376 11.019 41.6954 10.9685 41.6635C10.9181 41.6316 10.8614 41.6108 10.8023 41.6025C10.6857 41.5876 10.5605 41.6286 10.4268 41.7256L9.72731 42.2333L9.52979 41.9611L10.8453 41.0063L11.0428 41.2785L10.7539 41.4882C10.8709 41.4514 10.9968 41.455 11.1113 41.4985C11.2281 41.5441 11.3288 41.6233 11.4004 41.7261C11.453 41.7923 11.4907 41.8689 11.5112 41.9508C11.5317 42.0328 11.5345 42.1181 11.5193 42.2012Z" fill="#DBD5D5"/>
<path d="M12.3839 44.7635L11.7878 44.1173L11.348 44.3063L11.104 44.0418L13.131 43.2153L13.3931 43.4994L12.4042 45.4512L12.1601 45.1866L12.3839 44.7635ZM12.5107 44.5181L12.9922 43.6043L12.0426 44.0107L12.5107 44.5181Z" fill="#DBD5D5"/>
<path d="M14.6638 45.5315C14.666 45.6984 14.5909 45.8654 14.4386 46.0326L13.8009 46.7327L13.5523 46.5062L14.1662 45.8324C14.2547 45.7468 14.3066 45.6302 14.3108 45.5072C14.3087 45.4504 14.2946 45.3948 14.2694 45.344C14.2441 45.2931 14.2084 45.2482 14.1645 45.2123C14.1222 45.1701 14.0714 45.1375 14.0155 45.1165C13.9596 45.0956 13.8999 45.0867 13.8404 45.0906C13.7231 45.0995 13.6089 45.165 13.4977 45.2872L12.9156 45.9261L12.667 45.6997L13.7616 44.498L14.0102 44.7245L13.7699 44.9884C13.8769 44.9286 14.0009 44.9066 14.1219 44.926C14.2455 44.947 14.3601 45.0041 14.4512 45.0903C14.516 45.1444 14.5685 45.2118 14.6052 45.2879C14.6419 45.364 14.6618 45.447 14.6638 45.5315Z" fill="#DBD5D5"/>
<path d="M15.3289 45.8791L14.9827 47.1219L16.0708 46.4531L16.3671 46.6824L14.1225 47.9781L13.8262 47.7488L14.6003 47.322L15.0303 45.6479L15.3289 45.8791Z" fill="#DBD5D5"/>
<path d="M16.4662 48.3499L16.3023 48.5916L16.1314 48.4757C15.9882 48.3786 15.903 48.2703 15.8758 48.1509C15.8486 48.0316 15.8897 47.8913 15.999 47.7301L16.446 47.0709L16.2531 46.9401L16.4137 46.7033L16.6066 46.8341L16.8334 46.4995L17.1142 46.69L16.8874 47.0245L17.2121 47.2446L17.0515 47.4815L16.7268 47.2613L16.2765 47.9254C16.2246 48.0019 16.2029 48.0644 16.2116 48.1131C16.2201 48.1617 16.2602 48.2103 16.3319 48.2589L16.4662 48.3499Z" fill="#DBD5D5"/>
<path d="M18.5528 48.2329C18.5897 48.3957 18.5511 48.5748 18.437 48.7701L17.959 49.5875L17.6687 49.4177L18.1288 48.6308C18.1976 48.5287 18.224 48.4039 18.2025 48.2827C18.1887 48.2276 18.1633 48.1762 18.128 48.1317C18.0927 48.0872 18.0484 48.0507 17.998 48.0247C17.9478 47.9923 17.8914 47.971 17.8324 47.9621C17.7733 47.9532 17.7131 47.957 17.6556 47.9731C17.5428 48.0062 17.4447 48.0941 17.3614 48.2368L16.9251 48.9829L16.6348 48.8132L17.7366 46.9287L18.0269 47.0984L17.5653 47.8878C17.6576 47.8071 17.7743 47.7598 17.8967 47.7536C18.022 47.7483 18.1459 47.7804 18.2529 47.8457C18.3276 47.8851 18.393 47.9401 18.4447 48.0069C18.4964 48.0736 18.5333 48.1507 18.5528 48.2329Z" fill="#DBD5D5"/>
<path d="M19.4141 48.5L18.6766 49.9485L18.377 49.7959L19.1144 48.3474L19.4141 48.5ZM19.4032 47.8059C19.4588 47.7909 19.518 47.7984 19.568 47.8269C19.6208 47.8509 19.6621 47.8945 19.6832 47.9485C19.6927 47.9733 19.6966 47.9999 19.6948 48.0264C19.693 48.0529 19.6856 48.0788 19.6729 48.1021C19.6618 48.1258 19.6456 48.1467 19.6254 48.1633C19.6052 48.18 19.5815 48.1919 19.5561 48.1982C19.5001 48.2109 19.4413 48.2023 19.3914 48.1739C19.3393 48.1505 19.2981 48.1083 19.2761 48.0557C19.2667 48.0314 19.2628 48.0053 19.2645 47.9793C19.2663 47.9534 19.2738 47.9281 19.2864 47.9053C19.2978 47.8814 19.314 47.8602 19.3342 47.8431C19.3543 47.8259 19.3778 47.8133 19.4032 47.8059Z" fill="#DBD5D5"/>
<path d="M20.9408 49.3701C20.9963 49.5276 20.9787 49.71 20.8881 49.9171L20.5082 50.7845L20.2001 50.6495L20.5658 49.8146C20.6223 49.7052 20.634 49.5781 20.5986 49.4602C20.5785 49.4072 20.5473 49.359 20.5071 49.3189C20.4669 49.2788 20.4186 49.2477 20.3655 49.2277C20.312 49.2014 20.2534 49.1868 20.1937 49.1848C20.1341 49.1828 20.0747 49.1935 20.0195 49.2162C19.9113 49.2622 19.8241 49.3609 19.7578 49.5123L19.411 50.304L19.103 50.1691L19.7551 48.6802L20.0632 48.8151L19.92 49.1421C20.0022 49.0511 20.1127 48.9906 20.2336 48.9702C20.3573 48.9504 20.4842 48.9678 20.5981 49.0203C20.6768 49.0509 20.7481 49.0979 20.8072 49.1582C20.8663 49.2185 20.9119 49.2908 20.9408 49.3701Z" fill="#DBD5D5"/>
<path d="M22.4458 49.8428C22.5201 49.9426 22.5609 50.0634 22.5622 50.1878L22.6837 49.8302L23.0021 49.9385L22.4734 51.4942C22.431 51.6275 22.3563 51.7482 22.2559 51.8456C22.1612 51.9356 22.0427 51.9964 21.9144 52.0208C21.7724 52.0459 21.6263 52.0328 21.491 51.9829C21.275 51.9095 21.1179 51.799 21.0195 51.6513C20.9213 51.504 20.8825 51.325 20.911 51.1502L21.2266 51.2574C21.2201 51.3523 21.2479 51.4463 21.3048 51.5224C21.3713 51.6054 21.4616 51.666 21.5636 51.696C21.6202 51.7175 21.6805 51.7276 21.7411 51.7257C21.8016 51.7238 21.8612 51.71 21.9163 51.6849C22.0248 51.6346 22.1044 51.535 22.155 51.386L22.2822 51.0117C22.2054 51.1096 22.0994 51.1805 21.9797 51.2143C21.8501 51.2494 21.7129 51.243 21.5871 51.1962C21.4602 51.1554 21.3472 51.0803 21.2604 50.9792C21.1755 50.8774 21.1219 50.7531 21.1063 50.6214C21.0923 50.4691 21.1105 50.3155 21.1597 50.1707C21.2089 50.0259 21.2881 49.893 21.392 49.7807C21.4846 49.6859 21.6028 49.62 21.7322 49.591C21.8625 49.5637 21.9979 49.573 22.1233 49.618C22.2516 49.6575 22.3644 49.7361 22.4458 49.8428ZM21.7408 49.9507C21.6253 50.0122 21.5407 50.1221 21.487 50.2803C21.4332 50.4387 21.4333 50.5774 21.4874 50.6964C21.5156 50.7567 21.5564 50.8102 21.607 50.8535C21.6576 50.8967 21.7168 50.9287 21.7807 50.9472C21.8646 50.9772 21.955 50.9837 22.0423 50.966C22.1279 50.9478 22.2068 50.9061 22.2701 50.8456C22.3389 50.776 22.391 50.6917 22.4224 50.5991C22.4539 50.5064 22.464 50.4079 22.4519 50.3108C22.4391 50.2237 22.402 50.142 22.345 50.075C22.2866 50.0078 22.211 49.9578 22.1262 49.9305C22.0642 49.9063 21.9978 49.8956 21.9313 49.8991C21.8649 49.9025 21.7999 49.9201 21.7408 49.9507Z" fill="#DBD5D5"/>
<path d="M23.1738 51.7165C23.1517 51.8113 23.0969 51.8952 23.0189 51.9535C22.9781 51.9797 22.9317 51.9962 22.8835 52.0016C22.8352 52.007 22.7864 52.0012 22.7407 51.9846L22.7772 51.8539C22.7959 51.8608 22.8158 51.8637 22.8357 51.8624C22.8556 51.8611 22.875 51.8556 22.8926 51.8463C22.9289 51.8175 22.9535 51.7764 22.9616 51.7308L22.9687 51.7052L22.8039 51.6593L22.8911 51.3467L23.1979 51.4322C23.2078 51.5277 23.1997 51.6241 23.1738 51.7165Z" fill="#DBD5D5"/>
<path d="M25.5773 51.9222C25.5085 52.0012 25.418 52.0583 25.317 52.0864C25.1938 52.1198 25.0642 52.1225 24.9398 52.0941C24.811 52.0713 24.6886 52.0214 24.5806 51.9476C24.4849 51.8825 24.4079 51.7934 24.3574 51.6893C24.3089 51.5869 24.2905 51.4728 24.3042 51.3604L24.6575 51.4291C24.6495 51.5185 24.6743 51.6077 24.7274 51.6801C24.7572 51.7199 24.7945 51.7535 24.8373 51.7788C24.88 51.8041 24.9274 51.8208 24.9766 51.8278C25.0184 51.8387 25.0619 51.8412 25.1047 51.8351C25.1474 51.829 25.1885 51.8144 25.2255 51.7922C25.2582 51.7704 25.286 51.742 25.3072 51.7089C25.3284 51.6757 25.3425 51.6386 25.3486 51.5998C25.364 51.5345 25.3549 51.4659 25.3231 51.4069C25.2911 51.351 25.247 51.3029 25.1942 51.2661C25.1396 51.2275 25.0636 51.1806 24.9661 51.1256C24.8656 51.0724 24.7695 51.0115 24.6785 50.9433C24.6053 50.886 24.547 50.8117 24.5087 50.727C24.4665 50.6256 24.4579 50.5133 24.484 50.4066C24.5017 50.3038 24.5495 50.2085 24.6214 50.1328C24.6949 50.0585 24.7884 50.0073 24.8905 49.9853C25.0094 49.9594 25.1324 49.9593 25.2513 49.985C25.4598 50.0255 25.6155 50.1079 25.7186 50.2322C25.769 50.2919 25.8068 50.3612 25.8297 50.4359C25.8526 50.5106 25.8601 50.5892 25.8518 50.6669L25.4956 50.5975C25.4974 50.5186 25.4728 50.4414 25.4257 50.378C25.3701 50.3072 25.2891 50.2607 25.1999 50.2485C25.1203 50.2288 25.0362 50.2385 24.9632 50.276C24.9297 50.2959 24.9011 50.3231 24.8797 50.3556C24.8582 50.3882 24.8445 50.4251 24.8395 50.4638C24.8249 50.5259 24.8336 50.5912 24.8638 50.6474C24.8948 50.7015 24.9376 50.7479 24.9892 50.783C25.043 50.8205 25.1177 50.8666 25.2132 50.9213C25.3157 50.9749 25.4137 51.0367 25.5063 51.106C25.5812 51.1647 25.6407 51.2407 25.6796 51.3276C25.7224 51.432 25.7309 51.5473 25.7041 51.6569C25.6857 51.7549 25.642 51.8464 25.5773 51.9222Z" fill="#DBD5D5"/>
<path d="M27.7032 50.8233L27.5193 52.4384L27.1822 52.3999L27.2223 52.0483C27.1721 52.1583 27.0853 52.2475 26.9768 52.3009C26.8631 52.3555 26.736 52.3756 26.611 52.3587C26.5267 52.3528 26.4447 52.3289 26.3704 52.2887C26.2961 52.2485 26.2313 52.1928 26.1803 52.1255C26.0808 51.9915 26.0438 51.8121 26.0694 51.5874L26.1762 50.6494L26.5103 50.6875L26.4075 51.5903C26.3908 51.7368 26.4151 51.8539 26.4804 51.9415C26.5153 51.9862 26.5593 52.0231 26.6095 52.0495C26.6597 52.0759 26.715 52.0914 26.7717 52.0948C26.8307 52.1042 26.8911 52.1008 26.9488 52.0848C27.0064 52.0689 27.06 52.0408 27.1059 52.0024C27.1957 51.9254 27.25 51.8049 27.2687 51.6408L27.3662 50.785L27.7032 50.8233Z" fill="#DBD5D5"/>
<path d="M29.3172 51.0343C29.4526 51.1522 29.539 51.3166 29.5594 51.495L29.2026 51.4837C29.1901 51.3879 29.1417 51.3004 29.0672 51.2389C28.9867 51.1762 28.8874 51.1424 28.7854 51.143C28.7248 51.1396 28.6641 51.1492 28.6074 51.171C28.5508 51.1929 28.4994 51.2266 28.4567 51.2698C28.3673 51.3585 28.3198 51.4912 28.3143 51.6681C28.3087 51.8451 28.3477 51.9811 28.4313 52.0763C28.4709 52.1225 28.5199 52.1597 28.5751 52.1853C28.6303 52.211 28.6903 52.2246 28.7512 52.2251C28.8532 52.232 28.9546 52.204 29.0385 52.1456C29.1166 52.0881 29.1704 52.0034 29.1892 51.9083L29.546 51.9196C29.5141 52.0967 29.4176 52.2557 29.2751 52.3656C29.1227 52.4767 28.936 52.5303 28.7479 52.5171C28.6024 52.5154 28.4598 52.4764 28.3338 52.4037C28.2151 52.3332 28.1194 52.2296 28.0584 52.1057C27.9949 51.9655 27.9644 51.8126 27.9693 51.6587C27.9741 51.5049 28.0142 51.3542 28.0865 51.2182C28.1552 51.0985 28.2572 51.0012 28.3801 50.9383C28.5105 50.8737 28.6552 50.8437 28.8005 50.8512C28.9888 50.8499 29.1717 50.9147 29.3172 51.0343Z" fill="#DBD5D5"/>
<path d="M31.1257 50.9757C31.2702 51.0823 31.3695 51.2392 31.4041 51.4154L31.0476 51.4329C31.0274 51.3384 30.9721 51.2551 30.893 51.1997C30.8077 51.1436 30.706 51.1179 30.6044 51.1267C30.5436 51.1282 30.4839 51.1426 30.4292 51.1689C30.3745 51.1953 30.326 51.233 30.287 51.2795C30.2049 51.375 30.1683 51.5112 30.177 51.688C30.1856 51.8648 30.2354 51.9972 30.3263 52.0853C30.3695 52.1282 30.4214 52.1614 30.4785 52.1825C30.5356 52.2037 30.5965 52.2124 30.6572 52.208C30.7595 52.2068 30.8583 52.1707 30.9372 52.1057C31.0105 52.0422 31.0572 51.9535 31.0683 51.8571L31.4248 51.8396C31.4074 52.0187 31.3239 52.185 31.1907 52.306C31.0477 52.4289 30.8659 52.4974 30.6774 52.4995C30.5322 52.5095 30.3869 52.4819 30.2555 52.4196C30.1315 52.3588 30.0278 52.2633 29.9571 52.1447C29.8825 52.0101 29.8398 51.8601 29.8323 51.7063C29.8247 51.5526 29.8526 51.3991 29.9137 51.2578C29.9726 51.133 30.0665 51.0278 30.1839 50.9552C30.3087 50.8804 30.4506 50.8389 30.596 50.8346C30.7836 50.8182 30.9711 50.8681 31.1257 50.9757Z" fill="#DBD5D5"/>
<path d="M33.269 51.4659L32.0287 51.6275C32.0562 51.7925 32.118 51.9094 32.2143 51.9782C32.3112 52.0472 32.4313 52.0753 32.5487 52.0566C32.65 52.0466 32.7452 52.0039 32.82 51.9349C32.8881 51.8717 32.9285 51.7841 32.9325 51.6912L33.2894 51.6447C33.284 51.7584 33.2506 51.8689 33.1923 51.9666C33.1339 52.0642 33.0523 52.1459 32.9547 52.2045C32.8463 52.2704 32.7249 52.3121 32.5988 52.3267C32.455 52.3484 32.308 52.3327 32.1719 52.2812C32.0434 52.2306 31.9324 52.1438 31.8523 52.0313C31.7671 51.9031 31.7124 51.7571 31.6925 51.6044C31.6726 51.4518 31.688 51.2966 31.7375 51.1509C31.7861 51.0216 31.8712 50.9092 31.9825 50.8274C32.1022 50.7455 32.2395 50.693 32.3832 50.674C32.527 50.655 32.6732 50.67 32.8101 50.718C32.9327 50.765 33.0392 50.8461 33.1172 50.9517C33.2228 51.1018 33.2761 51.2825 33.269 51.4659ZM32.8359 51.0984C32.79 51.0349 32.7256 50.9872 32.6515 50.9618C32.5764 50.9366 32.4965 50.9292 32.4181 50.9402C32.297 50.9522 32.1852 51.0104 32.1061 51.1029C32.0288 51.1942 31.9964 51.3184 32.0089 51.4754L32.9245 51.3561C32.9194 51.2636 32.8887 51.1744 32.8359 51.0984Z" fill="#DBD5D5"/>
<path d="M35.1073 51.0857L33.8841 51.3471C33.9248 51.5094 33.9959 51.6209 34.0974 51.6816C34.1996 51.7425 34.3215 51.7608 34.4371 51.7327C34.5372 51.7145 34.6286 51.6643 34.6976 51.5895C34.7604 51.521 34.7936 51.4304 34.79 51.3375L35.142 51.2623C35.1458 51.376 35.1215 51.4889 35.0712 51.5909C35.0209 51.693 34.9462 51.781 34.8537 51.8473C34.751 51.9218 34.6333 51.9731 34.5088 51.9979C34.3672 52.0311 34.2194 52.0274 34.0797 51.987C33.9475 51.947 33.8298 51.8694 33.7409 51.7638C33.6456 51.6429 33.5793 51.5017 33.5471 51.3512C33.5149 51.2006 33.5178 51.0447 33.5553 50.8954C33.5934 50.7627 33.6691 50.6438 33.7733 50.5532C33.886 50.462 34.0186 50.3985 34.1603 50.3679C34.3021 50.3374 34.4491 50.3406 34.5894 50.3773C34.7153 50.4143 34.8281 50.4865 34.9144 50.5854C35.0317 50.7266 35.0995 50.9023 35.1073 51.0857ZM34.6459 50.7544C34.595 50.6949 34.5269 50.6525 34.451 50.6332C34.3742 50.6141 34.2939 50.6131 34.2167 50.6304C34.0969 50.6522 33.9903 50.7193 33.9188 50.8178C33.8491 50.9152 33.8269 51.0416 33.8521 51.1971L34.755 51.0041C34.7424 50.9124 34.7046 50.826 34.6459 50.7544Z" fill="#DBD5D5"/>
<path d="M36.2325 49.9353C36.3507 49.9728 36.4534 50.0476 36.5253 50.1486L36.2538 49.2537L36.5785 49.1553L37.2123 51.2442L36.8877 51.3427L36.778 50.9813C36.7744 51.1052 36.7305 51.2246 36.6531 51.3214C36.5682 51.4254 36.453 51.5003 36.3234 51.5355C36.1966 51.5763 36.061 51.5812 35.9316 51.5495C35.8032 51.5163 35.6873 51.4465 35.5978 51.3487C35.4977 51.233 35.423 51.0976 35.3786 50.9512C35.3341 50.8049 35.321 50.6508 35.34 50.499C35.36 50.3679 35.4176 50.2455 35.5059 50.1466C35.5959 50.0484 35.7114 49.9771 35.8395 49.9405C35.9668 49.8979 36.1042 49.896 36.2325 49.9353ZM35.7225 50.4338C35.6646 50.5512 35.6598 50.6898 35.7084 50.8497C35.7569 51.0097 35.8379 51.1223 35.9512 51.1876C36.0093 51.2201 36.0736 51.2398 36.1399 51.2455C36.2062 51.2511 36.273 51.2426 36.3357 51.2204C36.4213 51.1959 36.4986 51.1485 36.5592 51.0833C36.6182 51.0185 36.658 50.9387 36.6742 50.8526C36.6895 50.756 36.6827 50.6571 36.6543 50.5635C36.6259 50.4698 36.5766 50.3838 36.5102 50.312C36.449 50.2487 36.3714 50.2039 36.286 50.1827C36.1994 50.1621 36.1087 50.1657 36.0239 50.1929C35.9595 50.2093 35.8992 50.2393 35.8472 50.2808C35.7953 50.3224 35.7527 50.3745 35.7225 50.4338Z" fill="#DBD5D5"/>
<path d="M37.9668 49.0138L38.2131 49.5951L38.9193 49.2959L39.0206 49.5349L38.3144 49.8341L38.5664 50.429L39.3541 50.0953L39.4611 50.3479L38.3637 50.8128L37.5513 48.8951L38.6487 48.4302L38.7545 48.6801L37.9668 49.0138Z" fill="#DBD5D5"/>
<path d="M40.2612 49.5679L40.093 48.2206L40.4139 48.0576L40.5977 49.7874L40.2347 49.9718L38.9463 48.8031L39.2672 48.6401L40.2612 49.5679Z" fill="#DBD5D5"/>
<path d="M42.3412 47.9171L41.2733 48.5683C41.3654 48.7079 41.4694 48.7896 41.5852 48.8135C41.7018 48.8371 41.823 48.8141 41.9227 48.7493C42.0112 48.6991 42.0809 48.6214 42.1212 48.528C42.1578 48.4426 42.1592 48.3461 42.1251 48.2596L42.4324 48.0723C42.4736 48.1783 42.488 48.2929 42.4743 48.4058C42.4606 48.5187 42.4192 48.6265 42.3538 48.7196C42.2815 48.8239 42.1875 48.9114 42.0781 48.9759C41.9555 49.0541 41.8148 49.0994 41.6696 49.1076C41.5316 49.1135 41.3949 49.0792 41.276 49.009C41.1461 48.9264 41.0368 48.8151 40.9567 48.6836C40.8765 48.5522 40.8276 48.4041 40.8137 48.2508C40.8057 48.113 40.8378 47.9757 40.9062 47.8558C40.9824 47.7324 41.0866 47.6287 41.2102 47.5529C41.3339 47.4772 41.4737 47.4316 41.6182 47.4199C41.7493 47.413 41.8797 47.4439 41.9938 47.5088C42.1512 47.6032 42.2732 47.7467 42.3413 47.9171L42.3412 47.9171ZM41.7962 47.7571C41.7285 47.7177 41.6502 47.7002 41.5722 47.7071C41.4933 47.7145 41.4173 47.7401 41.3501 47.782C41.2443 47.8421 41.1659 47.9407 41.131 48.0573C41.0974 48.1723 41.1182 48.2989 41.1934 48.4374L41.9818 47.9566C41.9396 47.8742 41.8753 47.8051 41.7962 47.7571Z" fill="#DBD5D5"/>
<path d="M42.6448 46.7081C42.6959 46.5947 42.7775 46.4978 42.8806 46.4282L43.0913 46.7273L43.0093 46.7851C42.9015 46.8533 42.8208 46.9568 42.7807 47.0779C42.7489 47.1881 42.7805 47.3107 42.8757 47.4457L43.3497 48.1186L43.0748 48.3122L42.1387 46.9834L42.4136 46.7897L42.5971 47.0502C42.5806 46.9339 42.5971 46.8154 42.6448 46.7081Z" fill="#DBD5D5"/>
<path d="M43.2297 46.1956L44.358 46.8212L43.9605 45.6074L44.2524 45.3726L44.9908 47.8569L44.6989 48.0918L44.4638 47.2397L42.9355 46.4324L43.2297 46.1956Z" fill="#DBD5D5"/>
<path d="M46.0339 43.667L46.843 45.1472L46.5765 45.4063L45.4129 44.7847L45.9968 45.9696L45.7324 46.2266L44.2759 45.3754L44.5192 45.139L45.6582 45.8667L45.0332 44.6394L45.2871 44.3928L46.5002 45.0484L45.8054 43.889L46.0339 43.667Z" fill="#DBD5D5"/>
<path d="M47.1508 42.5681C47.3176 42.5597 47.4873 42.6286 47.66 42.7746L48.383 43.3861L48.1658 43.6428L47.4698 43.0542C47.3811 42.9689 47.2627 42.9214 47.1395 42.9217C47.0829 42.9259 47.0279 42.9421 46.978 42.9691C46.9281 42.9962 46.8845 43.0336 46.8502 43.0788C46.8097 43.1226 46.779 43.1746 46.7601 43.2312C46.7412 43.2878 46.7345 43.3478 46.7406 43.4071C46.7538 43.524 46.8235 43.6358 46.9496 43.7424L47.6096 44.3006L47.3924 44.5574L45.7256 43.1477L45.9428 42.8909L46.641 43.4814C46.5774 43.3767 46.5508 43.2535 46.5658 43.1318C46.5821 43.0076 46.635 42.8909 46.7178 42.7968C46.7695 42.73 46.8349 42.6751 46.9095 42.6356C46.9842 42.5962 47.0665 42.5731 47.1508 42.5681Z" fill="#DBD5D5"/>
<path d="M48.948 41.339L48.2218 42.3574C48.3613 42.4497 48.489 42.484 48.6049 42.4604C48.7214 42.4364 48.8238 42.3676 48.8901 42.2688C48.9517 42.1879 48.9853 42.0891 48.9857 41.9874C48.9858 41.8944 48.9492 41.8051 48.8839 41.739L49.0928 41.446C49.1724 41.5273 49.2307 41.627 49.2624 41.7362C49.2942 41.8455 49.2984 41.9609 49.2749 42.0722C49.2493 42.1965 49.1972 42.3138 49.122 42.4161C49.0399 42.5362 48.9283 42.6332 48.798 42.6977C48.6734 42.7574 48.5342 42.7796 48.3973 42.7616C48.2454 42.7367 48.1012 42.6773 47.9759 42.5879C47.8506 42.4985 47.7474 42.3816 47.6744 42.2461C47.6128 42.1224 47.5885 41.9836 47.6043 41.8464C47.6259 41.703 47.6809 41.5667 47.7649 41.4485C47.8489 41.3302 47.9595 41.2334 48.0878 41.1659C48.2057 41.1081 48.3377 41.0853 48.4681 41.1001C48.6499 41.1251 48.8185 41.209 48.948 41.339ZM48.3839 41.406C48.3062 41.3964 48.2274 41.4111 48.1583 41.448C48.0888 41.4858 48.0289 41.5393 47.9835 41.6042C47.9099 41.701 47.8765 41.8225 47.8902 41.9434C47.9045 42.0623 47.9734 42.1706 48.0969 42.2684L48.633 41.5166C48.5618 41.4574 48.4756 41.4191 48.3839 41.406Z" fill="#DBD5D5"/>
<path d="M48.7519 40.1083C48.7544 39.9839 48.7915 39.8627 48.859 39.7583L49.1701 39.9506L49.1174 40.0359C49.0451 40.141 49.0114 40.2678 49.0221 40.3949C49.0361 40.5088 49.1134 40.6092 49.2539 40.696L49.954 41.1287L49.7772 41.4148L48.3945 40.5602L48.5713 40.2741L48.8423 40.4416C48.7816 40.3412 48.7502 40.2257 48.7519 40.1083Z" fill="#DBD5D5"/>
<path d="M50.4789 38.6662L49.8925 39.7711C50.043 39.8442 50.1741 39.8615 50.2859 39.8229C50.3982 39.7838 50.4907 39.7021 50.5435 39.5955C50.594 39.5072 50.6143 39.4048 50.6014 39.3039C50.5892 39.2117 50.5412 39.1281 50.4678 39.0711L50.6365 38.7532C50.7261 38.8234 50.7969 38.9146 50.8427 39.0187C50.8885 39.1228 50.9079 39.2367 50.8991 39.3501C50.8901 39.4767 50.8538 39.5998 50.7927 39.7111C50.7271 39.8409 50.6292 39.9517 50.5084 40.0328C50.3928 40.1083 50.2577 40.1485 50.1196 40.1487C49.9658 40.1439 49.8151 40.1039 49.6791 40.0318C49.5431 39.9596 49.4255 39.8572 49.3353 39.7325C49.2581 39.618 49.2157 39.4835 49.2134 39.3455C49.216 39.2005 49.2526 39.0581 49.3204 38.9299C49.3881 38.8017 49.4851 38.6912 49.6034 38.6073C49.7127 38.5346 49.8405 38.4947 49.9718 38.4922C50.1553 38.4931 50.3335 38.5543 50.4789 38.6662ZM49.9285 38.8066C49.8502 38.8073 49.774 38.8322 49.7103 38.8778C49.6463 38.9244 49.594 38.9853 49.5576 39.0556C49.4972 39.1613 49.48 39.2861 49.5095 39.4042C49.5393 39.5201 49.6218 39.6184 49.757 39.6991L50.1899 38.8836C50.1116 38.8342 50.0211 38.8076 49.9285 38.8066Z" fill="#DBD5D5"/>
<path d="M49.5476 37.3193L50.8905 37.9794L50.7731 38.2371L49.3936 37.6576L49.5476 37.3193ZM51.1675 38.0471L51.5058 38.2012L51.3469 38.5502L51.0085 38.3962L51.1675 38.0471Z" fill="#DBD5D5"/>
<path d="M29.3942 47.3983C39.3228 47.3983 47.3715 39.3496 47.3715 29.4211C47.3715 19.4925 39.3228 11.4438 29.3942 11.4438C19.4657 11.4438 11.417 19.4925 11.417 29.4211C11.417 39.3496 19.4657 47.3983 29.3942 47.3983Z" fill="white"/>
<path d="M29.3944 47.5463C24.9154 47.5405 20.5982 45.8713 17.2803 42.8626C13.9623 39.8539 11.8801 35.7201 11.4376 31.263C10.995 26.8059 12.2237 22.3434 14.8852 18.7409C17.5468 15.1385 21.4514 12.653 25.8418 11.7666C30.2322 10.8802 34.7954 11.656 38.6461 13.9437C42.4968 16.2313 45.3606 19.8676 46.682 24.1472C48.0034 28.4268 47.6881 33.0447 45.7974 37.1051C43.9067 41.1654 40.5753 44.3788 36.4494 46.1219C34.2175 47.0665 31.8179 47.5509 29.3944 47.5463ZM29.3944 11.5918C19.563 11.5918 11.5647 19.5902 11.5647 29.4215C11.5647 39.2529 19.563 47.2513 29.3944 47.2513C39.2257 47.2513 47.2241 39.2529 47.2241 29.4215C47.2241 19.5902 39.2257 11.5918 29.3944 11.5918Z" fill="white"/>
<mask id="mask0_3077_269" style="mask-type:luminance" maskUnits="userSpaceOnUse" x="17" y="15" width="25" height="26">
<path d="M41.9394 15.979H17.0801V40.8383H41.9394V15.979Z" fill="white"/>
</mask>
<g mask="url(#mask0_3077_269)">
<path d="M32.4538 36.212H26.5652C26.1846 36.212 25.901 35.9091 25.901 35.509V35.3381C25.901 33.8853 25.299 32.4676 24.2075 31.3412C23.5052 30.6213 22.9587 29.7646 22.6018 28.8244C22.245 27.8841 22.0855 26.8805 22.1333 25.876C22.2964 22.0966 25.3844 19.0008 29.1599 18.8299C30.6454 18.7601 32.1173 19.1405 33.3829 19.9213C34.6486 20.7021 35.6489 21.8469 36.253 23.2058C36.8571 24.5647 37.0368 26.0743 36.7685 27.537C36.5002 28.9997 35.7964 30.3473 34.7494 31.4033C33.6967 32.4637 33.1141 33.8154 33.1141 35.206V35.5517C33.1142 35.6384 33.0971 35.7243 33.064 35.8045C33.0308 35.8846 32.9822 35.9575 32.9209 36.0188C32.8595 36.0801 32.7867 36.1287 32.7066 36.1619C32.6264 36.1951 32.5405 36.2121 32.4538 36.212ZM29.5134 19.1989C29.4007 19.1989 29.292 19.2028 29.1793 19.2067C25.598 19.3699 22.6732 22.3064 22.5178 25.8876C22.472 26.8409 22.6232 27.7934 22.962 28.6856C23.3009 29.5779 23.8201 30.3906 24.4871 31.0731C25.6485 32.2695 26.2856 33.7844 26.2856 35.3342V35.5051C26.2856 35.6915 26.406 35.8275 26.5691 35.8275H32.4577C32.5327 35.8271 32.6046 35.797 32.6577 35.744C32.7108 35.6909 32.7408 35.619 32.7412 35.5439V35.1982C32.7412 33.7067 33.3627 32.2617 34.4852 31.1275C35.4592 30.1465 36.1208 28.8989 36.3866 27.5423C36.6523 26.1857 36.5103 24.7807 35.9785 23.5047C35.4466 22.2287 34.5488 21.1388 33.3982 20.3725C32.2476 19.6062 30.8958 19.1978 29.5134 19.1989Z" fill="black"/>
<path d="M31.8906 37.4435H27.1284C26.6546 37.4435 26.27 37.0823 26.27 36.6356C26.27 36.1928 26.6546 35.8276 27.1284 35.8276C27.1789 35.8276 27.2273 35.8477 27.263 35.8834C27.2987 35.9191 27.3188 35.9675 27.3188 36.018C27.3188 36.0684 27.2987 36.1169 27.263 36.1525C27.2273 36.1882 27.1789 36.2083 27.1284 36.2083C26.8682 36.2083 26.6507 36.3986 26.6507 36.6317C26.6507 36.8647 26.8643 37.0551 27.1284 37.0551H31.8906C32.1547 37.0551 32.3683 36.8647 32.3683 36.6317C32.3683 36.3986 32.1547 36.2083 31.8906 36.2083C31.8401 36.2083 31.7917 36.1882 31.756 36.1525C31.7203 36.1169 31.7002 36.0684 31.7002 36.018C31.7002 35.9675 31.7203 35.9191 31.756 35.8834C31.7917 35.8477 31.8401 35.8276 31.8906 35.8276C32.3644 35.8276 32.749 36.1889 32.749 36.6356C32.749 37.0823 32.3644 37.4435 31.8906 37.4435Z" fill="black"/>
<path d="M31.8906 38.6705H27.1284C26.6546 38.6705 26.27 38.3093 26.27 37.8626C26.27 37.4198 26.6546 37.0547 27.1284 37.0547C27.1535 37.0546 27.1784 37.0594 27.2016 37.0689C27.2248 37.0784 27.2459 37.0924 27.2637 37.1101C27.2814 37.1278 27.2955 37.1488 27.3052 37.172C27.3148 37.1951 27.3197 37.2199 27.3197 37.245C27.3197 37.2701 27.3148 37.2949 27.3052 37.3181C27.2955 37.3412 27.2814 37.3623 27.2637 37.38C27.2459 37.3976 27.2248 37.4116 27.2016 37.4211C27.1784 37.4307 27.1535 37.4355 27.1284 37.4354C26.8682 37.4354 26.6507 37.6257 26.6507 37.8587C26.6507 38.0918 26.8643 38.2821 27.1284 38.2821H31.8906C32.1547 38.2821 32.3683 38.0918 32.3683 37.8587C32.3683 37.6257 32.1547 37.4354 31.8906 37.4354C31.8655 37.4355 31.8406 37.4307 31.8174 37.4211C31.7942 37.4116 31.7731 37.3976 31.7553 37.38C31.7376 37.3623 31.7235 37.3412 31.7138 37.3181C31.7042 37.2949 31.6992 37.2701 31.6992 37.245C31.6992 37.2199 31.7042 37.1951 31.7138 37.172C31.7235 37.1488 31.7376 37.1278 31.7553 37.1101C31.7731 37.0924 31.7942 37.0784 31.8174 37.0689C31.8406 37.0594 31.8655 37.0546 31.8906 37.0547C32.3644 37.0547 32.749 37.4159 32.749 37.8626C32.749 38.3093 32.3644 38.6705 31.8906 38.6705Z" fill="black"/>
<path d="M31.7742 39.8165H27.2452C27.0422 39.8165 26.8476 39.7359 26.7041 39.5924C26.5606 39.4489 26.48 39.2543 26.48 39.0513C26.48 38.8484 26.5606 38.6538 26.7041 38.5103C26.8476 38.3668 27.0422 38.2861 27.2452 38.2861H31.7742C31.9772 38.2861 32.1718 38.3668 32.3153 38.5103C32.4588 38.6538 32.5394 38.8484 32.5394 39.0513C32.5394 39.2543 32.4588 39.4489 32.3153 39.5924C32.1718 39.7359 31.9772 39.8165 31.7742 39.8165ZM27.2452 38.6707C27.1442 38.6707 27.0474 38.7108 26.976 38.7822C26.9046 38.8536 26.8645 38.9504 26.8645 39.0513C26.8645 39.1523 26.9046 39.2491 26.976 39.3205C27.0474 39.3919 27.1442 39.432 27.2452 39.432H31.7742C31.8752 39.432 31.972 39.3919 32.0434 39.3205C32.1148 39.2491 32.1549 39.1523 32.1549 39.0513C32.1549 38.9504 32.1148 38.8536 32.0434 38.7822C31.972 38.7108 31.8752 38.6707 31.7742 38.6707H27.2452Z" fill="black"/>
<path d="M29.8864 40.8381H29.1367C28.422 40.8381 27.8394 40.2944 27.8394 39.6262C27.8394 39.5758 27.8594 39.5274 27.8951 39.4917C27.9308 39.456 27.9792 39.4359 28.0297 39.4359C28.0802 39.4359 28.1286 39.456 28.1643 39.4917C28.2 39.5274 28.2201 39.5758 28.2201 39.6262C28.2201 40.0846 28.6318 40.4536 29.1367 40.4536H29.8864C30.3913 40.4536 30.8031 40.0807 30.8031 39.6262C30.8031 39.5758 30.8231 39.5274 30.8588 39.4917C30.8945 39.456 30.9429 39.4359 30.9934 39.4359C31.0439 39.4359 31.0923 39.456 31.128 39.4917C31.1637 39.5274 31.1837 39.5758 31.1837 39.6262C31.1837 40.2943 30.6011 40.8381 29.8864 40.8381ZM31.3275 36.212C31.3025 36.212 31.2777 36.2071 31.2546 36.1975C31.2315 36.1879 31.2106 36.1739 31.1929 36.1562C31.1752 36.1386 31.1612 36.1176 31.1516 36.0945C31.1421 36.0714 31.1371 36.0466 31.1372 36.0216V34.3786C31.1372 34.0834 30.9468 33.8465 30.7138 33.8465H28.3055C28.0725 33.8465 27.8821 34.0873 27.8821 34.3786V36.0216C27.8821 36.0721 27.8621 36.1205 27.8264 36.1562C27.7907 36.1919 27.7423 36.212 27.6918 36.212C27.6413 36.212 27.5929 36.1919 27.5572 36.1562C27.5215 36.1205 27.5015 36.0721 27.5015 36.0216V34.3786C27.5015 33.8737 27.8627 33.4619 28.3094 33.4619H30.7176C31.1604 33.4619 31.5256 33.8736 31.5256 34.3786V36.0216C31.5237 36.0729 31.502 36.1214 31.465 36.1569C31.4281 36.1924 31.3788 36.2122 31.3275 36.212Z" fill="black"/>
<path d="M28.4414 33.8464C28.3982 33.8466 28.3561 33.8321 28.3223 33.8053C28.2884 33.7785 28.2646 33.7409 28.2549 33.6988L27.9287 32.3082C27.9173 32.2588 27.9261 32.2069 27.9531 32.1639C27.98 32.1209 28.0229 32.0904 28.0724 32.0791C28.1218 32.0677 28.1738 32.0765 28.2167 32.1034C28.2597 32.1304 28.2902 32.1733 28.3016 32.2228L28.6278 33.6133C28.6335 33.6378 28.6343 33.6632 28.6301 33.688C28.626 33.7128 28.6169 33.7365 28.6036 33.7578C28.5902 33.7791 28.5728 33.7975 28.5523 33.8121C28.5318 33.8266 28.5086 33.837 28.4841 33.8425C28.4701 33.8456 28.4557 33.8469 28.4414 33.8464ZM30.5777 33.8464C30.5634 33.8472 30.549 33.8459 30.535 33.8425C30.4859 33.8305 30.4435 33.7998 30.4167 33.7571C30.3898 33.7143 30.3807 33.6627 30.3913 33.6133L30.7176 32.2228C30.729 32.1734 30.7596 32.1306 30.8025 32.1037C30.8455 32.0768 30.8973 32.0679 30.9467 32.0791C30.9958 32.0911 31.0382 32.1217 31.065 32.1645C31.0919 32.2073 31.101 32.2588 31.0904 32.3082L30.7642 33.6988C30.755 33.7412 30.7313 33.779 30.6973 33.8059C30.6633 33.8329 30.6211 33.8472 30.5777 33.8464Z" fill="black"/>
</g>
<path d="M21.8147 21.9647C21.7805 21.9648 21.7468 21.9554 21.7176 21.9375L20.7155 21.3587C20.6935 21.3465 20.6743 21.33 20.6589 21.3102C20.6434 21.2903 20.6321 21.2676 20.6256 21.2434C20.6191 21.2191 20.6175 21.1938 20.6209 21.1689C20.6243 21.144 20.6327 21.1201 20.6456 21.0985C20.671 21.0549 20.7126 21.0231 20.7613 21.01C20.81 20.9969 20.862 21.0036 20.9058 21.0286L21.908 21.6073C21.9299 21.6196 21.9491 21.6361 21.9646 21.6559C21.98 21.6757 21.9913 21.6984 21.9978 21.7227C22.0043 21.747 22.0059 21.7723 22.0025 21.7972C21.9991 21.822 21.9907 21.846 21.9779 21.8676C21.9623 21.8972 21.9388 21.922 21.91 21.9391C21.8812 21.9562 21.8482 21.9651 21.8147 21.9647Z" fill="#FFD700"/>
<path d="M20.6261 26.4046H19.4647C19.4143 26.4046 19.3659 26.3845 19.3302 26.3488C19.2945 26.3131 19.2744 26.2647 19.2744 26.2143C19.2744 26.1638 19.2945 26.1154 19.3302 26.0797C19.3659 26.044 19.4143 26.0239 19.4647 26.0239H20.6223C20.6727 26.024 20.7211 26.0441 20.7567 26.0798C20.7924 26.1154 20.8125 26.1638 20.8126 26.2143C20.8133 26.2391 20.809 26.2639 20.7999 26.287C20.7909 26.3102 20.7772 26.3313 20.7598 26.3491C20.7424 26.3668 20.7216 26.3809 20.6986 26.3904C20.6757 26.4 20.651 26.4048 20.6261 26.4046Z" fill="#FFD700"/>
<path d="M25.0657 18.7098C25.0318 18.7097 24.9985 18.7007 24.9692 18.6837C24.9398 18.6666 24.9155 18.6421 24.8987 18.6127L24.3239 17.6105C24.3113 17.5888 24.3032 17.5649 24.3 17.5401C24.2967 17.5153 24.2984 17.49 24.3049 17.4659C24.3113 17.4417 24.3225 17.419 24.3378 17.3992C24.353 17.3793 24.372 17.3627 24.3937 17.3502C24.4154 17.3377 24.4393 17.3296 24.4642 17.3263C24.489 17.3231 24.5142 17.3247 24.5384 17.3312C24.5625 17.3377 24.5852 17.3489 24.605 17.3642C24.6249 17.3795 24.6415 17.3985 24.654 17.4202L25.2328 18.4223C25.2458 18.4439 25.2544 18.4678 25.258 18.4927C25.2615 18.5177 25.26 18.5431 25.2535 18.5674C25.2469 18.5917 25.2355 18.6145 25.22 18.6343C25.2044 18.6541 25.185 18.6705 25.1629 18.6826C25.1338 18.7009 25.1001 18.7104 25.0657 18.7098Z" fill="#FFD700"/>
<path d="M29.5097 17.5211C29.4847 17.5211 29.4599 17.5161 29.4368 17.5066C29.4137 17.497 29.3927 17.483 29.3751 17.4653C29.3574 17.4476 29.3434 17.4267 29.3338 17.4036C29.3243 17.3805 29.3193 17.3557 29.3193 17.3307V16.1693C29.3193 16.1189 29.3394 16.0704 29.3751 16.0348C29.4108 15.9991 29.4592 15.979 29.5097 15.979C29.5601 15.979 29.6086 15.9991 29.6442 16.0348C29.6799 16.0704 29.7 16.1189 29.7 16.1693V17.3268C29.7004 17.3521 29.6957 17.3772 29.6863 17.4007C29.6769 17.4242 29.663 17.4455 29.6453 17.4636C29.6276 17.4817 29.6065 17.496 29.5832 17.5059C29.5599 17.5157 29.5349 17.5209 29.5097 17.5211Z" fill="#FFD700"/>
<path d="M37.2043 21.965C37.1704 21.965 37.137 21.956 37.1077 21.9389C37.0784 21.9219 37.0541 21.8974 37.0373 21.8679C37.0242 21.8464 37.0157 21.8224 37.0121 21.7975C37.0086 21.7725 37.0101 21.7471 37.0166 21.7228C37.0232 21.6985 37.0346 21.6758 37.0501 21.656C37.0657 21.6362 37.0851 21.6197 37.1072 21.6076L38.1093 21.0289C38.131 21.0164 38.1549 21.0083 38.1798 21.005C38.2046 21.0018 38.2298 21.0035 38.2539 21.0099C38.2781 21.0164 38.3008 21.0276 38.3206 21.0429C38.3404 21.0581 38.3571 21.0771 38.3696 21.0988C38.3821 21.1205 38.3902 21.1444 38.3934 21.1692C38.3967 21.194 38.395 21.2192 38.3885 21.2434C38.382 21.2676 38.3708 21.2902 38.3556 21.3101C38.3403 21.3299 38.3213 21.3465 38.2997 21.359L37.2975 21.9378C37.2692 21.9544 37.2371 21.9637 37.2043 21.965Z" fill="#FFD700"/>
<path d="M39.5544 26.4046H38.3969C38.3464 26.4046 38.298 26.3845 38.2623 26.3488C38.2266 26.3131 38.2065 26.2647 38.2065 26.2143C38.2065 26.1638 38.2266 26.1154 38.2623 26.0797C38.298 26.044 38.3464 26.0239 38.3969 26.0239H39.5544C39.6049 26.0239 39.6533 26.044 39.689 26.0797C39.7247 26.1154 39.7447 26.1638 39.7447 26.2143C39.7447 26.2647 39.7247 26.3131 39.689 26.3488C39.6533 26.3845 39.6049 26.4046 39.5544 26.4046Z" fill="#FFD700"/>
<path d="M33.9532 18.7098C33.919 18.71 33.8853 18.7005 33.8561 18.6826C33.8342 18.6704 33.8149 18.6539 33.7995 18.6341C33.784 18.6142 33.7727 18.5915 33.7662 18.5673C33.7597 18.543 33.7581 18.5177 33.7615 18.4928C33.765 18.4679 33.7734 18.444 33.7862 18.4224L34.365 17.4203C34.3904 17.3767 34.432 17.3448 34.4807 17.3318C34.5294 17.3187 34.5814 17.3253 34.6252 17.3503C34.6471 17.3626 34.6664 17.3791 34.6818 17.3989C34.6972 17.4188 34.7086 17.4415 34.7151 17.4657C34.7216 17.49 34.7232 17.5153 34.7198 17.5402C34.7163 17.5651 34.7079 17.589 34.6951 17.6106L34.1164 18.6127C34.101 18.6426 34.0776 18.6676 34.0488 18.6847C34.0199 18.7019 33.9868 18.7106 33.9532 18.7098Z" fill="#FFD700"/>
<path d="M27.979 32.4599C27.754 32.4596 27.5333 32.3981 27.3406 32.282C27.148 32.1659 26.9905 31.9995 26.8851 31.8008C26.7798 31.602 26.7305 31.3783 26.7425 31.1537C26.7545 30.929 26.8275 30.7119 26.9535 30.5255C26.9822 30.4843 27.0259 30.4559 27.0753 30.4464C27.1247 30.437 27.1758 30.4472 27.2176 30.475C27.2385 30.4889 27.2563 30.5068 27.2701 30.5277C27.2839 30.5486 27.2935 30.572 27.2982 30.5965C27.3029 30.6211 27.3026 30.6464 27.2975 30.6709C27.2923 30.6954 27.2823 30.7186 27.2681 30.7392C27.1714 30.8797 27.1199 31.0464 27.1205 31.2169C27.1203 31.3298 27.1423 31.4417 27.1853 31.5461C27.2283 31.6505 27.2915 31.7453 27.3712 31.8253C27.451 31.9052 27.5457 31.9686 27.65 32.0119C27.7543 32.0551 27.8661 32.0774 27.979 32.0774C28.0919 32.0774 28.2037 32.0551 28.3079 32.0119C28.4122 31.9686 28.5069 31.9052 28.5867 31.8253C28.6664 31.7453 28.7296 31.6505 28.7726 31.5461C28.8156 31.4417 28.8377 31.3298 28.8374 31.2169V21.3276C28.837 21.2419 28.8164 21.1574 28.7772 21.0812C28.738 21.005 28.6814 20.9391 28.6118 20.8889C28.5423 20.8388 28.4619 20.8058 28.3772 20.7927C28.2925 20.7795 28.2059 20.7866 28.1244 20.8133C28.043 20.84 27.969 20.8856 27.9085 20.9464C27.8481 21.0072 27.8029 21.0814 27.7765 21.163C27.7502 21.2446 27.7436 21.3312 27.7572 21.4158C27.7708 21.5005 27.8042 21.5807 27.8547 21.65C27.8809 21.6913 27.8904 21.7411 27.8812 21.7891C27.872 21.8372 27.8448 21.88 27.8052 21.9087C27.7656 21.9374 27.7165 21.95 27.6679 21.9438C27.6194 21.9375 27.575 21.9131 27.5439 21.8753C27.4575 21.7569 27.4003 21.6197 27.377 21.475C27.3538 21.3302 27.3651 21.1821 27.4102 21.0426C27.4552 20.9031 27.5326 20.7762 27.6361 20.6724C27.7396 20.5686 27.8662 20.4907 28.0056 20.4452C28.1449 20.3997 28.2931 20.3879 28.4379 20.4107C28.5827 20.4335 28.72 20.4902 28.8387 20.5763C28.9574 20.6624 29.054 20.7753 29.1206 20.9059C29.1872 21.0365 29.2219 21.181 29.2219 21.3276V31.2208C29.2202 31.5496 29.0885 31.8643 28.8557 32.0964C28.6229 32.3285 28.3077 32.4592 27.979 32.4599Z" fill="#989898"/>
<path d="M31.0399 32.46C30.7113 32.4597 30.3963 32.3291 30.164 32.0968C29.9316 31.8645 29.801 31.5494 29.8008 31.2209V21.3277C29.8008 21.1811 29.8355 21.0365 29.9021 20.906C29.9688 20.7754 30.0653 20.6624 30.184 20.5763C30.3027 20.4902 30.44 20.4335 30.5848 20.4107C30.7297 20.3879 30.8778 20.3997 31.0172 20.4452C31.1565 20.4907 31.2831 20.5686 31.3866 20.6724C31.4901 20.7762 31.5676 20.9031 31.6126 21.0426C31.6576 21.1821 31.669 21.3303 31.6457 21.475C31.6225 21.6198 31.5653 21.757 31.4788 21.8753C31.4477 21.9131 31.4033 21.9376 31.3548 21.9438C31.3062 21.95 31.2571 21.9375 31.2175 21.9088C31.1779 21.88 31.1507 21.8373 31.1415 21.7892C31.1323 21.7411 31.1418 21.6914 31.1681 21.65C31.2189 21.5807 31.2527 21.5004 31.2665 21.4155C31.2803 21.3307 31.2739 21.2438 31.2476 21.1619C31.2214 21.08 31.1761 21.0055 31.1155 20.9445C31.0549 20.8835 30.9808 20.8378 30.8991 20.811C30.8174 20.7842 30.7305 20.7771 30.6456 20.7904C30.5606 20.8036 30.48 20.8368 30.4104 20.8872C30.3408 20.9376 30.284 21.0038 30.2449 21.0804C30.2058 21.1569 30.1854 21.2417 30.1853 21.3277V31.2209C30.1851 31.3338 30.2071 31.4456 30.2501 31.55C30.2931 31.6544 30.3563 31.7493 30.436 31.8292C30.5158 31.9091 30.6105 31.9725 30.7148 32.0158C30.8191 32.0591 30.9309 32.0814 31.0438 32.0814C31.1567 32.0814 31.2685 32.0591 31.3727 32.0158C31.477 31.9725 31.5717 31.9091 31.6515 31.8292C31.7312 31.7493 31.7944 31.6544 31.8374 31.55C31.8804 31.4456 31.9024 31.3338 31.9022 31.2209C31.9028 31.0503 31.8513 30.8836 31.7546 30.7431C31.7262 30.7014 31.7157 30.6501 31.7251 30.6006C31.7346 30.5511 31.7633 30.5073 31.8051 30.479C31.8468 30.4506 31.8981 30.4401 31.9476 30.4495C31.9971 30.459 32.0409 30.4878 32.0692 30.5295C32.1958 30.7158 32.269 30.9331 32.2811 31.158C32.2931 31.3829 32.2435 31.6068 32.1375 31.8056C32.0315 32.0043 31.8733 32.1703 31.6798 32.2856C31.4864 32.401 31.2651 32.4612 31.0399 32.46Z" fill="#989898"/>
<path d="M32.6248 31.5354C32.4128 31.5353 32.2034 31.4889 32.0111 31.3995C31.9881 31.3892 31.9673 31.3745 31.9499 31.3562C31.9326 31.3379 31.9191 31.3163 31.9102 31.2927C31.9013 31.2691 31.8972 31.2439 31.8981 31.2187C31.899 31.1935 31.9049 31.1688 31.9154 31.1458C31.926 31.1229 31.941 31.1023 31.9595 31.0853C31.9781 31.0682 31.9999 31.055 32.0236 31.0465C32.0473 31.0379 32.0725 31.0341 32.0977 31.0354C32.1229 31.0366 32.1476 31.0429 32.1704 31.0538C32.3028 31.1148 32.4463 31.1484 32.5921 31.1527C32.7379 31.1569 32.883 31.1317 33.0188 31.0785C33.1546 31.0253 33.2783 30.9452 33.3824 30.843C33.4864 30.7408 33.5688 30.6187 33.6246 30.4839C33.6803 30.3491 33.7083 30.2045 33.7068 30.0586C33.7052 29.9128 33.6743 29.7688 33.6157 29.6352C33.5572 29.5016 33.4723 29.3812 33.3661 29.2812C33.2599 29.1812 33.1346 29.1037 32.9977 29.0534C32.9739 29.0452 32.952 29.0322 32.9334 29.0153C32.9147 28.9984 32.8996 28.9779 32.8891 28.9551C32.8786 28.9322 32.8728 28.9074 32.8721 28.8823C32.8714 28.8571 32.8758 28.8321 32.8851 28.8087C32.8935 28.785 32.9066 28.7633 32.9235 28.7448C32.9405 28.7263 32.9609 28.7113 32.9837 28.7009C33.0065 28.6904 33.0312 28.6845 33.0563 28.6837C33.0813 28.6829 33.1063 28.6871 33.1298 28.696C33.4527 28.8146 33.7235 29.043 33.8949 29.3413C34.0662 29.6395 34.1271 29.9886 34.0669 30.3273C34.0067 30.6659 33.8292 30.9726 33.5655 31.1935C33.3018 31.4144 32.9688 31.5354 32.6248 31.5354Z" fill="#989898"/>
<path d="M33.254 28.3543C32.9006 28.3537 32.5523 28.2693 32.2378 28.1082C31.9233 27.947 31.6514 27.7136 31.4445 27.4271C31.2375 27.1406 31.1014 26.8091 31.0473 26.4598C30.9932 26.1106 31.0226 25.7535 31.1332 25.4178C31.1491 25.3699 31.1835 25.3303 31.2287 25.3077C31.2738 25.2851 31.3261 25.2814 31.374 25.2974C31.4219 25.3133 31.4615 25.3477 31.4841 25.3928C31.5067 25.438 31.5104 25.4903 31.4944 25.5382C31.4001 25.8243 31.3767 26.129 31.4265 26.4261C31.4762 26.7232 31.5975 27.0038 31.7799 27.2435C31.9623 27.4832 32.2003 27.675 32.4733 27.8022C32.7464 27.9294 33.0463 27.9882 33.3472 27.9736C33.3725 27.972 33.398 27.9754 33.4219 27.9837C33.4459 27.9921 33.468 28.0051 33.4868 28.0222C33.5057 28.0392 33.5209 28.0598 33.5316 28.0828C33.5423 28.1059 33.5483 28.1308 33.5492 28.1562C33.5513 28.2071 33.5334 28.2567 33.4992 28.2945C33.4651 28.3323 33.4175 28.3552 33.3666 28.3582C33.3292 28.3549 33.2916 28.3536 33.254 28.3543ZM33.7084 29.5934C33.6668 29.5938 33.6261 29.5803 33.593 29.555C33.5599 29.5296 33.5363 29.4939 33.5259 29.4535C33.5129 29.4046 33.5195 29.3526 33.5441 29.3084C33.5687 29.2642 33.6095 29.2313 33.6579 29.2166C33.9016 29.1479 34.1225 29.0155 34.2979 28.833C34.4733 28.6505 34.5969 28.4245 34.6559 28.1783C34.7148 27.9322 34.7071 27.6747 34.6334 27.4326C34.5597 27.1904 34.4228 26.9722 34.2367 26.8006C34.218 26.7836 34.2028 26.763 34.192 26.74C34.1812 26.7171 34.1751 26.6922 34.1739 26.6669C34.1728 26.6416 34.1767 26.6163 34.1853 26.5925C34.194 26.5687 34.2073 26.5468 34.2244 26.5281C34.2416 26.5095 34.2622 26.4944 34.2852 26.4837C34.3082 26.473 34.3331 26.467 34.3584 26.466C34.3837 26.465 34.409 26.4689 34.4328 26.4777C34.4565 26.4865 34.4784 26.4998 34.4969 26.5171C34.7334 26.7346 34.9074 27.0113 35.0011 27.3186C35.0949 27.6259 35.1048 27.9526 35.03 28.265C34.9551 28.5774 34.7982 28.8642 34.5754 29.0957C34.3527 29.3272 34.0721 29.495 33.7628 29.5818C33.7457 29.5893 33.7272 29.5932 33.7084 29.5934ZM32.2363 30.3625C31.9873 30.3572 31.7436 30.2886 31.5284 30.1632C31.3132 30.0377 31.1334 29.8596 31.0059 29.6456C30.8785 29.4315 30.8076 29.1886 30.8 28.9396C30.7924 28.6906 30.8482 28.4437 30.9623 28.2222C30.9856 28.1776 31.0256 28.1441 31.0736 28.1289C31.1216 28.1137 31.1736 28.1182 31.2183 28.1413C31.263 28.1644 31.2967 28.2043 31.3121 28.2523C31.3274 28.3002 31.3232 28.3522 31.3002 28.397C31.2195 28.5519 31.1775 28.724 31.1776 28.8987C31.1777 29.0734 31.2199 29.2454 31.3008 29.4002C31.3816 29.5551 31.4986 29.6881 31.6419 29.788C31.7852 29.8879 31.9504 29.9517 32.1237 29.9741C32.1703 29.9779 32.2169 29.9818 32.2596 29.9818C32.2849 29.9795 32.3104 29.9826 32.3344 29.9907C32.3584 29.9989 32.3805 30.012 32.3991 30.0292C32.4178 30.0464 32.4326 30.0673 32.4427 30.0906C32.4528 30.1139 32.4579 30.139 32.4577 30.1644C32.4597 30.2148 32.4416 30.264 32.4074 30.3011C32.3731 30.3383 32.3256 30.3603 32.2752 30.3625L32.2363 30.3625Z" fill="#989898"/>
<path d="M32.2167 26.851H32.2089C32.1585 26.8489 32.1109 26.8269 32.0767 26.7897C32.0425 26.7526 32.0244 26.7034 32.0264 26.6529C32.0284 26.5902 32.0362 26.5278 32.0497 26.4665C32.1507 25.9809 32.5702 25.6275 33.0984 25.5886C33.1488 25.5852 33.1984 25.6016 33.2369 25.6342C33.2753 25.6669 33.2995 25.7132 33.3043 25.7634C33.3083 25.8139 33.2922 25.8639 33.2594 25.9025C33.2267 25.941 33.18 25.9651 33.1295 25.9693C32.776 25.9965 32.4925 26.2295 32.4265 26.548C32.4187 26.5908 32.4148 26.6335 32.4109 26.6723C32.4082 26.7215 32.3863 26.7677 32.3501 26.8011C32.3138 26.8344 32.266 26.8523 32.2167 26.851ZM30.7252 28.0085H30.7174C30.6669 28.0064 30.6194 27.9844 30.5851 27.9472C30.5509 27.9101 30.5328 27.8609 30.5348 27.8104C30.5368 27.7477 30.5446 27.6853 30.5581 27.624C30.601 27.4266 30.6972 27.2448 30.8363 27.0982C30.9753 26.9517 31.1518 26.846 31.3466 26.7928C31.395 26.7783 31.4472 26.7837 31.4916 26.8078C31.5361 26.8318 31.5691 26.8725 31.5836 26.9209C31.598 26.9694 31.5926 27.0215 31.5685 27.066C31.5445 27.1104 31.5038 27.1435 31.4554 27.1579C31.3269 27.1916 31.2102 27.2602 31.1183 27.3562C31.0264 27.4522 30.9629 27.5718 30.9349 27.7017C30.9264 27.7426 30.9212 27.7842 30.9194 27.826C30.9162 27.8753 30.8943 27.9217 30.8583 27.9556C30.8222 27.9895 30.7746 28.0084 30.7252 28.0085ZM33.8947 27.0452C33.8497 27.0454 33.8062 27.0294 33.7719 27.0002C33.7377 26.971 33.7151 26.9305 33.7083 26.886C33.6999 26.8361 33.7116 26.7849 33.7406 26.7435C33.7697 26.7021 33.8139 26.6737 33.8636 26.6646C34.0695 26.629 34.2591 26.5299 34.4059 26.3812C34.5527 26.2325 34.6494 26.0417 34.6823 25.8354C34.7153 25.629 34.6829 25.4176 34.5897 25.2306C34.4966 25.0435 34.3473 24.8903 34.1627 24.7924C34.1205 24.7668 34.0896 24.726 34.0767 24.6783C34.0637 24.6307 34.0696 24.5799 34.093 24.5364C34.1165 24.493 34.1558 24.4602 34.2027 24.445C34.2497 24.4297 34.3008 24.4331 34.3453 24.4544C34.6002 24.5901 34.8062 24.802 34.9347 25.0605C35.0632 25.3191 35.1077 25.6113 35.0619 25.8964C35.0161 26.1815 34.8823 26.4451 34.6793 26.6504C34.4763 26.8557 34.2142 26.9924 33.9297 27.0413C33.918 27.0413 33.9064 27.0452 33.8947 27.0452Z" fill="#989898"/>
<path d="M33.8522 25.3443C33.824 25.3442 33.7961 25.3379 33.7706 25.3258C33.7451 25.3138 33.7225 25.2962 33.7046 25.2743C33.6732 25.2353 33.658 25.1856 33.6623 25.1356C33.6667 25.0857 33.6902 25.0393 33.7279 25.0063C33.9333 24.8367 34.0813 24.6078 34.1518 24.351C34.2223 24.0941 34.2117 23.8217 34.1217 23.5711C34.0316 23.3204 33.8664 23.1036 33.6485 22.9503C33.4307 22.7971 33.1708 22.7148 32.9045 22.7146C32.6841 22.7134 32.4672 22.7696 32.2752 22.8778C32.2533 22.89 32.2292 22.8978 32.2042 22.9007C32.1793 22.9037 32.154 22.9016 32.1298 22.8948C32.1056 22.8879 32.0831 22.8764 32.0634 22.8608C32.0437 22.8452 32.0272 22.8259 32.015 22.804C32.0027 22.782 31.9949 22.7579 31.992 22.733C31.9891 22.708 31.9911 22.6827 31.998 22.6586C32.0048 22.6344 32.0164 22.6118 32.032 22.5921C32.0475 22.5724 32.0668 22.556 32.0888 22.5437C32.4547 22.3411 32.8831 22.2823 33.2901 22.3788C33.6971 22.4753 34.0535 22.7201 34.2895 23.0655C34.5255 23.4108 34.6243 23.8317 34.5664 24.246C34.5085 24.6603 34.2982 25.038 33.9765 25.3054C33.9393 25.3293 33.8964 25.3427 33.8522 25.3443Z" fill="#989898"/>
<path d="M32.7373 22.7222C32.6964 22.7224 32.6567 22.7087 32.6246 22.6834C32.5835 22.6534 32.5559 22.6084 32.5479 22.5582C32.5399 22.508 32.5521 22.4566 32.5819 22.4154C32.668 22.2968 32.7143 22.154 32.714 22.0075C32.7139 21.82 32.6394 21.6402 32.5069 21.5077C32.3743 21.3751 32.1945 21.3006 32.007 21.3006C31.8518 21.2989 31.7008 21.3511 31.5798 21.4482C31.5401 21.4796 31.4896 21.494 31.4393 21.4881C31.3891 21.4823 31.3432 21.4568 31.3117 21.4171C31.2803 21.3774 31.266 21.3269 31.2718 21.2767C31.2776 21.2264 31.3032 21.1805 31.3428 21.1491C31.5323 21.0005 31.7662 20.9198 32.007 20.9199C32.2075 20.9208 32.4038 20.9768 32.5745 21.0818C32.7452 21.1869 32.8837 21.3369 32.9747 21.5154C33.0658 21.694 33.106 21.8941 33.0908 22.094C33.0756 22.2938 33.0057 22.4857 32.8888 22.6484C32.8708 22.6715 32.8478 22.6901 32.8216 22.7029C32.7953 22.7157 32.7665 22.7223 32.7373 22.7222Z" fill="#989898"/>
<path d="M30.4107 23.5456C30.3781 23.5457 30.346 23.5375 30.3174 23.5218C30.2889 23.5061 30.2647 23.4834 30.2473 23.4559C30.2298 23.4284 30.2196 23.3969 30.2176 23.3643C30.2157 23.3318 30.2219 23.2993 30.2359 23.2698C30.3397 23.0559 30.5103 22.8815 30.7219 22.7729C30.9334 22.6643 31.1746 22.6274 31.4089 22.6678C31.4337 22.6719 31.4575 22.681 31.4788 22.6944C31.5001 22.7079 31.5185 22.7254 31.5329 22.746C31.5474 22.7666 31.5576 22.7898 31.563 22.8144C31.5684 22.839 31.5688 22.8644 31.5643 22.8892C31.5547 22.9387 31.5262 22.9825 31.4849 23.0115C31.4436 23.0405 31.3927 23.0523 31.3429 23.0445C31.1945 23.0182 31.0415 23.0402 30.9066 23.1073C30.7716 23.1745 30.6618 23.2832 30.5932 23.4174C30.5794 23.4548 30.5545 23.487 30.5219 23.5099C30.4893 23.5328 30.4505 23.5453 30.4107 23.5456Z" fill="#989898"/>
<path d="M26.3945 31.5358C26.0504 31.5351 25.7174 31.4136 25.4539 31.1923C25.1903 30.971 25.013 30.6641 24.9528 30.3253C24.8926 29.9865 24.9535 29.6373 25.1247 29.3388C25.296 29.0403 25.5667 28.8115 25.8896 28.6925C25.937 28.675 25.9894 28.677 26.0353 28.6981C26.0812 28.7192 26.1168 28.7577 26.1343 28.8051C26.1518 28.8525 26.1498 28.9049 26.1287 28.9508C26.1075 28.9967 26.069 29.0323 26.0216 29.0498C25.8843 29.0998 25.7584 29.1771 25.6517 29.2771C25.545 29.377 25.4596 29.4975 25.4007 29.6313C25.3418 29.7651 25.3106 29.9094 25.3089 30.0556C25.3073 30.2018 25.3352 30.3468 25.3911 30.4819C25.447 30.617 25.5296 30.7394 25.6341 30.8417C25.7385 30.944 25.8625 31.0241 25.9988 31.0772C26.135 31.1303 26.2805 31.1553 26.4266 31.1507C26.5728 31.146 26.7164 31.1119 26.849 31.0502C26.8717 31.0396 26.8962 31.0336 26.9212 31.0325C26.9463 31.0315 26.9712 31.0354 26.9947 31.0441C27.0182 31.0527 27.0397 31.066 27.0581 31.083C27.0764 31.1001 27.0911 31.1206 27.1015 31.1434C27.1125 31.166 27.1189 31.1907 27.1202 31.2158C27.1215 31.2409 27.1176 31.266 27.1089 31.2896C27.1002 31.3132 27.0868 31.3348 27.0695 31.3531C27.0522 31.3714 27.0313 31.3859 27.0082 31.3959C26.8169 31.4884 26.607 31.5362 26.3945 31.5358Z" fill="#989898"/>
<path d="M25.7651 28.3542C25.7275 28.3549 25.6899 28.3536 25.6524 28.3503C25.6016 28.3473 25.554 28.3244 25.5199 28.2867C25.4857 28.2489 25.4678 28.1992 25.4699 28.1484C25.4708 28.123 25.4767 28.098 25.4875 28.075C25.4982 28.052 25.5134 28.0314 25.5322 28.0143C25.5511 27.9973 25.5731 27.9842 25.5971 27.9759C25.6211 27.9676 25.6465 27.9641 25.6719 27.9658C26.1281 27.9904 26.5769 27.8435 26.9304 27.5541C27.2228 27.3167 27.4363 26.9961 27.5424 26.6347C27.6485 26.2733 27.6423 25.8882 27.5247 25.5304C27.5168 25.5067 27.5136 25.4816 27.5154 25.4567C27.5172 25.4317 27.5238 25.4074 27.535 25.385C27.5462 25.3627 27.5617 25.3427 27.5805 25.3263C27.5994 25.31 27.6214 25.2975 27.6451 25.2896C27.6688 25.2817 27.6938 25.2785 27.7188 25.2803C27.7437 25.282 27.7681 25.2887 27.7904 25.2999C27.8128 25.3111 27.8327 25.3265 27.8491 25.3454C27.8655 25.3643 27.878 25.3862 27.8859 25.41C28.027 25.8415 28.0338 26.3057 27.9055 26.7412C27.7772 27.1768 27.5198 27.5631 27.1673 27.8493C26.7734 28.1765 26.2772 28.3552 25.7651 28.3542ZM25.3106 29.5933C25.2936 29.5926 25.2766 29.59 25.2601 29.5855C24.9508 29.4988 24.6703 29.331 24.4475 29.0995C24.2247 28.868 24.0678 28.5812 23.993 28.2688C23.9182 27.9564 23.9281 27.6296 24.0218 27.3224C24.1155 27.0151 24.2896 26.7384 24.526 26.5209C24.5636 26.4866 24.6133 26.4687 24.6642 26.471C24.715 26.4733 24.7629 26.4956 24.7973 26.5331C24.8317 26.5706 24.8498 26.6202 24.8478 26.671C24.8457 26.7219 24.8236 26.7698 24.7862 26.8044C24.6002 26.976 24.4632 27.1942 24.3895 27.4363C24.3158 27.6785 24.3081 27.936 24.3671 28.1822C24.426 28.4283 24.5496 28.6543 24.725 28.8368C24.9004 29.0193 25.1214 29.1518 25.365 29.2204C25.3894 29.227 25.4123 29.2383 25.4323 29.2539C25.4523 29.2694 25.4689 29.2888 25.4812 29.3109C25.4935 29.333 25.5013 29.3574 25.504 29.3825C25.5067 29.4077 25.5044 29.4331 25.4971 29.4574C25.4839 29.4965 25.4589 29.5307 25.4255 29.555C25.3921 29.5794 25.352 29.5928 25.3106 29.5933ZM26.7828 30.3624H26.74C26.6916 30.3585 26.6465 30.3362 26.6139 30.3002C26.5814 30.2641 26.5638 30.217 26.5648 30.1684C26.5658 30.1198 26.5852 30.0735 26.6193 30.0388C26.6533 30.0041 26.6993 29.9837 26.7478 29.9817H26.7828C26.9659 29.9763 27.1447 29.9245 27.3025 29.8312C27.4602 29.738 27.5918 29.6063 27.6849 29.4484C27.778 29.2905 27.8295 29.1117 27.8348 28.9285C27.8401 28.7453 27.7988 28.5638 27.715 28.4008C27.692 28.3561 27.6878 28.304 27.7031 28.2561C27.7185 28.2081 27.7522 28.1682 27.7969 28.1451C27.8416 28.122 27.8936 28.1175 27.9416 28.1327C27.9896 28.1479 28.0296 28.1814 28.0529 28.2261C28.1323 28.3774 28.1836 28.5419 28.2044 28.7116C28.254 29.0973 28.1485 29.487 27.9111 29.795C27.6737 30.103 27.3238 30.3043 26.9381 30.3546C26.8876 30.3585 26.8371 30.3624 26.7828 30.3624Z" fill="#989898"/>
<path d="M28.6084 23.5457C28.5694 23.5459 28.5314 23.534 28.4994 23.5118C28.4675 23.4895 28.4431 23.458 28.4297 23.4214C28.3609 23.2874 28.251 23.179 28.1161 23.1119C27.9812 23.0448 27.8284 23.0226 27.68 23.0485C27.6301 23.0571 27.5788 23.0456 27.5373 23.0165C27.4959 22.9874 27.4676 22.943 27.4586 22.8932C27.4541 22.8684 27.4546 22.843 27.46 22.8184C27.4654 22.7938 27.4756 22.7706 27.49 22.75C27.5045 22.7294 27.5229 22.7118 27.5442 22.6984C27.5655 22.685 27.5892 22.6759 27.614 22.6718C27.8484 22.6306 28.0899 22.6671 28.3017 22.7758C28.5134 22.8844 28.6839 23.0593 28.7871 23.2738C28.8005 23.3035 28.8065 23.336 28.8045 23.3685C28.8024 23.401 28.7925 23.4325 28.7754 23.4603C28.7558 23.4862 28.7306 23.5073 28.7017 23.5221C28.6728 23.5369 28.6409 23.545 28.6084 23.5457Z" fill="#989898"/>
<path d="M26.2818 22.7222C26.2517 22.722 26.222 22.7149 26.1951 22.7014C26.1681 22.6879 26.1447 22.6684 26.1264 22.6445C25.9724 22.4322 25.9002 22.1715 25.9231 21.9102C25.9459 21.6489 26.0623 21.4047 26.2508 21.2223C26.4393 21.04 26.6872 20.9318 26.9491 20.9176C27.211 20.9034 27.4692 20.9842 27.6762 21.1451C27.7159 21.1766 27.7415 21.2225 27.7473 21.2727C27.7531 21.323 27.7387 21.3735 27.7073 21.4132C27.6759 21.4528 27.63 21.4784 27.5797 21.4842C27.5295 21.49 27.479 21.4757 27.4393 21.4442C27.3348 21.3634 27.2098 21.3135 27.0783 21.3002C26.9469 21.2869 26.8144 21.3108 26.6959 21.369C26.5773 21.4273 26.4775 21.5176 26.4077 21.6298C26.338 21.742 26.3011 21.8715 26.3012 22.0036C26.3003 22.1502 26.3466 22.2932 26.4333 22.4114C26.463 22.4527 26.4753 22.504 26.4673 22.5542C26.4592 22.6045 26.4317 22.6495 26.3906 22.6794C26.3762 22.6935 26.3592 22.7046 26.3405 22.7119C26.3218 22.7192 26.3019 22.7227 26.2818 22.7222Z" fill="#989898"/>
<path d="M25.167 25.3439C25.1233 25.3433 25.0809 25.3283 25.0466 25.3012C24.7255 25.0336 24.5156 24.6559 24.4579 24.2419C24.4003 23.8279 24.4991 23.4072 24.735 23.0621C24.9709 22.717 25.3269 22.4722 25.7336 22.3756C26.1403 22.279 26.5685 22.3374 26.9344 22.5395C26.9787 22.5642 27.0113 22.6055 27.0252 22.6543C27.039 22.7031 27.0329 22.7554 27.0082 22.7997C26.9835 22.844 26.9421 22.8767 26.8933 22.8905C26.8445 22.9044 26.7922 22.8983 26.7479 22.8735C26.4659 22.7167 26.1354 22.6709 25.8214 22.7452C25.5073 22.8195 25.2323 23.0085 25.0504 23.275C24.8685 23.5416 24.7928 23.8665 24.838 24.186C24.8833 24.5055 25.0464 24.7966 25.2952 25.0021C25.3147 25.0179 25.3308 25.0375 25.3426 25.0597C25.3544 25.0818 25.3616 25.1062 25.3638 25.1312C25.3659 25.1562 25.363 25.1814 25.3553 25.2052C25.3475 25.2291 25.335 25.2512 25.3185 25.2701C25.2997 25.2922 25.2766 25.3102 25.2505 25.3229C25.2244 25.3356 25.196 25.3427 25.167 25.3439Z" fill="#989898"/>
<path d="M26.7983 26.851C26.7492 26.8507 26.7022 26.8316 26.6668 26.7977C26.6314 26.7637 26.6103 26.7175 26.608 26.6685C26.6088 26.6278 26.6036 26.5872 26.5924 26.548C26.5264 26.2257 26.2429 25.9926 25.8894 25.9654C25.839 25.9611 25.7924 25.9371 25.7598 25.8985C25.7272 25.8599 25.7111 25.81 25.7153 25.7596C25.7194 25.7093 25.7433 25.6626 25.7817 25.6298C25.8202 25.597 25.8701 25.5808 25.9205 25.5848C26.4487 25.6236 26.8682 25.9771 26.9692 26.4665C26.981 26.5281 26.9888 26.5903 26.9925 26.6529C26.9945 26.7034 26.9764 26.7526 26.9422 26.7897C26.9079 26.8268 26.8604 26.8489 26.8099 26.851L26.7983 26.851ZM28.2937 28.0085C28.2447 28.0082 28.1976 27.9891 28.1622 27.9552C28.1268 27.9212 28.1058 27.875 28.1034 27.826C28.1042 27.7853 28.099 27.7447 28.0879 27.7056C28.0593 27.5755 27.9957 27.4557 27.904 27.3592C27.8122 27.2626 27.6958 27.193 27.5674 27.1579C27.5434 27.1507 27.5211 27.1389 27.5017 27.1232C27.4822 27.1074 27.4661 27.088 27.4542 27.066C27.4302 27.0215 27.4248 26.9694 27.4392 26.9209C27.4536 26.8725 27.4867 26.8318 27.5311 26.8078C27.5756 26.7837 27.6277 26.7783 27.6761 26.7928C27.8715 26.8462 28.0484 26.9524 28.1875 27.0997C28.3266 27.247 28.4225 27.4297 28.4647 27.6279C28.4767 27.6894 28.4845 27.7517 28.488 27.8143C28.4899 27.8648 28.4718 27.914 28.4376 27.9511C28.4034 27.9882 28.3558 28.0103 28.3054 28.0124C28.3039 28.0109 28.302 28.0098 28.3 28.0092C28.298 28.0085 28.2959 28.0083 28.2937 28.0085ZM25.1242 27.0452C25.1137 27.0461 25.1031 27.0448 25.0931 27.0413C24.8086 26.9924 24.5465 26.8557 24.3435 26.6504C24.1404 26.4451 24.0067 26.1815 23.9609 25.8964C23.9151 25.6113 23.9595 25.3191 24.088 25.0605C24.2165 24.802 24.4226 24.5901 24.6775 24.4544C24.722 24.4331 24.773 24.4297 24.82 24.445C24.867 24.4602 24.9063 24.493 24.9297 24.5364C24.9532 24.5799 24.9591 24.6307 24.9461 24.6783C24.9331 24.726 24.9023 24.7668 24.86 24.7924C24.6755 24.8903 24.5262 25.0435 24.433 25.2306C24.3399 25.4176 24.3075 25.629 24.3404 25.8354C24.3734 26.0417 24.47 26.2325 24.6168 26.3812C24.7636 26.5299 24.9532 26.629 25.1591 26.6646C25.1839 26.6688 25.2077 26.6778 25.229 26.6912C25.2503 26.7047 25.2687 26.7222 25.2831 26.7428C25.2976 26.7634 25.3078 26.7867 25.3132 26.8112C25.3186 26.8358 25.319 26.8612 25.3145 26.886C25.3057 26.9302 25.282 26.9701 25.2474 26.9991C25.2127 27.0281 25.1693 27.0443 25.1242 27.0452Z" fill="#989898"/>
<path d="M26.6622 24.2759C26.4804 24.276 26.301 24.2348 26.1375 24.1554C25.9739 24.076 25.8306 23.9605 25.7183 23.8175C25.7027 23.7979 25.6912 23.7754 25.6844 23.7513C25.6775 23.7272 25.6754 23.702 25.6783 23.6771C25.6812 23.6522 25.689 23.6281 25.7012 23.6062C25.7134 23.5843 25.7297 23.5651 25.7494 23.5495C25.769 23.5339 25.7915 23.5224 25.8156 23.5156C25.8397 23.5087 25.8649 23.5066 25.8898 23.5095C25.9147 23.5124 25.9388 23.5202 25.9607 23.5324C25.9826 23.5446 26.0018 23.5609 26.0174 23.5806C26.1429 23.7392 26.3228 23.8457 26.5222 23.8794C26.7217 23.9131 26.9265 23.8717 27.0972 23.7631C27.1872 23.7054 27.2648 23.6304 27.3255 23.5423C27.3862 23.4543 27.4288 23.3551 27.4507 23.2504C27.4815 23.1087 27.474 22.9612 27.4289 22.8233C27.3838 22.6854 27.3029 22.562 27.1943 22.4658C27.1568 22.4323 27.1341 22.3852 27.1312 22.335C27.1283 22.2848 27.1454 22.2354 27.1788 22.1978C27.2131 22.1602 27.2608 22.1375 27.3116 22.1346C27.3624 22.1317 27.4123 22.1488 27.4507 22.1822C27.5891 22.3051 27.6973 22.4583 27.7668 22.6299C27.8364 22.8015 27.8653 22.9868 27.8514 23.1714C27.8375 23.356 27.7811 23.5349 27.6866 23.6942C27.5922 23.8534 27.4623 23.9887 27.307 24.0894C27.1137 24.2106 26.8903 24.2752 26.6622 24.2759ZM25.3338 26.2063C25.2025 26.2067 25.0727 26.1788 24.9531 26.1248C24.9019 26.1014 24.8525 26.0741 24.8055 26.0432C24.7638 26.0149 24.735 25.9711 24.7256 25.9216C24.7161 25.8721 24.7267 25.8208 24.755 25.7791C24.7833 25.7374 24.8271 25.7086 24.8766 25.6991C24.9261 25.6897 24.9774 25.7003 25.0191 25.7286C25.0454 25.7479 25.0742 25.7635 25.1046 25.7752C25.1775 25.8069 25.2562 25.8233 25.3357 25.8233C25.4152 25.8233 25.4939 25.8069 25.5668 25.7752C25.7272 25.7061 25.8551 25.5782 25.9242 25.4178C25.9419 25.3763 25.9562 25.3335 25.9669 25.2897C25.9784 25.2403 26.0089 25.1975 26.0519 25.1706C26.0948 25.1437 26.1466 25.1348 26.1961 25.1459C26.2451 25.158 26.2876 25.1886 26.3144 25.2314C26.3412 25.2742 26.3503 25.3257 26.3398 25.3751C26.3248 25.4433 26.3027 25.5097 26.2738 25.5732C26.1647 25.8228 25.9647 26.0214 25.7144 26.1287C25.5939 26.1793 25.4645 26.2057 25.3338 26.2063Z" fill="#989898"/>
</svg>
