<svg width="25" height="25" viewBox="0 0 25 25" fill="none" xmlns="http://www.w3.org/2000/svg">
<g clip-path="url(#clip0_3077_384)">
<path d="M18.75 0H6.25034C2.81323 0 0.000488281 2.81274 0.000488281 6.24985V18.7502C0.000488281 22.1863 2.81323 25 6.25034 25H18.75C22.1871 25 24.9999 22.1863 24.9999 18.7502V6.24985C24.9999 2.81274 22.1871 0 18.75 0ZM22.9165 18.7502C22.9165 21.047 21.0481 22.9166 18.75 22.9166H6.25034C3.95321 22.9166 2.08387 21.047 2.08387 18.7502V6.24985C2.08387 3.95242 3.95321 2.08338 6.25034 2.08338H18.75C21.0481 2.08338 22.9165 3.95242 22.9165 6.24985V18.7502Z" fill="#999999"/>
<path d="M19.2719 7.29143C20.1349 7.29143 20.8344 6.59189 20.8344 5.72897C20.8344 4.86604 20.1349 4.1665 19.2719 4.1665C18.409 4.1665 17.7095 4.86604 17.7095 5.72897C17.7095 6.59189 18.409 7.29143 19.2719 7.29143Z" fill="#999999"/>
<path d="M12.5003 6.25C9.0479 6.25 6.25049 9.04772 6.25049 12.4998C6.25049 15.9507 9.0479 18.7503 12.5003 18.7503C15.9518 18.7503 18.7502 15.9507 18.7502 12.4998C18.7502 9.04772 15.9518 6.25 12.5003 6.25ZM12.5003 16.6669C10.1994 16.6669 8.33387 14.8014 8.33387 12.4998C8.33387 10.1983 10.1994 8.33338 12.5003 8.33338C14.8012 8.33338 16.6668 10.1983 16.6668 12.4998C16.6668 14.8014 14.8012 16.6669 12.5003 16.6669Z" fill="#999999"/>
</g>
<defs>
<clipPath id="clip0_3077_384">
<rect width="25" height="25" fill="white"/>
</clipPath>
</defs>
</svg>
