<svg width="25" height="25" viewBox="0 0 25 25" fill="none" xmlns="http://www.w3.org/2000/svg">
<g clip-path="url(#clip0_3077_381)">
<path d="M24.9937 25L25 24.999V15.8302C25 11.3448 24.0344 7.88958 18.7906 7.88958C16.2698 7.88958 14.5781 9.27292 13.8875 10.5844H13.8146V8.30833H8.84271V24.999H14.0198V16.7344C14.0198 14.5583 14.4323 12.4542 17.1271 12.4542C19.7823 12.4542 19.8219 14.9375 19.8219 16.874V25H24.9937ZM0.4125 8.30937H5.59583V25H0.4125V8.30937ZM3.00208 0C1.34479 0 0 1.34479 0 3.00208C0 4.65937 1.34479 6.03229 3.00208 6.03229C4.65937 6.03229 6.00417 4.65937 6.00417 3.00208C6.00361 2.20605 5.68715 1.44278 5.12427 0.879899C4.56139 0.317019 3.79812 0.000551843 3.00208 0Z" fill="#999999"/>
</g>
<defs>
<clipPath id="clip0_3077_381">
<rect width="25" height="25" fill="white"/>
</clipPath>
</defs>
</svg>
