<svg width="344" height="263" viewBox="0 0 344 263" fill="none" xmlns="http://www.w3.org/2000/svg">
<g clip-path="url(#clip0_331_287)">
<path d="M0 140.309L48.0434 189.485L158.19 122.749L256.349 195.522L290.889 180.062L314.9 198.145V263H0V140.309Z" fill="#4A148C"/>
<path d="M48.0435 189.485V263" stroke="#A3277B" stroke-miterlimit="10" stroke-dasharray="5 5"/>
<path d="M290.722 180.062V263" stroke="#A3277B" stroke-miterlimit="10" stroke-dasharray="5 5"/>
<path d="M157.45 122.749V263" stroke="#A3277B" stroke-miterlimit="10" stroke-dasharray="5 5"/>
<path d="M115.36 157.772L97.2181 139.18C97.135 139.101 97.0607 139.013 96.9966 138.918C94.713 136.28 95.173 131.634 98.1554 127.897L118.964 101.733C128.465 89.778 141.861 81.6741 154.898 79.9974L166.554 78.4955L191.624 75.2466L185.454 81.9185L115.36 157.772Z" fill="url(#paint0_linear_331_287)"/>
<path opacity="0.05" d="M115.36 157.772L109.131 151.388C109.131 151.388 130.238 113.392 166.555 78.4955L191.624 75.2466L185.455 81.9185L115.36 157.772Z" fill="#21292E"/>
<path d="M157.449 200.907L175.591 219.499C175.667 219.584 175.753 219.661 175.846 219.726C178.42 222.067 182.953 221.595 186.6 218.539L212.129 197.214C223.795 187.477 231.702 173.749 233.338 160.387L234.804 148.441L237.974 122.749L231.464 129.072L157.449 200.907Z" fill="url(#paint1_linear_331_287)"/>
<path opacity="0.05" d="M157.449 200.907L163.678 207.291C163.678 207.291 200.754 185.66 234.804 148.44L237.974 122.749L231.464 129.071L157.449 200.907Z" fill="#21292E"/>
<path d="M267.843 30.5224C175.71 49.1318 115.358 157.77 115.358 157.77L136.404 179.339L157.449 200.907C157.449 200.907 263.455 139.055 281.613 44.6339C281.991 42.6979 281.897 40.6961 281.339 38.8063C280.781 36.9165 279.776 35.1972 278.414 33.8011C277.051 32.4049 275.374 31.3752 273.53 30.8032C271.686 30.2312 269.733 30.1348 267.843 30.5224Z" fill="#FFFFFA"/>
<path d="M250.164 79.7877L249.926 80.0321C240.91 89.1317 229.995 92.7384 225.453 88.0837C220.903 83.4204 224.43 72.2424 233.309 63.0031L233.548 62.7586C242.606 53.4756 253.666 49.7555 258.259 54.4625C262.843 59.1607 259.222 70.5046 250.164 79.7877Z" fill="#460069"/>
<path opacity="0.1" d="M249.898 75.7996L249.719 75.9827C246.917 74.8135 244.371 73.0816 242.231 70.889C240.092 68.6964 238.402 66.0873 237.261 63.2154L237.44 63.0321C244.231 56.0723 252.523 53.2828 255.967 56.8121C259.404 60.3346 256.689 68.8397 249.898 75.7996Z" fill="white"/>
<path d="M264.221 48.3464C268.735 52.9726 272.954 57.8921 276.85 63.0742C278.815 57.0061 280.409 50.8184 281.623 44.547C281.99 42.623 281.89 40.6359 281.332 38.7607C280.773 36.8856 279.774 35.1798 278.421 33.7935C277.068 32.4072 275.404 31.3829 273.574 30.8107C271.744 30.2386 269.806 30.1361 267.928 30.5124C261.809 31.7562 255.771 33.3897 249.85 35.4034C254.907 39.397 259.707 43.7202 264.221 48.3464Z" fill="url(#paint2_linear_331_287)"/>
<path d="M115.359 157.771L157.45 200.907C157.002 201.366 156.471 201.73 155.886 201.978C155.301 202.226 154.675 202.354 154.041 202.354C153.408 202.354 152.782 202.226 152.197 201.978C151.612 201.73 151.081 201.366 150.633 200.907L115.359 164.757C114.455 163.83 113.947 162.574 113.947 161.264C113.947 159.953 114.455 158.697 115.359 157.771Z" fill="#170947"/>
<path d="M139.997 183.021C147.992 175.831 157.385 166.793 167.21 156.725C192.869 130.428 211.715 107.106 209.303 104.635C206.891 102.163 184.135 121.477 158.476 147.774C148.651 157.842 139.832 167.469 132.816 175.662L139.997 183.021Z" fill="url(#paint3_linear_331_287)"/>
<path d="M150.633 200.908L132.996 182.832L115.359 164.757C115.359 164.757 80.1733 196.164 86.1622 230.829C119.987 236.967 150.633 200.908 150.633 200.908Z" fill="url(#paint4_linear_331_287)"/>
<g opacity="0.3">
<path d="M144.85 194.981L133.418 183.266L121.987 171.55C121.987 171.55 95.7851 195.388 98.2304 219.328C121.59 221.834 144.85 194.981 144.85 194.981Z" fill="#FFFFFA"/>
</g>
<g opacity="0.1">
<path d="M141.094 191.132L132.995 182.832L124.897 174.532C124.897 174.532 109.304 188.375 112.293 204.048C127.587 207.111 141.094 191.132 141.094 191.132Z" fill="#FFFFFA"/>
</g>
<g opacity="0.5">
<path d="M225.101 262.591L326.608 158.562" stroke="#F8469E" stroke-width="2" stroke-miterlimit="10"/>
<path d="M324.736 160.48L316.74 152.286L327.663 149.286L338.585 146.287L335.659 157.481L332.732 168.674L324.736 160.48Z" fill="#F8469E"/>
</g>
<g opacity="0.5">
<path d="M0 152.43L101.508 48.4004" stroke="#943D84" stroke-width="2" stroke-miterlimit="10"/>
<path d="M99.6359 50.3192L91.6396 42.1244L102.562 39.1256L113.484 36.126L110.558 47.3196L107.631 58.5132L99.6359 50.3192Z" fill="#943D84"/>
</g>
<path opacity="0.5" d="M193.041 64.7539L201.506 32.377L209.972 0L178.38 8.67572L146.787 17.3506L158.298 29.1475L90.7832 98.3392L114.016 122.15L181.531 52.9579L193.041 64.7539Z" fill="url(#paint5_linear_331_287)"/>
<path opacity="0.1" d="M308.954 118.193L314.479 97.0568L320.006 75.9219L299.383 81.5847L278.76 87.2485L286.274 94.9493L166.45 217.749L181.617 233.291L301.44 110.492L308.954 118.193Z" fill="url(#paint6_linear_331_287)"/>
<path opacity="0.1" d="M317.326 145.272L318.666 127.653L301.474 129.026L305.418 133.069L287.856 151.068L295.819 159.229L313.381 141.229L317.326 145.272Z" fill="url(#paint7_linear_331_287)"/>
<path d="M321.364 50.8626L323.849 41.359L326.334 31.8555L317.061 34.4016L307.787 36.9485L311.166 40.4105L297.892 54.0137L304.712 61.0029L317.985 47.3997L321.364 50.8626Z" fill="url(#paint8_linear_331_287)"/>
<path d="M266.88 87.4591C266.688 87.854 266.495 88.2489 266.294 88.6354C290.191 117.009 303.973 142.157 297.832 148.45C292.157 154.266 270.765 142.642 245.689 121.5C236.891 114.096 227.652 105.516 218.469 96.1051C209.492 86.9375 200.973 77.3113 192.943 67.2632C172.788 41.9835 161.79 20.5123 167.393 14.7702C173.462 8.55103 197.527 22.2892 224.827 46.2694C225.204 46.0637 225.581 45.858 225.966 45.6605C197.535 20.4876 173.317 7.05385 166.591 13.9477C160.394 20.2984 171.046 41.8763 191.972 68.0283C199.357 77.2419 208.018 87.0395 217.667 96.9277C226.986 106.479 236.217 115.084 244.942 122.479C270.869 144.443 292.366 155.697 298.635 149.273C305.434 142.305 291.957 117.008 266.88 87.4591Z" fill="#4F0985"/>
<path d="M224.233 183.766C223.984 184.153 223.727 184.531 223.455 184.893C232.798 199.751 236.747 211.053 232.91 214.985C229.017 218.975 217.723 214.755 202.929 204.892C188.585 195.324 170.95 180.476 153.547 162.641C135.719 144.37 120.933 125.844 111.638 110.954C102.503 96.311 98.6743 85.197 102.471 81.3058C106.212 77.4723 116.783 81.2154 130.75 90.2808C131.111 90.0096 131.481 89.7462 131.85 89.4829C117.065 79.8581 105.899 76.1478 101.669 80.4832C97.3823 84.8761 101.155 96.5412 110.812 111.982C120.051 126.732 134.652 144.921 152.745 163.463C170.396 181.553 187.71 196.238 201.918 205.731C217.499 216.154 229.331 220.3 233.713 215.808C238.048 211.365 234.139 199.462 224.233 183.766Z" fill="#4F0985"/>
<path opacity="0.5" d="M114.058 136.52L119.026 117.512L123.996 98.5049L105.45 103.598L86.9032 108.691L93.6602 115.616L67.1133 142.822L80.7528 156.801L107.3 129.594L114.058 136.52Z" fill="url(#paint9_linear_331_287)"/>
<path d="M104.161 90.2781L106.646 80.7746L109.131 71.271L99.8575 73.8171L90.5843 76.3632L93.9624 79.8261L80.689 93.4293L87.5087 100.418L100.782 86.8152L104.161 90.2781Z" fill="url(#paint10_linear_331_287)"/>
</g>
<defs>
<linearGradient id="paint0_linear_331_287" x1="100.935" y1="142.286" x2="191.186" y2="71.1579" gradientUnits="userSpaceOnUse">
<stop stop-color="#6121B3"/>
<stop offset="1" stop-color="#8228BB"/>
</linearGradient>
<linearGradient id="paint1_linear_331_287" x1="158.423" y1="215.23" x2="248.675" y2="144.102" gradientUnits="userSpaceOnUse">
<stop stop-color="#6121B3"/>
<stop offset="1" stop-color="#8228BB"/>
</linearGradient>
<linearGradient id="paint2_linear_331_287" x1="249.85" y1="46.6778" x2="281.848" y2="46.6778" gradientUnits="userSpaceOnUse">
<stop stop-color="#6121B3"/>
<stop offset="1" stop-color="#8228BB"/>
</linearGradient>
<linearGradient id="paint3_linear_331_287" x1="132.816" y1="143.721" x2="209.511" y2="143.721" gradientUnits="userSpaceOnUse">
<stop stop-color="#6121B3"/>
<stop offset="1" stop-color="#8228BB"/>
</linearGradient>
<linearGradient id="paint4_linear_331_287" x1="86.6312" y1="228.726" x2="134.272" y2="183.941" gradientUnits="userSpaceOnUse">
<stop stop-color="#FFF6B1"/>
<stop offset="0.4821" stop-color="#FDEA50"/>
<stop offset="1" stop-color="#FF7D32"/>
</linearGradient>
<linearGradient id="paint5_linear_331_287" x1="226.173" y1="-16.6274" x2="104.692" y2="101.909" gradientUnits="userSpaceOnUse">
<stop stop-color="white"/>
<stop offset="1" stop-color="white" stop-opacity="0"/>
</linearGradient>
<linearGradient id="paint6_linear_331_287" x1="174.035" y1="225.519" x2="323.59" y2="79.59" gradientUnits="userSpaceOnUse">
<stop stop-color="white" stop-opacity="0"/>
<stop offset="1" stop-color="white"/>
</linearGradient>
<linearGradient id="paint7_linear_331_287" x1="291.839" y1="155.148" x2="319.33" y2="128.324" gradientUnits="userSpaceOnUse">
<stop stop-color="white" stop-opacity="0"/>
<stop offset="1" stop-color="white"/>
</linearGradient>
<linearGradient id="paint8_linear_331_287" x1="301.488" y1="57.1673" x2="327.359" y2="32.2074" gradientUnits="userSpaceOnUse">
<stop stop-color="#5622B2"/>
<stop offset="0.1945" stop-color="#6024B4"/>
<stop offset="1" stop-color="#842DBA"/>
</linearGradient>
<linearGradient id="paint9_linear_331_287" x1="67.1135" y1="127.653" x2="123.996" y2="127.653" gradientUnits="userSpaceOnUse">
<stop stop-color="white"/>
<stop offset="1" stop-color="white" stop-opacity="0"/>
</linearGradient>
<linearGradient id="paint10_linear_331_287" x1="84.2852" y1="96.5826" x2="110.156" y2="71.6227" gradientUnits="userSpaceOnUse">
<stop stop-color="#5622B2"/>
<stop offset="0.1945" stop-color="#6024B4"/>
<stop offset="1" stop-color="#842DBA"/>
</linearGradient>
<clipPath id="clip0_331_287">
<rect width="344" height="263" fill="white"/>
</clipPath>
</defs>
</svg>
