<svg width="344" height="263" viewBox="0 0 344 263" fill="none" xmlns="http://www.w3.org/2000/svg">
<g clip-path="url(#clip0_331_336)">
<path d="M344 140.309L295.957 189.485L185.81 122.749L87.6511 195.522L53.1114 180.062L29.1004 198.145V263H344V140.309Z" fill="#4A148C"/>
<path d="M295.957 189.485V263" stroke="#A3277B" stroke-miterlimit="10" stroke-dasharray="5 5"/>
<path d="M53.2778 180.062V263" stroke="#A3277B" stroke-miterlimit="10" stroke-dasharray="5 5"/>
<path d="M186.55 122.749V263" stroke="#A3277B" stroke-miterlimit="10" stroke-dasharray="5 5"/>
<path d="M228.64 157.772L246.782 139.18C246.865 139.101 246.939 139.013 247.003 138.918C249.287 136.28 248.827 131.634 245.845 127.897L225.036 101.733C215.535 89.778 202.139 81.6741 189.102 79.9974L177.446 78.4955L152.376 75.2466L158.546 81.9185L228.64 157.772Z" fill="url(#paint0_linear_331_336)"/>
<path opacity="0.05" d="M228.64 157.772L234.869 151.388C234.869 151.388 213.762 113.392 177.445 78.4955L152.376 75.2466L158.545 81.9185L228.64 157.772Z" fill="#21292E"/>
<path d="M186.551 200.907L168.409 219.499C168.333 219.584 168.247 219.661 168.154 219.726C165.58 222.067 161.047 221.595 157.4 218.539L131.871 197.214C120.205 187.477 112.298 173.749 110.662 160.387L109.196 148.441L106.026 122.749L112.536 129.072L186.551 200.907Z" fill="url(#paint1_linear_331_336)"/>
<path opacity="0.05" d="M186.551 200.907L180.322 207.291C180.322 207.291 143.246 185.66 109.196 148.44L106.026 122.749L112.536 129.071L186.551 200.907Z" fill="#21292E"/>
<path d="M76.1565 30.5224C168.29 49.1318 228.642 157.77 228.642 157.77L207.596 179.339L186.551 200.907C186.551 200.907 80.5455 139.055 62.3872 44.6339C62.0089 42.6979 62.103 40.6961 62.6611 38.8063C63.2192 36.9165 64.224 35.1972 65.5863 33.8011C66.9486 32.4049 68.6263 31.3752 70.4702 30.8032C72.3142 30.2312 74.2675 30.1348 76.1565 30.5224Z" fill="#FFFFFA"/>
<path d="M93.8358 79.7877L94.0744 80.0321C103.09 89.1317 114.005 92.7384 118.547 88.0837C123.097 83.4204 119.57 72.2424 110.691 63.0031L110.452 62.7586C101.394 53.4756 90.3336 49.7555 85.7408 54.4625C81.1566 59.1607 84.7783 70.5046 93.8358 79.7877Z" fill="#460069"/>
<path opacity="0.1" d="M94.1022 75.7996L94.2811 75.9827C97.0834 74.8135 99.6293 73.0816 101.769 70.889C103.908 68.6964 105.598 66.0873 106.739 63.2154L106.56 63.0321C99.7694 56.0723 91.4768 53.2828 88.0329 56.8121C84.5962 60.3346 87.3114 68.8397 94.1022 75.7996Z" fill="white"/>
<path d="M79.779 48.3464C75.265 52.9726 71.0464 57.8921 67.1496 63.0742C65.1848 57.0061 63.591 50.8184 62.3774 44.547C62.0103 42.623 62.1102 40.6359 62.6685 38.7607C63.2268 36.8856 64.2262 35.1798 65.5789 33.7935C66.9316 32.4072 68.5961 31.3829 70.4258 30.8107C72.2555 30.2386 74.1944 30.1361 76.0718 30.5124C82.1911 31.7562 88.2289 33.3897 94.1499 35.4034C89.0934 39.397 84.2931 43.7202 79.779 48.3464Z" fill="url(#paint2_linear_331_336)"/>
<path d="M228.641 157.771L186.55 200.907C186.998 201.366 187.529 201.73 188.114 201.978C188.699 202.226 189.325 202.354 189.959 202.354C190.592 202.354 191.218 202.226 191.803 201.978C192.388 201.73 192.919 201.366 193.367 200.907L228.641 164.757C229.545 163.83 230.053 162.574 230.053 161.264C230.053 159.953 229.545 158.697 228.641 157.771Z" fill="#170947"/>
<path d="M204.003 183.021C196.008 175.831 186.615 166.793 176.79 156.725C151.131 130.428 132.285 107.106 134.697 104.635C137.109 102.163 159.865 121.477 185.524 147.774C195.349 157.842 204.168 167.469 211.184 175.662L204.003 183.021Z" fill="url(#paint3_linear_331_336)"/>
<path d="M193.367 200.908L211.004 182.832L228.641 164.757C228.641 164.757 263.827 196.164 257.838 230.829C224.013 236.967 193.367 200.908 193.367 200.908Z" fill="url(#paint4_linear_331_336)"/>
<g opacity="0.3">
<path d="M199.15 194.981L210.582 183.266L222.013 171.55C222.013 171.55 248.215 195.388 245.77 219.328C222.41 221.834 199.15 194.981 199.15 194.981Z" fill="#FFFFFA"/>
</g>
<g opacity="0.1">
<path d="M202.906 191.132L211.005 182.832L219.103 174.532C219.103 174.532 234.696 188.375 231.707 204.048C216.413 207.111 202.906 191.132 202.906 191.132Z" fill="#FFFFFA"/>
</g>
<g opacity="0.5">
<path d="M118.899 262.591L17.3918 158.562" stroke="#F8469E" stroke-width="2" stroke-miterlimit="10"/>
<path d="M19.2644 160.48L27.2598 152.286L16.3375 149.286L5.41521 146.287L8.34128 157.481L11.2682 168.674L19.2644 160.48Z" fill="#F8469E"/>
</g>
<g opacity="0.5">
<path d="M344 152.43L242.492 48.4004" stroke="#943D84" stroke-width="2" stroke-miterlimit="10"/>
<path d="M244.364 50.3192L252.36 42.1244L241.438 39.1256L230.516 36.126L233.442 47.3196L236.369 58.5132L244.364 50.3192Z" fill="#943D84"/>
</g>
<path opacity="0.5" d="M150.959 64.7539L142.494 32.377L134.028 0L165.62 8.67572L197.213 17.3506L185.702 29.1475L253.217 98.3392L229.984 122.15L162.469 52.9579L150.959 64.7539Z" fill="url(#paint5_linear_331_336)"/>
<path opacity="0.1" d="M35.0462 118.193L29.5206 97.0568L23.9942 75.9219L44.6167 81.5847L65.2402 87.2485L57.7261 94.9493L177.55 217.749L162.383 233.291L42.5603 110.492L35.0462 118.193Z" fill="url(#paint6_linear_331_336)"/>
<path opacity="0.1" d="M26.6736 145.272L25.3339 127.653L42.526 129.026L38.5816 133.069L56.144 151.068L48.1814 159.229L30.6189 141.229L26.6736 145.272Z" fill="url(#paint7_linear_331_336)"/>
<path d="M22.6357 50.8626L20.1514 41.359L17.6661 31.8555L26.9393 34.4016L36.2134 36.9485L32.8344 40.4105L46.1079 54.0137L39.2881 61.0029L26.0147 47.3997L22.6357 50.8626Z" fill="url(#paint8_linear_331_336)"/>
<path d="M77.1196 87.4591C77.3123 87.854 77.5049 88.2489 77.7056 88.6354C53.809 117.009 40.0268 142.157 46.1676 148.45C51.8427 154.266 73.2346 142.642 98.311 121.5C107.109 114.096 116.348 105.516 125.531 96.1051C134.508 86.9375 143.027 77.3113 151.057 67.2632C171.212 41.9835 182.21 20.5123 176.607 14.7702C170.538 8.55103 146.473 22.2892 119.173 46.2694C118.796 46.0637 118.419 45.858 118.034 45.6605C146.465 20.4876 170.683 7.05385 177.409 13.9477C183.606 20.2984 172.954 41.8763 152.028 68.0283C144.643 77.2419 135.982 87.0395 126.333 96.9277C117.014 106.479 107.783 115.084 99.0579 122.479C73.1306 144.443 51.6342 155.697 45.3651 149.273C38.5659 142.305 52.0433 117.008 77.1196 87.4591Z" fill="#4F0985"/>
<path d="M119.767 183.766C120.016 184.153 120.273 184.531 120.545 184.893C111.202 199.751 107.253 211.053 111.09 214.985C114.983 218.975 126.277 214.755 141.071 204.892C155.415 195.324 173.05 180.476 190.453 162.641C208.281 144.37 223.067 125.844 232.362 110.954C241.497 96.311 245.326 85.197 241.529 81.3058C237.788 77.4723 227.217 81.2154 213.25 90.2808C212.889 90.0096 212.519 89.7462 212.15 89.4829C226.935 79.8581 238.101 76.1478 242.331 80.4832C246.618 84.8761 242.845 96.5412 233.188 111.982C223.949 126.732 209.348 144.921 191.255 163.463C173.604 181.553 156.29 196.238 142.082 205.731C126.501 216.154 114.669 220.3 110.287 215.808C105.952 211.365 109.861 199.462 119.767 183.766Z" fill="#4F0985"/>
<path opacity="0.5" d="M229.942 136.52L224.974 117.512L220.004 98.5049L238.55 103.598L257.097 108.691L250.34 115.616L276.887 142.822L263.247 156.801L236.7 129.594L229.942 136.52Z" fill="url(#paint9_linear_331_336)"/>
<path d="M239.839 90.2781L237.354 80.7746L234.869 71.271L244.142 73.8171L253.416 76.3632L250.038 79.8261L263.311 93.4293L256.491 100.418L243.218 86.8152L239.839 90.2781Z" fill="url(#paint10_linear_331_336)"/>
</g>
<defs>
<linearGradient id="paint0_linear_331_336" x1="243.065" y1="142.286" x2="152.814" y2="71.1579" gradientUnits="userSpaceOnUse">
<stop stop-color="#6121B3"/>
<stop offset="1" stop-color="#8228BB"/>
</linearGradient>
<linearGradient id="paint1_linear_331_336" x1="185.577" y1="215.23" x2="95.3251" y2="144.102" gradientUnits="userSpaceOnUse">
<stop stop-color="#6121B3"/>
<stop offset="1" stop-color="#8228BB"/>
</linearGradient>
<linearGradient id="paint2_linear_331_336" x1="94.1499" y1="46.6778" x2="62.1519" y2="46.6778" gradientUnits="userSpaceOnUse">
<stop stop-color="#6121B3"/>
<stop offset="1" stop-color="#8228BB"/>
</linearGradient>
<linearGradient id="paint3_linear_331_336" x1="211.184" y1="143.721" x2="134.489" y2="143.721" gradientUnits="userSpaceOnUse">
<stop stop-color="#6121B3"/>
<stop offset="1" stop-color="#8228BB"/>
</linearGradient>
<linearGradient id="paint4_linear_331_336" x1="257.369" y1="228.726" x2="209.728" y2="183.941" gradientUnits="userSpaceOnUse">
<stop stop-color="#FFF6B1"/>
<stop offset="0.4821" stop-color="#FDEA50"/>
<stop offset="1" stop-color="#FF7D32"/>
</linearGradient>
<linearGradient id="paint5_linear_331_336" x1="117.827" y1="-16.6274" x2="239.308" y2="101.909" gradientUnits="userSpaceOnUse">
<stop stop-color="white"/>
<stop offset="1" stop-color="white" stop-opacity="0"/>
</linearGradient>
<linearGradient id="paint6_linear_331_336" x1="169.965" y1="225.519" x2="20.4099" y2="79.59" gradientUnits="userSpaceOnUse">
<stop stop-color="white" stop-opacity="0"/>
<stop offset="1" stop-color="white"/>
</linearGradient>
<linearGradient id="paint7_linear_331_336" x1="52.1609" y1="155.148" x2="24.6704" y2="128.324" gradientUnits="userSpaceOnUse">
<stop stop-color="white" stop-opacity="0"/>
<stop offset="1" stop-color="white"/>
</linearGradient>
<linearGradient id="paint8_linear_331_336" x1="42.512" y1="57.1673" x2="16.6414" y2="32.2074" gradientUnits="userSpaceOnUse">
<stop stop-color="#5622B2"/>
<stop offset="0.1945" stop-color="#6024B4"/>
<stop offset="1" stop-color="#842DBA"/>
</linearGradient>
<linearGradient id="paint9_linear_331_336" x1="276.886" y1="127.653" x2="220.004" y2="127.653" gradientUnits="userSpaceOnUse">
<stop stop-color="white"/>
<stop offset="1" stop-color="white" stop-opacity="0"/>
</linearGradient>
<linearGradient id="paint10_linear_331_336" x1="259.715" y1="96.5826" x2="233.844" y2="71.6227" gradientUnits="userSpaceOnUse">
<stop stop-color="#5622B2"/>
<stop offset="0.1945" stop-color="#6024B4"/>
<stop offset="1" stop-color="#842DBA"/>
</linearGradient>
<clipPath id="clip0_331_336">
<rect width="344" height="263" fill="white" transform="matrix(-1 0 0 1 344 0)"/>
</clipPath>
</defs>
</svg>
