<svg width="127" height="127" viewBox="0 0 127 127" fill="none" xmlns="http://www.w3.org/2000/svg">
<g clip-path="url(#clip0_1955_1933)">
<path d="M0 60.6748C0 58.2937 1.93721 56.3565 4.31851 56.3565H13.9411V46.9366C13.9411 45.9053 14.7767 45.0696 15.8081 45.0696C16.8394 45.0696 17.6751 45.9053 17.6751 46.9366V56.3565H20.6478V9.30323H17.6751V38.9804C17.6751 40.0118 16.8394 40.8474 15.8081 40.8474C14.7767 40.8474 13.9411 40.0118 13.9411 38.9804V8.74761C13.9411 6.99511 15.367 5.56921 17.1197 5.56921H21.2035C22.9562 5.56921 24.3821 6.99511 24.3821 8.74761V9.32389H50.5092C50.8667 9.32372 51.2187 9.41107 51.5346 9.57831C51.8505 9.74554 52.1207 9.98758 52.3215 10.2833C52.5225 10.5788 52.6481 10.9191 52.6874 11.2743C52.7266 11.6296 52.6782 11.989 52.5465 12.3213L48.8934 21.5495L52.547 30.7793C52.8136 31.4546 52.7292 32.2161 52.321 32.8168C51.9127 33.4175 51.2354 33.7757 50.5092 33.7757H24.3821V56.3568H34.0049C36.386 56.3568 38.3232 58.2937 38.3232 60.675V68.4405C38.3237 69.3168 38.0559 70.1722 37.5559 70.8918C38.056 71.6114 38.3237 72.4668 38.3232 73.343V81.1085C38.3236 81.9848 38.0558 82.8402 37.5557 83.5598C38.0558 84.2794 38.3236 85.1348 38.3232 86.0111V93.7766C38.3237 94.6528 38.0559 95.5082 37.5559 96.2278C38.056 96.9474 38.3237 97.8028 38.3232 98.6791V106.445C38.3236 107.321 38.0558 108.176 37.5557 108.896C38.0558 109.615 38.3236 110.471 38.3232 111.347V119.113C38.3232 121.494 36.3862 123.431 34.0049 123.431H4.31851C1.93745 123.431 0 121.494 0 119.113V111.347C-0.000427246 110.471 0.26738 109.615 0.767456 108.896C0.26738 108.176 -0.000427246 107.321 0 106.445V98.6791C-0.000427246 97.8028 0.26738 96.9474 0.767456 96.2278C0.267357 95.5082 -0.000457764 94.6528 0 93.7766V86.0111C-0.000427246 85.1348 0.26738 84.2794 0.767456 83.5598C0.26738 82.8402 -0.000427246 81.9848 0 81.1085V73.3428C-0.000427246 72.4665 0.26738 71.6111 0.767456 70.8915C0.267357 70.172 -0.000457764 69.3166 0 68.4403V60.6748ZM48.239 30.0417L45.1952 22.3529C44.9911 21.8356 44.9916 21.2601 45.1965 20.7432L48.239 13.0579H24.3819V30.0417H48.239ZM34.5889 60.6748C34.5887 60.5199 34.5271 60.3714 34.4176 60.2619C34.308 60.1524 34.1595 60.0907 34.0047 60.0905H4.31826C4.16332 60.0907 4.01478 60.1523 3.9052 60.2618C3.79562 60.3713 3.73396 60.5198 3.73376 60.6748V68.4403C3.73396 68.5952 3.79562 68.7437 3.9052 68.8533C4.01478 68.9628 4.16332 69.0244 4.31826 69.0245H34.0049C34.1598 69.0243 34.3083 68.9627 34.4178 68.8532C34.5273 68.7437 34.589 68.5952 34.5891 68.4403L34.5889 60.6748ZM3.73402 73.3428V81.1083C3.73415 81.2633 3.79576 81.4119 3.90535 81.5214C4.01494 81.631 4.16354 81.6927 4.31851 81.6928H34.0049C34.1598 81.6926 34.3084 81.6309 34.4179 81.5214C34.5274 81.4118 34.589 81.2632 34.5891 81.1083V73.3428C34.589 73.1879 34.5273 73.0394 34.4178 72.9299C34.3083 72.8204 34.1598 72.7587 34.0049 72.7585H4.31851C4.16357 72.7587 4.01501 72.8203 3.90543 72.9298C3.79585 73.0393 3.73421 73.1879 3.73402 73.3428ZM3.73402 86.0111V93.7766C3.73421 93.9315 3.79585 94.08 3.90543 94.1896C4.01501 94.2991 4.16357 94.3607 4.31851 94.3608H34.0049C34.1598 94.3606 34.3083 94.299 34.4178 94.1895C34.5273 94.0799 34.589 93.9314 34.5891 93.7766V86.0111C34.589 85.8562 34.5273 85.7077 34.4178 85.5981C34.3083 85.4886 34.1598 85.427 34.0049 85.4268H4.31851C4.16357 85.4269 4.01501 85.4885 3.90543 85.5981C3.79585 85.7076 3.73421 85.8561 3.73402 86.0111ZM3.73402 98.6788V106.444C3.73415 106.599 3.79576 106.748 3.90535 106.857C4.01494 106.967 4.16354 107.029 4.31851 107.029H34.0049C34.1598 107.029 34.3084 106.967 34.4179 106.857C34.5274 106.748 34.589 106.599 34.5891 106.444V98.6788C34.589 98.5239 34.5273 98.3754 34.4178 98.2659C34.3083 98.1564 34.1598 98.0948 34.0049 98.0946H4.31851C4.16357 98.0947 4.01501 98.1563 3.90543 98.2658C3.79585 98.3754 3.73421 98.5239 3.73402 98.6788ZM3.73402 119.113C3.73421 119.268 3.79585 119.416 3.90543 119.526C4.01501 119.635 4.16357 119.697 4.31851 119.697H34.0049C34.1598 119.697 34.3083 119.635 34.4178 119.525C34.5273 119.416 34.589 119.267 34.5891 119.113V111.347C34.589 111.192 34.5273 111.044 34.4178 110.934C34.3083 110.825 34.1598 110.763 34.0049 110.763H4.31851C4.16357 110.763 4.01501 110.825 3.90543 110.934C3.79585 111.044 3.73421 111.192 3.73402 111.347V119.113ZM44.3387 93.7766V86.0111C44.3387 83.63 46.2756 81.6925 48.6569 81.6925H55.5434C56.5748 81.6925 57.4104 82.5282 57.4104 83.5595C57.4104 84.5909 56.5748 85.4266 55.5434 85.4266H48.6569C48.502 85.4268 48.3535 85.4884 48.2439 85.598C48.1344 85.7076 48.0728 85.8561 48.0727 86.0111V93.7766C48.0729 93.9314 48.1345 94.0799 48.244 94.1895C48.3535 94.299 48.502 94.3606 48.6569 94.3608H78.3433C78.4982 94.3606 78.6467 94.299 78.7562 94.1895C78.8658 94.0799 78.9274 93.9314 78.9276 93.7766V86.0111C78.9274 85.8561 78.8658 85.7076 78.7563 85.598C78.6468 85.4884 78.4983 85.4268 78.3433 85.4266H77.1706C77.1676 85.4266 77.1646 85.4273 77.1614 85.4273L77.1517 85.4266H63.5001C62.4688 85.4266 61.6331 84.5909 61.6331 83.5595C61.6331 82.5282 62.4688 81.6925 63.5001 81.6925H68.6329L73.0348 65.4182C73.2723 64.5395 73.752 63.7451 74.4191 63.1258L90.5207 48.1663V43.8889L74.9486 27.8545C74.486 27.3794 74.2277 26.7421 74.2289 26.0789V22.5127C74.2289 21.5563 74.7564 20.6887 75.6055 20.2484C76.0201 20.0323 76.4862 19.9347 76.9526 19.9665C77.419 19.9982 77.8676 20.1581 78.249 20.4283L91.6822 29.9023C91.6758 29.7659 91.6724 29.6293 91.6718 29.4928C91.6718 24.237 95.9477 19.9611 101.203 19.9611C106.459 19.9611 110.735 24.237 110.735 29.4928C110.735 33.77 107.903 37.3979 104.016 38.6005L104.044 38.6205C104.856 39.1941 105.519 39.9544 105.977 40.8373C106.435 41.7203 106.674 42.7002 106.675 43.6947V45.1946L124.846 60.8142C125.095 61.0285 125.295 61.2943 125.433 61.5932C125.57 61.8921 125.641 62.2171 125.641 62.546V65.6082C125.642 65.994 125.544 66.3738 125.358 66.7118C125.172 67.0497 124.903 67.3347 124.576 67.5399C124.212 67.771 123.789 67.894 123.358 67.8944C123.017 67.894 122.68 67.8175 122.373 67.6706L106.675 60.1859V74.6801C106.675 74.7025 106.677 74.7251 106.682 74.747L110.819 94.3608H122.682C125.063 94.3608 127 96.2978 127 98.6788V106.444C127 107.321 126.733 108.176 126.233 108.896C126.733 109.615 127 110.471 127 111.347V119.113C127 121.494 125.063 123.431 122.682 123.431H92.9953C90.6143 123.431 88.6771 121.494 88.6771 119.113V111.347C88.6766 110.471 88.9445 109.615 89.4445 108.896C88.9445 108.176 88.6766 107.321 88.6771 106.445V98.6791C88.6771 96.298 90.614 94.3608 92.9953 94.3608H100.912L91.0736 77.49C90.7115 76.8694 90.5206 76.1638 90.5204 75.4453V69.3325L81.6504 75.4475L79.6378 81.8914C81.3883 82.4428 82.6613 84.0808 82.6613 86.0111V93.7766C82.6618 94.6528 82.3941 95.5082 81.8941 96.2278C82.3941 96.9474 82.6619 97.8028 82.6613 98.6791V106.445C82.6618 107.321 82.3939 108.176 81.8939 108.896C82.3939 109.615 82.6618 110.471 82.6613 111.347V119.113C82.6613 121.494 80.7244 123.431 78.3431 123.431H48.6567C46.2756 123.431 44.3382 121.494 44.3382 119.113V111.347C44.3377 110.471 44.6056 109.615 45.1056 108.896C44.6056 108.176 44.3377 107.321 44.3382 106.445V98.6791C44.3377 97.8028 44.6056 96.9474 45.1056 96.2278C44.606 95.5081 44.3383 94.6527 44.3387 93.7766ZM107.001 29.4928C107.001 26.296 104.401 23.6951 101.204 23.6951C98.0069 23.6951 95.406 26.296 95.406 29.4928C95.406 32.6896 98.0069 35.2905 101.204 35.2905C104.401 35.2905 107.001 32.6896 107.001 29.4928ZM48.6569 98.0948C48.502 98.0949 48.3534 98.1565 48.2439 98.2661C48.1343 98.3756 48.0726 98.5241 48.0724 98.6791V106.445C48.0726 106.6 48.1342 106.748 48.2438 106.858C48.3534 106.967 48.502 107.029 48.6569 107.029H78.3433C78.4983 107.029 78.6468 106.967 78.7563 106.858C78.8658 106.748 78.9274 106.6 78.9276 106.445V98.6791C78.9274 98.5242 78.8658 98.3757 78.7562 98.2662C78.6467 98.1566 78.4982 98.095 78.3433 98.0948H48.6569ZM121.907 63.3115V63.2117L106.675 50.1185V56.0488L121.907 63.3115ZM92.4113 119.113C92.4115 119.267 92.4732 119.416 92.5827 119.525C92.6922 119.635 92.8407 119.697 92.9956 119.697H122.682C122.837 119.697 122.985 119.635 123.095 119.525C123.204 119.416 123.266 119.267 123.266 119.113V111.347C123.266 111.192 123.204 111.044 123.095 110.934C122.985 110.825 122.837 110.763 122.682 110.763H92.9953C92.8405 110.763 92.692 110.825 92.5824 110.934C92.4729 111.044 92.4113 111.192 92.4111 111.347L92.4113 119.113ZM92.4113 98.6788V106.444C92.4115 106.599 92.4731 106.748 92.5826 106.857C92.6921 106.967 92.8407 107.029 92.9956 107.029H122.682C122.837 107.029 122.985 106.967 123.095 106.857C123.204 106.748 123.266 106.599 123.266 106.444V98.6788C123.266 98.5239 123.204 98.3754 123.095 98.2659C122.985 98.1564 122.837 98.0948 122.682 98.0946H92.9953C92.8405 98.0948 92.6921 98.1565 92.5826 98.266C92.4731 98.3755 92.4115 98.524 92.4113 98.6788ZM94.2988 75.6078L105.235 94.3605H107.003L103.028 75.5167C102.971 75.2419 102.941 74.9604 102.941 74.6796V43.6947C102.941 43.2982 102.845 42.9076 102.663 42.5556C102.48 42.2036 102.216 41.9006 101.892 41.6719L77.9632 24.7956V25.599L93.727 41.8307C94.0653 42.1792 94.2547 42.6459 94.2547 43.1316V75.4453C94.2547 75.5023 94.2699 75.5583 94.2988 75.6078ZM90.5207 64.7969V53.2628L76.9605 65.8613C76.8058 66.005 76.6946 66.1892 76.6396 66.393L72.5013 81.6925H75.788L78.2784 73.7194C78.4028 73.3211 78.6572 72.976 79.0008 72.7391L90.5207 64.7969ZM48.0724 119.113C48.0726 119.268 48.1343 119.416 48.2439 119.526C48.3534 119.635 48.502 119.697 48.6569 119.697H78.3433C78.4982 119.697 78.6467 119.635 78.7562 119.525C78.8658 119.416 78.9274 119.267 78.9276 119.113V111.347C78.9274 111.192 78.8658 111.044 78.7562 110.934C78.6467 110.825 78.4982 110.763 78.3433 110.763H48.6569C48.502 110.763 48.3534 110.825 48.2439 110.934C48.1343 111.044 48.0726 111.192 48.0724 111.347V119.113Z" fill="#8228BB"/>
</g>
<defs>
<clipPath id="clip0_1955_1933">
<rect width="127" height="127" fill="white" transform="matrix(-1 0 0 1 127 0)"/>
</clipPath>
</defs>
</svg>
