<svg width="38" height="39" viewBox="0 0 38 39" fill="none" xmlns="http://www.w3.org/2000/svg">
<path d="M32.5276 6.05163C30.2032 3.68972 27.0915 2.41504 23.7923 2.41504C20.4932 2.41504 17.3814 3.68972 15.057 6.05163C10.7831 10.2881 10.2957 16.8864 13.5199 21.6852C13.4824 21.6852 13.4449 21.7227 13.4449 21.7227L11.158 24.0096L11.083 23.9347C10.6331 23.4848 9.92079 23.4848 9.50839 23.9347L2.01027 31.4328C1.56038 31.8827 1.56038 32.595 2.01027 33.0074L5.4969 36.494C5.72184 36.719 6.02177 36.8314 6.2842 36.8314C6.58412 36.8314 6.84656 36.719 7.0715 36.494L14.5696 28.9959C15.0195 28.546 15.0195 27.8337 14.5696 27.4213L14.4946 27.3463L16.7816 25.0594C16.8191 25.0219 16.8191 25.0219 16.8191 24.9844C18.9185 26.409 21.2805 27.1589 23.7923 27.1589C27.0915 27.1589 30.2032 25.8842 32.5276 23.5223C34.8896 21.1978 36.1642 18.0861 36.1642 14.787C36.1642 11.4878 34.8896 8.37605 32.5276 6.05163ZM14.0448 28.546L6.54663 36.0441C6.39667 36.1941 6.17173 36.1941 6.02177 36.0441L2.53514 32.5575C2.38517 32.4076 2.38517 32.1826 2.53514 32.0326L10.0333 24.5345C10.1082 24.4595 10.2207 24.422 10.2957 24.422C10.4082 24.422 10.4832 24.4595 10.5581 24.5345L10.8955 24.8719L13.7448 27.7212L14.0823 28.0586C14.1947 28.1711 14.1947 28.3961 14.0448 28.546ZM14.0073 26.8964L11.6829 24.572L13.9698 22.2851C14.3072 22.6975 14.6446 23.1474 15.057 23.5223C15.4319 23.8972 15.8818 24.2721 16.2942 24.6095L14.0073 26.8964ZM32.0028 22.9974C29.8283 25.2093 26.904 26.409 23.7923 26.409C20.6806 26.409 17.7563 25.2093 15.5819 22.9974C13.4074 20.7855 12.1702 17.8987 12.1702 14.787C12.1702 11.6752 13.3699 8.75096 15.5819 6.5765C17.7938 4.40204 20.6806 3.16485 23.7923 3.16485C26.904 3.16485 29.8283 4.36455 32.0028 6.5765C34.2147 8.75096 35.4144 11.6752 35.4144 14.787C35.4144 17.8987 34.2147 20.8229 32.0028 22.9974Z" fill="white"/>
<path d="M31.2154 7.36378C29.2284 5.37678 26.6041 4.28955 23.7923 4.28955C20.9805 4.28955 18.3562 5.37678 16.3692 7.36378C14.3822 9.35079 13.2949 11.9751 13.2949 14.7869C13.2949 17.5987 14.3822 20.2231 16.3692 22.2101C18.3562 24.1971 20.9805 25.2843 23.7923 25.2843C26.6041 25.2843 29.2284 24.1971 31.2154 22.2101C33.2025 20.2231 34.2897 17.5987 34.2897 14.7869C34.2897 11.9751 33.2025 9.35079 31.2154 7.36378ZM29.041 14.412C29.0035 13.2123 28.891 12.0501 28.7036 10.9254C29.4534 11.1503 30.1657 11.3753 30.803 11.7127C32.3777 12.4625 33.3149 13.4373 33.5024 14.4495H29.041V14.412ZM28.2912 14.412H24.1672V10.2881C25.4419 10.3255 26.6791 10.438 27.8788 10.7005C28.1412 11.9002 28.2537 13.1373 28.2912 14.412ZM24.1672 9.53824V5.07685C25.1795 5.26431 26.1542 6.20157 26.904 7.77618C27.2039 8.41352 27.4664 9.12584 27.6913 9.87566C26.5291 9.6882 25.3669 9.57573 24.1672 9.53824ZM23.4174 5.07685V9.53824C22.2177 9.57573 21.0555 9.6882 19.9308 9.87566C20.1557 9.12584 20.3807 8.41352 20.7181 7.77618C21.4304 6.20157 22.4051 5.26431 23.4174 5.07685ZM23.4174 10.2881V14.412H19.2934C19.3309 13.1373 19.4434 11.9002 19.7058 10.7005C20.9055 10.438 22.1427 10.3255 23.4174 10.2881ZM18.5436 14.412H14.0822C14.2697 13.3998 15.2069 12.425 16.7816 11.6752C17.4189 11.3753 18.1312 11.1128 18.881 10.8879C18.6936 12.0501 18.5811 13.2123 18.5436 14.412ZM18.5436 15.1618C18.5811 16.3615 18.6936 17.5237 18.881 18.6485C18.1312 18.4235 17.4189 18.1986 16.7816 17.8612C15.2069 17.1114 14.2697 16.1366 14.0822 15.1243H18.5436V15.1618ZM19.2934 15.1618H23.4174V19.2858C22.1427 19.2483 20.9055 19.1358 19.7058 18.8734C19.4434 17.6737 19.3309 16.4365 19.2934 15.1618ZM23.4174 20.0356V24.497C22.4051 24.3096 21.4304 23.3723 20.6806 21.7977C20.3807 21.1603 20.1182 20.448 19.8933 19.6982C21.0555 19.8857 22.2177 19.9981 23.4174 20.0356ZM24.1672 24.497V20.0356C25.3669 19.9981 26.5291 19.8857 27.6538 19.6982C27.4289 20.448 27.2039 21.1603 26.8665 21.7977C26.1542 23.3723 25.1795 24.3096 24.1672 24.497ZM24.1672 19.2858V15.1618H28.2912C28.2537 16.4365 28.1412 17.6737 27.8788 18.8734C26.6791 19.1358 25.4419 19.2483 24.1672 19.2858ZM29.041 15.1618H33.5024C33.3149 16.1741 32.3777 17.1488 30.803 17.8987C30.1657 18.1986 29.4534 18.461 28.7036 18.686C28.891 17.5237 29.0035 16.3615 29.041 15.1618ZM30.6906 7.88865C31.9653 9.16333 32.865 10.7754 33.2774 12.5C32.7526 11.9376 32.0402 11.4503 31.103 11.0004C30.3157 10.6255 29.4159 10.3255 28.4786 10.1006C28.2537 9.16333 27.9538 8.26356 27.5789 7.47626C27.129 6.57648 26.6416 5.86416 26.0792 5.3018C27.8038 5.7142 29.3784 6.61397 30.6906 7.88865ZM16.894 7.88865C18.1687 6.61397 19.7808 5.7142 21.5054 5.3018C20.943 5.82667 20.4556 6.53899 20.0057 7.47626C19.6308 8.26356 19.3309 9.16333 19.106 10.1006C18.1687 10.3255 17.2689 10.6255 16.4816 11.0004C15.5819 11.4503 14.8695 11.9376 14.3072 12.5C14.7196 10.7754 15.6193 9.20082 16.894 7.88865ZM16.894 21.6852C15.6193 20.4105 14.7196 18.7984 14.3072 17.0739C14.832 17.6362 15.5444 18.1236 16.4816 18.5735C17.2689 18.9484 18.1687 19.2483 19.106 19.4733C19.3309 20.4105 19.6308 21.3103 20.0057 22.0976C20.4556 22.9974 20.943 23.7097 21.5054 24.2721C19.7808 23.8597 18.2062 22.9599 16.894 21.6852ZM30.6906 21.6852C29.4159 22.9599 27.8038 23.8597 26.0792 24.2721C26.6416 23.7472 27.129 23.0349 27.5789 22.0976C27.9538 21.3103 28.2537 20.4105 28.4786 19.4733C29.4159 19.2483 30.3157 18.9484 31.103 18.5735C32.0028 18.1236 32.7151 17.6362 33.2774 17.0739C32.865 18.7984 31.9653 20.373 30.6906 21.6852Z" fill="white"/>
</svg>
