<svg width="125" height="105" viewBox="0 0 125 105" fill="none" xmlns="http://www.w3.org/2000/svg">
<path d="M53.9445 58.8881C53.3264 58.8881 52.7504 58.4651 52.5819 57.8305C52.3852 57.0831 52.8347 56.3075 53.5933 56.1101C55.6584 55.5742 57.7797 55.1794 59.915 54.9397C60.6877 54.8551 61.376 55.4191 61.4603 56.1806C61.5446 56.9562 60.9967 57.6472 60.2241 57.7318C58.2292 57.9574 56.2484 58.324 54.3098 58.8317C54.1834 58.874 54.071 58.8881 53.9445 58.8881ZM46.6957 61.4969C46.1618 61.4969 45.6561 61.1867 45.4173 60.679C45.0942 59.9739 45.4032 59.1278 46.1057 58.8035C46.9064 58.4369 47.7352 58.0843 48.5641 57.76C49.2805 57.478 50.0953 57.8305 50.3903 58.5638C50.6854 59.2971 50.3201 60.1008 49.5896 60.397C48.817 60.7072 48.0443 61.0315 47.2857 61.3841C47.089 61.4546 46.8924 61.4969 46.6957 61.4969ZM10.3812 10.3647H8.63919C7.86654 10.3647 7.23438 9.73017 7.23438 8.95459C7.23438 8.179 7.86654 7.54443 8.63919 7.54443H10.3812C11.1538 7.54443 11.786 8.179 11.786 8.95459C11.786 9.73017 11.1538 10.3647 10.3812 10.3647ZM18.0234 10.3647H16.2814C15.5087 10.3647 14.8766 9.73017 14.8766 8.95459C14.8766 8.179 15.5087 7.54443 16.2814 7.54443H18.0234C18.796 7.54443 19.4282 8.179 19.4282 8.95459C19.4282 9.73017 18.8101 10.3647 18.0234 10.3647ZM25.6796 10.3647H23.9376C23.165 10.3647 22.5328 9.73017 22.5328 8.95459C22.5328 8.179 23.165 7.54443 23.9376 7.54443H25.6796C26.4523 7.54443 27.0844 8.179 27.0844 8.95459C27.0844 9.73017 26.4523 10.3647 25.6796 10.3647Z" fill="white"/>
<path d="M90.245 67.1934C89.9921 67.1934 89.7393 67.1229 89.5145 66.9819C89.0931 66.7281 88.8402 66.2768 88.8402 65.7833V57.9992C81.493 54.0508 73.2186 51.9779 64.8881 51.9779C56.5434 51.9779 48.2831 54.0649 40.9359 57.9992V65.7833C40.9359 66.2768 40.6831 66.7281 40.2616 66.9819C39.8402 67.2357 39.3204 67.2639 38.8849 67.0383L19.386 57.0403C18.9225 56.8006 18.6274 56.3211 18.6274 55.7853C18.6274 55.2494 18.9225 54.77 19.386 54.5303L64.2418 31.5166C64.6492 31.305 65.1128 31.305 65.5202 31.5166L110.376 54.5303C110.84 54.77 111.135 55.2494 111.135 55.7853C111.135 56.3211 110.84 56.8006 110.376 57.0403L90.8772 67.0383C90.6945 67.1511 90.4698 67.1934 90.245 67.1934ZM23.1088 55.7853L38.1123 63.4847V57.1672C38.1123 56.6596 38.3932 56.1801 38.8287 55.9404C46.78 51.5125 55.7849 49.1576 64.874 49.1576C73.9632 49.1576 82.9681 51.4984 90.9193 55.9404C91.3689 56.1942 91.6358 56.6596 91.6358 57.1672V63.4847L106.639 55.7853L64.8881 34.351L23.1088 55.7853Z" fill="white"/>
<path d="M90.2459 82.0148H39.5179C38.7453 82.0148 38.1131 81.3802 38.1131 80.6046V57.1679C38.1131 56.6602 38.3941 56.1808 38.8296 55.941C46.7808 51.5132 55.7857 49.1582 64.8749 49.1582C73.964 49.1582 82.9689 51.4991 90.9202 55.941C91.3697 56.1949 91.6366 56.6602 91.6366 57.1679V80.6046C91.6507 81.3802 91.0326 82.0148 90.2459 82.0148ZM40.9228 79.1945H88.8411V58.014C81.4939 54.0655 73.2195 51.9926 64.8889 51.9926C56.5443 51.9926 48.284 54.0796 40.9368 58.014V79.1945H40.9228ZM24.8095 87.2041H15.2567C14.8072 87.2041 14.3858 86.9926 14.1188 86.626C13.8519 86.2593 13.7817 85.794 13.9081 85.3709L18.6845 70.2682C18.8671 69.6759 19.415 69.2811 20.0191 69.2811C20.6232 69.2811 21.171 69.6759 21.3537 70.2682L26.13 85.3709C26.2705 85.794 26.1862 86.2734 25.9193 86.626C25.6524 86.9785 25.259 87.2041 24.8095 87.2041ZM17.1673 84.3838H22.8849L20.0331 75.3588L17.1673 84.3838Z" fill="white"/>
<path d="M20.0323 72.1157C19.2596 72.1157 18.6274 71.4811 18.6274 70.7056V55.7861C18.6274 55.0105 19.2596 54.376 20.0323 54.376C20.8049 54.376 21.4371 55.0105 21.4371 55.7861V70.7056C21.4371 71.4811 20.8049 72.1157 20.0323 72.1157Z" fill="white"/>
<path d="M121.979 105H3.01949C1.36181 105 0.0131836 103.646 0.0131836 101.982V3.01773C0.0131836 1.35375 1.36181 0 3.01949 0H121.993C123.651 0 125 1.35375 125 3.01773V101.968C125 103.646 123.637 105 121.979 105ZM3.01949 2.82031C2.90711 2.82031 2.82282 2.90492 2.82282 3.01773V101.968C2.82282 102.081 2.90711 102.166 3.01949 102.166H121.993C122.106 102.166 122.19 102.081 122.19 101.968V3.01773C122.19 2.90492 122.106 2.82031 121.993 2.82031H3.01949Z" fill="white"/>
<path d="M123.596 17.585H1.40482C0.632168 17.585 0 16.9504 0 16.1748C0 15.3992 0.632168 14.7646 1.40482 14.7646H123.582C124.354 14.7646 124.987 15.3992 124.987 16.1748C124.987 16.9504 124.368 17.585 123.596 17.585ZM90.2454 67.1941C89.9926 67.1941 89.7397 67.1236 89.5149 66.9826C89.0935 66.7288 88.8406 66.2775 88.8406 65.784V57.9999C81.4934 54.0515 73.2191 51.9786 64.8885 51.9786C56.5439 51.9786 48.2836 54.0656 40.9364 57.9999V65.784C40.9364 66.2775 40.6835 66.7288 40.2621 66.9826C39.8406 67.2365 39.3208 67.2646 38.8853 67.039L19.3865 57.041C18.9229 56.8013 18.6279 56.3219 18.6279 55.786C18.6279 55.2501 18.9229 54.7707 19.3865 54.531L64.2423 31.5173C64.6497 31.3057 65.1133 31.3057 65.5207 31.5173L110.376 54.531C110.84 54.7707 111.135 55.2501 111.135 55.786C111.135 56.3219 110.84 56.8013 110.376 57.041L90.8776 67.039C90.695 67.1518 90.4702 67.1941 90.2454 67.1941ZM23.1092 55.786L38.1127 63.4854V57.168C38.1127 56.6603 38.3936 56.1809 38.8291 55.9411C46.7804 51.5132 55.7853 49.1583 64.8745 49.1583C73.9636 49.1583 82.9685 51.4991 90.9198 55.9411C91.3693 56.195 91.6362 56.6603 91.6362 57.168V63.4854L106.64 55.786L64.8885 34.3517L23.1092 55.786Z" fill="white"/>
<path d="M90.2459 82.0148H39.5179C38.7453 82.0148 38.1131 81.3802 38.1131 80.6046V57.1679C38.1131 56.6602 38.3941 56.1808 38.8296 55.941C46.7808 51.5132 55.7857 49.1582 64.8749 49.1582C73.964 49.1582 82.9689 51.4991 90.9202 55.941C91.3697 56.1949 91.6366 56.6602 91.6366 57.1679V80.6046C91.6507 81.3802 91.0326 82.0148 90.2459 82.0148ZM40.9228 79.1945H88.8411V58.014C81.4939 54.0655 73.2195 51.9926 64.8889 51.9926C56.5443 51.9926 48.284 54.0796 40.9368 58.014V79.1945H40.9228ZM24.8095 87.2041H15.2567C14.8072 87.2041 14.3858 86.9926 14.1188 86.626C13.8519 86.2593 13.7817 85.794 13.9081 85.3709L18.6845 70.2682C18.8671 69.6759 19.415 69.2811 20.0191 69.2811C20.6232 69.2811 21.171 69.6759 21.3537 70.2682L26.13 85.3709C26.2705 85.794 26.1862 86.2734 25.9193 86.626C25.6524 86.9785 25.259 87.2041 24.8095 87.2041ZM17.1673 84.3838H22.8849L20.0331 75.3588L17.1673 84.3838Z" fill="white"/>
<path d="M20.0332 72.1154C19.2605 72.1154 18.6284 71.4809 18.6284 70.7053V55.7859C18.6284 55.0103 19.2605 54.3757 20.0332 54.3757C20.8058 54.3757 21.438 55.0103 21.438 55.7859V70.7053C21.438 71.4809 20.8058 72.1154 20.0332 72.1154ZM111.768 31.0236H109.52C108.747 31.0236 108.115 30.389 108.115 29.6134C108.115 28.8378 108.747 28.2033 109.52 28.2033H111.768C112.54 28.2033 113.173 28.8378 113.173 29.6134C113.173 30.389 112.54 31.0236 111.768 31.0236ZM100.81 31.0236H93.1539C92.3813 31.0236 91.7491 30.389 91.7491 29.6134C91.7491 28.8378 92.3813 28.2033 93.1539 28.2033H100.81C101.583 28.2033 102.215 28.8378 102.215 29.6134C102.215 30.389 101.583 31.0236 100.81 31.0236ZM18.3193 29.0071C17.5467 29.0071 16.9145 28.3725 16.9145 27.5969V24.4805C16.9145 23.7049 17.5467 23.0703 18.3193 23.0703C19.092 23.0703 19.7241 23.7049 19.7241 24.4805V27.5969C19.7241 28.3725 19.092 29.0071 18.3193 29.0071ZM18.3193 42.1638C17.5467 42.1638 16.9145 41.5292 16.9145 40.7536V37.6372C16.9145 36.8616 17.5467 36.227 18.3193 36.227C19.092 36.227 19.7241 36.8616 19.7241 37.6372V40.7536C19.7241 41.5292 19.092 42.1638 18.3193 42.1638ZM26.4251 34.0272H23.3205C22.5478 34.0272 21.9156 33.3926 21.9156 32.6171C21.9156 31.8415 22.5478 31.2069 23.3205 31.2069H26.4251C27.1978 31.2069 27.8299 31.8415 27.8299 32.6171C27.8299 33.3926 27.1978 34.0272 26.4251 34.0272ZM13.3322 34.0272H10.2276C9.45492 34.0272 8.82275 33.3926 8.82275 32.6171C8.82275 31.8415 9.45492 31.2069 10.2276 31.2069H13.3322C14.1049 31.2069 14.737 31.8415 14.737 32.6171C14.737 33.3926 14.1049 34.0272 13.3322 34.0272ZM107.525 93.2254C104.266 93.2254 101.611 90.5602 101.611 87.2887C101.611 84.0171 104.266 81.3519 107.525 81.3519C110.784 81.3519 113.439 84.0171 113.439 87.2887C113.439 90.5602 110.784 93.2254 107.525 93.2254ZM107.525 84.1864C105.811 84.1864 104.421 85.5824 104.421 87.3028C104.421 89.0232 105.811 90.4192 107.525 90.4192C109.239 90.4192 110.63 89.0232 110.63 87.3028C110.63 85.5824 109.239 84.1864 107.525 84.1864Z" fill="white"/>
</svg>
