<svg width="154" height="154" viewBox="0 0 154 154" fill="none" xmlns="http://www.w3.org/2000/svg">
<path d="M154 34.7742C154 15.5987 138.401 0 119.226 0H34.7742C15.5987 0 0 15.5987 0 34.7742C0 53.9497 15.5987 69.5484 34.7742 69.5484H41.5999C32.4642 78.7958 27.3226 91.1432 27.3226 104.323C27.3226 131.715 49.6079 154 77 154C104.392 154 126.677 131.715 126.677 104.323C126.677 91.1432 121.536 78.7958 112.4 69.5484H119.226C138.401 69.5484 154 53.9497 154 34.7742ZM99.3548 142.982C92.7701 146.807 85.1471 149.032 77 149.032C68.8529 149.032 61.2299 146.807 54.6452 142.982V136.613C54.6452 124.288 64.6725 114.258 77 114.258C89.3275 114.258 99.3548 124.288 99.3548 136.613V142.982ZM121.71 104.323C121.71 118.682 114.877 131.446 104.323 139.633V136.613C104.323 121.548 92.0647 109.29 77 109.29C61.9353 109.29 49.6774 121.548 49.6774 136.613V139.633C39.1235 131.446 32.2903 118.682 32.2903 104.323C32.2903 90.7234 38.3733 78.1028 48.9944 69.5484H62.981C57.904 73.6493 54.6452 79.9161 54.6452 86.9355C54.6452 99.2605 64.6725 109.29 77 109.29C89.3275 109.29 99.3548 99.2605 99.3548 86.9355C99.3548 79.9161 96.096 73.6493 91.019 69.5484H105.006C115.627 78.1028 121.71 90.7234 121.71 104.323ZM77 69.5484C86.5853 69.5484 94.3871 77.3477 94.3871 86.9355C94.3871 96.5232 86.5853 104.323 77 104.323C67.4147 104.323 59.6129 96.5232 59.6129 86.9355C59.6129 77.3477 67.4147 69.5484 77 69.5484ZM34.7742 64.5806C18.3384 64.5806 4.96774 51.21 4.96774 34.7742C4.96774 18.3384 18.3384 4.96774 34.7742 4.96774H119.226C135.662 4.96774 149.032 18.3384 149.032 34.7742C149.032 51.21 135.662 64.5806 119.226 64.5806H34.7742Z" fill="white"/>
<path d="M121.71 46.5354L135.535 53.8057L132.894 38.4082L144.084 27.504L128.622 25.2585L121.71 11.2495L114.797 25.2585L99.3548 27.5015L83.9125 25.2585L76.9999 11.2495L70.0873 25.2585L54.6451 27.5015L39.2029 25.2585L32.2902 11.2495L25.3776 25.2585L9.91553 27.504L21.1054 38.4082L18.465 53.8057L32.2902 46.5354L46.1155 53.8057L43.4751 38.4082L54.6451 27.5238L65.815 38.4106L63.1747 53.8082L76.9999 46.5354L90.8251 53.8057L88.1848 38.4082L99.3548 27.5238L110.525 38.4106L107.884 53.8082L121.71 46.5354ZM38.1373 36.6744L39.5183 44.7246L32.2902 40.9243L25.0622 44.7246L26.4432 36.6744L20.5937 30.9739L28.6762 29.7991L32.2902 22.4766L35.9043 29.7991L43.9868 30.9739L38.1373 36.6744ZM82.8494 36.6744L84.2305 44.7246L76.9999 40.9243L69.7719 44.7246L71.1529 36.6744L65.3034 30.9739L73.3859 29.7991L76.9999 22.4766L80.614 29.7991L88.6965 30.9739L82.8494 36.6744ZM110.016 30.9739L118.096 29.7991L121.71 22.4766L125.324 29.7991L133.406 30.9739L127.559 36.6744L128.94 44.7246L121.71 40.9243L114.482 44.7246L115.863 36.6744L110.016 30.9739Z" fill="white"/>
</svg>
