<svg width="133" height="271" viewBox="0 0 133 271" fill="none" xmlns="http://www.w3.org/2000/svg">
<g opacity="0.5">
<path d="M73.511 24.506L73.5045 24.5324C75.6929 15.61 70.2102 6.59159 61.2878 4.40318C52.3655 2.21478 43.3321 7.67283 41.1421 16.6018L41.1485 16.5754L73.5094 24.5126L73.511 24.506Z" fill="#FF0404"/>
<g clip-path="url(#clip0_1109_1581)">
<path fill-rule="evenodd" clip-rule="evenodd" d="M41.3524 138.455C41.6707 138.547 41.9393 138.762 42.0989 139.053C42.2585 139.344 42.2961 139.686 42.2036 140.004C39.44 149.505 29.4971 154.967 19.9959 152.204C10.4946 149.44 5.03257 139.497 7.79615 129.996C10.5597 120.495 20.5026 115.033 30.0038 117.796C30.3221 117.889 30.5907 118.104 30.7503 118.395C30.9099 118.685 30.9476 119.027 30.855 119.346C30.7624 119.664 30.5471 119.933 30.2566 120.092C29.966 120.252 29.6239 120.289 29.3056 120.197C26.3778 119.345 23.2632 119.381 20.3557 120.299C17.4482 121.218 14.8784 122.978 12.9712 125.357C11.064 127.736 9.90515 130.627 9.6411 133.665C9.37706 136.703 10.0197 139.75 11.4878 142.423C12.9559 145.095 15.1835 147.272 17.8889 148.679C20.5943 150.085 23.656 150.658 26.6868 150.324C29.7176 149.99 32.5814 148.766 34.9161 146.804C37.2508 144.843 38.9514 142.234 39.803 139.306C39.8956 138.987 40.1109 138.719 40.4014 138.559C40.692 138.4 41.0341 138.362 41.3524 138.455Z" fill="url(#paint0_linear_1109_1581)"/>
</g>
<path d="M108.4 236.025L108.419 236.005C102.115 242.687 102.436 253.236 109.118 259.541C115.801 265.845 126.351 265.553 132.66 258.865L132.641 258.885L108.405 236.02L108.4 236.025Z" fill="#EF16D9"/>
</g>
<defs>
<linearGradient id="paint0_linear_1109_1581" x1="42.2036" y1="140.004" x2="7.79615" y2="129.996" gradientUnits="userSpaceOnUse">
<stop stop-color="#A3A3FF"/>
<stop offset="1" stop-color="#1F1FFF"/>
</linearGradient>
<clipPath id="clip0_1109_1581">
<rect width="40" height="40" fill="white" transform="translate(49.79 121.382) rotate(106.218)"/>
</clipPath>
</defs>
</svg>
