<svg width="194" height="168" viewBox="0 0 194 168" fill="none" xmlns="http://www.w3.org/2000/svg">
<path d="M10.3942 8.11406C10.3942 6.04238 10.3942 3.62543 9.7013 1.55376C9.35482 -0.517918 5.5436 -0.517918 5.19712 1.55376C4.85065 3.62543 4.85065 5.6971 4.50417 7.76878V11.5668C4.50417 12.2574 4.50417 12.948 4.85065 13.6385L5.89007 14.6744C5.19712 14.3291 5.19712 13.9838 5.5436 14.6744C6.23655 16.0555 8.3154 16.0555 8.66187 14.6744V14.3291C9.35482 13.6385 9.35482 12.948 9.35482 11.9121C10.3942 10.8763 10.3942 9.49517 10.3942 8.11406ZM4.50417 36.4269C4.50417 35.3911 3.11827 35.3911 2.7718 36.4269C2.42532 42.642 0.69295 48.857 0.69295 55.072C0.69295 58.8701 6.58302 58.8701 6.58302 55.072C6.58302 48.857 5.19712 42.642 4.50417 36.4269ZM6.9295 76.134C7.27597 74.7529 5.19712 73.3718 4.1577 75.0982C2.7718 78.2057 1.73237 81.3132 1.3859 84.766C1.03942 87.8735 0.346475 90.981 1.73237 93.7432C2.42532 95.1238 4.50417 95.1238 5.19712 93.7432C6.58302 91.6716 6.23655 89.2541 6.23655 86.8377C6.23655 83.0396 6.58302 79.5868 6.9295 76.134ZM6.23655 123.437C4.85065 119.984 3.81122 116.877 3.46475 113.424C3.11827 111.352 0 111.352 0 113.424C0 116.532 0 119.639 0.346475 122.401C0.69295 125.509 1.3859 129.652 3.81122 131.723C4.85065 132.759 7.27597 132.414 7.62245 130.688C8.3154 127.926 7.27597 125.854 6.23655 123.437ZM27.3715 149.333C25.6391 147.953 22.8673 148.297 20.7885 147.607C18.0167 146.916 15.9378 145.19 14.8984 142.428C14.2055 140.701 11.4337 142.082 12.1266 143.463C13.166 146.916 15.2449 149.333 18.0167 151.06C20.7885 152.441 24.9462 154.167 27.718 152.095C28.4109 151.405 28.4109 150.024 27.3715 149.333ZM61.6725 153.131C57.5148 149.333 50.5853 150.369 45.3882 150.714C42.9629 150.714 42.9629 154.167 45.3882 154.512C47.8135 154.512 50.2389 154.857 52.6642 155.203C55.0895 155.549 57.8613 156.584 60.2866 156.239C61.6725 156.239 63.0584 154.512 61.6725 153.131ZM99.0913 152.441C93.2012 148.988 84.8864 150.024 78.6498 152.441C76.2245 153.477 77.2639 156.929 79.6892 156.238C85.9258 154.857 91.8159 156.238 98.0524 156.583C100.478 156.93 101.17 153.477 99.0913 152.441ZM134.086 150.714C128.543 148.988 122.305 150.024 116.762 150.369C113.99 150.369 113.99 154.513 116.762 154.513C122.305 154.858 128.889 155.893 134.086 154.168C136.165 153.822 136.165 151.405 134.086 150.714ZM167.001 149.333C164.575 146.917 161.457 147.953 158.339 148.297C154.874 148.643 151.409 149.333 147.945 150.369C145.519 151.405 146.212 155.203 148.984 154.513C152.448 153.477 155.914 153.132 159.378 153.132C162.15 153.132 164.575 153.822 166.654 151.751C167.693 151.405 167.693 150.024 167.001 149.333Z" fill="#F8BE30"/>
<path d="M191.254 146.916C183.285 144.844 177.741 138.284 170.119 135.176C167.348 134.14 165.962 138.284 168.04 140.01C173.238 143.463 177.741 148.297 183.285 151.75C181.207 153.476 179.128 155.202 176.702 156.929C174.277 158.656 170.465 159.346 168.733 161.763C167.693 163.144 167.348 165.215 168.733 166.597C175.316 172.466 188.483 158.31 192.64 153.821C195.066 151.405 194.027 147.607 191.254 146.916Z" fill="#F8BE30"/>
</svg>
