<svg width="40" height="40" viewBox="0 0 40 40" fill="none" xmlns="http://www.w3.org/2000/svg">
<path d="M36.3142 20.3188L23.3357 36.1421C21.6961 38.1412 18.7529 38.4319 16.7627 36.7995C16.0964 36.253 15.5936 35.5433 15.3092 34.7305L8.65299 16.0294C7.79976 13.5907 9.09577 10.9235 11.5271 10.0792C12.23 9.83829 12.9739 9.76481 13.7103 9.86353L33.3522 12.7325C35.9106 13.0921 37.6872 15.4558 37.3276 18.0143C37.215 18.8582 36.8607 19.6525 36.3142 20.3188ZM12.2038 14.7805L18.8599 33.4816C18.9639 33.7898 19.2393 34.0157 19.5545 34.0662C19.8787 34.124 20.2087 33.9934 20.4127 33.7447L33.3912 17.9214C33.7118 17.5304 33.6559 16.9644 33.265 16.6438C33.1317 16.5345 32.9782 16.468 32.8044 16.4444L13.1625 13.5754C12.8561 13.5322 12.5423 13.6612 12.3455 13.9011C12.1576 14.1482 12.1014 14.4885 12.2038 14.7805Z" fill="#DD5D00"/>
</svg>
