<svg width="169" height="170" viewBox="0 0 169 170" fill="none" xmlns="http://www.w3.org/2000/svg">
<path d="M159.945 8.85066C159.945 6.77181 159.945 4.34648 160.549 2.26763C160.851 0.188783 164.171 0.188783 164.473 2.26763C164.774 4.34648 164.774 6.42533 165.076 8.50418V12.3154C165.076 13.0084 165.076 13.7013 164.774 14.3943L163.869 15.4337C164.473 15.0872 164.473 14.7407 164.171 15.4337C163.567 16.8196 161.756 16.8196 161.454 15.4337V15.0872C160.851 14.3943 160.851 13.7013 160.851 12.6619C159.945 11.6225 159.945 10.2366 159.945 8.85066ZM165.076 37.2616C165.076 36.2222 166.284 36.2222 166.585 37.2616C166.887 43.4982 168.396 49.7347 168.396 55.9713C168.396 59.7825 163.265 59.7825 163.265 55.9713C163.265 49.7347 164.473 43.4982 165.076 37.2616ZM162.963 77.1063C162.662 75.7204 164.473 74.3344 165.378 76.0668C166.585 79.1851 167.491 82.3034 167.793 85.7681C168.095 88.8864 168.698 92.0047 167.491 94.7765C166.887 96.1618 165.076 96.1618 164.473 94.7765C163.265 92.6976 163.567 90.2717 163.567 87.847C163.567 84.0358 163.265 80.571 162.963 77.1063ZM163.567 124.573C164.774 121.109 165.68 117.99 165.982 114.526C166.284 112.447 169 112.447 169 114.526C169 117.644 169 120.762 168.698 123.534C168.396 126.652 167.793 130.81 165.68 132.888C164.774 133.928 162.662 133.582 162.36 131.849C161.756 129.078 162.662 126.999 163.567 124.573ZM145.156 150.559C146.665 149.174 149.079 149.52 150.89 148.827C153.305 148.134 155.116 146.401 156.021 143.629C156.625 141.897 159.04 143.283 158.436 144.669C157.531 148.134 155.72 150.558 153.305 152.291C150.89 153.677 147.269 155.41 144.854 153.331C144.25 152.638 144.25 151.252 145.156 150.559ZM115.275 154.37C118.897 150.559 124.933 151.598 129.461 151.945C131.574 151.945 131.574 155.41 129.461 155.756C127.348 155.756 125.235 156.102 123.122 156.449C121.01 156.796 118.595 157.835 116.482 157.488C115.275 157.488 114.068 155.756 115.275 154.37ZM82.6782 153.677C87.8092 150.212 95.0526 151.252 100.485 153.677C102.598 154.717 101.693 158.181 99.58 157.488C94.1471 156.102 89.016 157.488 83.5832 157.834C81.4704 158.182 80.8672 154.717 82.6782 153.677ZM52.1933 151.945C57.022 150.212 62.4558 151.252 67.2846 151.598C69.6992 151.598 69.6992 155.757 67.2846 155.757C62.4558 156.103 56.7206 157.142 52.1933 155.41C50.3823 155.063 50.3823 152.638 52.1933 151.945ZM23.5197 150.559C25.633 148.134 28.3495 149.174 31.0659 149.52C34.0837 149.866 37.1024 150.559 40.1202 151.598C42.2335 152.638 41.6298 156.449 39.2147 155.757C36.1969 154.717 33.1782 154.371 30.1604 154.371C27.7458 154.371 25.633 155.064 23.8221 152.985C22.9166 152.638 22.9166 151.252 23.5197 150.559Z" fill="#F8BE30"/>
<path d="M2.39203 148.134C9.33403 146.054 14.1637 139.471 20.8034 136.353C23.218 135.314 24.4253 139.471 22.6144 141.204C18.087 144.668 14.1638 149.519 9.33404 152.984C11.145 154.717 12.956 156.449 15.0692 158.181C17.1815 159.914 20.5021 160.606 22.0112 163.032C22.9167 164.417 23.218 166.496 22.0112 167.882C16.276 173.772 4.80664 159.567 1.18472 155.062C-0.928553 152.638 -0.0230751 148.827 2.39203 148.134Z" fill="#F8BE30"/>
</svg>
