<svg width="62" height="62" viewBox="0 0 62 62" fill="none" xmlns="http://www.w3.org/2000/svg">
<path d="M1.31093 4.0717C1.33035 3.07497 1.74492 2.12678 2.46345 1.43571C3.18198 0.744647 4.14561 0.36732 5.14234 0.386741C33.5918 0.94105 60.9711 29.4084 60.4168 57.8579C60.3973 58.8546 59.9828 59.8028 59.2642 60.4939C58.5457 61.185 57.5821 61.5623 56.5854 61.5429C55.5886 61.5234 54.6404 61.1089 53.9494 60.3903C53.2583 59.6718 52.881 58.7082 52.9004 57.7115C53.3719 33.5106 29.1967 8.37464 4.99589 7.90311C3.99916 7.88369 3.05096 7.46912 2.3599 6.75059C1.66883 6.03206 1.29151 5.06844 1.31093 4.0717Z" fill="#FF0404"/>
</svg>
