<svg width="45" height="46" viewBox="0 0 45 46" fill="none" xmlns="http://www.w3.org/2000/svg">
<mask id="path-1-inside-1_2728_4679" fill="white">
<path d="M42.3534 38.4918C42.3608 38.5842 42.35 38.6771 42.3214 38.7654C42.2929 38.8536 42.2473 38.9353 42.1873 39.0059C42.1272 39.0764 42.0538 39.1345 41.9712 39.1767C41.8887 39.2189 41.7987 39.2444 41.7063 39.2519L37.2584 39.6088C37.1565 39.6169 37.0541 39.6029 36.9581 39.5676C36.8622 39.5323 36.7751 39.4765 36.7028 39.4042C36.6306 39.332 36.5749 39.2448 36.5396 39.1489C36.5043 39.053 36.4902 38.9505 36.4984 38.8486L36.8553 34.4009C36.8618 34.3078 36.8867 34.2169 36.9286 34.1336C36.9704 34.0502 37.0284 33.9759 37.0991 33.9151C37.1698 33.8543 37.2519 33.8081 37.3406 33.7791C37.4293 33.7502 37.5229 33.7392 37.6158 33.7466C37.7088 33.7541 37.7994 33.7799 37.8824 33.8226C37.9653 33.8653 38.039 33.924 38.0991 33.9953C38.1593 34.0666 38.2046 34.1492 38.2327 34.2382C38.2607 34.3271 38.2708 34.4208 38.2624 34.5137L38.0618 37.0155C41.6297 33.1191 43.5882 28.088 43.5882 22.7856C43.5882 18.4634 42.2887 14.3083 39.8302 10.7693C39.7773 10.6932 39.7399 10.6074 39.7202 10.5168C39.7005 10.4262 39.6988 10.3326 39.7152 10.2414C39.7317 10.1502 39.7659 10.0631 39.816 9.98508C39.8661 9.90708 39.9311 9.83971 40.0072 9.78682C40.0833 9.73393 40.1691 9.69656 40.2597 9.67683C40.3503 9.6571 40.4439 9.6554 40.5351 9.67184C40.6263 9.68828 40.7135 9.72252 40.7915 9.77262C40.8694 9.82272 40.9368 9.88769 40.9897 9.96382C43.6132 13.7403 45 18.174 45 22.7856C45 28.4804 42.8824 33.8816 39.0277 38.0504L41.5934 37.8446C41.9824 37.8129 42.3222 38.1033 42.3534 38.4918ZM1.41176 22.7856C1.41176 17.4832 3.37032 12.4523 6.93829 8.55576L6.73756 11.0576C6.72259 11.2442 6.78236 11.4291 6.90372 11.5716C7.02508 11.7141 7.19809 11.8026 7.38468 11.8176C7.57127 11.8325 7.75616 11.7728 7.89868 11.6514C8.04121 11.53 8.12968 11.357 8.14465 11.1704L8.50147 6.72267C8.50964 6.62078 8.4956 6.51833 8.4603 6.4224C8.425 6.32647 8.36929 6.23935 8.29703 6.16706C8.22462 6.09498 8.1375 6.03939 8.04161 6.00411C7.94573 5.96882 7.84336 5.95467 7.7415 5.96262L3.29365 6.31953C3.10705 6.33451 2.93404 6.42301 2.81268 6.56554C2.69133 6.70808 2.63156 6.89298 2.64653 7.07959C2.67776 7.46817 3.01871 7.75847 3.40659 7.72679L5.97238 7.52094C2.11765 11.6897 0 17.0909 0 22.7856C0 27.3974 1.38679 31.8311 4.01038 35.6076C4.07537 35.7013 4.16212 35.7778 4.2632 35.8307C4.36428 35.8835 4.47666 35.911 4.59071 35.9108C4.71957 35.9107 4.84594 35.8753 4.95612 35.8084C5.0663 35.7416 5.15609 35.6459 5.21575 35.5317C5.27541 35.4174 5.30268 35.2891 5.2946 35.1605C5.28651 35.0319 5.24338 34.9079 5.16988 34.8021C2.71129 31.2632 1.41176 27.1079 1.41176 22.7856ZM10.4836 5.45553C14.0225 2.99694 18.1777 1.69741 22.5 1.69741C27.8023 1.69741 32.8333 3.65606 36.73 7.22394L34.2281 7.0232C33.8395 6.9917 33.4992 7.28182 33.4681 7.67041C33.4607 7.76281 33.4715 7.85576 33.5 7.94397C33.5285 8.03217 33.5741 8.1139 33.6342 8.18448C33.6943 8.25506 33.7677 8.31311 33.8502 8.35532C33.9328 8.39752 34.0228 8.42306 34.1152 8.43047L38.563 8.78729C38.6649 8.79547 38.7673 8.78141 38.8632 8.7461C38.9592 8.71079 39.0463 8.65506 39.1185 8.58277C39.1908 8.51048 39.2465 8.42336 39.2818 8.32743C39.3171 8.23149 39.3311 8.12903 39.3229 8.02714L38.966 3.57938C38.9595 3.48632 38.9346 3.39547 38.8927 3.3121C38.8509 3.22873 38.7929 3.15448 38.7222 3.09364C38.6515 3.03281 38.5694 2.98659 38.4807 2.95768C38.392 2.92876 38.2984 2.91771 38.2054 2.92517C38.1125 2.93262 38.0219 2.95844 37.9389 3.00112C37.856 3.04381 37.7823 3.10251 37.7222 3.17384C37.662 3.24517 37.6166 3.32771 37.5886 3.41669C37.5606 3.50567 37.5505 3.59932 37.5589 3.69223L37.7647 6.25794C33.5959 2.40329 28.1947 0.285645 22.5 0.285645C17.8884 0.285645 13.4546 1.67244 9.67818 4.29603C9.52751 4.40407 9.4254 4.56704 9.39389 4.74975C9.36238 4.93245 9.40401 5.12021 9.50977 5.27248C9.61554 5.42475 9.77697 5.5293 9.95917 5.56355C10.1414 5.5978 10.3297 5.559 10.4836 5.45553ZM34.5163 40.1159C30.9776 42.5744 26.8223 43.8739 22.5 43.8739C17.1976 43.8739 12.1666 41.9152 8.27003 38.3474L10.7719 38.5482C11.1601 38.5801 11.5009 38.2896 11.532 37.901C11.5394 37.8086 11.5286 37.7156 11.5001 37.6274C11.4716 37.5392 11.426 37.4575 11.3659 37.3869C11.3058 37.3163 11.2324 37.2583 11.1498 37.2161C11.0673 37.1739 10.9773 37.1483 10.8849 37.1409L6.43712 36.7841C6.33523 36.7759 6.23278 36.7899 6.13685 36.8252C6.04093 36.8605 5.95381 36.9163 5.88154 36.9885C5.80927 37.0608 5.75356 37.1479 5.71827 37.2439C5.68298 37.3398 5.66895 37.4423 5.67715 37.5441L6.03406 41.9919C6.04147 42.0843 6.067 42.1744 6.10921 42.2569C6.15142 42.3394 6.20947 42.4128 6.28005 42.4729C6.35062 42.533 6.43235 42.5786 6.52055 42.6072C6.60876 42.6357 6.70172 42.6465 6.79412 42.6391C6.98072 42.6241 7.15372 42.5356 7.27508 42.3931C7.39644 42.2506 7.4562 42.0657 7.44124 41.8791L7.23538 39.3134C11.4041 43.1681 16.8053 45.2856 22.5 45.2856C27.1117 45.2856 31.5454 43.8988 35.3218 41.2753C35.4756 41.1685 35.5806 41.005 35.6138 40.8208C35.647 40.6365 35.6056 40.4466 35.4988 40.2929C35.392 40.1391 35.2285 40.0341 35.0442 40.0009C34.86 39.9677 34.6701 40.009 34.5163 40.1159ZM36.926 22.7857C36.926 30.7402 30.4545 37.2118 22.5 37.2118C14.5455 37.2118 8.07388 30.7402 8.07388 22.7857C8.07388 14.8312 14.5454 8.3597 22.5 8.3597C30.4546 8.3597 36.926 14.8312 36.926 22.7857ZM35.5143 22.7857C35.5143 15.6096 29.6761 9.77147 22.5 9.77147C15.3239 9.77147 9.48573 15.6096 9.48573 22.7857C9.48573 29.9618 15.3238 35.8 22.5 35.8C29.6762 35.8 35.5143 29.9618 35.5143 22.7857ZM30.8336 29.6946C30.8336 29.8818 30.7593 30.0613 30.6269 30.1937C30.4945 30.3261 30.315 30.4004 30.1278 30.4004H14.8721C14.6849 30.4004 14.5054 30.3261 14.373 30.1937C14.2406 30.0613 14.1663 29.8818 14.1663 29.6946C14.1663 26.0914 16.465 23.0153 19.6729 21.8549C18.4616 20.9767 17.6715 19.5514 17.6715 17.9442C17.6715 15.2818 19.8375 13.1157 22.5 13.1157C25.1625 13.1157 27.3285 15.2818 27.3285 17.9442C27.3285 19.5514 26.5384 20.9767 25.3271 21.8549C28.5349 23.0153 30.8336 26.0914 30.8336 29.6946ZM22.4977 21.3609H22.5023C24.3852 21.3597 25.9168 19.8275 25.9168 17.9442C25.9168 16.0602 24.3841 14.5274 22.5001 14.5274C20.6161 14.5274 19.0834 16.0602 19.0834 17.9442C19.0833 19.8275 20.6149 21.3597 22.4977 21.3609ZM29.3861 28.9887C29.0314 25.5029 26.0794 22.7736 22.5017 22.7727H22.4981C18.9205 22.7736 15.9684 25.5029 15.6137 28.9887H29.3861Z"/>
</mask>
<path d="M42.3534 38.4918C42.3608 38.5842 42.35 38.6771 42.3214 38.7654C42.2929 38.8536 42.2473 38.9353 42.1873 39.0059C42.1272 39.0764 42.0538 39.1345 41.9712 39.1767C41.8887 39.2189 41.7987 39.2444 41.7063 39.2519L37.2584 39.6088C37.1565 39.6169 37.0541 39.6029 36.9581 39.5676C36.8622 39.5323 36.7751 39.4765 36.7028 39.4042C36.6306 39.332 36.5749 39.2448 36.5396 39.1489C36.5043 39.053 36.4902 38.9505 36.4984 38.8486L36.8553 34.4009C36.8618 34.3078 36.8867 34.2169 36.9286 34.1336C36.9704 34.0502 37.0284 33.9759 37.0991 33.9151C37.1698 33.8543 37.2519 33.8081 37.3406 33.7791C37.4293 33.7502 37.5229 33.7392 37.6158 33.7466C37.7088 33.7541 37.7994 33.7799 37.8824 33.8226C37.9653 33.8653 38.039 33.924 38.0991 33.9953C38.1593 34.0666 38.2046 34.1492 38.2327 34.2382C38.2607 34.3271 38.2708 34.4208 38.2624 34.5137L38.0618 37.0155C41.6297 33.1191 43.5882 28.088 43.5882 22.7856C43.5882 18.4634 42.2887 14.3083 39.8302 10.7693C39.7773 10.6932 39.7399 10.6074 39.7202 10.5168C39.7005 10.4262 39.6988 10.3326 39.7152 10.2414C39.7317 10.1502 39.7659 10.0631 39.816 9.98508C39.8661 9.90708 39.9311 9.83971 40.0072 9.78682C40.0833 9.73393 40.1691 9.69656 40.2597 9.67683C40.3503 9.6571 40.4439 9.6554 40.5351 9.67184C40.6263 9.68828 40.7135 9.72252 40.7915 9.77262C40.8694 9.82272 40.9368 9.88769 40.9897 9.96382C43.6132 13.7403 45 18.174 45 22.7856C45 28.4804 42.8824 33.8816 39.0277 38.0504L41.5934 37.8446C41.9824 37.8129 42.3222 38.1033 42.3534 38.4918ZM1.41176 22.7856C1.41176 17.4832 3.37032 12.4523 6.93829 8.55576L6.73756 11.0576C6.72259 11.2442 6.78236 11.4291 6.90372 11.5716C7.02508 11.7141 7.19809 11.8026 7.38468 11.8176C7.57127 11.8325 7.75616 11.7728 7.89868 11.6514C8.04121 11.53 8.12968 11.357 8.14465 11.1704L8.50147 6.72267C8.50964 6.62078 8.4956 6.51833 8.4603 6.4224C8.425 6.32647 8.36929 6.23935 8.29703 6.16706C8.22462 6.09498 8.1375 6.03939 8.04161 6.00411C7.94573 5.96882 7.84336 5.95467 7.7415 5.96262L3.29365 6.31953C3.10705 6.33451 2.93404 6.42301 2.81268 6.56554C2.69133 6.70808 2.63156 6.89298 2.64653 7.07959C2.67776 7.46817 3.01871 7.75847 3.40659 7.72679L5.97238 7.52094C2.11765 11.6897 0 17.0909 0 22.7856C0 27.3974 1.38679 31.8311 4.01038 35.6076C4.07537 35.7013 4.16212 35.7778 4.2632 35.8307C4.36428 35.8835 4.47666 35.911 4.59071 35.9108C4.71957 35.9107 4.84594 35.8753 4.95612 35.8084C5.0663 35.7416 5.15609 35.6459 5.21575 35.5317C5.27541 35.4174 5.30268 35.2891 5.2946 35.1605C5.28651 35.0319 5.24338 34.9079 5.16988 34.8021C2.71129 31.2632 1.41176 27.1079 1.41176 22.7856ZM10.4836 5.45553C14.0225 2.99694 18.1777 1.69741 22.5 1.69741C27.8023 1.69741 32.8333 3.65606 36.73 7.22394L34.2281 7.0232C33.8395 6.9917 33.4992 7.28182 33.4681 7.67041C33.4607 7.76281 33.4715 7.85576 33.5 7.94397C33.5285 8.03217 33.5741 8.1139 33.6342 8.18448C33.6943 8.25506 33.7677 8.31311 33.8502 8.35532C33.9328 8.39752 34.0228 8.42306 34.1152 8.43047L38.563 8.78729C38.6649 8.79547 38.7673 8.78141 38.8632 8.7461C38.9592 8.71079 39.0463 8.65506 39.1185 8.58277C39.1908 8.51048 39.2465 8.42336 39.2818 8.32743C39.3171 8.23149 39.3311 8.12903 39.3229 8.02714L38.966 3.57938C38.9595 3.48632 38.9346 3.39547 38.8927 3.3121C38.8509 3.22873 38.7929 3.15448 38.7222 3.09364C38.6515 3.03281 38.5694 2.98659 38.4807 2.95768C38.392 2.92876 38.2984 2.91771 38.2054 2.92517C38.1125 2.93262 38.0219 2.95844 37.9389 3.00112C37.856 3.04381 37.7823 3.10251 37.7222 3.17384C37.662 3.24517 37.6166 3.32771 37.5886 3.41669C37.5606 3.50567 37.5505 3.59932 37.5589 3.69223L37.7647 6.25794C33.5959 2.40329 28.1947 0.285645 22.5 0.285645C17.8884 0.285645 13.4546 1.67244 9.67818 4.29603C9.52751 4.40407 9.4254 4.56704 9.39389 4.74975C9.36238 4.93245 9.40401 5.12021 9.50977 5.27248C9.61554 5.42475 9.77697 5.5293 9.95917 5.56355C10.1414 5.5978 10.3297 5.559 10.4836 5.45553ZM34.5163 40.1159C30.9776 42.5744 26.8223 43.8739 22.5 43.8739C17.1976 43.8739 12.1666 41.9152 8.27003 38.3474L10.7719 38.5482C11.1601 38.5801 11.5009 38.2896 11.532 37.901C11.5394 37.8086 11.5286 37.7156 11.5001 37.6274C11.4716 37.5392 11.426 37.4575 11.3659 37.3869C11.3058 37.3163 11.2324 37.2583 11.1498 37.2161C11.0673 37.1739 10.9773 37.1483 10.8849 37.1409L6.43712 36.7841C6.33523 36.7759 6.23278 36.7899 6.13685 36.8252C6.04093 36.8605 5.95381 36.9163 5.88154 36.9885C5.80927 37.0608 5.75356 37.1479 5.71827 37.2439C5.68298 37.3398 5.66895 37.4423 5.67715 37.5441L6.03406 41.9919C6.04147 42.0843 6.067 42.1744 6.10921 42.2569C6.15142 42.3394 6.20947 42.4128 6.28005 42.4729C6.35062 42.533 6.43235 42.5786 6.52055 42.6072C6.60876 42.6357 6.70172 42.6465 6.79412 42.6391C6.98072 42.6241 7.15372 42.5356 7.27508 42.3931C7.39644 42.2506 7.4562 42.0657 7.44124 41.8791L7.23538 39.3134C11.4041 43.1681 16.8053 45.2856 22.5 45.2856C27.1117 45.2856 31.5454 43.8988 35.3218 41.2753C35.4756 41.1685 35.5806 41.005 35.6138 40.8208C35.647 40.6365 35.6056 40.4466 35.4988 40.2929C35.392 40.1391 35.2285 40.0341 35.0442 40.0009C34.86 39.9677 34.6701 40.009 34.5163 40.1159ZM36.926 22.7857C36.926 30.7402 30.4545 37.2118 22.5 37.2118C14.5455 37.2118 8.07388 30.7402 8.07388 22.7857C8.07388 14.8312 14.5454 8.3597 22.5 8.3597C30.4546 8.3597 36.926 14.8312 36.926 22.7857ZM35.5143 22.7857C35.5143 15.6096 29.6761 9.77147 22.5 9.77147C15.3239 9.77147 9.48573 15.6096 9.48573 22.7857C9.48573 29.9618 15.3238 35.8 22.5 35.8C29.6762 35.8 35.5143 29.9618 35.5143 22.7857ZM30.8336 29.6946C30.8336 29.8818 30.7593 30.0613 30.6269 30.1937C30.4945 30.3261 30.315 30.4004 30.1278 30.4004H14.8721C14.6849 30.4004 14.5054 30.3261 14.373 30.1937C14.2406 30.0613 14.1663 29.8818 14.1663 29.6946C14.1663 26.0914 16.465 23.0153 19.6729 21.8549C18.4616 20.9767 17.6715 19.5514 17.6715 17.9442C17.6715 15.2818 19.8375 13.1157 22.5 13.1157C25.1625 13.1157 27.3285 15.2818 27.3285 17.9442C27.3285 19.5514 26.5384 20.9767 25.3271 21.8549C28.5349 23.0153 30.8336 26.0914 30.8336 29.6946ZM22.4977 21.3609H22.5023C24.3852 21.3597 25.9168 19.8275 25.9168 17.9442C25.9168 16.0602 24.3841 14.5274 22.5001 14.5274C20.6161 14.5274 19.0834 16.0602 19.0834 17.9442C19.0833 19.8275 20.6149 21.3597 22.4977 21.3609ZM29.3861 28.9887C29.0314 25.5029 26.0794 22.7736 22.5017 22.7727H22.4981C18.9205 22.7736 15.9684 25.5029 15.6137 28.9887H29.3861Z" fill="black" stroke="#7A7A7A" stroke-width="2" mask="url(#path-1-inside-1_2728_4679)"/>
</svg>
