<svg width="38" height="38" viewBox="0 0 38 38" fill="none" xmlns="http://www.w3.org/2000/svg">
<path d="M29.927 8.36097L29.9981 8.30563C30.2255 8.72915 30.3436 9.20013 30.3436 9.69329C30.3436 10.3774 30.109 11.0069 29.7156 11.5083L29.4648 11.8278L29.7262 12.1387C31.2071 13.9001 32.4836 15.7448 33.52 17.6035L33.9961 18.4573L34.4098 17.5716C35.0079 16.2908 35.4903 15.0052 35.8423 13.7334C37.0939 9.21337 36.5748 5.32537 34.1696 2.92026C31.7645 0.515084 27.8766 -0.00404407 23.3566 1.24749L29.927 8.36097ZM29.927 8.36097C30.1427 8.7689 30.2552 9.2225 30.2552 9.69329C30.2552 11.2702 28.9731 12.5519 27.3966 12.5519C25.8201 12.5519 24.538 11.2702 24.538 9.69329C24.538 8.11657 25.8198 6.83491 27.3962 6.83466C27.3963 6.83466 27.3965 6.83466 27.3966 6.83466V7.33466L29.927 8.36097ZM18.4468 3.09099L17.5943 3.56646C14.8345 5.1056 12.1216 7.17021 9.64338 9.64815C9.64338 9.64816 9.64337 9.64816 9.64336 9.64817M18.4468 3.09099L9.64336 9.64817M18.4468 3.09099L17.5628 2.67697C11.7717 -0.0351663 6.09379 -0.25802 2.91544 2.92031L18.4468 3.09099ZM9.64336 9.64817C7.80613 11.4854 6.19087 13.4571 4.83524 15.513L4.63238 15.8207L4.27845 15.718C4.00844 15.6396 3.72869 15.5999 3.44754 15.6H3.44712C3.10529 15.5998 2.76605 15.6593 2.44468 15.7758L1.97645 15.9455L1.80489 15.478C-0.107716 10.2652 0.182899 5.65255 2.91542 2.92033L9.64336 9.64817ZM9.78635 36.4984H9.28635C6.72953 36.4984 4.49465 35.7535 2.91517 34.1744L2.91513 34.1744C0.182847 31.4421 -0.108096 26.8297 1.80483 21.6167L1.97639 21.1492L2.44459 21.3189C3.03329 21.5323 3.67474 21.552 4.27544 21.3753L4.63042 21.2708L4.83406 21.5798C6.18965 23.6364 7.80546 25.6087 9.64329 27.4465C9.6433 27.4465 9.6433 27.4465 9.64331 27.4465M9.78635 36.4984L9.28976 27.8001L9.64331 27.4465M9.78635 36.4984V36.4891M9.78635 36.4984V36.4891M9.64331 27.4465C12.1207 29.9236 14.8328 31.9876 17.5917 33.5268L18.4444 34.0024L17.5601 34.4163C14.8264 35.6957 12.1666 36.4017 9.78635 36.4891M9.64331 27.4465L9.78635 36.4891M23.4828 35.3906L23.3564 35.8473C22.0853 35.4954 20.801 35.0135 19.521 34.4159L18.6365 34.003L19.4884 33.5265C20.0629 33.2052 20.6276 32.8667 21.1817 32.5115L21.524 32.2921L21.8086 32.5825C22.3453 33.13 23.09 33.4691 23.9129 33.4691C25.5375 33.4691 26.8602 32.1466 26.8602 30.522V30.5216C26.8608 29.9766 26.7091 29.4423 26.4224 28.9789L26.2069 28.6305L26.5061 28.3506C26.8228 28.0545 27.1346 27.7531 27.4414 27.4465C27.4414 27.4465 27.4415 27.4464 27.4415 27.4464M23.4828 35.3906L27.7949 27.8001L27.4415 27.4464M23.4828 35.3906L23.3564 35.8473M23.4828 35.3906L23.3564 35.8473M27.4415 27.4464C29.9196 24.9679 31.9839 22.2551 33.5233 19.4952L33.9988 18.6427L34.4128 19.5267C37.1249 25.3182 37.3478 30.996 34.1695 34.1743L27.4415 27.4464ZM23.3564 35.8473C27.8763 37.0985 31.7644 36.5798 34.1695 34.1743L23.3564 35.8473ZM34.1411 18.3277L34.0286 18.552L34.1412 18.7762C35.0971 20.6806 35.7924 22.5799 36.1917 24.401C37.1208 28.6405 36.3715 32.0981 34.2323 34.237L34.2322 34.237C32.6872 35.782 30.5009 36.5947 27.8278 36.5947C26.4473 36.5947 24.9399 36.3775 23.3329 35.9324L23.3328 35.9324C21.8277 35.5159 20.2949 34.9144 18.7658 34.1476L18.5414 34.035L18.3171 34.1479C15.7736 35.4269 13.2692 36.2222 10.9417 36.4907C10.3606 36.5577 9.79901 36.5907 9.25817 36.5907C6.56598 36.5907 4.38952 35.774 2.85283 34.2371L2.85281 34.2371C1.47717 32.8615 0.65915 30.9094 0.521535 28.5596C0.397637 26.4417 0.826633 23.9831 1.78183 21.4268L1.90934 21.0855L1.62359 20.8596C0.938457 20.3178 0.500001 19.4827 0.500001 18.5473C0.500001 17.612 0.938454 16.7769 1.62365 16.2351L1.90942 16.0091L1.7819 15.6679C0.826709 13.1115 0.397778 10.6532 0.521608 8.53508L0.521609 8.53507C0.658942 6.18526 1.47723 4.23317 2.8528 2.85766L2.85284 2.85762C4.99179 0.718332 8.44938 -0.0309834 12.6886 0.898093C14.51 1.29744 16.4092 1.99274 18.3137 2.94858L18.5379 3.0611L18.7621 2.94866C20.2925 2.18121 21.8264 1.579 23.3328 1.16219L23.3329 1.16216C28.0682 -0.149095 31.8958 0.52104 34.2322 2.85764L34.2323 2.85768C36.5691 5.19412 37.2389 9.02163 35.9277 13.757L35.9276 13.7571C35.5107 15.2635 34.9088 16.7974 34.1411 18.3277ZM28.4489 6.93985L28.403 7.01713L23.3565 1.24751C22.0845 1.59946 20.7991 2.08204 19.5184 2.67973L18.6324 3.09322L19.4863 3.56949C21.3451 4.60628 23.1897 5.88269 24.9514 7.36362L25.2624 7.62501L25.5819 7.37419C26.0831 6.98073 26.7126 6.74595 27.3965 6.74595H27.3967C27.7578 6.74581 28.1143 6.81203 28.4489 6.93985ZM18.3069 33.8137L18.5396 33.936L18.7722 33.8136C19.5416 33.4087 20.3157 32.959 21.0898 32.465L21.4678 32.2237L21.2689 31.8218C21.069 31.4178 20.9652 30.973 20.9656 30.5222V30.5216C20.9655 30.1606 21.0317 29.8042 21.1595 29.4696L21.2367 29.5155C21.1165 29.8357 21.0543 30.1766 21.0543 30.5217C21.0543 32.0986 22.3364 33.3804 23.913 33.3804C25.4895 33.3804 26.7715 32.0986 26.7715 30.5217C26.7715 28.9452 25.4895 27.6632 23.913 27.6632H23.9127C23.4421 27.6634 22.9886 27.7759 22.5809 27.9915L22.5254 27.9202C22.949 27.6929 23.42 27.5747 23.913 27.5747C24.6364 27.5747 25.2988 27.8368 25.8133 28.2721L26.1533 28.5597L26.4782 28.2552C26.783 27.9695 27.0849 27.6777 27.3789 27.384L27.3791 27.3838C30.0478 24.7144 32.2402 21.7698 33.8102 18.7801L33.9324 18.5473L33.8099 18.3147C32.7388 16.28 31.3603 14.2251 29.6937 12.2373L29.4051 11.8932L29.0321 12.1433C28.5636 12.4574 28.0018 12.6404 27.3965 12.6404C25.7719 12.6404 24.4492 11.3178 24.4492 9.69337V9.69277C24.4485 9.11059 24.6215 8.54144 24.9461 8.05814L25.1967 7.68501L24.8523 7.39622C22.8646 5.7296 20.8099 4.35087 18.7749 3.27968L18.5423 3.15724L18.3095 3.27945C15.3198 4.84938 12.3751 7.04182 9.70606 9.71083C7.91359 11.5033 6.33075 13.4263 4.99442 15.4334L4.72247 15.8418L5.12574 16.1214C5.39073 16.3051 5.62641 16.5331 5.82166 16.7994L5.74126 16.8397C5.20756 16.1204 4.3652 15.6887 3.44734 15.6887C1.87083 15.6887 0.588714 16.9704 0.588714 18.5473C0.588714 20.1242 1.87073 21.406 3.44727 21.406C4.9406 21.406 6.16978 20.2559 6.29534 18.7943L6.38473 18.7864C6.31194 19.6888 5.83028 20.4785 5.12305 20.9696L4.72039 21.2492L4.99195 21.6573C6.32862 23.6661 7.91237 25.59 9.70598 27.3837L9.706 27.3838C12.3744 30.052 15.318 32.2438 18.3069 33.8137Z" stroke="#7A7A7A"/>
<path d="M24.0661 19.8574L24.0661 19.8573L24.0661 19.8574ZM24.0661 19.8574L23.6591 19.7425L24.0661 19.8574ZM25.8443 24.1717V24.6717H26.3443H26.969L26.969 24.7601H17.8086V24.6717H22.2076H22.7076V24.1717V23.1839H22.796V24.1717V24.6717H23.296H25.2556H25.7556V24.1717V21.429C25.7556 20.5029 25.1515 19.6802 24.2756 19.3985L24.2997 19.313C25.2121 19.6054 25.8443 20.4657 25.8443 21.429V24.1717Z" stroke="#7A7A7A"/>
<path d="M20.4786 18.3262L20.1817 18.2424L19.9737 18.4702C19.6095 18.8687 19.0954 19.0998 18.5426 19.0998C17.9898 19.0998 17.4759 18.869 17.1113 18.4703L16.9033 18.2428L16.6066 18.3265L12.8834 19.3764L12.8833 19.3765C11.9678 19.6348 11.3296 20.4773 11.3296 21.4292V24.1719V24.6719H11.8296H13.7891H14.2891V24.1719V23.1841H14.3776V24.1719V24.6719H14.8776H15.7202V24.7603H10.1162V24.6719H10.7409H11.2409V24.1719V21.4292C11.2409 20.4401 11.9074 19.5595 12.8594 19.2909L16.5373 18.2537L16.9016 18.151V17.7725V16.3269V16.0627L16.6834 15.9138C15.8068 15.3159 15.2325 14.3117 15.2325 13.1769V11.5802C15.2325 9.75555 16.7179 8.27002 18.5426 8.27002C20.3675 8.27002 21.8528 9.75554 21.8528 11.5801V13.1769C21.8528 14.3118 21.2784 15.3159 20.4018 15.9138L20.1835 16.0627V16.3269V17.7725V18.151L20.5478 18.2537L22.2902 18.7451L22.266 18.8306L20.4786 18.3262ZM20.8652 12.4882L21.764 13.6772V12.1867V11.5805C21.764 9.80357 20.3193 8.35873 18.5426 8.35873C17.141 8.35873 15.9486 9.25749 15.5058 10.5061L15.2693 11.1732H15.9771H19.871L20.8652 12.4882ZM15.8212 11.2619H15.3212V11.7619V13.1769C15.3212 14.9536 16.766 16.3984 18.5426 16.3984C20.0359 16.3984 21.2925 15.3783 21.6571 13.9999L21.7194 13.7646L21.5726 13.5705L19.977 11.4603L19.8269 11.2619H19.5782H15.8212ZM16.9904 18.0087V18.1853L17.1013 18.3227C17.4513 18.7566 17.9776 19.0111 18.5426 19.0111C19.1078 19.0111 19.6336 18.7565 19.9838 18.3229L20.0948 18.1854V18.0087V16.8379V16.1728L19.4559 16.3576C18.8593 16.5302 18.226 16.5302 17.6293 16.3576L16.9904 16.1728V16.8379V18.0087Z" stroke="#7A7A7A"/>
<path d="M21.0959 20.6702L21.0718 20.7555L20.5011 20.5945L20.5251 20.5093L21.0959 20.6702ZM23.1048 21.2351L23.1901 21.2592L23.166 21.3445L23.0808 21.3204L23.1048 21.2351ZM27.3524 9.73771L27.3523 9.64893H27.4407V9.73771H27.3524ZM23.8687 30.4777H23.9572V30.5661H23.8687V30.4777ZM3.40283 18.5029H3.49162V18.5914H3.40283V18.5029Z" stroke="#7A7A7A"/>
</svg>
