<svg width="47" height="42" viewBox="0 0 47 42" fill="none" xmlns="http://www.w3.org/2000/svg">
<path d="M46 12.9452C45.685 7.78887 42.1424 3.17502 36.8812 1.74234C30.2758 -0.0563871 23.4629 3.84012 21.6642 10.4455C20.884 13.3105 21.1758 16.2143 22.2949 18.7314H22.2948L20.0785 23.2837H25.7551C27.1065 24.3891 28.6824 25.2038 30.3672 25.6626C35.6375 27.0978 41.0397 24.9072 43.9219 20.608M38.5229 8.05855L28.8533 19.554M10.4939 3.66597L3.46875 11.8677H7.3335V23.3975H13.6542V11.8677H17.519L10.4939 3.66597Z" stroke="#7A7A7A" stroke-width="1.5" stroke-miterlimit="10" stroke-linecap="round" stroke-linejoin="round"/>
<path d="M29.973 12.4474C31.2842 12.4474 32.3472 11.3942 32.3472 10.095C32.3472 8.79586 31.2842 7.74268 29.973 7.74268C28.6618 7.74268 27.5989 8.79586 27.5989 10.095C27.5989 11.3942 28.6618 12.4474 29.973 12.4474Z" stroke="#7A7A7A" stroke-width="1.5" stroke-miterlimit="10" stroke-linecap="round" stroke-linejoin="round"/>
<path d="M37.2295 19.9113C38.5407 19.9113 39.6036 18.8581 39.6036 17.5589C39.6036 16.2597 38.5407 15.2065 37.2295 15.2065C35.9183 15.2065 34.8553 16.2597 34.8553 17.5589C34.8553 18.8581 35.9183 19.9113 37.2295 19.9113Z" stroke="#7A7A7A" stroke-width="1.5" stroke-miterlimit="10" stroke-linecap="round" stroke-linejoin="round"/>
<path d="M11.3528 40.6959H2.37595C1.61605 40.6959 1 40.0799 1 39.32V37.7827C1 37.0228 1.61605 36.4067 2.37595 36.4067H11.3529C12.1128 36.4067 12.7289 37.0228 12.7289 37.7827V39.32C12.7288 40.08 12.1127 40.6959 11.3528 40.6959Z" stroke="#7A7A7A" stroke-width="1.5" stroke-miterlimit="10" stroke-linecap="round" stroke-linejoin="round"/>
<path d="M23.023 40.6959H14.1046C13.3447 40.6959 12.7286 40.0799 12.7286 39.32V37.7827C12.7286 37.0228 13.3447 36.4067 14.1046 36.4067H23.023C23.7829 36.4067 24.3989 37.0228 24.3989 37.7827V39.32C24.3989 40.08 23.7829 40.6959 23.023 40.6959Z" stroke="#7A7A7A" stroke-width="1.5" stroke-miterlimit="10" stroke-linecap="round" stroke-linejoin="round"/>
<path d="M34.6932 40.6964H25.7748C25.0149 40.6964 24.3989 40.0804 24.3989 39.3205V37.7832C24.3989 37.0233 25.0149 36.4072 25.7748 36.4072H34.6932C35.4531 36.4072 36.0692 37.0233 36.0692 37.7832V39.3205C36.0691 40.0805 35.4531 40.6964 34.6932 40.6964ZM11.3528 36.4073H2.37595C1.61605 36.4073 1 35.7913 1 35.0314V33.4941C1 32.7342 1.61605 32.1182 2.37595 32.1182H11.3529C12.1128 32.1182 12.7289 32.7342 12.7289 33.4941V35.0314C12.7288 35.7914 12.1127 36.4073 11.3528 36.4073Z" stroke="#7A7A7A" stroke-width="1.5" stroke-miterlimit="10" stroke-linecap="round" stroke-linejoin="round"/>
<path d="M23.023 36.4073H14.1046C13.3447 36.4073 12.7286 35.7913 12.7286 35.0314V33.4941C12.7286 32.7342 13.3447 32.1182 14.1046 32.1182H23.023C23.7829 32.1182 24.3989 32.7342 24.3989 33.4941V35.0314C24.3989 35.7914 23.7829 36.4073 23.023 36.4073Z" stroke="#7A7A7A" stroke-width="1.5" stroke-miterlimit="10" stroke-linecap="round" stroke-linejoin="round"/>
<path d="M23.023 32.1178H14.1046C13.3447 32.1178 12.7286 31.5017 12.7286 30.7418V29.2046C12.7286 28.4447 13.3447 27.8286 14.1046 27.8286H23.023C23.7829 27.8286 24.3989 28.4447 24.3989 29.2046V30.7418C24.3989 31.5018 23.7829 32.1178 23.023 32.1178Z" stroke="#7A7A7A" stroke-width="1.5" stroke-miterlimit="10" stroke-linecap="round" stroke-linejoin="round"/>
</svg>
