<svg width="49" height="45" viewBox="0 0 49 45" fill="none" xmlns="http://www.w3.org/2000/svg">
<path d="M48.2344 13.3594V0.703125H34.4531V7.03125H31.3906V0.703125H17.6094V7.03125H14.5469V0.703125H0.765625V13.3594H14.5469V8.4375H17.6094V12.5135C14.9113 13.5766 13.0156 16.0397 13.0156 18.9028C13.0209 19.8153 13.2209 20.7181 13.6044 21.5599C13.2229 22.0363 13.0167 22.6118 13.0156 23.2031C13.0156 24.7542 14.3892 26.0156 16.0781 26.0156H16.3461C16.5642 26.5785 16.9095 27.0927 17.3593 27.5243C17.8091 27.956 18.3533 28.2954 18.9561 28.5202L18.5725 29.577C12.41 30.2196 7.65625 35.0641 7.65625 40.8066V44.2969H32.1562V35.1352C37.2063 34.8504 41.516 31.7609 43.0212 27.2679L43.574 25.617L44.6482 24.1376C44.9903 23.6675 45.1726 23.1146 45.1719 22.5492C45.1719 21.5051 44.5532 20.5987 43.6406 20.0988V16.875C43.6406 15.712 42.6101 14.7656 41.3438 14.7656C40.0774 14.7656 39.0469 15.712 39.0469 16.875V19.0259C37.7468 19.2227 36.75 20.2542 36.75 21.5023C36.75 21.773 36.7975 22.0409 36.8916 22.2989L37.4697 23.8922C36.8202 25.5445 35.6316 26.9726 34.0659 27.9818C32.5002 28.9909 30.6337 29.532 28.7209 29.5312H25.8176L25.4501 28.5202C26.053 28.2954 26.5972 27.9561 27.047 27.5244C27.4969 27.0928 27.8422 26.5786 28.0602 26.0156H28.3281C30.0171 26.0156 31.3906 24.7542 31.3906 23.2031C31.3906 22.5879 31.1686 22.0226 30.8019 21.5592C31.1856 20.7177 31.3856 19.8151 31.3906 18.9028C31.3906 16.638 30.1993 14.6292 28.3687 13.3594H31.3906V8.4375H34.4531V13.3594H48.2344ZM13.0156 11.9531H2.29688V2.10938H13.0156V11.9531ZM14.5469 23.2031C14.5469 22.4276 15.2336 21.7969 16.0781 21.7969V24.6094C15.2336 24.6094 14.5469 23.9787 14.5469 23.2031ZM25.5834 30.9375H25.6722L24.9517 33.9159L23.7887 33.4891L23.7826 33.5032L23.2857 33.0469L25.5834 30.9375ZM23.164 34.9235L22.4504 36.5625H21.9558L21.2423 34.9235L22.2031 34.0411L23.164 34.9235ZM22.0515 37.9688H22.354L23.5453 42.8906H20.861L22.0515 37.9688ZM20.6236 33.5032L20.6175 33.4891L19.4545 33.9159L18.7448 30.9853C18.7838 30.9811 18.8221 30.9762 18.8612 30.9727L21.1205 33.0469L20.6236 33.5032ZM9.1875 40.8066C9.1875 36.2588 12.5945 32.3578 17.2373 31.2363L18.6958 37.2621L20.064 36.0056L20.6382 37.3247L19.2922 42.8906H13.7812V35.8594H12.25V42.8906H9.1875V40.8066ZM41.3438 16.1719C41.5468 16.1719 41.7415 16.246 41.8851 16.3778C42.0287 16.5097 42.1094 16.6885 42.1094 16.875V19.4365C41.7364 19.1462 41.2638 18.9861 40.7749 18.9844H40.5781V16.875C40.5781 16.6885 40.6588 16.5097 40.8024 16.3778C40.946 16.246 41.1407 16.1719 41.3438 16.1719ZM39.4917 20.3906H40.7749C40.9104 20.3902 41.0416 20.4342 41.1448 20.5147C41.2481 20.5952 41.3168 20.7069 41.3384 20.8298C41.36 20.9526 41.3331 21.0785 41.2627 21.1847C41.1922 21.291 41.0828 21.3707 40.954 21.4095L39.5698 21.8334L40.0544 23.1666L41.4387 22.7426C41.7901 22.6347 42.1041 22.4432 42.3487 22.1875C42.5932 21.9318 42.7595 21.6211 42.8306 21.2871C43.0211 21.3842 43.1876 21.5165 43.3195 21.6758C43.4515 21.835 43.546 22.0176 43.5971 22.2122C43.6482 22.4067 43.6548 22.6088 43.6164 22.8058C43.578 23.0027 43.4955 23.1902 43.3742 23.3564L42.5619 24.4751L38.8861 23.3501L38.3433 21.8531C38.2829 21.6861 38.2666 21.5082 38.2957 21.3342C38.3248 21.1603 38.3984 20.9951 38.5105 20.8523C38.6226 20.7096 38.77 20.5933 38.9406 20.513C39.1112 20.4327 39.3 20.3908 39.4917 20.3906ZM38.7406 24.788L41.9233 25.7625L41.5574 26.8545C40.896 28.8553 39.5496 30.6069 37.718 31.8492C35.8865 33.0914 33.6675 33.758 31.3906 33.75H30.625V42.8906H25.114L23.7673 37.3247L24.3415 36.0056L25.7097 37.2621L27.2409 30.9375H28.7209C30.8664 30.9391 32.9642 30.3555 34.748 29.2607C36.5319 28.1658 37.9215 26.6091 38.7406 24.788ZM24.3898 30.0445L22.2031 32.0527L20.0165 30.0445L20.4613 28.8183C20.5318 28.8211 20.6007 28.8281 20.6719 28.8281H23.7344C23.8056 28.8281 23.8745 28.8211 23.9449 28.8183L24.3898 30.0445ZM26.7969 24.6094C26.7969 26.1605 25.4233 27.4219 23.7344 27.4219H20.6719C18.9829 27.4219 17.6094 26.1605 17.6094 24.6094V20.816C17.6094 19.5954 18.2058 18.4535 19.2233 17.6913C21.2316 18.5408 23.416 18.9819 25.627 18.9844C25.9371 18.9847 26.2345 19.0981 26.4538 19.2995C26.6731 19.5009 26.7965 19.7739 26.7969 20.0588V24.6094ZM28.3281 24.6094V21.7969C29.1726 21.7969 29.8594 22.4276 29.8594 23.2031C29.8594 23.9787 29.1726 24.6094 28.3281 24.6094ZM29.8594 18.9028C29.8594 19.4885 29.7491 20.0721 29.5508 20.6283C29.1656 20.472 28.7492 20.3911 28.3281 20.3906V20.0588C28.3273 19.4011 28.0425 18.7706 27.5361 18.3055C27.0297 17.8405 26.3431 17.5789 25.627 17.5781C23.5055 17.5781 21.3808 17.1176 19.4836 16.2457L19.0863 16.0629L18.7165 16.2893C17.9711 16.7461 17.3488 17.3527 16.8968 18.0632C16.4447 18.7737 16.1747 19.5694 16.1072 20.3899H16.0781C15.6571 20.3905 15.2408 20.4712 14.8554 20.6269C14.6542 20.0707 14.5501 19.4888 14.5469 18.9028C14.5469 15.8463 17.2549 13.3594 20.5831 13.3594H23.8232C27.1514 13.3594 29.8594 15.8463 29.8594 18.9028ZM29.8594 11.9531H19.1406V2.10938H29.8594V11.9531ZM35.9844 2.10938H46.7031V11.9531H35.9844V2.10938Z" fill="#7A7A7A"/>
<path d="M37.5156 3.51562H45.1719V4.92188H37.5156V3.51562ZM37.5156 6.32812H45.1719V7.73438H37.5156V6.32812ZM37.5156 9.14062H45.1719V10.5469H37.5156V9.14062ZM3.82812 3.51562H11.4844V4.92188H3.82812V3.51562ZM3.82812 6.32812H11.4844V7.73438H3.82812V6.32812ZM3.82812 9.14062H11.4844V10.5469H3.82812V9.14062ZM20.6719 3.51562H28.3281V4.92188H20.6719V3.51562ZM20.6719 6.32812H28.3281V7.73438H20.6719V6.32812ZM20.6719 9.14062H28.3281V10.5469H20.6719V9.14062Z" fill="#7A7A7A"/>
</svg>
