<svg width="8" height="9" viewBox="0 0 8 9" fill="none" xmlns="http://www.w3.org/2000/svg">
<path d="M7.33288 4.02844L6.82288 3.43594C6.72538 3.32344 6.64663 3.11344 6.64663 2.96344V2.32594C6.64663 1.92844 6.32038 1.60219 5.92288 1.60219H5.28538C5.13913 1.60219 4.92538 1.52344 4.81288 1.42594L4.22038 0.915937C3.96163 0.694688 3.53788 0.694688 3.27538 0.915937L2.68663 1.42969C2.57413 1.52344 2.36038 1.60219 2.21413 1.60219H1.56538C1.16788 1.60219 0.841631 1.92844 0.841631 2.32594V2.96719C0.841631 3.11344 0.762881 3.32344 0.669131 3.43594L0.162881 4.03219C-0.0546191 4.29094 -0.0546191 4.71094 0.162881 4.96969L0.669131 5.56594C0.762881 5.67844 0.841631 5.88844 0.841631 6.03469V6.67594C0.841631 7.07344 1.16788 7.39969 1.56538 7.39969H2.21413C2.36038 7.39969 2.57413 7.47844 2.68663 7.57594L3.27913 8.08594C3.53788 8.30719 3.96163 8.30719 4.22413 8.08594L4.81663 7.57594C4.92913 7.47844 5.13913 7.39969 5.28913 7.39969H5.92663C6.32413 7.39969 6.65038 7.07344 6.65038 6.67594V6.03844C6.65038 5.89219 6.72913 5.67844 6.82663 5.56594L7.33663 4.97344C7.55413 4.71469 7.55413 4.28719 7.33288 4.02844ZM5.30788 3.79219L3.49663 5.60344C3.4439 5.65611 3.37241 5.68569 3.29788 5.68569C3.22335 5.68569 3.15187 5.65611 3.09913 5.60344L2.19163 4.69594C2.08288 4.58719 2.08288 4.40719 2.19163 4.29844C2.30038 4.18969 2.48038 4.18969 2.58913 4.29844L3.29788 5.00719L4.91038 3.39469C5.01913 3.28594 5.19913 3.28594 5.30788 3.39469C5.41663 3.50344 5.41663 3.68344 5.30788 3.79219Z" fill="black"/>
</svg>
