<svg width="30" height="30" viewBox="0 0 30 30" fill="none" xmlns="http://www.w3.org/2000/svg">
<g clip-path="url(#clip0_572_728)">
<path d="M25.5 0H4.5C2.01472 0 0 2.01472 0 4.5V25.5C0 27.9853 2.01472 30 4.5 30H25.5C27.9853 30 30 27.9853 30 25.5V4.5C30 2.01472 27.9853 0 25.5 0Z" fill="white"/>
<path d="M9.25781 22.9102V14.5898L4.45312 10.8984V21.1523C4.45312 22.3242 5.03906 22.9102 6.21094 22.9102" fill="#4285F4"/>
<path d="M9.02344 14.5312L15 19.043L20.9766 14.5312V8.78906L15 13.3008L9.02344 8.78906" fill="#EA4335"/>
<path d="M20.7422 22.9102V14.5898L25.5469 10.8984V21.1523C25.5469 22.3242 24.9609 22.9102 23.7891 22.9102" fill="#34A853"/>
<path d="M4.45312 11.0156L9.25781 14.707V8.96485L7.5 7.6172C5.91797 6.38673 4.45312 7.6172 4.45312 9.14064" fill="#C5221F"/>
<path d="M25.5469 11.0156L20.7422 14.707V8.96485L22.5 7.6172C24.082 6.38673 25.5469 7.6172 25.5469 9.14064" fill="#FBBC04"/>
</g>
<defs>
<clipPath id="clip0_572_728">
<rect width="30" height="30" fill="white"/>
</clipPath>
</defs>
</svg>
