<svg width="42" height="42" viewBox="0 0 42 42" fill="none" xmlns="http://www.w3.org/2000/svg">
<path d="M39.2 1.3999H21.4515C20.3337 0.494212 18.9387 0 17.5 0C16.0613 0 14.6663 0.494212 13.5485 1.3999H2.8C2.05739 1.3999 1.3452 1.6949 0.820101 2.22C0.294999 2.7451 0 3.45729 0 4.1999L0 32.1999C0 32.9425 0.294999 33.6547 0.820101 34.1798C1.3452 34.7049 2.05739 34.9999 2.8 34.9999H15.0661L14.2261 37.0999H11.9C11.343 37.0999 10.8089 37.3212 10.4151 37.715C10.0212 38.1088 9.8 38.6429 9.8 39.1999V40.5999C9.8 40.9712 9.9475 41.3273 10.2101 41.5899C10.4726 41.8524 10.8287 41.9999 11.2 41.9999H30.8C31.1713 41.9999 31.5274 41.8524 31.7899 41.5899C32.0525 41.3273 32.2 40.9712 32.2 40.5999V39.1999C32.2 38.6429 31.9787 38.1088 31.5849 37.715C31.1911 37.3212 30.657 37.0999 30.1 37.0999H27.7739L26.9339 34.9999H39.2C39.9426 34.9999 40.6548 34.7049 41.1799 34.1798C41.705 33.6547 42 32.9425 42 32.1999V4.1999C42 3.45729 41.705 2.7451 41.1799 2.22C40.6548 1.6949 39.9426 1.3999 39.2 1.3999ZM40.6 4.1999V29.3999H23.1V24.4908L23.8091 25.8152C23.9598 26.1731 24.1945 26.4894 24.4932 26.7375C24.792 26.9855 25.146 27.158 25.5255 27.2404C25.8936 27.3272 26.2771 27.3252 26.6442 27.2346C27.0114 27.1441 27.3518 26.9676 27.6374 26.7196L32.2343 23.3022C32.3573 23.1938 32.4578 23.0622 32.5298 22.915C32.6019 22.7677 32.6442 22.6076 32.6543 22.444C33.1987 21.9918 33.8236 21.6463 34.496 21.4255C34.69 21.3675 34.8744 21.2815 35.0434 21.17C35.3181 20.9984 35.5546 20.7723 35.7384 20.5056C35.9221 20.2389 36.0491 19.9373 36.1116 19.6195C36.1722 19.3108 36.1685 18.9929 36.1008 18.6857C36.0331 18.3785 35.9029 18.0885 35.7182 17.8338C35.3718 17.3619 34.8693 17.028 34.3 16.8916V11.8999C34.3 11.7143 34.2262 11.5362 34.095 11.4049C33.9637 11.2737 33.7857 11.1999 33.6 11.1999C33.4143 11.1999 33.2363 11.2737 33.105 11.4049C32.9737 11.5362 32.9 11.7143 32.9 11.8999V16.9245C32.6899 16.986 32.4891 17.0755 32.3029 17.1905C32.0024 17.3634 31.7599 17.6216 31.6064 17.9325C31.2464 18.5976 30.7621 19.1874 30.1798 19.6699C29.8505 19.6327 29.5198 19.7273 29.26 19.9331L27.6318 21.289L26.6903 18.7774C26.3973 17.9885 25.9119 17.2852 25.2782 16.7315C24.6445 16.1777 23.8826 15.791 23.0615 15.6064L20.3 14.8637V13.8137C20.8652 13.4204 21.3411 12.9125 21.6968 12.3229C22.0525 11.7333 22.2799 11.0754 22.3643 10.3921C22.7821 10.2522 23.1454 9.98469 23.403 9.62725C23.6606 9.2698 23.7995 8.84049 23.8 8.3999V6.2999C23.8011 5.0532 23.4302 3.83452 22.7346 2.7999H39.2C39.5713 2.7999 39.9274 2.9474 40.1899 3.20995C40.4525 3.4725 40.6 3.8286 40.6 4.1999ZM12.6 20.9999C12.4143 20.9999 12.2363 21.0737 12.105 21.2049C11.9737 21.3362 11.9 21.5143 11.9 21.6999V29.3999H9.8V20.3209C9.79791 19.5463 10.0419 18.7911 10.4969 18.1641C10.9518 17.5372 11.5941 17.071 12.3312 16.8328C12.7469 17.8942 13.4403 18.8243 14.3388 19.5257C14.5931 19.7093 14.8944 19.8169 15.2075 19.8358L15.3825 20.3608L14.7133 24.8324C14.6798 25.0707 14.7142 25.3136 14.8125 25.5333C14.9108 25.7529 15.0691 25.9404 15.2691 26.0742L16.7923 27.0899C17.0019 27.2296 17.2481 27.3041 17.5 27.3041C17.7519 27.3041 17.9981 27.2296 18.2077 27.0899L19.7309 26.0777C19.9315 25.9433 20.09 25.7549 20.1882 25.5344C20.2864 25.3138 20.3203 25.07 20.286 24.831L19.6175 20.3643L19.7904 19.8449C20.1035 19.8247 20.4043 19.7156 20.6577 19.5306C21.5284 18.8547 22.2059 17.9614 22.6219 16.9406L22.7276 16.9686C23.3267 17.1005 23.8833 17.3803 24.3465 17.7826C24.8097 18.1849 25.1647 18.6968 25.3792 19.2716L26.32 21.7825C26.396 21.9848 26.5189 22.1663 26.6785 22.312C26.8381 22.4577 27.03 22.5636 27.2383 22.621C27.4467 22.6783 27.6657 22.6855 27.8774 22.642C28.0892 22.5985 28.2875 22.5054 28.4564 22.3705L30.03 21.1105L31.1829 22.3418L26.754 25.6318C26.6304 25.7429 26.4818 25.8227 26.3209 25.8643C26.1599 25.906 25.9913 25.9084 25.8293 25.8712C25.6579 25.8309 25.499 25.7493 25.3664 25.6335C25.2337 25.5178 25.1314 25.3713 25.0684 25.2069L23.0167 21.3667C22.9428 21.2292 22.8251 21.1203 22.6823 21.0573C22.5394 20.9944 22.3796 20.981 22.2283 21.0193C22.0769 21.0576 21.9427 21.1454 21.847 21.2687C21.7513 21.392 21.6995 21.5438 21.7 21.6999V29.3999H13.3V21.6999C13.3 21.5143 13.2263 21.3362 13.095 21.2049C12.9637 21.0737 12.7857 20.9999 12.6 20.9999ZM18.8888 24.9521L17.5 25.8754L16.1112 24.9521L16.7034 20.9999H18.2966L18.8888 24.9521ZM16.6047 19.5999L16.5235 19.3563C16.7221 19.1619 16.8668 18.9192 16.9435 18.6521C17.0402 18.2761 17.2318 17.9311 17.5 17.6504C17.766 17.9282 17.9559 18.2698 18.0516 18.6423C18.1293 18.9129 18.276 19.1587 18.4772 19.3556L18.3953 19.5999H16.6047ZM19.8247 18.4001C19.788 18.4259 19.7456 18.4424 19.7011 18.4484C19.6567 18.4544 19.6114 18.4496 19.5692 18.4344C19.527 18.421 19.4889 18.3972 19.4582 18.3653C19.4275 18.3334 19.4053 18.2944 19.3935 18.2517C19.2723 17.8383 19.0848 17.4473 18.8384 17.0939C19.2513 16.8756 19.6146 16.5741 19.9052 16.2084L21.2499 16.5703C20.9344 17.2887 20.4454 17.9174 19.8268 18.4001H19.8247ZM17.5 13.2999C16.5721 13.2988 15.6825 12.9297 15.0264 12.2735C14.3702 11.6174 14.0011 10.7278 14 9.7999C14 9.61425 13.9263 9.4362 13.795 9.30493C13.6637 9.17365 13.4857 9.0999 13.3 9.0999C13.1143 9.0999 12.9363 9.02615 12.805 8.89488C12.6737 8.7636 12.6 8.58555 12.6 8.3999C12.6 8.21425 12.6737 8.0362 12.805 7.90493C12.9363 7.77365 13.1143 7.6999 13.3 7.6999C13.49 7.68563 13.6676 7.60021 13.7973 7.46072C13.9271 7.32123 13.9995 7.13792 14 6.9474C14.0024 6.81645 14.0405 6.68863 14.11 6.57765C14.1796 6.46667 14.278 6.3767 14.3948 6.3174C14.5047 6.25887 14.6272 6.22788 14.7518 6.2271C14.8921 6.22699 15.0294 6.26813 15.1466 6.3454C15.8491 6.79156 16.6681 7.01933 17.5 6.9999C18.3321 7.01866 19.151 6.79042 19.8534 6.344C19.9643 6.27167 20.0928 6.23085 20.2251 6.22592C20.3574 6.22099 20.4885 6.25213 20.6045 6.316C20.7279 6.38143 20.8305 6.48026 20.9004 6.60119C20.9703 6.72212 21.0048 6.86029 21 6.9999C21 7.18555 21.0737 7.3636 21.205 7.49488C21.3363 7.62615 21.5143 7.6999 21.7 7.6999C21.8857 7.6999 22.0637 7.77365 22.195 7.90493C22.3263 8.0362 22.4 8.21425 22.4 8.3999C22.4 8.58555 22.3263 8.7636 22.195 8.89488C22.0637 9.02615 21.8857 9.0999 21.7 9.0999C21.5143 9.0999 21.3363 9.17365 21.205 9.30493C21.0737 9.4362 21 9.61425 21 9.7999C20.9989 10.7278 20.6298 11.6174 19.9736 12.2735C19.3175 12.9297 18.4279 13.2988 17.5 13.2999ZM17.5 14.6999C17.9742 14.6998 18.4458 14.6305 18.9 14.4941V15.22C18.7391 15.4536 18.5317 15.6514 18.2908 15.8011C18.0499 15.9508 17.7807 16.0492 17.5 16.0901C17.2195 16.0493 16.9504 15.9511 16.7095 15.8016C16.4686 15.6522 16.2611 15.4547 16.1 15.2214V14.4941C16.5542 14.6305 17.0258 14.6998 17.5 14.6999ZM15.078 16.1888C15.3708 16.5637 15.7396 16.8723 16.1602 17.0946C15.9116 17.451 15.7225 17.8453 15.6002 18.2622C15.5876 18.3028 15.5652 18.3397 15.5351 18.3697C15.505 18.3998 15.468 18.4219 15.4273 18.4344C15.3844 18.4499 15.3384 18.4546 15.2933 18.4483C15.2482 18.442 15.2052 18.4247 15.1683 18.398C14.5291 17.8962 14.0271 17.241 13.7088 16.4933L15.078 16.1888ZM33.0456 18.377C33.2892 18.2249 33.5806 18.1684 33.8634 18.2184C34.1462 18.2684 34.4005 18.4214 34.5772 18.6479C34.6501 18.7483 34.7016 18.8626 34.7287 18.9837C34.7558 19.1048 34.7578 19.2302 34.7347 19.3521C34.7068 19.4853 34.6518 19.6113 34.573 19.7222C34.4943 19.8331 34.3934 19.9266 34.2769 19.9968C34.2223 20.0337 34.1627 20.0625 34.0998 20.0822C33.343 20.3195 32.6336 20.6876 32.004 21.17L31.3677 20.4903C31.9806 19.9328 32.4895 19.2708 32.8706 18.5352C32.9138 18.4678 32.9742 18.4132 33.0456 18.377ZM17.5 1.3999C18.799 1.40157 20.0444 1.91835 20.963 2.83692C21.8815 3.75549 22.3983 5.00085 22.4 6.2999V6.4252C22.3741 6.4161 22.3496 6.4028 22.323 6.3944C22.2313 6.07054 22.0649 5.77272 21.8372 5.52488C21.6094 5.27704 21.3267 5.08611 21.0117 4.96743C20.6967 4.84876 20.3583 4.80565 20.0236 4.84158C19.689 4.87751 19.3674 4.99147 19.0848 5.1743C18.6032 5.45284 18.0567 5.5995 17.5003 5.5995C16.944 5.5995 16.3975 5.45284 15.9159 5.1743C15.6332 4.99134 15.3114 4.87728 14.9766 4.84128C14.6418 4.80528 14.3032 4.84834 13.988 4.96702C13.6728 5.08569 13.3899 5.27666 13.162 5.52456C12.934 5.77247 12.7674 6.0704 12.6756 6.3944C12.6497 6.4021 12.6259 6.4154 12.6 6.4245V6.2999C12.6017 5.00085 13.1185 3.75549 14.037 2.83692C14.9556 1.91835 16.201 1.40157 17.5 1.3999ZM2.8 2.7999H12.2654C11.5698 3.83452 11.1989 5.0532 11.2 6.2999V8.3999C11.2005 8.84049 11.3394 9.2698 11.597 9.62725C11.8546 9.98469 12.2179 10.2522 12.6357 10.3921C12.7201 11.0754 12.9475 11.7333 13.3032 12.3229C13.6589 12.9125 14.1348 13.4204 14.7 13.8137V14.8399L12.3844 15.3558C11.2522 15.6022 10.2388 16.2296 9.51361 17.1333C8.78841 18.037 8.39531 19.1622 8.4 20.3209V29.3999H1.4V4.1999C1.4 3.8286 1.5475 3.4725 1.81005 3.20995C2.0726 2.9474 2.4287 2.7999 2.8 2.7999ZM30.8 39.1999V40.5999H11.2V39.1999C11.2 39.0143 11.2737 38.8362 11.405 38.7049C11.5363 38.5737 11.7143 38.4999 11.9 38.4999H30.1C30.2857 38.4999 30.4637 38.5737 30.595 38.7049C30.7262 38.8362 30.8 39.0143 30.8 39.1999ZM26.2661 37.0999H15.7339L16.5739 34.9999H25.4261L26.2661 37.0999ZM39.2 33.5999H2.8C2.4287 33.5999 2.0726 33.4524 1.81005 33.1899C1.5475 32.9273 1.4 32.5712 1.4 32.1999V30.7999H40.6V32.1999C40.6 32.5712 40.4525 32.9273 40.1899 33.1899C39.9274 33.4524 39.5713 33.5999 39.2 33.5999Z" fill="white"/>
</svg>
