<svg width="38" height="39" viewBox="0 0 38 39" fill="none" xmlns="http://www.w3.org/2000/svg">
<path fill-rule="evenodd" clip-rule="evenodd" d="M16.6056 5.23432C16.7731 5.30404 16.9487 5.36075 17.1284 5.40442C17.3868 5.46537 17.6594 5.50028 17.9399 5.50028C18.7434 5.50028 19.4882 5.22564 20.0959 4.76105C20.306 4.59999 20.4976 4.41882 20.6713 4.21824L21.3193 3.05181C21.0125 2.92982 20.6853 2.84911 20.3463 2.81864H20.3443H20.3323L20.3262 2.81651H20.3202H20.3061L20.2939 2.8143H20.2838H20.2798L20.2677 2.81226H20.2636H20.2536H20.2435H20.2415L20.2031 2.80986H20.2011L20.189 2.80774H20.179H20.177H20.1629H20.1589H20.1507H20.1385H20.1365L20.1245 2.80561H20.1164H20.1104H20.0983H20.0963H20.0843H20.0742H20.0722H20.0581H20.0539H20.0458H20.0317H19.9954H19.9834H19.9571L19.9349 2.80774H19.9188H19.8884H19.8824L19.8441 2.80986H19.8401L19.8076 2.81226L19.7915 2.8143H19.7709L19.7448 2.81651L19.7327 2.81864L19.6982 2.82076H19.6963L19.6499 2.82732L19.6237 2.82936L19.6035 2.83157L19.5874 2.8337L19.5571 2.83804H19.551L19.5127 2.84451H19.5107L19.4785 2.84893L19.4642 2.85106L19.442 2.8554L19.4178 2.85983L19.3714 2.8686H19.3694L19.3331 2.87507L19.325 2.8772L19.2987 2.88375L19.2786 2.88579L19.2342 2.89669L19.228 2.8989L19.1918 2.90776H19.1878L19.1433 2.91866L19.1211 2.92513L19.0544 2.94479H19.0524L18.9212 2.98617L18.9152 2.98829C18.3338 3.18462 17.8128 3.53128 17.391 3.98692C17.0618 4.34271 16.7934 4.76548 16.6056 5.23432ZM20.9639 4.77629C20.7963 4.95295 20.6168 5.11649 20.427 5.26267C19.7244 5.80114 18.8665 6.11716 17.9399 6.11716C17.6229 6.11716 17.31 6.07809 17.0052 6.00606C16.8053 5.95813 16.6076 5.89275 16.4178 5.81638C16.3392 6.14338 16.2966 6.4858 16.2966 6.83902C16.2966 7.953 16.7144 8.96244 17.3907 9.69068C18.0649 10.4211 18.9998 10.8724 20.0312 10.8724C21.0628 10.8724 21.9975 10.419 22.6717 9.69068C23.348 8.96244 23.7658 7.95309 23.7658 6.83902C23.7658 6.56199 23.7416 6.2916 23.6912 6.03007L23.6791 6.02555L20.9639 4.77629ZM21.8827 3.33531C21.7433 3.67755 21.5677 3.99596 21.3617 4.29027L23.4692 5.25833L23.4632 5.24097L23.4551 5.22334L23.449 5.20606L23.4408 5.19082V5.18861L23.4349 5.17337L23.4267 5.156L23.4207 5.13864L23.4126 5.12323L23.3905 5.07317L23.3844 5.05793L23.3824 5.05581L23.3764 5.04039L23.3683 5.02294L23.3641 5.01425L23.36 5.00557L23.352 4.99033L23.3359 4.95764L23.3278 4.9401L23.3117 4.90963L23.3036 4.89226L23.2996 4.88571L23.2956 4.87702L23.2792 4.84415L23.2571 4.80066L23.2531 4.79631L23.2449 4.78108L23.2368 4.76566L23.2331 4.75902L23.227 4.74812L23.2189 4.73288L23.2108 4.71764H23.2089L23.2007 4.7024L23.1906 4.68699L23.1865 4.67609L23.1824 4.66954L23.1724 4.6543L23.1643 4.63906L23.1623 4.63693L23.1542 4.62391L23.1461 4.60867L23.1381 4.59547L23.136 4.59335L23.126 4.57811L23.1157 4.56287L23.1117 4.55631L23.1057 4.54763L23.0976 4.53239L23.0875 4.51928V4.51716L23.0774 4.50395L23.0674 4.48863L23.0614 4.47782L23.0573 4.47339L23.0473 4.45815L23.0372 4.44291L23.035 4.43857L23.0269 4.42989L23.0169 4.41447L23.0088 4.40136L23.0068 4.39933L22.9967 4.38409L22.9866 4.37098L22.9806 4.36229L22.9766 4.35574L22.9665 4.3428L22.9545 4.32739L22.9523 4.32517L22.9442 4.31428L22.9341 4.29904L22.9261 4.28823L22.9241 4.2861L22.9121 4.27086L22.902 4.25775L22.896 4.25129L22.8879 4.23809L22.8738 4.22072L22.8676 4.21425L22.8595 4.20336L22.8454 4.1859L22.8393 4.17722L22.8313 4.16854L22.8172 4.15091L22.809 4.14223L22.803 4.13346L22.7585 4.0834L22.7485 4.07047L22.7444 4.06604L22.7303 4.04849L22.6878 4.00278L22.6717 3.98754C22.4376 3.73434 22.1732 3.51401 21.8827 3.33531ZM20.0051 15.4574H22.3509L22.2822 13.264L22.0379 13.5018L22.0338 13.5038L22.0319 13.5061L22.0279 13.5104L22.0258 13.5126L22.0218 13.5146L22.0198 13.5191L22.0158 13.5212L20.0577 15.4137C20.0414 15.4313 20.0233 15.4443 20.0051 15.4574ZM17.6736 13.3317L17.5705 15.4574H19.7287C19.7104 15.4444 19.6923 15.4313 19.6761 15.4139L17.6736 13.3317ZM22.8272 13.1529L22.908 15.7452C22.9121 15.9065 22.793 16.044 22.6436 16.0483L17.2818 16.0505C17.1303 16.0505 17.0073 15.9174 17.0073 15.7538L17.1344 13.1333L12.6911 15.2241V19.4058H27.228V15.2241L22.8272 13.1529ZM21.5696 11.1841C21.0932 11.3824 20.5744 11.4894 20.0313 11.4894C19.4439 11.4894 18.8847 11.3628 18.3739 11.1318V13.2378L19.8738 14.7968L21.5696 13.1594V11.1841ZM27.5089 19.9989H27.5027H12.4167H12.4086H4.14389V21.2176H35.7754V19.9989H27.5089ZM10.3213 23.9669C9.87911 23.4894 9.26748 23.193 8.5913 23.193C7.91905 23.193 7.30932 23.4873 6.86725 23.9604C6.40509 24.4597 6.14652 25.1268 6.14652 25.8354C6.14652 26.5635 6.42116 27.2243 6.86323 27.7016C7.3053 28.1812 7.917 28.4757 8.5913 28.4757C9.25953 28.4757 9.865 28.1877 10.3053 27.719C10.7775 27.1653 11.0381 26.6027 11.0381 25.8353C11.038 25.1049 10.7633 24.4444 10.3213 23.9669ZM8.29041 31.7285L6.76627 30.1477L3.69182 31.5934V34.2772H13.3918V31.5934L10.3112 30.1433L10.0164 30.4291L10.0124 30.4313L10.0104 30.4356L10.0064 30.4378L10.0045 30.4399L10.0004 30.4443L9.99838 30.4464L9.99436 30.4486L8.67005 31.7283C8.56497 31.8373 8.39549 31.8396 8.29041 31.7285ZM22.0924 23.9669C21.6503 23.4894 21.0386 23.193 20.3644 23.193C19.6923 23.193 19.0826 23.4873 18.6404 23.9604C18.1762 24.4597 17.9178 25.1268 17.9178 25.8354C17.9178 26.5635 18.1922 27.2243 18.6343 27.7016C19.0765 28.1812 19.6881 28.4757 20.3643 28.4757C21.0305 28.4757 21.6362 28.1877 22.0783 27.719C22.5487 27.1653 22.8091 26.6027 22.8091 25.8353C22.8092 25.1049 22.5346 24.4444 22.0924 23.9669ZM20.0616 31.7285L18.5374 30.1477L15.4649 31.5934V34.2772H25.165V31.5934L22.0824 30.1433L21.7876 30.4291L21.7856 30.4313L21.7815 30.4356L21.7795 30.4378L21.7755 30.4399L21.7736 30.4443L21.7695 30.4464L21.7675 30.4486L20.4412 31.7283C20.3362 31.8373 20.1686 31.8396 20.0616 31.7285ZM21.3214 30.0868V28.927C21.0205 29.0337 20.6976 29.0926 20.3644 29.0926C19.9991 29.0926 19.6499 29.0228 19.3248 28.8941V30.1412L20.2595 31.1115L21.3214 30.0868ZM33.8476 23.9669C33.4055 23.4894 32.7937 23.193 32.1195 23.193C31.4453 23.193 30.8377 23.4873 30.3935 23.9604C29.9313 24.4597 29.6729 25.1268 29.6729 25.8354C29.6729 26.5635 29.9475 27.2243 30.3895 27.7016C30.8317 28.1812 31.4433 28.4757 32.1195 28.4757C32.7857 28.4757 33.3914 28.1877 33.8335 27.719C34.3039 27.1653 34.5643 26.6027 34.5643 25.8353C34.5642 25.1049 34.2896 24.4444 33.8476 23.9669ZM31.8168 31.7285L30.2926 30.1477L27.2201 31.5934V34.2772H36.9181V31.5934L33.8375 30.1433L33.5427 30.4291L33.5386 30.4313L33.5367 30.4356L33.5346 30.4378L33.5306 30.4399L33.5286 30.4443L33.5246 30.4464L33.5226 30.4486L32.1963 31.7283C32.0913 31.8373 31.9238 31.8396 31.8168 31.7285ZM33.0765 30.0868V28.927C32.7736 29.0337 32.4526 29.0926 32.1195 29.0926C31.7542 29.0926 31.405 29.0228 31.0799 28.8941V30.1412L32.0125 31.1115L33.0765 30.0868ZM6.18089 16.7678C6.18089 16.4276 5.6317 16.384 5.6317 16.7983C5.64179 16.9945 5.66607 17.2213 5.69027 17.4175C5.77303 17.858 6.29582 17.6726 6.23725 17.3477C6.21108 17.1602 6.195 16.9574 6.18089 16.7678ZM6.16678 14.4436C6.16678 14.001 5.61972 14.0641 5.61972 14.4021L5.58945 15.006C5.58945 15.4203 6.1384 15.3919 6.1384 15.0256L6.16678 14.4436ZM6.48777 12.1477C6.56234 11.7422 6.01937 11.6529 5.95276 12.0126C5.91044 12.209 5.8741 12.4073 5.83776 12.6056C5.81143 12.7496 5.89223 12.8869 6.00133 12.9327C6.17285 13.009 6.34446 12.8933 6.3767 12.7167C6.41107 12.5272 6.44733 12.3375 6.48777 12.1477ZM7.14173 9.93706C7.277 9.56638 6.76627 9.35278 6.63297 9.71034C6.56234 9.89772 6.49581 10.0853 6.43117 10.275C6.37465 10.4276 6.46341 10.5977 6.58055 10.6477C6.74412 10.7176 6.89137 10.6304 6.94797 10.4755C7.00851 10.2945 7.07315 10.1158 7.14173 9.93706ZM8.11076 7.86157C8.29845 7.52358 7.82414 7.22272 7.64031 7.55415L7.35977 8.0773C7.19825 8.36726 7.59593 8.71836 7.83218 8.38046L8.11076 7.86157ZM9.36838 5.9778C9.42695 5.91455 9.4532 5.77944 9.41686 5.68358C9.33614 5.46759 9.10793 5.424 8.95043 5.5941C8.82935 5.74666 8.70819 5.90586 8.59516 6.06498C8.37105 6.38533 8.81927 6.72987 9.02918 6.42688L9.36838 5.9778ZM10.8846 4.32934C11.1752 4.01554 10.7452 3.64274 10.5251 3.88034C10.39 4.00686 10.2346 4.14843 10.1072 4.28371C9.83678 4.57589 10.2425 4.97705 10.4848 4.71543C10.6159 4.58458 10.7492 4.45603 10.8846 4.32934ZM12.6207 2.95596C12.9194 2.76194 12.6348 2.25385 12.3319 2.45221C12.1784 2.56349 12.015 2.6682 11.8595 2.78152C11.5648 2.97119 11.8454 3.48132 12.1684 3.27206C12.3158 3.163 12.4672 3.05846 12.6207 2.95596ZM14.5344 1.89637C14.8574 1.75693 14.6655 1.20083 14.3244 1.347C14.1528 1.42116 13.9772 1.50833 13.8077 1.59338C13.7128 1.63476 13.628 1.77642 13.6521 1.90506C13.6886 2.10147 13.8541 2.21044 14.0398 2.12973L14.5344 1.89637ZM16.5752 1.17469C16.6057 1.16822 16.6479 1.14643 16.6702 1.12889C16.9063 0.93717 16.755 0.531588 16.4461 0.599185C16.2665 0.644899 16.0847 0.697258 15.905 0.751743C15.5558 0.904391 15.7032 1.39945 16.0565 1.323C16.228 1.27064 16.4017 1.21837 16.5752 1.17469ZM18.701 0.81057C19.024 0.81057 19.0422 0.219738 18.6869 0.219738C18.5032 0.224256 18.2831 0.254732 18.0995 0.278653C17.6917 0.368044 17.8612 0.932652 18.1641 0.867358C18.3437 0.845387 18.5213 0.825808 18.701 0.81057ZM20.8509 0.808443C21.2668 0.808443 21.2021 0.217523 20.8934 0.217523L20.3362 0.182617C19.9485 0.182617 19.9769 0.775663 20.316 0.775663L20.8509 0.808443ZM22.9767 1.16822C23.3561 1.25106 23.4329 0.662264 23.1038 0.592717L22.5548 0.461687C22.1934 0.385408 22.1187 0.974114 22.4517 1.04393L22.9767 1.16822ZM25.0216 1.88769C25.3628 2.03369 25.5607 1.47998 25.2295 1.33832L24.7088 1.11817C24.3898 0.978632 24.1676 1.52357 24.5209 1.674C24.6885 1.7416 24.8561 1.81345 25.0216 1.88769ZM26.9375 2.94506C27.2483 3.14776 27.529 2.63764 27.2221 2.43706C27.0627 2.33234 26.9031 2.22993 26.7396 2.13186C26.6508 2.07507 26.5237 2.08597 26.449 2.14931C26.2794 2.2845 26.2976 2.53726 26.4712 2.65075C26.6286 2.74457 26.7841 2.84477 26.9375 2.94506ZM28.6716 4.31419C28.8955 4.55622 29.3175 4.17483 29.0288 3.86289C28.8874 3.73213 28.7421 3.60561 28.5968 3.47706C28.2959 3.2329 27.981 3.7191 28.2576 3.94369C28.399 4.06356 28.5363 4.18785 28.6716 4.31419ZM30.1896 5.96044C30.4845 6.27636 30.8256 5.80992 30.6075 5.57443L30.2361 5.12092C29.9636 4.8267 29.5961 5.2671 29.8344 5.52447C29.9555 5.66586 30.0746 5.81417 30.1896 5.96044ZM31.4513 7.8419C31.6349 8.16881 32.1074 7.86804 31.9216 7.53661C31.8349 7.37103 31.6996 7.13333 31.5926 6.98724C31.3544 6.72775 30.9871 7.03526 31.1627 7.35127C31.2616 7.51269 31.3584 7.67623 31.4513 7.8419ZM32.4243 9.91305C32.5494 10.2555 33.0684 10.055 32.931 9.68625C32.8604 9.49878 32.7857 9.31566 32.709 9.13245C32.5839 8.79677 32.065 8.99087 32.2083 9.37883C32.285 9.55557 32.3557 9.73426 32.4243 9.91305ZM33.0804 12.1239C33.1471 12.4837 33.6901 12.3942 33.6133 11.9865C33.573 11.7925 33.5245 11.5984 33.4761 11.4044C33.3347 11.0227 32.8764 11.1819 32.9471 11.5635C32.9937 11.7487 33.04 11.9364 33.0804 12.1239ZM33.4055 14.4218C33.4055 14.7619 33.9525 14.8121 33.9525 14.3847C33.9404 14.1819 33.9222 13.9768 33.9001 13.7742C33.8194 13.3316 33.2964 13.517 33.3549 13.8418C33.3751 14.0337 33.3934 14.2277 33.4055 14.4218ZM33.3954 16.7437C33.3954 17.195 33.9424 17.1232 33.9424 16.7916L33.9788 16.1878C33.9788 15.767 33.4296 15.8041 33.4296 16.1638L33.3954 16.7437ZM16.1696 38.2169C16.0182 38.2169 15.895 38.086 15.895 37.9225C15.895 37.7569 16.0182 37.6238 16.1696 37.6238H33.6235C33.7749 37.6238 33.8981 37.7569 33.8981 37.9225C33.8981 38.086 33.7749 38.2169 33.6235 38.2169H16.1696ZM35.4101 38.2169C35.2586 38.2169 35.1355 38.086 35.1355 37.9225C35.1355 37.7569 35.2586 37.6238 35.4101 37.6238H37.5923C37.7437 37.6238 37.867 37.7569 37.867 37.9225C37.867 38.086 37.7437 38.2169 37.5923 38.2169H35.4101ZM0.407289 38.1754C0.255859 38.1754 0.132812 38.0425 0.132812 37.8789C0.132812 37.7154 0.255859 37.5825 0.407289 37.5825H8.67809C8.82952 37.5825 8.95257 37.7154 8.95257 37.8789C8.95257 38.0425 8.82952 38.1754 8.67809 38.1754H0.407289ZM1.40052 36.7997C1.24909 36.7997 1.12605 36.6666 1.12605 36.503C1.12605 36.3397 1.24909 36.2066 1.40052 36.2066H26.6226C26.774 36.2066 26.8971 36.3397 26.8971 36.503C26.8971 36.6666 26.774 36.7997 26.6226 36.7997H1.40052ZM9.54803 30.0868V28.927C9.2473 29.0337 8.92632 29.0926 8.59122 29.0926C8.22585 29.0926 7.87656 29.0228 7.55352 28.8941V30.1412L8.4863 31.1115L9.54803 30.0868Z" fill="white"/>
</svg>
