<svg width="34" height="40" viewBox="0 0 34 40" fill="none" xmlns="http://www.w3.org/2000/svg">
<path d="M0.184082 26.298H1.56455V39.5595H11.8554V26.298H13.236V10.3818H0.184082V26.298ZM2.41089 12.7868H5.59655V20.2856H7.82336V12.7868H11.0091V23.893H9.62855V37.1545H3.79136V23.8931H2.41089V12.7868Z" fill="white"/>
<path d="M6.70992 8.77547C8.77662 8.77547 10.4579 6.95957 10.4579 4.72762C10.4579 2.49566 8.77662 0.679688 6.70992 0.679688C4.64323 0.679688 2.96191 2.49558 2.96191 4.72754C2.96191 6.95949 4.64323 8.77547 6.70992 8.77547ZM6.70992 3.08464C7.54876 3.08464 8.23113 3.82167 8.23113 4.72754C8.23113 5.6334 7.54876 6.37044 6.70992 6.37044C5.87109 6.37044 5.18872 5.6334 5.18872 4.72754C5.18872 3.82167 5.87109 3.08464 6.70992 3.08464Z" fill="white"/>
<path d="M30.112 8.68039C32.1544 8.68039 33.8159 6.88582 33.8159 4.68008C33.816 2.47426 32.1544 0.679688 30.112 0.679688C28.0695 0.679688 26.408 2.47426 26.408 4.68008C26.408 6.88582 28.0696 8.68039 30.112 8.68039ZM30.112 3.08464C30.9265 3.08464 31.5891 3.80035 31.5891 4.68008C31.5891 5.55981 30.9264 6.27544 30.112 6.27544C29.2975 6.27544 28.6348 5.55973 28.6348 4.68008C28.6348 3.80035 29.2975 3.08464 30.112 3.08464Z" fill="white"/>
<path d="M30.112 31.5586C28.0695 31.5586 26.408 33.3532 26.408 35.5589C26.408 37.7647 28.0696 39.5593 30.112 39.5593C32.1543 39.5593 33.8159 37.7647 33.8159 35.5589C33.816 33.3532 32.1544 31.5586 30.112 31.5586ZM30.112 37.1543C29.2974 37.1543 28.6348 36.4386 28.6348 35.5589C28.6348 34.6792 29.2975 33.9635 30.112 33.9635C30.9264 33.9635 31.5891 34.6793 31.5891 35.5589C31.5892 36.4386 30.9265 37.1543 30.112 37.1543Z" fill="white"/>
<path d="M30.112 21.2656C28.0695 21.2656 26.408 23.0602 26.408 25.2659C26.408 27.4718 28.0696 29.2663 30.112 29.2663C32.1543 29.2663 33.8159 27.4718 33.8159 25.2659C33.816 23.0602 32.1544 21.2656 30.112 21.2656ZM30.112 26.8614C29.2974 26.8614 28.6348 26.1457 28.6348 25.2659C28.6348 24.3862 29.2975 23.6706 30.112 23.6706C30.9264 23.6706 31.5891 24.3863 31.5891 25.2659C31.5892 26.1457 30.9265 26.8614 30.112 26.8614Z" fill="white"/>
<path d="M30.112 10.9727C28.0695 10.9727 26.408 12.7672 26.408 14.973C26.408 17.1789 28.0696 18.9734 30.112 18.9734C32.1543 18.9734 33.8159 17.1788 33.8159 14.973C33.816 12.7672 32.1544 10.9727 30.112 10.9727ZM30.112 16.5684C29.2974 16.5684 28.6348 15.8527 28.6348 14.973C28.6348 14.0933 29.2975 13.3776 30.112 13.3776C30.9264 13.3776 31.5891 14.0933 31.5891 14.973C31.5892 15.8527 30.9265 16.5684 30.112 16.5684Z" fill="white"/>
<path d="M18.7828 18.9171H15.8337V21.3221H18.7828V36.7617H23.9585V34.3568H21.0096V26.4686H23.9585V24.0637H21.0096V16.1756H23.9585V13.7706H21.0096V5.88249H23.9585V3.47754H18.7828V18.9171Z" fill="white"/>
</svg>
