<svg width="55" height="55" viewBox="0 0 55 55" fill="none" xmlns="http://www.w3.org/2000/svg">
<path d="M49.9709 27.1772C49.9709 31.6854 48.6341 36.0923 46.1295 39.8407C43.6249 43.5891 40.065 46.5106 35.9 48.2358C31.735 49.961 27.152 50.4124 22.7304 49.5329C18.3089 48.6534 14.2474 46.4826 11.0597 43.2948C7.87192 40.107 5.70103 36.0456 4.82153 31.6241C3.94203 27.2025 4.39342 22.6195 6.11862 18.4545C7.84382 14.2895 10.7653 10.7296 14.5137 8.22497C18.2621 5.72037 22.6691 4.38354 27.1772 4.38354C33.2225 4.38354 39.0202 6.78502 43.2948 11.0597C47.5695 15.3343 49.9709 21.132 49.9709 27.1772Z" fill="#FBFBFB"/>
<path d="M49.9708 27.177C49.9693 22.3512 48.4362 17.6504 45.5923 13.7515C42.7484 9.85273 38.7404 6.95712 34.1457 5.48174C29.5509 4.00637 24.6064 4.02737 20.0244 5.54172C15.4423 7.05607 11.4591 9.98562 8.64844 13.9085C13.0381 10.7629 18.4022 9.27855 23.7844 9.7199C29.1666 10.1612 34.2173 12.4997 38.0358 16.3182C41.8544 20.1368 44.1928 25.1874 44.6342 30.5697C45.0755 35.9519 43.5911 41.316 40.4456 45.7057C43.3937 43.5985 45.796 40.818 47.4527 37.5952C49.1095 34.3724 49.9728 30.8007 49.9708 27.177Z" fill="#E3EFFA"/>
<path d="M27.1771 0C32.5522 0 37.8066 1.59391 42.2759 4.58016C46.7451 7.56642 50.2285 11.8109 52.2854 16.7769C54.3424 21.7428 54.8806 27.2072 53.832 32.4791C52.7833 37.7509 50.195 42.5934 46.3942 46.3942C42.5934 50.195 37.7509 52.7833 32.4791 53.832C27.2072 54.8806 21.7428 54.3424 16.7769 52.2854C11.8109 50.2285 7.56642 46.7451 4.58016 42.2759C1.59391 37.8066 0 32.5522 0 27.1771C0 19.9693 2.86329 13.0567 7.95998 7.95998C13.0567 2.86329 19.9693 0 27.1771 0ZM27.1771 49.9708C31.6853 49.9708 36.0922 48.6339 39.8406 46.1293C43.589 43.6247 46.5105 40.0649 48.2357 35.8998C49.9609 31.7348 50.4123 27.1518 49.5328 22.7303C48.6533 18.3087 46.4824 14.2473 43.2947 11.0595C40.1069 7.87176 36.0455 5.70087 31.6239 4.82138C27.2024 3.94188 22.6193 4.39327 18.4543 6.11847C14.2893 7.84367 10.7294 10.7652 8.22483 14.5136C5.72023 18.262 4.3834 22.6689 4.3834 27.1771C4.3834 33.2223 6.78487 39.02 11.0595 43.2947C15.3342 47.5693 21.1318 49.9708 27.1771 49.9708Z" fill="#FCC369"/>
<path d="M28.9304 14.2022V26.7212C28.9334 27.1286 28.7904 27.5236 28.5272 27.8346L23.0216 34.5324C22.857 34.7185 22.651 34.8633 22.4202 34.9551C22.1894 35.0469 21.9402 35.0832 21.6928 35.061C21.4454 35.0388 21.2067 34.9588 20.9959 34.8274C20.7851 34.696 20.6081 34.5168 20.4792 34.3045C20.2448 33.9193 20.1436 33.4678 20.1911 33.0195C20.2387 32.5711 20.4323 32.1509 20.7422 31.8235L25.2133 26.5458C25.3513 26.3883 25.4262 26.1854 25.4237 25.976V14.2022C25.4005 13.958 25.4286 13.7116 25.5062 13.4788C25.5837 13.2461 25.7091 13.0321 25.8741 12.8506C26.0392 12.6691 26.2404 12.5241 26.4648 12.4249C26.6891 12.3257 26.9317 12.2744 27.1771 12.2744C27.4224 12.2744 27.665 12.3257 27.8894 12.4249C28.1138 12.5241 28.3149 12.6691 28.48 12.8506C28.6451 13.0321 28.7704 13.2461 28.848 13.4788C28.9256 13.7116 28.9536 13.958 28.9304 14.2022Z" fill="#555FA3"/>
<path d="M20.4792 34.3047C20.2448 33.9196 20.1436 33.468 20.1911 33.0197C20.2386 32.5714 20.4323 32.1511 20.7422 31.8237L25.2133 26.5461C25.3512 26.3885 25.4262 26.1856 25.4237 25.9762V14.2024C25.4236 13.8438 25.5173 13.4914 25.6954 13.1802C25.6058 13.1627 25.5149 13.1528 25.4237 13.1504C24.9358 13.1747 24.4774 13.3913 24.1488 13.7527C23.8202 14.1142 23.6481 14.5911 23.6703 15.0791V26.8529C23.6728 27.0623 23.5979 27.2652 23.4599 27.4227L18.9888 32.7004C18.6789 33.0278 18.4852 33.448 18.4377 33.8964C18.3902 34.3447 18.4914 34.7962 18.7258 35.1814C18.8547 35.3937 19.0316 35.5729 19.2424 35.7043C19.4533 35.8357 19.692 35.9157 19.9394 35.9379C20.1868 35.9601 20.436 35.9238 20.6668 35.832C20.8976 35.7402 21.1036 35.5954 21.2682 35.4093L21.575 35.0358C21.3518 34.9961 21.1393 34.9107 20.9507 34.7848C20.7621 34.659 20.6016 34.4955 20.4792 34.3047Z" fill="#E3EFFA"/>
<path d="M27.1769 2.62988C22.322 2.62988 17.5761 4.06954 13.5393 6.76681C9.50259 9.46407 6.35633 13.2978 4.49843 17.7832C2.64052 22.2686 2.15441 27.2042 3.10156 31.9658C4.04871 36.7275 6.38659 41.1013 9.81956 44.5343C13.2525 47.9673 17.6264 50.3052 22.388 51.2523C27.1497 52.1995 32.0853 51.7133 36.5707 49.8554C41.0561 47.9975 44.8898 44.8513 47.5871 40.8145C50.2843 36.7778 51.724 32.0319 51.724 27.1769C51.724 20.6666 49.1378 14.423 44.5343 9.81955C39.9309 5.21608 33.6872 2.62988 27.1769 2.62988ZM27.1769 49.9706C22.6688 49.9706 18.2618 48.6338 14.5134 46.1292C10.765 43.6246 7.84352 40.0647 6.11832 35.8997C4.39312 31.7347 3.94173 27.1516 4.82123 22.7301C5.70073 18.3086 7.87162 14.2471 11.0594 11.0594C14.2471 7.8716 18.3086 5.70072 22.7301 4.82122C27.1517 3.94172 31.7347 4.39311 35.8997 6.11831C40.0647 7.84351 43.6246 10.765 46.1292 14.5134C48.6338 18.2618 49.9706 22.6688 49.9706 27.1769C49.9706 33.2222 47.5691 39.0199 43.2945 43.2945C39.0199 47.5691 33.2222 49.9706 27.1769 49.9706Z" fill="#ED9B52"/>
<path d="M28.0539 8.76695V4.40546C27.7629 4.39494 27.4709 4.38354 27.1772 4.38354C26.8835 4.38354 26.5916 4.39494 26.3006 4.40546V8.76695H28.0539ZM26.3006 45.5875V49.949C26.5916 49.9595 26.8835 49.9709 27.1772 49.9709C27.4709 49.9709 27.7629 49.9595 28.0539 49.949V45.5875H26.3006ZM49.949 26.3006H45.5875V28.0539H49.949C49.9595 27.7629 49.9709 27.4709 49.9709 27.1772C49.9709 26.8835 49.9595 26.5916 49.949 26.3006ZM8.76695 26.3006H4.40546C4.39494 26.5916 4.38354 26.8835 4.38354 27.1772C4.38354 27.4709 4.39494 27.7629 4.40546 28.0539H8.76695V26.3006Z" fill="#555FA3"/>
</svg>
