<svg width="21" height="21" viewBox="0 0 21 21" fill="none" xmlns="http://www.w3.org/2000/svg">
<g clip-path="url(#clip0_1412_3824)">
<path d="M10.5 21C4.71007 21 0 16.2899 0 10.5C0 4.71007 4.71007 0 10.5 0C16.2899 0 21 4.71007 21 10.5C21 16.2899 16.2899 21 10.5 21ZM10.5 1.3125C5.43375 1.3125 1.3125 5.43375 1.3125 10.5C1.3125 15.5662 5.43375 19.6875 10.5 19.6875C15.5662 19.6875 19.6875 15.5662 19.6875 10.5C19.6875 5.43375 15.5662 1.3125 10.5 1.3125Z" fill="#7A7A7A"/>
<path d="M7.25209 14.4042C7.08401 14.4042 6.91593 14.3404 6.78821 14.2118C6.53186 13.9554 6.53186 13.5398 6.78821 13.2835L13.2851 6.7865C13.5416 6.53015 13.9572 6.53015 14.2135 6.7865C14.4699 7.04285 14.4699 7.45846 14.2135 7.71497L7.71656 14.2118C7.65556 14.2728 7.58314 14.3212 7.50344 14.3542C7.42375 14.3872 7.33832 14.4042 7.25205 14.4042H7.25209Z" fill="#7A7A7A"/>
<path d="M13.7479 14.4044C13.58 14.4044 13.4119 14.3406 13.2842 14.2119L6.78735 7.71591C6.53084 7.45956 6.53084 7.04395 6.78735 6.7876C7.0437 6.53109 7.45931 6.53109 7.71566 6.7876L14.2125 13.2844C14.469 13.5408 14.469 13.9564 14.2125 14.2127C14.1514 14.2736 14.079 14.3219 13.9992 14.3548C13.9195 14.3877 13.8341 14.4045 13.7479 14.4044Z" fill="#7A7A7A"/>
</g>
<defs>
<clipPath id="clip0_1412_3824">
<rect width="21" height="21" fill="white"/>
</clipPath>
</defs>
</svg>
