<svg width="30" height="29" viewBox="0 0 30 29" fill="none" xmlns="http://www.w3.org/2000/svg">
<path d="M1.77996 20.7431L0.0119962 5.86272C-0.118785 4.76381 0.848027 4.01365 1.53487 4.68102L7.04318 10.03C7.18636 10.1689 7.3499 10.2686 7.5238 10.3229C7.69771 10.3772 7.87835 10.3851 8.05468 10.346C8.23101 10.3069 8.39934 10.2217 8.54939 10.0955C8.69944 9.96938 8.82806 9.80497 8.9274 9.61231L13.5135 0.705634C13.9978 -0.235211 15.0654 -0.235211 15.5498 0.705634L20.1358 9.61231C20.2352 9.80497 20.3638 9.96938 20.5139 10.0955C20.6639 10.2217 20.8322 10.3069 21.0086 10.346C21.1849 10.3851 21.3655 10.3772 21.5394 10.3229C21.7133 10.2686 21.8769 10.1689 22.0201 10.03L27.5284 4.68102C28.2162 4.01365 29.182 4.76381 29.0512 5.86272L27.2833 20.7431H1.77996ZM25.9532 29H3.11006C2.93539 29 2.76243 28.9555 2.60105 28.8689C2.43968 28.7823 2.29305 28.6555 2.16954 28.4955C1.9201 28.1725 1.77996 27.7344 1.77996 27.2776V23.4954H27.2833V27.2776C27.2833 28.2285 26.6875 29 25.9532 29Z" fill="#FFB743"/>
</svg>
