<svg width="169" height="194" viewBox="0 0 169 194" fill="none" xmlns="http://www.w3.org/2000/svg">
<path d="M65.5512 163.502C63.7649 162.747 62.0052 161.882 60.277 160.905C52.7108 169.825 43.4885 178.725 32.7953 187.376C32.5324 187.587 32.3108 187.861 32.1434 188.184C31.9761 188.508 31.8664 188.873 31.8207 189.258C31.7749 189.644 31.7941 190.043 31.8771 190.431C31.9601 190.82 32.1052 191.191 32.304 191.522C32.5001 191.859 32.747 192.15 33.0303 192.379C33.3137 192.608 33.6278 192.77 33.9544 192.855C34.2809 192.94 34.6134 192.947 34.9323 192.875C35.2512 192.804 35.5501 192.655 35.8117 192.437C47.6348 182.865 57.6104 173.147 65.5512 163.502ZM99.8526 45.8392L115.165 37.2848C115.503 37.0908 115.88 36.9975 116.266 37.012C116.651 37.0265 117.036 37.1485 117.389 37.3683C117.743 37.5882 118.055 37.9001 118.303 38.2795C118.55 38.659 118.725 39.0958 118.815 39.5559L123.614 64.2743C130.119 97.7829 126.518 113.832 122.137 125.112C116.169 140.457 103.988 151.736 90.3494 154.548C86.1338 155.4 81.7582 155.454 77.3411 154.709C73.3961 154.095 69.4985 152.835 65.7576 150.965C59.9773 148.117 54.6908 143.908 50.4702 138.787C39.6414 125.629 34.9956 106.422 38.91 90.9901C42.3932 77.294 52.0024 73.0678 59.1695 73.6103C67.2927 74.2239 73.557 78.4194 77.7891 86.0726C83.6528 96.5866 84.7991 113.255 80.5591 126.606C78.4513 133.253 75.1601 140.064 70.7539 146.897C72.5658 147.571 74.4063 148.087 76.2605 148.44C80.1843 141.997 83.2256 135.513 85.2336 129.145C88.3421 119.402 88.9632 107.842 86.9402 97.4212C85.874 91.9288 84.1747 87.0668 81.8914 82.9711C76.6894 73.6405 68.8156 68.3249 59.1235 67.595C49.5409 66.8562 38.0971 73.1373 34.1244 88.8282C29.6629 106.375 34.8513 128.09 47.0345 142.876C50.9909 147.688 55.5825 151.664 60.5886 154.61C60.6001 154.617 60.6054 154.632 60.6169 154.639L60.6218 154.626C63.8513 156.604 67.2272 158.156 70.6865 159.253C77.5975 161.45 84.7059 161.876 91.5387 160.505C106.874 157.352 120.012 145.209 126.682 128.029C131.412 115.821 135.324 98.5823 128.481 63.3294L123.682 38.611C123.593 38.1508 123.592 37.6801 123.68 37.2356C123.767 36.7912 123.94 36.3851 124.186 36.049C124.431 35.7128 124.742 35.4558 125.095 35.298C125.447 35.1403 125.831 35.0859 126.217 35.1393L143.564 37.5577L114.571 4.21285L99.8545 45.8357L99.8526 45.8392Z" fill="#25A36F"/>
</svg>
