<svg width="54" height="52" viewBox="0 0 54 52" fill="none" xmlns="http://www.w3.org/2000/svg">
<path d="M35.8672 35.4014L34.6052 28.4951L39.9871 23.5966C41.045 22.6273 40.4697 20.931 38.985 20.7406L31.5431 19.7367L28.2212 13.4535C27.5531 12.2072 25.6602 12.2072 24.9921 13.4535L21.6701 19.7367L14.2283 20.7406C12.7622 20.9483 12.1683 22.6273 13.2261 23.5966L18.608 28.4951L17.346 35.4014C17.0862 36.7688 18.6266 37.8074 19.9442 37.1669L26.5881 33.9128L33.2319 37.1669C34.5681 37.8247 36.127 36.7688 35.8672 35.4014Z" fill="#F5C003"/>
<path d="M35.8672 35.4014L34.6052 28.4951L39.9871 23.5966C41.045 22.6273 40.4697 20.931 38.985 20.7406L31.5431 19.7367L28.2212 13.4535C27.5531 12.2072 25.6602 12.2072 24.9921 13.4535L21.6701 19.7367L14.2283 20.7406C12.7622 20.9483 12.1683 22.6273 13.2261 23.5966L18.608 28.4951L17.346 35.4014C17.0862 36.7688 18.6266 37.8074 19.9442 37.1669L26.5881 33.9128L33.2319 37.1669C34.5681 37.8247 36.127 36.7688 35.8672 35.4014Z" fill="#F5C003"/>
<path d="M38.985 20.7406L31.5431 19.7367L28.2212 13.4535C27.5531 12.2072 25.6602 12.2072 24.9921 13.4535L21.6701 19.7367L14.2283 20.7406C12.7622 20.9483 12.1683 22.6273 13.2261 23.5966L18.608 28.4951L17.346 35.4014C17.0862 36.7688 18.6266 37.8074 19.9442 37.1669L26.5881 33.9128L33.2319 37.1669C34.5496 37.8074 36.0899 36.7688 35.8301 35.4014L34.5681 28.4951L39.95 23.5966C41.045 22.6273 40.4511 20.9483 38.985 20.7406Z" fill="#F5C003"/>
<path d="M39.1147 20.7754C36.2938 27.2144 29.5015 31.7667 21.5771 31.7667C20.3708 31.7667 19.2017 31.6628 18.0696 31.4551L17.3458 35.4016C17.086 36.769 18.6264 37.8075 19.944 37.1671L26.5878 33.913L33.2317 37.1671C34.5494 37.8075 36.0897 36.769 35.8299 35.4016L34.5679 28.4952L39.9498 23.5968C41.0076 22.6621 40.488 21.0523 39.1147 20.7754Z" fill="#F3B007"/>
<path d="M35.8672 35.4014L34.6052 28.4951L39.9871 23.5966C41.045 22.6273 40.4697 20.931 38.985 20.7406L31.5431 19.7367L28.2212 13.4535C27.5531 12.2072 25.6602 12.2072 24.9921 13.4535L21.6701 19.7367L14.2283 20.7406C12.7622 20.9483 12.1683 22.6273 13.2261 23.5966L18.608 28.4951L17.346 35.4014C17.0862 36.7688 18.6266 37.8074 19.9442 37.1669L26.5881 33.9128L33.2319 37.1669C34.5681 37.8247 36.127 36.7688 35.8672 35.4014Z" fill="#F5C003"/>
<path d="M35.8672 35.4014L34.6052 28.4951L39.9871 23.5966C41.045 22.6273 40.4697 20.931 38.985 20.7406L31.5431 19.7367L28.2212 13.4535C27.5531 12.2072 25.6602 12.2072 24.9921 13.4535L21.6701 19.7367L14.2283 20.7406C12.7622 20.9483 12.1683 22.6273 13.2261 23.5966L18.608 28.4951L17.346 35.4014C17.0862 36.7688 18.6266 37.8074 19.9442 37.1669L26.5881 33.9128L33.2319 37.1669C34.5681 37.8247 36.127 36.7688 35.8672 35.4014Z" fill="#F5C003"/>
<path d="M39.1147 20.7754C36.2938 27.2144 29.5015 31.7667 21.5771 31.7667C20.3708 31.7667 19.2017 31.6628 18.0696 31.4551L17.3458 35.4016C17.086 36.769 18.6264 37.8075 19.944 37.1671L26.5878 33.913L33.2317 37.1671C34.5494 37.8075 36.0897 36.769 35.8299 35.4016L34.5679 28.4952L39.9498 23.5968C41.0076 22.6621 40.488 21.0523 39.1147 20.7754Z" fill="#F3B007"/>
<path d="M27.7201 38.9844L26.9963 38.6382C26.8108 38.5517 26.5881 38.517 26.4025 38.569C26.3282 38.5863 26.2726 38.6036 26.2169 38.6382L25.4931 38.9844C25.1962 39.1402 25.0106 39.4344 25.0477 39.7633L26.1798 51.1007C26.2354 51.5854 26.9963 51.5854 27.0335 51.1007L28.1655 39.7633V39.6421C28.1469 39.4863 28.0913 39.3306 27.9985 39.2094C27.9242 39.1229 27.8315 39.0363 27.7201 38.9844ZM52.2542 33.4282L41.045 28.9105C40.8779 28.8413 40.7109 28.824 40.5624 28.8586C40.3954 28.8932 40.2469 28.9624 40.117 29.0663L39.5417 29.5856C39.3376 29.776 39.2448 30.0356 39.3005 30.2952L39.4304 31.0395C39.4861 31.3511 39.7459 31.6107 40.0799 31.68L51.9943 34.1725C52.4954 34.2936 52.7367 33.6186 52.2542 33.4282ZM42.0285 5.59516L33.9743 14.1458C33.7516 14.3882 33.6959 14.7344 33.8443 15.0286L34.1969 15.7037C34.3269 15.946 34.5681 16.1018 34.8465 16.1364L35.6445 16.2402C35.9785 16.2922 36.3312 16.1364 36.4982 15.8594L42.7338 6.06251C42.9936 5.64709 42.3811 5.23167 42.0285 5.59516ZM11.1847 5.59516C10.8321 5.23167 10.2197 5.64709 10.4795 6.06251L16.715 15.8594C16.8821 16.1364 17.2347 16.2922 17.5687 16.2402L18.3667 16.1364C18.6451 16.1018 18.8864 15.9287 19.0163 15.7037L19.3689 15.0286C19.5173 14.7344 19.4802 14.3882 19.239 14.1458L11.1847 5.59516ZM13.7828 31.0568L13.9128 30.3125C13.9684 30.0529 13.8756 29.7933 13.6715 29.6029L13.0962 29.0836C12.8549 28.8586 12.4838 28.7893 12.1683 28.9278L0.959071 33.4455C0.476556 33.6359 0.717813 34.3109 1.21889 34.2071L13.1333 31.7146C13.4674 31.628 13.7272 31.3684 13.7828 31.0568ZM25.6416 8.50309L26.3282 8.72811C26.5138 8.78003 26.718 8.78003 26.885 8.72811L27.5716 8.50309C27.6644 8.46847 27.7572 8.43385 27.8315 8.36461C28.0542 8.19152 28.1841 7.91458 28.1284 7.63763L27.0335 0.350509C26.9592 -0.116836 26.254 -0.116836 26.1798 0.350509L25.0848 7.63763C25.0292 8.01843 25.2704 8.38192 25.6416 8.50309ZM8.40094 21.5022L8.82778 20.9656C8.93913 20.8272 9.01336 20.6541 8.99481 20.4637L8.97625 19.7886C8.97625 19.4078 8.67931 19.0962 8.27103 19.027L0.513672 17.7461C0.0125988 17.6596 -0.210101 18.3 0.253856 18.5077L7.34312 21.7272C7.71428 21.9003 8.14112 21.7965 8.40094 21.5022ZM15.8985 40.2653C15.7871 40.1095 15.6201 40.0056 15.4345 39.9537L14.7479 39.7633C14.3581 39.6594 13.9499 39.8152 13.7457 40.1441L10.0341 46.635C9.79281 47.0504 10.3867 47.4485 10.7207 47.1023L16.214 41.8231C16.4923 41.5461 16.5295 41.1307 16.3068 40.8191L15.8985 40.2653ZM39.4489 40.1441C39.2634 39.8152 38.8365 39.6421 38.4468 39.7633L37.7601 39.9537C37.5746 40.0056 37.4075 40.1095 37.2962 40.2653L36.8879 40.8191C36.6652 41.1307 36.7023 41.5461 36.9807 41.8231L42.4554 47.1197C42.808 47.4485 43.3833 47.0677 43.142 46.6523L39.4489 40.1441ZM52.6996 17.7461L44.9422 19.027C44.5339 19.0962 44.2555 19.4078 44.237 19.7886L44.2184 20.4637C44.2184 20.6368 44.2741 20.8272 44.3854 20.9656L44.8123 21.5022C45.0535 21.7965 45.4989 21.9003 45.8701 21.7272L52.9594 18.5077C53.4048 18.3 53.1821 17.6769 52.6996 17.7461Z" fill="#F5C003"/>
</svg>
