<svg width="32" height="32" viewBox="0 0 32 32" fill="none" xmlns="http://www.w3.org/2000/svg">
<path d="M19.2391 22.5596H16.1859C15.6393 22.5596 15.1859 22.1063 15.1859 21.5596C15.1859 21.0129 15.6393 20.5596 16.1859 20.5596H19.2391C19.8125 20.5596 20.2793 20.0929 20.2793 19.5196C20.2793 18.9463 19.8125 18.4796 19.2391 18.4796H16.1859C15.8659 18.4796 15.5593 18.3196 15.3726 18.0663C15.1859 17.8129 15.1325 17.4663 15.2391 17.1596L16.2525 14.1063C16.3858 13.6929 16.7726 13.4263 17.1993 13.4263H21.2793C21.8259 13.4263 22.2793 13.8796 22.2793 14.4263C22.2793 14.9729 21.8259 15.4263 21.2793 15.4263H17.9191L17.5725 16.4796H19.2391C20.9191 16.4796 22.2793 17.8396 22.2793 19.5196C22.2793 21.1996 20.9058 22.5596 19.2391 22.5596Z" fill="#4A148C"/>
<path d="M12.7195 22.5598C12.1728 22.5598 11.7195 22.1064 11.7195 21.5598V17.0399L11.4661 17.3331C11.0928 17.7464 10.4661 17.7731 10.0528 17.4131C9.63948 17.0398 9.61281 16.4131 9.97281 15.9998L11.9728 13.7731C12.2528 13.4664 12.6928 13.3598 13.0795 13.5064C13.4662 13.6531 13.7194 14.0264 13.7194 14.4398V21.5731C13.7194 22.1198 13.2795 22.5598 12.7195 22.5598Z" fill="#4A148C"/>
<path opacity="0.4" d="M26.2532 9.80028C25.9198 9.36028 25.2931 9.267 24.8532 9.60033C24.4132 9.93366 24.3198 10.5603 24.6532 11.0003C26.0932 12.9203 26.8532 15.1603 26.8532 17.4803C26.8532 23.4669 21.9865 28.3336 15.9998 28.3336C10.0132 28.3336 5.14649 23.4669 5.14649 17.4803C5.14649 11.4936 10.0132 6.62694 15.9998 6.62694C16.7732 6.62694 17.5598 6.72032 18.4132 6.92032C18.4532 6.93365 18.4932 6.92032 18.5332 6.92032C18.5732 6.92032 18.5998 6.94701 18.6265 6.94701C18.6665 6.94701 18.6932 6.93366 18.7332 6.93366C18.7732 6.93366 18.8132 6.9203 18.8665 6.90697C18.9465 6.89364 19.0132 6.85364 19.0798 6.82697C19.1198 6.8003 19.1598 6.78698 19.1998 6.76032C19.2132 6.74698 19.2398 6.74696 19.2532 6.73362C19.2932 6.70696 19.3065 6.66696 19.3332 6.64029C19.3865 6.58696 19.4265 6.54696 19.4665 6.48029C19.5065 6.42696 19.5198 6.36028 19.5465 6.29361C19.5598 6.25361 19.5865 6.21365 19.5998 6.17365C19.5998 6.14698 19.5998 6.13366 19.5998 6.107C19.6132 6.04033 19.6132 5.97364 19.5998 5.90697C19.5998 5.8403 19.5998 5.78694 19.5865 5.72028C19.5732 5.66694 19.5465 5.61361 19.5198 5.54694C19.4932 5.48028 19.4665 5.41368 19.4265 5.36034C19.4132 5.34701 19.4132 5.32029 19.3998 5.30696L16.7598 2.01366C16.4132 1.587 15.7865 1.507 15.3598 1.85366C14.9332 2.20033 14.8665 2.82698 15.1998 3.25365L16.2932 4.61368C16.1865 4.61368 16.0798 4.60033 15.9732 4.60033C8.89315 4.60033 3.11987 10.3603 3.11987 17.4537C3.11987 24.5471 8.87982 30.3069 15.9732 30.3069C23.0665 30.3069 28.8265 24.5471 28.8265 17.4537C28.8532 14.7204 27.9465 12.0669 26.2532 9.80028Z" fill="#4A148C"/>
</svg>
