<svg width="32" height="32" viewBox="0 0 32 32" fill="none" xmlns="http://www.w3.org/2000/svg">
<g clip-path="url(#clip0_251_619)">
<path d="M16 32C24.8366 32 32 24.8366 32 16C32 7.16344 24.8366 0 16 0C7.16344 0 0 7.16344 0 16C0 24.8366 7.16344 32 16 32Z" fill="#ECF0F1"/>
<path d="M16 2.2069C23.6055 2.2069 29.7931 8.39448 29.7931 16C29.7931 23.6055 23.6055 29.7931 16 29.7931C8.39448 29.7931 2.2069 23.6055 2.2069 16C2.2069 8.39448 8.39448 2.2069 16 2.2069ZM16 0C7.16359 0 0 7.16359 0 16C0 24.8364 7.16359 32 16 32C24.8364 32 32 24.8364 32 16C32 7.16359 24.8364 0 16 0Z" fill="#4A148C"/>
<path d="M16 3.24365C15.6954 3.24365 15.4482 3.49027 15.4482 3.79538V4.3471C15.4482 4.6522 15.6954 4.89882 16 4.89882C16.3045 4.89882 16.5517 4.6522 16.5517 4.3471V3.79538C16.5517 3.49027 16.3045 3.24365 16 3.24365Z" fill="white"/>
<path d="M16 26.9678C15.6954 26.9678 15.4482 27.2144 15.4482 27.5195V28.0712C15.4482 28.3763 15.6954 28.6229 16 28.6229C16.3045 28.6229 16.5517 28.3763 16.5517 28.0712V27.5195C16.5517 27.2144 16.3045 26.9678 16 26.9678Z" fill="white"/>
<path d="M28.1379 15.3813H27.5861C27.2816 15.3813 27.0344 15.628 27.0344 15.9331C27.0344 16.2382 27.2816 16.4848 27.5861 16.4848H28.1379C28.4424 16.4848 28.6896 16.2382 28.6896 15.9331C28.6896 15.628 28.4424 15.3813 28.1379 15.3813Z" fill="white"/>
<path d="M4.41375 15.3813H3.86203C3.55748 15.3813 3.3103 15.628 3.3103 15.9331C3.3103 16.2382 3.55748 16.4848 3.86203 16.4848H4.41375C4.7183 16.4848 4.96548 16.2382 4.96548 15.9331C4.96548 15.628 4.7183 15.3813 4.41375 15.3813Z" fill="white"/>
<path d="M24.1925 6.96013L23.8024 7.3502C23.5867 7.56593 23.5867 7.91462 23.8024 8.13034C23.91 8.23793 24.0512 8.292 24.1925 8.292C24.3337 8.292 24.475 8.23793 24.5826 8.13034L24.9726 7.74027C25.1884 7.52455 25.1884 7.17586 24.9726 6.96013C24.7569 6.74441 24.4082 6.74441 24.1925 6.96013Z" fill="white"/>
<path d="M7.41734 23.7358L7.02727 24.1259C6.81155 24.3416 6.81155 24.6903 7.02727 24.906C7.13486 25.0136 7.2761 25.0677 7.41734 25.0677C7.55858 25.0677 7.69982 25.0136 7.80741 24.906L8.19748 24.5159C8.4132 24.3002 8.4132 23.9515 8.19748 23.7358C7.98175 23.5201 7.63251 23.5206 7.41734 23.7358Z" fill="white"/>
<path d="M24.5826 23.736C24.3668 23.5203 24.0181 23.5203 23.8024 23.736C23.5867 23.9517 23.5867 24.3004 23.8024 24.5162L24.1925 24.9062C24.3001 25.0138 24.4413 25.0679 24.5826 25.0679C24.7238 25.0679 24.865 25.0138 24.9726 24.9062C25.1884 24.6905 25.1884 24.3418 24.9726 24.1261L24.5826 23.736Z" fill="white"/>
<path d="M7.80741 6.96013C7.59169 6.74441 7.243 6.74441 7.02727 6.96013C6.81155 7.17586 6.81155 7.52455 7.02727 7.74027L7.41734 8.13034C7.52493 8.23793 7.66617 8.292 7.80741 8.292C7.94865 8.292 8.08989 8.23793 8.19748 8.13034C8.4132 7.91462 8.4132 7.56593 8.19748 7.3502L7.80741 6.96013Z" fill="white"/>
<path d="M14.3449 16.4848H9.93112C9.62602 16.4848 9.37939 16.2382 9.37939 15.9331C9.37939 15.628 9.62602 15.3813 9.93112 15.3813H14.3449C14.65 15.3813 14.8966 15.628 14.8966 15.9331C14.8966 16.2382 14.65 16.4848 14.3449 16.4848Z" fill="#4A148C"/>
<path d="M16 14.8296C15.6949 14.8296 15.4482 14.583 15.4482 14.2779V8.20895C15.4482 7.90385 15.6949 7.65723 16 7.65723C16.3051 7.65723 16.5517 7.90385 16.5517 8.20895V14.2779C16.5517 14.583 16.3051 14.8296 16 14.8296Z" fill="#4A148C"/>
<path d="M16.0001 18.1404C14.783 18.1404 13.7932 17.1506 13.7932 15.9335C13.7932 14.7164 14.783 13.7266 16.0001 13.7266C17.2172 13.7266 18.207 14.7164 18.207 15.9335C18.207 17.1506 17.2172 18.1404 16.0001 18.1404ZM16.0001 14.83C15.3916 14.83 14.8967 15.3249 14.8967 15.9335C14.8967 16.542 15.3916 17.0369 16.0001 17.0369C16.6087 17.0369 17.1036 16.542 17.1036 15.9335C17.1036 15.3249 16.6087 14.83 16.0001 14.83Z" fill="#4A148C"/>
<path d="M24.7669 32.0001C28.5758 32.0001 31.6635 28.9124 31.6635 25.1036C31.6635 21.2947 28.5758 18.207 24.7669 18.207C20.9581 18.207 17.8704 21.2947 17.8704 25.1036C17.8704 28.9124 20.9581 32.0001 24.7669 32.0001Z" fill="white"/>
<path d="M24.767 19.3105C22.1639 19.3105 19.8677 21.0661 19.183 23.5792C19.1024 23.8733 19.2762 24.1768 19.5703 24.2568C19.8616 24.3357 20.1673 24.1641 20.2478 23.8694C20.8017 21.8347 22.6599 20.414 24.767 20.414C27.3529 20.414 29.4566 22.5177 29.4566 25.1037C29.4566 27.6896 27.3529 29.7933 24.767 29.7933C22.9104 29.7933 21.2481 28.6893 20.4999 27.0347H23.3877V25.9312H20.0773H19.5256H18.9739V30.345H20.0773V28.5017V28.489C21.1438 29.9643 22.8724 30.8968 24.767 30.8968C27.9615 30.8968 30.5601 28.2981 30.5601 25.1037C30.5601 21.9092 27.9615 19.3105 24.767 19.3105Z" fill="#4A148C"/>
</g>
<defs>
<clipPath id="clip0_251_619">
<rect width="32" height="32" fill="white"/>
</clipPath>
</defs>
</svg>
