<svg width="32" height="32" viewBox="0 0 32 32" fill="none" xmlns="http://www.w3.org/2000/svg">
<path d="M30.2097 29.6331H1.79035C0.803176 29.6331 0 28.8299 0 27.8427V4.15705C0 3.16988 0.803176 2.3667 1.79035 2.3667H30.2095C31.1967 2.3667 31.9998 3.16988 31.9998 4.15705V27.8426C32 28.8299 31.1968 29.6331 30.2097 29.6331ZM1.79035 2.97899C1.1407 2.97899 0.612294 3.50756 0.612294 4.15705V27.8426C0.612294 28.4922 1.1407 29.0206 1.79035 29.0206H30.2095C30.8591 29.0206 31.3876 28.492 31.3876 27.8426V4.15705C31.3876 3.5074 30.8591 2.97899 30.2095 2.97899H1.79035ZM15.9998 28.1779C15.1726 28.1779 14.4996 27.5049 14.4996 26.6777C14.4996 25.8505 15.1725 25.1774 15.9998 25.1774C16.8272 25.1774 17.5001 25.8503 17.5001 26.6777C17.5001 27.505 16.8272 28.1779 15.9998 28.1779ZM15.9998 25.7897C15.5103 25.7897 15.1119 26.188 15.1119 26.6777C15.1119 27.1674 15.5103 27.5656 15.9998 27.5656C16.4894 27.5656 16.8878 27.1672 16.8878 26.6777C16.8878 26.1881 16.4895 25.7897 15.9998 25.7897ZM29.9035 24.4443H2.09649C1.9275 24.4443 1.79035 24.3072 1.79035 24.1382V5.27464C1.79035 5.10564 1.9275 4.96849 2.09649 4.96849H29.9034C30.0723 4.96849 30.2095 5.10564 30.2095 5.27464V24.1382C30.2097 24.3073 30.0725 24.4443 29.9035 24.4443ZM2.40264 23.832H29.5972V5.58078H2.40264V23.832ZM15.9998 19.6736C13.5098 19.6736 11.4842 17.6479 11.4842 15.158C11.4842 12.6681 13.5098 10.6423 15.9998 10.6423C18.4899 10.6423 20.5155 12.6681 20.5155 15.158C20.5155 17.6479 18.4899 19.6736 15.9998 19.6736ZM15.9998 11.2546C13.8475 11.2546 12.0965 13.0056 12.0965 15.158C12.0965 17.3103 13.8475 19.0613 15.9998 19.0613C18.1522 19.0613 19.9032 17.3103 19.9032 15.158C19.9032 13.0056 18.1522 11.2546 15.9998 11.2546ZM14.8198 17.3953C14.713 17.3953 14.6061 17.3671 14.5086 17.311C14.3137 17.1984 14.1973 16.9968 14.1973 16.7718V13.5441C14.1973 13.319 14.3137 13.1175 14.5086 13.005C14.7032 12.8926 14.9361 12.8925 15.131 13.005L17.9261 14.6187C18.121 14.7311 18.2375 14.9327 18.2375 15.1578C18.2375 15.383 18.121 15.5846 17.926 15.6969L15.131 17.3106C15.0336 17.3671 14.9268 17.3953 14.8198 17.3953ZM14.825 13.5352L14.8095 13.5441V16.7717L14.825 16.7806L17.6201 15.1669V15.1491L14.825 13.5352ZM17.4286 4.35788H14.5712C14.4022 4.35788 14.2651 4.22072 14.2651 4.05173C14.2651 3.88274 14.4022 3.74558 14.5712 3.74558H17.4286C17.5976 3.74558 17.7348 3.88274 17.7348 4.05173C17.7348 4.22072 17.5978 4.35788 17.4286 4.35788Z" fill="#4A148C"/>
</svg>
