<svg width="32" height="32" viewBox="0 0 32 32" fill="none" xmlns="http://www.w3.org/2000/svg">
<path d="M23.68 16.6112C22.2842 16.6084 20.9189 17.0197 19.757 17.7931C18.595 18.5665 17.6886 19.6673 17.1525 20.956C16.6164 22.2448 16.4747 23.6636 16.7452 25.033C17.0158 26.4023 17.6865 27.6606 18.6725 28.6486C19.6585 29.6366 20.9155 30.3099 22.2843 30.5832C23.653 30.8566 25.0722 30.7177 26.362 30.1842C27.6518 29.6507 28.7544 28.7465 29.5302 27.5861C30.3059 26.4258 30.72 25.0613 30.72 23.6655C30.7198 21.7971 29.9785 20.0051 28.6587 18.6827C27.3389 17.3602 25.5484 16.6152 23.68 16.6112ZM26.6925 25.7773C26.811 25.8977 26.8772 26.06 26.8766 26.2289C26.876 26.3978 26.8088 26.5597 26.6895 26.6792C26.5701 26.7988 26.4084 26.8664 26.2395 26.8673C26.0706 26.8682 25.9082 26.8024 25.7875 26.6841L23.68 24.5723L21.5725 26.6841C21.4512 26.8017 21.2889 26.8675 21.12 26.8675C20.9511 26.8675 20.7888 26.8017 20.6675 26.6841C20.5474 26.5638 20.48 26.4007 20.48 26.2307C20.48 26.0607 20.5474 25.8976 20.6675 25.7773L22.775 23.6655L20.6675 21.5537C20.549 21.4334 20.4827 21.271 20.4833 21.1021C20.4838 20.9331 20.5511 20.7712 20.6704 20.6516C20.7898 20.532 20.9515 20.4644 21.1205 20.4635C21.2894 20.4626 21.4519 20.5285 21.5725 20.6469L23.68 22.7587L25.7875 20.6469C25.9081 20.5285 26.0706 20.4626 26.2396 20.4635C26.4085 20.4644 26.5703 20.532 26.6896 20.6516C26.809 20.7712 26.8763 20.9331 26.8768 21.1021C26.8773 21.271 26.8111 21.4334 26.6925 21.5537L24.585 23.6655L26.6925 25.7773ZM26.88 10.1982C26.884 10.0929 26.8946 9.98798 26.9117 9.88399C27.6243 9.75018 28.3244 9.55686 29.0047 9.30608C29.1966 9.23477 29.403 9.21111 29.6061 9.23713C29.8092 9.26315 30.0029 9.33806 30.1707 9.45544C30.3402 9.57371 30.4788 9.73119 30.5744 9.91449C30.6701 10.0978 30.72 10.3015 30.72 10.5082V12.4066C30.3328 12.6376 29.8909 12.7608 29.44 12.7634C28.7606 12.762 28.1095 12.4911 27.6296 12.0102C27.1497 11.5293 26.8801 10.8776 26.88 10.1982ZM2.55221 8.6047C2.89812 8.47623 3.24386 8.36812 3.58956 8.2696C3.9858 8.60989 4.26825 9.06343 4.39886 9.56914C4.52948 10.0748 4.50198 10.6084 4.32009 11.098C4.13819 11.5877 3.81062 12.0098 3.38151 12.3075C2.95239 12.6053 2.44233 12.7644 1.92003 12.7634C1.70368 12.7606 1.48858 12.73 1.28003 12.6723V10.4193C1.28261 10.0234 1.40574 9.6377 1.63301 9.31352C1.86028 8.98935 2.18092 8.7421 2.55221 8.6047ZM5.12003 28.1546C5.11606 28.2613 5.10532 28.3677 5.08788 28.4731C4.37576 28.6052 3.67607 28.7971 2.99628 29.047C2.8039 29.1181 2.59717 29.1416 2.39375 29.1154C2.19033 29.0892 1.99627 29.0142 1.82816 28.8967C1.65893 28.7784 1.52075 28.621 1.42533 28.4379C1.3299 28.2548 1.28006 28.0514 1.28003 27.8449V25.9463C1.66721 25.7152 2.10916 25.592 2.56003 25.5894C3.23943 25.5909 3.89051 25.8618 4.37044 26.3427C4.85036 26.8236 5.11994 27.4752 5.12003 28.1546ZM16 14.046C14.6938 14.0484 13.4378 14.549 12.488 15.4457C11.5383 16.3424 10.9664 17.5677 10.8891 18.8716C10.8117 20.1755 11.2347 21.4597 12.0718 22.4624C12.9089 23.4651 14.097 24.1107 15.3937 24.2675C15.3793 24.0676 15.36 23.869 15.36 23.6655C15.3617 22.0889 15.8102 20.5451 16.6536 19.213C17.4969 17.881 18.7005 16.8152 20.1249 16.1393C19.6489 15.4921 19.0278 14.9656 18.3114 14.6021C17.595 14.2385 16.8034 14.0481 16 14.046ZM16 16.6112C15.3206 16.6127 14.6695 16.8836 14.1896 17.3645C13.7097 17.8454 13.4401 18.497 13.44 19.1764C13.44 19.3461 13.3726 19.5089 13.2526 19.629C13.1326 19.749 12.9698 19.8164 12.8 19.8164C12.6303 19.8164 12.4675 19.749 12.3475 19.629C12.2275 19.5089 12.16 19.3461 12.16 19.1764C12.1601 18.1573 12.5645 17.1798 13.2844 16.4585C14.0043 15.7371 14.9809 15.3308 16 15.3286C16.1701 15.3286 16.3332 15.3962 16.4535 15.5165C16.5738 15.6367 16.6413 15.7998 16.6413 15.9699C16.6413 16.14 16.5738 16.3031 16.4535 16.4234C16.3332 16.5437 16.1701 16.6112 16 16.6112ZM5.12003 3.42069V2.63292C5.12059 2.31427 5.23895 2.00708 5.45234 1.77043C5.66573 1.53377 5.95907 1.38437 6.27597 1.35095C9.59693 1.04251 12.9244 1.7931 16.1403 2.51831C19.2178 3.21222 22.3991 3.92929 25.4816 3.67095C25.6585 3.65602 25.8366 3.67776 26.0047 3.73483C26.1728 3.7919 26.3274 3.88306 26.4587 4.0026C26.5899 4.12215 26.6951 4.2675 26.7676 4.42957C26.8401 4.59164 26.8784 4.76693 26.88 4.94447V5.37331C20.5953 6.59898 14.3127 3.12204 7.87316 3.20783C6.95129 3.20655 6.03074 3.27772 5.12003 3.42069ZM3.20003 6.95861V6.15914C3.19793 5.87103 3.29325 5.59066 3.47052 5.36352C3.64778 5.13638 3.8966 4.9758 4.17659 4.90783C8.2144 3.93806 12.2432 4.84615 16.1403 5.7248C19.9769 6.58999 23.6016 7.40696 27.2631 6.60567C28.1092 6.39937 29.6071 7.76714 28.8 8.03765C27.9913 8.34505 27.1544 8.57245 26.3013 8.71658C19.2028 9.62026 12.0446 5.2913 4.79878 6.67548L3.20003 6.95861ZM29.44 14.046C28.4209 14.0439 27.4443 13.6376 26.7244 12.9162C26.0045 12.1948 25.6001 11.2174 25.6 10.1982C25.6 10.1551 25.6051 10.1132 25.6065 10.0704C22.5089 10.3629 19.3908 9.66415 16.1407 8.9313C12.5096 8.1128 8.77746 7.27388 5.02136 7.93854C5.50119 8.59427 5.7599 9.38569 5.76003 10.1982C5.75995 11.2174 5.3556 12.1948 4.6357 12.9162C3.9158 13.6376 2.93915 14.0439 1.92003 14.046C1.70545 14.0447 1.49136 14.0253 1.28003 13.9881V24.5313C1.69068 24.3837 2.12365 24.3077 2.56003 24.3068C3.57915 24.3089 4.5558 24.7153 5.2757 25.4366C5.9956 26.158 6.39995 27.1355 6.40003 28.1546C6.40003 28.2005 6.39476 28.245 6.39316 28.2905C9.47823 28.0087 12.5842 28.7171 15.8213 29.46C16.6375 29.6475 17.4633 29.8351 18.2941 30.0083C16.9407 28.8546 15.9907 27.2991 15.5824 25.5682C14.4917 25.4992 13.4368 25.1523 12.518 24.5607C11.5991 23.9691 10.8468 23.1524 10.3325 22.1881C9.81827 21.2238 9.55912 20.1441 9.57972 19.0514C9.60032 17.9588 9.89998 16.8896 10.4502 15.9453C11.0005 15.0011 11.783 14.2133 12.7235 13.6568C13.664 13.1002 14.7312 12.7934 15.8237 12.7655C16.9162 12.7376 17.9977 12.9895 18.9654 13.4973C19.9331 14.0051 20.7548 14.752 21.3526 15.6668C23.0901 15.1539 24.948 15.226 26.6405 15.8721C28.333 16.5182 29.7663 17.7025 30.72 19.2428V13.8216C30.3094 13.9692 29.8764 14.0451 29.44 14.046ZM7.04003 19.8177H5.76003C5.58995 19.8177 5.42683 19.7501 5.30656 19.6299C5.1863 19.5096 5.11873 19.3465 5.11873 19.1764C5.11873 19.0063 5.1863 18.8432 5.30656 18.7229C5.42683 18.6027 5.58995 18.5351 5.76003 18.5351H7.04003C7.21011 18.5351 7.37323 18.6027 7.4935 18.7229C7.61376 18.8432 7.68133 19.0063 7.68133 19.1764C7.68133 19.3465 7.61376 19.5096 7.4935 19.6299C7.37323 19.7501 7.21011 19.8177 7.04003 19.8177Z" fill="white"/>
</svg>
