<svg width="32" height="32" viewBox="0 0 32 32" fill="none" xmlns="http://www.w3.org/2000/svg">
<g clip-path="url(#clip0_251_645)">
<path fill-rule="evenodd" clip-rule="evenodd" d="M32.0002 6.4C32.0002 7.2832 31.2834 8 30.4002 8H27.2002V11.2C27.2002 12.0832 26.4834 12.8 25.6002 12.8C24.717 12.8 24.0002 12.0832 24.0002 11.2V8H20.8002C19.917 8 19.2002 7.2832 19.2002 6.4C19.2002 5.5168 19.917 4.8 20.8002 4.8H24.0002V1.6C24.0002 0.7168 24.717 0 25.6002 0C26.4834 0 27.2002 0.7168 27.2002 1.6V4.8H30.4002C31.2834 4.8 32.0002 5.5168 32.0002 6.4ZM18.7842 28.8H5.77942C4.50742 28.8 3.70262 27.3584 4.43542 26.3184C6.16182 23.872 9.00022 22.2658 12.213 22.2434C12.2354 22.2434 12.2578 22.2496 12.2802 22.2496C12.3042 22.2496 12.325 22.2434 12.349 22.2434C15.5634 22.2658 18.4034 23.8704 20.1282 26.3184C20.861 27.3584 20.0578 28.8 18.7842 28.8ZM12.2802 12.6496C14.045 12.6496 15.4802 14.0848 15.4802 15.8496C15.4802 17.592 14.0802 19.0066 12.349 19.0434C12.325 19.0434 12.3042 19.0398 12.2802 19.0398C12.2578 19.0398 12.2354 19.0434 12.213 19.0434C10.4802 19.0066 9.08022 17.592 9.08022 15.8496C9.08022 14.0848 10.517 12.6496 12.2802 12.6496ZM17.1218 19.9922C18.4498 18.4434 19.0898 16.2882 18.4002 13.9586C17.765 11.8082 15.957 10.1104 13.7698 9.61758C9.58742 8.67518 5.88022 11.8288 5.88022 15.8496C5.88022 17.4384 6.48022 18.8738 7.43862 19.9922C4.03222 21.3842 1.35702 24.2894 0.161819 27.8398C-0.526181 29.8878 1.07062 32 3.23062 32H21.3298C23.4898 32 25.0882 29.8878 24.3986 27.8398C23.2034 24.2894 20.5298 21.3842 17.1218 19.9922Z" fill="#4A148C"/>
</g>
<defs>
<clipPath id="clip0_251_645">
<rect width="32" height="32" fill="white"/>
</clipPath>
</defs>
</svg>
