<svg width="32" height="32" viewBox="0 0 32 32" fill="none" xmlns="http://www.w3.org/2000/svg">
<path fill-rule="evenodd" clip-rule="evenodd" d="M12.3956 6.30286V7.0044C8.80919 8.47509 6.30355 13.3056 6.39447 17.4921L6.39444 19.8173C4.55848 22.1776 4.66651 25.6968 9.24699 25.6968H12.3956C12.3956 26.6612 12.7714 27.5861 13.4405 28.2681C14.1094 28.9501 15.0167 29.3332 15.9629 29.3332C16.909 29.3332 17.8163 28.9501 18.4853 28.2681C19.1542 27.5861 19.5301 26.6612 19.5301 25.6968H22.6874C27.2591 25.6968 27.3254 22.1702 25.4897 19.81L25.5407 17.4953C25.6331 13.304 23.1226 8.46909 19.5301 7.00049V6.30286C19.5301 5.33844 19.1542 4.41352 18.4853 3.73157C17.8163 3.04962 16.909 2.6665 15.9629 2.6665C15.0167 2.6665 14.1094 3.04962 13.4405 3.73157C12.7714 4.41352 12.3956 5.33844 12.3956 6.30286ZM17.1519 6.30286C17.1519 6.30286 17.1511 6.35202 17.1497 6.37645C16.7625 6.32788 16.3679 6.30286 15.9677 6.30286C15.5641 6.30286 15.1663 6.32829 14.7761 6.37764C14.7745 6.35282 14.7738 6.32788 14.7738 6.30286C14.7738 5.9814 14.899 5.67309 15.1221 5.44577C15.345 5.21845 15.6475 5.09074 15.9629 5.09074C16.2782 5.09074 16.5806 5.21845 16.8037 5.44577C17.0266 5.67309 17.1519 5.9814 17.1519 6.30286ZM14.7738 25.6968C14.7738 26.0182 14.899 26.3266 15.1221 26.554C15.345 26.7812 15.6475 26.9089 15.9629 26.9089C16.2782 26.9089 16.5806 26.7812 16.8037 26.554C17.0266 26.3266 17.1519 26.0182 17.1519 25.6968H14.7738ZM22.6874 23.2725C23.7033 23.2725 24.2513 22.0578 23.5902 21.2716C23.2689 20.8896 23.0978 20.4036 23.1089 19.9046L23.1631 17.4409C23.2539 13.3254 20.0059 8.7271 15.9677 8.7271C11.9303 8.7271 8.68269 13.3239 8.77205 17.4384L8.82563 19.905C8.83647 20.4038 8.66532 20.8897 8.34416 21.2716C7.68303 22.0578 8.23108 23.2725 9.24699 23.2725H22.6874ZM22.6399 4.2692C23.0594 3.66401 23.8902 3.51349 24.4954 3.93301C26.0257 4.99378 27.8609 7.53781 28.8629 10.55C29.0953 11.2487 28.7173 12.0036 28.0186 12.236C27.3198 12.4684 26.565 12.0904 26.3325 11.3917C25.4523 8.74582 23.8962 6.76236 22.9762 6.12461C22.371 5.70509 22.2205 4.8744 22.6399 4.2692ZM7.24048 3.93301C7.84568 3.51349 8.67637 3.66401 9.09588 4.2692C9.5154 4.8744 9.36488 5.70509 8.75969 6.12461C7.83966 6.76236 6.28349 8.74582 5.40331 11.3917C5.17087 12.0904 4.416 12.4684 3.71727 12.236C3.01853 12.0036 2.64053 11.2487 2.87297 10.55C3.875 7.53781 5.71021 4.99378 7.24048 3.93301Z" fill="#4A148C"/>
</svg>
