<svg width="32" height="32" viewBox="0 0 32 32" fill="none" xmlns="http://www.w3.org/2000/svg">
<path d="M26.3066 22.2175C26.9664 21.4007 27.3285 20.3835 27.3333 19.3335C27.3333 18.0958 26.8416 16.9088 25.9664 16.0337C25.0912 15.1585 23.9043 14.6668 22.6666 14.6668C21.4289 14.6668 20.2419 15.1585 19.3668 16.0337C18.4916 16.9088 17.9999 18.0958 17.9999 19.3335C18.0047 20.3835 18.3667 21.4007 19.0266 22.2175C17.8036 22.8453 16.7616 23.7757 15.9999 24.9202C15.2382 23.7757 14.1963 22.8453 12.9733 22.2175C13.6331 21.4007 13.9952 20.3835 13.9999 19.3335C13.9999 18.0958 13.5083 16.9088 12.6331 16.0337C11.7579 15.1585 10.5709 14.6668 9.33325 14.6668C8.09557 14.6668 6.90859 15.1585 6.03342 16.0337C5.15825 16.9088 4.66659 18.0958 4.66658 19.3335C4.67132 20.3835 5.03341 21.4007 5.69325 22.2175C4.38201 22.8875 3.28112 23.9064 2.51183 25.1619C1.74255 26.4175 1.33471 27.861 1.33325 29.3335C1.33325 29.6871 1.47373 30.0263 1.72378 30.2763C1.97382 30.5264 2.31296 30.6668 2.66659 30.6668H29.3333C29.6869 30.6668 30.026 30.5264 30.2761 30.2763C30.5261 30.0263 30.6666 29.6871 30.6666 29.3335C30.6651 27.861 30.2573 26.4175 29.488 25.1619C28.7187 23.9064 27.6178 22.8875 26.3066 22.2175ZM9.33325 17.3335C9.72881 17.3335 10.1155 17.4508 10.4444 17.6706C10.7733 17.8903 11.0296 18.2027 11.181 18.5681C11.3324 18.9336 11.372 19.3357 11.2948 19.7237C11.2177 20.1116 11.0272 20.468 10.7475 20.7477C10.4678 21.0274 10.1114 21.2179 9.72343 21.2951C9.33547 21.3722 8.93334 21.3326 8.56788 21.1813C8.20243 21.0299 7.89008 20.7735 7.67031 20.4446C7.45055 20.1157 7.33325 19.7291 7.33325 19.3335C7.33325 18.8031 7.54396 18.2944 7.91904 17.9193C8.29411 17.5442 8.80282 17.3335 9.33325 17.3335ZM4.16792 28.0002C4.46258 26.8541 5.13 25.8386 6.06512 25.1135C7.00024 24.3884 8.14994 23.9949 9.33325 23.9949C10.5166 23.9949 11.6663 24.3884 12.6014 25.1135C13.5365 25.8386 14.2039 26.8541 14.4986 28.0002H4.16792ZM22.6666 17.3335C23.0621 17.3335 23.4488 17.4508 23.7777 17.6706C24.1066 17.8903 24.363 18.2027 24.5143 18.5681C24.6657 18.9336 24.7053 19.3357 24.6282 19.7237C24.551 20.1116 24.3605 20.468 24.0808 20.7477C23.8011 21.0274 23.4447 21.2179 23.0568 21.2951C22.6688 21.3722 22.2667 21.3326 21.9012 21.1813C21.5358 21.0299 21.2234 20.7735 21.0036 20.4446C20.7839 20.1157 20.6666 19.7291 20.6666 19.3335C20.6666 18.8031 20.8773 18.2944 21.2524 17.9193C21.6274 17.5442 22.1362 17.3335 22.6666 17.3335ZM17.5026 28.0002C17.7982 26.8553 18.4658 25.8411 19.4006 25.1171C20.3353 24.393 21.4842 24.0001 22.6666 24.0001C23.849 24.0001 24.9978 24.393 25.9326 25.1171C26.8674 25.8411 27.535 26.8553 27.8306 28.0002H17.5026ZM9.59992 11.2002C9.38774 11.4831 9.29664 11.8387 9.34665 12.1887C9.39666 12.5388 9.58369 12.8547 9.86658 13.0668C10.1495 13.279 10.5051 13.3701 10.8551 13.3201C11.2052 13.2701 11.5211 13.0831 11.7333 12.8002C12.23 12.1378 12.8742 11.6002 13.6148 11.2299C14.3553 10.8596 15.1719 10.6668 15.9999 10.6668C16.8279 10.6668 17.6445 10.8596 18.3851 11.2299C19.1256 11.6002 19.7698 12.1378 20.2666 12.8002C20.3716 12.9402 20.5033 13.0583 20.6539 13.1475C20.8046 13.2367 20.9714 13.2953 21.1447 13.3201C21.318 13.3449 21.4945 13.3352 21.6642 13.2918C21.8338 13.2483 21.9932 13.1719 22.1333 13.0668C22.2733 12.9618 22.3913 12.8302 22.4805 12.6795C22.5698 12.5288 22.6284 12.3621 22.6532 12.1887C22.6779 12.0154 22.6683 11.8389 22.6249 11.6693C22.5814 11.4996 22.505 11.3402 22.3999 11.2002C21.6706 10.2267 20.729 9.43234 19.6466 8.8775C20.3029 8.06172 20.6625 7.04716 20.6666 6.00016C20.6666 4.76249 20.1749 3.5755 19.2997 2.70033C18.4246 1.82516 17.2376 1.3335 15.9999 1.3335C14.7622 1.3335 13.5753 1.82516 12.7001 2.70033C11.8249 3.5755 11.3333 4.76249 11.3333 6.00016C11.3376 7.0467 11.6972 8.06074 12.3533 8.87616C11.2705 9.43115 10.3288 10.226 9.59992 11.2002ZM15.9999 4.00016C16.3955 4.00016 16.7822 4.11746 17.1111 4.33722C17.44 4.55699 17.6963 4.86934 17.8477 5.2348C17.9991 5.60025 18.0387 6.00238 17.9615 6.39034C17.8843 6.77831 17.6938 7.13467 17.4141 7.41438C17.1344 7.69408 16.7781 7.88456 16.3901 7.96173C16.0021 8.0389 15.6 7.9993 15.2346 7.84792C14.8691 7.69655 14.5567 7.4402 14.337 7.1113C14.1172 6.7824 13.9999 6.39573 13.9999 6.00016C13.9999 5.46973 14.2106 4.96102 14.5857 4.58595C14.9608 4.21088 15.4695 4.00016 15.9999 4.00016Z" fill="#4A148C"/>
</svg>
