<svg width="32" height="32" viewBox="0 0 32 32" fill="none" xmlns="http://www.w3.org/2000/svg">
<path d="M12.6902 24.6405C12.6902 24.4637 12.547 24.3205 12.3702 24.3205H9.81021C9.76818 24.3205 9.72656 24.3288 9.68774 24.3449C9.64891 24.3609 9.61363 24.3845 9.58391 24.4142C9.5542 24.444 9.53063 24.4792 9.51455 24.5181C9.49847 24.5569 9.4902 24.5985 9.49021 24.6405V28.374H12.6902V24.6405ZM8.21021 29.654V24.6405C8.21021 23.7568 8.92652 23.0405 9.81021 23.0405H12.3702C13.2539 23.0405 13.9702 23.7568 13.9702 24.6405V29.654H8.21021Z" fill="#4A148C"/>
<path d="M17.1702 22.0805C17.1702 21.9037 17.027 21.7605 16.8502 21.7605H14.2902C14.2482 21.7605 14.2065 21.7687 14.1677 21.7848C14.1289 21.8009 14.0936 21.8245 14.0639 21.8542C14.0342 21.8839 14.0106 21.9192 13.9945 21.958C13.9784 21.9968 13.9702 22.0384 13.9702 22.0805V28.3739H17.1702V22.0805ZM12.6902 29.6539V22.0805C12.6902 21.1968 13.4065 20.4805 14.2902 20.4805H16.8502C17.7339 20.4805 18.4502 21.1968 18.4502 22.0805V29.6539H12.6902Z" fill="#4A148C"/>
<path d="M21.6502 19.5207C21.6502 19.3439 21.507 19.2007 21.3302 19.2007H18.7702C18.7282 19.2007 18.6866 19.209 18.6478 19.225C18.6089 19.2411 18.5737 19.2647 18.5439 19.2944C18.5142 19.3241 18.4906 19.3594 18.4746 19.3982C18.4585 19.4371 18.4502 19.4787 18.4502 19.5207V28.3741H21.6502V19.5207ZM17.1702 29.6541V19.5207C17.1702 18.637 17.8865 17.9207 18.7702 17.9207H21.3302C22.2139 17.9207 22.9302 18.637 22.9302 19.5207V29.6541H17.1702ZM14.2644 8.92948L11.7518 3.98517C11.6437 3.7723 11.7984 3.52023 12.0373 3.52023H19.9006C20.1395 3.52023 20.2941 3.77214 20.1859 3.98502L17.6734 8.92952C17.5133 9.24464 17.639 9.62989 17.9541 9.79002C18.2692 9.95014 18.6545 9.82448 18.8146 9.50936L21.3269 4.56505C21.8681 3.50073 21.0948 2.24023 19.9007 2.24023H12.0373C10.8433 2.24023 10.0699 3.50048 10.6107 4.56498L13.1234 9.50939C13.2835 9.82448 13.6688 9.95014 13.9839 9.78998C14.299 9.62983 14.4246 9.24458 14.2645 8.92948H14.2644Z" fill="#4A148C"/>
<path d="M22.6576 28.4327C25.8388 28.4327 28.4176 25.854 28.4176 22.6727V21.3242C28.4176 15.1657 23.3761 10.1242 17.2176 10.1242H14.72C8.56146 10.1242 3.51999 15.1657 3.51999 21.3242V22.6727C3.51999 25.8539 6.09893 28.4327 9.27999 28.4327H22.6576ZM22.6576 29.7127H9.27999C5.39202 29.7127 2.23999 26.5608 2.23999 22.6727V21.3242C2.23999 14.4588 7.85452 8.84424 14.72 8.84424H17.2176C24.0831 8.84424 29.6976 14.4588 29.6976 21.3242V22.6727C29.6976 26.5609 26.5458 29.7127 22.6576 29.7127Z" fill="#4A148C"/>
</svg>
