<svg width="32" height="32" viewBox="0 0 32 32" fill="none" xmlns="http://www.w3.org/2000/svg">
<g clip-path="url(#clip0_824_626)">
<path d="M30.3111 3.71497H24.5638V1.65092C24.5638 0.819236 23.8872 0.142578 23.0555 0.142578H20.6938C19.8621 0.142578 19.1854 0.819236 19.1854 1.65092V3.71497H12.8147V1.65092C12.8147 0.819236 12.138 0.142578 11.3063 0.142578H8.9446C8.11292 0.142578 7.43626 0.819236 7.43626 1.65092V3.71497H1.68908C0.854679 3.71497 0.175781 4.39161 0.175781 5.22331V9.95166V30.3489C0.175781 31.1806 0.854679 31.8573 1.68908 31.8573H30.3111C31.1454 31.8573 31.8244 31.1806 31.8244 30.3489V9.95164V5.22329C31.8244 4.39159 31.1454 3.71497 30.3111 3.71497ZM20.2968 4.82636V3.71497V1.65092C20.2968 1.43205 20.4748 1.25399 20.6938 1.25399H23.0555C23.2743 1.25399 23.4524 1.43207 23.4524 1.65092V3.71497V4.82636V6.73163C23.4524 6.95049 23.2743 7.12855 23.0555 7.12855H20.6938C20.4749 7.12855 20.2968 6.95047 20.2968 6.73163L20.2968 4.82636ZM8.54768 4.82636V3.71497V1.65092C8.54768 1.43205 8.72575 1.25399 8.9446 1.25399H11.3063C11.5252 1.25399 11.7033 1.43207 11.7033 1.65092V3.71497V4.82636V6.73163C11.7033 6.95049 11.5252 7.12855 11.3063 7.12855H8.9446C8.72574 7.12855 8.54768 6.95047 8.54768 6.73163V4.82636ZM30.713 30.3489C30.713 30.5677 30.5327 30.7458 30.3111 30.7458H1.68908C1.46751 30.7458 1.28719 30.5677 1.28719 30.3489V10.5073H30.713V30.3489ZM30.713 9.39593H1.28719V5.22329C1.28719 5.00443 1.46751 4.82635 1.68908 4.82635H7.43626V6.73161C7.43626 7.56329 8.11292 8.23995 8.9446 8.23995H11.3063C12.138 8.23995 12.8147 7.56329 12.8147 6.73161V4.82636H19.1854V6.73163C19.1854 7.56331 19.8621 8.23996 20.6938 8.23996H23.0555C23.8872 8.23996 24.5639 7.56331 24.5639 6.73163V4.82636H30.3111C30.5327 4.82636 30.713 5.00445 30.713 5.22331V9.39593Z" fill="white" stroke="white" stroke-width="0.444444"/>
<path d="M6.72654 16.2609H8.9636C9.5883 16.2609 10.0966 15.7526 10.0966 15.1279V12.8908C10.0966 12.2661 9.58831 11.7578 8.9636 11.7578H6.72654C6.10175 11.7578 5.59351 12.2661 5.59351 12.8908V15.1279C5.59351 15.7526 6.10175 16.2609 6.72654 16.2609ZM6.70492 12.8908C6.70492 12.8789 6.71461 12.8692 6.72654 12.8692H8.9636C8.97546 12.8692 8.98515 12.8789 8.98515 12.8908V15.1279C8.98515 15.1398 8.97546 15.1495 8.9636 15.1495H6.72654C6.71461 15.1495 6.70492 15.1398 6.70492 15.1279V12.8908Z" fill="white" stroke="white" stroke-width="0.444444"/>
<path d="M14.8816 16.2609H17.1187C17.7434 16.2609 18.2516 15.7526 18.2516 15.1279V12.8908C18.2516 12.2661 17.7434 11.7578 17.1187 11.7578H14.8816C14.2568 11.7578 13.7485 12.2661 13.7485 12.8908V15.1279C13.7485 15.7526 14.2568 16.2609 14.8816 16.2609ZM14.8599 12.8908C14.8599 12.8789 14.8696 12.8692 14.8816 12.8692H17.1187C17.1306 12.8692 17.1402 12.8789 17.1402 12.8908V15.1279C17.1402 15.1398 17.1306 15.1495 17.1187 15.1495H14.8816C14.8696 15.1495 14.8599 15.1398 14.8599 15.1279V12.8908Z" fill="white" stroke="white" stroke-width="0.444444"/>
<path d="M23.0365 16.2609H25.2736C25.8984 16.2609 26.4067 15.7526 26.4067 15.1279V12.8908C26.4067 12.2661 25.8984 11.7578 25.2736 11.7578H23.0365C22.4118 11.7578 21.9036 12.2661 21.9036 12.8908V15.1279C21.9036 15.7526 22.4118 16.2609 23.0365 16.2609ZM23.015 12.8908C23.015 12.8789 23.0246 12.8692 23.0365 12.8692H25.2736C25.2856 12.8692 25.2953 12.8789 25.2953 12.8908V15.1279C25.2953 15.1398 25.2856 15.1495 25.2736 15.1495H23.0365C23.0249 15.1495 23.015 15.1396 23.015 15.1279V12.8908Z" fill="white" stroke="white" stroke-width="0.444444"/>
<path d="M6.72654 22.7346H8.9636C9.5883 22.7346 10.0966 22.2263 10.0966 21.6016V19.3645C10.0966 18.7397 9.58831 18.2314 8.9636 18.2314H6.72654C6.10175 18.2314 5.59351 18.7397 5.59351 19.3645V21.6016C5.59351 22.2263 6.10175 22.7346 6.72654 22.7346ZM6.70492 19.3646C6.70492 19.3525 6.71461 19.3429 6.72654 19.3429H8.9636C8.97546 19.3429 8.98515 19.3525 8.98515 19.3646V21.6016C8.98515 21.6135 8.97546 21.6232 8.9636 21.6232H6.72654C6.71482 21.6232 6.70492 21.6133 6.70492 21.6016V19.3646Z" fill="white" stroke="white" stroke-width="0.444444"/>
<path d="M14.8816 22.7346H17.1187C17.7434 22.7346 18.2516 22.2263 18.2516 21.6016V19.3645C18.2516 18.7397 17.7434 18.2314 17.1187 18.2314H14.8816C14.2568 18.2314 13.7485 18.7397 13.7485 19.3645V21.6016C13.7485 22.2263 14.2568 22.7346 14.8816 22.7346ZM14.8599 19.3646C14.8599 19.3525 14.8696 19.3429 14.8816 19.3429H17.1187C17.1306 19.3429 17.1402 19.3525 17.1402 19.3646V21.6016C17.1402 21.6133 17.1303 21.6232 17.1187 21.6232H14.8816C14.8699 21.6232 14.8599 21.6133 14.8599 21.6016V19.3646Z" fill="white" stroke="white" stroke-width="0.444444"/>
<path d="M23.0365 22.7346H25.2736C25.8984 22.7346 26.4067 22.2263 26.4067 21.6016V19.3645C26.4067 18.7397 25.8984 18.2314 25.2736 18.2314H23.0365C22.4118 18.2314 21.9036 18.7397 21.9036 19.3645V21.6016C21.9036 22.2263 22.4118 22.7346 23.0365 22.7346ZM23.015 19.3646C23.015 19.3525 23.0246 19.3429 23.0365 19.3429H25.2736C25.2856 19.3429 25.2953 19.3525 25.2953 19.3646V21.6016C25.2953 21.6133 25.2854 21.6232 25.2736 21.6232H23.0365C23.0249 21.6232 23.015 21.6133 23.015 21.6016V19.3646Z" fill="white" stroke="white" stroke-width="0.444444"/>
<path d="M6.72654 29.2086H8.9636C9.5883 29.2086 10.0966 28.7003 10.0966 28.0756V25.8385C10.0966 25.2138 9.58831 24.7056 8.9636 24.7056H6.72654C6.10175 24.7056 5.59351 25.2138 5.59351 25.8385V28.0756C5.59351 28.7003 6.10175 29.2086 6.72654 29.2086ZM6.70492 25.8385C6.70492 25.8266 6.71461 25.817 6.72654 25.817H8.9636C8.97546 25.817 8.98515 25.8266 8.98515 25.8385V28.0756C8.98515 28.0875 8.97546 28.0971 8.9636 28.0971H6.72654C6.71461 28.0971 6.70492 28.0875 6.70492 28.0756V25.8385Z" fill="white" stroke="white" stroke-width="0.444444"/>
<path d="M14.8816 29.2086H17.1187C17.7434 29.2086 18.2516 28.7003 18.2516 28.0756V25.8385C18.2516 25.2138 17.7434 24.7056 17.1187 24.7056H14.8816C14.2568 24.7056 13.7485 25.2138 13.7485 25.8385V28.0756C13.7485 28.7003 14.2568 29.2086 14.8816 29.2086ZM14.8599 25.8385C14.8599 25.8266 14.8696 25.817 14.8816 25.817H17.1187C17.1306 25.817 17.1402 25.8266 17.1402 25.8385V28.0756C17.1402 28.0875 17.1306 28.0971 17.1187 28.0971H14.8816C14.8696 28.0971 14.8599 28.0875 14.8599 28.0756V25.8385Z" fill="white" stroke="white" stroke-width="0.444444"/>
<path d="M23.0365 29.2086H25.2736C25.8984 29.2086 26.4067 28.7003 26.4067 28.0756V25.8385C26.4067 25.2138 25.8984 24.7056 25.2736 24.7056H23.0365C22.4118 24.7056 21.9036 25.2138 21.9036 25.8385V28.0756C21.9036 28.7003 22.4118 29.2086 23.0365 29.2086ZM23.015 25.8385C23.015 25.8266 23.0246 25.817 23.0365 25.817H25.2736C25.2856 25.817 25.2953 25.8266 25.2953 25.8385V28.0756C25.2953 28.0875 25.2856 28.0971 25.2736 28.0971H23.0365C23.0249 28.0971 23.015 28.0873 23.015 28.0756V25.8385Z" fill="white" stroke="white" stroke-width="0.444444"/>
</g>
<defs>
<clipPath id="clip0_824_626">
<rect width="32" height="32" fill="white"/>
</clipPath>
</defs>
</svg>
