<svg width="32" height="32" viewBox="0 0 32 32" fill="none" xmlns="http://www.w3.org/2000/svg">
<path fill-rule="evenodd" clip-rule="evenodd" d="M26.4001 13.5732C25.9868 9.33317 23.4801 2.6665 15.7335 2.6665C7.98681 2.6665 5.48014 9.33317 5.06681 13.5732C3.61683 14.1235 2.6604 15.5156 2.66678 17.0665V18.9332C2.66678 20.995 4.33828 22.6665 6.40015 22.6665C8.46201 22.6665 10.1335 20.995 10.1335 18.9332V17.0665C10.1268 15.5491 9.20547 14.1856 7.80014 13.6132C8.06681 11.1598 9.37348 5.33317 15.7335 5.33317C22.0935 5.33317 23.3868 11.1598 23.6535 13.6132C22.251 14.1868 21.3343 15.5512 21.3335 17.0665V18.9332C21.3393 20.3665 22.1623 21.6709 23.4535 22.2932C22.8935 23.3465 21.4668 24.7732 17.9601 25.1998C17.2592 24.1354 15.903 23.7158 14.7234 24.1984C13.5438 24.6809 12.8705 25.9307 13.1165 27.1812C13.3625 28.4317 14.459 29.3332 15.7335 29.3332C16.7406 29.3276 17.6587 28.7551 18.1068 27.8532C23.8268 27.1998 25.6535 24.2532 26.2268 22.5198C27.7779 22.0174 28.8211 20.5635 28.8001 18.9332V17.0665C28.8066 15.5156 27.8501 14.1235 26.4001 13.5732ZM7.46681 18.9332C7.46681 19.5223 6.98925 19.9998 6.40015 19.9998C5.81104 19.9998 5.33348 19.5223 5.33348 18.9332V17.0665C5.33348 16.6854 5.53678 16.3333 5.86681 16.1427C6.19684 15.9522 6.60345 15.9522 6.93348 16.1427C7.26351 16.3333 7.46681 16.6854 7.46681 17.0665V18.9332ZM24.0001 17.0665C24.0001 16.4774 24.4777 15.9998 25.0668 15.9998C25.6559 15.9998 26.1335 16.4774 26.1335 17.0665V18.9332C26.1335 19.5223 25.6559 19.9998 25.0668 19.9998C24.4777 19.9998 24.0001 19.5223 24.0001 18.9332V17.0665Z" fill="#4A148C"/>
</svg>
