<svg width="32" height="32" viewBox="0 0 32 32" fill="none" xmlns="http://www.w3.org/2000/svg">
<g clip-path="url(#clip0_251_361)">
<path d="M23.6159 6.3999H8.3839C7.2959 6.3999 6.3999 7.2959 6.3999 8.3839V23.6159C6.3999 24.7039 7.2959 25.5999 8.3839 25.5999H23.6159C24.7039 25.5999 25.5999 24.7039 25.5999 23.6159V8.3839C25.5999 7.2959 24.7039 6.3999 23.6159 6.3999ZM15.1679 8.7679C15.1679 8.5119 15.4239 8.3199 15.6799 8.3199H23.1679C23.4239 8.3199 23.6159 8.5759 23.6159 8.8319V9.7919C23.6159 10.0479 23.3599 10.2399 23.1039 10.2399H15.6159C15.3599 10.2399 15.1679 9.9839 15.1679 9.7279V8.7679ZM12.6079 8.3199C13.1519 8.3199 13.5679 8.7359 13.5679 9.2799C13.5679 9.8239 13.1519 10.2399 12.6079 10.2399C12.0639 10.2399 11.6479 9.8239 11.6479 9.2799C11.6479 8.7359 12.0639 8.3199 12.6079 8.3199ZM9.2799 8.3199C9.8239 8.3199 10.2399 8.7359 10.2399 9.2799C10.2399 9.8239 9.8239 10.2399 9.2799 10.2399C8.7359 10.2399 8.3199 9.8239 8.3199 9.2799C8.3199 8.7359 8.7359 8.3199 9.2799 8.3199ZM23.6799 23.2319C23.6799 23.4879 23.4239 23.6799 23.1679 23.6799H8.7679C8.5119 23.6799 8.3199 23.4239 8.3199 23.1679V12.6079C8.3199 12.3519 8.5759 12.1599 8.8319 12.1599H23.2319C23.4879 12.1599 23.6799 12.4159 23.6799 12.6719V23.2319Z" fill="#4A148C"/>
<path d="M21.7599 16.7357C21.7599 17.0877 21.4719 17.3757 21.1199 17.3757H18.6879C18.3359 17.3757 18.0479 17.0877 18.0479 16.7357V15.7757C18.0479 15.4237 18.3359 15.1357 18.6879 15.1357H21.1199C21.4719 15.1357 21.7599 15.4237 21.7599 15.7757V16.7357Z" fill="#4A148C"/>
<path d="M21.7599 20.2558C21.7599 20.6078 21.4719 20.8958 21.1199 20.8958H18.6879C18.3359 20.8958 18.0479 20.6078 18.0479 20.2558V19.2958C18.0479 18.9438 18.3359 18.6558 18.6879 18.6558H21.1199C21.4719 18.6558 21.7599 18.9438 21.7599 19.2958V20.2558Z" fill="#4A148C"/>
<path d="M15.68 15.1357H10.752C10.496 15.1357 10.24 15.3277 10.24 15.5837V20.3837C10.24 20.6397 10.432 20.8957 10.688 20.8957H10.752H15.616C15.872 20.8957 16.128 20.7037 16.128 20.4477V15.6477C16.128 15.3917 15.936 15.1357 15.68 15.1357ZM14.4 19.9037H12C11.744 19.9037 11.52 19.6157 11.52 19.3277C11.52 18.9117 11.968 18.6557 12.416 18.4317C12.736 18.3037 12.768 18.1757 12.768 18.0157C12.768 17.8557 12.672 17.7597 12.576 17.6637C12.384 17.5037 12.288 17.2477 12.288 16.9597C12.288 16.4157 12.608 15.9677 13.184 15.9677C13.728 15.9677 14.08 16.4157 14.08 16.9597C14.08 17.2477 13.984 17.5037 13.792 17.6637C13.696 17.7597 13.6 17.8877 13.6 18.0157C13.6 18.1437 13.632 18.2717 13.952 18.3997C14.4 18.5917 14.848 18.8797 14.848 19.2957C14.88 19.6157 14.656 19.9037 14.4 19.9037Z" fill="#4A148C"/>
</g>
<defs>
<clipPath id="clip0_251_361">
<rect width="32" height="32" fill="white"/>
</clipPath>
</defs>
</svg>
