<svg width="32" height="32" viewBox="0 0 32 32" fill="none" xmlns="http://www.w3.org/2000/svg">
<path d="M29.8956 4.27539H2.10437C0.944062 4.27539 0 5.21945 0 6.37977V25.6198C0 26.7802 0.944062 27.7242 2.10437 27.7242H29.8956C31.056 27.7242 32 26.7801 32 25.6198V6.37977C32 5.21945 31.0559 4.27539 29.8956 4.27539ZM7.48225 26.7221H2.10437C1.49656 26.7221 1.00206 26.2276 1.00206 25.6198V6.37977C1.00206 5.77195 1.49656 5.27745 2.10437 5.27745H7.48225V26.7221ZM30.9979 25.6199C30.9979 26.2277 30.5034 26.7222 29.8956 26.7222H8.48438V5.27752H29.8956C30.5034 5.27752 30.9979 5.77202 30.9979 6.37983V25.6199Z" fill="white"/>
<path d="M12.259 6.41309H10.1212C9.84449 6.41309 9.62012 6.6374 9.62012 6.91415C9.62012 7.1909 9.84443 7.41521 10.1212 7.41521H12.259C12.5357 7.41521 12.7601 7.1909 12.7601 6.91415C12.7601 6.6374 12.5357 6.41309 12.259 6.41309Z" fill="white"/>
<path d="M5.84545 6.41309H2.63876C2.36207 6.41309 2.1377 6.6374 2.1377 6.91415C2.1377 7.1909 2.36201 7.41521 2.63876 7.41521H5.84545C6.12213 7.41521 6.34651 7.1909 6.34651 6.91415C6.34651 6.6374 6.1222 6.41309 5.84545 6.41309Z" fill="white"/>
<path d="M5.84545 11.7578H2.63876C2.36207 11.7578 2.1377 11.9821 2.1377 12.2589C2.1377 12.5356 2.36201 12.7599 2.63876 12.7599H5.84545C6.12213 12.7599 6.34651 12.5356 6.34651 12.2589C6.34651 11.9821 6.1222 11.7578 5.84545 11.7578Z" fill="white"/>
<path d="M5.84545 16.0332H2.63876C2.36207 16.0332 2.1377 16.2575 2.1377 16.5343C2.1377 16.811 2.36201 17.0353 2.63876 17.0353H5.84545C6.12213 17.0353 6.34651 16.811 6.34651 16.5343C6.34651 16.2575 6.1222 16.0332 5.84545 16.0332Z" fill="white"/>
<path d="M5.84545 20.3086H2.63876C2.36207 20.3086 2.1377 20.5329 2.1377 20.8097C2.1377 21.0864 2.36201 21.3107 2.63876 21.3107H5.84545C6.12213 21.3107 6.34651 21.0864 6.34651 20.8097C6.34651 20.5329 6.1222 20.3086 5.84545 20.3086Z" fill="white"/>
<path d="M5.84545 13.8955H2.63876C2.36207 13.8955 2.1377 14.1198 2.1377 14.3966C2.1377 14.6733 2.36201 14.8976 2.63876 14.8976H5.84545C6.12213 14.8976 6.34651 14.6733 6.34651 14.3966C6.34651 14.1198 6.1222 13.8955 5.84545 13.8955Z" fill="white"/>
<path d="M5.84545 18.1709H2.63876C2.36207 18.1709 2.1377 18.3952 2.1377 18.672C2.1377 18.9487 2.36201 19.173 2.63876 19.173H5.84545C6.12213 19.173 6.34651 18.9487 6.34651 18.672C6.34651 18.3952 6.1222 18.1709 5.84545 18.1709Z" fill="white"/>
<path d="M4.77657 23.5156H2.63876C2.36207 23.5156 2.1377 23.7399 2.1377 24.0167C2.1377 24.2934 2.36201 24.5177 2.63876 24.5177H4.77657C5.05326 24.5177 5.27763 24.2934 5.27763 24.0167C5.27763 23.7399 5.05326 23.5156 4.77657 23.5156Z" fill="white"/>
<path d="M4.77657 8.55078H2.63876C2.36207 8.55078 2.1377 8.77509 2.1377 9.05184C2.1377 9.32859 2.36201 9.55291 2.63876 9.55291H4.77657C5.05326 9.55291 5.27763 9.32859 5.27763 9.05184C5.27763 8.77509 5.05326 8.55078 4.77657 8.55078Z" fill="white"/>
<path d="M16.5344 6.41309H14.3966C14.1199 6.41309 13.8955 6.6374 13.8955 6.91415C13.8955 7.1909 14.1198 7.41521 14.3966 7.41521H16.5344C16.8111 7.41521 17.0354 7.1909 17.0354 6.91415C17.0354 6.6374 16.8111 6.41309 16.5344 6.41309Z" fill="white"/>
<path d="M20.81 6.41309H18.6722C18.3955 6.41309 18.1711 6.6374 18.1711 6.91415C18.1711 7.1909 18.3955 7.41521 18.6722 7.41521H20.81C21.0867 7.41521 21.3111 7.1909 21.3111 6.91415C21.3111 6.6374 21.0868 6.41309 20.81 6.41309Z" fill="white"/>
<path d="M25.0857 6.41309H22.9478C22.6712 6.41309 22.4468 6.6374 22.4468 6.91415C22.4468 7.1909 22.6711 7.41521 22.9478 7.41521H25.0857C25.3623 7.41521 25.5867 7.1909 25.5867 6.91415C25.5867 6.6374 25.3623 6.41309 25.0857 6.41309Z" fill="white"/>
<path d="M29.3613 6.41309H27.2235C26.9468 6.41309 26.7224 6.6374 26.7224 6.91415C26.7224 7.1909 26.9467 7.41521 27.2235 7.41521H29.3613C29.638 7.41521 29.8623 7.1909 29.8623 6.91415C29.8623 6.6374 29.638 6.41309 29.3613 6.41309Z" fill="white"/>
<path d="M15.7667 17.7369C15.5455 17.5707 15.2314 17.6153 15.0652 17.8366C14.6505 18.3887 14.0172 18.7053 13.3279 18.7053C12.1307 18.7053 11.1567 17.7313 11.1567 16.5341C11.1567 15.3369 12.1307 14.3629 13.3279 14.3629C14.0177 14.3629 14.6514 14.68 15.066 15.2327C15.232 15.454 15.5461 15.499 15.7674 15.3328C15.9887 15.1667 16.0335 14.8527 15.8675 14.6314C15.2617 13.8239 14.3361 13.3608 13.3278 13.3608C11.5781 13.3608 10.1545 14.7844 10.1545 16.5341C10.1545 18.2838 11.5781 19.7073 13.3278 19.7073C14.3353 19.7073 15.2605 19.2448 15.8664 18.4384C16.0327 18.2172 15.988 17.9031 15.7667 17.7369Z" fill="white"/>
<path d="M20.7094 17.5245C21.6623 17.3239 22.38 16.477 22.38 15.4652C22.38 14.3048 21.4359 13.3608 20.2756 13.3608H17.6034C17.3267 13.3608 17.1023 13.5852 17.1023 13.8619V19.2063C17.1023 19.483 17.3266 19.7074 17.6034 19.7074C17.8801 19.7074 18.1044 19.4831 18.1044 19.2063V17.5696H19.4907L20.9437 19.507C21.0422 19.6382 21.1926 19.7074 21.3449 19.7074C21.4495 19.7074 21.555 19.6747 21.6452 19.6072C21.8665 19.4412 21.9114 19.1271 21.7454 18.9058L20.7094 17.5245ZM18.1044 16.5676V14.363H20.2755C20.8834 14.363 21.3779 14.8575 21.3779 15.4653C21.3779 16.0732 20.8834 16.5677 20.2755 16.5677H18.1044V16.5676Z" fill="white"/>
<path d="M29.3253 19.1564L28.7909 13.8121C28.7679 13.5824 28.591 13.3981 28.3625 13.3658C28.1342 13.3334 27.9128 13.4615 27.8272 13.6759L26.1545 17.8573L24.4819 13.6759C24.3962 13.4616 24.1752 13.3338 23.9466 13.3658C23.718 13.3981 23.5412 13.5824 23.5182 13.8121L22.9837 19.1565C22.9562 19.4319 23.1571 19.6774 23.4325 19.7049C23.7075 19.7324 23.9533 19.5316 23.9809 19.2562L24.3117 15.9483L25.6894 19.3924C25.7655 19.5826 25.9497 19.7074 26.1546 19.7074C26.3595 19.7074 26.5437 19.5826 26.6198 19.3924L27.9975 15.9483L28.3283 19.2562C28.3542 19.5146 28.5719 19.7074 28.8263 19.7074C28.843 19.7074 28.8598 19.7066 28.8767 19.7048C29.152 19.6774 29.3528 19.4318 29.3253 19.1564Z" fill="white"/>
</svg>
