<svg width="95" height="54" viewBox="0 0 95 54" fill="none" xmlns="http://www.w3.org/2000/svg">
<path d="M60.0119 36.6627C58.604 35.1713 58.604 32.7576 60.0119 31.2662L75.2954 15.0769C76.7033 13.5855 78.9819 13.5855 80.3899 15.0769C81.7978 16.5683 81.7978 18.982 80.3899 20.4734L65.1064 36.6627C63.6985 38.1541 61.4199 38.1541 60.0119 36.6627ZM43.6737 27.2611L43.6737 4.36295C43.6737 2.2551 45.2858 0.547487 47.2757 0.547489C49.2656 0.547493 50.8776 2.25511 50.8776 4.36296L50.8777 27.2608C50.8777 29.3686 49.2656 31.0762 47.2757 31.0762C45.2856 31.0764 43.6737 29.369 43.6737 27.2611ZM0.445114 50.1537C0.44511 48.0458 2.05717 46.3382 4.04708 46.3382L25.6637 46.3382C27.6536 46.3382 29.2657 48.0459 29.2657 50.1537C29.2657 52.2616 27.6536 53.9692 25.6637 53.9692L4.0471 53.9691C2.05718 53.9691 0.445284 52.2617 0.445114 50.1537ZM65.2854 50.1538C65.2854 48.0459 66.8975 46.3383 68.8874 46.3383L90.504 46.3383C92.4939 46.3383 94.106 48.046 94.106 50.1538C94.106 52.2617 92.494 53.9693 90.504 53.9693L68.8874 53.9692C66.8975 53.9692 65.2856 52.2618 65.2854 50.1538ZM29.445 36.6626L14.1615 20.4733C12.7535 18.9819 12.7535 16.5682 14.1615 15.0768C15.5694 13.5854 17.848 13.5854 19.256 15.0768L34.5395 31.2662C35.9474 32.7576 35.9474 35.1712 34.5395 36.6626C33.1315 38.154 30.8529 38.154 29.445 36.6626Z" fill="#F01111"/>
</svg>
