<svg width="65" height="65" viewBox="0 0 65 65" fill="none" xmlns="http://www.w3.org/2000/svg">
<path d="M64.7187 1.95934C64.671 1.52946 64.4784 1.12862 64.1726 0.822783C63.8668 0.516951 63.4659 0.324356 63.036 0.276696C47.9663 -1.39706 35.1203 4.6312 24.6415 15.4178C21.6429 18.5049 19.0418 21.7724 16.8216 24.926C13.064 24.7732 8.89793 26.4731 5.94423 29.4268L0.557601 34.8135C0.261222 35.11 0.0709447 35.496 0.0162703 35.9116C-0.0384041 36.3273 0.0455788 36.7494 0.255198 37.1125C0.464909 37.4755 0.78851 37.7592 1.17584 37.9195C1.56317 38.0799 1.99259 38.1081 2.39754 37.9996C3.64714 37.664 5.67801 37.2737 7.6289 37.1829C8.342 37.1497 8.93462 37.1601 9.42707 37.1978C8.23841 39.484 7.32726 41.3992 7.02537 41.8787C6.79551 42.2441 6.69658 42.6767 6.74479 43.1057C6.793 43.5346 6.98548 43.9345 7.2907 44.2397L10.4074 47.3565C5.87136 53.5429 5.79646 56.7114 5.81233 57.1602C5.84559 58.1108 6.587 59.0015 7.81489 59.0015C8.87812 59.0015 11.9274 58.5502 17.4786 54.4278L20.7571 57.7062C21.0647 58.0135 21.4681 58.2065 21.9003 58.2529C22.3326 58.2994 22.7678 58.1966 23.1336 57.9616C23.6464 57.6318 25.449 56.759 27.6106 55.6294C27.6464 57.2404 27.4277 59.6066 26.953 62.8137C26.6833 64.6325 28.8946 65.7275 30.1834 64.4392L35.5701 59.0525C38.3475 56.2749 39.9583 52.1495 39.8393 48.2794C43.1614 45.9581 46.6174 43.2197 49.8444 40.0552C60.5282 29.578 66.3711 16.8291 64.7187 1.95934ZM61.0758 3.91899C61.3797 8.02517 61.0554 12.0053 60.1107 15.857C57.7646 15.1182 55.4709 13.6666 53.3995 11.5957C51.3207 9.51623 49.8662 7.2133 49.1302 4.8587C52.9804 3.92787 56.9632 3.61252 61.0758 3.91899ZM7.38045 33.3774L8.63704 32.1202C10.1571 30.6006 12.1337 29.5062 14.0995 29.0142C13.1443 30.5321 12.2274 32.0737 11.3497 33.6376C10.1025 33.3624 8.71588 33.3114 7.38045 33.3774ZM10.9842 42.5472C11.3964 41.7338 11.8947 40.7143 12.8097 38.9855L15.3164 41.4929C14.3837 42.4936 13.5416 43.4443 12.7828 44.3454L10.9842 42.5472ZM20.2969 41.8186C21.6845 40.4317 23.015 40.1781 24.6679 40.1425C24.6316 41.7532 24.3734 43.1289 22.9903 44.5119C17.078 50.4242 13.0254 53.0644 10.6019 54.2428C11.7975 51.7727 14.4448 47.6709 20.2969 41.8186ZM22.4388 54.0017L20.4749 52.0375C21.3716 51.2758 22.3193 50.4311 23.3191 49.4949L25.9876 52.1634C24.233 53.1002 23.501 53.4528 22.4388 54.0017ZM32.8762 56.3592L31.3518 57.8842C31.4753 56.037 31.4327 54.6911 31.2581 53.6526C32.7842 52.7942 34.2898 51.8997 35.7733 50.9697C35.3191 52.9832 34.2981 54.9379 32.8762 56.3592ZM29.4545 50.2443L26.0401 46.8293C28.5668 44.0493 28.4725 41.3704 28.4725 38.2407C28.4725 37.1889 27.62 36.3364 26.5682 36.3364C23.6444 36.3364 20.8305 36.1796 17.9795 38.7693L14.7189 35.5087C23.6225 19.8959 33.9142 10.0114 45.4774 5.94097C46.3927 8.90305 48.1746 11.757 50.7067 14.2892C53.227 16.8098 56.0676 18.5872 59.0167 19.5061C54.9225 31.0058 45.0405 41.291 29.4545 50.2443Z" fill="#FFBE00"/>
<path d="M48.0134 16.9821C44.3004 13.2696 38.2592 13.2696 34.5469 16.9821C30.8345 20.695 30.8345 26.7362 34.5469 30.4486C38.2592 34.1609 44.3004 34.1615 48.0133 30.4486C51.7257 26.7362 51.7257 20.695 48.0133 16.9821H48.0134ZM45.32 27.7553C43.0925 29.9829 39.4673 29.9829 37.2402 27.7553C35.0125 25.5276 35.0125 21.903 37.2402 19.6753C39.4673 17.4483 43.092 17.4478 45.32 19.6753C47.5476 21.903 47.5476 25.5276 45.32 27.7553Z" fill="#FFBE00"/>
</svg>
