<svg width="110" height="93" viewBox="0 0 110 93" fill="none" xmlns="http://www.w3.org/2000/svg">
<path d="M0.799438 12.0594L13.1179 0.972746C13.8167 0.343886 14.7645 -0.00939941 15.7527 -0.00939941C16.7409 -0.00939941 17.6886 0.343886 18.3874 0.972746L30.7059 12.0594C31.2178 12.52 31.5053 13.1448 31.5053 13.7963C31.5054 14.4477 31.2178 15.0725 30.706 15.5332C30.1942 15.9939 29.5 16.2527 28.7761 16.2527C28.0523 16.2527 27.3581 15.9939 26.8462 15.5333L18.4353 8.00523C18.7847 39.4605 35.4617 50.0802 45.4465 53.6131C46.1658 53.8676 46.8935 54.1 47.6296 54.3104C46.8574 51.7563 46.2822 49.1572 45.9082 46.5317C44.6836 37.8187 46.0801 30.6026 49.8433 26.2127C55.5635 19.5393 63.1705 16.5291 71.2589 17.7353C75.39 18.3771 79.2466 20.0259 82.4093 22.5023C85.6051 24.949 88.015 28.1208 89.389 31.6887C92.0315 38.6637 90.0262 46.0711 83.8857 52.0119C77.999 57.7081 68.6593 60.7836 58.8513 60.7834C57.8535 60.7834 56.8524 60.7512 55.8478 60.6868C57.2026 63.5388 58.8135 66.2866 60.6646 68.903C67.0312 77.877 81.4743 92.163 106.674 87.0237C107.374 86.8889 108.106 87.0081 108.71 87.3555C109.314 87.703 109.741 88.2506 109.9 88.8797C110.058 89.5088 109.934 90.1687 109.556 90.7164C109.177 91.264 108.574 91.6553 107.877 91.8054C104.099 92.5915 100.235 92.9953 96.3574 93.0093C89.5313 93.0363 82.7939 91.6166 76.6906 88.865C68.6901 85.267 61.5607 79.2771 56.0729 71.5427C53.4746 67.8653 51.3113 63.9531 49.6184 59.8702C47.5173 59.4504 45.4557 58.884 43.4524 58.1762C34.6184 55.0499 27.2076 49.2666 22.0219 41.4506C16.1724 32.6348 13.1351 21.3971 12.9856 8.0381L4.65824 15.5329C4.4048 15.761 4.10392 15.9419 3.77279 16.0653C3.44165 16.1888 3.08675 16.2523 2.72833 16.2523C2.36992 16.2523 2.01501 16.1887 1.68389 16.0653C1.35276 15.9418 1.0519 15.7609 0.79847 15.5328C0.545036 15.3047 0.344009 15.0339 0.206856 14.7359C0.0697098 14.4379 -0.00087738 14.1185 -0.000862122 13.7959C-0.000854492 13.4733 0.0697479 13.1539 0.206917 12.8559C0.344086 12.5579 0.545135 12.2871 0.798576 12.059L0.799438 12.0594ZM51.3129 45.9166C51.783 49.184 52.5858 52.4057 53.7109 55.5409C63.794 56.7834 74.1166 54.2661 79.8978 48.6726C84.6974 44.0289 86.2372 38.5599 84.2336 33.2711C82.1601 27.799 76.5884 23.4997 70.3691 22.5721C69.5446 22.4485 68.7102 22.3861 67.8743 22.3856C62.7745 22.3856 57.9764 24.7519 54.1574 29.2075C51.3214 32.5153 50.285 38.6055 51.3129 45.9162V45.9166Z" fill="#DD5D00"/>
</svg>
