<svg width="139" height="31" viewBox="0 0 139 31" fill="none" xmlns="http://www.w3.org/2000/svg">
<path d="M15.5 0L18.98 10.7102H30.2414L21.1307 17.3295L24.6107 28.0398L15.5 21.4205L6.38933 28.0398L9.8693 17.3295L0.758624 10.7102H12.02L15.5 0Z" fill="#08A935"/>
<path d="M42.5 0L45.98 10.7102H57.2414L48.1307 17.3295L51.6107 28.0398L42.5 21.4205L33.3893 28.0398L36.8693 17.3295L27.7586 10.7102H39.02L42.5 0Z" fill="#08A935"/>
<path d="M69.5 0L72.98 10.7102H84.2414L75.1307 17.3295L78.6107 28.0398L69.5 21.4205L60.3893 28.0398L63.8693 17.3295L54.7586 10.7102H66.02L69.5 0Z" fill="#08A935"/>
<path d="M96.5 0L99.98 10.7102H111.241L102.131 17.3295L105.611 28.0398L96.5 21.4205L87.3893 28.0398L90.8693 17.3295L81.7586 10.7102H93.02L96.5 0Z" fill="#08A935"/>
<path d="M123.5 0L126.98 10.7102H138.241L129.131 17.3295L132.611 28.0398L123.5 21.4205L114.389 28.0398L117.869 17.3295L108.759 10.7102H120.02L123.5 0Z" fill="#08A935"/>
</svg>
