<svg width="45" height="45" viewBox="0 0 45 45" fill="none" xmlns="http://www.w3.org/2000/svg">
<g clip-path="url(#clip0_1112_1249)">
<path d="M29.9962 0.0565368C30.4634 -0.0325112 30.9448 -0.0118945 31.4027 0.116763C31.8605 0.245421 32.2822 0.478608 32.6346 0.797962C32.987 1.11732 33.2605 1.51412 33.4335 1.95712C33.6065 2.40013 33.6742 2.87724 33.6315 3.35089C33.4822 5.38641 30.4783 6.47982 28.7474 7.44009C23.9411 10.1379 19.131 12.8291 14.3172 15.5136C13.2682 16.0926 12.32 16.8551 11.1419 16.7643C9.43521 16.6292 8.24093 14.8842 8.41241 13.24C8.60204 11.384 11.2286 10.4641 13.1734 9.37878C17.2767 7.09916 20.2503 5.34607 24.1983 3.131C25.9574 2.14653 28.0575 0.445888 29.9962 0.0565368ZM11.5958 19.2618C14.8115 18.9431 19.7157 19.1549 23.6435 19.1489C25.8747 19.1428 33.2502 18.4287 35.2212 19.6048C36.5688 20.4037 36.9722 23.0242 35.901 24.2609C34.388 26.0422 25.5882 25.1707 22.3786 25.1707H15.108C12.5843 25.1707 10.0122 25.3018 9.08823 24.0369C8.6202 23.3833 8.50319 21.5516 8.75738 20.8556C9.13664 19.7561 9.98797 19.4192 11.5958 19.2618ZM10.799 28.1221C12.782 27.7711 15.6769 30.1375 17.1577 30.9666C21.4042 33.3309 24.1277 34.7391 28.7454 37.3294C30.3855 38.2452 33.4116 39.5928 33.6295 41.4186C33.8332 43.1414 32.5784 44.5979 31.4749 44.8259C29.3486 45.2616 26.4033 42.8428 25.1121 42.0984C21.0088 39.724 17.8254 38.0839 13.4074 35.6227C11.8702 34.7633 8.70694 33.5186 8.41241 31.6464C8.12191 29.8328 9.16085 28.4146 10.799 28.1221Z" fill="#F8BE30"/>
</g>
<defs>
<clipPath id="clip0_1112_1249">
<rect width="44.8783" height="44.8783" fill="white"/>
</clipPath>
</defs>
</svg>
