<svg width="28" height="32" viewBox="0 0 28 32" fill="none" xmlns="http://www.w3.org/2000/svg">
<path d="M18.3335 12.8205L12.5557 19.1798L9.66674 16.0001M15.8001 2.4213L17.5637 4.07552C18.008 4.49228 18.5597 4.74424 19.1417 4.79535L21.4514 4.99796C22.8094 5.11723 23.8881 6.30369 23.9965 7.79835L24.1801 10.341C24.2265 10.9815 24.4563 11.5896 24.8349 12.0786L26.3372 14.0192C27.2208 15.1604 27.221 16.8391 26.3374 17.9804L24.8351 19.9213C24.4564 20.4103 24.227 21.0186 24.1805 21.6591L23.9957 24.2013C23.8874 25.696 22.8104 26.8832 21.4524 27.0025L19.1418 27.2054C18.5599 27.2565 18.0077 27.5078 17.5633 27.9246L15.8001 29.5788C14.7632 30.5514 13.2371 30.5516 12.2002 29.579L10.4369 27.9247C9.99261 27.5079 9.44039 27.2562 8.85846 27.2051L6.54787 27.0025C5.18988 26.8832 4.11291 25.6963 4.00454 24.2016L3.81975 21.6593C3.77331 21.0188 3.54387 20.411 3.16522 19.9219L1.66292 17.9805C0.779303 16.8392 0.778889 15.161 1.6625 14.0198L3.16616 12.0783C3.54481 11.5893 3.77204 10.9815 3.81848 10.341L4.00327 7.79865C4.11163 6.30399 5.19172 5.11708 6.54971 4.9978L8.85775 4.79519C9.43968 4.74408 9.99217 4.49233 10.4365 4.07557L12.2003 2.4213C13.2372 1.44876 14.7632 1.44876 15.8001 2.4213Z" stroke="#DD5D00" stroke-width="2" stroke-linecap="round" stroke-linejoin="round"/>
</svg>
